G04 #@! TF.GenerationSoftware,KiCad,Pcbnew,8.0.9-8.0.9-0~ubuntu24.04.1*
G04 #@! TF.CreationDate,2025-06-21T17:25:31+03:00*
G04 #@! TF.ProjectId,retrolight-main,72657472-6f6c-4696-9768-742d6d61696e,rev?*
G04 #@! TF.SameCoordinates,Original*
G04 #@! TF.FileFunction,Legend,Bot*
G04 #@! TF.FilePolarity,Positive*
%FSLAX46Y46*%
G04 Gerber Fmt 4.6, Leading zero omitted, Abs format (unit mm)*
G04 Created by KiCad (PCBNEW 8.0.9-8.0.9-0~ubuntu24.04.1) date 2025-06-21 17:25:31*
%MOMM*%
%LPD*%
G01*
G04 APERTURE LIST*
%ADD10C,0.150000*%
%ADD11C,0.120000*%
%ADD12R,1.700000X1.700000*%
%ADD13O,1.700000X1.700000*%
G04 APERTURE END LIST*
D10*
X160333333Y-85454819D02*
X160333333Y-86169104D01*
X160333333Y-86169104D02*
X160380952Y-86311961D01*
X160380952Y-86311961D02*
X160476190Y-86407200D01*
X160476190Y-86407200D02*
X160619047Y-86454819D01*
X160619047Y-86454819D02*
X160714285Y-86454819D01*
X159333333Y-86454819D02*
X159904761Y-86454819D01*
X159619047Y-86454819D02*
X159619047Y-85454819D01*
X159619047Y-85454819D02*
X159714285Y-85597676D01*
X159714285Y-85597676D02*
X159809523Y-85692914D01*
X159809523Y-85692914D02*
X159904761Y-85740533D01*
D11*
X153560000Y-92080000D02*
X166380000Y-92080000D01*
X166380000Y-89480000D02*
X166380000Y-92080000D01*
X153560000Y-86880000D02*
X153560000Y-92080000D01*
X163780000Y-89480000D02*
X166380000Y-89480000D01*
X163780000Y-86880000D02*
X163780000Y-89480000D01*
X166380000Y-86880000D02*
X166380000Y-88210000D01*
X165050000Y-86880000D02*
X166380000Y-86880000D01*
X153560000Y-86880000D02*
X163780000Y-86880000D01*
%LPC*%
D12*
X165050000Y-88210000D03*
D13*
X165050000Y-90750000D03*
X162510000Y-88210000D03*
X162510000Y-90750000D03*
X159970000Y-88210000D03*
X159970000Y-90750000D03*
X157430000Y-88210000D03*
X157430000Y-90750000D03*
X154890000Y-88210000D03*
X154890000Y-90750000D03*
%LPD*%
M02*
