G04 #@! TF.GenerationSoftware,KiCad,Pcbnew,8.0.9-8.0.9-0~ubuntu24.04.1*
G04 #@! TF.CreationDate,2025-06-21T17:25:31+03:00*
G04 #@! TF.ProjectId,retrolight-main,72657472-6f6c-4696-9768-742d6d61696e,rev?*
G04 #@! TF.SameCoordinates,Original*
G04 #@! TF.FileFunction,Copper,L1,Top*
G04 #@! TF.FilePolarity,Positive*
%FSLAX46Y46*%
G04 Gerber Fmt 4.6, Leading zero omitted, Abs format (unit mm)*
G04 Created by KiCad (PCBNEW 8.0.9-8.0.9-0~ubuntu24.04.1) date 2025-06-21 17:25:31*
%MOMM*%
%LPD*%
G01*
G04 APERTURE LIST*
G04 Aperture macros list*
%AMRoundRect*
0 Rectangle with rounded corners*
0 $1 Rounding radius*
0 $2 $3 $4 $5 $6 $7 $8 $9 X,Y pos of 4 corners*
0 Add a 4 corners polygon primitive as box body*
4,1,4,$2,$3,$4,$5,$6,$7,$8,$9,$2,$3,0*
0 Add four circle primitives for the rounded corners*
1,1,$1+$1,$2,$3*
1,1,$1+$1,$4,$5*
1,1,$1+$1,$6,$7*
1,1,$1+$1,$8,$9*
0 Add four rect primitives between the rounded corners*
20,1,$1+$1,$2,$3,$4,$5,0*
20,1,$1+$1,$4,$5,$6,$7,0*
20,1,$1+$1,$6,$7,$8,$9,0*
20,1,$1+$1,$8,$9,$2,$3,0*%
G04 Aperture macros list end*
G04 #@! TA.AperFunction,ComponentPad*
%ADD10R,1.700000X1.700000*%
G04 #@! TD*
G04 #@! TA.AperFunction,ComponentPad*
%ADD11O,1.700000X1.700000*%
G04 #@! TD*
G04 #@! TA.AperFunction,SMDPad,CuDef*
%ADD12RoundRect,0.100000X-0.637500X-0.100000X0.637500X-0.100000X0.637500X0.100000X-0.637500X0.100000X0*%
G04 #@! TD*
G04 #@! TA.AperFunction,SMDPad,CuDef*
%ADD13RoundRect,0.237500X0.237500X-0.250000X0.237500X0.250000X-0.237500X0.250000X-0.237500X-0.250000X0*%
G04 #@! TD*
G04 #@! TA.AperFunction,SMDPad,CuDef*
%ADD14RoundRect,0.237500X0.250000X0.237500X-0.250000X0.237500X-0.250000X-0.237500X0.250000X-0.237500X0*%
G04 #@! TD*
G04 #@! TA.AperFunction,SMDPad,CuDef*
%ADD15RoundRect,0.237500X-0.237500X0.250000X-0.237500X-0.250000X0.237500X-0.250000X0.237500X0.250000X0*%
G04 #@! TD*
G04 #@! TA.AperFunction,SMDPad,CuDef*
%ADD16RoundRect,0.137500X-0.537500X-0.137500X0.537500X-0.137500X0.537500X0.137500X-0.537500X0.137500X0*%
G04 #@! TD*
G04 #@! TA.AperFunction,SMDPad,CuDef*
%ADD17RoundRect,0.237500X0.237500X-0.300000X0.237500X0.300000X-0.237500X0.300000X-0.237500X-0.300000X0*%
G04 #@! TD*
G04 #@! TA.AperFunction,ViaPad*
%ADD18C,0.600000*%
G04 #@! TD*
G04 #@! TA.AperFunction,Conductor*
%ADD19C,0.300000*%
G04 #@! TD*
G04 #@! TA.AperFunction,Conductor*
%ADD20C,0.200000*%
G04 #@! TD*
G04 APERTURE END LIST*
D10*
X165050000Y-88210000D03*
D11*
X165050000Y-90750000D03*
X162510000Y-88210000D03*
X162510000Y-90750000D03*
X159970000Y-88210000D03*
X159970000Y-90750000D03*
X157430000Y-88210000D03*
X157430000Y-90750000D03*
X154890000Y-88210000D03*
X154890000Y-90750000D03*
D12*
X157137500Y-71075000D03*
X157137500Y-71725000D03*
X157137500Y-72375000D03*
X157137500Y-73025000D03*
X157137500Y-73675000D03*
X157137500Y-74325000D03*
X157137500Y-74975000D03*
X157137500Y-75625000D03*
X157137500Y-76275000D03*
X157137500Y-76925000D03*
X162862500Y-76925000D03*
X162862500Y-76275000D03*
X162862500Y-75625000D03*
X162862500Y-74975000D03*
X162862500Y-74325000D03*
X162862500Y-73675000D03*
X162862500Y-73025000D03*
X162862500Y-72375000D03*
X162862500Y-71725000D03*
X162862500Y-71075000D03*
D13*
X154500000Y-70412500D03*
X154500000Y-68587500D03*
D14*
X144087500Y-86000000D03*
X145912500Y-86000000D03*
X144087500Y-82000000D03*
X145912500Y-82000000D03*
X144087500Y-78000000D03*
X145912500Y-78000000D03*
X144087500Y-74000000D03*
X145912500Y-74000000D03*
X144087500Y-84000000D03*
X145912500Y-84000000D03*
X144087500Y-80000000D03*
X145912500Y-80000000D03*
X144087500Y-76000000D03*
X145912500Y-76000000D03*
X144087500Y-72000000D03*
X145912500Y-72000000D03*
D15*
X170000000Y-82587500D03*
X170000000Y-84412500D03*
X167500000Y-82587500D03*
X167500000Y-84412500D03*
X165000000Y-82587500D03*
X165000000Y-84412500D03*
X162500000Y-82587500D03*
X162500000Y-84412500D03*
X157500000Y-82587500D03*
X157500000Y-84412500D03*
X155000000Y-82587500D03*
X155000000Y-84412500D03*
X152500000Y-82587500D03*
X152500000Y-84412500D03*
X150000000Y-82587500D03*
X150000000Y-84412500D03*
D16*
X170000000Y-80100000D03*
X170000000Y-80900000D03*
X167500000Y-80100000D03*
X167500000Y-80900000D03*
X165000000Y-80100000D03*
X165000000Y-80900000D03*
X162500000Y-80100000D03*
X162500000Y-80900000D03*
X152500000Y-80100000D03*
X152500000Y-80900000D03*
X150000000Y-80100000D03*
X150000000Y-80900000D03*
D17*
X165500000Y-70362500D03*
X165500000Y-68637500D03*
X167500000Y-68637500D03*
X167500000Y-70362500D03*
D16*
X157500000Y-80100000D03*
X157500000Y-80900000D03*
X155000000Y-80100000D03*
X155000000Y-80900000D03*
D18*
X160000000Y-83000000D03*
X160000000Y-82000000D03*
X160000000Y-81000000D03*
X160000000Y-80000000D03*
X159500000Y-74500000D03*
X160500000Y-74500000D03*
X160500000Y-73500000D03*
X159500000Y-73500000D03*
X145000000Y-85000000D03*
X145000000Y-83000000D03*
X145000000Y-81000000D03*
X145000000Y-79000000D03*
X145000000Y-73000000D03*
X145000000Y-75000000D03*
X145000000Y-77000000D03*
D19*
X142500000Y-80500000D02*
X142500000Y-84500000D01*
X142500000Y-84500000D02*
X142500000Y-86500000D01*
X144087500Y-84000000D02*
X143000000Y-84000000D01*
X143000000Y-84000000D02*
X142500000Y-84500000D01*
X150710000Y-88210000D02*
X150000000Y-87500000D01*
X154890000Y-88210000D02*
X150710000Y-88210000D01*
X150000000Y-87500000D02*
X150000000Y-84412500D01*
X157430000Y-88210000D02*
X154890000Y-88210000D01*
X173500000Y-90000000D02*
X172750000Y-90750000D01*
X172750000Y-90750000D02*
X165050000Y-90750000D01*
X167500000Y-70362500D02*
X172862500Y-70362500D01*
X172862500Y-70362500D02*
X173500000Y-71000000D01*
X173500000Y-71000000D02*
X173500000Y-90000000D01*
X162510000Y-90750000D02*
X165050000Y-90750000D01*
X142500000Y-91000000D02*
X142500000Y-91500000D01*
X162510000Y-90750000D02*
X161260000Y-92000000D01*
X143000000Y-92000000D02*
X142500000Y-91500000D01*
X161260000Y-92000000D02*
X143000000Y-92000000D01*
D20*
X162862500Y-73025000D02*
X171025000Y-73025000D01*
X171025000Y-73025000D02*
X171500000Y-73500000D01*
X171500000Y-73500000D02*
X171500000Y-85000000D01*
X171500000Y-85000000D02*
X171000000Y-85500000D01*
X171000000Y-85500000D02*
X162680000Y-85500000D01*
X162680000Y-85500000D02*
X159970000Y-88210000D01*
X162862500Y-72375000D02*
X171375000Y-72375000D01*
X171375000Y-72375000D02*
X172000000Y-73000000D01*
X172000000Y-73000000D02*
X172000000Y-85500000D01*
X172000000Y-85500000D02*
X171500000Y-86000000D01*
X171500000Y-86000000D02*
X164720000Y-86000000D01*
X164720000Y-86000000D02*
X162510000Y-88210000D01*
X162862500Y-71725000D02*
X171725000Y-71725000D01*
X171725000Y-71725000D02*
X172500000Y-72500000D01*
X172500000Y-72500000D02*
X172500000Y-86000000D01*
X172500000Y-86000000D02*
X172000000Y-86500000D01*
X166760000Y-86500000D02*
X165050000Y-88210000D01*
X172000000Y-86500000D02*
X166760000Y-86500000D01*
D19*
X162862500Y-71075000D02*
X163925000Y-71075000D01*
X163925000Y-71075000D02*
X164637500Y-70362500D01*
X164637500Y-70362500D02*
X165500000Y-70362500D01*
D20*
X154500000Y-70412500D02*
X155412500Y-70412500D01*
X155412500Y-70412500D02*
X156075000Y-71075000D01*
X156075000Y-71075000D02*
X157137500Y-71075000D01*
D19*
X142500000Y-86500000D02*
X142500000Y-91000000D01*
X142500000Y-76500000D02*
X142500000Y-80500000D01*
X144087500Y-80000000D02*
X143000000Y-80000000D01*
X143000000Y-80000000D02*
X142500000Y-80500000D01*
X142500000Y-72500000D02*
X142500000Y-76500000D01*
X144087500Y-76000000D02*
X143000000Y-76000000D01*
X143000000Y-76000000D02*
X142500000Y-76500000D01*
X144087500Y-72000000D02*
X143000000Y-72000000D01*
X143000000Y-72000000D02*
X142500000Y-72500000D01*
X165500000Y-70362500D02*
X167500000Y-70362500D01*
D20*
X157137500Y-71725000D02*
X146187500Y-71725000D01*
X146187500Y-71725000D02*
X145912500Y-72000000D01*
X148500000Y-83500000D02*
X148000000Y-84000000D01*
X157137500Y-73675000D02*
X148825000Y-73675000D01*
X148500000Y-74000000D02*
X148500000Y-83500000D01*
X148825000Y-73675000D02*
X148500000Y-74000000D01*
X148000000Y-84000000D02*
X145912500Y-84000000D01*
X148000000Y-73500000D02*
X148000000Y-79500000D01*
X148000000Y-79500000D02*
X147500000Y-80000000D01*
X157137500Y-73025000D02*
X148475000Y-73025000D01*
X148475000Y-73025000D02*
X148000000Y-73500000D01*
X147500000Y-80000000D02*
X145912500Y-80000000D01*
X147500000Y-75500000D02*
X147000000Y-76000000D01*
X147500000Y-73000000D02*
X147500000Y-75500000D01*
X157137500Y-72375000D02*
X148125000Y-72375000D01*
X148125000Y-72375000D02*
X147500000Y-73000000D01*
X147000000Y-76000000D02*
X145912500Y-76000000D01*
X145912500Y-84000000D02*
X145912500Y-86000000D01*
X145912500Y-80000000D02*
X145912500Y-82000000D01*
X145912500Y-76000000D02*
X145912500Y-78000000D01*
X145912500Y-72000000D02*
X145912500Y-74000000D01*
D19*
X152500000Y-84412500D02*
X150000000Y-84412500D01*
X155000000Y-84412500D02*
X152500000Y-84412500D01*
X157500000Y-84412500D02*
X155000000Y-84412500D01*
X162500000Y-84412500D02*
X157500000Y-84412500D01*
X165000000Y-84412500D02*
X162500000Y-84412500D01*
X167500000Y-84412500D02*
X165000000Y-84412500D01*
X170000000Y-84412500D02*
X167500000Y-84412500D01*
D20*
X155000000Y-80100000D02*
X155000000Y-76500000D01*
X155000000Y-76500000D02*
X155225000Y-76275000D01*
X155225000Y-76275000D02*
X157137500Y-76275000D01*
X165000000Y-80100000D02*
X165000000Y-76500000D01*
X165000000Y-76500000D02*
X164775000Y-76275000D01*
X164775000Y-76275000D02*
X162862500Y-76275000D01*
X157137500Y-78500000D02*
X157137500Y-76925000D01*
X157137500Y-78500000D02*
X157500000Y-78862500D01*
X157500000Y-78862500D02*
X157500000Y-80100000D01*
X162862500Y-78500000D02*
X162862500Y-76925000D01*
X162862500Y-78500000D02*
X162500000Y-78862500D01*
X162500000Y-78862500D02*
X162500000Y-80100000D01*
X150000000Y-80900000D02*
X150000000Y-82587500D01*
X152500000Y-80900000D02*
X152500000Y-82587500D01*
X155000000Y-80900000D02*
X155000000Y-82587500D01*
X157500000Y-80900000D02*
X157500000Y-82587500D01*
X170000000Y-80900000D02*
X170000000Y-82587500D01*
X167500000Y-80900000D02*
X167500000Y-82587500D01*
X165000000Y-80900000D02*
X165000000Y-82587500D01*
X162500000Y-80900000D02*
X162500000Y-82587500D01*
X170000000Y-80100000D02*
X170000000Y-75000000D01*
X170000000Y-75000000D02*
X169325000Y-74325000D01*
X169325000Y-74325000D02*
X162862500Y-74325000D01*
X150000000Y-80100000D02*
X150000000Y-75000000D01*
X150000000Y-75000000D02*
X150675000Y-74325000D01*
X150675000Y-74325000D02*
X157137500Y-74325000D01*
X152500000Y-80100000D02*
X152500000Y-75500000D01*
X152500000Y-75500000D02*
X153025000Y-74975000D01*
X153025000Y-74975000D02*
X157137500Y-74975000D01*
X167500000Y-80100000D02*
X167500000Y-75500000D01*
X167500000Y-75500000D02*
X166975000Y-74975000D01*
X166975000Y-74975000D02*
X162862500Y-74975000D01*
G04 #@! TA.AperFunction,Conductor*
G36*
X154010687Y-67819407D02*
G01*
X154046651Y-67868907D01*
X154046651Y-67930093D01*
X154011284Y-67979155D01*
X153949650Y-68024642D01*
X153949641Y-68024651D01*
X153871330Y-68130759D01*
X153827772Y-68255240D01*
X153827771Y-68255241D01*
X153825000Y-68284798D01*
X153825000Y-68487499D01*
X153825001Y-68487500D01*
X155174999Y-68487500D01*
X155175000Y-68487499D01*
X155175000Y-68284798D01*
X155172228Y-68255241D01*
X155172227Y-68255240D01*
X155128669Y-68130759D01*
X155050358Y-68024651D01*
X155050349Y-68024642D01*
X154988716Y-67979155D01*
X154953123Y-67929388D01*
X154953581Y-67868204D01*
X154989914Y-67818974D01*
X155047504Y-67800500D01*
X159927525Y-67800500D01*
X164952496Y-67800500D01*
X165010687Y-67819407D01*
X165046651Y-67868907D01*
X165046651Y-67930093D01*
X165011284Y-67979155D01*
X164949650Y-68024642D01*
X164949641Y-68024651D01*
X164871330Y-68130759D01*
X164827772Y-68255240D01*
X164827771Y-68255241D01*
X164825000Y-68284798D01*
X164825000Y-68537499D01*
X164825001Y-68537500D01*
X166174999Y-68537500D01*
X166175000Y-68537499D01*
X166175000Y-68284798D01*
X166172228Y-68255241D01*
X166172227Y-68255240D01*
X166128669Y-68130759D01*
X166050358Y-68024651D01*
X166050349Y-68024642D01*
X165988716Y-67979155D01*
X165953123Y-67929388D01*
X165953581Y-67868204D01*
X165989914Y-67818974D01*
X166047504Y-67800500D01*
X166952496Y-67800500D01*
X167010687Y-67819407D01*
X167046651Y-67868907D01*
X167046651Y-67930093D01*
X167011284Y-67979155D01*
X166949650Y-68024642D01*
X166949641Y-68024651D01*
X166871330Y-68130759D01*
X166827772Y-68255240D01*
X166827771Y-68255241D01*
X166825000Y-68284798D01*
X166825000Y-68537499D01*
X166825001Y-68537500D01*
X168174999Y-68537500D01*
X168175000Y-68537499D01*
X168175000Y-68284798D01*
X168172228Y-68255241D01*
X168172227Y-68255240D01*
X168128669Y-68130759D01*
X168050358Y-68024651D01*
X168050349Y-68024642D01*
X167988716Y-67979155D01*
X167953123Y-67929388D01*
X167953581Y-67868204D01*
X167989914Y-67818974D01*
X168047504Y-67800500D01*
X179600500Y-67800500D01*
X179658691Y-67819407D01*
X179694655Y-67868907D01*
X179699500Y-67899500D01*
X179699500Y-92100500D01*
X179680593Y-92158691D01*
X179631093Y-92194655D01*
X179600500Y-92199500D01*
X161795190Y-92199500D01*
X161736999Y-92180593D01*
X161701035Y-92131093D01*
X161701035Y-92069907D01*
X161725186Y-92030497D01*
X162006085Y-91749596D01*
X162060602Y-91721818D01*
X162104827Y-91724862D01*
X162106045Y-91725231D01*
X162106046Y-91725232D01*
X162186364Y-91749596D01*
X162304065Y-91785300D01*
X162304070Y-91785301D01*
X162509997Y-91805583D01*
X162510000Y-91805583D01*
X162510003Y-91805583D01*
X162715929Y-91785301D01*
X162715934Y-91785300D01*
X162913954Y-91725232D01*
X163096450Y-91627685D01*
X163256410Y-91496410D01*
X163387685Y-91336450D01*
X163485232Y-91153954D01*
X163485232Y-91153952D01*
X163485832Y-91152831D01*
X163529938Y-91110425D01*
X163573142Y-91100500D01*
X163986858Y-91100500D01*
X164045049Y-91119407D01*
X164074168Y-91152831D01*
X164074767Y-91153952D01*
X164074768Y-91153954D01*
X164108117Y-91216345D01*
X164172316Y-91336452D01*
X164187389Y-91354818D01*
X164303590Y-91496410D01*
X164303595Y-91496414D01*
X164463547Y-91627683D01*
X164463548Y-91627683D01*
X164463550Y-91627685D01*
X164646046Y-91725232D01*
X164783997Y-91767078D01*
X164844065Y-91785300D01*
X164844070Y-91785301D01*
X165049997Y-91805583D01*
X165050000Y-91805583D01*
X165050003Y-91805583D01*
X165255929Y-91785301D01*
X165255934Y-91785300D01*
X165453954Y-91725232D01*
X165636450Y-91627685D01*
X165796410Y-91496410D01*
X165927685Y-91336450D01*
X166025232Y-91153954D01*
X166025232Y-91153952D01*
X166025832Y-91152831D01*
X166069938Y-91110425D01*
X166113142Y-91100500D01*
X172796142Y-91100500D01*
X172796144Y-91100500D01*
X172885288Y-91076614D01*
X172965212Y-91030470D01*
X173780470Y-90215212D01*
X173826614Y-90135288D01*
X173840111Y-90084916D01*
X173850500Y-90046144D01*
X173850500Y-70953856D01*
X173826614Y-70864712D01*
X173809194Y-70834540D01*
X173780470Y-70784788D01*
X173077712Y-70082030D01*
X172997788Y-70035886D01*
X172908644Y-70012000D01*
X172908642Y-70012000D01*
X168254114Y-70012000D01*
X168195923Y-69993093D01*
X168160670Y-69945698D01*
X168143684Y-69897160D01*
X168129116Y-69855525D01*
X168050711Y-69749289D01*
X168050706Y-69749285D01*
X167944476Y-69670884D01*
X167819852Y-69627276D01*
X167819851Y-69627275D01*
X167819849Y-69627275D01*
X167819847Y-69627274D01*
X167819844Y-69627274D01*
X167790266Y-69624500D01*
X167790256Y-69624500D01*
X167209744Y-69624500D01*
X167209733Y-69624500D01*
X167180155Y-69627274D01*
X167180147Y-69627276D01*
X167055523Y-69670884D01*
X166949293Y-69749285D01*
X166949285Y-69749293D01*
X166870884Y-69855523D01*
X166870884Y-69855524D01*
X166839330Y-69945698D01*
X166802264Y-69994379D01*
X166745886Y-70012000D01*
X166254114Y-70012000D01*
X166195923Y-69993093D01*
X166160670Y-69945698D01*
X166143684Y-69897160D01*
X166129116Y-69855525D01*
X166050711Y-69749289D01*
X166050706Y-69749285D01*
X165944476Y-69670884D01*
X165819852Y-69627276D01*
X165819851Y-69627275D01*
X165819849Y-69627275D01*
X165819847Y-69627274D01*
X165819844Y-69627274D01*
X165790266Y-69624500D01*
X165790256Y-69624500D01*
X165209744Y-69624500D01*
X165209733Y-69624500D01*
X165180155Y-69627274D01*
X165180147Y-69627276D01*
X165055523Y-69670884D01*
X164949293Y-69749285D01*
X164949285Y-69749293D01*
X164870884Y-69855523D01*
X164870884Y-69855524D01*
X164839330Y-69945698D01*
X164802264Y-69994379D01*
X164745886Y-70012000D01*
X164591356Y-70012000D01*
X164502212Y-70035886D01*
X164422288Y-70082030D01*
X163808814Y-70695504D01*
X163754297Y-70723281D01*
X163738810Y-70724500D01*
X163697512Y-70724500D01*
X163657526Y-70716065D01*
X163569991Y-70677415D01*
X163569990Y-70677414D01*
X163569988Y-70677414D01*
X163544868Y-70674500D01*
X162180139Y-70674500D01*
X162180136Y-70674501D01*
X162155009Y-70677414D01*
X162052235Y-70722794D01*
X161972794Y-70802235D01*
X161927414Y-70905011D01*
X161924500Y-70930130D01*
X161924500Y-71219859D01*
X161924501Y-71219864D01*
X161927414Y-71244990D01*
X161932053Y-71255496D01*
X161963747Y-71327276D01*
X161976500Y-71356157D01*
X161974126Y-71357205D01*
X161987537Y-71402757D01*
X161974477Y-71442949D01*
X161976500Y-71443843D01*
X161972794Y-71452234D01*
X161972794Y-71452235D01*
X161963809Y-71472584D01*
X161927414Y-71555011D01*
X161924500Y-71580130D01*
X161924500Y-71869859D01*
X161924501Y-71869864D01*
X161927414Y-71894990D01*
X161976500Y-72006157D01*
X161974126Y-72007205D01*
X161987537Y-72052757D01*
X161974477Y-72092949D01*
X161976500Y-72093843D01*
X161972794Y-72102234D01*
X161972794Y-72102235D01*
X161963809Y-72122585D01*
X161927414Y-72205011D01*
X161924500Y-72230130D01*
X161924500Y-72519859D01*
X161924501Y-72519864D01*
X161927414Y-72544990D01*
X161951437Y-72599397D01*
X161971653Y-72645182D01*
X161976500Y-72656157D01*
X161974126Y-72657205D01*
X161987537Y-72702757D01*
X161974477Y-72742949D01*
X161976500Y-72743843D01*
X161972794Y-72752234D01*
X161972794Y-72752235D01*
X161958530Y-72784540D01*
X161927414Y-72855011D01*
X161924500Y-72880130D01*
X161924500Y-73169859D01*
X161924501Y-73169864D01*
X161927414Y-73194990D01*
X161949887Y-73245886D01*
X161962534Y-73274529D01*
X161976500Y-73306157D01*
X161974280Y-73307137D01*
X161987845Y-73353198D01*
X161974845Y-73393214D01*
X161976919Y-73394130D01*
X161927909Y-73505127D01*
X161925000Y-73530202D01*
X161925000Y-73574999D01*
X161925001Y-73575000D01*
X163799998Y-73575000D01*
X163799999Y-73574999D01*
X163799999Y-73530210D01*
X163799998Y-73530208D01*
X163797090Y-73505125D01*
X163779147Y-73464488D01*
X163772939Y-73403618D01*
X163803695Y-73350725D01*
X163859667Y-73326011D01*
X163869712Y-73325500D01*
X170859521Y-73325500D01*
X170917712Y-73344407D01*
X170929525Y-73354496D01*
X171170504Y-73595475D01*
X171198281Y-73649992D01*
X171199500Y-73665479D01*
X171199500Y-84834521D01*
X171180593Y-84892712D01*
X171170504Y-84904525D01*
X170904525Y-85170504D01*
X170850008Y-85198281D01*
X170834521Y-85199500D01*
X170548345Y-85199500D01*
X170490154Y-85180593D01*
X170454190Y-85131093D01*
X170454190Y-85069907D01*
X170489557Y-85020845D01*
X170527858Y-84992577D01*
X170550711Y-84975711D01*
X170629116Y-84869475D01*
X170672725Y-84744849D01*
X170675500Y-84715256D01*
X170675500Y-84109744D01*
X170675500Y-84109738D01*
X170675499Y-84109733D01*
X170672725Y-84080155D01*
X170672725Y-84080151D01*
X170629116Y-83955525D01*
X170629113Y-83955521D01*
X170550714Y-83849293D01*
X170550713Y-83849292D01*
X170550711Y-83849289D01*
X170550706Y-83849285D01*
X170444476Y-83770884D01*
X170319852Y-83727276D01*
X170319851Y-83727275D01*
X170319849Y-83727275D01*
X170319847Y-83727274D01*
X170319844Y-83727274D01*
X170290266Y-83724500D01*
X170290256Y-83724500D01*
X169709744Y-83724500D01*
X169709733Y-83724500D01*
X169680155Y-83727274D01*
X169680147Y-83727276D01*
X169555523Y-83770884D01*
X169449293Y-83849285D01*
X169449285Y-83849293D01*
X169370885Y-83955521D01*
X169370882Y-83955527D01*
X169356826Y-83995698D01*
X169319760Y-84044379D01*
X169263382Y-84062000D01*
X168236618Y-84062000D01*
X168178427Y-84043093D01*
X168143174Y-83995698D01*
X168129117Y-83955527D01*
X168129114Y-83955521D01*
X168050714Y-83849293D01*
X168050713Y-83849292D01*
X168050711Y-83849289D01*
X168050706Y-83849285D01*
X167944476Y-83770884D01*
X167819852Y-83727276D01*
X167819851Y-83727275D01*
X167819849Y-83727275D01*
X167819847Y-83727274D01*
X167819844Y-83727274D01*
X167790266Y-83724500D01*
X167790256Y-83724500D01*
X167209744Y-83724500D01*
X167209733Y-83724500D01*
X167180155Y-83727274D01*
X167180147Y-83727276D01*
X167055523Y-83770884D01*
X166949293Y-83849285D01*
X166949285Y-83849293D01*
X166870885Y-83955521D01*
X166870882Y-83955527D01*
X166856826Y-83995698D01*
X166819760Y-84044379D01*
X166763382Y-84062000D01*
X165736618Y-84062000D01*
X165678427Y-84043093D01*
X165643174Y-83995698D01*
X165629117Y-83955527D01*
X165629114Y-83955521D01*
X165550714Y-83849293D01*
X165550713Y-83849292D01*
X165550711Y-83849289D01*
X165550706Y-83849285D01*
X165444476Y-83770884D01*
X165319852Y-83727276D01*
X165319851Y-83727275D01*
X165319849Y-83727275D01*
X165319847Y-83727274D01*
X165319844Y-83727274D01*
X165290266Y-83724500D01*
X165290256Y-83724500D01*
X164709744Y-83724500D01*
X164709733Y-83724500D01*
X164680155Y-83727274D01*
X164680147Y-83727276D01*
X164555523Y-83770884D01*
X164449293Y-83849285D01*
X164449285Y-83849293D01*
X164370885Y-83955521D01*
X164370882Y-83955527D01*
X164356826Y-83995698D01*
X164319760Y-84044379D01*
X164263382Y-84062000D01*
X163236618Y-84062000D01*
X163178427Y-84043093D01*
X163143174Y-83995698D01*
X163129117Y-83955527D01*
X163129114Y-83955521D01*
X163050714Y-83849293D01*
X163050713Y-83849292D01*
X163050711Y-83849289D01*
X163050706Y-83849285D01*
X162944476Y-83770884D01*
X162819852Y-83727276D01*
X162819851Y-83727275D01*
X162819849Y-83727275D01*
X162819847Y-83727274D01*
X162819844Y-83727274D01*
X162790266Y-83724500D01*
X162790256Y-83724500D01*
X162209744Y-83724500D01*
X162209733Y-83724500D01*
X162180155Y-83727274D01*
X162180147Y-83727276D01*
X162055523Y-83770884D01*
X161949293Y-83849285D01*
X161949285Y-83849293D01*
X161870885Y-83955521D01*
X161870882Y-83955527D01*
X161856826Y-83995698D01*
X161819760Y-84044379D01*
X161763382Y-84062000D01*
X158236618Y-84062000D01*
X158178427Y-84043093D01*
X158143174Y-83995698D01*
X158129117Y-83955527D01*
X158129114Y-83955521D01*
X158050714Y-83849293D01*
X158050713Y-83849292D01*
X158050711Y-83849289D01*
X158050706Y-83849285D01*
X157944476Y-83770884D01*
X157819852Y-83727276D01*
X157819851Y-83727275D01*
X157819849Y-83727275D01*
X157819847Y-83727274D01*
X157819844Y-83727274D01*
X157790266Y-83724500D01*
X157790256Y-83724500D01*
X157209744Y-83724500D01*
X157209733Y-83724500D01*
X157180155Y-83727274D01*
X157180147Y-83727276D01*
X157055523Y-83770884D01*
X156949293Y-83849285D01*
X156949285Y-83849293D01*
X156870885Y-83955521D01*
X156870882Y-83955527D01*
X156856826Y-83995698D01*
X156819760Y-84044379D01*
X156763382Y-84062000D01*
X155736618Y-84062000D01*
X155678427Y-84043093D01*
X155643174Y-83995698D01*
X155629117Y-83955527D01*
X155629114Y-83955521D01*
X155550714Y-83849293D01*
X155550713Y-83849292D01*
X155550711Y-83849289D01*
X155550706Y-83849285D01*
X155444476Y-83770884D01*
X155319852Y-83727276D01*
X155319851Y-83727275D01*
X155319849Y-83727275D01*
X155319847Y-83727274D01*
X155319844Y-83727274D01*
X155290266Y-83724500D01*
X155290256Y-83724500D01*
X154709744Y-83724500D01*
X154709733Y-83724500D01*
X154680155Y-83727274D01*
X154680147Y-83727276D01*
X154555523Y-83770884D01*
X154449293Y-83849285D01*
X154449285Y-83849293D01*
X154370885Y-83955521D01*
X154370882Y-83955527D01*
X154356826Y-83995698D01*
X154319760Y-84044379D01*
X154263382Y-84062000D01*
X153236618Y-84062000D01*
X153178427Y-84043093D01*
X153143174Y-83995698D01*
X153129117Y-83955527D01*
X153129114Y-83955521D01*
X153050714Y-83849293D01*
X153050713Y-83849292D01*
X153050711Y-83849289D01*
X153050706Y-83849285D01*
X152944476Y-83770884D01*
X152819852Y-83727276D01*
X152819851Y-83727275D01*
X152819849Y-83727275D01*
X152819847Y-83727274D01*
X152819844Y-83727274D01*
X152790266Y-83724500D01*
X152790256Y-83724500D01*
X152209744Y-83724500D01*
X152209733Y-83724500D01*
X152180155Y-83727274D01*
X152180147Y-83727276D01*
X152055523Y-83770884D01*
X151949293Y-83849285D01*
X151949285Y-83849293D01*
X151870885Y-83955521D01*
X151870882Y-83955527D01*
X151856826Y-83995698D01*
X151819760Y-84044379D01*
X151763382Y-84062000D01*
X150736618Y-84062000D01*
X150678427Y-84043093D01*
X150643174Y-83995698D01*
X150629117Y-83955527D01*
X150629114Y-83955521D01*
X150550714Y-83849293D01*
X150550713Y-83849292D01*
X150550711Y-83849289D01*
X150550706Y-83849285D01*
X150444476Y-83770884D01*
X150319852Y-83727276D01*
X150319851Y-83727275D01*
X150319849Y-83727275D01*
X150319847Y-83727274D01*
X150319844Y-83727274D01*
X150290266Y-83724500D01*
X150290256Y-83724500D01*
X149709744Y-83724500D01*
X149709733Y-83724500D01*
X149680155Y-83727274D01*
X149680147Y-83727276D01*
X149555523Y-83770884D01*
X149449293Y-83849285D01*
X149449285Y-83849293D01*
X149370884Y-83955523D01*
X149327276Y-84080147D01*
X149327274Y-84080155D01*
X149324500Y-84109733D01*
X149324500Y-84715266D01*
X149327274Y-84744844D01*
X149327276Y-84744852D01*
X149370884Y-84869476D01*
X149449285Y-84975706D01*
X149449289Y-84975711D01*
X149449292Y-84975713D01*
X149449293Y-84975714D01*
X149555521Y-85054114D01*
X149555523Y-85054114D01*
X149555525Y-85054116D01*
X149583198Y-85063799D01*
X149631878Y-85100863D01*
X149649500Y-85157243D01*
X149649500Y-87546144D01*
X149655166Y-87567288D01*
X149670241Y-87623550D01*
X149670241Y-87623552D01*
X149673383Y-87635282D01*
X149673384Y-87635284D01*
X149673385Y-87635287D01*
X149673386Y-87635288D01*
X149719530Y-87715212D01*
X150494788Y-88490470D01*
X150574712Y-88536614D01*
X150663856Y-88560500D01*
X150663857Y-88560500D01*
X150756144Y-88560500D01*
X153826858Y-88560500D01*
X153885049Y-88579407D01*
X153914168Y-88612831D01*
X154012316Y-88796452D01*
X154143585Y-88956404D01*
X154143590Y-88956410D01*
X154143595Y-88956414D01*
X154303547Y-89087683D01*
X154303548Y-89087683D01*
X154303550Y-89087685D01*
X154486046Y-89185232D01*
X154623997Y-89227078D01*
X154684065Y-89245300D01*
X154684070Y-89245301D01*
X154889997Y-89265583D01*
X154890000Y-89265583D01*
X154890003Y-89265583D01*
X155095929Y-89245301D01*
X155095934Y-89245300D01*
X155293954Y-89185232D01*
X155476450Y-89087685D01*
X155636410Y-88956410D01*
X155767685Y-88796450D01*
X155865232Y-88613954D01*
X155865232Y-88613952D01*
X155865832Y-88612831D01*
X155909938Y-88570425D01*
X155953142Y-88560500D01*
X156366858Y-88560500D01*
X156425049Y-88579407D01*
X156454168Y-88612831D01*
X156552316Y-88796452D01*
X156683585Y-88956404D01*
X156683590Y-88956410D01*
X156683595Y-88956414D01*
X156843547Y-89087683D01*
X156843548Y-89087683D01*
X156843550Y-89087685D01*
X157026046Y-89185232D01*
X157163997Y-89227078D01*
X157224065Y-89245300D01*
X157224070Y-89245301D01*
X157429997Y-89265583D01*
X157430000Y-89265583D01*
X157430003Y-89265583D01*
X157635929Y-89245301D01*
X157635934Y-89245300D01*
X157833954Y-89185232D01*
X158016450Y-89087685D01*
X158176410Y-88956410D01*
X158307685Y-88796450D01*
X158405232Y-88613954D01*
X158465300Y-88415934D01*
X158465301Y-88415929D01*
X158485583Y-88210003D01*
X158485583Y-88209996D01*
X158465301Y-88004070D01*
X158465300Y-88004065D01*
X158447078Y-87943997D01*
X158405232Y-87806046D01*
X158307685Y-87623550D01*
X158261512Y-87567288D01*
X158176414Y-87463595D01*
X158176410Y-87463590D01*
X158176404Y-87463585D01*
X158016452Y-87332316D01*
X157833954Y-87234768D01*
X157635934Y-87174699D01*
X157635929Y-87174698D01*
X157430003Y-87154417D01*
X157429997Y-87154417D01*
X157224070Y-87174698D01*
X157224065Y-87174699D01*
X157026045Y-87234768D01*
X156843547Y-87332316D01*
X156683595Y-87463585D01*
X156683585Y-87463595D01*
X156552316Y-87623547D01*
X156454168Y-87807169D01*
X156410062Y-87849575D01*
X156366858Y-87859500D01*
X155953142Y-87859500D01*
X155894951Y-87840593D01*
X155865832Y-87807169D01*
X155848880Y-87775454D01*
X155767685Y-87623550D01*
X155721512Y-87567288D01*
X155636414Y-87463595D01*
X155636410Y-87463590D01*
X155636404Y-87463585D01*
X155476452Y-87332316D01*
X155293954Y-87234768D01*
X155095934Y-87174699D01*
X155095929Y-87174698D01*
X154890003Y-87154417D01*
X154889997Y-87154417D01*
X154684070Y-87174698D01*
X154684065Y-87174699D01*
X154486045Y-87234768D01*
X154303547Y-87332316D01*
X154143595Y-87463585D01*
X154143585Y-87463595D01*
X154012316Y-87623547D01*
X153914168Y-87807169D01*
X153870062Y-87849575D01*
X153826858Y-87859500D01*
X150896190Y-87859500D01*
X150837999Y-87840593D01*
X150826186Y-87830504D01*
X150379496Y-87383814D01*
X150351719Y-87329297D01*
X150350500Y-87313810D01*
X150350500Y-85157243D01*
X150369407Y-85099052D01*
X150416801Y-85063799D01*
X150444475Y-85054116D01*
X150550711Y-84975711D01*
X150629116Y-84869475D01*
X150630259Y-84866208D01*
X150643174Y-84829302D01*
X150680240Y-84780621D01*
X150736618Y-84763000D01*
X151763382Y-84763000D01*
X151821573Y-84781907D01*
X151856826Y-84829302D01*
X151870882Y-84869472D01*
X151870885Y-84869478D01*
X151949285Y-84975706D01*
X151949289Y-84975711D01*
X151949292Y-84975713D01*
X151949293Y-84975714D01*
X152055523Y-85054115D01*
X152055524Y-85054115D01*
X152055525Y-85054116D01*
X152180151Y-85097725D01*
X152207441Y-85100284D01*
X152209733Y-85100499D01*
X152209738Y-85100500D01*
X152209744Y-85100500D01*
X152790262Y-85100500D01*
X152790265Y-85100499D01*
X152819849Y-85097725D01*
X152944475Y-85054116D01*
X153050711Y-84975711D01*
X153129116Y-84869475D01*
X153130259Y-84866208D01*
X153143174Y-84829302D01*
X153180240Y-84780621D01*
X153236618Y-84763000D01*
X154263382Y-84763000D01*
X154321573Y-84781907D01*
X154356826Y-84829302D01*
X154370882Y-84869472D01*
X154370885Y-84869478D01*
X154449285Y-84975706D01*
X154449289Y-84975711D01*
X154449292Y-84975713D01*
X154449293Y-84975714D01*
X154555523Y-85054115D01*
X154555524Y-85054115D01*
X154555525Y-85054116D01*
X154680151Y-85097725D01*
X154707441Y-85100284D01*
X154709733Y-85100499D01*
X154709738Y-85100500D01*
X154709744Y-85100500D01*
X155290262Y-85100500D01*
X155290265Y-85100499D01*
X155319849Y-85097725D01*
X155444475Y-85054116D01*
X155550711Y-84975711D01*
X155629116Y-84869475D01*
X155630259Y-84866208D01*
X155643174Y-84829302D01*
X155680240Y-84780621D01*
X155736618Y-84763000D01*
X156763382Y-84763000D01*
X156821573Y-84781907D01*
X156856826Y-84829302D01*
X156870882Y-84869472D01*
X156870885Y-84869478D01*
X156949285Y-84975706D01*
X156949289Y-84975711D01*
X156949292Y-84975713D01*
X156949293Y-84975714D01*
X157055523Y-85054115D01*
X157055524Y-85054115D01*
X157055525Y-85054116D01*
X157180151Y-85097725D01*
X157207441Y-85100284D01*
X157209733Y-85100499D01*
X157209738Y-85100500D01*
X157209744Y-85100500D01*
X157790262Y-85100500D01*
X157790265Y-85100499D01*
X157819849Y-85097725D01*
X157944475Y-85054116D01*
X158050711Y-84975711D01*
X158129116Y-84869475D01*
X158130259Y-84866208D01*
X158143174Y-84829302D01*
X158180240Y-84780621D01*
X158236618Y-84763000D01*
X161763382Y-84763000D01*
X161821573Y-84781907D01*
X161856826Y-84829302D01*
X161870882Y-84869472D01*
X161870885Y-84869478D01*
X161949285Y-84975706D01*
X161949289Y-84975711D01*
X161949292Y-84975713D01*
X161949293Y-84975714D01*
X162055523Y-85054115D01*
X162055524Y-85054115D01*
X162055525Y-85054116D01*
X162180151Y-85097725D01*
X162207441Y-85100284D01*
X162209733Y-85100499D01*
X162209738Y-85100500D01*
X162415522Y-85100500D01*
X162473713Y-85119407D01*
X162509677Y-85168907D01*
X162509677Y-85230093D01*
X162485527Y-85269501D01*
X162074882Y-85680147D01*
X160521215Y-87233812D01*
X160466698Y-87261589D01*
X160406266Y-87252018D01*
X160404583Y-87251139D01*
X160373954Y-87234768D01*
X160175934Y-87174699D01*
X160175929Y-87174698D01*
X159970003Y-87154417D01*
X159969997Y-87154417D01*
X159764070Y-87174698D01*
X159764065Y-87174699D01*
X159566045Y-87234768D01*
X159383547Y-87332316D01*
X159223595Y-87463585D01*
X159223585Y-87463595D01*
X159092316Y-87623547D01*
X158994768Y-87806045D01*
X158934699Y-88004065D01*
X158934698Y-88004070D01*
X158914417Y-88209996D01*
X158914417Y-88210003D01*
X158934698Y-88415929D01*
X158934699Y-88415934D01*
X158994768Y-88613954D01*
X159092316Y-88796452D01*
X159223585Y-88956404D01*
X159223590Y-88956410D01*
X159223595Y-88956414D01*
X159383547Y-89087683D01*
X159383548Y-89087683D01*
X159383550Y-89087685D01*
X159566046Y-89185232D01*
X159703997Y-89227078D01*
X159764065Y-89245300D01*
X159764070Y-89245301D01*
X159969997Y-89265583D01*
X159970000Y-89265583D01*
X159970003Y-89265583D01*
X160175929Y-89245301D01*
X160175934Y-89245300D01*
X160373954Y-89185232D01*
X160556450Y-89087685D01*
X160716410Y-88956410D01*
X160847685Y-88796450D01*
X160945232Y-88613954D01*
X161005300Y-88415934D01*
X161005301Y-88415929D01*
X161025583Y-88210003D01*
X161025583Y-88209996D01*
X161005301Y-88004070D01*
X161005300Y-88004065D01*
X160987078Y-87943997D01*
X160945232Y-87806046D01*
X160945229Y-87806040D01*
X160928881Y-87775454D01*
X160918125Y-87715221D01*
X160944827Y-87660170D01*
X160946137Y-87658832D01*
X162775475Y-85829496D01*
X162829992Y-85801719D01*
X162845479Y-85800500D01*
X164255521Y-85800500D01*
X164313712Y-85819407D01*
X164349676Y-85868907D01*
X164349676Y-85930093D01*
X164325525Y-85969504D01*
X163061215Y-87233812D01*
X163006698Y-87261589D01*
X162946266Y-87252018D01*
X162944583Y-87251139D01*
X162913954Y-87234768D01*
X162715934Y-87174699D01*
X162715929Y-87174698D01*
X162510003Y-87154417D01*
X162509997Y-87154417D01*
X162304070Y-87174698D01*
X162304065Y-87174699D01*
X162106045Y-87234768D01*
X161923547Y-87332316D01*
X161763595Y-87463585D01*
X161763585Y-87463595D01*
X161632316Y-87623547D01*
X161534768Y-87806045D01*
X161474699Y-88004065D01*
X161474698Y-88004070D01*
X161454417Y-88209996D01*
X161454417Y-88210003D01*
X161474698Y-88415929D01*
X161474699Y-88415934D01*
X161534768Y-88613954D01*
X161632316Y-88796452D01*
X161763585Y-88956404D01*
X161763590Y-88956410D01*
X161763595Y-88956414D01*
X161923547Y-89087683D01*
X161923548Y-89087683D01*
X161923550Y-89087685D01*
X162106046Y-89185232D01*
X162243997Y-89227078D01*
X162304065Y-89245300D01*
X162304070Y-89245301D01*
X162509997Y-89265583D01*
X162510000Y-89265583D01*
X162510003Y-89265583D01*
X162715929Y-89245301D01*
X162715934Y-89245300D01*
X162913954Y-89185232D01*
X163096450Y-89087685D01*
X163256410Y-88956410D01*
X163387685Y-88796450D01*
X163485232Y-88613954D01*
X163545300Y-88415934D01*
X163545301Y-88415929D01*
X163565583Y-88210003D01*
X163565583Y-88209996D01*
X163545301Y-88004070D01*
X163545300Y-88004065D01*
X163527078Y-87943997D01*
X163485232Y-87806046D01*
X163485229Y-87806040D01*
X163468881Y-87775454D01*
X163458125Y-87715221D01*
X163484827Y-87660170D01*
X163486188Y-87658782D01*
X163830497Y-87314474D01*
X163885013Y-87286697D01*
X163945445Y-87296268D01*
X163988710Y-87339533D01*
X163999500Y-87384478D01*
X163999500Y-89079746D01*
X163999501Y-89079758D01*
X164011132Y-89138227D01*
X164011134Y-89138233D01*
X164055445Y-89204548D01*
X164055448Y-89204552D01*
X164121769Y-89248867D01*
X164166231Y-89257711D01*
X164180241Y-89260498D01*
X164180246Y-89260498D01*
X164180252Y-89260500D01*
X164180253Y-89260500D01*
X165919747Y-89260500D01*
X165919748Y-89260500D01*
X165978231Y-89248867D01*
X166044552Y-89204552D01*
X166088867Y-89138231D01*
X166100500Y-89079748D01*
X166100500Y-87625479D01*
X166119407Y-87567288D01*
X166129496Y-87555475D01*
X166855475Y-86829496D01*
X166909992Y-86801719D01*
X166925479Y-86800500D01*
X172039563Y-86800500D01*
X172039563Y-86800499D01*
X172115989Y-86780021D01*
X172184511Y-86740460D01*
X172240460Y-86684511D01*
X172740460Y-86184511D01*
X172780022Y-86115988D01*
X172800500Y-86039562D01*
X172800500Y-85960438D01*
X172800500Y-72460438D01*
X172798736Y-72453856D01*
X172796223Y-72444475D01*
X172780022Y-72384012D01*
X172780020Y-72384009D01*
X172780020Y-72384007D01*
X172740463Y-72315493D01*
X172740461Y-72315491D01*
X172740460Y-72315489D01*
X171909511Y-71484540D01*
X171909508Y-71484538D01*
X171888804Y-71472584D01*
X171888804Y-71472585D01*
X171840989Y-71444979D01*
X171840988Y-71444978D01*
X171840987Y-71444978D01*
X171764564Y-71424500D01*
X171764562Y-71424500D01*
X164310189Y-71424500D01*
X164251998Y-71405593D01*
X164216034Y-71356093D01*
X164216034Y-71294907D01*
X164240183Y-71255498D01*
X164696052Y-70799629D01*
X164750567Y-70771854D01*
X164810999Y-70781425D01*
X164854264Y-70824690D01*
X164859498Y-70836937D01*
X164870884Y-70869476D01*
X164915653Y-70930136D01*
X164949289Y-70975711D01*
X164949292Y-70975713D01*
X164949293Y-70975714D01*
X165055523Y-71054115D01*
X165055524Y-71054115D01*
X165055525Y-71054116D01*
X165180151Y-71097725D01*
X165207441Y-71100284D01*
X165209733Y-71100499D01*
X165209738Y-71100500D01*
X165209744Y-71100500D01*
X165790262Y-71100500D01*
X165790265Y-71100499D01*
X165819849Y-71097725D01*
X165944475Y-71054116D01*
X166050711Y-70975711D01*
X166129116Y-70869475D01*
X166153556Y-70799631D01*
X166160670Y-70779302D01*
X166197736Y-70730621D01*
X166254114Y-70713000D01*
X166745886Y-70713000D01*
X166804077Y-70731907D01*
X166839330Y-70779302D01*
X166870884Y-70869475D01*
X166870884Y-70869476D01*
X166915653Y-70930136D01*
X166949289Y-70975711D01*
X166949292Y-70975713D01*
X166949293Y-70975714D01*
X167055523Y-71054115D01*
X167055524Y-71054115D01*
X167055525Y-71054116D01*
X167180151Y-71097725D01*
X167207441Y-71100284D01*
X167209733Y-71100499D01*
X167209738Y-71100500D01*
X167209744Y-71100500D01*
X167790262Y-71100500D01*
X167790265Y-71100499D01*
X167819849Y-71097725D01*
X167944475Y-71054116D01*
X168050711Y-70975711D01*
X168129116Y-70869475D01*
X168153556Y-70799631D01*
X168160670Y-70779302D01*
X168197736Y-70730621D01*
X168254114Y-70713000D01*
X172676310Y-70713000D01*
X172734501Y-70731907D01*
X172746314Y-70741996D01*
X173120504Y-71116186D01*
X173148281Y-71170703D01*
X173149500Y-71186190D01*
X173149500Y-89813810D01*
X173130593Y-89872001D01*
X173120504Y-89883814D01*
X172633814Y-90370504D01*
X172579297Y-90398281D01*
X172563810Y-90399500D01*
X166113142Y-90399500D01*
X166054951Y-90380593D01*
X166025832Y-90347169D01*
X166025231Y-90346045D01*
X165927685Y-90163550D01*
X165796410Y-90003590D01*
X165650462Y-89883814D01*
X165636452Y-89872316D01*
X165453954Y-89774768D01*
X165255934Y-89714699D01*
X165255929Y-89714698D01*
X165050003Y-89694417D01*
X165049997Y-89694417D01*
X164844070Y-89714698D01*
X164844065Y-89714699D01*
X164646045Y-89774768D01*
X164463547Y-89872316D01*
X164303595Y-90003585D01*
X164303585Y-90003595D01*
X164172316Y-90163547D01*
X164074168Y-90347169D01*
X164030062Y-90389575D01*
X163986858Y-90399500D01*
X163573142Y-90399500D01*
X163514951Y-90380593D01*
X163485832Y-90347169D01*
X163485231Y-90346045D01*
X163387685Y-90163550D01*
X163256410Y-90003590D01*
X163110462Y-89883814D01*
X163096452Y-89872316D01*
X162913954Y-89774768D01*
X162715934Y-89714699D01*
X162715929Y-89714698D01*
X162510003Y-89694417D01*
X162509997Y-89694417D01*
X162304070Y-89714698D01*
X162304065Y-89714699D01*
X162106045Y-89774768D01*
X161923547Y-89872316D01*
X161763595Y-90003585D01*
X161763585Y-90003595D01*
X161632316Y-90163547D01*
X161534768Y-90346045D01*
X161474699Y-90544065D01*
X161474698Y-90544070D01*
X161454417Y-90749996D01*
X161454417Y-90750003D01*
X161474698Y-90955929D01*
X161474699Y-90955934D01*
X161535137Y-91155171D01*
X161533936Y-91216345D01*
X161510404Y-91253912D01*
X161143815Y-91620503D01*
X161089298Y-91648281D01*
X161073811Y-91649500D01*
X160799445Y-91649500D01*
X160741254Y-91630593D01*
X160705290Y-91581093D01*
X160705290Y-91519907D01*
X160722917Y-91487695D01*
X160847268Y-91336170D01*
X160847275Y-91336160D01*
X160944765Y-91153767D01*
X160944767Y-91153762D01*
X161004808Y-90955836D01*
X161004809Y-90955831D01*
X161015232Y-90850000D01*
X160460843Y-90850000D01*
X160470000Y-90815826D01*
X160470000Y-90684174D01*
X160460843Y-90650000D01*
X161015232Y-90650000D01*
X161015232Y-90649999D01*
X161004809Y-90544168D01*
X161004808Y-90544163D01*
X160944767Y-90346237D01*
X160944765Y-90346232D01*
X160847275Y-90163839D01*
X160847268Y-90163829D01*
X160716059Y-90003949D01*
X160716050Y-90003940D01*
X160556170Y-89872731D01*
X160556160Y-89872724D01*
X160373767Y-89775234D01*
X160373762Y-89775232D01*
X160175836Y-89715191D01*
X160175831Y-89715190D01*
X160070000Y-89704767D01*
X160070000Y-90259157D01*
X160035826Y-90250000D01*
X159904174Y-90250000D01*
X159870000Y-90259157D01*
X159870000Y-89704767D01*
X159869999Y-89704767D01*
X159764168Y-89715190D01*
X159764163Y-89715191D01*
X159566237Y-89775232D01*
X159566232Y-89775234D01*
X159383839Y-89872724D01*
X159383829Y-89872731D01*
X159223949Y-90003940D01*
X159223940Y-90003949D01*
X159092731Y-90163829D01*
X159092724Y-90163839D01*
X158995234Y-90346232D01*
X158995232Y-90346237D01*
X158935191Y-90544163D01*
X158935190Y-90544168D01*
X158924767Y-90649999D01*
X158924768Y-90650000D01*
X159479157Y-90650000D01*
X159470000Y-90684174D01*
X159470000Y-90815826D01*
X159479157Y-90850000D01*
X158924767Y-90850000D01*
X158935190Y-90955831D01*
X158935191Y-90955836D01*
X158995232Y-91153762D01*
X158995234Y-91153767D01*
X159092724Y-91336160D01*
X159092731Y-91336170D01*
X159217083Y-91487695D01*
X159239383Y-91544672D01*
X159223934Y-91603875D01*
X159176637Y-91642690D01*
X159140555Y-91649500D01*
X158259445Y-91649500D01*
X158201254Y-91630593D01*
X158165290Y-91581093D01*
X158165290Y-91519907D01*
X158182917Y-91487695D01*
X158307268Y-91336170D01*
X158307275Y-91336160D01*
X158404765Y-91153767D01*
X158404767Y-91153762D01*
X158464808Y-90955836D01*
X158464809Y-90955831D01*
X158475232Y-90850000D01*
X157920843Y-90850000D01*
X157930000Y-90815826D01*
X157930000Y-90684174D01*
X157920843Y-90650000D01*
X158475232Y-90650000D01*
X158475232Y-90649999D01*
X158464809Y-90544168D01*
X158464808Y-90544163D01*
X158404767Y-90346237D01*
X158404765Y-90346232D01*
X158307275Y-90163839D01*
X158307268Y-90163829D01*
X158176059Y-90003949D01*
X158176050Y-90003940D01*
X158016170Y-89872731D01*
X158016160Y-89872724D01*
X157833767Y-89775234D01*
X157833762Y-89775232D01*
X157635836Y-89715191D01*
X157635831Y-89715190D01*
X157530000Y-89704767D01*
X157530000Y-90259157D01*
X157495826Y-90250000D01*
X157364174Y-90250000D01*
X157330000Y-90259157D01*
X157330000Y-89704767D01*
X157329999Y-89704767D01*
X157224168Y-89715190D01*
X157224163Y-89715191D01*
X157026237Y-89775232D01*
X157026232Y-89775234D01*
X156843839Y-89872724D01*
X156843829Y-89872731D01*
X156683949Y-90003940D01*
X156683940Y-90003949D01*
X156552731Y-90163829D01*
X156552724Y-90163839D01*
X156455234Y-90346232D01*
X156455232Y-90346237D01*
X156395191Y-90544163D01*
X156395190Y-90544168D01*
X156384767Y-90649999D01*
X156384768Y-90650000D01*
X156939157Y-90650000D01*
X156930000Y-90684174D01*
X156930000Y-90815826D01*
X156939157Y-90850000D01*
X156384767Y-90850000D01*
X156395190Y-90955831D01*
X156395191Y-90955836D01*
X156455232Y-91153762D01*
X156455234Y-91153767D01*
X156552724Y-91336160D01*
X156552731Y-91336170D01*
X156677083Y-91487695D01*
X156699383Y-91544672D01*
X156683934Y-91603875D01*
X156636637Y-91642690D01*
X156600555Y-91649500D01*
X155719445Y-91649500D01*
X155661254Y-91630593D01*
X155625290Y-91581093D01*
X155625290Y-91519907D01*
X155642917Y-91487695D01*
X155767268Y-91336170D01*
X155767275Y-91336160D01*
X155864765Y-91153767D01*
X155864767Y-91153762D01*
X155924808Y-90955836D01*
X155924809Y-90955831D01*
X155935232Y-90850000D01*
X155380843Y-90850000D01*
X155390000Y-90815826D01*
X155390000Y-90684174D01*
X155380843Y-90650000D01*
X155935232Y-90650000D01*
X155935232Y-90649999D01*
X155924809Y-90544168D01*
X155924808Y-90544163D01*
X155864767Y-90346237D01*
X155864765Y-90346232D01*
X155767275Y-90163839D01*
X155767268Y-90163829D01*
X155636059Y-90003949D01*
X155636050Y-90003940D01*
X155476170Y-89872731D01*
X155476160Y-89872724D01*
X155293767Y-89775234D01*
X155293762Y-89775232D01*
X155095836Y-89715191D01*
X155095831Y-89715190D01*
X154990000Y-89704767D01*
X154990000Y-90259157D01*
X154955826Y-90250000D01*
X154824174Y-90250000D01*
X154790000Y-90259157D01*
X154790000Y-89704767D01*
X154684168Y-89715190D01*
X154684163Y-89715191D01*
X154486237Y-89775232D01*
X154486232Y-89775234D01*
X154303839Y-89872724D01*
X154303829Y-89872731D01*
X154143949Y-90003940D01*
X154143940Y-90003949D01*
X154012731Y-90163829D01*
X154012724Y-90163839D01*
X153915234Y-90346232D01*
X153915232Y-90346237D01*
X153855191Y-90544163D01*
X153855190Y-90544168D01*
X153844767Y-90649999D01*
X153844768Y-90650000D01*
X154399157Y-90650000D01*
X154390000Y-90684174D01*
X154390000Y-90815826D01*
X154399157Y-90850000D01*
X153844767Y-90850000D01*
X153855190Y-90955831D01*
X153855191Y-90955836D01*
X153915232Y-91153762D01*
X153915234Y-91153767D01*
X154012724Y-91336160D01*
X154012731Y-91336170D01*
X154137083Y-91487695D01*
X154159383Y-91544672D01*
X154143934Y-91603875D01*
X154096637Y-91642690D01*
X154060555Y-91649500D01*
X143186190Y-91649500D01*
X143127999Y-91630593D01*
X143116186Y-91620504D01*
X142879496Y-91383814D01*
X142851719Y-91329297D01*
X142850500Y-91313810D01*
X142850500Y-86100001D01*
X143400000Y-86100001D01*
X143400000Y-86290201D01*
X143402771Y-86319758D01*
X143402772Y-86319759D01*
X143446330Y-86444240D01*
X143524641Y-86550348D01*
X143524651Y-86550358D01*
X143630759Y-86628669D01*
X143755240Y-86672227D01*
X143755241Y-86672228D01*
X143784799Y-86675000D01*
X143987499Y-86675000D01*
X143987500Y-86674999D01*
X143987500Y-86100001D01*
X144187500Y-86100001D01*
X144187500Y-86674999D01*
X144187501Y-86675000D01*
X144390201Y-86675000D01*
X144419758Y-86672228D01*
X144419759Y-86672227D01*
X144544240Y-86628669D01*
X144650348Y-86550358D01*
X144650358Y-86550348D01*
X144728669Y-86444240D01*
X144772227Y-86319759D01*
X144772228Y-86319758D01*
X144775000Y-86290201D01*
X144775000Y-86100001D01*
X144774999Y-86100000D01*
X144187501Y-86100000D01*
X144187500Y-86100001D01*
X143987500Y-86100001D01*
X143987499Y-86100000D01*
X143400001Y-86100000D01*
X143400000Y-86100001D01*
X142850500Y-86100001D01*
X142850500Y-85709798D01*
X143400000Y-85709798D01*
X143400000Y-85899999D01*
X143400001Y-85900000D01*
X143987499Y-85900000D01*
X143987500Y-85899999D01*
X143987500Y-85325001D01*
X144187500Y-85325001D01*
X144187500Y-85899999D01*
X144187501Y-85900000D01*
X144774999Y-85900000D01*
X144775000Y-85899999D01*
X144775000Y-85709798D01*
X144772228Y-85680241D01*
X144772227Y-85680240D01*
X144728669Y-85555759D01*
X144650358Y-85449651D01*
X144650348Y-85449641D01*
X144544240Y-85371330D01*
X144419759Y-85327772D01*
X144419758Y-85327771D01*
X144390201Y-85325000D01*
X144187501Y-85325000D01*
X144187500Y-85325001D01*
X143987500Y-85325001D01*
X143987499Y-85325000D01*
X143784799Y-85325000D01*
X143755241Y-85327771D01*
X143755240Y-85327772D01*
X143630759Y-85371330D01*
X143524651Y-85449641D01*
X143524641Y-85449651D01*
X143446330Y-85555759D01*
X143402772Y-85680240D01*
X143402771Y-85680241D01*
X143400000Y-85709798D01*
X142850500Y-85709798D01*
X142850500Y-84686190D01*
X142869407Y-84627999D01*
X142879496Y-84616186D01*
X143116186Y-84379496D01*
X143170703Y-84351719D01*
X143186190Y-84350500D01*
X143342756Y-84350500D01*
X143400947Y-84369407D01*
X143436200Y-84416802D01*
X143445882Y-84444472D01*
X143445885Y-84444478D01*
X143524285Y-84550706D01*
X143524289Y-84550711D01*
X143524292Y-84550713D01*
X143524293Y-84550714D01*
X143630523Y-84629115D01*
X143630524Y-84629115D01*
X143630525Y-84629116D01*
X143755151Y-84672725D01*
X143782441Y-84675284D01*
X143784733Y-84675499D01*
X143784738Y-84675500D01*
X143784744Y-84675500D01*
X144390262Y-84675500D01*
X144390265Y-84675499D01*
X144419849Y-84672725D01*
X144544475Y-84629116D01*
X144650711Y-84550711D01*
X144729116Y-84444475D01*
X144772725Y-84319849D01*
X144775500Y-84290256D01*
X144775500Y-83709744D01*
X144775500Y-83709738D01*
X144775499Y-83709733D01*
X144772725Y-83680155D01*
X144772725Y-83680151D01*
X144729116Y-83555525D01*
X144729113Y-83555521D01*
X144650714Y-83449293D01*
X144650713Y-83449292D01*
X144650711Y-83449289D01*
X144650706Y-83449285D01*
X144544476Y-83370884D01*
X144419852Y-83327276D01*
X144419851Y-83327275D01*
X144419849Y-83327275D01*
X144419847Y-83327274D01*
X144419844Y-83327274D01*
X144390266Y-83324500D01*
X144390256Y-83324500D01*
X143784744Y-83324500D01*
X143784733Y-83324500D01*
X143755155Y-83327274D01*
X143755147Y-83327276D01*
X143630523Y-83370884D01*
X143524293Y-83449285D01*
X143524285Y-83449293D01*
X143445885Y-83555521D01*
X143445882Y-83555527D01*
X143436200Y-83583198D01*
X143399134Y-83631879D01*
X143342756Y-83649500D01*
X142949500Y-83649500D01*
X142891309Y-83630593D01*
X142855345Y-83581093D01*
X142850500Y-83550500D01*
X142850500Y-82100001D01*
X143400000Y-82100001D01*
X143400000Y-82290201D01*
X143402771Y-82319758D01*
X143402772Y-82319759D01*
X143446330Y-82444240D01*
X143524641Y-82550348D01*
X143524651Y-82550358D01*
X143630759Y-82628669D01*
X143755240Y-82672227D01*
X143755241Y-82672228D01*
X143784799Y-82675000D01*
X143987499Y-82675000D01*
X143987500Y-82674999D01*
X143987500Y-82100001D01*
X144187500Y-82100001D01*
X144187500Y-82674999D01*
X144187501Y-82675000D01*
X144390201Y-82675000D01*
X144419758Y-82672228D01*
X144419759Y-82672227D01*
X144544240Y-82628669D01*
X144650348Y-82550358D01*
X144650358Y-82550348D01*
X144728669Y-82444240D01*
X144772227Y-82319759D01*
X144772228Y-82319758D01*
X144775000Y-82290201D01*
X144775000Y-82100001D01*
X144774999Y-82100000D01*
X144187501Y-82100000D01*
X144187500Y-82100001D01*
X143987500Y-82100001D01*
X143987499Y-82100000D01*
X143400001Y-82100000D01*
X143400000Y-82100001D01*
X142850500Y-82100001D01*
X142850500Y-81709798D01*
X143400000Y-81709798D01*
X143400000Y-81899999D01*
X143400001Y-81900000D01*
X143987499Y-81900000D01*
X143987500Y-81899999D01*
X143987500Y-81325001D01*
X144187500Y-81325001D01*
X144187500Y-81899999D01*
X144187501Y-81900000D01*
X144774999Y-81900000D01*
X144775000Y-81899999D01*
X144775000Y-81709798D01*
X144772228Y-81680241D01*
X144772227Y-81680240D01*
X144728669Y-81555759D01*
X144650358Y-81449651D01*
X144650348Y-81449641D01*
X144544240Y-81371330D01*
X144419759Y-81327772D01*
X144419758Y-81327771D01*
X144390201Y-81325000D01*
X144187501Y-81325000D01*
X144187500Y-81325001D01*
X143987500Y-81325001D01*
X143987499Y-81325000D01*
X143784799Y-81325000D01*
X143755241Y-81327771D01*
X143755240Y-81327772D01*
X143630759Y-81371330D01*
X143524651Y-81449641D01*
X143524641Y-81449651D01*
X143446330Y-81555759D01*
X143402772Y-81680240D01*
X143402771Y-81680241D01*
X143400000Y-81709798D01*
X142850500Y-81709798D01*
X142850500Y-80686190D01*
X142869407Y-80627999D01*
X142879496Y-80616186D01*
X143116186Y-80379496D01*
X143170703Y-80351719D01*
X143186190Y-80350500D01*
X143342756Y-80350500D01*
X143400947Y-80369407D01*
X143436200Y-80416802D01*
X143445882Y-80444472D01*
X143445885Y-80444478D01*
X143520052Y-80544970D01*
X143524289Y-80550711D01*
X143524292Y-80550713D01*
X143524293Y-80550714D01*
X143630523Y-80629115D01*
X143630524Y-80629115D01*
X143630525Y-80629116D01*
X143755151Y-80672725D01*
X143782441Y-80675284D01*
X143784733Y-80675499D01*
X143784738Y-80675500D01*
X143784744Y-80675500D01*
X144390262Y-80675500D01*
X144390265Y-80675499D01*
X144419849Y-80672725D01*
X144544475Y-80629116D01*
X144650711Y-80550711D01*
X144729116Y-80444475D01*
X144772725Y-80319849D01*
X144775500Y-80290256D01*
X144775500Y-79709744D01*
X144775500Y-79709738D01*
X144775499Y-79709733D01*
X144772838Y-79681356D01*
X144772725Y-79680151D01*
X144729116Y-79555525D01*
X144729113Y-79555521D01*
X144650714Y-79449293D01*
X144650713Y-79449292D01*
X144650711Y-79449289D01*
X144650706Y-79449285D01*
X144544476Y-79370884D01*
X144419852Y-79327276D01*
X144419851Y-79327275D01*
X144419849Y-79327275D01*
X144419847Y-79327274D01*
X144419844Y-79327274D01*
X144390266Y-79324500D01*
X144390256Y-79324500D01*
X143784744Y-79324500D01*
X143784733Y-79324500D01*
X143755155Y-79327274D01*
X143755147Y-79327276D01*
X143630523Y-79370884D01*
X143524293Y-79449285D01*
X143524285Y-79449293D01*
X143445885Y-79555521D01*
X143445882Y-79555527D01*
X143436200Y-79583198D01*
X143399134Y-79631879D01*
X143342756Y-79649500D01*
X142949500Y-79649500D01*
X142891309Y-79630593D01*
X142855345Y-79581093D01*
X142850500Y-79550500D01*
X142850500Y-78100001D01*
X143400000Y-78100001D01*
X143400000Y-78290201D01*
X143402771Y-78319758D01*
X143402772Y-78319759D01*
X143446330Y-78444240D01*
X143524641Y-78550348D01*
X143524651Y-78550358D01*
X143630759Y-78628669D01*
X143755240Y-78672227D01*
X143755241Y-78672228D01*
X143784799Y-78675000D01*
X143987499Y-78675000D01*
X143987500Y-78674999D01*
X143987500Y-78100001D01*
X144187500Y-78100001D01*
X144187500Y-78674999D01*
X144187501Y-78675000D01*
X144390201Y-78675000D01*
X144419758Y-78672228D01*
X144419759Y-78672227D01*
X144544240Y-78628669D01*
X144650348Y-78550358D01*
X144650358Y-78550348D01*
X144728669Y-78444240D01*
X144772227Y-78319759D01*
X144772228Y-78319758D01*
X144775000Y-78290201D01*
X144775000Y-78100001D01*
X144774999Y-78100000D01*
X144187501Y-78100000D01*
X144187500Y-78100001D01*
X143987500Y-78100001D01*
X143987499Y-78100000D01*
X143400001Y-78100000D01*
X143400000Y-78100001D01*
X142850500Y-78100001D01*
X142850500Y-77709798D01*
X143400000Y-77709798D01*
X143400000Y-77899999D01*
X143400001Y-77900000D01*
X143987499Y-77900000D01*
X143987500Y-77899999D01*
X143987500Y-77325001D01*
X144187500Y-77325001D01*
X144187500Y-77899999D01*
X144187501Y-77900000D01*
X144774999Y-77900000D01*
X144775000Y-77899999D01*
X144775000Y-77709798D01*
X144772228Y-77680241D01*
X144772227Y-77680240D01*
X144728669Y-77555759D01*
X144650358Y-77449651D01*
X144650348Y-77449641D01*
X144544240Y-77371330D01*
X144419759Y-77327772D01*
X144419758Y-77327771D01*
X144390201Y-77325000D01*
X144187501Y-77325000D01*
X144187500Y-77325001D01*
X143987500Y-77325001D01*
X143987499Y-77325000D01*
X143784799Y-77325000D01*
X143755241Y-77327771D01*
X143755240Y-77327772D01*
X143630759Y-77371330D01*
X143524651Y-77449641D01*
X143524641Y-77449651D01*
X143446330Y-77555759D01*
X143402772Y-77680240D01*
X143402771Y-77680241D01*
X143400000Y-77709798D01*
X142850500Y-77709798D01*
X142850500Y-76686190D01*
X142869407Y-76627999D01*
X142879496Y-76616186D01*
X143116186Y-76379496D01*
X143170703Y-76351719D01*
X143186190Y-76350500D01*
X143342756Y-76350500D01*
X143400947Y-76369407D01*
X143436200Y-76416802D01*
X143445882Y-76444472D01*
X143445885Y-76444478D01*
X143524285Y-76550706D01*
X143524289Y-76550711D01*
X143524292Y-76550713D01*
X143524293Y-76550714D01*
X143630523Y-76629115D01*
X143630524Y-76629115D01*
X143630525Y-76629116D01*
X143755151Y-76672725D01*
X143782441Y-76675284D01*
X143784733Y-76675499D01*
X143784738Y-76675500D01*
X143784744Y-76675500D01*
X144390262Y-76675500D01*
X144390265Y-76675499D01*
X144419849Y-76672725D01*
X144544475Y-76629116D01*
X144650711Y-76550711D01*
X144729116Y-76444475D01*
X144772725Y-76319849D01*
X144775500Y-76290256D01*
X144775500Y-75709744D01*
X144775500Y-75709738D01*
X144775499Y-75709733D01*
X144772725Y-75680155D01*
X144772725Y-75680151D01*
X144729116Y-75555525D01*
X144729113Y-75555521D01*
X144650714Y-75449293D01*
X144650713Y-75449292D01*
X144650711Y-75449289D01*
X144650706Y-75449285D01*
X144544476Y-75370884D01*
X144419852Y-75327276D01*
X144419851Y-75327275D01*
X144419849Y-75327275D01*
X144419847Y-75327274D01*
X144419844Y-75327274D01*
X144390266Y-75324500D01*
X144390256Y-75324500D01*
X143784744Y-75324500D01*
X143784733Y-75324500D01*
X143755155Y-75327274D01*
X143755147Y-75327276D01*
X143630523Y-75370884D01*
X143524293Y-75449285D01*
X143524285Y-75449293D01*
X143445885Y-75555521D01*
X143445882Y-75555527D01*
X143436200Y-75583198D01*
X143399134Y-75631879D01*
X143342756Y-75649500D01*
X142949500Y-75649500D01*
X142891309Y-75630593D01*
X142855345Y-75581093D01*
X142850500Y-75550500D01*
X142850500Y-74100001D01*
X143400000Y-74100001D01*
X143400000Y-74290201D01*
X143402771Y-74319758D01*
X143402772Y-74319759D01*
X143446330Y-74444240D01*
X143524641Y-74550348D01*
X143524651Y-74550358D01*
X143630759Y-74628669D01*
X143755240Y-74672227D01*
X143755241Y-74672228D01*
X143784799Y-74675000D01*
X143987499Y-74675000D01*
X143987500Y-74674999D01*
X143987500Y-74100001D01*
X144187500Y-74100001D01*
X144187500Y-74674999D01*
X144187501Y-74675000D01*
X144390201Y-74675000D01*
X144419758Y-74672228D01*
X144419759Y-74672227D01*
X144544240Y-74628669D01*
X144650348Y-74550358D01*
X144650358Y-74550348D01*
X144728669Y-74444240D01*
X144772227Y-74319759D01*
X144772228Y-74319758D01*
X144775000Y-74290201D01*
X144775000Y-74100001D01*
X144774999Y-74100000D01*
X144187501Y-74100000D01*
X144187500Y-74100001D01*
X143987500Y-74100001D01*
X143987499Y-74100000D01*
X143400001Y-74100000D01*
X143400000Y-74100001D01*
X142850500Y-74100001D01*
X142850500Y-73709798D01*
X143400000Y-73709798D01*
X143400000Y-73899999D01*
X143400001Y-73900000D01*
X143987499Y-73900000D01*
X143987500Y-73899999D01*
X143987500Y-73325001D01*
X144187500Y-73325001D01*
X144187500Y-73899999D01*
X144187501Y-73900000D01*
X144774999Y-73900000D01*
X144775000Y-73899999D01*
X144775000Y-73709798D01*
X144772228Y-73680241D01*
X144772227Y-73680240D01*
X144728669Y-73555759D01*
X144650358Y-73449651D01*
X144650348Y-73449641D01*
X144544240Y-73371330D01*
X144419759Y-73327772D01*
X144419758Y-73327771D01*
X144390201Y-73325000D01*
X144187501Y-73325000D01*
X144187500Y-73325001D01*
X143987500Y-73325001D01*
X143987499Y-73325000D01*
X143784799Y-73325000D01*
X143755241Y-73327771D01*
X143755240Y-73327772D01*
X143630759Y-73371330D01*
X143524651Y-73449641D01*
X143524641Y-73449651D01*
X143446330Y-73555759D01*
X143402772Y-73680240D01*
X143402771Y-73680241D01*
X143400000Y-73709798D01*
X142850500Y-73709798D01*
X142850500Y-72686190D01*
X142869407Y-72627999D01*
X142879496Y-72616186D01*
X143116186Y-72379496D01*
X143170703Y-72351719D01*
X143186190Y-72350500D01*
X143342756Y-72350500D01*
X143400947Y-72369407D01*
X143436200Y-72416802D01*
X143445882Y-72444472D01*
X143445885Y-72444478D01*
X143520067Y-72544991D01*
X143524289Y-72550711D01*
X143524292Y-72550713D01*
X143524293Y-72550714D01*
X143630523Y-72629115D01*
X143630524Y-72629115D01*
X143630525Y-72629116D01*
X143755151Y-72672725D01*
X143782441Y-72675284D01*
X143784733Y-72675499D01*
X143784738Y-72675500D01*
X143784744Y-72675500D01*
X144390262Y-72675500D01*
X144390265Y-72675499D01*
X144419849Y-72672725D01*
X144544475Y-72629116D01*
X144650711Y-72550711D01*
X144729116Y-72444475D01*
X144772725Y-72319849D01*
X144775500Y-72290256D01*
X144775500Y-71709744D01*
X144775500Y-71709738D01*
X144775499Y-71709733D01*
X145224500Y-71709733D01*
X145224500Y-72290266D01*
X145227274Y-72319844D01*
X145227276Y-72319852D01*
X145270883Y-72444473D01*
X145270884Y-72444476D01*
X145345067Y-72544991D01*
X145349289Y-72550711D01*
X145349292Y-72550713D01*
X145349293Y-72550714D01*
X145455523Y-72629115D01*
X145455524Y-72629115D01*
X145455525Y-72629116D01*
X145545698Y-72660669D01*
X145594378Y-72697734D01*
X145612000Y-72754113D01*
X145612000Y-73245886D01*
X145593093Y-73304077D01*
X145545698Y-73339330D01*
X145455524Y-73370884D01*
X145455523Y-73370884D01*
X145349293Y-73449285D01*
X145349285Y-73449293D01*
X145270884Y-73555523D01*
X145227276Y-73680147D01*
X145227274Y-73680155D01*
X145224500Y-73709733D01*
X145224500Y-74290266D01*
X145227274Y-74319844D01*
X145227276Y-74319852D01*
X145270884Y-74444476D01*
X145308165Y-74494990D01*
X145349289Y-74550711D01*
X145349292Y-74550713D01*
X145349293Y-74550714D01*
X145455523Y-74629115D01*
X145455524Y-74629115D01*
X145455525Y-74629116D01*
X145580151Y-74672725D01*
X145604412Y-74675000D01*
X145609733Y-74675499D01*
X145609738Y-74675500D01*
X145609744Y-74675500D01*
X146215262Y-74675500D01*
X146215265Y-74675499D01*
X146244849Y-74672725D01*
X146369475Y-74629116D01*
X146475711Y-74550711D01*
X146554116Y-74444475D01*
X146597725Y-74319849D01*
X146600500Y-74290256D01*
X146600500Y-73709744D01*
X146600500Y-73709738D01*
X146600499Y-73709733D01*
X146597725Y-73680155D01*
X146597725Y-73680151D01*
X146554116Y-73555525D01*
X146535431Y-73530208D01*
X146475714Y-73449293D01*
X146475713Y-73449292D01*
X146475711Y-73449289D01*
X146443478Y-73425500D01*
X146369476Y-73370884D01*
X146279302Y-73339330D01*
X146230621Y-73302264D01*
X146213000Y-73245886D01*
X146213000Y-72754113D01*
X146231907Y-72695922D01*
X146279301Y-72660669D01*
X146369475Y-72629116D01*
X146475711Y-72550711D01*
X146554116Y-72444475D01*
X146597725Y-72319849D01*
X146600500Y-72290256D01*
X146600500Y-72124500D01*
X146619407Y-72066309D01*
X146668907Y-72030345D01*
X146699500Y-72025500D01*
X147810522Y-72025500D01*
X147868713Y-72044407D01*
X147904677Y-72093907D01*
X147904677Y-72155093D01*
X147880527Y-72194501D01*
X147315489Y-72759540D01*
X147315488Y-72759539D01*
X147259539Y-72815489D01*
X147219980Y-72884007D01*
X147219978Y-72884011D01*
X147199500Y-72960435D01*
X147199500Y-75334521D01*
X147180593Y-75392712D01*
X147170504Y-75404525D01*
X146904525Y-75670504D01*
X146850008Y-75698281D01*
X146834521Y-75699500D01*
X146674739Y-75699500D01*
X146616548Y-75680593D01*
X146581295Y-75633198D01*
X146554116Y-75555525D01*
X146554113Y-75555521D01*
X146475714Y-75449293D01*
X146475713Y-75449292D01*
X146475711Y-75449289D01*
X146475706Y-75449285D01*
X146369476Y-75370884D01*
X146244852Y-75327276D01*
X146244851Y-75327275D01*
X146244849Y-75327275D01*
X146244847Y-75327274D01*
X146244844Y-75327274D01*
X146215266Y-75324500D01*
X146215256Y-75324500D01*
X145609744Y-75324500D01*
X145609733Y-75324500D01*
X145580155Y-75327274D01*
X145580147Y-75327276D01*
X145455523Y-75370884D01*
X145349293Y-75449285D01*
X145349285Y-75449293D01*
X145270884Y-75555523D01*
X145227276Y-75680147D01*
X145227274Y-75680155D01*
X145224500Y-75709733D01*
X145224500Y-76290266D01*
X145227274Y-76319844D01*
X145227276Y-76319852D01*
X145270884Y-76444476D01*
X145349285Y-76550706D01*
X145349289Y-76550711D01*
X145349292Y-76550713D01*
X145349293Y-76550714D01*
X145455523Y-76629115D01*
X145455524Y-76629115D01*
X145455525Y-76629116D01*
X145545698Y-76660669D01*
X145594378Y-76697734D01*
X145612000Y-76754113D01*
X145612000Y-77245886D01*
X145593093Y-77304077D01*
X145545698Y-77339330D01*
X145455524Y-77370884D01*
X145455523Y-77370884D01*
X145349293Y-77449285D01*
X145349285Y-77449293D01*
X145270884Y-77555523D01*
X145227276Y-77680147D01*
X145227274Y-77680155D01*
X145224500Y-77709733D01*
X145224500Y-78290266D01*
X145227274Y-78319844D01*
X145227276Y-78319852D01*
X145270884Y-78444476D01*
X145349021Y-78550348D01*
X145349289Y-78550711D01*
X145349292Y-78550713D01*
X145349293Y-78550714D01*
X145455523Y-78629115D01*
X145455524Y-78629115D01*
X145455525Y-78629116D01*
X145580151Y-78672725D01*
X145604412Y-78675000D01*
X145609733Y-78675499D01*
X145609738Y-78675500D01*
X145609744Y-78675500D01*
X146215262Y-78675500D01*
X146215265Y-78675499D01*
X146244849Y-78672725D01*
X146369475Y-78629116D01*
X146475711Y-78550711D01*
X146554116Y-78444475D01*
X146597725Y-78319849D01*
X146600500Y-78290256D01*
X146600500Y-77709744D01*
X146600500Y-77709738D01*
X146600499Y-77709733D01*
X146597725Y-77680155D01*
X146597725Y-77680151D01*
X146554116Y-77555525D01*
X146475711Y-77449289D01*
X146475706Y-77449285D01*
X146369476Y-77370884D01*
X146279302Y-77339330D01*
X146230621Y-77302264D01*
X146213000Y-77245886D01*
X146213000Y-76754113D01*
X146231907Y-76695922D01*
X146279301Y-76660669D01*
X146369475Y-76629116D01*
X146475711Y-76550711D01*
X146554116Y-76444475D01*
X146581295Y-76366801D01*
X146618360Y-76318122D01*
X146674739Y-76300500D01*
X147039563Y-76300500D01*
X147039563Y-76300499D01*
X147115989Y-76280021D01*
X147184511Y-76240460D01*
X147240460Y-76184511D01*
X147530496Y-75894475D01*
X147585013Y-75866698D01*
X147645445Y-75876269D01*
X147688710Y-75919534D01*
X147699500Y-75964479D01*
X147699500Y-79334521D01*
X147680593Y-79392712D01*
X147670504Y-79404525D01*
X147404525Y-79670504D01*
X147350008Y-79698281D01*
X147334521Y-79699500D01*
X146674739Y-79699500D01*
X146616548Y-79680593D01*
X146581295Y-79633198D01*
X146554116Y-79555525D01*
X146554113Y-79555521D01*
X146475714Y-79449293D01*
X146475713Y-79449292D01*
X146475711Y-79449289D01*
X146475706Y-79449285D01*
X146369476Y-79370884D01*
X146244852Y-79327276D01*
X146244851Y-79327275D01*
X146244849Y-79327275D01*
X146244847Y-79327274D01*
X146244844Y-79327274D01*
X146215266Y-79324500D01*
X146215256Y-79324500D01*
X145609744Y-79324500D01*
X145609733Y-79324500D01*
X145580155Y-79327274D01*
X145580147Y-79327276D01*
X145455523Y-79370884D01*
X145349293Y-79449285D01*
X145349285Y-79449293D01*
X145270884Y-79555523D01*
X145227276Y-79680147D01*
X145227274Y-79680155D01*
X145224500Y-79709733D01*
X145224500Y-80290266D01*
X145227274Y-80319844D01*
X145227276Y-80319852D01*
X145270884Y-80444476D01*
X145345052Y-80544970D01*
X145349289Y-80550711D01*
X145349292Y-80550713D01*
X145349293Y-80550714D01*
X145455523Y-80629115D01*
X145455524Y-80629115D01*
X145455525Y-80629116D01*
X145545698Y-80660669D01*
X145594378Y-80697734D01*
X145612000Y-80754113D01*
X145612000Y-81245886D01*
X145593093Y-81304077D01*
X145545698Y-81339330D01*
X145455524Y-81370884D01*
X145455523Y-81370884D01*
X145349293Y-81449285D01*
X145349285Y-81449293D01*
X145270884Y-81555523D01*
X145227276Y-81680147D01*
X145227274Y-81680155D01*
X145224500Y-81709733D01*
X145224500Y-82290266D01*
X145227274Y-82319844D01*
X145227276Y-82319852D01*
X145270884Y-82444476D01*
X145349021Y-82550348D01*
X145349289Y-82550711D01*
X145349292Y-82550713D01*
X145349293Y-82550714D01*
X145455523Y-82629115D01*
X145455524Y-82629115D01*
X145455525Y-82629116D01*
X145580151Y-82672725D01*
X145604412Y-82675000D01*
X145609733Y-82675499D01*
X145609738Y-82675500D01*
X145609744Y-82675500D01*
X146215262Y-82675500D01*
X146215265Y-82675499D01*
X146244849Y-82672725D01*
X146369475Y-82629116D01*
X146475711Y-82550711D01*
X146554116Y-82444475D01*
X146597725Y-82319849D01*
X146600500Y-82290256D01*
X146600500Y-81709744D01*
X146600500Y-81709738D01*
X146600499Y-81709733D01*
X146597725Y-81680155D01*
X146597725Y-81680151D01*
X146554116Y-81555525D01*
X146475711Y-81449289D01*
X146475706Y-81449285D01*
X146369476Y-81370884D01*
X146279302Y-81339330D01*
X146230621Y-81302264D01*
X146213000Y-81245886D01*
X146213000Y-80754113D01*
X146231907Y-80695922D01*
X146279301Y-80660669D01*
X146369475Y-80629116D01*
X146475711Y-80550711D01*
X146554116Y-80444475D01*
X146581295Y-80366801D01*
X146618360Y-80318122D01*
X146674739Y-80300500D01*
X147539563Y-80300500D01*
X147539563Y-80300499D01*
X147615989Y-80280021D01*
X147684511Y-80240460D01*
X147740460Y-80184511D01*
X148030496Y-79894475D01*
X148085013Y-79866698D01*
X148145445Y-79876269D01*
X148188710Y-79919534D01*
X148199500Y-79964479D01*
X148199500Y-83334521D01*
X148180593Y-83392712D01*
X148170504Y-83404525D01*
X147904525Y-83670504D01*
X147850008Y-83698281D01*
X147834521Y-83699500D01*
X146674739Y-83699500D01*
X146616548Y-83680593D01*
X146581295Y-83633198D01*
X146554116Y-83555525D01*
X146554113Y-83555521D01*
X146475714Y-83449293D01*
X146475713Y-83449292D01*
X146475711Y-83449289D01*
X146475706Y-83449285D01*
X146369476Y-83370884D01*
X146244852Y-83327276D01*
X146244851Y-83327275D01*
X146244849Y-83327275D01*
X146244847Y-83327274D01*
X146244844Y-83327274D01*
X146215266Y-83324500D01*
X146215256Y-83324500D01*
X145609744Y-83324500D01*
X145609733Y-83324500D01*
X145580155Y-83327274D01*
X145580147Y-83327276D01*
X145455523Y-83370884D01*
X145349293Y-83449285D01*
X145349285Y-83449293D01*
X145270884Y-83555523D01*
X145227276Y-83680147D01*
X145227274Y-83680155D01*
X145224500Y-83709733D01*
X145224500Y-84290266D01*
X145227274Y-84319844D01*
X145227276Y-84319852D01*
X145270884Y-84444476D01*
X145277807Y-84453856D01*
X145349289Y-84550711D01*
X145349292Y-84550713D01*
X145349293Y-84550714D01*
X145455523Y-84629115D01*
X145455524Y-84629115D01*
X145455525Y-84629116D01*
X145545698Y-84660669D01*
X145594378Y-84697734D01*
X145612000Y-84754113D01*
X145612000Y-85245886D01*
X145593093Y-85304077D01*
X145545698Y-85339330D01*
X145455524Y-85370884D01*
X145455523Y-85370884D01*
X145349293Y-85449285D01*
X145349285Y-85449293D01*
X145270884Y-85555523D01*
X145227276Y-85680147D01*
X145227274Y-85680155D01*
X145224500Y-85709733D01*
X145224500Y-86290266D01*
X145227274Y-86319844D01*
X145227276Y-86319852D01*
X145270884Y-86444476D01*
X145349021Y-86550348D01*
X145349289Y-86550711D01*
X145349292Y-86550713D01*
X145349293Y-86550714D01*
X145455523Y-86629115D01*
X145455524Y-86629115D01*
X145455525Y-86629116D01*
X145580151Y-86672725D01*
X145604412Y-86675000D01*
X145609733Y-86675499D01*
X145609738Y-86675500D01*
X145609744Y-86675500D01*
X146215262Y-86675500D01*
X146215265Y-86675499D01*
X146244849Y-86672725D01*
X146369475Y-86629116D01*
X146475711Y-86550711D01*
X146554116Y-86444475D01*
X146597725Y-86319849D01*
X146600500Y-86290256D01*
X146600500Y-85709744D01*
X146600500Y-85709738D01*
X146600499Y-85709733D01*
X146597725Y-85680155D01*
X146597725Y-85680151D01*
X146554116Y-85555525D01*
X146475711Y-85449289D01*
X146475706Y-85449285D01*
X146369476Y-85370884D01*
X146279302Y-85339330D01*
X146230621Y-85302264D01*
X146213000Y-85245886D01*
X146213000Y-84754113D01*
X146231907Y-84695922D01*
X146279301Y-84660669D01*
X146369475Y-84629116D01*
X146475711Y-84550711D01*
X146554116Y-84444475D01*
X146581295Y-84366801D01*
X146618360Y-84318122D01*
X146674739Y-84300500D01*
X148039563Y-84300500D01*
X148039563Y-84300499D01*
X148115989Y-84280021D01*
X148184511Y-84240460D01*
X148240460Y-84184511D01*
X148740460Y-83684511D01*
X148770086Y-83633198D01*
X148780020Y-83615992D01*
X148780020Y-83615990D01*
X148780022Y-83615988D01*
X148800500Y-83539562D01*
X148800500Y-83460438D01*
X148800500Y-74165479D01*
X148819407Y-74107288D01*
X148829496Y-74095475D01*
X148920475Y-74004496D01*
X148974992Y-73976719D01*
X148990479Y-73975500D01*
X150360522Y-73975500D01*
X150418713Y-73994407D01*
X150454677Y-74043907D01*
X150454677Y-74105093D01*
X150430527Y-74144501D01*
X149815489Y-74759540D01*
X149815488Y-74759539D01*
X149759539Y-74815489D01*
X149719980Y-74884007D01*
X149719978Y-74884011D01*
X149699500Y-74960435D01*
X149699500Y-79525500D01*
X149680593Y-79583691D01*
X149631093Y-79619655D01*
X149600501Y-79624500D01*
X149422900Y-79624500D01*
X149422892Y-79624501D01*
X149373670Y-79630980D01*
X149265643Y-79681354D01*
X149181354Y-79765643D01*
X149130983Y-79873664D01*
X149130981Y-79873671D01*
X149124500Y-79922898D01*
X149124500Y-80277099D01*
X149124501Y-80277107D01*
X149130980Y-80326329D01*
X149181355Y-80434358D01*
X149186324Y-80441454D01*
X149183752Y-80443254D01*
X149204775Y-80484541D01*
X149195186Y-80544970D01*
X149185660Y-80558081D01*
X149186324Y-80558546D01*
X149181354Y-80565643D01*
X149130983Y-80673664D01*
X149130981Y-80673668D01*
X149130981Y-80673670D01*
X149128052Y-80695922D01*
X149124500Y-80722898D01*
X149124500Y-81077099D01*
X149124501Y-81077107D01*
X149130980Y-81126329D01*
X149181354Y-81234356D01*
X149181355Y-81234357D01*
X149181356Y-81234359D01*
X149265641Y-81318644D01*
X149265642Y-81318644D01*
X149265643Y-81318645D01*
X149284150Y-81327275D01*
X149373670Y-81369019D01*
X149422897Y-81375500D01*
X149600500Y-81375499D01*
X149658690Y-81394406D01*
X149694654Y-81443906D01*
X149699500Y-81474499D01*
X149699500Y-81825260D01*
X149680593Y-81883451D01*
X149633199Y-81918704D01*
X149555522Y-81945884D01*
X149449293Y-82024285D01*
X149449285Y-82024293D01*
X149370884Y-82130523D01*
X149327276Y-82255147D01*
X149327274Y-82255155D01*
X149324500Y-82284733D01*
X149324500Y-82890266D01*
X149327274Y-82919844D01*
X149327276Y-82919852D01*
X149370884Y-83044476D01*
X149449285Y-83150706D01*
X149449289Y-83150711D01*
X149449292Y-83150713D01*
X149449293Y-83150714D01*
X149555523Y-83229115D01*
X149555524Y-83229115D01*
X149555525Y-83229116D01*
X149680151Y-83272725D01*
X149707441Y-83275284D01*
X149709733Y-83275499D01*
X149709738Y-83275500D01*
X149709744Y-83275500D01*
X150290262Y-83275500D01*
X150290265Y-83275499D01*
X150319849Y-83272725D01*
X150444475Y-83229116D01*
X150550711Y-83150711D01*
X150629116Y-83044475D01*
X150672725Y-82919849D01*
X150675500Y-82890256D01*
X150675500Y-82284744D01*
X150675500Y-82284738D01*
X150675499Y-82284733D01*
X150672725Y-82255155D01*
X150672725Y-82255151D01*
X150629116Y-82130525D01*
X150606588Y-82100001D01*
X150550714Y-82024293D01*
X150550713Y-82024292D01*
X150550711Y-82024289D01*
X150550706Y-82024285D01*
X150444477Y-81945884D01*
X150366801Y-81918704D01*
X150318121Y-81881638D01*
X150300500Y-81825260D01*
X150300500Y-81474499D01*
X150319407Y-81416308D01*
X150368907Y-81380344D01*
X150399500Y-81375499D01*
X150577099Y-81375499D01*
X150577102Y-81375499D01*
X150626330Y-81369019D01*
X150734359Y-81318644D01*
X150818644Y-81234359D01*
X150869019Y-81126330D01*
X150875500Y-81077103D01*
X150875499Y-80722898D01*
X150869019Y-80673670D01*
X150818644Y-80565641D01*
X150813676Y-80558546D01*
X150816249Y-80556743D01*
X150795229Y-80515487D01*
X150804800Y-80455055D01*
X150814342Y-80441920D01*
X150813676Y-80441454D01*
X150818640Y-80434362D01*
X150818644Y-80434359D01*
X150869019Y-80326330D01*
X150875500Y-80277103D01*
X150875499Y-79922898D01*
X150869019Y-79873670D01*
X150818644Y-79765641D01*
X150734359Y-79681356D01*
X150734357Y-79681355D01*
X150734356Y-79681354D01*
X150626335Y-79630983D01*
X150626333Y-79630982D01*
X150626330Y-79630981D01*
X150577103Y-79624500D01*
X150577102Y-79624500D01*
X150399500Y-79624500D01*
X150341309Y-79605593D01*
X150305345Y-79556093D01*
X150300500Y-79525500D01*
X150300500Y-75165479D01*
X150319407Y-75107288D01*
X150329496Y-75095475D01*
X150770475Y-74654496D01*
X150824992Y-74626719D01*
X150840479Y-74625500D01*
X152710522Y-74625500D01*
X152768713Y-74644407D01*
X152804677Y-74693907D01*
X152804677Y-74755093D01*
X152780525Y-74794504D01*
X152315488Y-75259540D01*
X152259539Y-75315489D01*
X152219980Y-75384007D01*
X152219978Y-75384011D01*
X152199500Y-75460435D01*
X152199500Y-79525500D01*
X152180593Y-79583691D01*
X152131093Y-79619655D01*
X152100501Y-79624500D01*
X151922900Y-79624500D01*
X151922892Y-79624501D01*
X151873670Y-79630980D01*
X151765643Y-79681354D01*
X151681354Y-79765643D01*
X151630983Y-79873664D01*
X151630981Y-79873671D01*
X151624500Y-79922898D01*
X151624500Y-80277099D01*
X151624501Y-80277107D01*
X151630980Y-80326329D01*
X151681355Y-80434358D01*
X151686324Y-80441454D01*
X151683752Y-80443254D01*
X151704775Y-80484541D01*
X151695186Y-80544970D01*
X151685660Y-80558081D01*
X151686324Y-80558546D01*
X151681354Y-80565643D01*
X151630983Y-80673664D01*
X151630981Y-80673668D01*
X151630981Y-80673670D01*
X151628052Y-80695922D01*
X151624500Y-80722898D01*
X151624500Y-81077099D01*
X151624501Y-81077107D01*
X151630980Y-81126329D01*
X151681354Y-81234356D01*
X151681355Y-81234357D01*
X151681356Y-81234359D01*
X151765641Y-81318644D01*
X151765642Y-81318644D01*
X151765643Y-81318645D01*
X151784150Y-81327275D01*
X151873670Y-81369019D01*
X151922897Y-81375500D01*
X152100500Y-81375499D01*
X152158690Y-81394406D01*
X152194654Y-81443906D01*
X152199500Y-81474499D01*
X152199500Y-81825260D01*
X152180593Y-81883451D01*
X152133199Y-81918704D01*
X152055522Y-81945884D01*
X151949293Y-82024285D01*
X151949285Y-82024293D01*
X151870884Y-82130523D01*
X151827276Y-82255147D01*
X151827274Y-82255155D01*
X151824500Y-82284733D01*
X151824500Y-82890266D01*
X151827274Y-82919844D01*
X151827276Y-82919852D01*
X151870884Y-83044476D01*
X151949285Y-83150706D01*
X151949289Y-83150711D01*
X151949292Y-83150713D01*
X151949293Y-83150714D01*
X152055523Y-83229115D01*
X152055524Y-83229115D01*
X152055525Y-83229116D01*
X152180151Y-83272725D01*
X152207441Y-83275284D01*
X152209733Y-83275499D01*
X152209738Y-83275500D01*
X152209744Y-83275500D01*
X152790262Y-83275500D01*
X152790265Y-83275499D01*
X152819849Y-83272725D01*
X152944475Y-83229116D01*
X153050711Y-83150711D01*
X153129116Y-83044475D01*
X153172725Y-82919849D01*
X153175500Y-82890256D01*
X153175500Y-82284744D01*
X153175500Y-82284738D01*
X153175499Y-82284733D01*
X153172725Y-82255155D01*
X153172725Y-82255151D01*
X153129116Y-82130525D01*
X153106588Y-82100001D01*
X153050714Y-82024293D01*
X153050713Y-82024292D01*
X153050711Y-82024289D01*
X153050706Y-82024285D01*
X152944477Y-81945884D01*
X152866801Y-81918704D01*
X152818121Y-81881638D01*
X152800500Y-81825260D01*
X152800500Y-81474499D01*
X152819407Y-81416308D01*
X152868907Y-81380344D01*
X152899500Y-81375499D01*
X153077099Y-81375499D01*
X153077102Y-81375499D01*
X153126330Y-81369019D01*
X153234359Y-81318644D01*
X153318644Y-81234359D01*
X153369019Y-81126330D01*
X153375500Y-81077103D01*
X153375499Y-80722898D01*
X153369019Y-80673670D01*
X153318644Y-80565641D01*
X153313676Y-80558546D01*
X153316249Y-80556743D01*
X153295229Y-80515487D01*
X153304800Y-80455055D01*
X153314342Y-80441920D01*
X153313676Y-80441454D01*
X153318640Y-80434362D01*
X153318644Y-80434359D01*
X153369019Y-80326330D01*
X153375500Y-80277103D01*
X153375499Y-79922898D01*
X154124500Y-79922898D01*
X154124500Y-80277099D01*
X154124501Y-80277107D01*
X154130980Y-80326329D01*
X154181355Y-80434358D01*
X154186324Y-80441454D01*
X154183752Y-80443254D01*
X154204775Y-80484541D01*
X154195186Y-80544970D01*
X154185660Y-80558081D01*
X154186324Y-80558546D01*
X154181354Y-80565643D01*
X154130983Y-80673664D01*
X154130981Y-80673668D01*
X154130981Y-80673670D01*
X154128052Y-80695922D01*
X154124500Y-80722898D01*
X154124500Y-81077099D01*
X154124501Y-81077107D01*
X154130980Y-81126329D01*
X154181354Y-81234356D01*
X154181355Y-81234357D01*
X154181356Y-81234359D01*
X154265641Y-81318644D01*
X154265642Y-81318644D01*
X154265643Y-81318645D01*
X154284150Y-81327275D01*
X154373670Y-81369019D01*
X154422897Y-81375500D01*
X154600500Y-81375499D01*
X154658690Y-81394406D01*
X154694654Y-81443906D01*
X154699500Y-81474499D01*
X154699500Y-81825260D01*
X154680593Y-81883451D01*
X154633199Y-81918704D01*
X154555522Y-81945884D01*
X154449293Y-82024285D01*
X154449285Y-82024293D01*
X154370884Y-82130523D01*
X154327276Y-82255147D01*
X154327274Y-82255155D01*
X154324500Y-82284733D01*
X154324500Y-82890266D01*
X154327274Y-82919844D01*
X154327276Y-82919852D01*
X154370884Y-83044476D01*
X154449285Y-83150706D01*
X154449289Y-83150711D01*
X154449292Y-83150713D01*
X154449293Y-83150714D01*
X154555523Y-83229115D01*
X154555524Y-83229115D01*
X154555525Y-83229116D01*
X154680151Y-83272725D01*
X154707441Y-83275284D01*
X154709733Y-83275499D01*
X154709738Y-83275500D01*
X154709744Y-83275500D01*
X155290262Y-83275500D01*
X155290265Y-83275499D01*
X155319849Y-83272725D01*
X155444475Y-83229116D01*
X155550711Y-83150711D01*
X155629116Y-83044475D01*
X155672725Y-82919849D01*
X155675500Y-82890256D01*
X155675500Y-82284744D01*
X155675500Y-82284738D01*
X155675499Y-82284733D01*
X155672725Y-82255155D01*
X155672725Y-82255151D01*
X155629116Y-82130525D01*
X155606588Y-82100001D01*
X155550714Y-82024293D01*
X155550713Y-82024292D01*
X155550711Y-82024289D01*
X155550706Y-82024285D01*
X155444477Y-81945884D01*
X155366801Y-81918704D01*
X155318121Y-81881638D01*
X155300500Y-81825260D01*
X155300500Y-81474499D01*
X155319407Y-81416308D01*
X155368907Y-81380344D01*
X155399500Y-81375499D01*
X155577099Y-81375499D01*
X155577102Y-81375499D01*
X155626330Y-81369019D01*
X155734359Y-81318644D01*
X155818644Y-81234359D01*
X155869019Y-81126330D01*
X155875500Y-81077103D01*
X155875499Y-80722898D01*
X155869019Y-80673670D01*
X155818644Y-80565641D01*
X155813676Y-80558546D01*
X155816249Y-80556743D01*
X155795229Y-80515487D01*
X155804800Y-80455055D01*
X155814342Y-80441920D01*
X155813676Y-80441454D01*
X155818640Y-80434362D01*
X155818644Y-80434359D01*
X155869019Y-80326330D01*
X155875500Y-80277103D01*
X155875499Y-79922898D01*
X155869019Y-79873670D01*
X155818644Y-79765641D01*
X155734359Y-79681356D01*
X155734357Y-79681355D01*
X155734356Y-79681354D01*
X155626335Y-79630983D01*
X155626333Y-79630982D01*
X155626330Y-79630981D01*
X155577103Y-79624500D01*
X155577102Y-79624500D01*
X155399500Y-79624500D01*
X155341309Y-79605593D01*
X155305345Y-79556093D01*
X155300500Y-79525500D01*
X155300500Y-76674500D01*
X155319407Y-76616309D01*
X155368907Y-76580345D01*
X155399500Y-76575500D01*
X156129742Y-76575500D01*
X156187933Y-76594407D01*
X156223897Y-76643907D01*
X156223897Y-76705093D01*
X156220307Y-76714487D01*
X156202415Y-76755008D01*
X156202414Y-76755011D01*
X156199500Y-76780130D01*
X156199500Y-77069859D01*
X156199501Y-77069864D01*
X156202414Y-77094990D01*
X156227756Y-77152385D01*
X156247794Y-77197765D01*
X156327235Y-77277206D01*
X156430009Y-77322585D01*
X156455135Y-77325500D01*
X156738000Y-77325499D01*
X156796190Y-77344406D01*
X156832154Y-77393906D01*
X156837000Y-77424499D01*
X156837000Y-78539562D01*
X156839988Y-78550714D01*
X156857478Y-78615988D01*
X156860975Y-78622044D01*
X156860975Y-78622045D01*
X156897038Y-78684508D01*
X156897040Y-78684511D01*
X157170505Y-78957976D01*
X157198281Y-79012491D01*
X157199500Y-79027978D01*
X157199500Y-79525500D01*
X157180593Y-79583691D01*
X157131093Y-79619655D01*
X157100501Y-79624500D01*
X156922900Y-79624500D01*
X156922892Y-79624501D01*
X156873670Y-79630980D01*
X156765643Y-79681354D01*
X156681354Y-79765643D01*
X156630983Y-79873664D01*
X156630981Y-79873671D01*
X156624500Y-79922898D01*
X156624500Y-80277099D01*
X156624501Y-80277107D01*
X156630980Y-80326329D01*
X156681355Y-80434358D01*
X156686324Y-80441454D01*
X156683752Y-80443254D01*
X156704775Y-80484541D01*
X156695186Y-80544970D01*
X156685660Y-80558081D01*
X156686324Y-80558546D01*
X156681354Y-80565643D01*
X156630983Y-80673664D01*
X156630981Y-80673668D01*
X156630981Y-80673670D01*
X156628052Y-80695922D01*
X156624500Y-80722898D01*
X156624500Y-81077099D01*
X156624501Y-81077107D01*
X156630980Y-81126329D01*
X156681354Y-81234356D01*
X156681355Y-81234357D01*
X156681356Y-81234359D01*
X156765641Y-81318644D01*
X156765642Y-81318644D01*
X156765643Y-81318645D01*
X156784150Y-81327275D01*
X156873670Y-81369019D01*
X156922897Y-81375500D01*
X157100500Y-81375499D01*
X157158690Y-81394406D01*
X157194654Y-81443906D01*
X157199500Y-81474499D01*
X157199500Y-81825260D01*
X157180593Y-81883451D01*
X157133199Y-81918704D01*
X157055522Y-81945884D01*
X156949293Y-82024285D01*
X156949285Y-82024293D01*
X156870884Y-82130523D01*
X156827276Y-82255147D01*
X156827274Y-82255155D01*
X156824500Y-82284733D01*
X156824500Y-82890266D01*
X156827274Y-82919844D01*
X156827276Y-82919852D01*
X156870884Y-83044476D01*
X156949285Y-83150706D01*
X156949289Y-83150711D01*
X156949292Y-83150713D01*
X156949293Y-83150714D01*
X157055523Y-83229115D01*
X157055524Y-83229115D01*
X157055525Y-83229116D01*
X157180151Y-83272725D01*
X157207441Y-83275284D01*
X157209733Y-83275499D01*
X157209738Y-83275500D01*
X157209744Y-83275500D01*
X157790262Y-83275500D01*
X157790265Y-83275499D01*
X157819849Y-83272725D01*
X157944475Y-83229116D01*
X158050711Y-83150711D01*
X158129116Y-83044475D01*
X158172725Y-82919849D01*
X158175500Y-82890256D01*
X158175500Y-82284744D01*
X158175500Y-82284738D01*
X158175499Y-82284733D01*
X158172725Y-82255155D01*
X158172725Y-82255151D01*
X158129116Y-82130525D01*
X158106588Y-82100001D01*
X158050714Y-82024293D01*
X158050713Y-82024292D01*
X158050711Y-82024289D01*
X158050706Y-82024285D01*
X157944477Y-81945884D01*
X157866801Y-81918704D01*
X157818121Y-81881638D01*
X157800500Y-81825260D01*
X157800500Y-81474499D01*
X157819407Y-81416308D01*
X157868907Y-81380344D01*
X157899500Y-81375499D01*
X158077099Y-81375499D01*
X158077102Y-81375499D01*
X158126330Y-81369019D01*
X158234359Y-81318644D01*
X158318644Y-81234359D01*
X158369019Y-81126330D01*
X158375500Y-81077103D01*
X158375499Y-80722898D01*
X158369019Y-80673670D01*
X158318644Y-80565641D01*
X158313676Y-80558546D01*
X158316249Y-80556743D01*
X158295229Y-80515487D01*
X158304800Y-80455055D01*
X158314342Y-80441920D01*
X158313676Y-80441454D01*
X158318640Y-80434362D01*
X158318644Y-80434359D01*
X158369019Y-80326330D01*
X158375500Y-80277103D01*
X158375499Y-79922898D01*
X161624500Y-79922898D01*
X161624500Y-80277099D01*
X161624501Y-80277107D01*
X161630980Y-80326329D01*
X161681355Y-80434358D01*
X161686324Y-80441454D01*
X161683752Y-80443254D01*
X161704775Y-80484541D01*
X161695186Y-80544970D01*
X161685660Y-80558081D01*
X161686324Y-80558546D01*
X161681354Y-80565643D01*
X161630983Y-80673664D01*
X161630981Y-80673668D01*
X161630981Y-80673670D01*
X161628052Y-80695922D01*
X161624500Y-80722898D01*
X161624500Y-81077099D01*
X161624501Y-81077107D01*
X161630980Y-81126329D01*
X161681354Y-81234356D01*
X161681355Y-81234357D01*
X161681356Y-81234359D01*
X161765641Y-81318644D01*
X161765642Y-81318644D01*
X161765643Y-81318645D01*
X161784150Y-81327275D01*
X161873670Y-81369019D01*
X161922897Y-81375500D01*
X162100500Y-81375499D01*
X162158690Y-81394406D01*
X162194654Y-81443906D01*
X162199500Y-81474499D01*
X162199500Y-81825260D01*
X162180593Y-81883451D01*
X162133199Y-81918704D01*
X162055522Y-81945884D01*
X161949293Y-82024285D01*
X161949285Y-82024293D01*
X161870884Y-82130523D01*
X161827276Y-82255147D01*
X161827274Y-82255155D01*
X161824500Y-82284733D01*
X161824500Y-82890266D01*
X161827274Y-82919844D01*
X161827276Y-82919852D01*
X161870884Y-83044476D01*
X161949285Y-83150706D01*
X161949289Y-83150711D01*
X161949292Y-83150713D01*
X161949293Y-83150714D01*
X162055523Y-83229115D01*
X162055524Y-83229115D01*
X162055525Y-83229116D01*
X162180151Y-83272725D01*
X162207441Y-83275284D01*
X162209733Y-83275499D01*
X162209738Y-83275500D01*
X162209744Y-83275500D01*
X162790262Y-83275500D01*
X162790265Y-83275499D01*
X162819849Y-83272725D01*
X162944475Y-83229116D01*
X163050711Y-83150711D01*
X163129116Y-83044475D01*
X163172725Y-82919849D01*
X163175500Y-82890256D01*
X163175500Y-82284744D01*
X163175500Y-82284738D01*
X163175499Y-82284733D01*
X163172725Y-82255155D01*
X163172725Y-82255151D01*
X163129116Y-82130525D01*
X163106588Y-82100001D01*
X163050714Y-82024293D01*
X163050713Y-82024292D01*
X163050711Y-82024289D01*
X163050706Y-82024285D01*
X162944477Y-81945884D01*
X162866801Y-81918704D01*
X162818121Y-81881638D01*
X162800500Y-81825260D01*
X162800500Y-81474499D01*
X162819407Y-81416308D01*
X162868907Y-81380344D01*
X162899500Y-81375499D01*
X163077099Y-81375499D01*
X163077102Y-81375499D01*
X163126330Y-81369019D01*
X163234359Y-81318644D01*
X163318644Y-81234359D01*
X163369019Y-81126330D01*
X163375500Y-81077103D01*
X163375499Y-80722898D01*
X163369019Y-80673670D01*
X163318644Y-80565641D01*
X163313676Y-80558546D01*
X163316249Y-80556743D01*
X163295229Y-80515487D01*
X163304800Y-80455055D01*
X163314342Y-80441920D01*
X163313676Y-80441454D01*
X163318640Y-80434362D01*
X163318644Y-80434359D01*
X163369019Y-80326330D01*
X163375500Y-80277103D01*
X163375499Y-79922898D01*
X163369019Y-79873670D01*
X163318644Y-79765641D01*
X163234359Y-79681356D01*
X163234357Y-79681355D01*
X163234356Y-79681354D01*
X163126335Y-79630983D01*
X163126333Y-79630982D01*
X163126330Y-79630981D01*
X163077103Y-79624500D01*
X163077102Y-79624500D01*
X162899500Y-79624500D01*
X162841309Y-79605593D01*
X162805345Y-79556093D01*
X162800500Y-79525500D01*
X162800500Y-79027978D01*
X162819407Y-78969787D01*
X162829490Y-78957980D01*
X163102960Y-78684511D01*
X163134942Y-78629116D01*
X163139025Y-78622045D01*
X163139025Y-78622044D01*
X163140245Y-78619929D01*
X163142521Y-78615989D01*
X163163000Y-78539562D01*
X163163000Y-77424499D01*
X163181907Y-77366308D01*
X163231407Y-77330344D01*
X163262000Y-77325499D01*
X163544861Y-77325499D01*
X163544864Y-77325499D01*
X163569991Y-77322585D01*
X163672765Y-77277206D01*
X163752206Y-77197765D01*
X163797585Y-77094991D01*
X163800500Y-77069865D01*
X163800499Y-76780136D01*
X163797585Y-76755009D01*
X163779692Y-76714487D01*
X163773485Y-76653619D01*
X163804241Y-76600725D01*
X163860213Y-76576011D01*
X163870258Y-76575500D01*
X164600500Y-76575500D01*
X164658691Y-76594407D01*
X164694655Y-76643907D01*
X164699500Y-76674500D01*
X164699500Y-79525500D01*
X164680593Y-79583691D01*
X164631093Y-79619655D01*
X164600501Y-79624500D01*
X164422900Y-79624500D01*
X164422892Y-79624501D01*
X164373670Y-79630980D01*
X164265643Y-79681354D01*
X164181354Y-79765643D01*
X164130983Y-79873664D01*
X164130981Y-79873671D01*
X164124500Y-79922898D01*
X164124500Y-80277099D01*
X164124501Y-80277107D01*
X164130980Y-80326329D01*
X164181355Y-80434358D01*
X164186324Y-80441454D01*
X164183752Y-80443254D01*
X164204775Y-80484541D01*
X164195186Y-80544970D01*
X164185660Y-80558081D01*
X164186324Y-80558546D01*
X164181354Y-80565643D01*
X164130983Y-80673664D01*
X164130981Y-80673668D01*
X164130981Y-80673670D01*
X164128052Y-80695922D01*
X164124500Y-80722898D01*
X164124500Y-81077099D01*
X164124501Y-81077107D01*
X164130980Y-81126329D01*
X164181354Y-81234356D01*
X164181355Y-81234357D01*
X164181356Y-81234359D01*
X164265641Y-81318644D01*
X164265642Y-81318644D01*
X164265643Y-81318645D01*
X164284150Y-81327275D01*
X164373670Y-81369019D01*
X164422897Y-81375500D01*
X164600500Y-81375499D01*
X164658690Y-81394406D01*
X164694654Y-81443906D01*
X164699500Y-81474499D01*
X164699500Y-81825260D01*
X164680593Y-81883451D01*
X164633199Y-81918704D01*
X164555522Y-81945884D01*
X164449293Y-82024285D01*
X164449285Y-82024293D01*
X164370884Y-82130523D01*
X164327276Y-82255147D01*
X164327274Y-82255155D01*
X164324500Y-82284733D01*
X164324500Y-82890266D01*
X164327274Y-82919844D01*
X164327276Y-82919852D01*
X164370884Y-83044476D01*
X164449285Y-83150706D01*
X164449289Y-83150711D01*
X164449292Y-83150713D01*
X164449293Y-83150714D01*
X164555523Y-83229115D01*
X164555524Y-83229115D01*
X164555525Y-83229116D01*
X164680151Y-83272725D01*
X164707441Y-83275284D01*
X164709733Y-83275499D01*
X164709738Y-83275500D01*
X164709744Y-83275500D01*
X165290262Y-83275500D01*
X165290265Y-83275499D01*
X165319849Y-83272725D01*
X165444475Y-83229116D01*
X165550711Y-83150711D01*
X165629116Y-83044475D01*
X165672725Y-82919849D01*
X165675500Y-82890256D01*
X165675500Y-82284744D01*
X165675500Y-82284738D01*
X165675499Y-82284733D01*
X165672725Y-82255155D01*
X165672725Y-82255151D01*
X165629116Y-82130525D01*
X165606588Y-82100001D01*
X165550714Y-82024293D01*
X165550713Y-82024292D01*
X165550711Y-82024289D01*
X165550706Y-82024285D01*
X165444477Y-81945884D01*
X165366801Y-81918704D01*
X165318121Y-81881638D01*
X165300500Y-81825260D01*
X165300500Y-81474499D01*
X165319407Y-81416308D01*
X165368907Y-81380344D01*
X165399500Y-81375499D01*
X165577099Y-81375499D01*
X165577102Y-81375499D01*
X165626330Y-81369019D01*
X165734359Y-81318644D01*
X165818644Y-81234359D01*
X165869019Y-81126330D01*
X165875500Y-81077103D01*
X165875499Y-80722898D01*
X165869019Y-80673670D01*
X165818644Y-80565641D01*
X165813676Y-80558546D01*
X165816249Y-80556743D01*
X165795229Y-80515487D01*
X165804800Y-80455055D01*
X165814342Y-80441920D01*
X165813676Y-80441454D01*
X165818640Y-80434362D01*
X165818644Y-80434359D01*
X165869019Y-80326330D01*
X165875500Y-80277103D01*
X165875499Y-79922898D01*
X165869019Y-79873670D01*
X165818644Y-79765641D01*
X165734359Y-79681356D01*
X165734357Y-79681355D01*
X165734356Y-79681354D01*
X165626335Y-79630983D01*
X165626333Y-79630982D01*
X165626330Y-79630981D01*
X165577103Y-79624500D01*
X165577102Y-79624500D01*
X165399500Y-79624500D01*
X165341309Y-79605593D01*
X165305345Y-79556093D01*
X165300500Y-79525500D01*
X165300500Y-76460437D01*
X165300499Y-76460435D01*
X165296360Y-76444990D01*
X165280021Y-76384011D01*
X165277414Y-76379496D01*
X165240460Y-76315489D01*
X165184512Y-76259540D01*
X164959510Y-76034539D01*
X164890992Y-75994980D01*
X164890988Y-75994978D01*
X164814564Y-75974500D01*
X164814562Y-75974500D01*
X163869712Y-75974500D01*
X163811521Y-75955593D01*
X163775557Y-75906093D01*
X163775557Y-75844907D01*
X163779147Y-75835513D01*
X163797089Y-75794875D01*
X163797090Y-75794872D01*
X163799999Y-75769797D01*
X163800000Y-75769795D01*
X163800000Y-75725001D01*
X163799999Y-75725000D01*
X161925002Y-75725000D01*
X161925001Y-75725001D01*
X161925001Y-75769791D01*
X161927909Y-75794874D01*
X161976919Y-75905870D01*
X161974488Y-75906943D01*
X161987845Y-75952295D01*
X161974618Y-75993012D01*
X161976500Y-75993843D01*
X161972794Y-76002234D01*
X161972794Y-76002235D01*
X161958530Y-76034540D01*
X161927414Y-76105011D01*
X161924500Y-76130130D01*
X161924500Y-76419859D01*
X161924501Y-76419864D01*
X161927414Y-76444990D01*
X161976500Y-76556157D01*
X161974126Y-76557205D01*
X161987537Y-76602757D01*
X161974477Y-76642949D01*
X161976500Y-76643843D01*
X161972794Y-76652234D01*
X161972794Y-76652235D01*
X161949455Y-76705093D01*
X161927414Y-76755011D01*
X161924500Y-76780130D01*
X161924500Y-77069859D01*
X161924501Y-77069864D01*
X161927414Y-77094990D01*
X161952756Y-77152385D01*
X161972794Y-77197765D01*
X162052235Y-77277206D01*
X162155009Y-77322585D01*
X162180135Y-77325500D01*
X162463000Y-77325499D01*
X162521190Y-77344406D01*
X162557154Y-77393906D01*
X162562000Y-77424499D01*
X162562000Y-78334521D01*
X162543093Y-78392712D01*
X162533004Y-78404525D01*
X162315489Y-78622040D01*
X162315488Y-78622039D01*
X162259539Y-78677989D01*
X162219980Y-78746507D01*
X162219978Y-78746511D01*
X162199500Y-78822935D01*
X162199500Y-79525500D01*
X162180593Y-79583691D01*
X162131093Y-79619655D01*
X162100501Y-79624500D01*
X161922900Y-79624500D01*
X161922892Y-79624501D01*
X161873670Y-79630980D01*
X161765643Y-79681354D01*
X161681354Y-79765643D01*
X161630983Y-79873664D01*
X161630981Y-79873671D01*
X161624500Y-79922898D01*
X158375499Y-79922898D01*
X158369019Y-79873670D01*
X158318644Y-79765641D01*
X158234359Y-79681356D01*
X158234357Y-79681355D01*
X158234356Y-79681354D01*
X158126335Y-79630983D01*
X158126333Y-79630982D01*
X158126330Y-79630981D01*
X158077103Y-79624500D01*
X158077102Y-79624500D01*
X157899500Y-79624500D01*
X157841309Y-79605593D01*
X157805345Y-79556093D01*
X157800500Y-79525500D01*
X157800500Y-78822937D01*
X157800499Y-78822935D01*
X157780021Y-78746511D01*
X157780019Y-78746507D01*
X157740460Y-78677989D01*
X157684511Y-78622039D01*
X157684511Y-78622040D01*
X157466996Y-78404525D01*
X157439219Y-78350008D01*
X157438000Y-78334521D01*
X157438000Y-77424499D01*
X157456907Y-77366308D01*
X157506407Y-77330344D01*
X157537000Y-77325499D01*
X157819861Y-77325499D01*
X157819864Y-77325499D01*
X157844991Y-77322585D01*
X157947765Y-77277206D01*
X158027206Y-77197765D01*
X158072585Y-77094991D01*
X158075500Y-77069865D01*
X158075499Y-76780136D01*
X158072585Y-76755009D01*
X158027206Y-76652235D01*
X158027205Y-76652234D01*
X158023500Y-76643843D01*
X158025875Y-76642794D01*
X158012462Y-76597261D01*
X158025526Y-76557051D01*
X158023500Y-76556157D01*
X158027204Y-76547766D01*
X158027206Y-76547765D01*
X158072585Y-76444991D01*
X158075500Y-76419865D01*
X158075499Y-76130136D01*
X158072585Y-76105009D01*
X158027206Y-76002235D01*
X158027205Y-76002234D01*
X158023500Y-75993843D01*
X158025719Y-75992863D01*
X158012154Y-75946806D01*
X158025160Y-75906788D01*
X158023081Y-75905870D01*
X158072090Y-75794872D01*
X158074999Y-75769797D01*
X158075000Y-75769795D01*
X158075000Y-75725001D01*
X158074999Y-75725000D01*
X156200002Y-75725000D01*
X156200001Y-75725001D01*
X156200001Y-75769791D01*
X156202909Y-75794874D01*
X156220853Y-75835512D01*
X156227061Y-75896382D01*
X156196305Y-75949275D01*
X156140333Y-75973989D01*
X156130288Y-75974500D01*
X155185435Y-75974500D01*
X155109011Y-75994978D01*
X155109007Y-75994980D01*
X155040489Y-76034539D01*
X154759539Y-76315489D01*
X154719980Y-76384007D01*
X154719978Y-76384011D01*
X154699500Y-76460435D01*
X154699500Y-79525500D01*
X154680593Y-79583691D01*
X154631093Y-79619655D01*
X154600501Y-79624500D01*
X154422900Y-79624500D01*
X154422892Y-79624501D01*
X154373670Y-79630980D01*
X154265643Y-79681354D01*
X154181354Y-79765643D01*
X154130983Y-79873664D01*
X154130981Y-79873671D01*
X154124500Y-79922898D01*
X153375499Y-79922898D01*
X153369019Y-79873670D01*
X153318644Y-79765641D01*
X153234359Y-79681356D01*
X153234357Y-79681355D01*
X153234356Y-79681354D01*
X153126335Y-79630983D01*
X153126333Y-79630982D01*
X153126330Y-79630981D01*
X153077103Y-79624500D01*
X153077102Y-79624500D01*
X152899500Y-79624500D01*
X152841309Y-79605593D01*
X152805345Y-79556093D01*
X152800500Y-79525500D01*
X152800500Y-75665479D01*
X152819407Y-75607288D01*
X152829496Y-75595475D01*
X153120475Y-75304496D01*
X153174992Y-75276719D01*
X153190479Y-75275500D01*
X156130288Y-75275500D01*
X156188479Y-75294407D01*
X156224443Y-75343907D01*
X156224443Y-75405093D01*
X156220853Y-75414487D01*
X156202910Y-75455124D01*
X156202909Y-75455127D01*
X156200000Y-75480202D01*
X156200000Y-75524999D01*
X156200001Y-75525000D01*
X158074998Y-75525000D01*
X158074999Y-75524999D01*
X158074999Y-75480210D01*
X158074998Y-75480208D01*
X158072090Y-75455125D01*
X158023081Y-75344130D01*
X158025512Y-75343056D01*
X158012154Y-75297709D01*
X158025385Y-75256989D01*
X158023500Y-75256157D01*
X158027204Y-75247766D01*
X158027206Y-75247765D01*
X158072585Y-75144991D01*
X158075500Y-75119865D01*
X158075499Y-74830136D01*
X158072585Y-74805009D01*
X158027206Y-74702235D01*
X158027205Y-74702234D01*
X158023500Y-74693843D01*
X158025875Y-74692794D01*
X158012462Y-74647261D01*
X158025526Y-74607051D01*
X158023500Y-74606157D01*
X158027204Y-74597766D01*
X158027206Y-74597765D01*
X158072585Y-74494991D01*
X158075500Y-74469865D01*
X158075499Y-74180136D01*
X158075498Y-74180130D01*
X161924500Y-74180130D01*
X161924500Y-74469859D01*
X161924501Y-74469864D01*
X161927414Y-74494990D01*
X161951437Y-74549397D01*
X161952015Y-74550706D01*
X161976500Y-74606157D01*
X161974126Y-74607205D01*
X161987537Y-74652757D01*
X161974477Y-74692949D01*
X161976500Y-74693843D01*
X161972794Y-74702234D01*
X161972794Y-74702235D01*
X161935618Y-74786430D01*
X161927414Y-74805011D01*
X161924500Y-74830130D01*
X161924500Y-75119859D01*
X161924501Y-75119864D01*
X161927414Y-75144990D01*
X161976500Y-75256157D01*
X161974280Y-75257137D01*
X161987845Y-75303198D01*
X161974845Y-75343214D01*
X161976919Y-75344130D01*
X161927909Y-75455127D01*
X161925000Y-75480202D01*
X161925000Y-75524999D01*
X161925001Y-75525000D01*
X163799998Y-75525000D01*
X163799999Y-75524999D01*
X163799999Y-75480210D01*
X163799998Y-75480208D01*
X163797090Y-75455125D01*
X163779147Y-75414488D01*
X163772939Y-75353618D01*
X163803695Y-75300725D01*
X163859667Y-75276011D01*
X163869712Y-75275500D01*
X166809521Y-75275500D01*
X166867712Y-75294407D01*
X166879525Y-75304496D01*
X167170504Y-75595475D01*
X167198281Y-75649992D01*
X167199500Y-75665479D01*
X167199500Y-79525500D01*
X167180593Y-79583691D01*
X167131093Y-79619655D01*
X167100501Y-79624500D01*
X166922900Y-79624500D01*
X166922892Y-79624501D01*
X166873670Y-79630980D01*
X166765643Y-79681354D01*
X166681354Y-79765643D01*
X166630983Y-79873664D01*
X166630981Y-79873671D01*
X166624500Y-79922898D01*
X166624500Y-80277099D01*
X166624501Y-80277107D01*
X166630980Y-80326329D01*
X166681355Y-80434358D01*
X166686324Y-80441454D01*
X166683752Y-80443254D01*
X166704775Y-80484541D01*
X166695186Y-80544970D01*
X166685660Y-80558081D01*
X166686324Y-80558546D01*
X166681354Y-80565643D01*
X166630983Y-80673664D01*
X166630981Y-80673668D01*
X166630981Y-80673670D01*
X166628052Y-80695922D01*
X166624500Y-80722898D01*
X166624500Y-81077099D01*
X166624501Y-81077107D01*
X166630980Y-81126329D01*
X166681354Y-81234356D01*
X166681355Y-81234357D01*
X166681356Y-81234359D01*
X166765641Y-81318644D01*
X166765642Y-81318644D01*
X166765643Y-81318645D01*
X166784150Y-81327275D01*
X166873670Y-81369019D01*
X166922897Y-81375500D01*
X167100500Y-81375499D01*
X167158690Y-81394406D01*
X167194654Y-81443906D01*
X167199500Y-81474499D01*
X167199500Y-81825260D01*
X167180593Y-81883451D01*
X167133199Y-81918704D01*
X167055522Y-81945884D01*
X166949293Y-82024285D01*
X166949285Y-82024293D01*
X166870884Y-82130523D01*
X166827276Y-82255147D01*
X166827274Y-82255155D01*
X166824500Y-82284733D01*
X166824500Y-82890266D01*
X166827274Y-82919844D01*
X166827276Y-82919852D01*
X166870884Y-83044476D01*
X166949285Y-83150706D01*
X166949289Y-83150711D01*
X166949292Y-83150713D01*
X166949293Y-83150714D01*
X167055523Y-83229115D01*
X167055524Y-83229115D01*
X167055525Y-83229116D01*
X167180151Y-83272725D01*
X167207441Y-83275284D01*
X167209733Y-83275499D01*
X167209738Y-83275500D01*
X167209744Y-83275500D01*
X167790262Y-83275500D01*
X167790265Y-83275499D01*
X167819849Y-83272725D01*
X167944475Y-83229116D01*
X168050711Y-83150711D01*
X168129116Y-83044475D01*
X168172725Y-82919849D01*
X168175500Y-82890256D01*
X168175500Y-82284744D01*
X168175500Y-82284738D01*
X168175499Y-82284733D01*
X168172725Y-82255155D01*
X168172725Y-82255151D01*
X168129116Y-82130525D01*
X168106588Y-82100001D01*
X168050714Y-82024293D01*
X168050713Y-82024292D01*
X168050711Y-82024289D01*
X168050706Y-82024285D01*
X167944477Y-81945884D01*
X167866801Y-81918704D01*
X167818121Y-81881638D01*
X167800500Y-81825260D01*
X167800500Y-81474499D01*
X167819407Y-81416308D01*
X167868907Y-81380344D01*
X167899500Y-81375499D01*
X168077099Y-81375499D01*
X168077102Y-81375499D01*
X168126330Y-81369019D01*
X168234359Y-81318644D01*
X168318644Y-81234359D01*
X168369019Y-81126330D01*
X168375500Y-81077103D01*
X168375499Y-80722898D01*
X168369019Y-80673670D01*
X168318644Y-80565641D01*
X168313676Y-80558546D01*
X168316249Y-80556743D01*
X168295229Y-80515487D01*
X168304800Y-80455055D01*
X168314342Y-80441920D01*
X168313676Y-80441454D01*
X168318640Y-80434362D01*
X168318644Y-80434359D01*
X168369019Y-80326330D01*
X168375500Y-80277103D01*
X168375499Y-79922898D01*
X168369019Y-79873670D01*
X168318644Y-79765641D01*
X168234359Y-79681356D01*
X168234357Y-79681355D01*
X168234356Y-79681354D01*
X168126335Y-79630983D01*
X168126333Y-79630982D01*
X168126330Y-79630981D01*
X168077103Y-79624500D01*
X168077102Y-79624500D01*
X167899500Y-79624500D01*
X167841309Y-79605593D01*
X167805345Y-79556093D01*
X167800500Y-79525500D01*
X167800500Y-75460437D01*
X167800499Y-75460435D01*
X167797513Y-75449293D01*
X167780021Y-75384011D01*
X167745662Y-75324500D01*
X167740460Y-75315489D01*
X167684512Y-75259540D01*
X167219475Y-74794504D01*
X167191697Y-74739987D01*
X167201268Y-74679555D01*
X167244533Y-74636290D01*
X167289478Y-74625500D01*
X169159521Y-74625500D01*
X169217712Y-74644407D01*
X169229525Y-74654496D01*
X169670504Y-75095475D01*
X169698281Y-75149992D01*
X169699500Y-75165479D01*
X169699500Y-79525500D01*
X169680593Y-79583691D01*
X169631093Y-79619655D01*
X169600501Y-79624500D01*
X169422900Y-79624500D01*
X169422892Y-79624501D01*
X169373670Y-79630980D01*
X169265643Y-79681354D01*
X169181354Y-79765643D01*
X169130983Y-79873664D01*
X169130981Y-79873671D01*
X169124500Y-79922898D01*
X169124500Y-80277099D01*
X169124501Y-80277107D01*
X169130980Y-80326329D01*
X169181355Y-80434358D01*
X169186324Y-80441454D01*
X169183752Y-80443254D01*
X169204775Y-80484541D01*
X169195186Y-80544970D01*
X169185660Y-80558081D01*
X169186324Y-80558546D01*
X169181354Y-80565643D01*
X169130983Y-80673664D01*
X169130981Y-80673668D01*
X169130981Y-80673670D01*
X169128052Y-80695922D01*
X169124500Y-80722898D01*
X169124500Y-81077099D01*
X169124501Y-81077107D01*
X169130980Y-81126329D01*
X169181354Y-81234356D01*
X169181355Y-81234357D01*
X169181356Y-81234359D01*
X169265641Y-81318644D01*
X169265642Y-81318644D01*
X169265643Y-81318645D01*
X169284150Y-81327275D01*
X169373670Y-81369019D01*
X169422897Y-81375500D01*
X169600500Y-81375499D01*
X169658690Y-81394406D01*
X169694654Y-81443906D01*
X169699500Y-81474499D01*
X169699500Y-81825260D01*
X169680593Y-81883451D01*
X169633199Y-81918704D01*
X169555522Y-81945884D01*
X169449293Y-82024285D01*
X169449285Y-82024293D01*
X169370884Y-82130523D01*
X169327276Y-82255147D01*
X169327274Y-82255155D01*
X169324500Y-82284733D01*
X169324500Y-82890266D01*
X169327274Y-82919844D01*
X169327276Y-82919852D01*
X169370884Y-83044476D01*
X169449285Y-83150706D01*
X169449289Y-83150711D01*
X169449292Y-83150713D01*
X169449293Y-83150714D01*
X169555523Y-83229115D01*
X169555524Y-83229115D01*
X169555525Y-83229116D01*
X169680151Y-83272725D01*
X169707441Y-83275284D01*
X169709733Y-83275499D01*
X169709738Y-83275500D01*
X169709744Y-83275500D01*
X170290262Y-83275500D01*
X170290265Y-83275499D01*
X170319849Y-83272725D01*
X170444475Y-83229116D01*
X170550711Y-83150711D01*
X170629116Y-83044475D01*
X170672725Y-82919849D01*
X170675500Y-82890256D01*
X170675500Y-82284744D01*
X170675500Y-82284738D01*
X170675499Y-82284733D01*
X170672725Y-82255155D01*
X170672725Y-82255151D01*
X170629116Y-82130525D01*
X170606588Y-82100001D01*
X170550714Y-82024293D01*
X170550713Y-82024292D01*
X170550711Y-82024289D01*
X170550706Y-82024285D01*
X170444477Y-81945884D01*
X170366801Y-81918704D01*
X170318121Y-81881638D01*
X170300500Y-81825260D01*
X170300500Y-81474499D01*
X170319407Y-81416308D01*
X170368907Y-81380344D01*
X170399500Y-81375499D01*
X170577099Y-81375499D01*
X170577102Y-81375499D01*
X170626330Y-81369019D01*
X170734359Y-81318644D01*
X170818644Y-81234359D01*
X170869019Y-81126330D01*
X170875500Y-81077103D01*
X170875499Y-80722898D01*
X170869019Y-80673670D01*
X170818644Y-80565641D01*
X170813676Y-80558546D01*
X170816249Y-80556743D01*
X170795229Y-80515487D01*
X170804800Y-80455055D01*
X170814342Y-80441920D01*
X170813676Y-80441454D01*
X170818640Y-80434362D01*
X170818644Y-80434359D01*
X170869019Y-80326330D01*
X170875500Y-80277103D01*
X170875499Y-79922898D01*
X170869019Y-79873670D01*
X170818644Y-79765641D01*
X170734359Y-79681356D01*
X170734357Y-79681355D01*
X170734356Y-79681354D01*
X170626335Y-79630983D01*
X170626333Y-79630982D01*
X170626330Y-79630981D01*
X170577103Y-79624500D01*
X170577102Y-79624500D01*
X170399500Y-79624500D01*
X170341309Y-79605593D01*
X170305345Y-79556093D01*
X170300500Y-79525500D01*
X170300500Y-74960437D01*
X170300499Y-74960435D01*
X170280021Y-74884011D01*
X170280019Y-74884007D01*
X170240460Y-74815489D01*
X170184511Y-74759539D01*
X170184511Y-74759540D01*
X169509511Y-74084540D01*
X169509508Y-74084538D01*
X169488804Y-74072584D01*
X169488804Y-74072585D01*
X169440989Y-74044979D01*
X169440988Y-74044978D01*
X169440987Y-74044978D01*
X169364564Y-74024500D01*
X169364562Y-74024500D01*
X163869712Y-74024500D01*
X163811521Y-74005593D01*
X163775557Y-73956093D01*
X163775557Y-73894907D01*
X163779147Y-73885513D01*
X163797089Y-73844875D01*
X163797090Y-73844872D01*
X163799999Y-73819797D01*
X163800000Y-73819795D01*
X163800000Y-73775001D01*
X163799999Y-73775000D01*
X161925002Y-73775000D01*
X161925001Y-73775001D01*
X161925001Y-73819791D01*
X161927909Y-73844874D01*
X161976919Y-73955870D01*
X161974488Y-73956943D01*
X161987845Y-74002295D01*
X161974618Y-74043012D01*
X161976500Y-74043843D01*
X161972794Y-74052234D01*
X161972794Y-74052235D01*
X161949455Y-74105093D01*
X161927414Y-74155011D01*
X161924500Y-74180130D01*
X158075498Y-74180130D01*
X158072585Y-74155009D01*
X158027206Y-74052235D01*
X158027205Y-74052234D01*
X158023500Y-74043843D01*
X158025875Y-74042794D01*
X158012462Y-73997261D01*
X158025526Y-73957051D01*
X158023500Y-73956157D01*
X158027204Y-73947766D01*
X158027206Y-73947765D01*
X158072585Y-73844991D01*
X158075500Y-73819865D01*
X158075499Y-73530136D01*
X158072585Y-73505009D01*
X158027206Y-73402235D01*
X158027205Y-73402234D01*
X158023500Y-73393843D01*
X158025875Y-73392794D01*
X158012462Y-73347261D01*
X158025526Y-73307051D01*
X158023500Y-73306157D01*
X158027204Y-73297766D01*
X158027206Y-73297765D01*
X158072585Y-73194991D01*
X158075500Y-73169865D01*
X158075499Y-72880136D01*
X158072585Y-72855009D01*
X158027206Y-72752235D01*
X158027205Y-72752234D01*
X158023500Y-72743843D01*
X158025875Y-72742794D01*
X158012462Y-72697261D01*
X158025526Y-72657051D01*
X158023500Y-72656157D01*
X158027204Y-72647766D01*
X158027206Y-72647765D01*
X158072585Y-72544991D01*
X158075500Y-72519865D01*
X158075499Y-72230136D01*
X158072585Y-72205009D01*
X158027206Y-72102235D01*
X158027205Y-72102234D01*
X158023500Y-72093843D01*
X158025875Y-72092794D01*
X158012462Y-72047261D01*
X158025526Y-72007051D01*
X158023500Y-72006157D01*
X158027204Y-71997766D01*
X158027206Y-71997765D01*
X158072585Y-71894991D01*
X158075500Y-71869865D01*
X158075499Y-71580136D01*
X158072585Y-71555009D01*
X158027206Y-71452235D01*
X158027205Y-71452234D01*
X158023500Y-71443843D01*
X158025875Y-71442794D01*
X158012462Y-71397261D01*
X158025526Y-71357051D01*
X158023500Y-71356157D01*
X158027204Y-71347766D01*
X158027206Y-71347765D01*
X158072585Y-71244991D01*
X158075500Y-71219865D01*
X158075499Y-70930136D01*
X158072585Y-70905009D01*
X158027206Y-70802235D01*
X157947765Y-70722794D01*
X157844991Y-70677415D01*
X157844990Y-70677414D01*
X157844988Y-70677414D01*
X157819868Y-70674500D01*
X156455139Y-70674500D01*
X156455136Y-70674501D01*
X156430009Y-70677414D01*
X156327233Y-70722795D01*
X156307502Y-70742526D01*
X156252985Y-70770302D01*
X156192553Y-70760730D01*
X156167496Y-70742525D01*
X156099471Y-70674500D01*
X155597011Y-70172040D01*
X155597008Y-70172038D01*
X155528492Y-70132480D01*
X155528488Y-70132478D01*
X155452064Y-70112000D01*
X155452062Y-70112000D01*
X155254114Y-70112000D01*
X155195923Y-70093093D01*
X155160670Y-70045698D01*
X155137733Y-69980151D01*
X155129116Y-69955525D01*
X155121863Y-69945698D01*
X155050714Y-69849293D01*
X155050713Y-69849292D01*
X155050711Y-69849289D01*
X155050706Y-69849285D01*
X154944476Y-69770884D01*
X154819852Y-69727276D01*
X154819851Y-69727275D01*
X154819849Y-69727275D01*
X154819847Y-69727274D01*
X154819844Y-69727274D01*
X154790266Y-69724500D01*
X154790256Y-69724500D01*
X154209744Y-69724500D01*
X154209733Y-69724500D01*
X154180155Y-69727274D01*
X154180147Y-69727276D01*
X154055523Y-69770884D01*
X153949293Y-69849285D01*
X153949285Y-69849293D01*
X153870884Y-69955523D01*
X153827276Y-70080147D01*
X153827274Y-70080155D01*
X153824500Y-70109733D01*
X153824500Y-70715266D01*
X153827274Y-70744844D01*
X153827276Y-70744852D01*
X153870884Y-70869476D01*
X153915653Y-70930136D01*
X153949289Y-70975711D01*
X153949292Y-70975713D01*
X153949293Y-70975714D01*
X154055523Y-71054115D01*
X154055524Y-71054115D01*
X154055525Y-71054116D01*
X154180151Y-71097725D01*
X154207441Y-71100284D01*
X154209733Y-71100499D01*
X154209738Y-71100500D01*
X154209744Y-71100500D01*
X154790262Y-71100500D01*
X154790265Y-71100499D01*
X154819849Y-71097725D01*
X154944475Y-71054116D01*
X155050711Y-70975711D01*
X155129116Y-70869475D01*
X155158831Y-70784556D01*
X155195896Y-70735876D01*
X155254497Y-70718279D01*
X155312249Y-70738487D01*
X155322279Y-70747250D01*
X155830525Y-71255496D01*
X155858302Y-71310013D01*
X155848731Y-71370445D01*
X155805466Y-71413710D01*
X155760521Y-71424500D01*
X146474700Y-71424500D01*
X146416509Y-71405593D01*
X146415912Y-71405155D01*
X146369476Y-71370884D01*
X146244852Y-71327276D01*
X146244851Y-71327275D01*
X146244849Y-71327275D01*
X146244847Y-71327274D01*
X146244844Y-71327274D01*
X146215266Y-71324500D01*
X146215256Y-71324500D01*
X145609744Y-71324500D01*
X145609733Y-71324500D01*
X145580155Y-71327274D01*
X145580147Y-71327276D01*
X145455523Y-71370884D01*
X145349293Y-71449285D01*
X145349285Y-71449293D01*
X145270884Y-71555523D01*
X145227276Y-71680147D01*
X145227274Y-71680155D01*
X145224500Y-71709733D01*
X144775499Y-71709733D01*
X144772725Y-71680155D01*
X144772725Y-71680151D01*
X144729116Y-71555525D01*
X144729113Y-71555521D01*
X144650714Y-71449293D01*
X144650713Y-71449292D01*
X144650711Y-71449289D01*
X144650706Y-71449285D01*
X144544476Y-71370884D01*
X144419852Y-71327276D01*
X144419851Y-71327275D01*
X144419849Y-71327275D01*
X144419847Y-71327274D01*
X144419844Y-71327274D01*
X144390266Y-71324500D01*
X144390256Y-71324500D01*
X143784744Y-71324500D01*
X143784733Y-71324500D01*
X143755155Y-71327274D01*
X143755147Y-71327276D01*
X143630523Y-71370884D01*
X143524293Y-71449285D01*
X143524285Y-71449293D01*
X143445885Y-71555521D01*
X143445882Y-71555527D01*
X143436200Y-71583198D01*
X143399134Y-71631879D01*
X143342756Y-71649500D01*
X143046144Y-71649500D01*
X142953856Y-71649500D01*
X142864712Y-71673386D01*
X142784788Y-71719530D01*
X142219530Y-72284788D01*
X142181591Y-72350500D01*
X142181590Y-72350500D01*
X142173387Y-72364709D01*
X142173386Y-72364711D01*
X142161443Y-72409284D01*
X142152014Y-72444476D01*
X142149500Y-72453857D01*
X142149500Y-91546143D01*
X142171349Y-91627685D01*
X142171348Y-91627685D01*
X142171349Y-91627687D01*
X142173383Y-91635280D01*
X142173384Y-91635283D01*
X142173386Y-91635288D01*
X142219530Y-91715212D01*
X142219532Y-91715214D01*
X142534814Y-92030497D01*
X142562591Y-92085013D01*
X142553020Y-92145445D01*
X142509755Y-92188710D01*
X142464810Y-92199500D01*
X140399500Y-92199500D01*
X140341309Y-92180593D01*
X140305345Y-92131093D01*
X140300500Y-92100500D01*
X140300500Y-68687501D01*
X153825000Y-68687501D01*
X153825000Y-68890201D01*
X153827771Y-68919758D01*
X153827772Y-68919759D01*
X153871330Y-69044240D01*
X153949641Y-69150348D01*
X153949651Y-69150358D01*
X154055759Y-69228669D01*
X154180240Y-69272227D01*
X154180241Y-69272228D01*
X154209799Y-69275000D01*
X154399999Y-69275000D01*
X154400000Y-69274999D01*
X154400000Y-68687501D01*
X154600000Y-68687501D01*
X154600000Y-69274999D01*
X154600001Y-69275000D01*
X154790201Y-69275000D01*
X154819758Y-69272228D01*
X154819759Y-69272227D01*
X154944240Y-69228669D01*
X155050348Y-69150358D01*
X155050358Y-69150348D01*
X155128669Y-69044240D01*
X155172227Y-68919759D01*
X155172228Y-68919758D01*
X155175000Y-68890201D01*
X155175000Y-68737501D01*
X164825000Y-68737501D01*
X164825000Y-68990201D01*
X164827771Y-69019758D01*
X164827772Y-69019759D01*
X164871330Y-69144240D01*
X164949641Y-69250348D01*
X164949651Y-69250358D01*
X165055759Y-69328669D01*
X165180240Y-69372227D01*
X165180241Y-69372228D01*
X165209799Y-69375000D01*
X165399999Y-69375000D01*
X165400000Y-69374999D01*
X165400000Y-68737501D01*
X165600000Y-68737501D01*
X165600000Y-69374999D01*
X165600001Y-69375000D01*
X165790201Y-69375000D01*
X165819758Y-69372228D01*
X165819759Y-69372227D01*
X165944240Y-69328669D01*
X166050348Y-69250358D01*
X166050358Y-69250348D01*
X166128669Y-69144240D01*
X166172227Y-69019759D01*
X166172228Y-69019758D01*
X166175000Y-68990201D01*
X166175000Y-68737501D01*
X166825000Y-68737501D01*
X166825000Y-68990201D01*
X166827771Y-69019758D01*
X166827772Y-69019759D01*
X166871330Y-69144240D01*
X166949641Y-69250348D01*
X166949651Y-69250358D01*
X167055759Y-69328669D01*
X167180240Y-69372227D01*
X167180241Y-69372228D01*
X167209799Y-69375000D01*
X167399999Y-69375000D01*
X167400000Y-69374999D01*
X167400000Y-68737501D01*
X167600000Y-68737501D01*
X167600000Y-69374999D01*
X167600001Y-69375000D01*
X167790201Y-69375000D01*
X167819758Y-69372228D01*
X167819759Y-69372227D01*
X167944240Y-69328669D01*
X168050348Y-69250358D01*
X168050358Y-69250348D01*
X168128669Y-69144240D01*
X168172227Y-69019759D01*
X168172228Y-69019758D01*
X168175000Y-68990201D01*
X168175000Y-68737501D01*
X168174999Y-68737500D01*
X167600001Y-68737500D01*
X167600000Y-68737501D01*
X167400000Y-68737501D01*
X167399999Y-68737500D01*
X166825001Y-68737500D01*
X166825000Y-68737501D01*
X166175000Y-68737501D01*
X166174999Y-68737500D01*
X165600001Y-68737500D01*
X165600000Y-68737501D01*
X165400000Y-68737501D01*
X165399999Y-68737500D01*
X164825001Y-68737500D01*
X164825000Y-68737501D01*
X155175000Y-68737501D01*
X155175000Y-68687501D01*
X155174999Y-68687500D01*
X154600001Y-68687500D01*
X154600000Y-68687501D01*
X154400000Y-68687501D01*
X154399999Y-68687500D01*
X153825001Y-68687500D01*
X153825000Y-68687501D01*
X140300500Y-68687501D01*
X140300500Y-67899500D01*
X140319407Y-67841309D01*
X140368907Y-67805345D01*
X140399500Y-67800500D01*
X153952496Y-67800500D01*
X154010687Y-67819407D01*
G37*
G04 #@! TD.AperFunction*
M02*
