G04 #@! TF.GenerationSoftware,KiCad,Pcbnew,8.0.9-8.0.9-0~ubuntu24.04.1*
G04 #@! TF.CreationDate,2025-06-21T17:25:31+03:00*
G04 #@! TF.ProjectId,retrolight-main,72657472-6f6c-4696-9768-742d6d61696e,rev?*
G04 #@! TF.SameCoordinates,Original*
G04 #@! TF.FileFunction,Soldermask,Top*
G04 #@! TF.FilePolarity,Negative*
%FSLAX46Y46*%
G04 Gerber Fmt 4.6, Leading zero omitted, Abs format (unit mm)*
G04 Created by KiCad (PCBNEW 8.0.9-8.0.9-0~ubuntu24.04.1) date 2025-06-21 17:25:31*
%MOMM*%
%LPD*%
G01*
G04 APERTURE LIST*
G04 Aperture macros list*
%AMRoundRect*
0 Rectangle with rounded corners*
0 $1 Rounding radius*
0 $2 $3 $4 $5 $6 $7 $8 $9 X,Y pos of 4 corners*
0 Add a 4 corners polygon primitive as box body*
4,1,4,$2,$3,$4,$5,$6,$7,$8,$9,$2,$3,0*
0 Add four circle primitives for the rounded corners*
1,1,$1+$1,$2,$3*
1,1,$1+$1,$4,$5*
1,1,$1+$1,$6,$7*
1,1,$1+$1,$8,$9*
0 Add four rect primitives between the rounded corners*
20,1,$1+$1,$2,$3,$4,$5,0*
20,1,$1+$1,$4,$5,$6,$7,0*
20,1,$1+$1,$6,$7,$8,$9,0*
20,1,$1+$1,$8,$9,$2,$3,0*%
G04 Aperture macros list end*
%ADD10R,1.700000X1.700000*%
%ADD11O,1.700000X1.700000*%
%ADD12RoundRect,0.100000X-0.637500X-0.100000X0.637500X-0.100000X0.637500X0.100000X-0.637500X0.100000X0*%
%ADD13RoundRect,0.237500X0.237500X-0.250000X0.237500X0.250000X-0.237500X0.250000X-0.237500X-0.250000X0*%
%ADD14RoundRect,0.237500X0.250000X0.237500X-0.250000X0.237500X-0.250000X-0.237500X0.250000X-0.237500X0*%
%ADD15RoundRect,0.237500X-0.237500X0.250000X-0.237500X-0.250000X0.237500X-0.250000X0.237500X0.250000X0*%
%ADD16RoundRect,0.137500X-0.537500X-0.137500X0.537500X-0.137500X0.537500X0.137500X-0.537500X0.137500X0*%
%ADD17RoundRect,0.237500X0.237500X-0.300000X0.237500X0.300000X-0.237500X0.300000X-0.237500X-0.300000X0*%
G04 APERTURE END LIST*
D10*
X165050000Y-88210000D03*
D11*
X165050000Y-90750000D03*
X162510000Y-88210000D03*
X162510000Y-90750000D03*
X159970000Y-88210000D03*
X159970000Y-90750000D03*
X157430000Y-88210000D03*
X157430000Y-90750000D03*
X154890000Y-88210000D03*
X154890000Y-90750000D03*
D12*
X157137500Y-71075000D03*
X157137500Y-71725000D03*
X157137500Y-72375000D03*
X157137500Y-73025000D03*
X157137500Y-73675000D03*
X157137500Y-74325000D03*
X157137500Y-74975000D03*
X157137500Y-75625000D03*
X157137500Y-76275000D03*
X157137500Y-76925000D03*
X162862500Y-76925000D03*
X162862500Y-76275000D03*
X162862500Y-75625000D03*
X162862500Y-74975000D03*
X162862500Y-74325000D03*
X162862500Y-73675000D03*
X162862500Y-73025000D03*
X162862500Y-72375000D03*
X162862500Y-71725000D03*
X162862500Y-71075000D03*
D13*
X154500000Y-70412500D03*
X154500000Y-68587500D03*
D14*
X144087500Y-86000000D03*
X145912500Y-86000000D03*
X144087500Y-82000000D03*
X145912500Y-82000000D03*
X144087500Y-78000000D03*
X145912500Y-78000000D03*
X144087500Y-74000000D03*
X145912500Y-74000000D03*
X144087500Y-84000000D03*
X145912500Y-84000000D03*
X144087500Y-80000000D03*
X145912500Y-80000000D03*
X144087500Y-76000000D03*
X145912500Y-76000000D03*
X144087500Y-72000000D03*
X145912500Y-72000000D03*
D15*
X170000000Y-82587500D03*
X170000000Y-84412500D03*
X167500000Y-82587500D03*
X167500000Y-84412500D03*
X165000000Y-82587500D03*
X165000000Y-84412500D03*
X162500000Y-82587500D03*
X162500000Y-84412500D03*
X157500000Y-82587500D03*
X157500000Y-84412500D03*
X155000000Y-82587500D03*
X155000000Y-84412500D03*
X152500000Y-82587500D03*
X152500000Y-84412500D03*
X150000000Y-82587500D03*
X150000000Y-84412500D03*
D16*
X170000000Y-80100000D03*
X170000000Y-80900000D03*
X167500000Y-80100000D03*
X167500000Y-80900000D03*
X165000000Y-80100000D03*
X165000000Y-80900000D03*
X162500000Y-80100000D03*
X162500000Y-80900000D03*
X152500000Y-80100000D03*
X152500000Y-80900000D03*
X150000000Y-80100000D03*
X150000000Y-80900000D03*
D17*
X165500000Y-70362500D03*
X165500000Y-68637500D03*
X167500000Y-68637500D03*
X167500000Y-70362500D03*
D16*
X157500000Y-80100000D03*
X157500000Y-80900000D03*
X155000000Y-80100000D03*
X155000000Y-80900000D03*
M02*
