G04 #@! TF.GenerationSoftware,KiCad,Pcbnew,8.0.9-8.0.9-0~ubuntu24.04.1*
G04 #@! TF.CreationDate,2025-06-21T17:25:31+03:00*
G04 #@! TF.ProjectId,retrolight-main,72657472-6f6c-4696-9768-742d6d61696e,rev?*
G04 #@! TF.SameCoordinates,Original*
G04 #@! TF.FileFunction,Copper,L2,Bot*
G04 #@! TF.FilePolarity,Positive*
%FSLAX46Y46*%
G04 Gerber Fmt 4.6, Leading zero omitted, Abs format (unit mm)*
G04 Created by KiCad (PCBNEW 8.0.9-8.0.9-0~ubuntu24.04.1) date 2025-06-21 17:25:31*
%MOMM*%
%LPD*%
G01*
G04 APERTURE LIST*
G04 #@! TA.AperFunction,ComponentPad*
%ADD10R,1.700000X1.700000*%
G04 #@! TD*
G04 #@! TA.AperFunction,ComponentPad*
%ADD11O,1.700000X1.700000*%
G04 #@! TD*
G04 #@! TA.AperFunction,ViaPad*
%ADD12C,0.600000*%
G04 #@! TD*
G04 APERTURE END LIST*
D10*
X165050000Y-88210000D03*
D11*
X165050000Y-90750000D03*
X162510000Y-88210000D03*
X162510000Y-90750000D03*
X159970000Y-88210000D03*
X159970000Y-90750000D03*
X157430000Y-88210000D03*
X157430000Y-90750000D03*
X154890000Y-88210000D03*
X154890000Y-90750000D03*
D12*
X160000000Y-83000000D03*
X160000000Y-82000000D03*
X160000000Y-81000000D03*
X160000000Y-80000000D03*
X159500000Y-74500000D03*
X160500000Y-74500000D03*
X160500000Y-73500000D03*
X159500000Y-73500000D03*
X145000000Y-85000000D03*
X145000000Y-83000000D03*
X145000000Y-81000000D03*
X145000000Y-79000000D03*
X145000000Y-73000000D03*
X145000000Y-75000000D03*
X145000000Y-77000000D03*
G04 #@! TA.AperFunction,Conductor*
G36*
X179658691Y-67819407D02*
G01*
X179694655Y-67868907D01*
X179699500Y-67899500D01*
X179699500Y-92100500D01*
X179680593Y-92158691D01*
X179631093Y-92194655D01*
X179600500Y-92199500D01*
X140399500Y-92199500D01*
X140341309Y-92180593D01*
X140305345Y-92131093D01*
X140300500Y-92100500D01*
X140300500Y-90649999D01*
X153844767Y-90649999D01*
X153844768Y-90650000D01*
X154399157Y-90650000D01*
X154390000Y-90684174D01*
X154390000Y-90815826D01*
X154399157Y-90850000D01*
X153844767Y-90850000D01*
X153855190Y-90955831D01*
X153855191Y-90955836D01*
X153915232Y-91153762D01*
X153915234Y-91153767D01*
X154012724Y-91336160D01*
X154012731Y-91336170D01*
X154143940Y-91496050D01*
X154143949Y-91496059D01*
X154303829Y-91627268D01*
X154303839Y-91627275D01*
X154486232Y-91724765D01*
X154486237Y-91724767D01*
X154684166Y-91784808D01*
X154789998Y-91795231D01*
X154790000Y-91795230D01*
X154790000Y-91240842D01*
X154824174Y-91250000D01*
X154955826Y-91250000D01*
X154990000Y-91240842D01*
X154990000Y-91795230D01*
X154990001Y-91795231D01*
X155095833Y-91784808D01*
X155293762Y-91724767D01*
X155293767Y-91724765D01*
X155476160Y-91627275D01*
X155476170Y-91627268D01*
X155636050Y-91496059D01*
X155636059Y-91496050D01*
X155767268Y-91336170D01*
X155767275Y-91336160D01*
X155864765Y-91153767D01*
X155864767Y-91153762D01*
X155924808Y-90955836D01*
X155924809Y-90955831D01*
X155935232Y-90850000D01*
X155380843Y-90850000D01*
X155390000Y-90815826D01*
X155390000Y-90684174D01*
X155380843Y-90650000D01*
X155935232Y-90650000D01*
X155935232Y-90649999D01*
X156384767Y-90649999D01*
X156384768Y-90650000D01*
X156939157Y-90650000D01*
X156930000Y-90684174D01*
X156930000Y-90815826D01*
X156939157Y-90850000D01*
X156384767Y-90850000D01*
X156395190Y-90955831D01*
X156395191Y-90955836D01*
X156455232Y-91153762D01*
X156455234Y-91153767D01*
X156552724Y-91336160D01*
X156552731Y-91336170D01*
X156683940Y-91496050D01*
X156683949Y-91496059D01*
X156843829Y-91627268D01*
X156843839Y-91627275D01*
X157026232Y-91724765D01*
X157026237Y-91724767D01*
X157224166Y-91784808D01*
X157329998Y-91795231D01*
X157330000Y-91795230D01*
X157330000Y-91240842D01*
X157364174Y-91250000D01*
X157495826Y-91250000D01*
X157530000Y-91240842D01*
X157530000Y-91795230D01*
X157530001Y-91795231D01*
X157635833Y-91784808D01*
X157833762Y-91724767D01*
X157833767Y-91724765D01*
X158016160Y-91627275D01*
X158016170Y-91627268D01*
X158176050Y-91496059D01*
X158176059Y-91496050D01*
X158307268Y-91336170D01*
X158307275Y-91336160D01*
X158404765Y-91153767D01*
X158404767Y-91153762D01*
X158464808Y-90955836D01*
X158464809Y-90955831D01*
X158475232Y-90850000D01*
X157920843Y-90850000D01*
X157930000Y-90815826D01*
X157930000Y-90684174D01*
X157920843Y-90650000D01*
X158475232Y-90650000D01*
X158475232Y-90649999D01*
X158924767Y-90649999D01*
X158924768Y-90650000D01*
X159479157Y-90650000D01*
X159470000Y-90684174D01*
X159470000Y-90815826D01*
X159479157Y-90850000D01*
X158924767Y-90850000D01*
X158935190Y-90955831D01*
X158935191Y-90955836D01*
X158995232Y-91153762D01*
X158995234Y-91153767D01*
X159092724Y-91336160D01*
X159092731Y-91336170D01*
X159223940Y-91496050D01*
X159223949Y-91496059D01*
X159383829Y-91627268D01*
X159383839Y-91627275D01*
X159566232Y-91724765D01*
X159566237Y-91724767D01*
X159764166Y-91784808D01*
X159869998Y-91795231D01*
X159870000Y-91795230D01*
X159870000Y-91240842D01*
X159904174Y-91250000D01*
X160035826Y-91250000D01*
X160070000Y-91240842D01*
X160070000Y-91795230D01*
X160070001Y-91795231D01*
X160175833Y-91784808D01*
X160373762Y-91724767D01*
X160373767Y-91724765D01*
X160556160Y-91627275D01*
X160556170Y-91627268D01*
X160716050Y-91496059D01*
X160716059Y-91496050D01*
X160847268Y-91336170D01*
X160847275Y-91336160D01*
X160944765Y-91153767D01*
X160944767Y-91153762D01*
X161004808Y-90955836D01*
X161004809Y-90955831D01*
X161015232Y-90850000D01*
X160460843Y-90850000D01*
X160470000Y-90815826D01*
X160470000Y-90749996D01*
X161454417Y-90749996D01*
X161454417Y-90750003D01*
X161474698Y-90955929D01*
X161474699Y-90955934D01*
X161534768Y-91153954D01*
X161632316Y-91336452D01*
X161763302Y-91496059D01*
X161763590Y-91496410D01*
X161763595Y-91496414D01*
X161923547Y-91627683D01*
X161923548Y-91627683D01*
X161923550Y-91627685D01*
X162106046Y-91725232D01*
X162243997Y-91767078D01*
X162304065Y-91785300D01*
X162304070Y-91785301D01*
X162509997Y-91805583D01*
X162510000Y-91805583D01*
X162510003Y-91805583D01*
X162715929Y-91785301D01*
X162715934Y-91785300D01*
X162717556Y-91784808D01*
X162913954Y-91725232D01*
X163096450Y-91627685D01*
X163256410Y-91496410D01*
X163387685Y-91336450D01*
X163485232Y-91153954D01*
X163545300Y-90955934D01*
X163545301Y-90955929D01*
X163565583Y-90750003D01*
X163565583Y-90749996D01*
X163994417Y-90749996D01*
X163994417Y-90750003D01*
X164014698Y-90955929D01*
X164014699Y-90955934D01*
X164074768Y-91153954D01*
X164172316Y-91336452D01*
X164303302Y-91496059D01*
X164303590Y-91496410D01*
X164303595Y-91496414D01*
X164463547Y-91627683D01*
X164463548Y-91627683D01*
X164463550Y-91627685D01*
X164646046Y-91725232D01*
X164783997Y-91767078D01*
X164844065Y-91785300D01*
X164844070Y-91785301D01*
X165049997Y-91805583D01*
X165050000Y-91805583D01*
X165050003Y-91805583D01*
X165255929Y-91785301D01*
X165255934Y-91785300D01*
X165257556Y-91784808D01*
X165453954Y-91725232D01*
X165636450Y-91627685D01*
X165796410Y-91496410D01*
X165927685Y-91336450D01*
X166025232Y-91153954D01*
X166085300Y-90955934D01*
X166085301Y-90955929D01*
X166105583Y-90750003D01*
X166105583Y-90749996D01*
X166085301Y-90544070D01*
X166085300Y-90544065D01*
X166026401Y-90349901D01*
X166025232Y-90346046D01*
X165927685Y-90163550D01*
X165796410Y-90003590D01*
X165796404Y-90003585D01*
X165636452Y-89872316D01*
X165453954Y-89774768D01*
X165255934Y-89714699D01*
X165255929Y-89714698D01*
X165050003Y-89694417D01*
X165049997Y-89694417D01*
X164844070Y-89714698D01*
X164844065Y-89714699D01*
X164646045Y-89774768D01*
X164463547Y-89872316D01*
X164303595Y-90003585D01*
X164303585Y-90003595D01*
X164172316Y-90163547D01*
X164074768Y-90346045D01*
X164014699Y-90544065D01*
X164014698Y-90544070D01*
X163994417Y-90749996D01*
X163565583Y-90749996D01*
X163545301Y-90544070D01*
X163545300Y-90544065D01*
X163486401Y-90349901D01*
X163485232Y-90346046D01*
X163387685Y-90163550D01*
X163256410Y-90003590D01*
X163256404Y-90003585D01*
X163096452Y-89872316D01*
X162913954Y-89774768D01*
X162715934Y-89714699D01*
X162715929Y-89714698D01*
X162510003Y-89694417D01*
X162509997Y-89694417D01*
X162304070Y-89714698D01*
X162304065Y-89714699D01*
X162106045Y-89774768D01*
X161923547Y-89872316D01*
X161763595Y-90003585D01*
X161763585Y-90003595D01*
X161632316Y-90163547D01*
X161534768Y-90346045D01*
X161474699Y-90544065D01*
X161474698Y-90544070D01*
X161454417Y-90749996D01*
X160470000Y-90749996D01*
X160470000Y-90684174D01*
X160460843Y-90650000D01*
X161015232Y-90650000D01*
X161015232Y-90649999D01*
X161004809Y-90544168D01*
X161004808Y-90544163D01*
X160944767Y-90346237D01*
X160944765Y-90346232D01*
X160847275Y-90163839D01*
X160847268Y-90163829D01*
X160716059Y-90003949D01*
X160716050Y-90003940D01*
X160556170Y-89872731D01*
X160556160Y-89872724D01*
X160373767Y-89775234D01*
X160373762Y-89775232D01*
X160175836Y-89715191D01*
X160175831Y-89715190D01*
X160070000Y-89704767D01*
X160070000Y-90259157D01*
X160035826Y-90250000D01*
X159904174Y-90250000D01*
X159870000Y-90259157D01*
X159870000Y-89704767D01*
X159869999Y-89704767D01*
X159764168Y-89715190D01*
X159764163Y-89715191D01*
X159566237Y-89775232D01*
X159566232Y-89775234D01*
X159383839Y-89872724D01*
X159383829Y-89872731D01*
X159223949Y-90003940D01*
X159223940Y-90003949D01*
X159092731Y-90163829D01*
X159092724Y-90163839D01*
X158995234Y-90346232D01*
X158995232Y-90346237D01*
X158935191Y-90544163D01*
X158935190Y-90544168D01*
X158924767Y-90649999D01*
X158475232Y-90649999D01*
X158464809Y-90544168D01*
X158464808Y-90544163D01*
X158404767Y-90346237D01*
X158404765Y-90346232D01*
X158307275Y-90163839D01*
X158307268Y-90163829D01*
X158176059Y-90003949D01*
X158176050Y-90003940D01*
X158016170Y-89872731D01*
X158016160Y-89872724D01*
X157833767Y-89775234D01*
X157833762Y-89775232D01*
X157635836Y-89715191D01*
X157635831Y-89715190D01*
X157530000Y-89704767D01*
X157530000Y-90259157D01*
X157495826Y-90250000D01*
X157364174Y-90250000D01*
X157330000Y-90259157D01*
X157330000Y-89704767D01*
X157224168Y-89715190D01*
X157224163Y-89715191D01*
X157026237Y-89775232D01*
X157026232Y-89775234D01*
X156843839Y-89872724D01*
X156843829Y-89872731D01*
X156683949Y-90003940D01*
X156683940Y-90003949D01*
X156552731Y-90163829D01*
X156552724Y-90163839D01*
X156455234Y-90346232D01*
X156455232Y-90346237D01*
X156395191Y-90544163D01*
X156395190Y-90544168D01*
X156384767Y-90649999D01*
X155935232Y-90649999D01*
X155924809Y-90544168D01*
X155924808Y-90544163D01*
X155864767Y-90346237D01*
X155864765Y-90346232D01*
X155767275Y-90163839D01*
X155767268Y-90163829D01*
X155636059Y-90003949D01*
X155636050Y-90003940D01*
X155476170Y-89872731D01*
X155476160Y-89872724D01*
X155293767Y-89775234D01*
X155293762Y-89775232D01*
X155095836Y-89715191D01*
X155095831Y-89715190D01*
X154990000Y-89704767D01*
X154990000Y-90259157D01*
X154955826Y-90250000D01*
X154824174Y-90250000D01*
X154790000Y-90259157D01*
X154790000Y-89704767D01*
X154789999Y-89704767D01*
X154684168Y-89715190D01*
X154684163Y-89715191D01*
X154486237Y-89775232D01*
X154486232Y-89775234D01*
X154303839Y-89872724D01*
X154303829Y-89872731D01*
X154143949Y-90003940D01*
X154143940Y-90003949D01*
X154012731Y-90163829D01*
X154012724Y-90163839D01*
X153915234Y-90346232D01*
X153915232Y-90346237D01*
X153855191Y-90544163D01*
X153855190Y-90544168D01*
X153844767Y-90649999D01*
X140300500Y-90649999D01*
X140300500Y-88209996D01*
X153834417Y-88209996D01*
X153834417Y-88210003D01*
X153854698Y-88415929D01*
X153854699Y-88415934D01*
X153914768Y-88613954D01*
X154012316Y-88796452D01*
X154143585Y-88956404D01*
X154143590Y-88956410D01*
X154143595Y-88956414D01*
X154303547Y-89087683D01*
X154303548Y-89087683D01*
X154303550Y-89087685D01*
X154486046Y-89185232D01*
X154623997Y-89227078D01*
X154684065Y-89245300D01*
X154684070Y-89245301D01*
X154889997Y-89265583D01*
X154890000Y-89265583D01*
X154890003Y-89265583D01*
X155095929Y-89245301D01*
X155095934Y-89245300D01*
X155293954Y-89185232D01*
X155476450Y-89087685D01*
X155636410Y-88956410D01*
X155767685Y-88796450D01*
X155865232Y-88613954D01*
X155925300Y-88415934D01*
X155925301Y-88415929D01*
X155945583Y-88210003D01*
X155945583Y-88209996D01*
X156374417Y-88209996D01*
X156374417Y-88210003D01*
X156394698Y-88415929D01*
X156394699Y-88415934D01*
X156454768Y-88613954D01*
X156552316Y-88796452D01*
X156683585Y-88956404D01*
X156683590Y-88956410D01*
X156683595Y-88956414D01*
X156843547Y-89087683D01*
X156843548Y-89087683D01*
X156843550Y-89087685D01*
X157026046Y-89185232D01*
X157163997Y-89227078D01*
X157224065Y-89245300D01*
X157224070Y-89245301D01*
X157429997Y-89265583D01*
X157430000Y-89265583D01*
X157430003Y-89265583D01*
X157635929Y-89245301D01*
X157635934Y-89245300D01*
X157833954Y-89185232D01*
X158016450Y-89087685D01*
X158176410Y-88956410D01*
X158307685Y-88796450D01*
X158405232Y-88613954D01*
X158465300Y-88415934D01*
X158465301Y-88415929D01*
X158485583Y-88210003D01*
X158485583Y-88209996D01*
X158914417Y-88209996D01*
X158914417Y-88210003D01*
X158934698Y-88415929D01*
X158934699Y-88415934D01*
X158994768Y-88613954D01*
X159092316Y-88796452D01*
X159223585Y-88956404D01*
X159223590Y-88956410D01*
X159223595Y-88956414D01*
X159383547Y-89087683D01*
X159383548Y-89087683D01*
X159383550Y-89087685D01*
X159566046Y-89185232D01*
X159703997Y-89227078D01*
X159764065Y-89245300D01*
X159764070Y-89245301D01*
X159969997Y-89265583D01*
X159970000Y-89265583D01*
X159970003Y-89265583D01*
X160175929Y-89245301D01*
X160175934Y-89245300D01*
X160373954Y-89185232D01*
X160556450Y-89087685D01*
X160716410Y-88956410D01*
X160847685Y-88796450D01*
X160945232Y-88613954D01*
X161005300Y-88415934D01*
X161005301Y-88415929D01*
X161025583Y-88210003D01*
X161025583Y-88209996D01*
X161454417Y-88209996D01*
X161454417Y-88210003D01*
X161474698Y-88415929D01*
X161474699Y-88415934D01*
X161534768Y-88613954D01*
X161632316Y-88796452D01*
X161763585Y-88956404D01*
X161763590Y-88956410D01*
X161763595Y-88956414D01*
X161923547Y-89087683D01*
X161923548Y-89087683D01*
X161923550Y-89087685D01*
X162106046Y-89185232D01*
X162243997Y-89227078D01*
X162304065Y-89245300D01*
X162304070Y-89245301D01*
X162509997Y-89265583D01*
X162510000Y-89265583D01*
X162510003Y-89265583D01*
X162715929Y-89245301D01*
X162715934Y-89245300D01*
X162913954Y-89185232D01*
X163096450Y-89087685D01*
X163256410Y-88956410D01*
X163387685Y-88796450D01*
X163485232Y-88613954D01*
X163545300Y-88415934D01*
X163545301Y-88415929D01*
X163565583Y-88210003D01*
X163565583Y-88209996D01*
X163545301Y-88004070D01*
X163545300Y-88004065D01*
X163527078Y-87943997D01*
X163485232Y-87806046D01*
X163387685Y-87623550D01*
X163256410Y-87463590D01*
X163106123Y-87340253D01*
X163999500Y-87340253D01*
X163999500Y-89079746D01*
X163999501Y-89079758D01*
X164011132Y-89138227D01*
X164011134Y-89138233D01*
X164055445Y-89204548D01*
X164055448Y-89204552D01*
X164121769Y-89248867D01*
X164166231Y-89257711D01*
X164180241Y-89260498D01*
X164180246Y-89260498D01*
X164180252Y-89260500D01*
X164180253Y-89260500D01*
X165919747Y-89260500D01*
X165919748Y-89260500D01*
X165978231Y-89248867D01*
X166044552Y-89204552D01*
X166088867Y-89138231D01*
X166100500Y-89079748D01*
X166100500Y-87340252D01*
X166098921Y-87332316D01*
X166097711Y-87326231D01*
X166088867Y-87281769D01*
X166044552Y-87215448D01*
X166044548Y-87215445D01*
X165978233Y-87171134D01*
X165978231Y-87171133D01*
X165978228Y-87171132D01*
X165978227Y-87171132D01*
X165919758Y-87159501D01*
X165919748Y-87159500D01*
X164180252Y-87159500D01*
X164180251Y-87159500D01*
X164180241Y-87159501D01*
X164121772Y-87171132D01*
X164121766Y-87171134D01*
X164055451Y-87215445D01*
X164055445Y-87215451D01*
X164011134Y-87281766D01*
X164011132Y-87281772D01*
X163999501Y-87340241D01*
X163999500Y-87340253D01*
X163106123Y-87340253D01*
X163096452Y-87332316D01*
X162913954Y-87234768D01*
X162715934Y-87174699D01*
X162715929Y-87174698D01*
X162510003Y-87154417D01*
X162509997Y-87154417D01*
X162304070Y-87174698D01*
X162304065Y-87174699D01*
X162106045Y-87234768D01*
X161923547Y-87332316D01*
X161763595Y-87463585D01*
X161763585Y-87463595D01*
X161632316Y-87623547D01*
X161534768Y-87806045D01*
X161474699Y-88004065D01*
X161474698Y-88004070D01*
X161454417Y-88209996D01*
X161025583Y-88209996D01*
X161005301Y-88004070D01*
X161005300Y-88004065D01*
X160987078Y-87943997D01*
X160945232Y-87806046D01*
X160847685Y-87623550D01*
X160716410Y-87463590D01*
X160566123Y-87340253D01*
X160556452Y-87332316D01*
X160373954Y-87234768D01*
X160175934Y-87174699D01*
X160175929Y-87174698D01*
X159970003Y-87154417D01*
X159969997Y-87154417D01*
X159764070Y-87174698D01*
X159764065Y-87174699D01*
X159566045Y-87234768D01*
X159383547Y-87332316D01*
X159223595Y-87463585D01*
X159223585Y-87463595D01*
X159092316Y-87623547D01*
X158994768Y-87806045D01*
X158934699Y-88004065D01*
X158934698Y-88004070D01*
X158914417Y-88209996D01*
X158485583Y-88209996D01*
X158465301Y-88004070D01*
X158465300Y-88004065D01*
X158447078Y-87943997D01*
X158405232Y-87806046D01*
X158307685Y-87623550D01*
X158176410Y-87463590D01*
X158026123Y-87340253D01*
X158016452Y-87332316D01*
X157833954Y-87234768D01*
X157635934Y-87174699D01*
X157635929Y-87174698D01*
X157430003Y-87154417D01*
X157429997Y-87154417D01*
X157224070Y-87174698D01*
X157224065Y-87174699D01*
X157026045Y-87234768D01*
X156843547Y-87332316D01*
X156683595Y-87463585D01*
X156683585Y-87463595D01*
X156552316Y-87623547D01*
X156454768Y-87806045D01*
X156394699Y-88004065D01*
X156394698Y-88004070D01*
X156374417Y-88209996D01*
X155945583Y-88209996D01*
X155925301Y-88004070D01*
X155925300Y-88004065D01*
X155907078Y-87943997D01*
X155865232Y-87806046D01*
X155767685Y-87623550D01*
X155636410Y-87463590D01*
X155486123Y-87340253D01*
X155476452Y-87332316D01*
X155293954Y-87234768D01*
X155095934Y-87174699D01*
X155095929Y-87174698D01*
X154890003Y-87154417D01*
X154889997Y-87154417D01*
X154684070Y-87174698D01*
X154684065Y-87174699D01*
X154486045Y-87234768D01*
X154303547Y-87332316D01*
X154143595Y-87463585D01*
X154143585Y-87463595D01*
X154012316Y-87623547D01*
X153914768Y-87806045D01*
X153854699Y-88004065D01*
X153854698Y-88004070D01*
X153834417Y-88209996D01*
X140300500Y-88209996D01*
X140300500Y-67899500D01*
X140319407Y-67841309D01*
X140368907Y-67805345D01*
X140399500Y-67800500D01*
X159927525Y-67800500D01*
X179600500Y-67800500D01*
X179658691Y-67819407D01*
G37*
G04 #@! TD.AperFunction*
M02*
