M48
; DRILL file {KiCad 8.0.9-8.0.9-0~ubuntu24.04.1} date 2025-06-21T17:25:51+0300
; FORMAT={-:-/ absolute / metric / decimal}
; #@! TF.CreationDate,2025-06-21T17:25:51+03:00
; #@! TF.GenerationSoftware,Kicad,Pcbnew,8.0.9-8.0.9-0~ubuntu24.04.1
; #@! TF.FileFunction,Plated,1,2,PTH
FMAT,2
METRIC
; #@! TA.AperFunction,Plated,PTH,ViaDrill
T1C0.300
; #@! TA.AperFunction,Plated,PTH,ComponentDrill
T2C1.000
%
G90
G05
T1
X145.0Y-73.0
X145.0Y-75.0
X145.0Y-77.0
X145.0Y-79.0
X145.0Y-81.0
X145.0Y-83.0
X145.0Y-85.0
X159.5Y-73.5
X159.5Y-74.5
X160.0Y-80.0
X160.0Y-81.0
X160.0Y-82.0
X160.0Y-83.0
X160.5Y-73.5
X160.5Y-74.5
T2
X154.89Y-88.21
X154.89Y-90.75
X157.43Y-88.21
X157.43Y-90.75
X159.97Y-88.21
X159.97Y-90.75
X162.51Y-88.21
X162.51Y-90.75
X165.05Y-88.21
X165.05Y-90.75
M30
