G04 #@! TF.GenerationSoftware,KiCad,Pcbnew,10.0.3-10.0.3~ubuntu26.04.1*
G04 #@! TF.CreationDate,2026-06-11T16:57:46+03:00*
G04 #@! TF.ProjectId,retrolight-main,72657472-6f6c-4696-9768-742d6d61696e,B*
G04 #@! TF.SameCoordinates,Original*
G04 #@! TF.FileFunction,Soldermask,Top*
G04 #@! TF.FilePolarity,Negative*
%FSLAX46Y46*%
G04 Gerber Fmt 4.6, Leading zero omitted, Abs format (unit mm)*
G04 Created by KiCad (PCBNEW 10.0.3-10.0.3~ubuntu26.04.1) date 2026-06-11 16:57:46*
%MOMM*%
%LPD*%
G01*
G04 APERTURE LIST*
G04 APERTURE END LIST*
G36*
X125557576Y-96241129D02*
G01*
X125923325Y-96313881D01*
X126280181Y-96422133D01*
X126624709Y-96564841D01*
X126953590Y-96740631D01*
X127263657Y-96947811D01*
X127551924Y-97184386D01*
X127815614Y-97448076D01*
X128052189Y-97736343D01*
X128259369Y-98046410D01*
X128435159Y-98375291D01*
X128577867Y-98719819D01*
X128686119Y-99076675D01*
X128758871Y-99442424D01*
X128795423Y-99813543D01*
X128795423Y-100186457D01*
X128758871Y-100557576D01*
X128686119Y-100923325D01*
X128577867Y-101280181D01*
X128435159Y-101624709D01*
X128259369Y-101953590D01*
X128052189Y-102263657D01*
X127815614Y-102551924D01*
X127551924Y-102815614D01*
X127263657Y-103052189D01*
X126953590Y-103259369D01*
X126624709Y-103435159D01*
X126280181Y-103577867D01*
X125923325Y-103686119D01*
X125557576Y-103758871D01*
X125186457Y-103795423D01*
X124813543Y-103795423D01*
X124442424Y-103758871D01*
X124076675Y-103686119D01*
X123719819Y-103577867D01*
X123375291Y-103435159D01*
X123046410Y-103259369D01*
X122736343Y-103052189D01*
X122448076Y-102815614D01*
X122184386Y-102551924D01*
X121947811Y-102263657D01*
X121740631Y-101953590D01*
X121564841Y-101624709D01*
X121422133Y-101280181D01*
X121313881Y-100923325D01*
X121241129Y-100557576D01*
X121204577Y-100186457D01*
X121204577Y-99813543D01*
X121241129Y-99442424D01*
X121313881Y-99076675D01*
X121422133Y-98719819D01*
X121564841Y-98375291D01*
X121740631Y-98046410D01*
X121947811Y-97736343D01*
X122184386Y-97448076D01*
X122448076Y-97184386D01*
X122736343Y-96947811D01*
X123046410Y-96740631D01*
X123375291Y-96564841D01*
X123719819Y-96422133D01*
X124076675Y-96313881D01*
X124442424Y-96241129D01*
X124813543Y-96204577D01*
X125186457Y-96204577D01*
X125557576Y-96241129D01*
G37*
G36*
X160557576Y-96241129D02*
G01*
X160923325Y-96313881D01*
X161280181Y-96422133D01*
X161624709Y-96564841D01*
X161953590Y-96740631D01*
X162263657Y-96947811D01*
X162551924Y-97184386D01*
X162815614Y-97448076D01*
X163052189Y-97736343D01*
X163259369Y-98046410D01*
X163435159Y-98375291D01*
X163577867Y-98719819D01*
X163686119Y-99076675D01*
X163758871Y-99442424D01*
X163795423Y-99813543D01*
X163795423Y-100186457D01*
X163758871Y-100557576D01*
X163686119Y-100923325D01*
X163577867Y-101280181D01*
X163435159Y-101624709D01*
X163259369Y-101953590D01*
X163052189Y-102263657D01*
X162815614Y-102551924D01*
X162551924Y-102815614D01*
X162263657Y-103052189D01*
X161953590Y-103259369D01*
X161624709Y-103435159D01*
X161280181Y-103577867D01*
X160923325Y-103686119D01*
X160557576Y-103758871D01*
X160186457Y-103795423D01*
X159813543Y-103795423D01*
X159442424Y-103758871D01*
X159076675Y-103686119D01*
X158719819Y-103577867D01*
X158375291Y-103435159D01*
X158046410Y-103259369D01*
X157736343Y-103052189D01*
X157448076Y-102815614D01*
X157184386Y-102551924D01*
X156947811Y-102263657D01*
X156740631Y-101953590D01*
X156564841Y-101624709D01*
X156422133Y-101280181D01*
X156313881Y-100923325D01*
X156241129Y-100557576D01*
X156204577Y-100186457D01*
X156204577Y-99813543D01*
X156241129Y-99442424D01*
X156313881Y-99076675D01*
X156422133Y-98719819D01*
X156564841Y-98375291D01*
X156740631Y-98046410D01*
X156947811Y-97736343D01*
X157184386Y-97448076D01*
X157448076Y-97184386D01*
X157736343Y-96947811D01*
X158046410Y-96740631D01*
X158375291Y-96564841D01*
X158719819Y-96422133D01*
X159076675Y-96313881D01*
X159442424Y-96241129D01*
X159813543Y-96204577D01*
X160186457Y-96204577D01*
X160557576Y-96241129D01*
G37*
G36*
X137666742Y-100226601D02*
G01*
X137820687Y-100290367D01*
X137959234Y-100382941D01*
X138077059Y-100500766D01*
X138169633Y-100639313D01*
X138233399Y-100793258D01*
X138265907Y-100956685D01*
X138265907Y-101123315D01*
X138233399Y-101286742D01*
X138169633Y-101440687D01*
X138077059Y-101579234D01*
X137959234Y-101697059D01*
X137820687Y-101789633D01*
X137666742Y-101853399D01*
X137503315Y-101885907D01*
X137336685Y-101885907D01*
X137173258Y-101853399D01*
X137019313Y-101789633D01*
X136880766Y-101697059D01*
X136762941Y-101579234D01*
X136670367Y-101440687D01*
X136606601Y-101286742D01*
X136574093Y-101123315D01*
X136574093Y-100956685D01*
X136606601Y-100793258D01*
X136670367Y-100639313D01*
X136762941Y-100500766D01*
X136880766Y-100382941D01*
X137019313Y-100290367D01*
X137173258Y-100226601D01*
X137336685Y-100194093D01*
X137503315Y-100194093D01*
X137666742Y-100226601D01*
G37*
G36*
X140206742Y-100226601D02*
G01*
X140360687Y-100290367D01*
X140499234Y-100382941D01*
X140617059Y-100500766D01*
X140709633Y-100639313D01*
X140773399Y-100793258D01*
X140805907Y-100956685D01*
X140805907Y-101123315D01*
X140773399Y-101286742D01*
X140709633Y-101440687D01*
X140617059Y-101579234D01*
X140499234Y-101697059D01*
X140360687Y-101789633D01*
X140206742Y-101853399D01*
X140043315Y-101885907D01*
X139876685Y-101885907D01*
X139713258Y-101853399D01*
X139559313Y-101789633D01*
X139420766Y-101697059D01*
X139302941Y-101579234D01*
X139210367Y-101440687D01*
X139146601Y-101286742D01*
X139114093Y-101123315D01*
X139114093Y-100956685D01*
X139146601Y-100793258D01*
X139210367Y-100639313D01*
X139302941Y-100500766D01*
X139420766Y-100382941D01*
X139559313Y-100290367D01*
X139713258Y-100226601D01*
X139876685Y-100194093D01*
X140043315Y-100194093D01*
X140206742Y-100226601D01*
G37*
G36*
X142746742Y-100226601D02*
G01*
X142900687Y-100290367D01*
X143039234Y-100382941D01*
X143157059Y-100500766D01*
X143249633Y-100639313D01*
X143313399Y-100793258D01*
X143345907Y-100956685D01*
X143345907Y-101123315D01*
X143313399Y-101286742D01*
X143249633Y-101440687D01*
X143157059Y-101579234D01*
X143039234Y-101697059D01*
X142900687Y-101789633D01*
X142746742Y-101853399D01*
X142583315Y-101885907D01*
X142416685Y-101885907D01*
X142253258Y-101853399D01*
X142099313Y-101789633D01*
X141960766Y-101697059D01*
X141842941Y-101579234D01*
X141750367Y-101440687D01*
X141686601Y-101286742D01*
X141654093Y-101123315D01*
X141654093Y-100956685D01*
X141686601Y-100793258D01*
X141750367Y-100639313D01*
X141842941Y-100500766D01*
X141960766Y-100382941D01*
X142099313Y-100290367D01*
X142253258Y-100226601D01*
X142416685Y-100194093D01*
X142583315Y-100194093D01*
X142746742Y-100226601D01*
G37*
G36*
X145286742Y-100226601D02*
G01*
X145440687Y-100290367D01*
X145579234Y-100382941D01*
X145697059Y-100500766D01*
X145789633Y-100639313D01*
X145853399Y-100793258D01*
X145885907Y-100956685D01*
X145885907Y-101123315D01*
X145853399Y-101286742D01*
X145789633Y-101440687D01*
X145697059Y-101579234D01*
X145579234Y-101697059D01*
X145440687Y-101789633D01*
X145286742Y-101853399D01*
X145123315Y-101885907D01*
X144956685Y-101885907D01*
X144793258Y-101853399D01*
X144639313Y-101789633D01*
X144500766Y-101697059D01*
X144382941Y-101579234D01*
X144290367Y-101440687D01*
X144226601Y-101286742D01*
X144194093Y-101123315D01*
X144194093Y-100956685D01*
X144226601Y-100793258D01*
X144290367Y-100639313D01*
X144382941Y-100500766D01*
X144500766Y-100382941D01*
X144639313Y-100290367D01*
X144793258Y-100226601D01*
X144956685Y-100194093D01*
X145123315Y-100194093D01*
X145286742Y-100226601D01*
G37*
G36*
X147826742Y-100226601D02*
G01*
X147980687Y-100290367D01*
X148119234Y-100382941D01*
X148237059Y-100500766D01*
X148329633Y-100639313D01*
X148393399Y-100793258D01*
X148425907Y-100956685D01*
X148425907Y-101123315D01*
X148393399Y-101286742D01*
X148329633Y-101440687D01*
X148237059Y-101579234D01*
X148119234Y-101697059D01*
X147980687Y-101789633D01*
X147826742Y-101853399D01*
X147663315Y-101885907D01*
X147496685Y-101885907D01*
X147333258Y-101853399D01*
X147179313Y-101789633D01*
X147040766Y-101697059D01*
X146922941Y-101579234D01*
X146830367Y-101440687D01*
X146766601Y-101286742D01*
X146734093Y-101123315D01*
X146734093Y-100956685D01*
X146766601Y-100793258D01*
X146830367Y-100639313D01*
X146922941Y-100500766D01*
X147040766Y-100382941D01*
X147179313Y-100290367D01*
X147333258Y-100226601D01*
X147496685Y-100194093D01*
X147663315Y-100194093D01*
X147826742Y-100226601D01*
G37*
G36*
X148184116Y-97650818D02*
G01*
X148235379Y-97656766D01*
X148252892Y-97664499D01*
X148275671Y-97669030D01*
X148300057Y-97685324D01*
X148320788Y-97694478D01*
X148334946Y-97708636D01*
X148356777Y-97723223D01*
X148371363Y-97745053D01*
X148385521Y-97759211D01*
X148394673Y-97779939D01*
X148410970Y-97804329D01*
X148415501Y-97827109D01*
X148423233Y-97844620D01*
X148429178Y-97895872D01*
X148430000Y-97900000D01*
X148430000Y-99100000D01*
X148429178Y-99104128D01*
X148423233Y-99155379D01*
X148415501Y-99172888D01*
X148410970Y-99195671D01*
X148394672Y-99220062D01*
X148385521Y-99240788D01*
X148371365Y-99254943D01*
X148356777Y-99276777D01*
X148334943Y-99291365D01*
X148320788Y-99305521D01*
X148300062Y-99314672D01*
X148275671Y-99330970D01*
X148252888Y-99335501D01*
X148235379Y-99343233D01*
X148184129Y-99349178D01*
X148180000Y-99350000D01*
X146980000Y-99350000D01*
X146975873Y-99349179D01*
X146924620Y-99343233D01*
X146907109Y-99335501D01*
X146884329Y-99330970D01*
X146859939Y-99314673D01*
X146839211Y-99305521D01*
X146825053Y-99291363D01*
X146803223Y-99276777D01*
X146788636Y-99254946D01*
X146774478Y-99240788D01*
X146765324Y-99220057D01*
X146749030Y-99195671D01*
X146744499Y-99172892D01*
X146736766Y-99155379D01*
X146730818Y-99104117D01*
X146730000Y-99100000D01*
X146730000Y-97900000D01*
X146730818Y-97895885D01*
X146736766Y-97844620D01*
X146744499Y-97827105D01*
X146749030Y-97804329D01*
X146765323Y-97779944D01*
X146774478Y-97759211D01*
X146788638Y-97745050D01*
X146803223Y-97723223D01*
X146825050Y-97708638D01*
X146839211Y-97694478D01*
X146859944Y-97685323D01*
X146884329Y-97669030D01*
X146907105Y-97664499D01*
X146924620Y-97656766D01*
X146975884Y-97650818D01*
X146980000Y-97650000D01*
X148180000Y-97650000D01*
X148184116Y-97650818D01*
G37*
G36*
X137666742Y-97686601D02*
G01*
X137820687Y-97750367D01*
X137959234Y-97842941D01*
X138077059Y-97960766D01*
X138169633Y-98099313D01*
X138233399Y-98253258D01*
X138265907Y-98416685D01*
X138265907Y-98583315D01*
X138233399Y-98746742D01*
X138169633Y-98900687D01*
X138077059Y-99039234D01*
X137959234Y-99157059D01*
X137820687Y-99249633D01*
X137666742Y-99313399D01*
X137503315Y-99345907D01*
X137336685Y-99345907D01*
X137173258Y-99313399D01*
X137019313Y-99249633D01*
X136880766Y-99157059D01*
X136762941Y-99039234D01*
X136670367Y-98900687D01*
X136606601Y-98746742D01*
X136574093Y-98583315D01*
X136574093Y-98416685D01*
X136606601Y-98253258D01*
X136670367Y-98099313D01*
X136762941Y-97960766D01*
X136880766Y-97842941D01*
X137019313Y-97750367D01*
X137173258Y-97686601D01*
X137336685Y-97654093D01*
X137503315Y-97654093D01*
X137666742Y-97686601D01*
G37*
G36*
X140206742Y-97686601D02*
G01*
X140360687Y-97750367D01*
X140499234Y-97842941D01*
X140617059Y-97960766D01*
X140709633Y-98099313D01*
X140773399Y-98253258D01*
X140805907Y-98416685D01*
X140805907Y-98583315D01*
X140773399Y-98746742D01*
X140709633Y-98900687D01*
X140617059Y-99039234D01*
X140499234Y-99157059D01*
X140360687Y-99249633D01*
X140206742Y-99313399D01*
X140043315Y-99345907D01*
X139876685Y-99345907D01*
X139713258Y-99313399D01*
X139559313Y-99249633D01*
X139420766Y-99157059D01*
X139302941Y-99039234D01*
X139210367Y-98900687D01*
X139146601Y-98746742D01*
X139114093Y-98583315D01*
X139114093Y-98416685D01*
X139146601Y-98253258D01*
X139210367Y-98099313D01*
X139302941Y-97960766D01*
X139420766Y-97842941D01*
X139559313Y-97750367D01*
X139713258Y-97686601D01*
X139876685Y-97654093D01*
X140043315Y-97654093D01*
X140206742Y-97686601D01*
G37*
G36*
X142746742Y-97686601D02*
G01*
X142900687Y-97750367D01*
X143039234Y-97842941D01*
X143157059Y-97960766D01*
X143249633Y-98099313D01*
X143313399Y-98253258D01*
X143345907Y-98416685D01*
X143345907Y-98583315D01*
X143313399Y-98746742D01*
X143249633Y-98900687D01*
X143157059Y-99039234D01*
X143039234Y-99157059D01*
X142900687Y-99249633D01*
X142746742Y-99313399D01*
X142583315Y-99345907D01*
X142416685Y-99345907D01*
X142253258Y-99313399D01*
X142099313Y-99249633D01*
X141960766Y-99157059D01*
X141842941Y-99039234D01*
X141750367Y-98900687D01*
X141686601Y-98746742D01*
X141654093Y-98583315D01*
X141654093Y-98416685D01*
X141686601Y-98253258D01*
X141750367Y-98099313D01*
X141842941Y-97960766D01*
X141960766Y-97842941D01*
X142099313Y-97750367D01*
X142253258Y-97686601D01*
X142416685Y-97654093D01*
X142583315Y-97654093D01*
X142746742Y-97686601D01*
G37*
G36*
X145286742Y-97686601D02*
G01*
X145440687Y-97750367D01*
X145579234Y-97842941D01*
X145697059Y-97960766D01*
X145789633Y-98099313D01*
X145853399Y-98253258D01*
X145885907Y-98416685D01*
X145885907Y-98583315D01*
X145853399Y-98746742D01*
X145789633Y-98900687D01*
X145697059Y-99039234D01*
X145579234Y-99157059D01*
X145440687Y-99249633D01*
X145286742Y-99313399D01*
X145123315Y-99345907D01*
X144956685Y-99345907D01*
X144793258Y-99313399D01*
X144639313Y-99249633D01*
X144500766Y-99157059D01*
X144382941Y-99039234D01*
X144290367Y-98900687D01*
X144226601Y-98746742D01*
X144194093Y-98583315D01*
X144194093Y-98416685D01*
X144226601Y-98253258D01*
X144290367Y-98099313D01*
X144382941Y-97960766D01*
X144500766Y-97842941D01*
X144639313Y-97750367D01*
X144793258Y-97686601D01*
X144956685Y-97654093D01*
X145123315Y-97654093D01*
X145286742Y-97686601D01*
G37*
G36*
X156904116Y-91900818D02*
G01*
X156955379Y-91906766D01*
X156972892Y-91914499D01*
X156995671Y-91919030D01*
X157020057Y-91935324D01*
X157040788Y-91944478D01*
X157054946Y-91958636D01*
X157076777Y-91973223D01*
X157091363Y-91995053D01*
X157105521Y-92009211D01*
X157114673Y-92029939D01*
X157130970Y-92054329D01*
X157135501Y-92077109D01*
X157143233Y-92094620D01*
X157149178Y-92145872D01*
X157150000Y-92150000D01*
X157150000Y-94150000D01*
X157149178Y-94154128D01*
X157143233Y-94205379D01*
X157135501Y-94222888D01*
X157130970Y-94245671D01*
X157114672Y-94270062D01*
X157105521Y-94290788D01*
X157091365Y-94304943D01*
X157076777Y-94326777D01*
X157054943Y-94341365D01*
X157040788Y-94355521D01*
X157020062Y-94364672D01*
X156995671Y-94380970D01*
X156972888Y-94385501D01*
X156955379Y-94393233D01*
X156904129Y-94399178D01*
X156900000Y-94400000D01*
X155100000Y-94400000D01*
X155095873Y-94399179D01*
X155044620Y-94393233D01*
X155027109Y-94385501D01*
X155004329Y-94380970D01*
X154979939Y-94364673D01*
X154959211Y-94355521D01*
X154945053Y-94341363D01*
X154923223Y-94326777D01*
X154908636Y-94304946D01*
X154894478Y-94290788D01*
X154885324Y-94270057D01*
X154869030Y-94245671D01*
X154864499Y-94222892D01*
X154856766Y-94205379D01*
X154850818Y-94154117D01*
X154850000Y-94150000D01*
X154850000Y-92150000D01*
X154850818Y-92145885D01*
X154856766Y-92094620D01*
X154864499Y-92077105D01*
X154869030Y-92054329D01*
X154885323Y-92029944D01*
X154894478Y-92009211D01*
X154908638Y-91995050D01*
X154923223Y-91973223D01*
X154945050Y-91958638D01*
X154959211Y-91944478D01*
X154979944Y-91935323D01*
X155004329Y-91919030D01*
X155027105Y-91914499D01*
X155044620Y-91906766D01*
X155095884Y-91900818D01*
X155100000Y-91900000D01*
X156900000Y-91900000D01*
X156904116Y-91900818D01*
G37*
G36*
X140313268Y-93232612D02*
G01*
X140345711Y-93254289D01*
X140367388Y-93286732D01*
X140375000Y-93325000D01*
X140375000Y-93525000D01*
X140367388Y-93563268D01*
X140345711Y-93595711D01*
X140313268Y-93617388D01*
X140275000Y-93625000D01*
X139000000Y-93625000D01*
X138961732Y-93617388D01*
X138929289Y-93595711D01*
X138907612Y-93563268D01*
X138900000Y-93525000D01*
X138900000Y-93325000D01*
X138907612Y-93286732D01*
X138929289Y-93254289D01*
X138961732Y-93232612D01*
X139000000Y-93225000D01*
X140275000Y-93225000D01*
X140313268Y-93232612D01*
G37*
G36*
X146038268Y-93232612D02*
G01*
X146070711Y-93254289D01*
X146092388Y-93286732D01*
X146100000Y-93325000D01*
X146100000Y-93525000D01*
X146092388Y-93563268D01*
X146070711Y-93595711D01*
X146038268Y-93617388D01*
X146000000Y-93625000D01*
X144725000Y-93625000D01*
X144686732Y-93617388D01*
X144654289Y-93595711D01*
X144632612Y-93563268D01*
X144625000Y-93525000D01*
X144625000Y-93325000D01*
X144632612Y-93286732D01*
X144654289Y-93254289D01*
X144686732Y-93232612D01*
X144725000Y-93225000D01*
X146000000Y-93225000D01*
X146038268Y-93232612D01*
G37*
G36*
X128841615Y-92025818D02*
G01*
X128890017Y-92031434D01*
X128906555Y-92038736D01*
X128928387Y-92043079D01*
X128951759Y-92058695D01*
X128971224Y-92067290D01*
X128984517Y-92080583D01*
X129005438Y-92094562D01*
X129019416Y-92115482D01*
X129032709Y-92128775D01*
X129041302Y-92148238D01*
X129056921Y-92171613D01*
X129061264Y-92193446D01*
X129068565Y-92209982D01*
X129074178Y-92258372D01*
X129075000Y-92262500D01*
X129075000Y-92737500D01*
X129074178Y-92741627D01*
X129068565Y-92790017D01*
X129061264Y-92806551D01*
X129056921Y-92828387D01*
X129041301Y-92851763D01*
X129032709Y-92871224D01*
X129019418Y-92884514D01*
X129005438Y-92905438D01*
X128984514Y-92919418D01*
X128971224Y-92932709D01*
X128951763Y-92941301D01*
X128928387Y-92956921D01*
X128906551Y-92961264D01*
X128890017Y-92968565D01*
X128841629Y-92974178D01*
X128837500Y-92975000D01*
X128337500Y-92975000D01*
X128333373Y-92974179D01*
X128284982Y-92968565D01*
X128268446Y-92961264D01*
X128246613Y-92956921D01*
X128223238Y-92941302D01*
X128203775Y-92932709D01*
X128190482Y-92919416D01*
X128169562Y-92905438D01*
X128155583Y-92884517D01*
X128142290Y-92871224D01*
X128133695Y-92851759D01*
X128118079Y-92828387D01*
X128113736Y-92806555D01*
X128106434Y-92790017D01*
X128100818Y-92741616D01*
X128100000Y-92737500D01*
X128100000Y-92262500D01*
X128100818Y-92258385D01*
X128106434Y-92209982D01*
X128113736Y-92193442D01*
X128118079Y-92171613D01*
X128133694Y-92148242D01*
X128142290Y-92128775D01*
X128155585Y-92115479D01*
X128169562Y-92094562D01*
X128190479Y-92080585D01*
X128203775Y-92067290D01*
X128223242Y-92058694D01*
X128246613Y-92043079D01*
X128268442Y-92038736D01*
X128284982Y-92031434D01*
X128333384Y-92025818D01*
X128337500Y-92025000D01*
X128837500Y-92025000D01*
X128841615Y-92025818D01*
G37*
G36*
X130666615Y-92025818D02*
G01*
X130715017Y-92031434D01*
X130731555Y-92038736D01*
X130753387Y-92043079D01*
X130776759Y-92058695D01*
X130796224Y-92067290D01*
X130809517Y-92080583D01*
X130830438Y-92094562D01*
X130844416Y-92115482D01*
X130857709Y-92128775D01*
X130866302Y-92148238D01*
X130881921Y-92171613D01*
X130886264Y-92193446D01*
X130893565Y-92209982D01*
X130899178Y-92258372D01*
X130900000Y-92262500D01*
X130900000Y-92737500D01*
X130899178Y-92741627D01*
X130893565Y-92790017D01*
X130886264Y-92806551D01*
X130881921Y-92828387D01*
X130866301Y-92851763D01*
X130857709Y-92871224D01*
X130844418Y-92884514D01*
X130830438Y-92905438D01*
X130809514Y-92919418D01*
X130796224Y-92932709D01*
X130776763Y-92941301D01*
X130753387Y-92956921D01*
X130731551Y-92961264D01*
X130715017Y-92968565D01*
X130666629Y-92974178D01*
X130662500Y-92975000D01*
X130162500Y-92975000D01*
X130158373Y-92974179D01*
X130109982Y-92968565D01*
X130093446Y-92961264D01*
X130071613Y-92956921D01*
X130048238Y-92941302D01*
X130028775Y-92932709D01*
X130015482Y-92919416D01*
X129994562Y-92905438D01*
X129980583Y-92884517D01*
X129967290Y-92871224D01*
X129958695Y-92851759D01*
X129943079Y-92828387D01*
X129938736Y-92806555D01*
X129931434Y-92790017D01*
X129925818Y-92741616D01*
X129925000Y-92737500D01*
X129925000Y-92262500D01*
X129925818Y-92258385D01*
X129931434Y-92209982D01*
X129938736Y-92193442D01*
X129943079Y-92171613D01*
X129958694Y-92148242D01*
X129967290Y-92128775D01*
X129980585Y-92115479D01*
X129994562Y-92094562D01*
X130015479Y-92080585D01*
X130028775Y-92067290D01*
X130048242Y-92058694D01*
X130071613Y-92043079D01*
X130093442Y-92038736D01*
X130109982Y-92031434D01*
X130158384Y-92025818D01*
X130162500Y-92025000D01*
X130662500Y-92025000D01*
X130666615Y-92025818D01*
G37*
G36*
X132841615Y-92025818D02*
G01*
X132890017Y-92031434D01*
X132906555Y-92038736D01*
X132928387Y-92043079D01*
X132951759Y-92058695D01*
X132971224Y-92067290D01*
X132984517Y-92080583D01*
X133005438Y-92094562D01*
X133019416Y-92115482D01*
X133032709Y-92128775D01*
X133041302Y-92148238D01*
X133056921Y-92171613D01*
X133061264Y-92193446D01*
X133068565Y-92209982D01*
X133074178Y-92258372D01*
X133075000Y-92262500D01*
X133075000Y-92737500D01*
X133074178Y-92741627D01*
X133068565Y-92790017D01*
X133061264Y-92806551D01*
X133056921Y-92828387D01*
X133041301Y-92851763D01*
X133032709Y-92871224D01*
X133019418Y-92884514D01*
X133005438Y-92905438D01*
X132984514Y-92919418D01*
X132971224Y-92932709D01*
X132951763Y-92941301D01*
X132928387Y-92956921D01*
X132906551Y-92961264D01*
X132890017Y-92968565D01*
X132841629Y-92974178D01*
X132837500Y-92975000D01*
X132337500Y-92975000D01*
X132333373Y-92974179D01*
X132284982Y-92968565D01*
X132268446Y-92961264D01*
X132246613Y-92956921D01*
X132223238Y-92941302D01*
X132203775Y-92932709D01*
X132190482Y-92919416D01*
X132169562Y-92905438D01*
X132155583Y-92884517D01*
X132142290Y-92871224D01*
X132133695Y-92851759D01*
X132118079Y-92828387D01*
X132113736Y-92806555D01*
X132106434Y-92790017D01*
X132100818Y-92741616D01*
X132100000Y-92737500D01*
X132100000Y-92262500D01*
X132100818Y-92258385D01*
X132106434Y-92209982D01*
X132113736Y-92193442D01*
X132118079Y-92171613D01*
X132133694Y-92148242D01*
X132142290Y-92128775D01*
X132155585Y-92115479D01*
X132169562Y-92094562D01*
X132190479Y-92080585D01*
X132203775Y-92067290D01*
X132223242Y-92058694D01*
X132246613Y-92043079D01*
X132268442Y-92038736D01*
X132284982Y-92031434D01*
X132333384Y-92025818D01*
X132337500Y-92025000D01*
X132837500Y-92025000D01*
X132841615Y-92025818D01*
G37*
G36*
X134666615Y-92025818D02*
G01*
X134715017Y-92031434D01*
X134731555Y-92038736D01*
X134753387Y-92043079D01*
X134776759Y-92058695D01*
X134796224Y-92067290D01*
X134809517Y-92080583D01*
X134830438Y-92094562D01*
X134844416Y-92115482D01*
X134857709Y-92128775D01*
X134866302Y-92148238D01*
X134881921Y-92171613D01*
X134886264Y-92193446D01*
X134893565Y-92209982D01*
X134899178Y-92258372D01*
X134900000Y-92262500D01*
X134900000Y-92737500D01*
X134899178Y-92741627D01*
X134893565Y-92790017D01*
X134886264Y-92806551D01*
X134881921Y-92828387D01*
X134866301Y-92851763D01*
X134857709Y-92871224D01*
X134844418Y-92884514D01*
X134830438Y-92905438D01*
X134809514Y-92919418D01*
X134796224Y-92932709D01*
X134776763Y-92941301D01*
X134753387Y-92956921D01*
X134731551Y-92961264D01*
X134715017Y-92968565D01*
X134666629Y-92974178D01*
X134662500Y-92975000D01*
X134162500Y-92975000D01*
X134158373Y-92974179D01*
X134109982Y-92968565D01*
X134093446Y-92961264D01*
X134071613Y-92956921D01*
X134048238Y-92941302D01*
X134028775Y-92932709D01*
X134015482Y-92919416D01*
X133994562Y-92905438D01*
X133980583Y-92884517D01*
X133967290Y-92871224D01*
X133958695Y-92851759D01*
X133943079Y-92828387D01*
X133938736Y-92806555D01*
X133931434Y-92790017D01*
X133925818Y-92741616D01*
X133925000Y-92737500D01*
X133925000Y-92262500D01*
X133925818Y-92258385D01*
X133931434Y-92209982D01*
X133938736Y-92193442D01*
X133943079Y-92171613D01*
X133958694Y-92148242D01*
X133967290Y-92128775D01*
X133980585Y-92115479D01*
X133994562Y-92094562D01*
X134015479Y-92080585D01*
X134028775Y-92067290D01*
X134048242Y-92058694D01*
X134071613Y-92043079D01*
X134093442Y-92038736D01*
X134109982Y-92031434D01*
X134158384Y-92025818D01*
X134162500Y-92025000D01*
X134662500Y-92025000D01*
X134666615Y-92025818D01*
G37*
G36*
X140313268Y-92582612D02*
G01*
X140345711Y-92604289D01*
X140367388Y-92636732D01*
X140375000Y-92675000D01*
X140375000Y-92875000D01*
X140367388Y-92913268D01*
X140345711Y-92945711D01*
X140313268Y-92967388D01*
X140275000Y-92975000D01*
X139000000Y-92975000D01*
X138961732Y-92967388D01*
X138929289Y-92945711D01*
X138907612Y-92913268D01*
X138900000Y-92875000D01*
X138900000Y-92675000D01*
X138907612Y-92636732D01*
X138929289Y-92604289D01*
X138961732Y-92582612D01*
X139000000Y-92575000D01*
X140275000Y-92575000D01*
X140313268Y-92582612D01*
G37*
G36*
X146038268Y-92582612D02*
G01*
X146070711Y-92604289D01*
X146092388Y-92636732D01*
X146100000Y-92675000D01*
X146100000Y-92875000D01*
X146092388Y-92913268D01*
X146070711Y-92945711D01*
X146038268Y-92967388D01*
X146000000Y-92975000D01*
X144725000Y-92975000D01*
X144686732Y-92967388D01*
X144654289Y-92945711D01*
X144632612Y-92913268D01*
X144625000Y-92875000D01*
X144625000Y-92675000D01*
X144632612Y-92636732D01*
X144654289Y-92604289D01*
X144686732Y-92582612D01*
X144725000Y-92575000D01*
X146000000Y-92575000D01*
X146038268Y-92582612D01*
G37*
G36*
X140313268Y-91932612D02*
G01*
X140345711Y-91954289D01*
X140367388Y-91986732D01*
X140375000Y-92025000D01*
X140375000Y-92225000D01*
X140367388Y-92263268D01*
X140345711Y-92295711D01*
X140313268Y-92317388D01*
X140275000Y-92325000D01*
X139000000Y-92325000D01*
X138961732Y-92317388D01*
X138929289Y-92295711D01*
X138907612Y-92263268D01*
X138900000Y-92225000D01*
X138900000Y-92025000D01*
X138907612Y-91986732D01*
X138929289Y-91954289D01*
X138961732Y-91932612D01*
X139000000Y-91925000D01*
X140275000Y-91925000D01*
X140313268Y-91932612D01*
G37*
G36*
X146038268Y-91932612D02*
G01*
X146070711Y-91954289D01*
X146092388Y-91986732D01*
X146100000Y-92025000D01*
X146100000Y-92225000D01*
X146092388Y-92263268D01*
X146070711Y-92295711D01*
X146038268Y-92317388D01*
X146000000Y-92325000D01*
X144725000Y-92325000D01*
X144686732Y-92317388D01*
X144654289Y-92295711D01*
X144632612Y-92263268D01*
X144625000Y-92225000D01*
X144625000Y-92025000D01*
X144632612Y-91986732D01*
X144654289Y-91954289D01*
X144686732Y-91932612D01*
X144725000Y-91925000D01*
X146000000Y-91925000D01*
X146038268Y-91932612D01*
G37*
G36*
X140313268Y-91282612D02*
G01*
X140345711Y-91304289D01*
X140367388Y-91336732D01*
X140375000Y-91375000D01*
X140375000Y-91575000D01*
X140367388Y-91613268D01*
X140345711Y-91645711D01*
X140313268Y-91667388D01*
X140275000Y-91675000D01*
X139000000Y-91675000D01*
X138961732Y-91667388D01*
X138929289Y-91645711D01*
X138907612Y-91613268D01*
X138900000Y-91575000D01*
X138900000Y-91375000D01*
X138907612Y-91336732D01*
X138929289Y-91304289D01*
X138961732Y-91282612D01*
X139000000Y-91275000D01*
X140275000Y-91275000D01*
X140313268Y-91282612D01*
G37*
G36*
X146038268Y-91282612D02*
G01*
X146070711Y-91304289D01*
X146092388Y-91336732D01*
X146100000Y-91375000D01*
X146100000Y-91575000D01*
X146092388Y-91613268D01*
X146070711Y-91645711D01*
X146038268Y-91667388D01*
X146000000Y-91675000D01*
X144725000Y-91675000D01*
X144686732Y-91667388D01*
X144654289Y-91645711D01*
X144632612Y-91613268D01*
X144625000Y-91575000D01*
X144625000Y-91375000D01*
X144632612Y-91336732D01*
X144654289Y-91304289D01*
X144686732Y-91282612D01*
X144725000Y-91275000D01*
X146000000Y-91275000D01*
X146038268Y-91282612D01*
G37*
G36*
X140313268Y-90632612D02*
G01*
X140345711Y-90654289D01*
X140367388Y-90686732D01*
X140375000Y-90725000D01*
X140375000Y-90925000D01*
X140367388Y-90963268D01*
X140345711Y-90995711D01*
X140313268Y-91017388D01*
X140275000Y-91025000D01*
X139000000Y-91025000D01*
X138961732Y-91017388D01*
X138929289Y-90995711D01*
X138907612Y-90963268D01*
X138900000Y-90925000D01*
X138900000Y-90725000D01*
X138907612Y-90686732D01*
X138929289Y-90654289D01*
X138961732Y-90632612D01*
X139000000Y-90625000D01*
X140275000Y-90625000D01*
X140313268Y-90632612D01*
G37*
G36*
X146038268Y-90632612D02*
G01*
X146070711Y-90654289D01*
X146092388Y-90686732D01*
X146100000Y-90725000D01*
X146100000Y-90925000D01*
X146092388Y-90963268D01*
X146070711Y-90995711D01*
X146038268Y-91017388D01*
X146000000Y-91025000D01*
X144725000Y-91025000D01*
X144686732Y-91017388D01*
X144654289Y-90995711D01*
X144632612Y-90963268D01*
X144625000Y-90925000D01*
X144625000Y-90725000D01*
X144632612Y-90686732D01*
X144654289Y-90654289D01*
X144686732Y-90632612D01*
X144725000Y-90625000D01*
X146000000Y-90625000D01*
X146038268Y-90632612D01*
G37*
G36*
X128841615Y-90025818D02*
G01*
X128890017Y-90031434D01*
X128906555Y-90038736D01*
X128928387Y-90043079D01*
X128951759Y-90058695D01*
X128971224Y-90067290D01*
X128984517Y-90080583D01*
X129005438Y-90094562D01*
X129019416Y-90115482D01*
X129032709Y-90128775D01*
X129041302Y-90148238D01*
X129056921Y-90171613D01*
X129061264Y-90193446D01*
X129068565Y-90209982D01*
X129074178Y-90258372D01*
X129075000Y-90262500D01*
X129075000Y-90737500D01*
X129074178Y-90741627D01*
X129068565Y-90790017D01*
X129061264Y-90806551D01*
X129056921Y-90828387D01*
X129041301Y-90851763D01*
X129032709Y-90871224D01*
X129019418Y-90884514D01*
X129005438Y-90905438D01*
X128984514Y-90919418D01*
X128971224Y-90932709D01*
X128951763Y-90941301D01*
X128928387Y-90956921D01*
X128906551Y-90961264D01*
X128890017Y-90968565D01*
X128841629Y-90974178D01*
X128837500Y-90975000D01*
X128337500Y-90975000D01*
X128333373Y-90974179D01*
X128284982Y-90968565D01*
X128268446Y-90961264D01*
X128246613Y-90956921D01*
X128223238Y-90941302D01*
X128203775Y-90932709D01*
X128190482Y-90919416D01*
X128169562Y-90905438D01*
X128155583Y-90884517D01*
X128142290Y-90871224D01*
X128133695Y-90851759D01*
X128118079Y-90828387D01*
X128113736Y-90806555D01*
X128106434Y-90790017D01*
X128100818Y-90741616D01*
X128100000Y-90737500D01*
X128100000Y-90262500D01*
X128100818Y-90258385D01*
X128106434Y-90209982D01*
X128113736Y-90193442D01*
X128118079Y-90171613D01*
X128133694Y-90148242D01*
X128142290Y-90128775D01*
X128155585Y-90115479D01*
X128169562Y-90094562D01*
X128190479Y-90080585D01*
X128203775Y-90067290D01*
X128223242Y-90058694D01*
X128246613Y-90043079D01*
X128268442Y-90038736D01*
X128284982Y-90031434D01*
X128333384Y-90025818D01*
X128337500Y-90025000D01*
X128837500Y-90025000D01*
X128841615Y-90025818D01*
G37*
G36*
X130666615Y-90025818D02*
G01*
X130715017Y-90031434D01*
X130731555Y-90038736D01*
X130753387Y-90043079D01*
X130776759Y-90058695D01*
X130796224Y-90067290D01*
X130809517Y-90080583D01*
X130830438Y-90094562D01*
X130844416Y-90115482D01*
X130857709Y-90128775D01*
X130866302Y-90148238D01*
X130881921Y-90171613D01*
X130886264Y-90193446D01*
X130893565Y-90209982D01*
X130899178Y-90258372D01*
X130900000Y-90262500D01*
X130900000Y-90737500D01*
X130899178Y-90741627D01*
X130893565Y-90790017D01*
X130886264Y-90806551D01*
X130881921Y-90828387D01*
X130866301Y-90851763D01*
X130857709Y-90871224D01*
X130844418Y-90884514D01*
X130830438Y-90905438D01*
X130809514Y-90919418D01*
X130796224Y-90932709D01*
X130776763Y-90941301D01*
X130753387Y-90956921D01*
X130731551Y-90961264D01*
X130715017Y-90968565D01*
X130666629Y-90974178D01*
X130662500Y-90975000D01*
X130162500Y-90975000D01*
X130158373Y-90974179D01*
X130109982Y-90968565D01*
X130093446Y-90961264D01*
X130071613Y-90956921D01*
X130048238Y-90941302D01*
X130028775Y-90932709D01*
X130015482Y-90919416D01*
X129994562Y-90905438D01*
X129980583Y-90884517D01*
X129967290Y-90871224D01*
X129958695Y-90851759D01*
X129943079Y-90828387D01*
X129938736Y-90806555D01*
X129931434Y-90790017D01*
X129925818Y-90741616D01*
X129925000Y-90737500D01*
X129925000Y-90262500D01*
X129925818Y-90258385D01*
X129931434Y-90209982D01*
X129938736Y-90193442D01*
X129943079Y-90171613D01*
X129958694Y-90148242D01*
X129967290Y-90128775D01*
X129980585Y-90115479D01*
X129994562Y-90094562D01*
X130015479Y-90080585D01*
X130028775Y-90067290D01*
X130048242Y-90058694D01*
X130071613Y-90043079D01*
X130093442Y-90038736D01*
X130109982Y-90031434D01*
X130158384Y-90025818D01*
X130162500Y-90025000D01*
X130662500Y-90025000D01*
X130666615Y-90025818D01*
G37*
G36*
X132841615Y-90025818D02*
G01*
X132890017Y-90031434D01*
X132906555Y-90038736D01*
X132928387Y-90043079D01*
X132951759Y-90058695D01*
X132971224Y-90067290D01*
X132984517Y-90080583D01*
X133005438Y-90094562D01*
X133019416Y-90115482D01*
X133032709Y-90128775D01*
X133041302Y-90148238D01*
X133056921Y-90171613D01*
X133061264Y-90193446D01*
X133068565Y-90209982D01*
X133074178Y-90258372D01*
X133075000Y-90262500D01*
X133075000Y-90737500D01*
X133074178Y-90741627D01*
X133068565Y-90790017D01*
X133061264Y-90806551D01*
X133056921Y-90828387D01*
X133041301Y-90851763D01*
X133032709Y-90871224D01*
X133019418Y-90884514D01*
X133005438Y-90905438D01*
X132984514Y-90919418D01*
X132971224Y-90932709D01*
X132951763Y-90941301D01*
X132928387Y-90956921D01*
X132906551Y-90961264D01*
X132890017Y-90968565D01*
X132841629Y-90974178D01*
X132837500Y-90975000D01*
X132337500Y-90975000D01*
X132333373Y-90974179D01*
X132284982Y-90968565D01*
X132268446Y-90961264D01*
X132246613Y-90956921D01*
X132223238Y-90941302D01*
X132203775Y-90932709D01*
X132190482Y-90919416D01*
X132169562Y-90905438D01*
X132155583Y-90884517D01*
X132142290Y-90871224D01*
X132133695Y-90851759D01*
X132118079Y-90828387D01*
X132113736Y-90806555D01*
X132106434Y-90790017D01*
X132100818Y-90741616D01*
X132100000Y-90737500D01*
X132100000Y-90262500D01*
X132100818Y-90258385D01*
X132106434Y-90209982D01*
X132113736Y-90193442D01*
X132118079Y-90171613D01*
X132133694Y-90148242D01*
X132142290Y-90128775D01*
X132155585Y-90115479D01*
X132169562Y-90094562D01*
X132190479Y-90080585D01*
X132203775Y-90067290D01*
X132223242Y-90058694D01*
X132246613Y-90043079D01*
X132268442Y-90038736D01*
X132284982Y-90031434D01*
X132333384Y-90025818D01*
X132337500Y-90025000D01*
X132837500Y-90025000D01*
X132841615Y-90025818D01*
G37*
G36*
X134666615Y-90025818D02*
G01*
X134715017Y-90031434D01*
X134731555Y-90038736D01*
X134753387Y-90043079D01*
X134776759Y-90058695D01*
X134796224Y-90067290D01*
X134809517Y-90080583D01*
X134830438Y-90094562D01*
X134844416Y-90115482D01*
X134857709Y-90128775D01*
X134866302Y-90148238D01*
X134881921Y-90171613D01*
X134886264Y-90193446D01*
X134893565Y-90209982D01*
X134899178Y-90258372D01*
X134900000Y-90262500D01*
X134900000Y-90737500D01*
X134899178Y-90741627D01*
X134893565Y-90790017D01*
X134886264Y-90806551D01*
X134881921Y-90828387D01*
X134866301Y-90851763D01*
X134857709Y-90871224D01*
X134844418Y-90884514D01*
X134830438Y-90905438D01*
X134809514Y-90919418D01*
X134796224Y-90932709D01*
X134776763Y-90941301D01*
X134753387Y-90956921D01*
X134731551Y-90961264D01*
X134715017Y-90968565D01*
X134666629Y-90974178D01*
X134662500Y-90975000D01*
X134162500Y-90975000D01*
X134158373Y-90974179D01*
X134109982Y-90968565D01*
X134093446Y-90961264D01*
X134071613Y-90956921D01*
X134048238Y-90941302D01*
X134028775Y-90932709D01*
X134015482Y-90919416D01*
X133994562Y-90905438D01*
X133980583Y-90884517D01*
X133967290Y-90871224D01*
X133958695Y-90851759D01*
X133943079Y-90828387D01*
X133938736Y-90806555D01*
X133931434Y-90790017D01*
X133925818Y-90741616D01*
X133925000Y-90737500D01*
X133925000Y-90262500D01*
X133925818Y-90258385D01*
X133931434Y-90209982D01*
X133938736Y-90193442D01*
X133943079Y-90171613D01*
X133958694Y-90148242D01*
X133967290Y-90128775D01*
X133980585Y-90115479D01*
X133994562Y-90094562D01*
X134015479Y-90080585D01*
X134028775Y-90067290D01*
X134048242Y-90058694D01*
X134071613Y-90043079D01*
X134093442Y-90038736D01*
X134109982Y-90031434D01*
X134158384Y-90025818D01*
X134162500Y-90025000D01*
X134662500Y-90025000D01*
X134666615Y-90025818D01*
G37*
G36*
X140313268Y-89982612D02*
G01*
X140345711Y-90004289D01*
X140367388Y-90036732D01*
X140375000Y-90075000D01*
X140375000Y-90275000D01*
X140367388Y-90313268D01*
X140345711Y-90345711D01*
X140313268Y-90367388D01*
X140275000Y-90375000D01*
X139000000Y-90375000D01*
X138961732Y-90367388D01*
X138929289Y-90345711D01*
X138907612Y-90313268D01*
X138900000Y-90275000D01*
X138900000Y-90075000D01*
X138907612Y-90036732D01*
X138929289Y-90004289D01*
X138961732Y-89982612D01*
X139000000Y-89975000D01*
X140275000Y-89975000D01*
X140313268Y-89982612D01*
G37*
G36*
X146038268Y-89982612D02*
G01*
X146070711Y-90004289D01*
X146092388Y-90036732D01*
X146100000Y-90075000D01*
X146100000Y-90275000D01*
X146092388Y-90313268D01*
X146070711Y-90345711D01*
X146038268Y-90367388D01*
X146000000Y-90375000D01*
X144725000Y-90375000D01*
X144686732Y-90367388D01*
X144654289Y-90345711D01*
X144632612Y-90313268D01*
X144625000Y-90275000D01*
X144625000Y-90075000D01*
X144632612Y-90036732D01*
X144654289Y-90004289D01*
X144686732Y-89982612D01*
X144725000Y-89975000D01*
X146000000Y-89975000D01*
X146038268Y-89982612D01*
G37*
G36*
X156904116Y-87600818D02*
G01*
X156955379Y-87606766D01*
X156972892Y-87614499D01*
X156995671Y-87619030D01*
X157020057Y-87635324D01*
X157040788Y-87644478D01*
X157054946Y-87658636D01*
X157076777Y-87673223D01*
X157091363Y-87695053D01*
X157105521Y-87709211D01*
X157114673Y-87729939D01*
X157130970Y-87754329D01*
X157135501Y-87777109D01*
X157143233Y-87794620D01*
X157149178Y-87845872D01*
X157150000Y-87850000D01*
X157150000Y-89850000D01*
X157149178Y-89854128D01*
X157143233Y-89905379D01*
X157135501Y-89922888D01*
X157130970Y-89945671D01*
X157114672Y-89970062D01*
X157105521Y-89990788D01*
X157091365Y-90004943D01*
X157076777Y-90026777D01*
X157054943Y-90041365D01*
X157040788Y-90055521D01*
X157020062Y-90064672D01*
X156995671Y-90080970D01*
X156972888Y-90085501D01*
X156955379Y-90093233D01*
X156904129Y-90099178D01*
X156900000Y-90100000D01*
X155100000Y-90100000D01*
X155095873Y-90099179D01*
X155044620Y-90093233D01*
X155027109Y-90085501D01*
X155004329Y-90080970D01*
X154979939Y-90064673D01*
X154959211Y-90055521D01*
X154945053Y-90041363D01*
X154923223Y-90026777D01*
X154908636Y-90004946D01*
X154894478Y-89990788D01*
X154885324Y-89970057D01*
X154869030Y-89945671D01*
X154864499Y-89922892D01*
X154856766Y-89905379D01*
X154850818Y-89854117D01*
X154850000Y-89850000D01*
X154850000Y-87850000D01*
X154850818Y-87845885D01*
X154856766Y-87794620D01*
X154864499Y-87777105D01*
X154869030Y-87754329D01*
X154885323Y-87729944D01*
X154894478Y-87709211D01*
X154908638Y-87695050D01*
X154923223Y-87673223D01*
X154945050Y-87658638D01*
X154959211Y-87644478D01*
X154979944Y-87635323D01*
X155004329Y-87619030D01*
X155027105Y-87614499D01*
X155044620Y-87606766D01*
X155095884Y-87600818D01*
X155100000Y-87600000D01*
X156900000Y-87600000D01*
X156904116Y-87600818D01*
G37*
G36*
X140313268Y-89332612D02*
G01*
X140345711Y-89354289D01*
X140367388Y-89386732D01*
X140375000Y-89425000D01*
X140375000Y-89625000D01*
X140367388Y-89663268D01*
X140345711Y-89695711D01*
X140313268Y-89717388D01*
X140275000Y-89725000D01*
X139000000Y-89725000D01*
X138961732Y-89717388D01*
X138929289Y-89695711D01*
X138907612Y-89663268D01*
X138900000Y-89625000D01*
X138900000Y-89425000D01*
X138907612Y-89386732D01*
X138929289Y-89354289D01*
X138961732Y-89332612D01*
X139000000Y-89325000D01*
X140275000Y-89325000D01*
X140313268Y-89332612D01*
G37*
G36*
X146038268Y-89332612D02*
G01*
X146070711Y-89354289D01*
X146092388Y-89386732D01*
X146100000Y-89425000D01*
X146100000Y-89625000D01*
X146092388Y-89663268D01*
X146070711Y-89695711D01*
X146038268Y-89717388D01*
X146000000Y-89725000D01*
X144725000Y-89725000D01*
X144686732Y-89717388D01*
X144654289Y-89695711D01*
X144632612Y-89663268D01*
X144625000Y-89625000D01*
X144625000Y-89425000D01*
X144632612Y-89386732D01*
X144654289Y-89354289D01*
X144686732Y-89332612D01*
X144725000Y-89325000D01*
X146000000Y-89325000D01*
X146038268Y-89332612D01*
G37*
G36*
X140313268Y-88682612D02*
G01*
X140345711Y-88704289D01*
X140367388Y-88736732D01*
X140375000Y-88775000D01*
X140375000Y-88975000D01*
X140367388Y-89013268D01*
X140345711Y-89045711D01*
X140313268Y-89067388D01*
X140275000Y-89075000D01*
X139000000Y-89075000D01*
X138961732Y-89067388D01*
X138929289Y-89045711D01*
X138907612Y-89013268D01*
X138900000Y-88975000D01*
X138900000Y-88775000D01*
X138907612Y-88736732D01*
X138929289Y-88704289D01*
X138961732Y-88682612D01*
X139000000Y-88675000D01*
X140275000Y-88675000D01*
X140313268Y-88682612D01*
G37*
G36*
X146038268Y-88682612D02*
G01*
X146070711Y-88704289D01*
X146092388Y-88736732D01*
X146100000Y-88775000D01*
X146100000Y-88975000D01*
X146092388Y-89013268D01*
X146070711Y-89045711D01*
X146038268Y-89067388D01*
X146000000Y-89075000D01*
X144725000Y-89075000D01*
X144686732Y-89067388D01*
X144654289Y-89045711D01*
X144632612Y-89013268D01*
X144625000Y-88975000D01*
X144625000Y-88775000D01*
X144632612Y-88736732D01*
X144654289Y-88704289D01*
X144686732Y-88682612D01*
X144725000Y-88675000D01*
X146000000Y-88675000D01*
X146038268Y-88682612D01*
G37*
G36*
X128841615Y-87525818D02*
G01*
X128890017Y-87531434D01*
X128906555Y-87538736D01*
X128928387Y-87543079D01*
X128951759Y-87558695D01*
X128971224Y-87567290D01*
X128984517Y-87580583D01*
X129005438Y-87594562D01*
X129019416Y-87615482D01*
X129032709Y-87628775D01*
X129041302Y-87648238D01*
X129056921Y-87671613D01*
X129061264Y-87693446D01*
X129068565Y-87709982D01*
X129074178Y-87758372D01*
X129075000Y-87762500D01*
X129075000Y-88237500D01*
X129074178Y-88241627D01*
X129068565Y-88290017D01*
X129061264Y-88306551D01*
X129056921Y-88328387D01*
X129041301Y-88351763D01*
X129032709Y-88371224D01*
X129019418Y-88384514D01*
X129005438Y-88405438D01*
X128984514Y-88419418D01*
X128971224Y-88432709D01*
X128951763Y-88441301D01*
X128928387Y-88456921D01*
X128906551Y-88461264D01*
X128890017Y-88468565D01*
X128841629Y-88474178D01*
X128837500Y-88475000D01*
X128337500Y-88475000D01*
X128333373Y-88474179D01*
X128284982Y-88468565D01*
X128268446Y-88461264D01*
X128246613Y-88456921D01*
X128223238Y-88441302D01*
X128203775Y-88432709D01*
X128190482Y-88419416D01*
X128169562Y-88405438D01*
X128155583Y-88384517D01*
X128142290Y-88371224D01*
X128133695Y-88351759D01*
X128118079Y-88328387D01*
X128113736Y-88306555D01*
X128106434Y-88290017D01*
X128100818Y-88241616D01*
X128100000Y-88237500D01*
X128100000Y-87762500D01*
X128100818Y-87758385D01*
X128106434Y-87709982D01*
X128113736Y-87693442D01*
X128118079Y-87671613D01*
X128133694Y-87648242D01*
X128142290Y-87628775D01*
X128155585Y-87615479D01*
X128169562Y-87594562D01*
X128190479Y-87580585D01*
X128203775Y-87567290D01*
X128223242Y-87558694D01*
X128246613Y-87543079D01*
X128268442Y-87538736D01*
X128284982Y-87531434D01*
X128333384Y-87525818D01*
X128337500Y-87525000D01*
X128837500Y-87525000D01*
X128841615Y-87525818D01*
G37*
G36*
X130666615Y-87525818D02*
G01*
X130715017Y-87531434D01*
X130731555Y-87538736D01*
X130753387Y-87543079D01*
X130776759Y-87558695D01*
X130796224Y-87567290D01*
X130809517Y-87580583D01*
X130830438Y-87594562D01*
X130844416Y-87615482D01*
X130857709Y-87628775D01*
X130866302Y-87648238D01*
X130881921Y-87671613D01*
X130886264Y-87693446D01*
X130893565Y-87709982D01*
X130899178Y-87758372D01*
X130900000Y-87762500D01*
X130900000Y-88237500D01*
X130899178Y-88241627D01*
X130893565Y-88290017D01*
X130886264Y-88306551D01*
X130881921Y-88328387D01*
X130866301Y-88351763D01*
X130857709Y-88371224D01*
X130844418Y-88384514D01*
X130830438Y-88405438D01*
X130809514Y-88419418D01*
X130796224Y-88432709D01*
X130776763Y-88441301D01*
X130753387Y-88456921D01*
X130731551Y-88461264D01*
X130715017Y-88468565D01*
X130666629Y-88474178D01*
X130662500Y-88475000D01*
X130162500Y-88475000D01*
X130158373Y-88474179D01*
X130109982Y-88468565D01*
X130093446Y-88461264D01*
X130071613Y-88456921D01*
X130048238Y-88441302D01*
X130028775Y-88432709D01*
X130015482Y-88419416D01*
X129994562Y-88405438D01*
X129980583Y-88384517D01*
X129967290Y-88371224D01*
X129958695Y-88351759D01*
X129943079Y-88328387D01*
X129938736Y-88306555D01*
X129931434Y-88290017D01*
X129925818Y-88241616D01*
X129925000Y-88237500D01*
X129925000Y-87762500D01*
X129925818Y-87758385D01*
X129931434Y-87709982D01*
X129938736Y-87693442D01*
X129943079Y-87671613D01*
X129958694Y-87648242D01*
X129967290Y-87628775D01*
X129980585Y-87615479D01*
X129994562Y-87594562D01*
X130015479Y-87580585D01*
X130028775Y-87567290D01*
X130048242Y-87558694D01*
X130071613Y-87543079D01*
X130093442Y-87538736D01*
X130109982Y-87531434D01*
X130158384Y-87525818D01*
X130162500Y-87525000D01*
X130662500Y-87525000D01*
X130666615Y-87525818D01*
G37*
G36*
X132841615Y-87525818D02*
G01*
X132890017Y-87531434D01*
X132906555Y-87538736D01*
X132928387Y-87543079D01*
X132951759Y-87558695D01*
X132971224Y-87567290D01*
X132984517Y-87580583D01*
X133005438Y-87594562D01*
X133019416Y-87615482D01*
X133032709Y-87628775D01*
X133041302Y-87648238D01*
X133056921Y-87671613D01*
X133061264Y-87693446D01*
X133068565Y-87709982D01*
X133074178Y-87758372D01*
X133075000Y-87762500D01*
X133075000Y-88237500D01*
X133074178Y-88241627D01*
X133068565Y-88290017D01*
X133061264Y-88306551D01*
X133056921Y-88328387D01*
X133041301Y-88351763D01*
X133032709Y-88371224D01*
X133019418Y-88384514D01*
X133005438Y-88405438D01*
X132984514Y-88419418D01*
X132971224Y-88432709D01*
X132951763Y-88441301D01*
X132928387Y-88456921D01*
X132906551Y-88461264D01*
X132890017Y-88468565D01*
X132841629Y-88474178D01*
X132837500Y-88475000D01*
X132337500Y-88475000D01*
X132333373Y-88474179D01*
X132284982Y-88468565D01*
X132268446Y-88461264D01*
X132246613Y-88456921D01*
X132223238Y-88441302D01*
X132203775Y-88432709D01*
X132190482Y-88419416D01*
X132169562Y-88405438D01*
X132155583Y-88384517D01*
X132142290Y-88371224D01*
X132133695Y-88351759D01*
X132118079Y-88328387D01*
X132113736Y-88306555D01*
X132106434Y-88290017D01*
X132100818Y-88241616D01*
X132100000Y-88237500D01*
X132100000Y-87762500D01*
X132100818Y-87758385D01*
X132106434Y-87709982D01*
X132113736Y-87693442D01*
X132118079Y-87671613D01*
X132133694Y-87648242D01*
X132142290Y-87628775D01*
X132155585Y-87615479D01*
X132169562Y-87594562D01*
X132190479Y-87580585D01*
X132203775Y-87567290D01*
X132223242Y-87558694D01*
X132246613Y-87543079D01*
X132268442Y-87538736D01*
X132284982Y-87531434D01*
X132333384Y-87525818D01*
X132337500Y-87525000D01*
X132837500Y-87525000D01*
X132841615Y-87525818D01*
G37*
G36*
X134666615Y-87525818D02*
G01*
X134715017Y-87531434D01*
X134731555Y-87538736D01*
X134753387Y-87543079D01*
X134776759Y-87558695D01*
X134796224Y-87567290D01*
X134809517Y-87580583D01*
X134830438Y-87594562D01*
X134844416Y-87615482D01*
X134857709Y-87628775D01*
X134866302Y-87648238D01*
X134881921Y-87671613D01*
X134886264Y-87693446D01*
X134893565Y-87709982D01*
X134899178Y-87758372D01*
X134900000Y-87762500D01*
X134900000Y-88237500D01*
X134899178Y-88241627D01*
X134893565Y-88290017D01*
X134886264Y-88306551D01*
X134881921Y-88328387D01*
X134866301Y-88351763D01*
X134857709Y-88371224D01*
X134844418Y-88384514D01*
X134830438Y-88405438D01*
X134809514Y-88419418D01*
X134796224Y-88432709D01*
X134776763Y-88441301D01*
X134753387Y-88456921D01*
X134731551Y-88461264D01*
X134715017Y-88468565D01*
X134666629Y-88474178D01*
X134662500Y-88475000D01*
X134162500Y-88475000D01*
X134158373Y-88474179D01*
X134109982Y-88468565D01*
X134093446Y-88461264D01*
X134071613Y-88456921D01*
X134048238Y-88441302D01*
X134028775Y-88432709D01*
X134015482Y-88419416D01*
X133994562Y-88405438D01*
X133980583Y-88384517D01*
X133967290Y-88371224D01*
X133958695Y-88351759D01*
X133943079Y-88328387D01*
X133938736Y-88306555D01*
X133931434Y-88290017D01*
X133925818Y-88241616D01*
X133925000Y-88237500D01*
X133925000Y-87762500D01*
X133925818Y-87758385D01*
X133931434Y-87709982D01*
X133938736Y-87693442D01*
X133943079Y-87671613D01*
X133958694Y-87648242D01*
X133967290Y-87628775D01*
X133980585Y-87615479D01*
X133994562Y-87594562D01*
X134015479Y-87580585D01*
X134028775Y-87567290D01*
X134048242Y-87558694D01*
X134071613Y-87543079D01*
X134093442Y-87538736D01*
X134109982Y-87531434D01*
X134158384Y-87525818D01*
X134162500Y-87525000D01*
X134662500Y-87525000D01*
X134666615Y-87525818D01*
G37*
G36*
X150941615Y-87525818D02*
G01*
X150990017Y-87531434D01*
X151006555Y-87538736D01*
X151028387Y-87543079D01*
X151051759Y-87558695D01*
X151071224Y-87567290D01*
X151084517Y-87580583D01*
X151105438Y-87594562D01*
X151119416Y-87615482D01*
X151132709Y-87628775D01*
X151141302Y-87648238D01*
X151156921Y-87671613D01*
X151161264Y-87693446D01*
X151168565Y-87709982D01*
X151174178Y-87758372D01*
X151175000Y-87762500D01*
X151175000Y-88237500D01*
X151174178Y-88241627D01*
X151168565Y-88290017D01*
X151161264Y-88306551D01*
X151156921Y-88328387D01*
X151141301Y-88351763D01*
X151132709Y-88371224D01*
X151119418Y-88384514D01*
X151105438Y-88405438D01*
X151084514Y-88419418D01*
X151071224Y-88432709D01*
X151051763Y-88441301D01*
X151028387Y-88456921D01*
X151006551Y-88461264D01*
X150990017Y-88468565D01*
X150941629Y-88474178D01*
X150937500Y-88475000D01*
X150337500Y-88475000D01*
X150333373Y-88474179D01*
X150284982Y-88468565D01*
X150268446Y-88461264D01*
X150246613Y-88456921D01*
X150223238Y-88441302D01*
X150203775Y-88432709D01*
X150190482Y-88419416D01*
X150169562Y-88405438D01*
X150155583Y-88384517D01*
X150142290Y-88371224D01*
X150133695Y-88351759D01*
X150118079Y-88328387D01*
X150113736Y-88306555D01*
X150106434Y-88290017D01*
X150100818Y-88241616D01*
X150100000Y-88237500D01*
X150100000Y-87762500D01*
X150100818Y-87758385D01*
X150106434Y-87709982D01*
X150113736Y-87693442D01*
X150118079Y-87671613D01*
X150133694Y-87648242D01*
X150142290Y-87628775D01*
X150155585Y-87615479D01*
X150169562Y-87594562D01*
X150190479Y-87580585D01*
X150203775Y-87567290D01*
X150223242Y-87558694D01*
X150246613Y-87543079D01*
X150268442Y-87538736D01*
X150284982Y-87531434D01*
X150333384Y-87525818D01*
X150337500Y-87525000D01*
X150937500Y-87525000D01*
X150941615Y-87525818D01*
G37*
G36*
X152666615Y-87525818D02*
G01*
X152715017Y-87531434D01*
X152731555Y-87538736D01*
X152753387Y-87543079D01*
X152776759Y-87558695D01*
X152796224Y-87567290D01*
X152809517Y-87580583D01*
X152830438Y-87594562D01*
X152844416Y-87615482D01*
X152857709Y-87628775D01*
X152866302Y-87648238D01*
X152881921Y-87671613D01*
X152886264Y-87693446D01*
X152893565Y-87709982D01*
X152899178Y-87758372D01*
X152900000Y-87762500D01*
X152900000Y-88237500D01*
X152899178Y-88241627D01*
X152893565Y-88290017D01*
X152886264Y-88306551D01*
X152881921Y-88328387D01*
X152866301Y-88351763D01*
X152857709Y-88371224D01*
X152844418Y-88384514D01*
X152830438Y-88405438D01*
X152809514Y-88419418D01*
X152796224Y-88432709D01*
X152776763Y-88441301D01*
X152753387Y-88456921D01*
X152731551Y-88461264D01*
X152715017Y-88468565D01*
X152666629Y-88474178D01*
X152662500Y-88475000D01*
X152062500Y-88475000D01*
X152058373Y-88474179D01*
X152009982Y-88468565D01*
X151993446Y-88461264D01*
X151971613Y-88456921D01*
X151948238Y-88441302D01*
X151928775Y-88432709D01*
X151915482Y-88419416D01*
X151894562Y-88405438D01*
X151880583Y-88384517D01*
X151867290Y-88371224D01*
X151858695Y-88351759D01*
X151843079Y-88328387D01*
X151838736Y-88306555D01*
X151831434Y-88290017D01*
X151825818Y-88241616D01*
X151825000Y-88237500D01*
X151825000Y-87762500D01*
X151825818Y-87758385D01*
X151831434Y-87709982D01*
X151838736Y-87693442D01*
X151843079Y-87671613D01*
X151858694Y-87648242D01*
X151867290Y-87628775D01*
X151880585Y-87615479D01*
X151894562Y-87594562D01*
X151915479Y-87580585D01*
X151928775Y-87567290D01*
X151948242Y-87558694D01*
X151971613Y-87543079D01*
X151993442Y-87538736D01*
X152009982Y-87531434D01*
X152058384Y-87525818D01*
X152062500Y-87525000D01*
X152662500Y-87525000D01*
X152666615Y-87525818D01*
G37*
G36*
X140313268Y-88032612D02*
G01*
X140345711Y-88054289D01*
X140367388Y-88086732D01*
X140375000Y-88125000D01*
X140375000Y-88325000D01*
X140367388Y-88363268D01*
X140345711Y-88395711D01*
X140313268Y-88417388D01*
X140275000Y-88425000D01*
X139000000Y-88425000D01*
X138961732Y-88417388D01*
X138929289Y-88395711D01*
X138907612Y-88363268D01*
X138900000Y-88325000D01*
X138900000Y-88125000D01*
X138907612Y-88086732D01*
X138929289Y-88054289D01*
X138961732Y-88032612D01*
X139000000Y-88025000D01*
X140275000Y-88025000D01*
X140313268Y-88032612D01*
G37*
G36*
X146038268Y-88032612D02*
G01*
X146070711Y-88054289D01*
X146092388Y-88086732D01*
X146100000Y-88125000D01*
X146100000Y-88325000D01*
X146092388Y-88363268D01*
X146070711Y-88395711D01*
X146038268Y-88417388D01*
X146000000Y-88425000D01*
X144725000Y-88425000D01*
X144686732Y-88417388D01*
X144654289Y-88395711D01*
X144632612Y-88363268D01*
X144625000Y-88325000D01*
X144625000Y-88125000D01*
X144632612Y-88086732D01*
X144654289Y-88054289D01*
X144686732Y-88032612D01*
X144725000Y-88025000D01*
X146000000Y-88025000D01*
X146038268Y-88032612D01*
G37*
G36*
X140313268Y-87382612D02*
G01*
X140345711Y-87404289D01*
X140367388Y-87436732D01*
X140375000Y-87475000D01*
X140375000Y-87675000D01*
X140367388Y-87713268D01*
X140345711Y-87745711D01*
X140313268Y-87767388D01*
X140275000Y-87775000D01*
X139000000Y-87775000D01*
X138961732Y-87767388D01*
X138929289Y-87745711D01*
X138907612Y-87713268D01*
X138900000Y-87675000D01*
X138900000Y-87475000D01*
X138907612Y-87436732D01*
X138929289Y-87404289D01*
X138961732Y-87382612D01*
X139000000Y-87375000D01*
X140275000Y-87375000D01*
X140313268Y-87382612D01*
G37*
G36*
X146038268Y-87382612D02*
G01*
X146070711Y-87404289D01*
X146092388Y-87436732D01*
X146100000Y-87475000D01*
X146100000Y-87675000D01*
X146092388Y-87713268D01*
X146070711Y-87745711D01*
X146038268Y-87767388D01*
X146000000Y-87775000D01*
X144725000Y-87775000D01*
X144686732Y-87767388D01*
X144654289Y-87745711D01*
X144632612Y-87713268D01*
X144625000Y-87675000D01*
X144625000Y-87475000D01*
X144632612Y-87436732D01*
X144654289Y-87404289D01*
X144686732Y-87382612D01*
X144725000Y-87375000D01*
X146000000Y-87375000D01*
X146038268Y-87382612D01*
G37*
G36*
X128841615Y-85525818D02*
G01*
X128890017Y-85531434D01*
X128906555Y-85538736D01*
X128928387Y-85543079D01*
X128951759Y-85558695D01*
X128971224Y-85567290D01*
X128984517Y-85580583D01*
X129005438Y-85594562D01*
X129019416Y-85615482D01*
X129032709Y-85628775D01*
X129041302Y-85648238D01*
X129056921Y-85671613D01*
X129061264Y-85693446D01*
X129068565Y-85709982D01*
X129074178Y-85758372D01*
X129075000Y-85762500D01*
X129075000Y-86237500D01*
X129074178Y-86241627D01*
X129068565Y-86290017D01*
X129061264Y-86306551D01*
X129056921Y-86328387D01*
X129041301Y-86351763D01*
X129032709Y-86371224D01*
X129019418Y-86384514D01*
X129005438Y-86405438D01*
X128984514Y-86419418D01*
X128971224Y-86432709D01*
X128951763Y-86441301D01*
X128928387Y-86456921D01*
X128906551Y-86461264D01*
X128890017Y-86468565D01*
X128841629Y-86474178D01*
X128837500Y-86475000D01*
X128337500Y-86475000D01*
X128333373Y-86474179D01*
X128284982Y-86468565D01*
X128268446Y-86461264D01*
X128246613Y-86456921D01*
X128223238Y-86441302D01*
X128203775Y-86432709D01*
X128190482Y-86419416D01*
X128169562Y-86405438D01*
X128155583Y-86384517D01*
X128142290Y-86371224D01*
X128133695Y-86351759D01*
X128118079Y-86328387D01*
X128113736Y-86306555D01*
X128106434Y-86290017D01*
X128100818Y-86241616D01*
X128100000Y-86237500D01*
X128100000Y-85762500D01*
X128100818Y-85758385D01*
X128106434Y-85709982D01*
X128113736Y-85693442D01*
X128118079Y-85671613D01*
X128133694Y-85648242D01*
X128142290Y-85628775D01*
X128155585Y-85615479D01*
X128169562Y-85594562D01*
X128190479Y-85580585D01*
X128203775Y-85567290D01*
X128223242Y-85558694D01*
X128246613Y-85543079D01*
X128268442Y-85538736D01*
X128284982Y-85531434D01*
X128333384Y-85525818D01*
X128337500Y-85525000D01*
X128837500Y-85525000D01*
X128841615Y-85525818D01*
G37*
G36*
X130666615Y-85525818D02*
G01*
X130715017Y-85531434D01*
X130731555Y-85538736D01*
X130753387Y-85543079D01*
X130776759Y-85558695D01*
X130796224Y-85567290D01*
X130809517Y-85580583D01*
X130830438Y-85594562D01*
X130844416Y-85615482D01*
X130857709Y-85628775D01*
X130866302Y-85648238D01*
X130881921Y-85671613D01*
X130886264Y-85693446D01*
X130893565Y-85709982D01*
X130899178Y-85758372D01*
X130900000Y-85762500D01*
X130900000Y-86237500D01*
X130899178Y-86241627D01*
X130893565Y-86290017D01*
X130886264Y-86306551D01*
X130881921Y-86328387D01*
X130866301Y-86351763D01*
X130857709Y-86371224D01*
X130844418Y-86384514D01*
X130830438Y-86405438D01*
X130809514Y-86419418D01*
X130796224Y-86432709D01*
X130776763Y-86441301D01*
X130753387Y-86456921D01*
X130731551Y-86461264D01*
X130715017Y-86468565D01*
X130666629Y-86474178D01*
X130662500Y-86475000D01*
X130162500Y-86475000D01*
X130158373Y-86474179D01*
X130109982Y-86468565D01*
X130093446Y-86461264D01*
X130071613Y-86456921D01*
X130048238Y-86441302D01*
X130028775Y-86432709D01*
X130015482Y-86419416D01*
X129994562Y-86405438D01*
X129980583Y-86384517D01*
X129967290Y-86371224D01*
X129958695Y-86351759D01*
X129943079Y-86328387D01*
X129938736Y-86306555D01*
X129931434Y-86290017D01*
X129925818Y-86241616D01*
X129925000Y-86237500D01*
X129925000Y-85762500D01*
X129925818Y-85758385D01*
X129931434Y-85709982D01*
X129938736Y-85693442D01*
X129943079Y-85671613D01*
X129958694Y-85648242D01*
X129967290Y-85628775D01*
X129980585Y-85615479D01*
X129994562Y-85594562D01*
X130015479Y-85580585D01*
X130028775Y-85567290D01*
X130048242Y-85558694D01*
X130071613Y-85543079D01*
X130093442Y-85538736D01*
X130109982Y-85531434D01*
X130158384Y-85525818D01*
X130162500Y-85525000D01*
X130662500Y-85525000D01*
X130666615Y-85525818D01*
G37*
G36*
X132841615Y-85525818D02*
G01*
X132890017Y-85531434D01*
X132906555Y-85538736D01*
X132928387Y-85543079D01*
X132951759Y-85558695D01*
X132971224Y-85567290D01*
X132984517Y-85580583D01*
X133005438Y-85594562D01*
X133019416Y-85615482D01*
X133032709Y-85628775D01*
X133041302Y-85648238D01*
X133056921Y-85671613D01*
X133061264Y-85693446D01*
X133068565Y-85709982D01*
X133074178Y-85758372D01*
X133075000Y-85762500D01*
X133075000Y-86237500D01*
X133074178Y-86241627D01*
X133068565Y-86290017D01*
X133061264Y-86306551D01*
X133056921Y-86328387D01*
X133041301Y-86351763D01*
X133032709Y-86371224D01*
X133019418Y-86384514D01*
X133005438Y-86405438D01*
X132984514Y-86419418D01*
X132971224Y-86432709D01*
X132951763Y-86441301D01*
X132928387Y-86456921D01*
X132906551Y-86461264D01*
X132890017Y-86468565D01*
X132841629Y-86474178D01*
X132837500Y-86475000D01*
X132337500Y-86475000D01*
X132333373Y-86474179D01*
X132284982Y-86468565D01*
X132268446Y-86461264D01*
X132246613Y-86456921D01*
X132223238Y-86441302D01*
X132203775Y-86432709D01*
X132190482Y-86419416D01*
X132169562Y-86405438D01*
X132155583Y-86384517D01*
X132142290Y-86371224D01*
X132133695Y-86351759D01*
X132118079Y-86328387D01*
X132113736Y-86306555D01*
X132106434Y-86290017D01*
X132100818Y-86241616D01*
X132100000Y-86237500D01*
X132100000Y-85762500D01*
X132100818Y-85758385D01*
X132106434Y-85709982D01*
X132113736Y-85693442D01*
X132118079Y-85671613D01*
X132133694Y-85648242D01*
X132142290Y-85628775D01*
X132155585Y-85615479D01*
X132169562Y-85594562D01*
X132190479Y-85580585D01*
X132203775Y-85567290D01*
X132223242Y-85558694D01*
X132246613Y-85543079D01*
X132268442Y-85538736D01*
X132284982Y-85531434D01*
X132333384Y-85525818D01*
X132337500Y-85525000D01*
X132837500Y-85525000D01*
X132841615Y-85525818D01*
G37*
G36*
X134666615Y-85525818D02*
G01*
X134715017Y-85531434D01*
X134731555Y-85538736D01*
X134753387Y-85543079D01*
X134776759Y-85558695D01*
X134796224Y-85567290D01*
X134809517Y-85580583D01*
X134830438Y-85594562D01*
X134844416Y-85615482D01*
X134857709Y-85628775D01*
X134866302Y-85648238D01*
X134881921Y-85671613D01*
X134886264Y-85693446D01*
X134893565Y-85709982D01*
X134899178Y-85758372D01*
X134900000Y-85762500D01*
X134900000Y-86237500D01*
X134899178Y-86241627D01*
X134893565Y-86290017D01*
X134886264Y-86306551D01*
X134881921Y-86328387D01*
X134866301Y-86351763D01*
X134857709Y-86371224D01*
X134844418Y-86384514D01*
X134830438Y-86405438D01*
X134809514Y-86419418D01*
X134796224Y-86432709D01*
X134776763Y-86441301D01*
X134753387Y-86456921D01*
X134731551Y-86461264D01*
X134715017Y-86468565D01*
X134666629Y-86474178D01*
X134662500Y-86475000D01*
X134162500Y-86475000D01*
X134158373Y-86474179D01*
X134109982Y-86468565D01*
X134093446Y-86461264D01*
X134071613Y-86456921D01*
X134048238Y-86441302D01*
X134028775Y-86432709D01*
X134015482Y-86419416D01*
X133994562Y-86405438D01*
X133980583Y-86384517D01*
X133967290Y-86371224D01*
X133958695Y-86351759D01*
X133943079Y-86328387D01*
X133938736Y-86306555D01*
X133931434Y-86290017D01*
X133925818Y-86241616D01*
X133925000Y-86237500D01*
X133925000Y-85762500D01*
X133925818Y-85758385D01*
X133931434Y-85709982D01*
X133938736Y-85693442D01*
X133943079Y-85671613D01*
X133958694Y-85648242D01*
X133967290Y-85628775D01*
X133980585Y-85615479D01*
X133994562Y-85594562D01*
X134015479Y-85580585D01*
X134028775Y-85567290D01*
X134048242Y-85558694D01*
X134071613Y-85543079D01*
X134093442Y-85538736D01*
X134109982Y-85531434D01*
X134158384Y-85525818D01*
X134162500Y-85525000D01*
X134662500Y-85525000D01*
X134666615Y-85525818D01*
G37*
G36*
X138841615Y-85525818D02*
G01*
X138890017Y-85531434D01*
X138906555Y-85538736D01*
X138928387Y-85543079D01*
X138951759Y-85558695D01*
X138971224Y-85567290D01*
X138984517Y-85580583D01*
X139005438Y-85594562D01*
X139019416Y-85615482D01*
X139032709Y-85628775D01*
X139041302Y-85648238D01*
X139056921Y-85671613D01*
X139061264Y-85693446D01*
X139068565Y-85709982D01*
X139074178Y-85758372D01*
X139075000Y-85762500D01*
X139075000Y-86237500D01*
X139074178Y-86241627D01*
X139068565Y-86290017D01*
X139061264Y-86306551D01*
X139056921Y-86328387D01*
X139041301Y-86351763D01*
X139032709Y-86371224D01*
X139019418Y-86384514D01*
X139005438Y-86405438D01*
X138984514Y-86419418D01*
X138971224Y-86432709D01*
X138951763Y-86441301D01*
X138928387Y-86456921D01*
X138906551Y-86461264D01*
X138890017Y-86468565D01*
X138841629Y-86474178D01*
X138837500Y-86475000D01*
X138337500Y-86475000D01*
X138333373Y-86474179D01*
X138284982Y-86468565D01*
X138268446Y-86461264D01*
X138246613Y-86456921D01*
X138223238Y-86441302D01*
X138203775Y-86432709D01*
X138190482Y-86419416D01*
X138169562Y-86405438D01*
X138155583Y-86384517D01*
X138142290Y-86371224D01*
X138133695Y-86351759D01*
X138118079Y-86328387D01*
X138113736Y-86306555D01*
X138106434Y-86290017D01*
X138100818Y-86241616D01*
X138100000Y-86237500D01*
X138100000Y-85762500D01*
X138100818Y-85758385D01*
X138106434Y-85709982D01*
X138113736Y-85693442D01*
X138118079Y-85671613D01*
X138133694Y-85648242D01*
X138142290Y-85628775D01*
X138155585Y-85615479D01*
X138169562Y-85594562D01*
X138190479Y-85580585D01*
X138203775Y-85567290D01*
X138223242Y-85558694D01*
X138246613Y-85543079D01*
X138268442Y-85538736D01*
X138284982Y-85531434D01*
X138333384Y-85525818D01*
X138337500Y-85525000D01*
X138837500Y-85525000D01*
X138841615Y-85525818D01*
G37*
G36*
X140666615Y-85525818D02*
G01*
X140715017Y-85531434D01*
X140731555Y-85538736D01*
X140753387Y-85543079D01*
X140776759Y-85558695D01*
X140796224Y-85567290D01*
X140809517Y-85580583D01*
X140830438Y-85594562D01*
X140844416Y-85615482D01*
X140857709Y-85628775D01*
X140866302Y-85648238D01*
X140881921Y-85671613D01*
X140886264Y-85693446D01*
X140893565Y-85709982D01*
X140899178Y-85758372D01*
X140900000Y-85762500D01*
X140900000Y-86237500D01*
X140899178Y-86241627D01*
X140893565Y-86290017D01*
X140886264Y-86306551D01*
X140881921Y-86328387D01*
X140866301Y-86351763D01*
X140857709Y-86371224D01*
X140844418Y-86384514D01*
X140830438Y-86405438D01*
X140809514Y-86419418D01*
X140796224Y-86432709D01*
X140776763Y-86441301D01*
X140753387Y-86456921D01*
X140731551Y-86461264D01*
X140715017Y-86468565D01*
X140666629Y-86474178D01*
X140662500Y-86475000D01*
X140162500Y-86475000D01*
X140158373Y-86474179D01*
X140109982Y-86468565D01*
X140093446Y-86461264D01*
X140071613Y-86456921D01*
X140048238Y-86441302D01*
X140028775Y-86432709D01*
X140015482Y-86419416D01*
X139994562Y-86405438D01*
X139980583Y-86384517D01*
X139967290Y-86371224D01*
X139958695Y-86351759D01*
X139943079Y-86328387D01*
X139938736Y-86306555D01*
X139931434Y-86290017D01*
X139925818Y-86241616D01*
X139925000Y-86237500D01*
X139925000Y-85762500D01*
X139925818Y-85758385D01*
X139931434Y-85709982D01*
X139938736Y-85693442D01*
X139943079Y-85671613D01*
X139958694Y-85648242D01*
X139967290Y-85628775D01*
X139980585Y-85615479D01*
X139994562Y-85594562D01*
X140015479Y-85580585D01*
X140028775Y-85567290D01*
X140048242Y-85558694D01*
X140071613Y-85543079D01*
X140093442Y-85538736D01*
X140109982Y-85531434D01*
X140158384Y-85525818D01*
X140162500Y-85525000D01*
X140662500Y-85525000D01*
X140666615Y-85525818D01*
G37*
G36*
X150941615Y-85525818D02*
G01*
X150990017Y-85531434D01*
X151006555Y-85538736D01*
X151028387Y-85543079D01*
X151051759Y-85558695D01*
X151071224Y-85567290D01*
X151084517Y-85580583D01*
X151105438Y-85594562D01*
X151119416Y-85615482D01*
X151132709Y-85628775D01*
X151141302Y-85648238D01*
X151156921Y-85671613D01*
X151161264Y-85693446D01*
X151168565Y-85709982D01*
X151174178Y-85758372D01*
X151175000Y-85762500D01*
X151175000Y-86237500D01*
X151174178Y-86241627D01*
X151168565Y-86290017D01*
X151161264Y-86306551D01*
X151156921Y-86328387D01*
X151141301Y-86351763D01*
X151132709Y-86371224D01*
X151119418Y-86384514D01*
X151105438Y-86405438D01*
X151084514Y-86419418D01*
X151071224Y-86432709D01*
X151051763Y-86441301D01*
X151028387Y-86456921D01*
X151006551Y-86461264D01*
X150990017Y-86468565D01*
X150941629Y-86474178D01*
X150937500Y-86475000D01*
X150337500Y-86475000D01*
X150333373Y-86474179D01*
X150284982Y-86468565D01*
X150268446Y-86461264D01*
X150246613Y-86456921D01*
X150223238Y-86441302D01*
X150203775Y-86432709D01*
X150190482Y-86419416D01*
X150169562Y-86405438D01*
X150155583Y-86384517D01*
X150142290Y-86371224D01*
X150133695Y-86351759D01*
X150118079Y-86328387D01*
X150113736Y-86306555D01*
X150106434Y-86290017D01*
X150100818Y-86241616D01*
X150100000Y-86237500D01*
X150100000Y-85762500D01*
X150100818Y-85758385D01*
X150106434Y-85709982D01*
X150113736Y-85693442D01*
X150118079Y-85671613D01*
X150133694Y-85648242D01*
X150142290Y-85628775D01*
X150155585Y-85615479D01*
X150169562Y-85594562D01*
X150190479Y-85580585D01*
X150203775Y-85567290D01*
X150223242Y-85558694D01*
X150246613Y-85543079D01*
X150268442Y-85538736D01*
X150284982Y-85531434D01*
X150333384Y-85525818D01*
X150337500Y-85525000D01*
X150937500Y-85525000D01*
X150941615Y-85525818D01*
G37*
G36*
X152666615Y-85525818D02*
G01*
X152715017Y-85531434D01*
X152731555Y-85538736D01*
X152753387Y-85543079D01*
X152776759Y-85558695D01*
X152796224Y-85567290D01*
X152809517Y-85580583D01*
X152830438Y-85594562D01*
X152844416Y-85615482D01*
X152857709Y-85628775D01*
X152866302Y-85648238D01*
X152881921Y-85671613D01*
X152886264Y-85693446D01*
X152893565Y-85709982D01*
X152899178Y-85758372D01*
X152900000Y-85762500D01*
X152900000Y-86237500D01*
X152899178Y-86241627D01*
X152893565Y-86290017D01*
X152886264Y-86306551D01*
X152881921Y-86328387D01*
X152866301Y-86351763D01*
X152857709Y-86371224D01*
X152844418Y-86384514D01*
X152830438Y-86405438D01*
X152809514Y-86419418D01*
X152796224Y-86432709D01*
X152776763Y-86441301D01*
X152753387Y-86456921D01*
X152731551Y-86461264D01*
X152715017Y-86468565D01*
X152666629Y-86474178D01*
X152662500Y-86475000D01*
X152062500Y-86475000D01*
X152058373Y-86474179D01*
X152009982Y-86468565D01*
X151993446Y-86461264D01*
X151971613Y-86456921D01*
X151948238Y-86441302D01*
X151928775Y-86432709D01*
X151915482Y-86419416D01*
X151894562Y-86405438D01*
X151880583Y-86384517D01*
X151867290Y-86371224D01*
X151858695Y-86351759D01*
X151843079Y-86328387D01*
X151838736Y-86306555D01*
X151831434Y-86290017D01*
X151825818Y-86241616D01*
X151825000Y-86237500D01*
X151825000Y-85762500D01*
X151825818Y-85758385D01*
X151831434Y-85709982D01*
X151838736Y-85693442D01*
X151843079Y-85671613D01*
X151858694Y-85648242D01*
X151867290Y-85628775D01*
X151880585Y-85615479D01*
X151894562Y-85594562D01*
X151915479Y-85580585D01*
X151928775Y-85567290D01*
X151948242Y-85558694D01*
X151971613Y-85543079D01*
X151993442Y-85538736D01*
X152009982Y-85531434D01*
X152058384Y-85525818D01*
X152062500Y-85525000D01*
X152662500Y-85525000D01*
X152666615Y-85525818D01*
G37*
M02*
