G04 #@! TF.GenerationSoftware,KiCad,Pcbnew,10.0.3-10.0.3~ubuntu26.04.1*
G04 #@! TF.CreationDate,2026-07-25T22:04:23+03:00*
G04 #@! TF.ProjectId,retrolight-main,72657472-6f6c-4696-9768-742d6d61696e,B*
G04 #@! TF.SameCoordinates,Original*
G04 #@! TF.FileFunction,Paste,Bot*
G04 #@! TF.FilePolarity,Positive*
%FSLAX46Y46*%
G04 Gerber Fmt 4.6, Leading zero omitted, Abs format (unit mm)*
G04 Created by KiCad (PCBNEW 10.0.3-10.0.3~ubuntu26.04.1) date 2026-07-25 22:04:23*
%MOMM*%
%LPD*%
G01*
G04 APERTURE LIST*
%ADD10C,0.010000*%
G04 APERTURE END LIST*
D10*
G04 #@! TO.C,D5*
X143000000Y-88500000D02*
X145000000Y-88500000D01*
X145000000Y-89200000D01*
X144500000Y-89200000D01*
X144500000Y-89600000D01*
X143500000Y-89600000D01*
X143500000Y-89200000D01*
X143000000Y-89200000D01*
X143000000Y-88500000D01*
G36*
X145000000Y-89200000D02*
G01*
X144500000Y-89200000D01*
X144500000Y-89600000D01*
X143500000Y-89600000D01*
X143500000Y-89200000D01*
X143000000Y-89200000D01*
X143000000Y-88500000D01*
X145000000Y-88500000D01*
X145000000Y-89200000D01*
G37*
X144500000Y-91800000D02*
X144500000Y-90150000D01*
X143500000Y-90150000D01*
X143500000Y-91800000D01*
X143600000Y-91800000D01*
X143600000Y-92500000D01*
X144400000Y-92500000D01*
X144400000Y-91800000D01*
X144500000Y-91800000D01*
G36*
X144500000Y-91800000D02*
G01*
X144400000Y-91800000D01*
X144400000Y-92500000D01*
X143600000Y-92500000D01*
X143600000Y-91800000D01*
X143500000Y-91800000D01*
X143500000Y-90150000D01*
X144500000Y-90150000D01*
X144500000Y-91800000D01*
G37*
G04 #@! TO.C,D2*
X134000000Y-88500000D02*
X136000000Y-88500000D01*
X136000000Y-89200000D01*
X135500000Y-89200000D01*
X135500000Y-89600000D01*
X134500000Y-89600000D01*
X134500000Y-89200000D01*
X134000000Y-89200000D01*
X134000000Y-88500000D01*
G36*
X136000000Y-89200000D02*
G01*
X135500000Y-89200000D01*
X135500000Y-89600000D01*
X134500000Y-89600000D01*
X134500000Y-89200000D01*
X134000000Y-89200000D01*
X134000000Y-88500000D01*
X136000000Y-88500000D01*
X136000000Y-89200000D01*
G37*
X135500000Y-91800000D02*
X135500000Y-90150000D01*
X134500000Y-90150000D01*
X134500000Y-91800000D01*
X134600000Y-91800000D01*
X134600000Y-92500000D01*
X135400000Y-92500000D01*
X135400000Y-91800000D01*
X135500000Y-91800000D01*
G36*
X135500000Y-91800000D02*
G01*
X135400000Y-91800000D01*
X135400000Y-92500000D01*
X134600000Y-92500000D01*
X134600000Y-91800000D01*
X134500000Y-91800000D01*
X134500000Y-90150000D01*
X135500000Y-90150000D01*
X135500000Y-91800000D01*
G37*
G04 #@! TO.C,D7*
X149000000Y-88500000D02*
X151000000Y-88500000D01*
X151000000Y-89200000D01*
X150500000Y-89200000D01*
X150500000Y-89600000D01*
X149500000Y-89600000D01*
X149500000Y-89200000D01*
X149000000Y-89200000D01*
X149000000Y-88500000D01*
G36*
X151000000Y-89200000D02*
G01*
X150500000Y-89200000D01*
X150500000Y-89600000D01*
X149500000Y-89600000D01*
X149500000Y-89200000D01*
X149000000Y-89200000D01*
X149000000Y-88500000D01*
X151000000Y-88500000D01*
X151000000Y-89200000D01*
G37*
X150500000Y-91800000D02*
X150500000Y-90150000D01*
X149500000Y-90150000D01*
X149500000Y-91800000D01*
X149600000Y-91800000D01*
X149600000Y-92500000D01*
X150400000Y-92500000D01*
X150400000Y-91800000D01*
X150500000Y-91800000D01*
G36*
X150500000Y-91800000D02*
G01*
X150400000Y-91800000D01*
X150400000Y-92500000D01*
X149600000Y-92500000D01*
X149600000Y-91800000D01*
X149500000Y-91800000D01*
X149500000Y-90150000D01*
X150500000Y-90150000D01*
X150500000Y-91800000D01*
G37*
G04 #@! TO.C,D1*
X131000000Y-88500000D02*
X133000000Y-88500000D01*
X133000000Y-89200000D01*
X132500000Y-89200000D01*
X132500000Y-89600000D01*
X131500000Y-89600000D01*
X131500000Y-89200000D01*
X131000000Y-89200000D01*
X131000000Y-88500000D01*
G36*
X133000000Y-89200000D02*
G01*
X132500000Y-89200000D01*
X132500000Y-89600000D01*
X131500000Y-89600000D01*
X131500000Y-89200000D01*
X131000000Y-89200000D01*
X131000000Y-88500000D01*
X133000000Y-88500000D01*
X133000000Y-89200000D01*
G37*
X132500000Y-91800000D02*
X132500000Y-90150000D01*
X131500000Y-90150000D01*
X131500000Y-91800000D01*
X131600000Y-91800000D01*
X131600000Y-92500000D01*
X132400000Y-92500000D01*
X132400000Y-91800000D01*
X132500000Y-91800000D01*
G36*
X132500000Y-91800000D02*
G01*
X132400000Y-91800000D01*
X132400000Y-92500000D01*
X131600000Y-92500000D01*
X131600000Y-91800000D01*
X131500000Y-91800000D01*
X131500000Y-90150000D01*
X132500000Y-90150000D01*
X132500000Y-91800000D01*
G37*
G04 #@! TO.C,D4*
X140000000Y-88500000D02*
X142000000Y-88500000D01*
X142000000Y-89200000D01*
X141500000Y-89200000D01*
X141500000Y-89600000D01*
X140500000Y-89600000D01*
X140500000Y-89200000D01*
X140000000Y-89200000D01*
X140000000Y-88500000D01*
G36*
X142000000Y-89200000D02*
G01*
X141500000Y-89200000D01*
X141500000Y-89600000D01*
X140500000Y-89600000D01*
X140500000Y-89200000D01*
X140000000Y-89200000D01*
X140000000Y-88500000D01*
X142000000Y-88500000D01*
X142000000Y-89200000D01*
G37*
X141500000Y-91800000D02*
X141500000Y-90150000D01*
X140500000Y-90150000D01*
X140500000Y-91800000D01*
X140600000Y-91800000D01*
X140600000Y-92500000D01*
X141400000Y-92500000D01*
X141400000Y-91800000D01*
X141500000Y-91800000D01*
G36*
X141500000Y-91800000D02*
G01*
X141400000Y-91800000D01*
X141400000Y-92500000D01*
X140600000Y-92500000D01*
X140600000Y-91800000D01*
X140500000Y-91800000D01*
X140500000Y-90150000D01*
X141500000Y-90150000D01*
X141500000Y-91800000D01*
G37*
G04 #@! TO.C,D3*
X137000000Y-88500000D02*
X139000000Y-88500000D01*
X139000000Y-89200000D01*
X138500000Y-89200000D01*
X138500000Y-89600000D01*
X137500000Y-89600000D01*
X137500000Y-89200000D01*
X137000000Y-89200000D01*
X137000000Y-88500000D01*
G36*
X139000000Y-89200000D02*
G01*
X138500000Y-89200000D01*
X138500000Y-89600000D01*
X137500000Y-89600000D01*
X137500000Y-89200000D01*
X137000000Y-89200000D01*
X137000000Y-88500000D01*
X139000000Y-88500000D01*
X139000000Y-89200000D01*
G37*
X138500000Y-91800000D02*
X138500000Y-90150000D01*
X137500000Y-90150000D01*
X137500000Y-91800000D01*
X137600000Y-91800000D01*
X137600000Y-92500000D01*
X138400000Y-92500000D01*
X138400000Y-91800000D01*
X138500000Y-91800000D01*
G36*
X138500000Y-91800000D02*
G01*
X138400000Y-91800000D01*
X138400000Y-92500000D01*
X137600000Y-92500000D01*
X137600000Y-91800000D01*
X137500000Y-91800000D01*
X137500000Y-90150000D01*
X138500000Y-90150000D01*
X138500000Y-91800000D01*
G37*
G04 #@! TO.C,D8*
X152000000Y-88500000D02*
X154000000Y-88500000D01*
X154000000Y-89200000D01*
X153500000Y-89200000D01*
X153500000Y-89600000D01*
X152500000Y-89600000D01*
X152500000Y-89200000D01*
X152000000Y-89200000D01*
X152000000Y-88500000D01*
G36*
X154000000Y-89200000D02*
G01*
X153500000Y-89200000D01*
X153500000Y-89600000D01*
X152500000Y-89600000D01*
X152500000Y-89200000D01*
X152000000Y-89200000D01*
X152000000Y-88500000D01*
X154000000Y-88500000D01*
X154000000Y-89200000D01*
G37*
X153500000Y-91800000D02*
X153500000Y-90150000D01*
X152500000Y-90150000D01*
X152500000Y-91800000D01*
X152600000Y-91800000D01*
X152600000Y-92500000D01*
X153400000Y-92500000D01*
X153400000Y-91800000D01*
X153500000Y-91800000D01*
G36*
X153500000Y-91800000D02*
G01*
X153400000Y-91800000D01*
X153400000Y-92500000D01*
X152600000Y-92500000D01*
X152600000Y-91800000D01*
X152500000Y-91800000D01*
X152500000Y-90150000D01*
X153500000Y-90150000D01*
X153500000Y-91800000D01*
G37*
G04 #@! TO.C,D6*
X146000000Y-88500000D02*
X148000000Y-88500000D01*
X148000000Y-89200000D01*
X147500000Y-89200000D01*
X147500000Y-89600000D01*
X146500000Y-89600000D01*
X146500000Y-89200000D01*
X146000000Y-89200000D01*
X146000000Y-88500000D01*
G36*
X148000000Y-89200000D02*
G01*
X147500000Y-89200000D01*
X147500000Y-89600000D01*
X146500000Y-89600000D01*
X146500000Y-89200000D01*
X146000000Y-89200000D01*
X146000000Y-88500000D01*
X148000000Y-88500000D01*
X148000000Y-89200000D01*
G37*
X147500000Y-91800000D02*
X147500000Y-90150000D01*
X146500000Y-90150000D01*
X146500000Y-91800000D01*
X146600000Y-91800000D01*
X146600000Y-92500000D01*
X147400000Y-92500000D01*
X147400000Y-91800000D01*
X147500000Y-91800000D01*
G36*
X147500000Y-91800000D02*
G01*
X147400000Y-91800000D01*
X147400000Y-92500000D01*
X146600000Y-92500000D01*
X146600000Y-91800000D01*
X146500000Y-91800000D01*
X146500000Y-90150000D01*
X147500000Y-90150000D01*
X147500000Y-91800000D01*
G37*
G04 #@! TD*
M02*
