G04 #@! TF.GenerationSoftware,KiCad,Pcbnew,10.0.3-10.0.3~ubuntu26.04.1*
G04 #@! TF.CreationDate,2026-06-11T16:57:43+03:00*
G04 #@! TF.ProjectId,retrolight-main,72657472-6f6c-4696-9768-742d6d61696e,B*
G04 #@! TF.SameCoordinates,Original*
G04 #@! TF.FileFunction,Legend,Bot*
G04 #@! TF.FilePolarity,Positive*
%FSLAX46Y46*%
G04 Gerber Fmt 4.6, Leading zero omitted, Abs format (unit mm)*
G04 Created by KiCad (PCBNEW 10.0.3-10.0.3~ubuntu26.04.1) date 2026-06-11 16:57:43*
%MOMM*%
%LPD*%
G01*
G04 APERTURE LIST*
%ADD10C,0.150000*%
%ADD11C,0.120000*%
%ADD12C,0.100000*%
G04 APERTURE END LIST*
D10*
X151954819Y-85857142D02*
X151478628Y-85523809D01*
X151954819Y-85285714D02*
X150954819Y-85285714D01*
X150954819Y-85285714D02*
X150954819Y-85666666D01*
X150954819Y-85666666D02*
X151002438Y-85761904D01*
X151002438Y-85761904D02*
X151050057Y-85809523D01*
X151050057Y-85809523D02*
X151145295Y-85857142D01*
X151145295Y-85857142D02*
X151288152Y-85857142D01*
X151288152Y-85857142D02*
X151383390Y-85809523D01*
X151383390Y-85809523D02*
X151431009Y-85761904D01*
X151431009Y-85761904D02*
X151478628Y-85666666D01*
X151478628Y-85666666D02*
X151478628Y-85285714D01*
X151954819Y-86809523D02*
X151954819Y-86238095D01*
X151954819Y-86523809D02*
X150954819Y-86523809D01*
X150954819Y-86523809D02*
X151097676Y-86428571D01*
X151097676Y-86428571D02*
X151192914Y-86333333D01*
X151192914Y-86333333D02*
X151240533Y-86238095D01*
X150954819Y-87142857D02*
X150954819Y-87809523D01*
X150954819Y-87809523D02*
X151954819Y-87380952D01*
X149454819Y-85857142D02*
X148978628Y-85523809D01*
X149454819Y-85285714D02*
X148454819Y-85285714D01*
X148454819Y-85285714D02*
X148454819Y-85666666D01*
X148454819Y-85666666D02*
X148502438Y-85761904D01*
X148502438Y-85761904D02*
X148550057Y-85809523D01*
X148550057Y-85809523D02*
X148645295Y-85857142D01*
X148645295Y-85857142D02*
X148788152Y-85857142D01*
X148788152Y-85857142D02*
X148883390Y-85809523D01*
X148883390Y-85809523D02*
X148931009Y-85761904D01*
X148931009Y-85761904D02*
X148978628Y-85666666D01*
X148978628Y-85666666D02*
X148978628Y-85285714D01*
X149454819Y-86809523D02*
X149454819Y-86238095D01*
X149454819Y-86523809D02*
X148454819Y-86523809D01*
X148454819Y-86523809D02*
X148597676Y-86428571D01*
X148597676Y-86428571D02*
X148692914Y-86333333D01*
X148692914Y-86333333D02*
X148740533Y-86238095D01*
X148454819Y-87666666D02*
X148454819Y-87476190D01*
X148454819Y-87476190D02*
X148502438Y-87380952D01*
X148502438Y-87380952D02*
X148550057Y-87333333D01*
X148550057Y-87333333D02*
X148692914Y-87238095D01*
X148692914Y-87238095D02*
X148883390Y-87190476D01*
X148883390Y-87190476D02*
X149264342Y-87190476D01*
X149264342Y-87190476D02*
X149359580Y-87238095D01*
X149359580Y-87238095D02*
X149407200Y-87285714D01*
X149407200Y-87285714D02*
X149454819Y-87380952D01*
X149454819Y-87380952D02*
X149454819Y-87571428D01*
X149454819Y-87571428D02*
X149407200Y-87666666D01*
X149407200Y-87666666D02*
X149359580Y-87714285D01*
X149359580Y-87714285D02*
X149264342Y-87761904D01*
X149264342Y-87761904D02*
X149026247Y-87761904D01*
X149026247Y-87761904D02*
X148931009Y-87714285D01*
X148931009Y-87714285D02*
X148883390Y-87666666D01*
X148883390Y-87666666D02*
X148835771Y-87571428D01*
X148835771Y-87571428D02*
X148835771Y-87380952D01*
X148835771Y-87380952D02*
X148883390Y-87285714D01*
X148883390Y-87285714D02*
X148931009Y-87238095D01*
X148931009Y-87238095D02*
X149026247Y-87190476D01*
X146954819Y-85857142D02*
X146478628Y-85523809D01*
X146954819Y-85285714D02*
X145954819Y-85285714D01*
X145954819Y-85285714D02*
X145954819Y-85666666D01*
X145954819Y-85666666D02*
X146002438Y-85761904D01*
X146002438Y-85761904D02*
X146050057Y-85809523D01*
X146050057Y-85809523D02*
X146145295Y-85857142D01*
X146145295Y-85857142D02*
X146288152Y-85857142D01*
X146288152Y-85857142D02*
X146383390Y-85809523D01*
X146383390Y-85809523D02*
X146431009Y-85761904D01*
X146431009Y-85761904D02*
X146478628Y-85666666D01*
X146478628Y-85666666D02*
X146478628Y-85285714D01*
X146954819Y-86809523D02*
X146954819Y-86238095D01*
X146954819Y-86523809D02*
X145954819Y-86523809D01*
X145954819Y-86523809D02*
X146097676Y-86428571D01*
X146097676Y-86428571D02*
X146192914Y-86333333D01*
X146192914Y-86333333D02*
X146240533Y-86238095D01*
X145954819Y-87714285D02*
X145954819Y-87238095D01*
X145954819Y-87238095D02*
X146431009Y-87190476D01*
X146431009Y-87190476D02*
X146383390Y-87238095D01*
X146383390Y-87238095D02*
X146335771Y-87333333D01*
X146335771Y-87333333D02*
X146335771Y-87571428D01*
X146335771Y-87571428D02*
X146383390Y-87666666D01*
X146383390Y-87666666D02*
X146431009Y-87714285D01*
X146431009Y-87714285D02*
X146526247Y-87761904D01*
X146526247Y-87761904D02*
X146764342Y-87761904D01*
X146764342Y-87761904D02*
X146859580Y-87714285D01*
X146859580Y-87714285D02*
X146907200Y-87666666D01*
X146907200Y-87666666D02*
X146954819Y-87571428D01*
X146954819Y-87571428D02*
X146954819Y-87333333D01*
X146954819Y-87333333D02*
X146907200Y-87238095D01*
X146907200Y-87238095D02*
X146859580Y-87190476D01*
X144454819Y-85857142D02*
X143978628Y-85523809D01*
X144454819Y-85285714D02*
X143454819Y-85285714D01*
X143454819Y-85285714D02*
X143454819Y-85666666D01*
X143454819Y-85666666D02*
X143502438Y-85761904D01*
X143502438Y-85761904D02*
X143550057Y-85809523D01*
X143550057Y-85809523D02*
X143645295Y-85857142D01*
X143645295Y-85857142D02*
X143788152Y-85857142D01*
X143788152Y-85857142D02*
X143883390Y-85809523D01*
X143883390Y-85809523D02*
X143931009Y-85761904D01*
X143931009Y-85761904D02*
X143978628Y-85666666D01*
X143978628Y-85666666D02*
X143978628Y-85285714D01*
X144454819Y-86809523D02*
X144454819Y-86238095D01*
X144454819Y-86523809D02*
X143454819Y-86523809D01*
X143454819Y-86523809D02*
X143597676Y-86428571D01*
X143597676Y-86428571D02*
X143692914Y-86333333D01*
X143692914Y-86333333D02*
X143740533Y-86238095D01*
X143788152Y-87666666D02*
X144454819Y-87666666D01*
X143407200Y-87428571D02*
X144121485Y-87190476D01*
X144121485Y-87190476D02*
X144121485Y-87809523D01*
X141454819Y-85857142D02*
X140978628Y-85523809D01*
X141454819Y-85285714D02*
X140454819Y-85285714D01*
X140454819Y-85285714D02*
X140454819Y-85666666D01*
X140454819Y-85666666D02*
X140502438Y-85761904D01*
X140502438Y-85761904D02*
X140550057Y-85809523D01*
X140550057Y-85809523D02*
X140645295Y-85857142D01*
X140645295Y-85857142D02*
X140788152Y-85857142D01*
X140788152Y-85857142D02*
X140883390Y-85809523D01*
X140883390Y-85809523D02*
X140931009Y-85761904D01*
X140931009Y-85761904D02*
X140978628Y-85666666D01*
X140978628Y-85666666D02*
X140978628Y-85285714D01*
X141454819Y-86809523D02*
X141454819Y-86238095D01*
X141454819Y-86523809D02*
X140454819Y-86523809D01*
X140454819Y-86523809D02*
X140597676Y-86428571D01*
X140597676Y-86428571D02*
X140692914Y-86333333D01*
X140692914Y-86333333D02*
X140740533Y-86238095D01*
X140454819Y-87142857D02*
X140454819Y-87761904D01*
X140454819Y-87761904D02*
X140835771Y-87428571D01*
X140835771Y-87428571D02*
X140835771Y-87571428D01*
X140835771Y-87571428D02*
X140883390Y-87666666D01*
X140883390Y-87666666D02*
X140931009Y-87714285D01*
X140931009Y-87714285D02*
X141026247Y-87761904D01*
X141026247Y-87761904D02*
X141264342Y-87761904D01*
X141264342Y-87761904D02*
X141359580Y-87714285D01*
X141359580Y-87714285D02*
X141407200Y-87666666D01*
X141407200Y-87666666D02*
X141454819Y-87571428D01*
X141454819Y-87571428D02*
X141454819Y-87285714D01*
X141454819Y-87285714D02*
X141407200Y-87190476D01*
X141407200Y-87190476D02*
X141359580Y-87142857D01*
X138954819Y-85857142D02*
X138478628Y-85523809D01*
X138954819Y-85285714D02*
X137954819Y-85285714D01*
X137954819Y-85285714D02*
X137954819Y-85666666D01*
X137954819Y-85666666D02*
X138002438Y-85761904D01*
X138002438Y-85761904D02*
X138050057Y-85809523D01*
X138050057Y-85809523D02*
X138145295Y-85857142D01*
X138145295Y-85857142D02*
X138288152Y-85857142D01*
X138288152Y-85857142D02*
X138383390Y-85809523D01*
X138383390Y-85809523D02*
X138431009Y-85761904D01*
X138431009Y-85761904D02*
X138478628Y-85666666D01*
X138478628Y-85666666D02*
X138478628Y-85285714D01*
X138954819Y-86809523D02*
X138954819Y-86238095D01*
X138954819Y-86523809D02*
X137954819Y-86523809D01*
X137954819Y-86523809D02*
X138097676Y-86428571D01*
X138097676Y-86428571D02*
X138192914Y-86333333D01*
X138192914Y-86333333D02*
X138240533Y-86238095D01*
X138050057Y-87190476D02*
X138002438Y-87238095D01*
X138002438Y-87238095D02*
X137954819Y-87333333D01*
X137954819Y-87333333D02*
X137954819Y-87571428D01*
X137954819Y-87571428D02*
X138002438Y-87666666D01*
X138002438Y-87666666D02*
X138050057Y-87714285D01*
X138050057Y-87714285D02*
X138145295Y-87761904D01*
X138145295Y-87761904D02*
X138240533Y-87761904D01*
X138240533Y-87761904D02*
X138383390Y-87714285D01*
X138383390Y-87714285D02*
X138954819Y-87142857D01*
X138954819Y-87142857D02*
X138954819Y-87761904D01*
X136454819Y-85857142D02*
X135978628Y-85523809D01*
X136454819Y-85285714D02*
X135454819Y-85285714D01*
X135454819Y-85285714D02*
X135454819Y-85666666D01*
X135454819Y-85666666D02*
X135502438Y-85761904D01*
X135502438Y-85761904D02*
X135550057Y-85809523D01*
X135550057Y-85809523D02*
X135645295Y-85857142D01*
X135645295Y-85857142D02*
X135788152Y-85857142D01*
X135788152Y-85857142D02*
X135883390Y-85809523D01*
X135883390Y-85809523D02*
X135931009Y-85761904D01*
X135931009Y-85761904D02*
X135978628Y-85666666D01*
X135978628Y-85666666D02*
X135978628Y-85285714D01*
X136454819Y-86809523D02*
X136454819Y-86238095D01*
X136454819Y-86523809D02*
X135454819Y-86523809D01*
X135454819Y-86523809D02*
X135597676Y-86428571D01*
X135597676Y-86428571D02*
X135692914Y-86333333D01*
X135692914Y-86333333D02*
X135740533Y-86238095D01*
X136454819Y-87761904D02*
X136454819Y-87190476D01*
X136454819Y-87476190D02*
X135454819Y-87476190D01*
X135454819Y-87476190D02*
X135597676Y-87380952D01*
X135597676Y-87380952D02*
X135692914Y-87285714D01*
X135692914Y-87285714D02*
X135740533Y-87190476D01*
X133954819Y-85857142D02*
X133478628Y-85523809D01*
X133954819Y-85285714D02*
X132954819Y-85285714D01*
X132954819Y-85285714D02*
X132954819Y-85666666D01*
X132954819Y-85666666D02*
X133002438Y-85761904D01*
X133002438Y-85761904D02*
X133050057Y-85809523D01*
X133050057Y-85809523D02*
X133145295Y-85857142D01*
X133145295Y-85857142D02*
X133288152Y-85857142D01*
X133288152Y-85857142D02*
X133383390Y-85809523D01*
X133383390Y-85809523D02*
X133431009Y-85761904D01*
X133431009Y-85761904D02*
X133478628Y-85666666D01*
X133478628Y-85666666D02*
X133478628Y-85285714D01*
X133954819Y-86809523D02*
X133954819Y-86238095D01*
X133954819Y-86523809D02*
X132954819Y-86523809D01*
X132954819Y-86523809D02*
X133097676Y-86428571D01*
X133097676Y-86428571D02*
X133192914Y-86333333D01*
X133192914Y-86333333D02*
X133240533Y-86238095D01*
X132954819Y-87428571D02*
X132954819Y-87523809D01*
X132954819Y-87523809D02*
X133002438Y-87619047D01*
X133002438Y-87619047D02*
X133050057Y-87666666D01*
X133050057Y-87666666D02*
X133145295Y-87714285D01*
X133145295Y-87714285D02*
X133335771Y-87761904D01*
X133335771Y-87761904D02*
X133573866Y-87761904D01*
X133573866Y-87761904D02*
X133764342Y-87714285D01*
X133764342Y-87714285D02*
X133859580Y-87666666D01*
X133859580Y-87666666D02*
X133907200Y-87619047D01*
X133907200Y-87619047D02*
X133954819Y-87523809D01*
X133954819Y-87523809D02*
X133954819Y-87428571D01*
X133954819Y-87428571D02*
X133907200Y-87333333D01*
X133907200Y-87333333D02*
X133859580Y-87285714D01*
X133859580Y-87285714D02*
X133764342Y-87238095D01*
X133764342Y-87238095D02*
X133573866Y-87190476D01*
X133573866Y-87190476D02*
X133335771Y-87190476D01*
X133335771Y-87190476D02*
X133145295Y-87238095D01*
X133145295Y-87238095D02*
X133050057Y-87285714D01*
X133050057Y-87285714D02*
X133002438Y-87333333D01*
X133002438Y-87333333D02*
X132954819Y-87428571D01*
X152238094Y-95454819D02*
X152238094Y-94454819D01*
X152238094Y-94454819D02*
X151999999Y-94454819D01*
X151999999Y-94454819D02*
X151857142Y-94502438D01*
X151857142Y-94502438D02*
X151761904Y-94597676D01*
X151761904Y-94597676D02*
X151714285Y-94692914D01*
X151714285Y-94692914D02*
X151666666Y-94883390D01*
X151666666Y-94883390D02*
X151666666Y-95026247D01*
X151666666Y-95026247D02*
X151714285Y-95216723D01*
X151714285Y-95216723D02*
X151761904Y-95311961D01*
X151761904Y-95311961D02*
X151857142Y-95407200D01*
X151857142Y-95407200D02*
X151999999Y-95454819D01*
X151999999Y-95454819D02*
X152238094Y-95454819D01*
X151095237Y-94883390D02*
X151190475Y-94835771D01*
X151190475Y-94835771D02*
X151238094Y-94788152D01*
X151238094Y-94788152D02*
X151285713Y-94692914D01*
X151285713Y-94692914D02*
X151285713Y-94645295D01*
X151285713Y-94645295D02*
X151238094Y-94550057D01*
X151238094Y-94550057D02*
X151190475Y-94502438D01*
X151190475Y-94502438D02*
X151095237Y-94454819D01*
X151095237Y-94454819D02*
X150904761Y-94454819D01*
X150904761Y-94454819D02*
X150809523Y-94502438D01*
X150809523Y-94502438D02*
X150761904Y-94550057D01*
X150761904Y-94550057D02*
X150714285Y-94645295D01*
X150714285Y-94645295D02*
X150714285Y-94692914D01*
X150714285Y-94692914D02*
X150761904Y-94788152D01*
X150761904Y-94788152D02*
X150809523Y-94835771D01*
X150809523Y-94835771D02*
X150904761Y-94883390D01*
X150904761Y-94883390D02*
X151095237Y-94883390D01*
X151095237Y-94883390D02*
X151190475Y-94931009D01*
X151190475Y-94931009D02*
X151238094Y-94978628D01*
X151238094Y-94978628D02*
X151285713Y-95073866D01*
X151285713Y-95073866D02*
X151285713Y-95264342D01*
X151285713Y-95264342D02*
X151238094Y-95359580D01*
X151238094Y-95359580D02*
X151190475Y-95407200D01*
X151190475Y-95407200D02*
X151095237Y-95454819D01*
X151095237Y-95454819D02*
X150904761Y-95454819D01*
X150904761Y-95454819D02*
X150809523Y-95407200D01*
X150809523Y-95407200D02*
X150761904Y-95359580D01*
X150761904Y-95359580D02*
X150714285Y-95264342D01*
X150714285Y-95264342D02*
X150714285Y-95073866D01*
X150714285Y-95073866D02*
X150761904Y-94978628D01*
X150761904Y-94978628D02*
X150809523Y-94931009D01*
X150809523Y-94931009D02*
X150904761Y-94883390D01*
X149738094Y-95454819D02*
X149738094Y-94454819D01*
X149738094Y-94454819D02*
X149499999Y-94454819D01*
X149499999Y-94454819D02*
X149357142Y-94502438D01*
X149357142Y-94502438D02*
X149261904Y-94597676D01*
X149261904Y-94597676D02*
X149214285Y-94692914D01*
X149214285Y-94692914D02*
X149166666Y-94883390D01*
X149166666Y-94883390D02*
X149166666Y-95026247D01*
X149166666Y-95026247D02*
X149214285Y-95216723D01*
X149214285Y-95216723D02*
X149261904Y-95311961D01*
X149261904Y-95311961D02*
X149357142Y-95407200D01*
X149357142Y-95407200D02*
X149499999Y-95454819D01*
X149499999Y-95454819D02*
X149738094Y-95454819D01*
X148833332Y-94454819D02*
X148166666Y-94454819D01*
X148166666Y-94454819D02*
X148595237Y-95454819D01*
X147238094Y-95454819D02*
X147238094Y-94454819D01*
X147238094Y-94454819D02*
X146999999Y-94454819D01*
X146999999Y-94454819D02*
X146857142Y-94502438D01*
X146857142Y-94502438D02*
X146761904Y-94597676D01*
X146761904Y-94597676D02*
X146714285Y-94692914D01*
X146714285Y-94692914D02*
X146666666Y-94883390D01*
X146666666Y-94883390D02*
X146666666Y-95026247D01*
X146666666Y-95026247D02*
X146714285Y-95216723D01*
X146714285Y-95216723D02*
X146761904Y-95311961D01*
X146761904Y-95311961D02*
X146857142Y-95407200D01*
X146857142Y-95407200D02*
X146999999Y-95454819D01*
X146999999Y-95454819D02*
X147238094Y-95454819D01*
X145809523Y-94454819D02*
X145999999Y-94454819D01*
X145999999Y-94454819D02*
X146095237Y-94502438D01*
X146095237Y-94502438D02*
X146142856Y-94550057D01*
X146142856Y-94550057D02*
X146238094Y-94692914D01*
X146238094Y-94692914D02*
X146285713Y-94883390D01*
X146285713Y-94883390D02*
X146285713Y-95264342D01*
X146285713Y-95264342D02*
X146238094Y-95359580D01*
X146238094Y-95359580D02*
X146190475Y-95407200D01*
X146190475Y-95407200D02*
X146095237Y-95454819D01*
X146095237Y-95454819D02*
X145904761Y-95454819D01*
X145904761Y-95454819D02*
X145809523Y-95407200D01*
X145809523Y-95407200D02*
X145761904Y-95359580D01*
X145761904Y-95359580D02*
X145714285Y-95264342D01*
X145714285Y-95264342D02*
X145714285Y-95026247D01*
X145714285Y-95026247D02*
X145761904Y-94931009D01*
X145761904Y-94931009D02*
X145809523Y-94883390D01*
X145809523Y-94883390D02*
X145904761Y-94835771D01*
X145904761Y-94835771D02*
X146095237Y-94835771D01*
X146095237Y-94835771D02*
X146190475Y-94883390D01*
X146190475Y-94883390D02*
X146238094Y-94931009D01*
X146238094Y-94931009D02*
X146285713Y-95026247D01*
X144738094Y-95454819D02*
X144738094Y-94454819D01*
X144738094Y-94454819D02*
X144499999Y-94454819D01*
X144499999Y-94454819D02*
X144357142Y-94502438D01*
X144357142Y-94502438D02*
X144261904Y-94597676D01*
X144261904Y-94597676D02*
X144214285Y-94692914D01*
X144214285Y-94692914D02*
X144166666Y-94883390D01*
X144166666Y-94883390D02*
X144166666Y-95026247D01*
X144166666Y-95026247D02*
X144214285Y-95216723D01*
X144214285Y-95216723D02*
X144261904Y-95311961D01*
X144261904Y-95311961D02*
X144357142Y-95407200D01*
X144357142Y-95407200D02*
X144499999Y-95454819D01*
X144499999Y-95454819D02*
X144738094Y-95454819D01*
X143261904Y-94454819D02*
X143738094Y-94454819D01*
X143738094Y-94454819D02*
X143785713Y-94931009D01*
X143785713Y-94931009D02*
X143738094Y-94883390D01*
X143738094Y-94883390D02*
X143642856Y-94835771D01*
X143642856Y-94835771D02*
X143404761Y-94835771D01*
X143404761Y-94835771D02*
X143309523Y-94883390D01*
X143309523Y-94883390D02*
X143261904Y-94931009D01*
X143261904Y-94931009D02*
X143214285Y-95026247D01*
X143214285Y-95026247D02*
X143214285Y-95264342D01*
X143214285Y-95264342D02*
X143261904Y-95359580D01*
X143261904Y-95359580D02*
X143309523Y-95407200D01*
X143309523Y-95407200D02*
X143404761Y-95454819D01*
X143404761Y-95454819D02*
X143642856Y-95454819D01*
X143642856Y-95454819D02*
X143738094Y-95407200D01*
X143738094Y-95407200D02*
X143785713Y-95359580D01*
X141738094Y-95454819D02*
X141738094Y-94454819D01*
X141738094Y-94454819D02*
X141499999Y-94454819D01*
X141499999Y-94454819D02*
X141357142Y-94502438D01*
X141357142Y-94502438D02*
X141261904Y-94597676D01*
X141261904Y-94597676D02*
X141214285Y-94692914D01*
X141214285Y-94692914D02*
X141166666Y-94883390D01*
X141166666Y-94883390D02*
X141166666Y-95026247D01*
X141166666Y-95026247D02*
X141214285Y-95216723D01*
X141214285Y-95216723D02*
X141261904Y-95311961D01*
X141261904Y-95311961D02*
X141357142Y-95407200D01*
X141357142Y-95407200D02*
X141499999Y-95454819D01*
X141499999Y-95454819D02*
X141738094Y-95454819D01*
X140309523Y-94788152D02*
X140309523Y-95454819D01*
X140547618Y-94407200D02*
X140785713Y-95121485D01*
X140785713Y-95121485D02*
X140166666Y-95121485D01*
X139238094Y-95454819D02*
X139238094Y-94454819D01*
X139238094Y-94454819D02*
X138999999Y-94454819D01*
X138999999Y-94454819D02*
X138857142Y-94502438D01*
X138857142Y-94502438D02*
X138761904Y-94597676D01*
X138761904Y-94597676D02*
X138714285Y-94692914D01*
X138714285Y-94692914D02*
X138666666Y-94883390D01*
X138666666Y-94883390D02*
X138666666Y-95026247D01*
X138666666Y-95026247D02*
X138714285Y-95216723D01*
X138714285Y-95216723D02*
X138761904Y-95311961D01*
X138761904Y-95311961D02*
X138857142Y-95407200D01*
X138857142Y-95407200D02*
X138999999Y-95454819D01*
X138999999Y-95454819D02*
X139238094Y-95454819D01*
X138333332Y-94454819D02*
X137714285Y-94454819D01*
X137714285Y-94454819D02*
X138047618Y-94835771D01*
X138047618Y-94835771D02*
X137904761Y-94835771D01*
X137904761Y-94835771D02*
X137809523Y-94883390D01*
X137809523Y-94883390D02*
X137761904Y-94931009D01*
X137761904Y-94931009D02*
X137714285Y-95026247D01*
X137714285Y-95026247D02*
X137714285Y-95264342D01*
X137714285Y-95264342D02*
X137761904Y-95359580D01*
X137761904Y-95359580D02*
X137809523Y-95407200D01*
X137809523Y-95407200D02*
X137904761Y-95454819D01*
X137904761Y-95454819D02*
X138190475Y-95454819D01*
X138190475Y-95454819D02*
X138285713Y-95407200D01*
X138285713Y-95407200D02*
X138333332Y-95359580D01*
X136738094Y-95454819D02*
X136738094Y-94454819D01*
X136738094Y-94454819D02*
X136499999Y-94454819D01*
X136499999Y-94454819D02*
X136357142Y-94502438D01*
X136357142Y-94502438D02*
X136261904Y-94597676D01*
X136261904Y-94597676D02*
X136214285Y-94692914D01*
X136214285Y-94692914D02*
X136166666Y-94883390D01*
X136166666Y-94883390D02*
X136166666Y-95026247D01*
X136166666Y-95026247D02*
X136214285Y-95216723D01*
X136214285Y-95216723D02*
X136261904Y-95311961D01*
X136261904Y-95311961D02*
X136357142Y-95407200D01*
X136357142Y-95407200D02*
X136499999Y-95454819D01*
X136499999Y-95454819D02*
X136738094Y-95454819D01*
X135785713Y-94550057D02*
X135738094Y-94502438D01*
X135738094Y-94502438D02*
X135642856Y-94454819D01*
X135642856Y-94454819D02*
X135404761Y-94454819D01*
X135404761Y-94454819D02*
X135309523Y-94502438D01*
X135309523Y-94502438D02*
X135261904Y-94550057D01*
X135261904Y-94550057D02*
X135214285Y-94645295D01*
X135214285Y-94645295D02*
X135214285Y-94740533D01*
X135214285Y-94740533D02*
X135261904Y-94883390D01*
X135261904Y-94883390D02*
X135833332Y-95454819D01*
X135833332Y-95454819D02*
X135214285Y-95454819D01*
X134238094Y-95454819D02*
X134238094Y-94454819D01*
X134238094Y-94454819D02*
X133999999Y-94454819D01*
X133999999Y-94454819D02*
X133857142Y-94502438D01*
X133857142Y-94502438D02*
X133761904Y-94597676D01*
X133761904Y-94597676D02*
X133714285Y-94692914D01*
X133714285Y-94692914D02*
X133666666Y-94883390D01*
X133666666Y-94883390D02*
X133666666Y-95026247D01*
X133666666Y-95026247D02*
X133714285Y-95216723D01*
X133714285Y-95216723D02*
X133761904Y-95311961D01*
X133761904Y-95311961D02*
X133857142Y-95407200D01*
X133857142Y-95407200D02*
X133999999Y-95454819D01*
X133999999Y-95454819D02*
X134238094Y-95454819D01*
X132714285Y-95454819D02*
X133285713Y-95454819D01*
X132999999Y-95454819D02*
X132999999Y-94454819D01*
X132999999Y-94454819D02*
X133095237Y-94597676D01*
X133095237Y-94597676D02*
X133190475Y-94692914D01*
X133190475Y-94692914D02*
X133285713Y-94740533D01*
G04 #@! TO.C,R17*
D11*
X150977500Y-90254724D02*
X150977500Y-89745276D01*
X152022500Y-90254724D02*
X152022500Y-89745276D01*
G04 #@! TO.C,R16*
X149522500Y-90254724D02*
X149522500Y-89745276D01*
X148477500Y-90254724D02*
X148477500Y-89745276D01*
G04 #@! TO.C,R15*
X147022500Y-90254724D02*
X147022500Y-89745276D01*
X145977500Y-90254724D02*
X145977500Y-89745276D01*
G04 #@! TO.C,R14*
X143477500Y-90254724D02*
X143477500Y-89745276D01*
X144522500Y-90254724D02*
X144522500Y-89745276D01*
G04 #@! TO.C,R13*
X140477500Y-90254724D02*
X140477500Y-89745276D01*
X141522500Y-90254724D02*
X141522500Y-89745276D01*
G04 #@! TO.C,R12*
X137977500Y-90254724D02*
X137977500Y-89745276D01*
X139022500Y-90254724D02*
X139022500Y-89745276D01*
G04 #@! TO.C,R11*
X135477500Y-90254724D02*
X135477500Y-89745276D01*
X136522500Y-90254724D02*
X136522500Y-89745276D01*
G04 #@! TO.C,R10*
X134022500Y-90254724D02*
X134022500Y-89745276D01*
X132977500Y-90254724D02*
X132977500Y-89745276D01*
G04 #@! TO.C,D8*
D12*
X152400000Y-92800000D02*
X152400000Y-93900000D01*
X150600000Y-93900000D02*
X150600000Y-92800000D01*
X152400000Y-93900000D02*
X150600000Y-93900000D01*
G04 #@! TO.C,D7*
X149900000Y-92800000D02*
X149900000Y-93900000D01*
X148100000Y-93900000D02*
X148100000Y-92800000D01*
X149900000Y-93900000D02*
X148100000Y-93900000D01*
G04 #@! TO.C,D6*
X147400000Y-92800000D02*
X147400000Y-93900000D01*
X145600000Y-93900000D02*
X145600000Y-92800000D01*
X147400000Y-93900000D02*
X145600000Y-93900000D01*
G04 #@! TO.C,D5*
X144900000Y-92800000D02*
X144900000Y-93900000D01*
X143100000Y-93900000D02*
X143100000Y-92800000D01*
X144900000Y-93900000D02*
X143100000Y-93900000D01*
G04 #@! TO.C,D4*
X141900000Y-92800000D02*
X141900000Y-93900000D01*
X140100000Y-93900000D02*
X140100000Y-92800000D01*
X141900000Y-93900000D02*
X140100000Y-93900000D01*
G04 #@! TO.C,D3*
X139400000Y-92800000D02*
X139400000Y-93900000D01*
X137600000Y-93900000D02*
X137600000Y-92800000D01*
X139400000Y-93900000D02*
X137600000Y-93900000D01*
G04 #@! TO.C,D2*
X136900000Y-92800000D02*
X136900000Y-93900000D01*
X135100000Y-93900000D02*
X135100000Y-92800000D01*
X136900000Y-93900000D02*
X135100000Y-93900000D01*
G04 #@! TO.C,D1*
X134400000Y-92800000D02*
X134400000Y-93900000D01*
X132600000Y-93900000D02*
X132600000Y-92800000D01*
X134400000Y-93900000D02*
X132600000Y-93900000D01*
G04 #@! TD*
M02*
