G04 #@! TF.GenerationSoftware,KiCad,Pcbnew,10.0.3-10.0.3~ubuntu26.04.1*
G04 #@! TF.CreationDate,2026-07-25T22:04:26+03:00*
G04 #@! TF.ProjectId,retrolight-main,72657472-6f6c-4696-9768-742d6d61696e,B*
G04 #@! TF.SameCoordinates,Original*
G04 #@! TF.FileFunction,Legend,Top*
G04 #@! TF.FilePolarity,Positive*
%FSLAX46Y46*%
G04 Gerber Fmt 4.6, Leading zero omitted, Abs format (unit mm)*
G04 Created by KiCad (PCBNEW 10.0.3-10.0.3~ubuntu26.04.1) date 2026-07-25 22:04:26*
%MOMM*%
%LPD*%
G01*
G04 APERTURE LIST*
%ADD10C,0.150000*%
%ADD11C,0.120000*%
G04 APERTURE END LIST*
D10*
X136333333Y-92954819D02*
X136000000Y-92478628D01*
X135761905Y-92954819D02*
X135761905Y-91954819D01*
X135761905Y-91954819D02*
X136142857Y-91954819D01*
X136142857Y-91954819D02*
X136238095Y-92002438D01*
X136238095Y-92002438D02*
X136285714Y-92050057D01*
X136285714Y-92050057D02*
X136333333Y-92145295D01*
X136333333Y-92145295D02*
X136333333Y-92288152D01*
X136333333Y-92288152D02*
X136285714Y-92383390D01*
X136285714Y-92383390D02*
X136238095Y-92431009D01*
X136238095Y-92431009D02*
X136142857Y-92478628D01*
X136142857Y-92478628D02*
X135761905Y-92478628D01*
X136809524Y-92954819D02*
X137000000Y-92954819D01*
X137000000Y-92954819D02*
X137095238Y-92907200D01*
X137095238Y-92907200D02*
X137142857Y-92859580D01*
X137142857Y-92859580D02*
X137238095Y-92716723D01*
X137238095Y-92716723D02*
X137285714Y-92526247D01*
X137285714Y-92526247D02*
X137285714Y-92145295D01*
X137285714Y-92145295D02*
X137238095Y-92050057D01*
X137238095Y-92050057D02*
X137190476Y-92002438D01*
X137190476Y-92002438D02*
X137095238Y-91954819D01*
X137095238Y-91954819D02*
X136904762Y-91954819D01*
X136904762Y-91954819D02*
X136809524Y-92002438D01*
X136809524Y-92002438D02*
X136761905Y-92050057D01*
X136761905Y-92050057D02*
X136714286Y-92145295D01*
X136714286Y-92145295D02*
X136714286Y-92383390D01*
X136714286Y-92383390D02*
X136761905Y-92478628D01*
X136761905Y-92478628D02*
X136809524Y-92526247D01*
X136809524Y-92526247D02*
X136904762Y-92573866D01*
X136904762Y-92573866D02*
X137095238Y-92573866D01*
X137095238Y-92573866D02*
X137190476Y-92526247D01*
X137190476Y-92526247D02*
X137238095Y-92478628D01*
X137238095Y-92478628D02*
X137285714Y-92383390D01*
X126333333Y-92954819D02*
X126000000Y-92478628D01*
X125761905Y-92954819D02*
X125761905Y-91954819D01*
X125761905Y-91954819D02*
X126142857Y-91954819D01*
X126142857Y-91954819D02*
X126238095Y-92002438D01*
X126238095Y-92002438D02*
X126285714Y-92050057D01*
X126285714Y-92050057D02*
X126333333Y-92145295D01*
X126333333Y-92145295D02*
X126333333Y-92288152D01*
X126333333Y-92288152D02*
X126285714Y-92383390D01*
X126285714Y-92383390D02*
X126238095Y-92431009D01*
X126238095Y-92431009D02*
X126142857Y-92478628D01*
X126142857Y-92478628D02*
X125761905Y-92478628D01*
X127238095Y-91954819D02*
X126761905Y-91954819D01*
X126761905Y-91954819D02*
X126714286Y-92431009D01*
X126714286Y-92431009D02*
X126761905Y-92383390D01*
X126761905Y-92383390D02*
X126857143Y-92335771D01*
X126857143Y-92335771D02*
X127095238Y-92335771D01*
X127095238Y-92335771D02*
X127190476Y-92383390D01*
X127190476Y-92383390D02*
X127238095Y-92431009D01*
X127238095Y-92431009D02*
X127285714Y-92526247D01*
X127285714Y-92526247D02*
X127285714Y-92764342D01*
X127285714Y-92764342D02*
X127238095Y-92859580D01*
X127238095Y-92859580D02*
X127190476Y-92907200D01*
X127190476Y-92907200D02*
X127095238Y-92954819D01*
X127095238Y-92954819D02*
X126857143Y-92954819D01*
X126857143Y-92954819D02*
X126761905Y-92907200D01*
X126761905Y-92907200D02*
X126714286Y-92859580D01*
X136333333Y-88454819D02*
X136000000Y-87978628D01*
X135761905Y-88454819D02*
X135761905Y-87454819D01*
X135761905Y-87454819D02*
X136142857Y-87454819D01*
X136142857Y-87454819D02*
X136238095Y-87502438D01*
X136238095Y-87502438D02*
X136285714Y-87550057D01*
X136285714Y-87550057D02*
X136333333Y-87645295D01*
X136333333Y-87645295D02*
X136333333Y-87788152D01*
X136333333Y-87788152D02*
X136285714Y-87883390D01*
X136285714Y-87883390D02*
X136238095Y-87931009D01*
X136238095Y-87931009D02*
X136142857Y-87978628D01*
X136142857Y-87978628D02*
X135761905Y-87978628D01*
X136666667Y-87454819D02*
X137333333Y-87454819D01*
X137333333Y-87454819D02*
X136904762Y-88454819D01*
X159238095Y-95704819D02*
X159238095Y-94704819D01*
X159238095Y-95181009D02*
X159809523Y-95181009D01*
X159809523Y-95704819D02*
X159809523Y-94704819D01*
X160238095Y-94800057D02*
X160285714Y-94752438D01*
X160285714Y-94752438D02*
X160380952Y-94704819D01*
X160380952Y-94704819D02*
X160619047Y-94704819D01*
X160619047Y-94704819D02*
X160714285Y-94752438D01*
X160714285Y-94752438D02*
X160761904Y-94800057D01*
X160761904Y-94800057D02*
X160809523Y-94895295D01*
X160809523Y-94895295D02*
X160809523Y-94990533D01*
X160809523Y-94990533D02*
X160761904Y-95133390D01*
X160761904Y-95133390D02*
X160190476Y-95704819D01*
X160190476Y-95704819D02*
X160809523Y-95704819D01*
X141857142Y-86454819D02*
X141523809Y-85978628D01*
X141285714Y-86454819D02*
X141285714Y-85454819D01*
X141285714Y-85454819D02*
X141666666Y-85454819D01*
X141666666Y-85454819D02*
X141761904Y-85502438D01*
X141761904Y-85502438D02*
X141809523Y-85550057D01*
X141809523Y-85550057D02*
X141857142Y-85645295D01*
X141857142Y-85645295D02*
X141857142Y-85788152D01*
X141857142Y-85788152D02*
X141809523Y-85883390D01*
X141809523Y-85883390D02*
X141761904Y-85931009D01*
X141761904Y-85931009D02*
X141666666Y-85978628D01*
X141666666Y-85978628D02*
X141285714Y-85978628D01*
X142809523Y-86454819D02*
X142238095Y-86454819D01*
X142523809Y-86454819D02*
X142523809Y-85454819D01*
X142523809Y-85454819D02*
X142428571Y-85597676D01*
X142428571Y-85597676D02*
X142333333Y-85692914D01*
X142333333Y-85692914D02*
X142238095Y-85740533D01*
X143428571Y-85454819D02*
X143523809Y-85454819D01*
X143523809Y-85454819D02*
X143619047Y-85502438D01*
X143619047Y-85502438D02*
X143666666Y-85550057D01*
X143666666Y-85550057D02*
X143714285Y-85645295D01*
X143714285Y-85645295D02*
X143761904Y-85835771D01*
X143761904Y-85835771D02*
X143761904Y-86073866D01*
X143761904Y-86073866D02*
X143714285Y-86264342D01*
X143714285Y-86264342D02*
X143666666Y-86359580D01*
X143666666Y-86359580D02*
X143619047Y-86407200D01*
X143619047Y-86407200D02*
X143523809Y-86454819D01*
X143523809Y-86454819D02*
X143428571Y-86454819D01*
X143428571Y-86454819D02*
X143333333Y-86407200D01*
X143333333Y-86407200D02*
X143285714Y-86359580D01*
X143285714Y-86359580D02*
X143238095Y-86264342D01*
X143238095Y-86264342D02*
X143190476Y-86073866D01*
X143190476Y-86073866D02*
X143190476Y-85835771D01*
X143190476Y-85835771D02*
X143238095Y-85645295D01*
X143238095Y-85645295D02*
X143285714Y-85550057D01*
X143285714Y-85550057D02*
X143333333Y-85502438D01*
X143333333Y-85502438D02*
X143428571Y-85454819D01*
X126333333Y-90954819D02*
X126000000Y-90478628D01*
X125761905Y-90954819D02*
X125761905Y-89954819D01*
X125761905Y-89954819D02*
X126142857Y-89954819D01*
X126142857Y-89954819D02*
X126238095Y-90002438D01*
X126238095Y-90002438D02*
X126285714Y-90050057D01*
X126285714Y-90050057D02*
X126333333Y-90145295D01*
X126333333Y-90145295D02*
X126333333Y-90288152D01*
X126333333Y-90288152D02*
X126285714Y-90383390D01*
X126285714Y-90383390D02*
X126238095Y-90431009D01*
X126238095Y-90431009D02*
X126142857Y-90478628D01*
X126142857Y-90478628D02*
X125761905Y-90478628D01*
X127190476Y-90288152D02*
X127190476Y-90954819D01*
X126952381Y-89907200D02*
X126714286Y-90621485D01*
X126714286Y-90621485D02*
X127333333Y-90621485D01*
X136333333Y-86454819D02*
X136000000Y-85978628D01*
X135761905Y-86454819D02*
X135761905Y-85454819D01*
X135761905Y-85454819D02*
X136142857Y-85454819D01*
X136142857Y-85454819D02*
X136238095Y-85502438D01*
X136238095Y-85502438D02*
X136285714Y-85550057D01*
X136285714Y-85550057D02*
X136333333Y-85645295D01*
X136333333Y-85645295D02*
X136333333Y-85788152D01*
X136333333Y-85788152D02*
X136285714Y-85883390D01*
X136285714Y-85883390D02*
X136238095Y-85931009D01*
X136238095Y-85931009D02*
X136142857Y-85978628D01*
X136142857Y-85978628D02*
X135761905Y-85978628D01*
X137190476Y-85454819D02*
X137000000Y-85454819D01*
X137000000Y-85454819D02*
X136904762Y-85502438D01*
X136904762Y-85502438D02*
X136857143Y-85550057D01*
X136857143Y-85550057D02*
X136761905Y-85692914D01*
X136761905Y-85692914D02*
X136714286Y-85883390D01*
X136714286Y-85883390D02*
X136714286Y-86264342D01*
X136714286Y-86264342D02*
X136761905Y-86359580D01*
X136761905Y-86359580D02*
X136809524Y-86407200D01*
X136809524Y-86407200D02*
X136904762Y-86454819D01*
X136904762Y-86454819D02*
X137095238Y-86454819D01*
X137095238Y-86454819D02*
X137190476Y-86407200D01*
X137190476Y-86407200D02*
X137238095Y-86359580D01*
X137238095Y-86359580D02*
X137285714Y-86264342D01*
X137285714Y-86264342D02*
X137285714Y-86026247D01*
X137285714Y-86026247D02*
X137238095Y-85931009D01*
X137238095Y-85931009D02*
X137190476Y-85883390D01*
X137190476Y-85883390D02*
X137095238Y-85835771D01*
X137095238Y-85835771D02*
X136904762Y-85835771D01*
X136904762Y-85835771D02*
X136809524Y-85883390D01*
X136809524Y-85883390D02*
X136761905Y-85931009D01*
X136761905Y-85931009D02*
X136714286Y-86026247D01*
X147833333Y-89359580D02*
X147785714Y-89407200D01*
X147785714Y-89407200D02*
X147642857Y-89454819D01*
X147642857Y-89454819D02*
X147547619Y-89454819D01*
X147547619Y-89454819D02*
X147404762Y-89407200D01*
X147404762Y-89407200D02*
X147309524Y-89311961D01*
X147309524Y-89311961D02*
X147261905Y-89216723D01*
X147261905Y-89216723D02*
X147214286Y-89026247D01*
X147214286Y-89026247D02*
X147214286Y-88883390D01*
X147214286Y-88883390D02*
X147261905Y-88692914D01*
X147261905Y-88692914D02*
X147309524Y-88597676D01*
X147309524Y-88597676D02*
X147404762Y-88502438D01*
X147404762Y-88502438D02*
X147547619Y-88454819D01*
X147547619Y-88454819D02*
X147642857Y-88454819D01*
X147642857Y-88454819D02*
X147785714Y-88502438D01*
X147785714Y-88502438D02*
X147833333Y-88550057D01*
X148214286Y-88550057D02*
X148261905Y-88502438D01*
X148261905Y-88502438D02*
X148357143Y-88454819D01*
X148357143Y-88454819D02*
X148595238Y-88454819D01*
X148595238Y-88454819D02*
X148690476Y-88502438D01*
X148690476Y-88502438D02*
X148738095Y-88550057D01*
X148738095Y-88550057D02*
X148785714Y-88645295D01*
X148785714Y-88645295D02*
X148785714Y-88740533D01*
X148785714Y-88740533D02*
X148738095Y-88883390D01*
X148738095Y-88883390D02*
X148166667Y-89454819D01*
X148166667Y-89454819D02*
X148785714Y-89454819D01*
X144738095Y-85454819D02*
X144738095Y-86264342D01*
X144738095Y-86264342D02*
X144785714Y-86359580D01*
X144785714Y-86359580D02*
X144833333Y-86407200D01*
X144833333Y-86407200D02*
X144928571Y-86454819D01*
X144928571Y-86454819D02*
X145119047Y-86454819D01*
X145119047Y-86454819D02*
X145214285Y-86407200D01*
X145214285Y-86407200D02*
X145261904Y-86359580D01*
X145261904Y-86359580D02*
X145309523Y-86264342D01*
X145309523Y-86264342D02*
X145309523Y-85454819D01*
X146309523Y-86454819D02*
X145738095Y-86454819D01*
X146023809Y-86454819D02*
X146023809Y-85454819D01*
X146023809Y-85454819D02*
X145928571Y-85597676D01*
X145928571Y-85597676D02*
X145833333Y-85692914D01*
X145833333Y-85692914D02*
X145738095Y-85740533D01*
X154166666Y-99222319D02*
X154166666Y-99936604D01*
X154166666Y-99936604D02*
X154119047Y-100079461D01*
X154119047Y-100079461D02*
X154023809Y-100174700D01*
X154023809Y-100174700D02*
X153880952Y-100222319D01*
X153880952Y-100222319D02*
X153785714Y-100222319D01*
X155166666Y-100222319D02*
X154595238Y-100222319D01*
X154880952Y-100222319D02*
X154880952Y-99222319D01*
X154880952Y-99222319D02*
X154785714Y-99365176D01*
X154785714Y-99365176D02*
X154690476Y-99460414D01*
X154690476Y-99460414D02*
X154595238Y-99508033D01*
X124238095Y-95704819D02*
X124238095Y-94704819D01*
X124238095Y-95181009D02*
X124809523Y-95181009D01*
X124809523Y-95704819D02*
X124809523Y-94704819D01*
X125809523Y-95704819D02*
X125238095Y-95704819D01*
X125523809Y-95704819D02*
X125523809Y-94704819D01*
X125523809Y-94704819D02*
X125428571Y-94847676D01*
X125428571Y-94847676D02*
X125333333Y-94942914D01*
X125333333Y-94942914D02*
X125238095Y-94990533D01*
X126333333Y-86454819D02*
X126000000Y-85978628D01*
X125761905Y-86454819D02*
X125761905Y-85454819D01*
X125761905Y-85454819D02*
X126142857Y-85454819D01*
X126142857Y-85454819D02*
X126238095Y-85502438D01*
X126238095Y-85502438D02*
X126285714Y-85550057D01*
X126285714Y-85550057D02*
X126333333Y-85645295D01*
X126333333Y-85645295D02*
X126333333Y-85788152D01*
X126333333Y-85788152D02*
X126285714Y-85883390D01*
X126285714Y-85883390D02*
X126238095Y-85931009D01*
X126238095Y-85931009D02*
X126142857Y-85978628D01*
X126142857Y-85978628D02*
X125761905Y-85978628D01*
X126714286Y-85550057D02*
X126761905Y-85502438D01*
X126761905Y-85502438D02*
X126857143Y-85454819D01*
X126857143Y-85454819D02*
X127095238Y-85454819D01*
X127095238Y-85454819D02*
X127190476Y-85502438D01*
X127190476Y-85502438D02*
X127238095Y-85550057D01*
X127238095Y-85550057D02*
X127285714Y-85645295D01*
X127285714Y-85645295D02*
X127285714Y-85740533D01*
X127285714Y-85740533D02*
X127238095Y-85883390D01*
X127238095Y-85883390D02*
X126666667Y-86454819D01*
X126666667Y-86454819D02*
X127285714Y-86454819D01*
X136333333Y-90954819D02*
X136000000Y-90478628D01*
X135761905Y-90954819D02*
X135761905Y-89954819D01*
X135761905Y-89954819D02*
X136142857Y-89954819D01*
X136142857Y-89954819D02*
X136238095Y-90002438D01*
X136238095Y-90002438D02*
X136285714Y-90050057D01*
X136285714Y-90050057D02*
X136333333Y-90145295D01*
X136333333Y-90145295D02*
X136333333Y-90288152D01*
X136333333Y-90288152D02*
X136285714Y-90383390D01*
X136285714Y-90383390D02*
X136238095Y-90431009D01*
X136238095Y-90431009D02*
X136142857Y-90478628D01*
X136142857Y-90478628D02*
X135761905Y-90478628D01*
X136904762Y-90383390D02*
X136809524Y-90335771D01*
X136809524Y-90335771D02*
X136761905Y-90288152D01*
X136761905Y-90288152D02*
X136714286Y-90192914D01*
X136714286Y-90192914D02*
X136714286Y-90145295D01*
X136714286Y-90145295D02*
X136761905Y-90050057D01*
X136761905Y-90050057D02*
X136809524Y-90002438D01*
X136809524Y-90002438D02*
X136904762Y-89954819D01*
X136904762Y-89954819D02*
X137095238Y-89954819D01*
X137095238Y-89954819D02*
X137190476Y-90002438D01*
X137190476Y-90002438D02*
X137238095Y-90050057D01*
X137238095Y-90050057D02*
X137285714Y-90145295D01*
X137285714Y-90145295D02*
X137285714Y-90192914D01*
X137285714Y-90192914D02*
X137238095Y-90288152D01*
X137238095Y-90288152D02*
X137190476Y-90335771D01*
X137190476Y-90335771D02*
X137095238Y-90383390D01*
X137095238Y-90383390D02*
X136904762Y-90383390D01*
X136904762Y-90383390D02*
X136809524Y-90431009D01*
X136809524Y-90431009D02*
X136761905Y-90478628D01*
X136761905Y-90478628D02*
X136714286Y-90573866D01*
X136714286Y-90573866D02*
X136714286Y-90764342D01*
X136714286Y-90764342D02*
X136761905Y-90859580D01*
X136761905Y-90859580D02*
X136809524Y-90907200D01*
X136809524Y-90907200D02*
X136904762Y-90954819D01*
X136904762Y-90954819D02*
X137095238Y-90954819D01*
X137095238Y-90954819D02*
X137190476Y-90907200D01*
X137190476Y-90907200D02*
X137238095Y-90859580D01*
X137238095Y-90859580D02*
X137285714Y-90764342D01*
X137285714Y-90764342D02*
X137285714Y-90573866D01*
X137285714Y-90573866D02*
X137238095Y-90478628D01*
X137238095Y-90478628D02*
X137190476Y-90431009D01*
X137190476Y-90431009D02*
X137095238Y-90383390D01*
X126333333Y-88454819D02*
X126000000Y-87978628D01*
X125761905Y-88454819D02*
X125761905Y-87454819D01*
X125761905Y-87454819D02*
X126142857Y-87454819D01*
X126142857Y-87454819D02*
X126238095Y-87502438D01*
X126238095Y-87502438D02*
X126285714Y-87550057D01*
X126285714Y-87550057D02*
X126333333Y-87645295D01*
X126333333Y-87645295D02*
X126333333Y-87788152D01*
X126333333Y-87788152D02*
X126285714Y-87883390D01*
X126285714Y-87883390D02*
X126238095Y-87931009D01*
X126238095Y-87931009D02*
X126142857Y-87978628D01*
X126142857Y-87978628D02*
X125761905Y-87978628D01*
X126666667Y-87454819D02*
X127285714Y-87454819D01*
X127285714Y-87454819D02*
X126952381Y-87835771D01*
X126952381Y-87835771D02*
X127095238Y-87835771D01*
X127095238Y-87835771D02*
X127190476Y-87883390D01*
X127190476Y-87883390D02*
X127238095Y-87931009D01*
X127238095Y-87931009D02*
X127285714Y-88026247D01*
X127285714Y-88026247D02*
X127285714Y-88264342D01*
X127285714Y-88264342D02*
X127238095Y-88359580D01*
X127238095Y-88359580D02*
X127190476Y-88407200D01*
X127190476Y-88407200D02*
X127095238Y-88454819D01*
X127095238Y-88454819D02*
X126809524Y-88454819D01*
X126809524Y-88454819D02*
X126714286Y-88407200D01*
X126714286Y-88407200D02*
X126666667Y-88359580D01*
X147833333Y-90954819D02*
X147500000Y-90478628D01*
X147261905Y-90954819D02*
X147261905Y-89954819D01*
X147261905Y-89954819D02*
X147642857Y-89954819D01*
X147642857Y-89954819D02*
X147738095Y-90002438D01*
X147738095Y-90002438D02*
X147785714Y-90050057D01*
X147785714Y-90050057D02*
X147833333Y-90145295D01*
X147833333Y-90145295D02*
X147833333Y-90288152D01*
X147833333Y-90288152D02*
X147785714Y-90383390D01*
X147785714Y-90383390D02*
X147738095Y-90431009D01*
X147738095Y-90431009D02*
X147642857Y-90478628D01*
X147642857Y-90478628D02*
X147261905Y-90478628D01*
X148785714Y-90954819D02*
X148214286Y-90954819D01*
X148500000Y-90954819D02*
X148500000Y-89954819D01*
X148500000Y-89954819D02*
X148404762Y-90097676D01*
X148404762Y-90097676D02*
X148309524Y-90192914D01*
X148309524Y-90192914D02*
X148214286Y-90240533D01*
X149833333Y-89359580D02*
X149785714Y-89407200D01*
X149785714Y-89407200D02*
X149642857Y-89454819D01*
X149642857Y-89454819D02*
X149547619Y-89454819D01*
X149547619Y-89454819D02*
X149404762Y-89407200D01*
X149404762Y-89407200D02*
X149309524Y-89311961D01*
X149309524Y-89311961D02*
X149261905Y-89216723D01*
X149261905Y-89216723D02*
X149214286Y-89026247D01*
X149214286Y-89026247D02*
X149214286Y-88883390D01*
X149214286Y-88883390D02*
X149261905Y-88692914D01*
X149261905Y-88692914D02*
X149309524Y-88597676D01*
X149309524Y-88597676D02*
X149404762Y-88502438D01*
X149404762Y-88502438D02*
X149547619Y-88454819D01*
X149547619Y-88454819D02*
X149642857Y-88454819D01*
X149642857Y-88454819D02*
X149785714Y-88502438D01*
X149785714Y-88502438D02*
X149833333Y-88550057D01*
X150785714Y-89454819D02*
X150214286Y-89454819D01*
X150500000Y-89454819D02*
X150500000Y-88454819D01*
X150500000Y-88454819D02*
X150404762Y-88597676D01*
X150404762Y-88597676D02*
X150309524Y-88692914D01*
X150309524Y-88692914D02*
X150214286Y-88740533D01*
G04 #@! TO.C,R9*
D11*
X133245276Y-91977500D02*
X133754724Y-91977500D01*
X133245276Y-93022500D02*
X133754724Y-93022500D01*
G04 #@! TO.C,R5*
X129754724Y-91977500D02*
X129245276Y-91977500D01*
X129754724Y-93022500D02*
X129245276Y-93022500D01*
G04 #@! TO.C,R7*
X133245276Y-87477500D02*
X133754724Y-87477500D01*
X133245276Y-88522500D02*
X133754724Y-88522500D01*
G04 #@! TO.C,R10*
X139754724Y-85477500D02*
X139245276Y-85477500D01*
X139754724Y-86522500D02*
X139245276Y-86522500D01*
G04 #@! TO.C,R4*
X129754724Y-89977500D02*
X129245276Y-89977500D01*
X129754724Y-91022500D02*
X129245276Y-91022500D01*
G04 #@! TO.C,R6*
X133245276Y-85477500D02*
X133754724Y-85477500D01*
X133245276Y-86522500D02*
X133754724Y-86522500D01*
G04 #@! TO.C,C2*
X147490000Y-86646267D02*
X147490000Y-86353733D01*
X148510000Y-86646267D02*
X148510000Y-86353733D01*
G04 #@! TO.C,U1*
X140190000Y-87115000D02*
X144810000Y-87115000D01*
X144810000Y-93885000D02*
X140190000Y-93885000D01*
X138640000Y-87570000D02*
X138310000Y-87810000D01*
X138310000Y-87330000D01*
X138640000Y-87570000D01*
G36*
X138640000Y-87570000D02*
G01*
X138310000Y-87810000D01*
X138310000Y-87330000D01*
X138640000Y-87570000D01*
G37*
G04 #@! TO.C,J1*
X152790000Y-104327500D02*
X132210000Y-104327500D01*
X152790000Y-95207500D02*
X152790000Y-104327500D01*
X151490000Y-103017500D02*
X133510000Y-103017500D01*
X151490000Y-96517500D02*
X151490000Y-103017500D01*
X148080000Y-93817500D02*
X147080000Y-93817500D01*
X147580000Y-94817500D02*
X148080000Y-93817500D01*
X147080000Y-93817500D02*
X147580000Y-94817500D01*
X144550000Y-96517500D02*
X151490000Y-96517500D01*
X144550000Y-95207500D02*
X144550000Y-96517500D01*
X140450000Y-96517500D02*
X140450000Y-95207500D01*
X133510000Y-103017500D02*
X133510000Y-96517500D01*
X133510000Y-96517500D02*
X140450000Y-96517500D01*
X132210000Y-104327500D02*
X132210000Y-95207500D01*
X132210000Y-95207500D02*
X152790000Y-95207500D01*
G04 #@! TO.C,R2*
X129754724Y-85477500D02*
X129245276Y-85477500D01*
X129754724Y-86522500D02*
X129245276Y-86522500D01*
G04 #@! TO.C,R8*
X133245276Y-89977500D02*
X133754724Y-89977500D01*
X133245276Y-91022500D02*
X133754724Y-91022500D01*
G04 #@! TO.C,R3*
X129754724Y-87477500D02*
X129245276Y-87477500D01*
X129754724Y-88522500D02*
X129245276Y-88522500D01*
G04 #@! TO.C,R1*
X150745276Y-89977500D02*
X151254724Y-89977500D01*
X150745276Y-91022500D02*
X151254724Y-91022500D01*
G04 #@! TO.C,C1*
X149490000Y-86646267D02*
X149490000Y-86353733D01*
X150510000Y-86646267D02*
X150510000Y-86353733D01*
G04 #@! TD*
M02*
