G04 #@! TF.GenerationSoftware,KiCad,Pcbnew,10.0.3-10.0.3~ubuntu26.04.1*
G04 #@! TF.CreationDate,2026-07-24T16:25:29+03:00*
G04 #@! TF.ProjectId,retrolight-main,72657472-6f6c-4696-9768-742d6d61696e,B*
G04 #@! TF.SameCoordinates,Original*
G04 #@! TF.FileFunction,Copper,L2,Bot*
G04 #@! TF.FilePolarity,Positive*
%FSLAX46Y46*%
G04 Gerber Fmt 4.6, Leading zero omitted, Abs format (unit mm)*
G04 Created by KiCad (PCBNEW 10.0.3-10.0.3~ubuntu26.04.1) date 2026-07-24 16:25:29*
%MOMM*%
%LPD*%
G01*
G04 APERTURE LIST*
G04 Aperture macros list*
%AMRoundRect*
0 Rectangle with rounded corners*
0 $1 Rounding radius*
0 $2 $3 $4 $5 $6 $7 $8 $9 X,Y pos of 4 corners*
0 Add a 4 corners polygon primitive as box body*
4,1,4,$2,$3,$4,$5,$6,$7,$8,$9,$2,$3,0*
0 Add four circle primitives for the rounded corners*
1,1,$1+$1,$2,$3*
1,1,$1+$1,$4,$5*
1,1,$1+$1,$6,$7*
1,1,$1+$1,$8,$9*
0 Add four rect primitives between the rounded corners*
20,1,$1+$1,$2,$3,$4,$5,0*
20,1,$1+$1,$4,$5,$6,$7,0*
20,1,$1+$1,$6,$7,$8,$9,0*
20,1,$1+$1,$8,$9,$2,$3,0*%
G04 Aperture macros list end*
G04 #@! TA.AperFunction,ComponentPad*
%ADD10C,7.600000*%
G04 #@! TD*
G04 #@! TA.AperFunction,ComponentPad*
%ADD11RoundRect,0.250000X-0.600000X0.600000X-0.600000X-0.600000X0.600000X-0.600000X0.600000X0.600000X0*%
G04 #@! TD*
G04 #@! TA.AperFunction,ComponentPad*
%ADD12C,1.700000*%
G04 #@! TD*
G04 #@! TA.AperFunction,SMDPad,CuDef*
%ADD13RoundRect,0.250001X0.624999X-0.462499X0.624999X0.462499X-0.624999X0.462499X-0.624999X-0.462499X0*%
G04 #@! TD*
G04 #@! TA.AperFunction,ViaPad*
%ADD14C,0.610000*%
G04 #@! TD*
G04 #@! TA.AperFunction,Conductor*
%ADD15C,0.203200*%
G04 #@! TD*
G04 #@! TA.AperFunction,Conductor*
%ADD16C,0.254000*%
G04 #@! TD*
G04 APERTURE END LIST*
D10*
G04 #@! TO.P,H2,1,1_1*
G04 #@! TO.N,GND*
X160000000Y-100000000D03*
G04 #@! TD*
D11*
G04 #@! TO.P,J1,1,Pin_1_1*
G04 #@! TO.N,VCC*
X147580000Y-98500000D03*
D12*
G04 #@! TO.P,J1,2,Pin_2_2*
G04 #@! TO.N,unconnected-(J1-Pin_2-Pad2)*
X147580000Y-101040000D03*
G04 #@! TO.P,J1,3,Pin_3_3*
G04 #@! TO.N,/SDA*
X145040000Y-98500000D03*
G04 #@! TO.P,J1,4,Pin_4_4*
G04 #@! TO.N,unconnected-(J1-Pin_4-Pad4)*
X145040000Y-101040000D03*
G04 #@! TO.P,J1,5,Pin_5_5*
G04 #@! TO.N,/SCL*
X142500000Y-98500000D03*
G04 #@! TO.P,J1,6,Pin_6_6*
G04 #@! TO.N,unconnected-(J1-Pin_6-Pad6)*
X142500000Y-101040000D03*
G04 #@! TO.P,J1,7,Pin_7_7*
G04 #@! TO.N,/~{RESET}*
X139960000Y-98500000D03*
G04 #@! TO.P,J1,8,Pin_8_8*
G04 #@! TO.N,unconnected-(J1-Pin_8-Pad8)*
X139960000Y-101040000D03*
G04 #@! TO.P,J1,9,Pin_9_9*
G04 #@! TO.N,unconnected-(J1-Pin_9-Pad9)*
X137420000Y-98500000D03*
G04 #@! TO.P,J1,10,Pin_10_10*
G04 #@! TO.N,GND*
X137420000Y-101040000D03*
G04 #@! TD*
D10*
G04 #@! TO.P,H1,1,1_1*
G04 #@! TO.N,GND*
X125000000Y-100000000D03*
G04 #@! TD*
D13*
G04 #@! TO.P,D1,1,K_1*
G04 #@! TO.N,Net-(D1-K)*
X132000000Y-91987500D03*
G04 #@! TO.P,D1,2,A_2*
G04 #@! TO.N,VCC*
X132000000Y-89012500D03*
G04 #@! TD*
G04 #@! TO.P,D7,1,K_1*
G04 #@! TO.N,Net-(D7-K)*
X150000000Y-91987500D03*
G04 #@! TO.P,D7,2,A_2*
G04 #@! TO.N,VCC*
X150000000Y-89012500D03*
G04 #@! TD*
G04 #@! TO.P,D6,1,K_1*
G04 #@! TO.N,Net-(D6-K)*
X147000000Y-91987500D03*
G04 #@! TO.P,D6,2,A_2*
G04 #@! TO.N,VCC*
X147000000Y-89012500D03*
G04 #@! TD*
G04 #@! TO.P,D2,1,K_1*
G04 #@! TO.N,Net-(D2-K)*
X135000000Y-91987500D03*
G04 #@! TO.P,D2,2,A_2*
G04 #@! TO.N,VCC*
X135000000Y-89012500D03*
G04 #@! TD*
G04 #@! TO.P,D8,1,K_1*
G04 #@! TO.N,Net-(D8-K)*
X153000000Y-91987500D03*
G04 #@! TO.P,D8,2,A_2*
G04 #@! TO.N,VCC*
X153000000Y-89012500D03*
G04 #@! TD*
G04 #@! TO.P,D4,1,K_1*
G04 #@! TO.N,Net-(D4-K)*
X141000000Y-91987500D03*
G04 #@! TO.P,D4,2,A_2*
G04 #@! TO.N,VCC*
X141000000Y-89012500D03*
G04 #@! TD*
G04 #@! TO.P,D3,1,K_1*
G04 #@! TO.N,Net-(D3-K)*
X138000000Y-91987500D03*
G04 #@! TO.P,D3,2,A_2*
G04 #@! TO.N,VCC*
X138000000Y-89012500D03*
G04 #@! TD*
G04 #@! TO.P,D5,1,K_1*
G04 #@! TO.N,Net-(D5-K)*
X144000000Y-91987500D03*
G04 #@! TO.P,D5,2,A_2*
G04 #@! TO.N,VCC*
X144000000Y-89012500D03*
G04 #@! TD*
D14*
G04 #@! TO.N,GND*
X129500000Y-91500000D03*
X142500000Y-92000000D03*
X142500000Y-91000000D03*
X129500000Y-87000000D03*
X142500000Y-90000000D03*
X142500000Y-93000000D03*
G04 #@! TO.N,VCC*
X151912500Y-95250000D03*
X128587500Y-89250000D03*
G04 #@! TO.N,Net-(D1-K)*
X135000000Y-94500000D03*
G04 #@! TO.N,Net-(D2-K)*
X136500000Y-94500000D03*
G04 #@! TO.N,Net-(D3-K)*
X138000000Y-94500000D03*
G04 #@! TO.N,Net-(D4-K)*
X139500000Y-94500000D03*
G04 #@! TO.N,Net-(D5-K)*
X145500000Y-94500000D03*
G04 #@! TO.N,Net-(D6-K)*
X147000000Y-94500000D03*
G04 #@! TO.N,Net-(D7-K)*
X148500000Y-94500000D03*
G04 #@! TO.N,Net-(D8-K)*
X150000000Y-94500000D03*
G04 #@! TD*
G04 #@! TO.N,VCC*
D15*
X151912500Y-95250000D02*
X155500000Y-95250000D01*
D16*
X144000000Y-89012500D02*
X147000000Y-89012500D01*
X156000000Y-95750000D02*
X156000000Y-89750000D01*
X132000000Y-89012500D02*
X135000000Y-89012500D01*
X138000000Y-89012500D02*
X141000000Y-89012500D01*
X132000000Y-89012500D02*
X131762500Y-89250000D01*
X147580000Y-98500000D02*
X155250000Y-98500000D01*
X155250000Y-98500000D02*
X156000000Y-97750000D01*
D15*
X155500000Y-95250000D02*
X156000000Y-95750000D01*
D16*
X131762500Y-89250000D02*
X128587500Y-89250000D01*
X155262500Y-89012500D02*
X153000000Y-89012500D01*
X156000000Y-89750000D02*
X155262500Y-89012500D01*
X141000000Y-89012500D02*
X144000000Y-89012500D01*
X156000000Y-97750000D02*
X156000000Y-95750000D01*
X147000000Y-89012500D02*
X150000000Y-89012500D01*
X150000000Y-89012500D02*
X153000000Y-89012500D01*
X135000000Y-89012500D02*
X138000000Y-89012500D01*
G04 #@! TO.N,Net-(D1-K)*
D15*
X132000000Y-94000000D02*
X132000000Y-91987500D01*
X135000000Y-94500000D02*
X132500000Y-94500000D01*
X132500000Y-94500000D02*
X132000000Y-94000000D01*
G04 #@! TO.N,Net-(D2-K)*
X136500000Y-94500000D02*
X135000000Y-93000000D01*
X135000000Y-93000000D02*
X135000000Y-91987500D01*
G04 #@! TO.N,Net-(D3-K)*
X138000000Y-94500000D02*
X138000000Y-91987500D01*
G04 #@! TO.N,Net-(D4-K)*
X139500000Y-94500000D02*
X140500000Y-94500000D01*
X140500000Y-94500000D02*
X141000000Y-94000000D01*
X141000000Y-94000000D02*
X141000000Y-91987500D01*
G04 #@! TO.N,Net-(D5-K)*
X144000000Y-94000000D02*
X144000000Y-91987500D01*
X145500000Y-94500000D02*
X144500000Y-94500000D01*
X144500000Y-94500000D02*
X144000000Y-94000000D01*
G04 #@! TO.N,Net-(D6-K)*
X147000000Y-94500000D02*
X147000000Y-91987500D01*
G04 #@! TO.N,Net-(D7-K)*
X148500000Y-94500000D02*
X150000000Y-93000000D01*
X150000000Y-93000000D02*
X150000000Y-91987500D01*
G04 #@! TO.N,Net-(D8-K)*
X153000000Y-94000000D02*
X153000000Y-91987500D01*
X150000000Y-94500000D02*
X152500000Y-94500000D01*
X152500000Y-94500000D02*
X153000000Y-94000000D01*
G04 #@! TD*
G04 #@! TA.AperFunction,Conductor*
G04 #@! TO.N,GND*
G36*
X164709191Y-84768907D02*
G01*
X164745155Y-84818407D01*
X164750000Y-84849000D01*
X164750000Y-104651000D01*
X164731093Y-104709191D01*
X164681593Y-104745155D01*
X164651000Y-104750000D01*
X120349000Y-104750000D01*
X120290809Y-104731093D01*
X120254845Y-104681593D01*
X120250000Y-104651000D01*
X120250000Y-100936581D01*
X136370000Y-100936581D01*
X136370000Y-101143418D01*
X136410349Y-101346272D01*
X136489501Y-101537360D01*
X136489508Y-101537374D01*
X136604405Y-101709329D01*
X136606826Y-101711750D01*
X137002210Y-101316365D01*
X137019901Y-101347007D01*
X137112993Y-101440099D01*
X137143632Y-101457788D01*
X136748249Y-101853173D01*
X136750670Y-101855594D01*
X136922625Y-101970491D01*
X136922639Y-101970498D01*
X137113727Y-102049650D01*
X137316581Y-102089999D01*
X137316586Y-102090000D01*
X137523414Y-102090000D01*
X137523418Y-102089999D01*
X137726272Y-102049650D01*
X137917360Y-101970498D01*
X137917366Y-101970495D01*
X138089333Y-101855591D01*
X138091750Y-101853173D01*
X137696366Y-101457789D01*
X137727007Y-101440099D01*
X137820099Y-101347007D01*
X137837789Y-101316366D01*
X138233173Y-101711750D01*
X138235591Y-101709333D01*
X138350495Y-101537366D01*
X138350498Y-101537360D01*
X138429650Y-101346272D01*
X138469999Y-101143418D01*
X138470000Y-101143413D01*
X138470000Y-100936585D01*
X138469999Y-100936582D01*
X138469989Y-100936532D01*
X138909500Y-100936532D01*
X138909500Y-101143467D01*
X138949869Y-101346418D01*
X139029058Y-101537597D01*
X139029059Y-101537598D01*
X139144023Y-101709655D01*
X139290345Y-101855977D01*
X139462402Y-101970941D01*
X139653580Y-102050130D01*
X139856535Y-102090500D01*
X139856536Y-102090500D01*
X140063464Y-102090500D01*
X140063465Y-102090500D01*
X140266420Y-102050130D01*
X140457598Y-101970941D01*
X140629655Y-101855977D01*
X140775977Y-101709655D01*
X140890941Y-101537598D01*
X140970130Y-101346420D01*
X141010500Y-101143465D01*
X141010500Y-100936535D01*
X141010499Y-100936532D01*
X141449500Y-100936532D01*
X141449500Y-101143467D01*
X141489869Y-101346418D01*
X141569058Y-101537597D01*
X141569059Y-101537598D01*
X141684023Y-101709655D01*
X141830345Y-101855977D01*
X142002402Y-101970941D01*
X142193580Y-102050130D01*
X142396535Y-102090500D01*
X142396536Y-102090500D01*
X142603464Y-102090500D01*
X142603465Y-102090500D01*
X142806420Y-102050130D01*
X142997598Y-101970941D01*
X143169655Y-101855977D01*
X143315977Y-101709655D01*
X143430941Y-101537598D01*
X143510130Y-101346420D01*
X143550500Y-101143465D01*
X143550500Y-100936535D01*
X143550499Y-100936532D01*
X143989500Y-100936532D01*
X143989500Y-101143467D01*
X144029869Y-101346418D01*
X144109058Y-101537597D01*
X144109059Y-101537598D01*
X144224023Y-101709655D01*
X144370345Y-101855977D01*
X144542402Y-101970941D01*
X144733580Y-102050130D01*
X144936535Y-102090500D01*
X144936536Y-102090500D01*
X145143464Y-102090500D01*
X145143465Y-102090500D01*
X145346420Y-102050130D01*
X145537598Y-101970941D01*
X145709655Y-101855977D01*
X145855977Y-101709655D01*
X145970941Y-101537598D01*
X146050130Y-101346420D01*
X146090500Y-101143465D01*
X146090500Y-100936535D01*
X146090499Y-100936532D01*
X146529500Y-100936532D01*
X146529500Y-101143467D01*
X146569869Y-101346418D01*
X146649058Y-101537597D01*
X146649059Y-101537598D01*
X146764023Y-101709655D01*
X146910345Y-101855977D01*
X147082402Y-101970941D01*
X147273580Y-102050130D01*
X147476535Y-102090500D01*
X147476536Y-102090500D01*
X147683464Y-102090500D01*
X147683465Y-102090500D01*
X147886420Y-102050130D01*
X148077598Y-101970941D01*
X148249655Y-101855977D01*
X148395977Y-101709655D01*
X148510941Y-101537598D01*
X148590130Y-101346420D01*
X148630500Y-101143465D01*
X148630500Y-100936535D01*
X148590130Y-100733580D01*
X148510941Y-100542402D01*
X148395977Y-100370345D01*
X148249655Y-100224023D01*
X148078270Y-100109508D01*
X148077597Y-100109058D01*
X147886418Y-100029869D01*
X147683467Y-99989500D01*
X147683465Y-99989500D01*
X147476535Y-99989500D01*
X147476532Y-99989500D01*
X147273581Y-100029869D01*
X147082402Y-100109058D01*
X146910348Y-100224020D01*
X146764020Y-100370348D01*
X146649058Y-100542402D01*
X146569869Y-100733581D01*
X146529500Y-100936532D01*
X146090499Y-100936532D01*
X146050130Y-100733580D01*
X145970941Y-100542402D01*
X145855977Y-100370345D01*
X145709655Y-100224023D01*
X145538270Y-100109508D01*
X145537597Y-100109058D01*
X145346418Y-100029869D01*
X145143467Y-99989500D01*
X145143465Y-99989500D01*
X144936535Y-99989500D01*
X144936532Y-99989500D01*
X144733581Y-100029869D01*
X144542402Y-100109058D01*
X144370348Y-100224020D01*
X144224020Y-100370348D01*
X144109058Y-100542402D01*
X144029869Y-100733581D01*
X143989500Y-100936532D01*
X143550499Y-100936532D01*
X143510130Y-100733580D01*
X143430941Y-100542402D01*
X143315977Y-100370345D01*
X143169655Y-100224023D01*
X142998270Y-100109508D01*
X142997597Y-100109058D01*
X142806418Y-100029869D01*
X142603467Y-99989500D01*
X142603465Y-99989500D01*
X142396535Y-99989500D01*
X142396532Y-99989500D01*
X142193581Y-100029869D01*
X142002402Y-100109058D01*
X141830348Y-100224020D01*
X141684020Y-100370348D01*
X141569058Y-100542402D01*
X141489869Y-100733581D01*
X141449500Y-100936532D01*
X141010499Y-100936532D01*
X140970130Y-100733580D01*
X140890941Y-100542402D01*
X140775977Y-100370345D01*
X140629655Y-100224023D01*
X140458270Y-100109508D01*
X140457597Y-100109058D01*
X140266418Y-100029869D01*
X140063467Y-99989500D01*
X140063465Y-99989500D01*
X139856535Y-99989500D01*
X139856532Y-99989500D01*
X139653581Y-100029869D01*
X139462402Y-100109058D01*
X139290348Y-100224020D01*
X139144020Y-100370348D01*
X139029058Y-100542402D01*
X138949869Y-100733581D01*
X138909500Y-100936532D01*
X138469989Y-100936532D01*
X138429650Y-100733727D01*
X138350498Y-100542639D01*
X138350491Y-100542625D01*
X138235594Y-100370670D01*
X138233173Y-100368249D01*
X137837788Y-100763632D01*
X137820099Y-100732993D01*
X137727007Y-100639901D01*
X137696365Y-100622210D01*
X138091750Y-100226826D01*
X138089329Y-100224405D01*
X137917374Y-100109508D01*
X137917360Y-100109501D01*
X137726272Y-100030349D01*
X137523418Y-99990000D01*
X137316581Y-99990000D01*
X137113727Y-100030349D01*
X136922639Y-100109501D01*
X136922630Y-100109505D01*
X136750665Y-100224410D01*
X136748248Y-100226825D01*
X137143633Y-100622210D01*
X137112993Y-100639901D01*
X137019901Y-100732993D01*
X137002210Y-100763633D01*
X136606825Y-100368248D01*
X136604410Y-100370665D01*
X136489505Y-100542630D01*
X136489501Y-100542639D01*
X136410349Y-100733727D01*
X136370000Y-100936581D01*
X120250000Y-100936581D01*
X120250000Y-98396532D01*
X136369500Y-98396532D01*
X136369500Y-98603467D01*
X136409869Y-98806418D01*
X136489058Y-98997597D01*
X136604020Y-99169651D01*
X136604023Y-99169655D01*
X136750345Y-99315977D01*
X136922402Y-99430941D01*
X137113580Y-99510130D01*
X137316535Y-99550500D01*
X137316536Y-99550500D01*
X137523464Y-99550500D01*
X137523465Y-99550500D01*
X137726420Y-99510130D01*
X137917598Y-99430941D01*
X138089655Y-99315977D01*
X138235977Y-99169655D01*
X138350941Y-98997598D01*
X138430130Y-98806420D01*
X138470500Y-98603465D01*
X138470500Y-98396535D01*
X138470499Y-98396532D01*
X138909500Y-98396532D01*
X138909500Y-98603467D01*
X138949869Y-98806418D01*
X139029058Y-98997597D01*
X139144020Y-99169651D01*
X139144023Y-99169655D01*
X139290345Y-99315977D01*
X139462402Y-99430941D01*
X139653580Y-99510130D01*
X139856535Y-99550500D01*
X139856536Y-99550500D01*
X140063464Y-99550500D01*
X140063465Y-99550500D01*
X140266420Y-99510130D01*
X140457598Y-99430941D01*
X140629655Y-99315977D01*
X140775977Y-99169655D01*
X140890941Y-98997598D01*
X140970130Y-98806420D01*
X141010500Y-98603465D01*
X141010500Y-98396535D01*
X141010499Y-98396532D01*
X141449500Y-98396532D01*
X141449500Y-98603467D01*
X141489869Y-98806418D01*
X141569058Y-98997597D01*
X141684020Y-99169651D01*
X141684023Y-99169655D01*
X141830345Y-99315977D01*
X142002402Y-99430941D01*
X142193580Y-99510130D01*
X142396535Y-99550500D01*
X142396536Y-99550500D01*
X142603464Y-99550500D01*
X142603465Y-99550500D01*
X142806420Y-99510130D01*
X142997598Y-99430941D01*
X143169655Y-99315977D01*
X143315977Y-99169655D01*
X143430941Y-98997598D01*
X143510130Y-98806420D01*
X143550500Y-98603465D01*
X143550500Y-98396535D01*
X143550499Y-98396532D01*
X143989500Y-98396532D01*
X143989500Y-98603467D01*
X144029869Y-98806418D01*
X144109058Y-98997597D01*
X144224020Y-99169651D01*
X144224023Y-99169655D01*
X144370345Y-99315977D01*
X144542402Y-99430941D01*
X144733580Y-99510130D01*
X144936535Y-99550500D01*
X144936536Y-99550500D01*
X145143464Y-99550500D01*
X145143465Y-99550500D01*
X145346420Y-99510130D01*
X145537598Y-99430941D01*
X145709655Y-99315977D01*
X145855977Y-99169655D01*
X145970941Y-98997598D01*
X146050130Y-98806420D01*
X146090500Y-98603465D01*
X146090500Y-98396535D01*
X146050130Y-98193580D01*
X145970941Y-98002402D01*
X145855977Y-97830345D01*
X145709655Y-97684023D01*
X145694023Y-97673578D01*
X145537597Y-97569058D01*
X145346418Y-97489869D01*
X145143467Y-97449500D01*
X145143465Y-97449500D01*
X144936535Y-97449500D01*
X144936532Y-97449500D01*
X144733581Y-97489869D01*
X144542402Y-97569058D01*
X144370348Y-97684020D01*
X144224020Y-97830348D01*
X144109058Y-98002402D01*
X144029869Y-98193581D01*
X143989500Y-98396532D01*
X143550499Y-98396532D01*
X143510130Y-98193580D01*
X143430941Y-98002402D01*
X143315977Y-97830345D01*
X143169655Y-97684023D01*
X143154023Y-97673578D01*
X142997597Y-97569058D01*
X142806418Y-97489869D01*
X142603467Y-97449500D01*
X142603465Y-97449500D01*
X142396535Y-97449500D01*
X142396532Y-97449500D01*
X142193581Y-97489869D01*
X142002402Y-97569058D01*
X141830348Y-97684020D01*
X141684020Y-97830348D01*
X141569058Y-98002402D01*
X141489869Y-98193581D01*
X141449500Y-98396532D01*
X141010499Y-98396532D01*
X140970130Y-98193580D01*
X140890941Y-98002402D01*
X140775977Y-97830345D01*
X140629655Y-97684023D01*
X140614023Y-97673578D01*
X140457597Y-97569058D01*
X140266418Y-97489869D01*
X140063467Y-97449500D01*
X140063465Y-97449500D01*
X139856535Y-97449500D01*
X139856532Y-97449500D01*
X139653581Y-97489869D01*
X139462402Y-97569058D01*
X139290348Y-97684020D01*
X139144020Y-97830348D01*
X139029058Y-98002402D01*
X138949869Y-98193581D01*
X138909500Y-98396532D01*
X138470499Y-98396532D01*
X138430130Y-98193580D01*
X138350941Y-98002402D01*
X138235977Y-97830345D01*
X138089655Y-97684023D01*
X138074023Y-97673578D01*
X137917597Y-97569058D01*
X137726418Y-97489869D01*
X137523467Y-97449500D01*
X137523465Y-97449500D01*
X137316535Y-97449500D01*
X137316532Y-97449500D01*
X137113581Y-97489869D01*
X136922402Y-97569058D01*
X136750348Y-97684020D01*
X136604020Y-97830348D01*
X136489058Y-98002402D01*
X136409869Y-98193581D01*
X136369500Y-98396532D01*
X120250000Y-98396532D01*
X120250000Y-91470726D01*
X130924500Y-91470726D01*
X130924500Y-92504265D01*
X130927353Y-92534694D01*
X130972208Y-92662885D01*
X131052845Y-92772144D01*
X131052847Y-92772146D01*
X131052850Y-92772150D01*
X131052853Y-92772152D01*
X131052855Y-92772154D01*
X131162114Y-92852791D01*
X131162116Y-92852791D01*
X131162118Y-92852793D01*
X131290302Y-92897646D01*
X131320735Y-92900500D01*
X131671900Y-92900499D01*
X131730091Y-92919406D01*
X131766055Y-92968906D01*
X131770900Y-92999499D01*
X131770900Y-94045572D01*
X131805776Y-94129772D01*
X131805777Y-94129773D01*
X131805778Y-94129775D01*
X132370226Y-94694222D01*
X132394300Y-94704193D01*
X132419519Y-94714639D01*
X132419526Y-94714641D01*
X132419551Y-94714652D01*
X132454429Y-94729100D01*
X132454430Y-94729100D01*
X132545570Y-94729100D01*
X134491412Y-94729100D01*
X134549603Y-94748007D01*
X134577148Y-94778599D01*
X134595499Y-94810384D01*
X134689616Y-94904501D01*
X134689618Y-94904502D01*
X134804880Y-94971049D01*
X134804878Y-94971049D01*
X134804882Y-94971050D01*
X134804884Y-94971051D01*
X134933450Y-95005500D01*
X134933452Y-95005500D01*
X135066548Y-95005500D01*
X135066550Y-95005500D01*
X135195116Y-94971051D01*
X135195118Y-94971049D01*
X135195120Y-94971049D01*
X135229362Y-94951278D01*
X135310384Y-94904501D01*
X135404501Y-94810384D01*
X135459772Y-94714652D01*
X135471049Y-94695120D01*
X135471049Y-94695118D01*
X135471051Y-94695116D01*
X135505500Y-94566550D01*
X135505500Y-94433450D01*
X135471051Y-94304884D01*
X135471049Y-94304881D01*
X135471049Y-94304879D01*
X135404502Y-94189618D01*
X135404501Y-94189616D01*
X135310384Y-94095499D01*
X135310381Y-94095497D01*
X135195119Y-94028950D01*
X135195121Y-94028950D01*
X135145235Y-94015583D01*
X135066550Y-93994500D01*
X134933450Y-93994500D01*
X134854764Y-94015583D01*
X134804879Y-94028950D01*
X134689618Y-94095497D01*
X134595498Y-94189617D01*
X134577148Y-94221401D01*
X134531678Y-94262341D01*
X134491412Y-94270900D01*
X132635903Y-94270900D01*
X132577712Y-94251993D01*
X132565899Y-94241903D01*
X132258096Y-93934099D01*
X132230319Y-93879583D01*
X132229100Y-93864096D01*
X132229100Y-92999499D01*
X132248007Y-92941308D01*
X132297507Y-92905344D01*
X132328100Y-92900499D01*
X132679265Y-92900499D01*
X132685350Y-92899928D01*
X132709698Y-92897646D01*
X132837882Y-92852793D01*
X132947150Y-92772150D01*
X133027793Y-92662882D01*
X133072646Y-92534698D01*
X133075500Y-92504265D01*
X133075499Y-91470736D01*
X133075498Y-91470726D01*
X133924500Y-91470726D01*
X133924500Y-92504265D01*
X133927353Y-92534694D01*
X133972208Y-92662885D01*
X134052845Y-92772144D01*
X134052847Y-92772146D01*
X134052850Y-92772150D01*
X134052853Y-92772152D01*
X134052855Y-92772154D01*
X134162114Y-92852791D01*
X134162116Y-92852791D01*
X134162118Y-92852793D01*
X134290302Y-92897646D01*
X134320735Y-92900500D01*
X134671900Y-92900499D01*
X134730091Y-92919406D01*
X134766055Y-92968906D01*
X134770900Y-92999499D01*
X134770900Y-93045572D01*
X134805776Y-93129772D01*
X134805777Y-93129773D01*
X134805778Y-93129775D01*
X135540099Y-93864095D01*
X135978376Y-94302372D01*
X136006153Y-94356889D01*
X136003998Y-94397998D01*
X135994500Y-94433450D01*
X135994500Y-94566550D01*
X136024880Y-94679930D01*
X136028950Y-94695120D01*
X136077539Y-94779277D01*
X136095499Y-94810384D01*
X136189616Y-94904501D01*
X136189618Y-94904502D01*
X136304880Y-94971049D01*
X136304878Y-94971049D01*
X136304882Y-94971050D01*
X136304884Y-94971051D01*
X136433450Y-95005500D01*
X136433452Y-95005500D01*
X136566548Y-95005500D01*
X136566550Y-95005500D01*
X136695116Y-94971051D01*
X136695118Y-94971049D01*
X136695120Y-94971049D01*
X136729362Y-94951278D01*
X136810384Y-94904501D01*
X136904501Y-94810384D01*
X136959772Y-94714652D01*
X136971049Y-94695120D01*
X136971049Y-94695118D01*
X136971051Y-94695116D01*
X137005500Y-94566550D01*
X137005500Y-94433450D01*
X136971051Y-94304884D01*
X136971049Y-94304881D01*
X136971049Y-94304879D01*
X136904502Y-94189618D01*
X136904501Y-94189616D01*
X136810384Y-94095499D01*
X136810381Y-94095497D01*
X136695119Y-94028950D01*
X136695121Y-94028950D01*
X136645235Y-94015583D01*
X136566550Y-93994500D01*
X136433450Y-93994500D01*
X136397998Y-94003999D01*
X136336896Y-94000796D01*
X136302372Y-93978376D01*
X135393500Y-93069503D01*
X135365723Y-93014986D01*
X135375294Y-92954554D01*
X135418559Y-92911289D01*
X135463504Y-92900499D01*
X135679265Y-92900499D01*
X135685350Y-92899928D01*
X135709698Y-92897646D01*
X135837882Y-92852793D01*
X135947150Y-92772150D01*
X136027793Y-92662882D01*
X136072646Y-92534698D01*
X136075500Y-92504265D01*
X136075499Y-91470736D01*
X136075498Y-91470726D01*
X136924500Y-91470726D01*
X136924500Y-92504265D01*
X136927353Y-92534694D01*
X136972208Y-92662885D01*
X137052845Y-92772144D01*
X137052847Y-92772146D01*
X137052850Y-92772150D01*
X137052853Y-92772152D01*
X137052855Y-92772154D01*
X137162114Y-92852791D01*
X137162116Y-92852791D01*
X137162118Y-92852793D01*
X137290302Y-92897646D01*
X137320735Y-92900500D01*
X137671900Y-92900499D01*
X137730091Y-92919406D01*
X137766055Y-92968906D01*
X137770900Y-92999499D01*
X137770900Y-93991411D01*
X137751993Y-94049602D01*
X137721401Y-94077147D01*
X137689618Y-94095497D01*
X137595497Y-94189618D01*
X137528950Y-94304879D01*
X137518793Y-94342788D01*
X137494500Y-94433450D01*
X137494500Y-94566550D01*
X137524880Y-94679930D01*
X137528950Y-94695120D01*
X137577539Y-94779277D01*
X137595499Y-94810384D01*
X137689616Y-94904501D01*
X137689618Y-94904502D01*
X137804880Y-94971049D01*
X137804878Y-94971049D01*
X137804882Y-94971050D01*
X137804884Y-94971051D01*
X137933450Y-95005500D01*
X137933452Y-95005500D01*
X138066548Y-95005500D01*
X138066550Y-95005500D01*
X138195116Y-94971051D01*
X138195118Y-94971049D01*
X138195120Y-94971049D01*
X138229362Y-94951278D01*
X138310384Y-94904501D01*
X138404501Y-94810384D01*
X138459772Y-94714652D01*
X138471049Y-94695120D01*
X138471049Y-94695118D01*
X138471051Y-94695116D01*
X138505500Y-94566550D01*
X138505500Y-94433450D01*
X138994500Y-94433450D01*
X138994500Y-94566550D01*
X139024880Y-94679930D01*
X139028950Y-94695120D01*
X139077539Y-94779277D01*
X139095499Y-94810384D01*
X139189616Y-94904501D01*
X139189618Y-94904502D01*
X139304880Y-94971049D01*
X139304878Y-94971049D01*
X139304882Y-94971050D01*
X139304884Y-94971051D01*
X139433450Y-95005500D01*
X139433452Y-95005500D01*
X139566548Y-95005500D01*
X139566550Y-95005500D01*
X139695116Y-94971051D01*
X139695118Y-94971049D01*
X139695120Y-94971049D01*
X139729362Y-94951278D01*
X139810384Y-94904501D01*
X139904501Y-94810384D01*
X139922852Y-94778599D01*
X139968322Y-94737659D01*
X140008588Y-94729100D01*
X140545568Y-94729100D01*
X140545570Y-94729100D01*
X140545571Y-94729100D01*
X140570229Y-94718885D01*
X140570232Y-94718885D01*
X140600004Y-94706553D01*
X140629775Y-94694222D01*
X141194222Y-94129774D01*
X141227858Y-94048569D01*
X141229100Y-94045571D01*
X141229100Y-92999499D01*
X141248007Y-92941308D01*
X141297507Y-92905344D01*
X141328100Y-92900499D01*
X141679265Y-92900499D01*
X141685350Y-92899928D01*
X141709698Y-92897646D01*
X141837882Y-92852793D01*
X141947150Y-92772150D01*
X142027793Y-92662882D01*
X142072646Y-92534698D01*
X142075500Y-92504265D01*
X142075499Y-91470736D01*
X142075498Y-91470726D01*
X142924500Y-91470726D01*
X142924500Y-92504265D01*
X142927353Y-92534694D01*
X142972208Y-92662885D01*
X143052845Y-92772144D01*
X143052847Y-92772146D01*
X143052850Y-92772150D01*
X143052853Y-92772152D01*
X143052855Y-92772154D01*
X143162114Y-92852791D01*
X143162116Y-92852791D01*
X143162118Y-92852793D01*
X143290302Y-92897646D01*
X143320735Y-92900500D01*
X143671900Y-92900499D01*
X143730091Y-92919406D01*
X143766055Y-92968906D01*
X143770900Y-92999499D01*
X143770900Y-94045572D01*
X143805776Y-94129772D01*
X143805777Y-94129773D01*
X143805778Y-94129775D01*
X144370226Y-94694222D01*
X144394300Y-94704193D01*
X144419519Y-94714639D01*
X144419526Y-94714641D01*
X144419551Y-94714652D01*
X144454429Y-94729100D01*
X144454430Y-94729100D01*
X144545570Y-94729100D01*
X144991412Y-94729100D01*
X145049603Y-94748007D01*
X145077148Y-94778599D01*
X145095499Y-94810384D01*
X145189616Y-94904501D01*
X145189618Y-94904502D01*
X145304880Y-94971049D01*
X145304878Y-94971049D01*
X145304882Y-94971050D01*
X145304884Y-94971051D01*
X145433450Y-95005500D01*
X145433452Y-95005500D01*
X145566548Y-95005500D01*
X145566550Y-95005500D01*
X145695116Y-94971051D01*
X145695118Y-94971049D01*
X145695120Y-94971049D01*
X145729362Y-94951278D01*
X145810384Y-94904501D01*
X145904501Y-94810384D01*
X145959772Y-94714652D01*
X145971049Y-94695120D01*
X145971049Y-94695118D01*
X145971051Y-94695116D01*
X146005500Y-94566550D01*
X146005500Y-94433450D01*
X145971051Y-94304884D01*
X145971049Y-94304881D01*
X145971049Y-94304879D01*
X145904502Y-94189618D01*
X145904501Y-94189616D01*
X145810384Y-94095499D01*
X145810381Y-94095497D01*
X145695119Y-94028950D01*
X145695121Y-94028950D01*
X145645235Y-94015583D01*
X145566550Y-93994500D01*
X145433450Y-93994500D01*
X145354764Y-94015583D01*
X145304879Y-94028950D01*
X145189618Y-94095497D01*
X145095498Y-94189617D01*
X145077148Y-94221401D01*
X145031678Y-94262341D01*
X144991412Y-94270900D01*
X144635903Y-94270900D01*
X144577712Y-94251993D01*
X144565899Y-94241903D01*
X144258096Y-93934099D01*
X144230319Y-93879583D01*
X144229100Y-93864096D01*
X144229100Y-92999499D01*
X144248007Y-92941308D01*
X144297507Y-92905344D01*
X144328100Y-92900499D01*
X144679265Y-92900499D01*
X144685350Y-92899928D01*
X144709698Y-92897646D01*
X144837882Y-92852793D01*
X144947150Y-92772150D01*
X145027793Y-92662882D01*
X145072646Y-92534698D01*
X145075500Y-92504265D01*
X145075499Y-91470736D01*
X145075498Y-91470726D01*
X145924500Y-91470726D01*
X145924500Y-92504265D01*
X145927353Y-92534694D01*
X145972208Y-92662885D01*
X146052845Y-92772144D01*
X146052847Y-92772146D01*
X146052850Y-92772150D01*
X146052853Y-92772152D01*
X146052855Y-92772154D01*
X146162114Y-92852791D01*
X146162116Y-92852791D01*
X146162118Y-92852793D01*
X146290302Y-92897646D01*
X146320735Y-92900500D01*
X146671900Y-92900499D01*
X146730091Y-92919406D01*
X146766055Y-92968906D01*
X146770900Y-92999499D01*
X146770900Y-93991411D01*
X146751993Y-94049602D01*
X146721401Y-94077147D01*
X146689618Y-94095497D01*
X146595497Y-94189618D01*
X146528950Y-94304879D01*
X146518793Y-94342788D01*
X146494500Y-94433450D01*
X146494500Y-94566550D01*
X146524880Y-94679930D01*
X146528950Y-94695120D01*
X146577539Y-94779277D01*
X146595499Y-94810384D01*
X146689616Y-94904501D01*
X146689618Y-94904502D01*
X146804880Y-94971049D01*
X146804878Y-94971049D01*
X146804882Y-94971050D01*
X146804884Y-94971051D01*
X146933450Y-95005500D01*
X146933452Y-95005500D01*
X147066548Y-95005500D01*
X147066550Y-95005500D01*
X147195116Y-94971051D01*
X147195118Y-94971049D01*
X147195120Y-94971049D01*
X147229362Y-94951278D01*
X147310384Y-94904501D01*
X147404501Y-94810384D01*
X147459772Y-94714652D01*
X147471049Y-94695120D01*
X147471049Y-94695118D01*
X147471051Y-94695116D01*
X147505500Y-94566550D01*
X147505500Y-94433450D01*
X147994500Y-94433450D01*
X147994500Y-94566550D01*
X148024880Y-94679930D01*
X148028950Y-94695120D01*
X148077539Y-94779277D01*
X148095499Y-94810384D01*
X148189616Y-94904501D01*
X148189618Y-94904502D01*
X148304880Y-94971049D01*
X148304878Y-94971049D01*
X148304882Y-94971050D01*
X148304884Y-94971051D01*
X148433450Y-95005500D01*
X148433452Y-95005500D01*
X148566548Y-95005500D01*
X148566550Y-95005500D01*
X148695116Y-94971051D01*
X148695118Y-94971049D01*
X148695120Y-94971049D01*
X148729362Y-94951278D01*
X148810384Y-94904501D01*
X148904501Y-94810384D01*
X148959772Y-94714652D01*
X148971049Y-94695120D01*
X148971049Y-94695118D01*
X148971051Y-94695116D01*
X149005500Y-94566550D01*
X149005500Y-94433450D01*
X148996001Y-94398000D01*
X148999202Y-94336899D01*
X149021621Y-94302374D01*
X150194221Y-93129775D01*
X150229100Y-93045570D01*
X150229100Y-92999499D01*
X150248007Y-92941308D01*
X150297507Y-92905344D01*
X150328100Y-92900499D01*
X150679265Y-92900499D01*
X150685350Y-92899928D01*
X150709698Y-92897646D01*
X150837882Y-92852793D01*
X150947150Y-92772150D01*
X151027793Y-92662882D01*
X151072646Y-92534698D01*
X151075500Y-92504265D01*
X151075499Y-91470736D01*
X151072646Y-91440302D01*
X151027793Y-91312118D01*
X151027791Y-91312116D01*
X151027791Y-91312114D01*
X150947154Y-91202855D01*
X150947152Y-91202853D01*
X150947150Y-91202850D01*
X150947146Y-91202847D01*
X150947144Y-91202845D01*
X150837885Y-91122208D01*
X150823697Y-91117243D01*
X150709698Y-91077354D01*
X150709696Y-91077353D01*
X150709694Y-91077353D01*
X150679272Y-91074500D01*
X149320734Y-91074500D01*
X149290305Y-91077353D01*
X149162114Y-91122208D01*
X149052855Y-91202845D01*
X149052845Y-91202855D01*
X148972208Y-91312114D01*
X148927353Y-91440305D01*
X148924500Y-91470726D01*
X148924500Y-92504265D01*
X148927353Y-92534694D01*
X148972208Y-92662885D01*
X149052845Y-92772144D01*
X149052847Y-92772146D01*
X149052850Y-92772150D01*
X149052853Y-92772152D01*
X149052855Y-92772154D01*
X149162114Y-92852791D01*
X149162116Y-92852791D01*
X149162118Y-92852793D01*
X149290302Y-92897646D01*
X149320735Y-92900500D01*
X149536496Y-92900499D01*
X149594685Y-92919406D01*
X149630649Y-92968906D01*
X149630650Y-93030091D01*
X149606499Y-93069503D01*
X148697626Y-93978375D01*
X148643109Y-94006152D01*
X148602001Y-94003998D01*
X148566552Y-93994500D01*
X148566550Y-93994500D01*
X148433450Y-93994500D01*
X148354764Y-94015583D01*
X148304879Y-94028950D01*
X148189618Y-94095497D01*
X148095497Y-94189618D01*
X148028950Y-94304879D01*
X148018793Y-94342788D01*
X147994500Y-94433450D01*
X147505500Y-94433450D01*
X147471051Y-94304884D01*
X147471049Y-94304881D01*
X147471049Y-94304879D01*
X147404502Y-94189618D01*
X147404501Y-94189616D01*
X147310384Y-94095499D01*
X147310381Y-94095497D01*
X147278599Y-94077147D01*
X147237658Y-94031676D01*
X147229100Y-93991411D01*
X147229100Y-92999499D01*
X147248007Y-92941308D01*
X147297507Y-92905344D01*
X147328100Y-92900499D01*
X147679265Y-92900499D01*
X147685350Y-92899928D01*
X147709698Y-92897646D01*
X147837882Y-92852793D01*
X147947150Y-92772150D01*
X148027793Y-92662882D01*
X148072646Y-92534698D01*
X148075500Y-92504265D01*
X148075499Y-91470736D01*
X148072646Y-91440302D01*
X148027793Y-91312118D01*
X148027791Y-91312116D01*
X148027791Y-91312114D01*
X147947154Y-91202855D01*
X147947152Y-91202853D01*
X147947150Y-91202850D01*
X147947146Y-91202847D01*
X147947144Y-91202845D01*
X147837885Y-91122208D01*
X147823697Y-91117243D01*
X147709698Y-91077354D01*
X147709696Y-91077353D01*
X147709694Y-91077353D01*
X147679272Y-91074500D01*
X146320734Y-91074500D01*
X146290305Y-91077353D01*
X146162114Y-91122208D01*
X146052855Y-91202845D01*
X146052845Y-91202855D01*
X145972208Y-91312114D01*
X145927353Y-91440305D01*
X145924500Y-91470726D01*
X145075498Y-91470726D01*
X145072646Y-91440302D01*
X145027793Y-91312118D01*
X145027791Y-91312116D01*
X145027791Y-91312114D01*
X144947154Y-91202855D01*
X144947152Y-91202853D01*
X144947150Y-91202850D01*
X144947146Y-91202847D01*
X144947144Y-91202845D01*
X144837885Y-91122208D01*
X144823697Y-91117243D01*
X144709698Y-91077354D01*
X144709696Y-91077353D01*
X144709694Y-91077353D01*
X144679272Y-91074500D01*
X143320734Y-91074500D01*
X143290305Y-91077353D01*
X143162114Y-91122208D01*
X143052855Y-91202845D01*
X143052845Y-91202855D01*
X142972208Y-91312114D01*
X142927353Y-91440305D01*
X142924500Y-91470726D01*
X142075498Y-91470726D01*
X142072646Y-91440302D01*
X142027793Y-91312118D01*
X142027791Y-91312116D01*
X142027791Y-91312114D01*
X141947154Y-91202855D01*
X141947152Y-91202853D01*
X141947150Y-91202850D01*
X141947146Y-91202847D01*
X141947144Y-91202845D01*
X141837885Y-91122208D01*
X141823697Y-91117243D01*
X141709698Y-91077354D01*
X141709696Y-91077353D01*
X141709694Y-91077353D01*
X141679272Y-91074500D01*
X140320734Y-91074500D01*
X140290305Y-91077353D01*
X140162114Y-91122208D01*
X140052855Y-91202845D01*
X140052845Y-91202855D01*
X139972208Y-91312114D01*
X139927353Y-91440305D01*
X139924500Y-91470726D01*
X139924500Y-92504265D01*
X139927353Y-92534694D01*
X139972208Y-92662885D01*
X140052845Y-92772144D01*
X140052847Y-92772146D01*
X140052850Y-92772150D01*
X140052853Y-92772152D01*
X140052855Y-92772154D01*
X140162114Y-92852791D01*
X140162116Y-92852791D01*
X140162118Y-92852793D01*
X140290302Y-92897646D01*
X140320735Y-92900500D01*
X140671900Y-92900499D01*
X140730091Y-92919406D01*
X140766055Y-92968906D01*
X140770900Y-92999499D01*
X140770900Y-93864095D01*
X140751993Y-93922286D01*
X140741904Y-93934099D01*
X140434099Y-94241904D01*
X140379582Y-94269681D01*
X140364095Y-94270900D01*
X140008588Y-94270900D01*
X139950397Y-94251993D01*
X139922852Y-94221401D01*
X139904502Y-94189618D01*
X139904501Y-94189616D01*
X139810384Y-94095499D01*
X139810381Y-94095497D01*
X139695119Y-94028950D01*
X139695121Y-94028950D01*
X139645235Y-94015583D01*
X139566550Y-93994500D01*
X139433450Y-93994500D01*
X139354764Y-94015583D01*
X139304879Y-94028950D01*
X139189618Y-94095497D01*
X139095497Y-94189618D01*
X139028950Y-94304879D01*
X139018793Y-94342788D01*
X138994500Y-94433450D01*
X138505500Y-94433450D01*
X138471051Y-94304884D01*
X138471049Y-94304881D01*
X138471049Y-94304879D01*
X138404502Y-94189618D01*
X138404501Y-94189616D01*
X138310384Y-94095499D01*
X138310381Y-94095497D01*
X138278599Y-94077147D01*
X138237658Y-94031676D01*
X138229100Y-93991411D01*
X138229100Y-92999499D01*
X138248007Y-92941308D01*
X138297507Y-92905344D01*
X138328100Y-92900499D01*
X138679265Y-92900499D01*
X138685350Y-92899928D01*
X138709698Y-92897646D01*
X138837882Y-92852793D01*
X138947150Y-92772150D01*
X139027793Y-92662882D01*
X139072646Y-92534698D01*
X139075500Y-92504265D01*
X139075499Y-91470736D01*
X139072646Y-91440302D01*
X139027793Y-91312118D01*
X139027791Y-91312116D01*
X139027791Y-91312114D01*
X138947154Y-91202855D01*
X138947152Y-91202853D01*
X138947150Y-91202850D01*
X138947146Y-91202847D01*
X138947144Y-91202845D01*
X138837885Y-91122208D01*
X138823697Y-91117243D01*
X138709698Y-91077354D01*
X138709696Y-91077353D01*
X138709694Y-91077353D01*
X138679272Y-91074500D01*
X137320734Y-91074500D01*
X137290305Y-91077353D01*
X137162114Y-91122208D01*
X137052855Y-91202845D01*
X137052845Y-91202855D01*
X136972208Y-91312114D01*
X136927353Y-91440305D01*
X136924500Y-91470726D01*
X136075498Y-91470726D01*
X136072646Y-91440302D01*
X136027793Y-91312118D01*
X136027791Y-91312116D01*
X136027791Y-91312114D01*
X135947154Y-91202855D01*
X135947152Y-91202853D01*
X135947150Y-91202850D01*
X135947146Y-91202847D01*
X135947144Y-91202845D01*
X135837885Y-91122208D01*
X135823697Y-91117243D01*
X135709698Y-91077354D01*
X135709696Y-91077353D01*
X135709694Y-91077353D01*
X135679272Y-91074500D01*
X134320734Y-91074500D01*
X134290305Y-91077353D01*
X134162114Y-91122208D01*
X134052855Y-91202845D01*
X134052845Y-91202855D01*
X133972208Y-91312114D01*
X133927353Y-91440305D01*
X133924500Y-91470726D01*
X133075498Y-91470726D01*
X133072646Y-91440302D01*
X133027793Y-91312118D01*
X133027791Y-91312116D01*
X133027791Y-91312114D01*
X132947154Y-91202855D01*
X132947152Y-91202853D01*
X132947150Y-91202850D01*
X132947146Y-91202847D01*
X132947144Y-91202845D01*
X132837885Y-91122208D01*
X132823697Y-91117243D01*
X132709698Y-91077354D01*
X132709696Y-91077353D01*
X132709694Y-91077353D01*
X132679272Y-91074500D01*
X131320734Y-91074500D01*
X131290305Y-91077353D01*
X131162114Y-91122208D01*
X131052855Y-91202845D01*
X131052845Y-91202855D01*
X130972208Y-91312114D01*
X130927353Y-91440305D01*
X130924500Y-91470726D01*
X120250000Y-91470726D01*
X120250000Y-89183450D01*
X128082000Y-89183450D01*
X128082000Y-89316550D01*
X128087053Y-89335407D01*
X128116450Y-89445120D01*
X128182603Y-89559698D01*
X128182999Y-89560384D01*
X128277116Y-89654501D01*
X128277118Y-89654502D01*
X128392380Y-89721049D01*
X128392378Y-89721049D01*
X128392382Y-89721050D01*
X128392384Y-89721051D01*
X128520950Y-89755500D01*
X128520952Y-89755500D01*
X128654048Y-89755500D01*
X128654050Y-89755500D01*
X128782616Y-89721051D01*
X128782618Y-89721049D01*
X128782620Y-89721049D01*
X128840061Y-89687885D01*
X128897884Y-89654501D01*
X128992001Y-89560384D01*
X128995685Y-89554002D01*
X129041153Y-89513060D01*
X129081423Y-89504500D01*
X130837795Y-89504500D01*
X130895986Y-89523407D01*
X130931239Y-89570802D01*
X130972207Y-89687883D01*
X131052845Y-89797144D01*
X131052847Y-89797146D01*
X131052850Y-89797150D01*
X131052853Y-89797152D01*
X131052855Y-89797154D01*
X131162114Y-89877791D01*
X131162116Y-89877791D01*
X131162118Y-89877793D01*
X131290302Y-89922646D01*
X131320735Y-89925500D01*
X132679264Y-89925499D01*
X132679265Y-89925499D01*
X132685350Y-89924928D01*
X132709698Y-89922646D01*
X132837882Y-89877793D01*
X132947150Y-89797150D01*
X133027793Y-89687882D01*
X133072646Y-89559698D01*
X133075499Y-89529272D01*
X133075500Y-89529272D01*
X133075500Y-89366000D01*
X133094407Y-89307809D01*
X133143907Y-89271845D01*
X133174500Y-89267000D01*
X133825501Y-89267000D01*
X133883692Y-89285907D01*
X133919656Y-89335407D01*
X133924501Y-89366000D01*
X133924501Y-89529265D01*
X133927353Y-89559694D01*
X133927353Y-89559696D01*
X133927354Y-89559698D01*
X133943499Y-89605837D01*
X133972208Y-89687885D01*
X134052845Y-89797144D01*
X134052847Y-89797146D01*
X134052850Y-89797150D01*
X134052853Y-89797152D01*
X134052855Y-89797154D01*
X134162114Y-89877791D01*
X134162116Y-89877791D01*
X134162118Y-89877793D01*
X134290302Y-89922646D01*
X134320735Y-89925500D01*
X135679264Y-89925499D01*
X135679265Y-89925499D01*
X135685350Y-89924928D01*
X135709698Y-89922646D01*
X135837882Y-89877793D01*
X135947150Y-89797150D01*
X136027793Y-89687882D01*
X136072646Y-89559698D01*
X136075499Y-89529272D01*
X136075500Y-89529272D01*
X136075500Y-89366000D01*
X136094407Y-89307809D01*
X136143907Y-89271845D01*
X136174500Y-89267000D01*
X136825501Y-89267000D01*
X136883692Y-89285907D01*
X136919656Y-89335407D01*
X136924501Y-89366000D01*
X136924501Y-89529265D01*
X136927353Y-89559694D01*
X136927353Y-89559696D01*
X136927354Y-89559698D01*
X136943499Y-89605837D01*
X136972208Y-89687885D01*
X137052845Y-89797144D01*
X137052847Y-89797146D01*
X137052850Y-89797150D01*
X137052853Y-89797152D01*
X137052855Y-89797154D01*
X137162114Y-89877791D01*
X137162116Y-89877791D01*
X137162118Y-89877793D01*
X137290302Y-89922646D01*
X137320735Y-89925500D01*
X138679264Y-89925499D01*
X138679265Y-89925499D01*
X138685350Y-89924928D01*
X138709698Y-89922646D01*
X138837882Y-89877793D01*
X138947150Y-89797150D01*
X139027793Y-89687882D01*
X139072646Y-89559698D01*
X139075499Y-89529272D01*
X139075500Y-89529272D01*
X139075500Y-89366000D01*
X139094407Y-89307809D01*
X139143907Y-89271845D01*
X139174500Y-89267000D01*
X139825501Y-89267000D01*
X139883692Y-89285907D01*
X139919656Y-89335407D01*
X139924501Y-89366000D01*
X139924501Y-89529265D01*
X139927353Y-89559694D01*
X139927353Y-89559696D01*
X139927354Y-89559698D01*
X139943499Y-89605837D01*
X139972208Y-89687885D01*
X140052845Y-89797144D01*
X140052847Y-89797146D01*
X140052850Y-89797150D01*
X140052853Y-89797152D01*
X140052855Y-89797154D01*
X140162114Y-89877791D01*
X140162116Y-89877791D01*
X140162118Y-89877793D01*
X140290302Y-89922646D01*
X140320735Y-89925500D01*
X141679264Y-89925499D01*
X141679265Y-89925499D01*
X141685350Y-89924928D01*
X141709698Y-89922646D01*
X141837882Y-89877793D01*
X141947150Y-89797150D01*
X142027793Y-89687882D01*
X142072646Y-89559698D01*
X142075499Y-89529272D01*
X142075500Y-89529272D01*
X142075500Y-89366000D01*
X142094407Y-89307809D01*
X142143907Y-89271845D01*
X142174500Y-89267000D01*
X142825501Y-89267000D01*
X142883692Y-89285907D01*
X142919656Y-89335407D01*
X142924501Y-89366000D01*
X142924501Y-89529265D01*
X142927353Y-89559694D01*
X142927353Y-89559696D01*
X142927354Y-89559698D01*
X142943499Y-89605837D01*
X142972208Y-89687885D01*
X143052845Y-89797144D01*
X143052847Y-89797146D01*
X143052850Y-89797150D01*
X143052853Y-89797152D01*
X143052855Y-89797154D01*
X143162114Y-89877791D01*
X143162116Y-89877791D01*
X143162118Y-89877793D01*
X143290302Y-89922646D01*
X143320735Y-89925500D01*
X144679264Y-89925499D01*
X144679265Y-89925499D01*
X144685350Y-89924928D01*
X144709698Y-89922646D01*
X144837882Y-89877793D01*
X144947150Y-89797150D01*
X145027793Y-89687882D01*
X145072646Y-89559698D01*
X145075499Y-89529272D01*
X145075500Y-89529272D01*
X145075500Y-89366000D01*
X145094407Y-89307809D01*
X145143907Y-89271845D01*
X145174500Y-89267000D01*
X145825501Y-89267000D01*
X145883692Y-89285907D01*
X145919656Y-89335407D01*
X145924501Y-89366000D01*
X145924501Y-89529265D01*
X145927353Y-89559694D01*
X145927353Y-89559696D01*
X145927354Y-89559698D01*
X145943499Y-89605837D01*
X145972208Y-89687885D01*
X146052845Y-89797144D01*
X146052847Y-89797146D01*
X146052850Y-89797150D01*
X146052853Y-89797152D01*
X146052855Y-89797154D01*
X146162114Y-89877791D01*
X146162116Y-89877791D01*
X146162118Y-89877793D01*
X146290302Y-89922646D01*
X146320735Y-89925500D01*
X147679264Y-89925499D01*
X147679265Y-89925499D01*
X147685350Y-89924928D01*
X147709698Y-89922646D01*
X147837882Y-89877793D01*
X147947150Y-89797150D01*
X148027793Y-89687882D01*
X148072646Y-89559698D01*
X148075499Y-89529272D01*
X148075500Y-89529272D01*
X148075500Y-89366000D01*
X148094407Y-89307809D01*
X148143907Y-89271845D01*
X148174500Y-89267000D01*
X148825501Y-89267000D01*
X148883692Y-89285907D01*
X148919656Y-89335407D01*
X148924501Y-89366000D01*
X148924501Y-89529265D01*
X148927353Y-89559694D01*
X148927353Y-89559696D01*
X148927354Y-89559698D01*
X148943499Y-89605837D01*
X148972208Y-89687885D01*
X149052845Y-89797144D01*
X149052847Y-89797146D01*
X149052850Y-89797150D01*
X149052853Y-89797152D01*
X149052855Y-89797154D01*
X149162114Y-89877791D01*
X149162116Y-89877791D01*
X149162118Y-89877793D01*
X149290302Y-89922646D01*
X149320735Y-89925500D01*
X150679264Y-89925499D01*
X150679265Y-89925499D01*
X150685350Y-89924928D01*
X150709698Y-89922646D01*
X150837882Y-89877793D01*
X150947150Y-89797150D01*
X151027793Y-89687882D01*
X151072646Y-89559698D01*
X151075499Y-89529272D01*
X151075500Y-89529272D01*
X151075500Y-89366000D01*
X151094407Y-89307809D01*
X151143907Y-89271845D01*
X151174500Y-89267000D01*
X151825501Y-89267000D01*
X151883692Y-89285907D01*
X151919656Y-89335407D01*
X151924501Y-89366000D01*
X151924501Y-89529265D01*
X151927353Y-89559694D01*
X151927353Y-89559696D01*
X151927354Y-89559698D01*
X151943499Y-89605837D01*
X151972208Y-89687885D01*
X152052845Y-89797144D01*
X152052847Y-89797146D01*
X152052850Y-89797150D01*
X152052853Y-89797152D01*
X152052855Y-89797154D01*
X152162114Y-89877791D01*
X152162116Y-89877791D01*
X152162118Y-89877793D01*
X152290302Y-89922646D01*
X152320735Y-89925500D01*
X153679264Y-89925499D01*
X153679265Y-89925499D01*
X153685350Y-89924928D01*
X153709698Y-89922646D01*
X153837882Y-89877793D01*
X153947150Y-89797150D01*
X154027793Y-89687882D01*
X154072646Y-89559698D01*
X154075499Y-89529272D01*
X154075500Y-89529272D01*
X154075500Y-89366000D01*
X154094407Y-89307809D01*
X154143907Y-89271845D01*
X154174500Y-89267000D01*
X155116074Y-89267000D01*
X155174265Y-89285907D01*
X155186078Y-89295996D01*
X155716504Y-89826421D01*
X155744281Y-89880938D01*
X155745500Y-89896425D01*
X155745500Y-94955548D01*
X155744252Y-94959387D01*
X155745195Y-94963312D01*
X155734905Y-94988155D01*
X155726593Y-95013739D01*
X155723326Y-95016112D01*
X155721782Y-95019841D01*
X155698856Y-95033890D01*
X155677093Y-95049703D01*
X155673055Y-95049703D01*
X155669614Y-95051812D01*
X155642808Y-95049703D01*
X155615907Y-95049703D01*
X155608617Y-95047013D01*
X155570235Y-95031116D01*
X155570237Y-95031116D01*
X155570233Y-95031115D01*
X155545571Y-95020900D01*
X152421088Y-95020900D01*
X152362897Y-95001993D01*
X152344005Y-94984023D01*
X152339189Y-94978047D01*
X152317001Y-94939616D01*
X152271735Y-94894350D01*
X152268409Y-94890223D01*
X152259309Y-94866350D01*
X152247711Y-94843587D01*
X152248568Y-94838173D01*
X152246616Y-94833051D01*
X152253285Y-94808392D01*
X152257282Y-94783155D01*
X152261159Y-94779277D01*
X152262590Y-94773987D01*
X152282480Y-94757956D01*
X152300547Y-94739890D01*
X152306742Y-94738402D01*
X152310229Y-94735593D01*
X152320611Y-94735073D01*
X152345492Y-94729100D01*
X152545568Y-94729100D01*
X152545570Y-94729100D01*
X152545571Y-94729100D01*
X152570229Y-94718885D01*
X152570232Y-94718885D01*
X152600004Y-94706553D01*
X152629775Y-94694222D01*
X153194222Y-94129774D01*
X153227858Y-94048569D01*
X153229100Y-94045571D01*
X153229100Y-92999499D01*
X153248007Y-92941308D01*
X153297507Y-92905344D01*
X153328100Y-92900499D01*
X153679265Y-92900499D01*
X153685350Y-92899928D01*
X153709698Y-92897646D01*
X153837882Y-92852793D01*
X153947150Y-92772150D01*
X154027793Y-92662882D01*
X154072646Y-92534698D01*
X154075500Y-92504265D01*
X154075499Y-91470736D01*
X154072646Y-91440302D01*
X154027793Y-91312118D01*
X154027791Y-91312116D01*
X154027791Y-91312114D01*
X153947154Y-91202855D01*
X153947152Y-91202853D01*
X153947150Y-91202850D01*
X153947146Y-91202847D01*
X153947144Y-91202845D01*
X153837885Y-91122208D01*
X153823697Y-91117243D01*
X153709698Y-91077354D01*
X153709696Y-91077353D01*
X153709694Y-91077353D01*
X153679272Y-91074500D01*
X152320734Y-91074500D01*
X152290305Y-91077353D01*
X152162114Y-91122208D01*
X152052855Y-91202845D01*
X152052845Y-91202855D01*
X151972208Y-91312114D01*
X151927353Y-91440305D01*
X151924500Y-91470726D01*
X151924500Y-92504265D01*
X151927353Y-92534694D01*
X151972208Y-92662885D01*
X152052845Y-92772144D01*
X152052847Y-92772146D01*
X152052850Y-92772150D01*
X152052853Y-92772152D01*
X152052855Y-92772154D01*
X152162114Y-92852791D01*
X152162116Y-92852791D01*
X152162118Y-92852793D01*
X152290302Y-92897646D01*
X152320735Y-92900500D01*
X152671900Y-92900499D01*
X152730091Y-92919406D01*
X152766055Y-92968906D01*
X152770900Y-92999499D01*
X152770900Y-93864095D01*
X152751993Y-93922286D01*
X152741904Y-93934099D01*
X152434099Y-94241904D01*
X152379582Y-94269681D01*
X152364095Y-94270900D01*
X150508588Y-94270900D01*
X150450397Y-94251993D01*
X150422852Y-94221401D01*
X150404502Y-94189618D01*
X150404501Y-94189616D01*
X150310384Y-94095499D01*
X150310381Y-94095497D01*
X150195119Y-94028950D01*
X150195121Y-94028950D01*
X150145235Y-94015583D01*
X150066550Y-93994500D01*
X149933450Y-93994500D01*
X149854764Y-94015583D01*
X149804879Y-94028950D01*
X149689618Y-94095497D01*
X149595497Y-94189618D01*
X149528950Y-94304879D01*
X149518793Y-94342788D01*
X149494500Y-94433450D01*
X149494500Y-94566550D01*
X149524880Y-94679930D01*
X149528950Y-94695120D01*
X149577539Y-94779277D01*
X149595499Y-94810384D01*
X149689616Y-94904501D01*
X149689618Y-94904502D01*
X149804880Y-94971049D01*
X149804878Y-94971049D01*
X149804882Y-94971050D01*
X149804884Y-94971051D01*
X149933450Y-95005500D01*
X149933452Y-95005500D01*
X150066548Y-95005500D01*
X150066550Y-95005500D01*
X150195116Y-94971051D01*
X150195118Y-94971049D01*
X150195120Y-94971049D01*
X150229362Y-94951278D01*
X150310384Y-94904501D01*
X150404501Y-94810384D01*
X150422852Y-94778599D01*
X150468322Y-94737659D01*
X150508588Y-94729100D01*
X151479508Y-94729100D01*
X151537699Y-94748007D01*
X151573663Y-94797507D01*
X151573663Y-94858693D01*
X151549513Y-94898101D01*
X151507999Y-94939616D01*
X151507997Y-94939618D01*
X151441450Y-95054879D01*
X151441449Y-95054884D01*
X151407000Y-95183450D01*
X151407000Y-95316550D01*
X151437380Y-95429930D01*
X151441450Y-95445120D01*
X151507997Y-95560381D01*
X151507999Y-95560384D01*
X151602116Y-95654501D01*
X151602118Y-95654502D01*
X151717380Y-95721049D01*
X151717378Y-95721049D01*
X151717382Y-95721050D01*
X151717384Y-95721051D01*
X151845950Y-95755500D01*
X151845952Y-95755500D01*
X151979048Y-95755500D01*
X151979050Y-95755500D01*
X152107616Y-95721051D01*
X152107618Y-95721049D01*
X152107620Y-95721049D01*
X152145156Y-95699377D01*
X152222884Y-95654501D01*
X152317001Y-95560384D01*
X152335352Y-95528599D01*
X152380822Y-95487659D01*
X152421088Y-95479100D01*
X155364096Y-95479100D01*
X155422287Y-95498007D01*
X155434099Y-95508096D01*
X155716503Y-95790499D01*
X155744281Y-95845016D01*
X155745500Y-95860503D01*
X155745500Y-97603574D01*
X155726593Y-97661765D01*
X155716504Y-97673578D01*
X155173578Y-98216504D01*
X155119061Y-98244281D01*
X155103574Y-98245500D01*
X148729500Y-98245500D01*
X148671309Y-98226593D01*
X148635345Y-98177093D01*
X148630500Y-98146500D01*
X148630500Y-97845727D01*
X148630499Y-97845725D01*
X148627646Y-97815305D01*
X148627646Y-97815301D01*
X148582793Y-97687118D01*
X148572800Y-97673578D01*
X148502154Y-97577855D01*
X148502152Y-97577853D01*
X148502150Y-97577850D01*
X148502146Y-97577847D01*
X148502144Y-97577845D01*
X148392883Y-97497207D01*
X148264703Y-97452355D01*
X148264694Y-97452353D01*
X148234274Y-97449500D01*
X148234266Y-97449500D01*
X146925734Y-97449500D01*
X146925725Y-97449500D01*
X146895305Y-97452353D01*
X146895296Y-97452355D01*
X146767116Y-97497207D01*
X146657855Y-97577845D01*
X146657845Y-97577855D01*
X146577207Y-97687116D01*
X146532355Y-97815296D01*
X146532353Y-97815305D01*
X146529500Y-97845725D01*
X146529500Y-99154274D01*
X146532353Y-99184694D01*
X146532355Y-99184703D01*
X146577207Y-99312883D01*
X146657845Y-99422144D01*
X146657847Y-99422146D01*
X146657850Y-99422150D01*
X146657853Y-99422152D01*
X146657855Y-99422154D01*
X146767116Y-99502792D01*
X146767117Y-99502792D01*
X146767118Y-99502793D01*
X146895301Y-99547646D01*
X146925725Y-99550499D01*
X146925727Y-99550500D01*
X146925734Y-99550500D01*
X148234273Y-99550500D01*
X148234273Y-99550499D01*
X148264699Y-99547646D01*
X148392882Y-99502793D01*
X148502150Y-99422150D01*
X148582793Y-99312882D01*
X148627646Y-99184699D01*
X148630499Y-99154273D01*
X148630500Y-99154273D01*
X148630500Y-98853500D01*
X148649407Y-98795309D01*
X148698907Y-98759345D01*
X148729500Y-98754500D01*
X155300624Y-98754500D01*
X155394161Y-98715756D01*
X155394161Y-98715755D01*
X155394163Y-98715755D01*
X156144161Y-97965755D01*
X156144163Y-97965755D01*
X156215755Y-97894163D01*
X156248419Y-97815305D01*
X156254500Y-97800624D01*
X156254500Y-89812155D01*
X156254501Y-89812146D01*
X156254501Y-89699377D01*
X156227103Y-89633234D01*
X156227103Y-89633233D01*
X156215756Y-89605839D01*
X156215755Y-89605838D01*
X156215755Y-89605837D01*
X156144163Y-89534245D01*
X156144161Y-89534244D01*
X155406663Y-88796745D01*
X155406661Y-88796744D01*
X155406660Y-88796743D01*
X155313125Y-88758000D01*
X155313123Y-88758000D01*
X154174499Y-88758000D01*
X154116308Y-88739093D01*
X154080344Y-88689593D01*
X154075499Y-88659000D01*
X154075499Y-88495734D01*
X154072646Y-88465305D01*
X154072646Y-88465302D01*
X154027793Y-88337118D01*
X154027791Y-88337116D01*
X154027791Y-88337114D01*
X153947154Y-88227855D01*
X153947152Y-88227853D01*
X153947150Y-88227850D01*
X153947146Y-88227847D01*
X153947144Y-88227845D01*
X153837885Y-88147208D01*
X153823697Y-88142243D01*
X153709698Y-88102354D01*
X153709696Y-88102353D01*
X153709694Y-88102353D01*
X153679272Y-88099500D01*
X152320734Y-88099500D01*
X152290305Y-88102353D01*
X152162114Y-88147208D01*
X152052855Y-88227845D01*
X152052845Y-88227855D01*
X151972208Y-88337114D01*
X151927353Y-88465305D01*
X151924500Y-88495726D01*
X151924500Y-88659000D01*
X151905593Y-88717191D01*
X151856093Y-88753155D01*
X151825500Y-88758000D01*
X151174499Y-88758000D01*
X151116308Y-88739093D01*
X151080344Y-88689593D01*
X151075499Y-88659000D01*
X151075499Y-88495734D01*
X151072646Y-88465305D01*
X151072646Y-88465302D01*
X151027793Y-88337118D01*
X151027791Y-88337116D01*
X151027791Y-88337114D01*
X150947154Y-88227855D01*
X150947152Y-88227853D01*
X150947150Y-88227850D01*
X150947146Y-88227847D01*
X150947144Y-88227845D01*
X150837885Y-88147208D01*
X150823697Y-88142243D01*
X150709698Y-88102354D01*
X150709696Y-88102353D01*
X150709694Y-88102353D01*
X150679272Y-88099500D01*
X149320734Y-88099500D01*
X149290305Y-88102353D01*
X149162114Y-88147208D01*
X149052855Y-88227845D01*
X149052845Y-88227855D01*
X148972208Y-88337114D01*
X148927353Y-88465305D01*
X148924500Y-88495726D01*
X148924500Y-88659000D01*
X148905593Y-88717191D01*
X148856093Y-88753155D01*
X148825500Y-88758000D01*
X148174499Y-88758000D01*
X148116308Y-88739093D01*
X148080344Y-88689593D01*
X148075499Y-88659000D01*
X148075499Y-88495734D01*
X148072646Y-88465305D01*
X148072646Y-88465302D01*
X148027793Y-88337118D01*
X148027791Y-88337116D01*
X148027791Y-88337114D01*
X147947154Y-88227855D01*
X147947152Y-88227853D01*
X147947150Y-88227850D01*
X147947146Y-88227847D01*
X147947144Y-88227845D01*
X147837885Y-88147208D01*
X147823697Y-88142243D01*
X147709698Y-88102354D01*
X147709696Y-88102353D01*
X147709694Y-88102353D01*
X147679272Y-88099500D01*
X146320734Y-88099500D01*
X146290305Y-88102353D01*
X146162114Y-88147208D01*
X146052855Y-88227845D01*
X146052845Y-88227855D01*
X145972208Y-88337114D01*
X145927353Y-88465305D01*
X145924500Y-88495726D01*
X145924500Y-88659000D01*
X145905593Y-88717191D01*
X145856093Y-88753155D01*
X145825500Y-88758000D01*
X145174499Y-88758000D01*
X145116308Y-88739093D01*
X145080344Y-88689593D01*
X145075499Y-88659000D01*
X145075499Y-88495734D01*
X145072646Y-88465305D01*
X145072646Y-88465302D01*
X145027793Y-88337118D01*
X145027791Y-88337116D01*
X145027791Y-88337114D01*
X144947154Y-88227855D01*
X144947152Y-88227853D01*
X144947150Y-88227850D01*
X144947146Y-88227847D01*
X144947144Y-88227845D01*
X144837885Y-88147208D01*
X144823697Y-88142243D01*
X144709698Y-88102354D01*
X144709696Y-88102353D01*
X144709694Y-88102353D01*
X144679272Y-88099500D01*
X143320734Y-88099500D01*
X143290305Y-88102353D01*
X143162114Y-88147208D01*
X143052855Y-88227845D01*
X143052845Y-88227855D01*
X142972208Y-88337114D01*
X142927353Y-88465305D01*
X142924500Y-88495726D01*
X142924500Y-88659000D01*
X142905593Y-88717191D01*
X142856093Y-88753155D01*
X142825500Y-88758000D01*
X142174499Y-88758000D01*
X142116308Y-88739093D01*
X142080344Y-88689593D01*
X142075499Y-88659000D01*
X142075499Y-88495734D01*
X142072646Y-88465305D01*
X142072646Y-88465302D01*
X142027793Y-88337118D01*
X142027791Y-88337116D01*
X142027791Y-88337114D01*
X141947154Y-88227855D01*
X141947152Y-88227853D01*
X141947150Y-88227850D01*
X141947146Y-88227847D01*
X141947144Y-88227845D01*
X141837885Y-88147208D01*
X141823697Y-88142243D01*
X141709698Y-88102354D01*
X141709696Y-88102353D01*
X141709694Y-88102353D01*
X141679272Y-88099500D01*
X140320734Y-88099500D01*
X140290305Y-88102353D01*
X140162114Y-88147208D01*
X140052855Y-88227845D01*
X140052845Y-88227855D01*
X139972208Y-88337114D01*
X139927353Y-88465305D01*
X139924500Y-88495726D01*
X139924500Y-88659000D01*
X139905593Y-88717191D01*
X139856093Y-88753155D01*
X139825500Y-88758000D01*
X139174499Y-88758000D01*
X139116308Y-88739093D01*
X139080344Y-88689593D01*
X139075499Y-88659000D01*
X139075499Y-88495734D01*
X139072646Y-88465305D01*
X139072646Y-88465302D01*
X139027793Y-88337118D01*
X139027791Y-88337116D01*
X139027791Y-88337114D01*
X138947154Y-88227855D01*
X138947152Y-88227853D01*
X138947150Y-88227850D01*
X138947146Y-88227847D01*
X138947144Y-88227845D01*
X138837885Y-88147208D01*
X138823697Y-88142243D01*
X138709698Y-88102354D01*
X138709696Y-88102353D01*
X138709694Y-88102353D01*
X138679272Y-88099500D01*
X137320734Y-88099500D01*
X137290305Y-88102353D01*
X137162114Y-88147208D01*
X137052855Y-88227845D01*
X137052845Y-88227855D01*
X136972208Y-88337114D01*
X136927353Y-88465305D01*
X136924500Y-88495726D01*
X136924500Y-88659000D01*
X136905593Y-88717191D01*
X136856093Y-88753155D01*
X136825500Y-88758000D01*
X136174499Y-88758000D01*
X136116308Y-88739093D01*
X136080344Y-88689593D01*
X136075499Y-88659000D01*
X136075499Y-88495734D01*
X136072646Y-88465305D01*
X136072646Y-88465302D01*
X136027793Y-88337118D01*
X136027791Y-88337116D01*
X136027791Y-88337114D01*
X135947154Y-88227855D01*
X135947152Y-88227853D01*
X135947150Y-88227850D01*
X135947146Y-88227847D01*
X135947144Y-88227845D01*
X135837885Y-88147208D01*
X135823697Y-88142243D01*
X135709698Y-88102354D01*
X135709696Y-88102353D01*
X135709694Y-88102353D01*
X135679272Y-88099500D01*
X134320734Y-88099500D01*
X134290305Y-88102353D01*
X134162114Y-88147208D01*
X134052855Y-88227845D01*
X134052845Y-88227855D01*
X133972208Y-88337114D01*
X133927353Y-88465305D01*
X133924500Y-88495726D01*
X133924500Y-88659000D01*
X133905593Y-88717191D01*
X133856093Y-88753155D01*
X133825500Y-88758000D01*
X133174499Y-88758000D01*
X133116308Y-88739093D01*
X133080344Y-88689593D01*
X133075499Y-88659000D01*
X133075499Y-88495734D01*
X133072646Y-88465305D01*
X133072646Y-88465302D01*
X133027793Y-88337118D01*
X133027791Y-88337116D01*
X133027791Y-88337114D01*
X132947154Y-88227855D01*
X132947152Y-88227853D01*
X132947150Y-88227850D01*
X132947146Y-88227847D01*
X132947144Y-88227845D01*
X132837885Y-88147208D01*
X132823697Y-88142243D01*
X132709698Y-88102354D01*
X132709696Y-88102353D01*
X132709694Y-88102353D01*
X132679272Y-88099500D01*
X131320734Y-88099500D01*
X131290305Y-88102353D01*
X131162114Y-88147208D01*
X131052855Y-88227845D01*
X131052845Y-88227855D01*
X130972208Y-88337114D01*
X130927353Y-88465305D01*
X130924500Y-88495726D01*
X130924500Y-88896500D01*
X130905593Y-88954691D01*
X130856093Y-88990655D01*
X130825500Y-88995500D01*
X129081423Y-88995500D01*
X129023232Y-88976593D01*
X128995685Y-88945997D01*
X128992002Y-88939618D01*
X128992001Y-88939616D01*
X128897884Y-88845499D01*
X128897881Y-88845497D01*
X128782619Y-88778950D01*
X128782621Y-88778950D01*
X128732735Y-88765583D01*
X128654050Y-88744500D01*
X128520950Y-88744500D01*
X128442264Y-88765583D01*
X128392379Y-88778950D01*
X128277118Y-88845497D01*
X128182997Y-88939618D01*
X128116450Y-89054879D01*
X128116449Y-89054884D01*
X128082000Y-89183450D01*
X120250000Y-89183450D01*
X120250000Y-84849000D01*
X120268907Y-84790809D01*
X120318407Y-84754845D01*
X120349000Y-84750000D01*
X164651000Y-84750000D01*
X164709191Y-84768907D01*
G37*
G04 #@! TD.AperFunction*
G04 #@! TD*
M02*
