G04 #@! TF.GenerationSoftware,KiCad,Pcbnew,10.0.3-10.0.3~ubuntu26.04.1*
G04 #@! TF.CreationDate,2026-07-24T16:25:31+03:00*
G04 #@! TF.ProjectId,retrolight-main,72657472-6f6c-4696-9768-742d6d61696e,B*
G04 #@! TF.SameCoordinates,Original*
G04 #@! TF.FileFunction,Legend,Bot*
G04 #@! TF.FilePolarity,Positive*
%FSLAX46Y46*%
G04 Gerber Fmt 4.6, Leading zero omitted, Abs format (unit mm)*
G04 Created by KiCad (PCBNEW 10.0.3-10.0.3~ubuntu26.04.1) date 2026-07-24 16:25:31*
%MOMM*%
%LPD*%
G01*
G04 APERTURE LIST*
%ADD10C,0.100000*%
%ADD11C,0.150000*%
%ADD12C,0.120000*%
G04 APERTURE END LIST*
D10*
X130500000Y-87500000D02*
X154500000Y-87500000D01*
X154500000Y-93500000D01*
X130500000Y-93500000D01*
X130500000Y-87500000D01*
D11*
X132738094Y-86954819D02*
X132738094Y-85954819D01*
X132738094Y-85954819D02*
X132499999Y-85954819D01*
X132499999Y-85954819D02*
X132357142Y-86002438D01*
X132357142Y-86002438D02*
X132261904Y-86097676D01*
X132261904Y-86097676D02*
X132214285Y-86192914D01*
X132214285Y-86192914D02*
X132166666Y-86383390D01*
X132166666Y-86383390D02*
X132166666Y-86526247D01*
X132166666Y-86526247D02*
X132214285Y-86716723D01*
X132214285Y-86716723D02*
X132261904Y-86811961D01*
X132261904Y-86811961D02*
X132357142Y-86907200D01*
X132357142Y-86907200D02*
X132499999Y-86954819D01*
X132499999Y-86954819D02*
X132738094Y-86954819D01*
X131214285Y-86954819D02*
X131785713Y-86954819D01*
X131499999Y-86954819D02*
X131499999Y-85954819D01*
X131499999Y-85954819D02*
X131595237Y-86097676D01*
X131595237Y-86097676D02*
X131690475Y-86192914D01*
X131690475Y-86192914D02*
X131785713Y-86240533D01*
X150738094Y-86954819D02*
X150738094Y-85954819D01*
X150738094Y-85954819D02*
X150499999Y-85954819D01*
X150499999Y-85954819D02*
X150357142Y-86002438D01*
X150357142Y-86002438D02*
X150261904Y-86097676D01*
X150261904Y-86097676D02*
X150214285Y-86192914D01*
X150214285Y-86192914D02*
X150166666Y-86383390D01*
X150166666Y-86383390D02*
X150166666Y-86526247D01*
X150166666Y-86526247D02*
X150214285Y-86716723D01*
X150214285Y-86716723D02*
X150261904Y-86811961D01*
X150261904Y-86811961D02*
X150357142Y-86907200D01*
X150357142Y-86907200D02*
X150499999Y-86954819D01*
X150499999Y-86954819D02*
X150738094Y-86954819D01*
X149833332Y-85954819D02*
X149166666Y-85954819D01*
X149166666Y-85954819D02*
X149595237Y-86954819D01*
X147738094Y-86954819D02*
X147738094Y-85954819D01*
X147738094Y-85954819D02*
X147499999Y-85954819D01*
X147499999Y-85954819D02*
X147357142Y-86002438D01*
X147357142Y-86002438D02*
X147261904Y-86097676D01*
X147261904Y-86097676D02*
X147214285Y-86192914D01*
X147214285Y-86192914D02*
X147166666Y-86383390D01*
X147166666Y-86383390D02*
X147166666Y-86526247D01*
X147166666Y-86526247D02*
X147214285Y-86716723D01*
X147214285Y-86716723D02*
X147261904Y-86811961D01*
X147261904Y-86811961D02*
X147357142Y-86907200D01*
X147357142Y-86907200D02*
X147499999Y-86954819D01*
X147499999Y-86954819D02*
X147738094Y-86954819D01*
X146309523Y-85954819D02*
X146499999Y-85954819D01*
X146499999Y-85954819D02*
X146595237Y-86002438D01*
X146595237Y-86002438D02*
X146642856Y-86050057D01*
X146642856Y-86050057D02*
X146738094Y-86192914D01*
X146738094Y-86192914D02*
X146785713Y-86383390D01*
X146785713Y-86383390D02*
X146785713Y-86764342D01*
X146785713Y-86764342D02*
X146738094Y-86859580D01*
X146738094Y-86859580D02*
X146690475Y-86907200D01*
X146690475Y-86907200D02*
X146595237Y-86954819D01*
X146595237Y-86954819D02*
X146404761Y-86954819D01*
X146404761Y-86954819D02*
X146309523Y-86907200D01*
X146309523Y-86907200D02*
X146261904Y-86859580D01*
X146261904Y-86859580D02*
X146214285Y-86764342D01*
X146214285Y-86764342D02*
X146214285Y-86526247D01*
X146214285Y-86526247D02*
X146261904Y-86431009D01*
X146261904Y-86431009D02*
X146309523Y-86383390D01*
X146309523Y-86383390D02*
X146404761Y-86335771D01*
X146404761Y-86335771D02*
X146595237Y-86335771D01*
X146595237Y-86335771D02*
X146690475Y-86383390D01*
X146690475Y-86383390D02*
X146738094Y-86431009D01*
X146738094Y-86431009D02*
X146785713Y-86526247D01*
X135738094Y-86954819D02*
X135738094Y-85954819D01*
X135738094Y-85954819D02*
X135499999Y-85954819D01*
X135499999Y-85954819D02*
X135357142Y-86002438D01*
X135357142Y-86002438D02*
X135261904Y-86097676D01*
X135261904Y-86097676D02*
X135214285Y-86192914D01*
X135214285Y-86192914D02*
X135166666Y-86383390D01*
X135166666Y-86383390D02*
X135166666Y-86526247D01*
X135166666Y-86526247D02*
X135214285Y-86716723D01*
X135214285Y-86716723D02*
X135261904Y-86811961D01*
X135261904Y-86811961D02*
X135357142Y-86907200D01*
X135357142Y-86907200D02*
X135499999Y-86954819D01*
X135499999Y-86954819D02*
X135738094Y-86954819D01*
X134785713Y-86050057D02*
X134738094Y-86002438D01*
X134738094Y-86002438D02*
X134642856Y-85954819D01*
X134642856Y-85954819D02*
X134404761Y-85954819D01*
X134404761Y-85954819D02*
X134309523Y-86002438D01*
X134309523Y-86002438D02*
X134261904Y-86050057D01*
X134261904Y-86050057D02*
X134214285Y-86145295D01*
X134214285Y-86145295D02*
X134214285Y-86240533D01*
X134214285Y-86240533D02*
X134261904Y-86383390D01*
X134261904Y-86383390D02*
X134833332Y-86954819D01*
X134833332Y-86954819D02*
X134214285Y-86954819D01*
X153738094Y-86954819D02*
X153738094Y-85954819D01*
X153738094Y-85954819D02*
X153499999Y-85954819D01*
X153499999Y-85954819D02*
X153357142Y-86002438D01*
X153357142Y-86002438D02*
X153261904Y-86097676D01*
X153261904Y-86097676D02*
X153214285Y-86192914D01*
X153214285Y-86192914D02*
X153166666Y-86383390D01*
X153166666Y-86383390D02*
X153166666Y-86526247D01*
X153166666Y-86526247D02*
X153214285Y-86716723D01*
X153214285Y-86716723D02*
X153261904Y-86811961D01*
X153261904Y-86811961D02*
X153357142Y-86907200D01*
X153357142Y-86907200D02*
X153499999Y-86954819D01*
X153499999Y-86954819D02*
X153738094Y-86954819D01*
X152595237Y-86383390D02*
X152690475Y-86335771D01*
X152690475Y-86335771D02*
X152738094Y-86288152D01*
X152738094Y-86288152D02*
X152785713Y-86192914D01*
X152785713Y-86192914D02*
X152785713Y-86145295D01*
X152785713Y-86145295D02*
X152738094Y-86050057D01*
X152738094Y-86050057D02*
X152690475Y-86002438D01*
X152690475Y-86002438D02*
X152595237Y-85954819D01*
X152595237Y-85954819D02*
X152404761Y-85954819D01*
X152404761Y-85954819D02*
X152309523Y-86002438D01*
X152309523Y-86002438D02*
X152261904Y-86050057D01*
X152261904Y-86050057D02*
X152214285Y-86145295D01*
X152214285Y-86145295D02*
X152214285Y-86192914D01*
X152214285Y-86192914D02*
X152261904Y-86288152D01*
X152261904Y-86288152D02*
X152309523Y-86335771D01*
X152309523Y-86335771D02*
X152404761Y-86383390D01*
X152404761Y-86383390D02*
X152595237Y-86383390D01*
X152595237Y-86383390D02*
X152690475Y-86431009D01*
X152690475Y-86431009D02*
X152738094Y-86478628D01*
X152738094Y-86478628D02*
X152785713Y-86573866D01*
X152785713Y-86573866D02*
X152785713Y-86764342D01*
X152785713Y-86764342D02*
X152738094Y-86859580D01*
X152738094Y-86859580D02*
X152690475Y-86907200D01*
X152690475Y-86907200D02*
X152595237Y-86954819D01*
X152595237Y-86954819D02*
X152404761Y-86954819D01*
X152404761Y-86954819D02*
X152309523Y-86907200D01*
X152309523Y-86907200D02*
X152261904Y-86859580D01*
X152261904Y-86859580D02*
X152214285Y-86764342D01*
X152214285Y-86764342D02*
X152214285Y-86573866D01*
X152214285Y-86573866D02*
X152261904Y-86478628D01*
X152261904Y-86478628D02*
X152309523Y-86431009D01*
X152309523Y-86431009D02*
X152404761Y-86383390D01*
X141738094Y-86954819D02*
X141738094Y-85954819D01*
X141738094Y-85954819D02*
X141499999Y-85954819D01*
X141499999Y-85954819D02*
X141357142Y-86002438D01*
X141357142Y-86002438D02*
X141261904Y-86097676D01*
X141261904Y-86097676D02*
X141214285Y-86192914D01*
X141214285Y-86192914D02*
X141166666Y-86383390D01*
X141166666Y-86383390D02*
X141166666Y-86526247D01*
X141166666Y-86526247D02*
X141214285Y-86716723D01*
X141214285Y-86716723D02*
X141261904Y-86811961D01*
X141261904Y-86811961D02*
X141357142Y-86907200D01*
X141357142Y-86907200D02*
X141499999Y-86954819D01*
X141499999Y-86954819D02*
X141738094Y-86954819D01*
X140309523Y-86288152D02*
X140309523Y-86954819D01*
X140547618Y-85907200D02*
X140785713Y-86621485D01*
X140785713Y-86621485D02*
X140166666Y-86621485D01*
X138738094Y-86954819D02*
X138738094Y-85954819D01*
X138738094Y-85954819D02*
X138499999Y-85954819D01*
X138499999Y-85954819D02*
X138357142Y-86002438D01*
X138357142Y-86002438D02*
X138261904Y-86097676D01*
X138261904Y-86097676D02*
X138214285Y-86192914D01*
X138214285Y-86192914D02*
X138166666Y-86383390D01*
X138166666Y-86383390D02*
X138166666Y-86526247D01*
X138166666Y-86526247D02*
X138214285Y-86716723D01*
X138214285Y-86716723D02*
X138261904Y-86811961D01*
X138261904Y-86811961D02*
X138357142Y-86907200D01*
X138357142Y-86907200D02*
X138499999Y-86954819D01*
X138499999Y-86954819D02*
X138738094Y-86954819D01*
X137833332Y-85954819D02*
X137214285Y-85954819D01*
X137214285Y-85954819D02*
X137547618Y-86335771D01*
X137547618Y-86335771D02*
X137404761Y-86335771D01*
X137404761Y-86335771D02*
X137309523Y-86383390D01*
X137309523Y-86383390D02*
X137261904Y-86431009D01*
X137261904Y-86431009D02*
X137214285Y-86526247D01*
X137214285Y-86526247D02*
X137214285Y-86764342D01*
X137214285Y-86764342D02*
X137261904Y-86859580D01*
X137261904Y-86859580D02*
X137309523Y-86907200D01*
X137309523Y-86907200D02*
X137404761Y-86954819D01*
X137404761Y-86954819D02*
X137690475Y-86954819D01*
X137690475Y-86954819D02*
X137785713Y-86907200D01*
X137785713Y-86907200D02*
X137833332Y-86859580D01*
X144738094Y-86954819D02*
X144738094Y-85954819D01*
X144738094Y-85954819D02*
X144499999Y-85954819D01*
X144499999Y-85954819D02*
X144357142Y-86002438D01*
X144357142Y-86002438D02*
X144261904Y-86097676D01*
X144261904Y-86097676D02*
X144214285Y-86192914D01*
X144214285Y-86192914D02*
X144166666Y-86383390D01*
X144166666Y-86383390D02*
X144166666Y-86526247D01*
X144166666Y-86526247D02*
X144214285Y-86716723D01*
X144214285Y-86716723D02*
X144261904Y-86811961D01*
X144261904Y-86811961D02*
X144357142Y-86907200D01*
X144357142Y-86907200D02*
X144499999Y-86954819D01*
X144499999Y-86954819D02*
X144738094Y-86954819D01*
X143261904Y-85954819D02*
X143738094Y-85954819D01*
X143738094Y-85954819D02*
X143785713Y-86431009D01*
X143785713Y-86431009D02*
X143738094Y-86383390D01*
X143738094Y-86383390D02*
X143642856Y-86335771D01*
X143642856Y-86335771D02*
X143404761Y-86335771D01*
X143404761Y-86335771D02*
X143309523Y-86383390D01*
X143309523Y-86383390D02*
X143261904Y-86431009D01*
X143261904Y-86431009D02*
X143214285Y-86526247D01*
X143214285Y-86526247D02*
X143214285Y-86764342D01*
X143214285Y-86764342D02*
X143261904Y-86859580D01*
X143261904Y-86859580D02*
X143309523Y-86907200D01*
X143309523Y-86907200D02*
X143404761Y-86954819D01*
X143404761Y-86954819D02*
X143642856Y-86954819D01*
X143642856Y-86954819D02*
X143738094Y-86907200D01*
X143738094Y-86907200D02*
X143785713Y-86859580D01*
G04 #@! TO.C,D1*
D12*
X130865000Y-92960000D02*
X130865000Y-88900000D01*
X133135000Y-88900000D02*
X133135000Y-92960000D01*
X133135000Y-92960000D02*
X130865000Y-92960000D01*
G04 #@! TO.C,D7*
X148865000Y-92960000D02*
X148865000Y-88900000D01*
X151135000Y-88900000D02*
X151135000Y-92960000D01*
X151135000Y-92960000D02*
X148865000Y-92960000D01*
G04 #@! TO.C,D6*
X145865000Y-92960000D02*
X145865000Y-88900000D01*
X148135000Y-88900000D02*
X148135000Y-92960000D01*
X148135000Y-92960000D02*
X145865000Y-92960000D01*
G04 #@! TO.C,D2*
X133865000Y-92960000D02*
X133865000Y-88900000D01*
X136135000Y-88900000D02*
X136135000Y-92960000D01*
X136135000Y-92960000D02*
X133865000Y-92960000D01*
G04 #@! TO.C,D8*
X151865000Y-92960000D02*
X151865000Y-88900000D01*
X154135000Y-88900000D02*
X154135000Y-92960000D01*
X154135000Y-92960000D02*
X151865000Y-92960000D01*
G04 #@! TO.C,D4*
X139865000Y-92960000D02*
X139865000Y-88900000D01*
X142135000Y-88900000D02*
X142135000Y-92960000D01*
X142135000Y-92960000D02*
X139865000Y-92960000D01*
G04 #@! TO.C,D3*
X136865000Y-92960000D02*
X136865000Y-88900000D01*
X139135000Y-88900000D02*
X139135000Y-92960000D01*
X139135000Y-92960000D02*
X136865000Y-92960000D01*
G04 #@! TO.C,D5*
X142865000Y-92960000D02*
X142865000Y-88900000D01*
X145135000Y-88900000D02*
X145135000Y-92960000D01*
X145135000Y-92960000D02*
X142865000Y-92960000D01*
G04 #@! TD*
M02*
