G04 #@! TF.GenerationSoftware,KiCad,Pcbnew,10.0.3-10.0.3~ubuntu26.04.1*
G04 #@! TF.CreationDate,2026-07-25T16:14:13+03:00*
G04 #@! TF.ProjectId,retrolight-main,72657472-6f6c-4696-9768-742d6d61696e,B*
G04 #@! TF.SameCoordinates,Original*
G04 #@! TF.FileFunction,Soldermask,Bot*
G04 #@! TF.FilePolarity,Negative*
%FSLAX46Y46*%
G04 Gerber Fmt 4.6, Leading zero omitted, Abs format (unit mm)*
G04 Created by KiCad (PCBNEW 10.0.3-10.0.3~ubuntu26.04.1) date 2026-07-25 16:14:13*
%MOMM*%
%LPD*%
G01*
G04 APERTURE LIST*
G04 APERTURE END LIST*
G36*
X125557576Y-96241129D02*
G01*
X125923325Y-96313881D01*
X126280181Y-96422133D01*
X126624709Y-96564841D01*
X126953590Y-96740631D01*
X127263657Y-96947811D01*
X127551924Y-97184386D01*
X127815614Y-97448076D01*
X128052189Y-97736343D01*
X128259369Y-98046410D01*
X128435159Y-98375291D01*
X128577867Y-98719819D01*
X128686119Y-99076675D01*
X128758871Y-99442424D01*
X128795423Y-99813543D01*
X128795423Y-100186457D01*
X128758871Y-100557576D01*
X128686119Y-100923325D01*
X128577867Y-101280181D01*
X128435159Y-101624709D01*
X128259369Y-101953590D01*
X128052189Y-102263657D01*
X127815614Y-102551924D01*
X127551924Y-102815614D01*
X127263657Y-103052189D01*
X126953590Y-103259369D01*
X126624709Y-103435159D01*
X126280181Y-103577867D01*
X125923325Y-103686119D01*
X125557576Y-103758871D01*
X125186457Y-103795423D01*
X124813543Y-103795423D01*
X124442424Y-103758871D01*
X124076675Y-103686119D01*
X123719819Y-103577867D01*
X123375291Y-103435159D01*
X123046410Y-103259369D01*
X122736343Y-103052189D01*
X122448076Y-102815614D01*
X122184386Y-102551924D01*
X121947811Y-102263657D01*
X121740631Y-101953590D01*
X121564841Y-101624709D01*
X121422133Y-101280181D01*
X121313881Y-100923325D01*
X121241129Y-100557576D01*
X121204577Y-100186457D01*
X121204577Y-99813543D01*
X121241129Y-99442424D01*
X121313881Y-99076675D01*
X121422133Y-98719819D01*
X121564841Y-98375291D01*
X121740631Y-98046410D01*
X121947811Y-97736343D01*
X122184386Y-97448076D01*
X122448076Y-97184386D01*
X122736343Y-96947811D01*
X123046410Y-96740631D01*
X123375291Y-96564841D01*
X123719819Y-96422133D01*
X124076675Y-96313881D01*
X124442424Y-96241129D01*
X124813543Y-96204577D01*
X125186457Y-96204577D01*
X125557576Y-96241129D01*
G37*
G36*
X160557576Y-96241129D02*
G01*
X160923325Y-96313881D01*
X161280181Y-96422133D01*
X161624709Y-96564841D01*
X161953590Y-96740631D01*
X162263657Y-96947811D01*
X162551924Y-97184386D01*
X162815614Y-97448076D01*
X163052189Y-97736343D01*
X163259369Y-98046410D01*
X163435159Y-98375291D01*
X163577867Y-98719819D01*
X163686119Y-99076675D01*
X163758871Y-99442424D01*
X163795423Y-99813543D01*
X163795423Y-100186457D01*
X163758871Y-100557576D01*
X163686119Y-100923325D01*
X163577867Y-101280181D01*
X163435159Y-101624709D01*
X163259369Y-101953590D01*
X163052189Y-102263657D01*
X162815614Y-102551924D01*
X162551924Y-102815614D01*
X162263657Y-103052189D01*
X161953590Y-103259369D01*
X161624709Y-103435159D01*
X161280181Y-103577867D01*
X160923325Y-103686119D01*
X160557576Y-103758871D01*
X160186457Y-103795423D01*
X159813543Y-103795423D01*
X159442424Y-103758871D01*
X159076675Y-103686119D01*
X158719819Y-103577867D01*
X158375291Y-103435159D01*
X158046410Y-103259369D01*
X157736343Y-103052189D01*
X157448076Y-102815614D01*
X157184386Y-102551924D01*
X156947811Y-102263657D01*
X156740631Y-101953590D01*
X156564841Y-101624709D01*
X156422133Y-101280181D01*
X156313881Y-100923325D01*
X156241129Y-100557576D01*
X156204577Y-100186457D01*
X156204577Y-99813543D01*
X156241129Y-99442424D01*
X156313881Y-99076675D01*
X156422133Y-98719819D01*
X156564841Y-98375291D01*
X156740631Y-98046410D01*
X156947811Y-97736343D01*
X157184386Y-97448076D01*
X157448076Y-97184386D01*
X157736343Y-96947811D01*
X158046410Y-96740631D01*
X158375291Y-96564841D01*
X158719819Y-96422133D01*
X159076675Y-96313881D01*
X159442424Y-96241129D01*
X159813543Y-96204577D01*
X160186457Y-96204577D01*
X160557576Y-96241129D01*
G37*
G36*
X137666742Y-100226601D02*
G01*
X137820687Y-100290367D01*
X137959234Y-100382941D01*
X138077059Y-100500766D01*
X138169633Y-100639313D01*
X138233399Y-100793258D01*
X138265907Y-100956685D01*
X138265907Y-101123315D01*
X138233399Y-101286742D01*
X138169633Y-101440687D01*
X138077059Y-101579234D01*
X137959234Y-101697059D01*
X137820687Y-101789633D01*
X137666742Y-101853399D01*
X137503315Y-101885907D01*
X137336685Y-101885907D01*
X137173258Y-101853399D01*
X137019313Y-101789633D01*
X136880766Y-101697059D01*
X136762941Y-101579234D01*
X136670367Y-101440687D01*
X136606601Y-101286742D01*
X136574093Y-101123315D01*
X136574093Y-100956685D01*
X136606601Y-100793258D01*
X136670367Y-100639313D01*
X136762941Y-100500766D01*
X136880766Y-100382941D01*
X137019313Y-100290367D01*
X137173258Y-100226601D01*
X137336685Y-100194093D01*
X137503315Y-100194093D01*
X137666742Y-100226601D01*
G37*
G36*
X140206742Y-100226601D02*
G01*
X140360687Y-100290367D01*
X140499234Y-100382941D01*
X140617059Y-100500766D01*
X140709633Y-100639313D01*
X140773399Y-100793258D01*
X140805907Y-100956685D01*
X140805907Y-101123315D01*
X140773399Y-101286742D01*
X140709633Y-101440687D01*
X140617059Y-101579234D01*
X140499234Y-101697059D01*
X140360687Y-101789633D01*
X140206742Y-101853399D01*
X140043315Y-101885907D01*
X139876685Y-101885907D01*
X139713258Y-101853399D01*
X139559313Y-101789633D01*
X139420766Y-101697059D01*
X139302941Y-101579234D01*
X139210367Y-101440687D01*
X139146601Y-101286742D01*
X139114093Y-101123315D01*
X139114093Y-100956685D01*
X139146601Y-100793258D01*
X139210367Y-100639313D01*
X139302941Y-100500766D01*
X139420766Y-100382941D01*
X139559313Y-100290367D01*
X139713258Y-100226601D01*
X139876685Y-100194093D01*
X140043315Y-100194093D01*
X140206742Y-100226601D01*
G37*
G36*
X142746742Y-100226601D02*
G01*
X142900687Y-100290367D01*
X143039234Y-100382941D01*
X143157059Y-100500766D01*
X143249633Y-100639313D01*
X143313399Y-100793258D01*
X143345907Y-100956685D01*
X143345907Y-101123315D01*
X143313399Y-101286742D01*
X143249633Y-101440687D01*
X143157059Y-101579234D01*
X143039234Y-101697059D01*
X142900687Y-101789633D01*
X142746742Y-101853399D01*
X142583315Y-101885907D01*
X142416685Y-101885907D01*
X142253258Y-101853399D01*
X142099313Y-101789633D01*
X141960766Y-101697059D01*
X141842941Y-101579234D01*
X141750367Y-101440687D01*
X141686601Y-101286742D01*
X141654093Y-101123315D01*
X141654093Y-100956685D01*
X141686601Y-100793258D01*
X141750367Y-100639313D01*
X141842941Y-100500766D01*
X141960766Y-100382941D01*
X142099313Y-100290367D01*
X142253258Y-100226601D01*
X142416685Y-100194093D01*
X142583315Y-100194093D01*
X142746742Y-100226601D01*
G37*
G36*
X145286742Y-100226601D02*
G01*
X145440687Y-100290367D01*
X145579234Y-100382941D01*
X145697059Y-100500766D01*
X145789633Y-100639313D01*
X145853399Y-100793258D01*
X145885907Y-100956685D01*
X145885907Y-101123315D01*
X145853399Y-101286742D01*
X145789633Y-101440687D01*
X145697059Y-101579234D01*
X145579234Y-101697059D01*
X145440687Y-101789633D01*
X145286742Y-101853399D01*
X145123315Y-101885907D01*
X144956685Y-101885907D01*
X144793258Y-101853399D01*
X144639313Y-101789633D01*
X144500766Y-101697059D01*
X144382941Y-101579234D01*
X144290367Y-101440687D01*
X144226601Y-101286742D01*
X144194093Y-101123315D01*
X144194093Y-100956685D01*
X144226601Y-100793258D01*
X144290367Y-100639313D01*
X144382941Y-100500766D01*
X144500766Y-100382941D01*
X144639313Y-100290367D01*
X144793258Y-100226601D01*
X144956685Y-100194093D01*
X145123315Y-100194093D01*
X145286742Y-100226601D01*
G37*
G36*
X147826742Y-100226601D02*
G01*
X147980687Y-100290367D01*
X148119234Y-100382941D01*
X148237059Y-100500766D01*
X148329633Y-100639313D01*
X148393399Y-100793258D01*
X148425907Y-100956685D01*
X148425907Y-101123315D01*
X148393399Y-101286742D01*
X148329633Y-101440687D01*
X148237059Y-101579234D01*
X148119234Y-101697059D01*
X147980687Y-101789633D01*
X147826742Y-101853399D01*
X147663315Y-101885907D01*
X147496685Y-101885907D01*
X147333258Y-101853399D01*
X147179313Y-101789633D01*
X147040766Y-101697059D01*
X146922941Y-101579234D01*
X146830367Y-101440687D01*
X146766601Y-101286742D01*
X146734093Y-101123315D01*
X146734093Y-100956685D01*
X146766601Y-100793258D01*
X146830367Y-100639313D01*
X146922941Y-100500766D01*
X147040766Y-100382941D01*
X147179313Y-100290367D01*
X147333258Y-100226601D01*
X147496685Y-100194093D01*
X147663315Y-100194093D01*
X147826742Y-100226601D01*
G37*
G36*
X148184116Y-97650818D02*
G01*
X148235379Y-97656766D01*
X148252892Y-97664499D01*
X148275671Y-97669030D01*
X148300057Y-97685324D01*
X148320788Y-97694478D01*
X148334946Y-97708636D01*
X148356777Y-97723223D01*
X148371363Y-97745053D01*
X148385521Y-97759211D01*
X148394673Y-97779939D01*
X148410970Y-97804329D01*
X148415501Y-97827109D01*
X148423233Y-97844620D01*
X148429178Y-97895872D01*
X148430000Y-97900000D01*
X148430000Y-99100000D01*
X148429178Y-99104128D01*
X148423233Y-99155379D01*
X148415501Y-99172888D01*
X148410970Y-99195671D01*
X148394672Y-99220062D01*
X148385521Y-99240788D01*
X148371365Y-99254943D01*
X148356777Y-99276777D01*
X148334943Y-99291365D01*
X148320788Y-99305521D01*
X148300062Y-99314672D01*
X148275671Y-99330970D01*
X148252888Y-99335501D01*
X148235379Y-99343233D01*
X148184129Y-99349178D01*
X148180000Y-99350000D01*
X146980000Y-99350000D01*
X146975873Y-99349179D01*
X146924620Y-99343233D01*
X146907109Y-99335501D01*
X146884329Y-99330970D01*
X146859939Y-99314673D01*
X146839211Y-99305521D01*
X146825053Y-99291363D01*
X146803223Y-99276777D01*
X146788636Y-99254946D01*
X146774478Y-99240788D01*
X146765324Y-99220057D01*
X146749030Y-99195671D01*
X146744499Y-99172892D01*
X146736766Y-99155379D01*
X146730818Y-99104117D01*
X146730000Y-99100000D01*
X146730000Y-97900000D01*
X146730818Y-97895885D01*
X146736766Y-97844620D01*
X146744499Y-97827105D01*
X146749030Y-97804329D01*
X146765323Y-97779944D01*
X146774478Y-97759211D01*
X146788638Y-97745050D01*
X146803223Y-97723223D01*
X146825050Y-97708638D01*
X146839211Y-97694478D01*
X146859944Y-97685323D01*
X146884329Y-97669030D01*
X146907105Y-97664499D01*
X146924620Y-97656766D01*
X146975884Y-97650818D01*
X146980000Y-97650000D01*
X148180000Y-97650000D01*
X148184116Y-97650818D01*
G37*
G36*
X137666742Y-97686601D02*
G01*
X137820687Y-97750367D01*
X137959234Y-97842941D01*
X138077059Y-97960766D01*
X138169633Y-98099313D01*
X138233399Y-98253258D01*
X138265907Y-98416685D01*
X138265907Y-98583315D01*
X138233399Y-98746742D01*
X138169633Y-98900687D01*
X138077059Y-99039234D01*
X137959234Y-99157059D01*
X137820687Y-99249633D01*
X137666742Y-99313399D01*
X137503315Y-99345907D01*
X137336685Y-99345907D01*
X137173258Y-99313399D01*
X137019313Y-99249633D01*
X136880766Y-99157059D01*
X136762941Y-99039234D01*
X136670367Y-98900687D01*
X136606601Y-98746742D01*
X136574093Y-98583315D01*
X136574093Y-98416685D01*
X136606601Y-98253258D01*
X136670367Y-98099313D01*
X136762941Y-97960766D01*
X136880766Y-97842941D01*
X137019313Y-97750367D01*
X137173258Y-97686601D01*
X137336685Y-97654093D01*
X137503315Y-97654093D01*
X137666742Y-97686601D01*
G37*
G36*
X140206742Y-97686601D02*
G01*
X140360687Y-97750367D01*
X140499234Y-97842941D01*
X140617059Y-97960766D01*
X140709633Y-98099313D01*
X140773399Y-98253258D01*
X140805907Y-98416685D01*
X140805907Y-98583315D01*
X140773399Y-98746742D01*
X140709633Y-98900687D01*
X140617059Y-99039234D01*
X140499234Y-99157059D01*
X140360687Y-99249633D01*
X140206742Y-99313399D01*
X140043315Y-99345907D01*
X139876685Y-99345907D01*
X139713258Y-99313399D01*
X139559313Y-99249633D01*
X139420766Y-99157059D01*
X139302941Y-99039234D01*
X139210367Y-98900687D01*
X139146601Y-98746742D01*
X139114093Y-98583315D01*
X139114093Y-98416685D01*
X139146601Y-98253258D01*
X139210367Y-98099313D01*
X139302941Y-97960766D01*
X139420766Y-97842941D01*
X139559313Y-97750367D01*
X139713258Y-97686601D01*
X139876685Y-97654093D01*
X140043315Y-97654093D01*
X140206742Y-97686601D01*
G37*
G36*
X142746742Y-97686601D02*
G01*
X142900687Y-97750367D01*
X143039234Y-97842941D01*
X143157059Y-97960766D01*
X143249633Y-98099313D01*
X143313399Y-98253258D01*
X143345907Y-98416685D01*
X143345907Y-98583315D01*
X143313399Y-98746742D01*
X143249633Y-98900687D01*
X143157059Y-99039234D01*
X143039234Y-99157059D01*
X142900687Y-99249633D01*
X142746742Y-99313399D01*
X142583315Y-99345907D01*
X142416685Y-99345907D01*
X142253258Y-99313399D01*
X142099313Y-99249633D01*
X141960766Y-99157059D01*
X141842941Y-99039234D01*
X141750367Y-98900687D01*
X141686601Y-98746742D01*
X141654093Y-98583315D01*
X141654093Y-98416685D01*
X141686601Y-98253258D01*
X141750367Y-98099313D01*
X141842941Y-97960766D01*
X141960766Y-97842941D01*
X142099313Y-97750367D01*
X142253258Y-97686601D01*
X142416685Y-97654093D01*
X142583315Y-97654093D01*
X142746742Y-97686601D01*
G37*
G36*
X145286742Y-97686601D02*
G01*
X145440687Y-97750367D01*
X145579234Y-97842941D01*
X145697059Y-97960766D01*
X145789633Y-98099313D01*
X145853399Y-98253258D01*
X145885907Y-98416685D01*
X145885907Y-98583315D01*
X145853399Y-98746742D01*
X145789633Y-98900687D01*
X145697059Y-99039234D01*
X145579234Y-99157059D01*
X145440687Y-99249633D01*
X145286742Y-99313399D01*
X145123315Y-99345907D01*
X144956685Y-99345907D01*
X144793258Y-99313399D01*
X144639313Y-99249633D01*
X144500766Y-99157059D01*
X144382941Y-99039234D01*
X144290367Y-98900687D01*
X144226601Y-98746742D01*
X144194093Y-98583315D01*
X144194093Y-98416685D01*
X144226601Y-98253258D01*
X144290367Y-98099313D01*
X144382941Y-97960766D01*
X144500766Y-97842941D01*
X144639313Y-97750367D01*
X144793258Y-97686601D01*
X144956685Y-97654093D01*
X145123315Y-97654093D01*
X145286742Y-97686601D01*
G37*
G36*
X132607071Y-90042929D02*
G01*
X132610000Y-90050000D01*
X132610000Y-91900000D01*
X132607071Y-91907071D01*
X132600000Y-91910000D01*
X132589895Y-91910000D01*
X132539757Y-91910000D01*
X132510000Y-91939757D01*
X132510000Y-92600000D01*
X132507071Y-92607071D01*
X132500000Y-92610000D01*
X132489895Y-92610000D01*
X131510105Y-92610000D01*
X131500000Y-92610000D01*
X131492929Y-92607071D01*
X131490000Y-92600000D01*
X131490000Y-91939757D01*
X131460243Y-91910000D01*
X131400000Y-91910000D01*
X131392929Y-91907071D01*
X131390000Y-91900000D01*
X131390000Y-90050000D01*
X131392929Y-90042929D01*
X131400000Y-90040000D01*
X132600000Y-90040000D01*
X132607071Y-90042929D01*
G37*
G36*
X135607071Y-90042929D02*
G01*
X135610000Y-90050000D01*
X135610000Y-91900000D01*
X135607071Y-91907071D01*
X135600000Y-91910000D01*
X135589895Y-91910000D01*
X135539757Y-91910000D01*
X135510000Y-91939757D01*
X135510000Y-92600000D01*
X135507071Y-92607071D01*
X135500000Y-92610000D01*
X135489895Y-92610000D01*
X134510105Y-92610000D01*
X134500000Y-92610000D01*
X134492929Y-92607071D01*
X134490000Y-92600000D01*
X134490000Y-91939757D01*
X134460243Y-91910000D01*
X134400000Y-91910000D01*
X134392929Y-91907071D01*
X134390000Y-91900000D01*
X134390000Y-90050000D01*
X134392929Y-90042929D01*
X134400000Y-90040000D01*
X135600000Y-90040000D01*
X135607071Y-90042929D01*
G37*
G36*
X138607071Y-90042929D02*
G01*
X138610000Y-90050000D01*
X138610000Y-91900000D01*
X138607071Y-91907071D01*
X138600000Y-91910000D01*
X138589895Y-91910000D01*
X138539757Y-91910000D01*
X138510000Y-91939757D01*
X138510000Y-92600000D01*
X138507071Y-92607071D01*
X138500000Y-92610000D01*
X138489895Y-92610000D01*
X137510105Y-92610000D01*
X137500000Y-92610000D01*
X137492929Y-92607071D01*
X137490000Y-92600000D01*
X137490000Y-91939757D01*
X137460243Y-91910000D01*
X137400000Y-91910000D01*
X137392929Y-91907071D01*
X137390000Y-91900000D01*
X137390000Y-90050000D01*
X137392929Y-90042929D01*
X137400000Y-90040000D01*
X138600000Y-90040000D01*
X138607071Y-90042929D01*
G37*
G36*
X141607071Y-90042929D02*
G01*
X141610000Y-90050000D01*
X141610000Y-91900000D01*
X141607071Y-91907071D01*
X141600000Y-91910000D01*
X141589895Y-91910000D01*
X141539757Y-91910000D01*
X141510000Y-91939757D01*
X141510000Y-92600000D01*
X141507071Y-92607071D01*
X141500000Y-92610000D01*
X141489895Y-92610000D01*
X140510105Y-92610000D01*
X140500000Y-92610000D01*
X140492929Y-92607071D01*
X140490000Y-92600000D01*
X140490000Y-91939757D01*
X140460243Y-91910000D01*
X140400000Y-91910000D01*
X140392929Y-91907071D01*
X140390000Y-91900000D01*
X140390000Y-90050000D01*
X140392929Y-90042929D01*
X140400000Y-90040000D01*
X141600000Y-90040000D01*
X141607071Y-90042929D01*
G37*
G36*
X144607071Y-90042929D02*
G01*
X144610000Y-90050000D01*
X144610000Y-91900000D01*
X144607071Y-91907071D01*
X144600000Y-91910000D01*
X144589895Y-91910000D01*
X144539757Y-91910000D01*
X144510000Y-91939757D01*
X144510000Y-92600000D01*
X144507071Y-92607071D01*
X144500000Y-92610000D01*
X144489895Y-92610000D01*
X143510105Y-92610000D01*
X143500000Y-92610000D01*
X143492929Y-92607071D01*
X143490000Y-92600000D01*
X143490000Y-91939757D01*
X143460243Y-91910000D01*
X143400000Y-91910000D01*
X143392929Y-91907071D01*
X143390000Y-91900000D01*
X143390000Y-90050000D01*
X143392929Y-90042929D01*
X143400000Y-90040000D01*
X144600000Y-90040000D01*
X144607071Y-90042929D01*
G37*
G36*
X147607071Y-90042929D02*
G01*
X147610000Y-90050000D01*
X147610000Y-91900000D01*
X147607071Y-91907071D01*
X147600000Y-91910000D01*
X147589895Y-91910000D01*
X147539757Y-91910000D01*
X147510000Y-91939757D01*
X147510000Y-92600000D01*
X147507071Y-92607071D01*
X147500000Y-92610000D01*
X147489895Y-92610000D01*
X146510105Y-92610000D01*
X146500000Y-92610000D01*
X146492929Y-92607071D01*
X146490000Y-92600000D01*
X146490000Y-91939757D01*
X146460243Y-91910000D01*
X146400000Y-91910000D01*
X146392929Y-91907071D01*
X146390000Y-91900000D01*
X146390000Y-90050000D01*
X146392929Y-90042929D01*
X146400000Y-90040000D01*
X147600000Y-90040000D01*
X147607071Y-90042929D01*
G37*
G36*
X150607071Y-90042929D02*
G01*
X150610000Y-90050000D01*
X150610000Y-91900000D01*
X150607071Y-91907071D01*
X150600000Y-91910000D01*
X150589895Y-91910000D01*
X150539757Y-91910000D01*
X150510000Y-91939757D01*
X150510000Y-92600000D01*
X150507071Y-92607071D01*
X150500000Y-92610000D01*
X150489895Y-92610000D01*
X149510105Y-92610000D01*
X149500000Y-92610000D01*
X149492929Y-92607071D01*
X149490000Y-92600000D01*
X149490000Y-91939757D01*
X149460243Y-91910000D01*
X149400000Y-91910000D01*
X149392929Y-91907071D01*
X149390000Y-91900000D01*
X149390000Y-90050000D01*
X149392929Y-90042929D01*
X149400000Y-90040000D01*
X150600000Y-90040000D01*
X150607071Y-90042929D01*
G37*
G36*
X153607071Y-90042929D02*
G01*
X153610000Y-90050000D01*
X153610000Y-91900000D01*
X153607071Y-91907071D01*
X153600000Y-91910000D01*
X153589895Y-91910000D01*
X153539757Y-91910000D01*
X153510000Y-91939757D01*
X153510000Y-92600000D01*
X153507071Y-92607071D01*
X153500000Y-92610000D01*
X153489895Y-92610000D01*
X152510105Y-92610000D01*
X152500000Y-92610000D01*
X152492929Y-92607071D01*
X152490000Y-92600000D01*
X152490000Y-91939757D01*
X152460243Y-91910000D01*
X152400000Y-91910000D01*
X152392929Y-91907071D01*
X152390000Y-91900000D01*
X152390000Y-90050000D01*
X152392929Y-90042929D01*
X152400000Y-90040000D01*
X153600000Y-90040000D01*
X153607071Y-90042929D01*
G37*
G36*
X133107071Y-88392929D02*
G01*
X133110000Y-88400000D01*
X133110000Y-89300000D01*
X133107071Y-89307071D01*
X133100000Y-89310000D01*
X133089895Y-89310000D01*
X132639757Y-89310000D01*
X132610000Y-89339757D01*
X132610000Y-89700000D01*
X132607071Y-89707071D01*
X132600000Y-89710000D01*
X132589895Y-89710000D01*
X131410105Y-89710000D01*
X131400000Y-89710000D01*
X131392929Y-89707071D01*
X131390000Y-89700000D01*
X131390000Y-89339757D01*
X131360243Y-89310000D01*
X130900000Y-89310000D01*
X130892929Y-89307071D01*
X130890000Y-89300000D01*
X130890000Y-88400000D01*
X130892929Y-88392929D01*
X130900000Y-88390000D01*
X133100000Y-88390000D01*
X133107071Y-88392929D01*
G37*
G36*
X136107071Y-88392929D02*
G01*
X136110000Y-88400000D01*
X136110000Y-89300000D01*
X136107071Y-89307071D01*
X136100000Y-89310000D01*
X136089895Y-89310000D01*
X135639757Y-89310000D01*
X135610000Y-89339757D01*
X135610000Y-89700000D01*
X135607071Y-89707071D01*
X135600000Y-89710000D01*
X135589895Y-89710000D01*
X134410105Y-89710000D01*
X134400000Y-89710000D01*
X134392929Y-89707071D01*
X134390000Y-89700000D01*
X134390000Y-89339757D01*
X134360243Y-89310000D01*
X133900000Y-89310000D01*
X133892929Y-89307071D01*
X133890000Y-89300000D01*
X133890000Y-88400000D01*
X133892929Y-88392929D01*
X133900000Y-88390000D01*
X136100000Y-88390000D01*
X136107071Y-88392929D01*
G37*
G36*
X139107071Y-88392929D02*
G01*
X139110000Y-88400000D01*
X139110000Y-89300000D01*
X139107071Y-89307071D01*
X139100000Y-89310000D01*
X139089895Y-89310000D01*
X138639757Y-89310000D01*
X138610000Y-89339757D01*
X138610000Y-89700000D01*
X138607071Y-89707071D01*
X138600000Y-89710000D01*
X138589895Y-89710000D01*
X137410105Y-89710000D01*
X137400000Y-89710000D01*
X137392929Y-89707071D01*
X137390000Y-89700000D01*
X137390000Y-89339757D01*
X137360243Y-89310000D01*
X136900000Y-89310000D01*
X136892929Y-89307071D01*
X136890000Y-89300000D01*
X136890000Y-88400000D01*
X136892929Y-88392929D01*
X136900000Y-88390000D01*
X139100000Y-88390000D01*
X139107071Y-88392929D01*
G37*
G36*
X142107071Y-88392929D02*
G01*
X142110000Y-88400000D01*
X142110000Y-89300000D01*
X142107071Y-89307071D01*
X142100000Y-89310000D01*
X142089895Y-89310000D01*
X141639757Y-89310000D01*
X141610000Y-89339757D01*
X141610000Y-89700000D01*
X141607071Y-89707071D01*
X141600000Y-89710000D01*
X141589895Y-89710000D01*
X140410105Y-89710000D01*
X140400000Y-89710000D01*
X140392929Y-89707071D01*
X140390000Y-89700000D01*
X140390000Y-89339757D01*
X140360243Y-89310000D01*
X139900000Y-89310000D01*
X139892929Y-89307071D01*
X139890000Y-89300000D01*
X139890000Y-88400000D01*
X139892929Y-88392929D01*
X139900000Y-88390000D01*
X142100000Y-88390000D01*
X142107071Y-88392929D01*
G37*
G36*
X145107071Y-88392929D02*
G01*
X145110000Y-88400000D01*
X145110000Y-89300000D01*
X145107071Y-89307071D01*
X145100000Y-89310000D01*
X145089895Y-89310000D01*
X144639757Y-89310000D01*
X144610000Y-89339757D01*
X144610000Y-89700000D01*
X144607071Y-89707071D01*
X144600000Y-89710000D01*
X144589895Y-89710000D01*
X143410105Y-89710000D01*
X143400000Y-89710000D01*
X143392929Y-89707071D01*
X143390000Y-89700000D01*
X143390000Y-89339757D01*
X143360243Y-89310000D01*
X142900000Y-89310000D01*
X142892929Y-89307071D01*
X142890000Y-89300000D01*
X142890000Y-88400000D01*
X142892929Y-88392929D01*
X142900000Y-88390000D01*
X145100000Y-88390000D01*
X145107071Y-88392929D01*
G37*
G36*
X148107071Y-88392929D02*
G01*
X148110000Y-88400000D01*
X148110000Y-89300000D01*
X148107071Y-89307071D01*
X148100000Y-89310000D01*
X148089895Y-89310000D01*
X147639757Y-89310000D01*
X147610000Y-89339757D01*
X147610000Y-89700000D01*
X147607071Y-89707071D01*
X147600000Y-89710000D01*
X147589895Y-89710000D01*
X146410105Y-89710000D01*
X146400000Y-89710000D01*
X146392929Y-89707071D01*
X146390000Y-89700000D01*
X146390000Y-89339757D01*
X146360243Y-89310000D01*
X145900000Y-89310000D01*
X145892929Y-89307071D01*
X145890000Y-89300000D01*
X145890000Y-88400000D01*
X145892929Y-88392929D01*
X145900000Y-88390000D01*
X148100000Y-88390000D01*
X148107071Y-88392929D01*
G37*
G36*
X151107071Y-88392929D02*
G01*
X151110000Y-88400000D01*
X151110000Y-89300000D01*
X151107071Y-89307071D01*
X151100000Y-89310000D01*
X151089895Y-89310000D01*
X150639757Y-89310000D01*
X150610000Y-89339757D01*
X150610000Y-89700000D01*
X150607071Y-89707071D01*
X150600000Y-89710000D01*
X150589895Y-89710000D01*
X149410105Y-89710000D01*
X149400000Y-89710000D01*
X149392929Y-89707071D01*
X149390000Y-89700000D01*
X149390000Y-89339757D01*
X149360243Y-89310000D01*
X148900000Y-89310000D01*
X148892929Y-89307071D01*
X148890000Y-89300000D01*
X148890000Y-88400000D01*
X148892929Y-88392929D01*
X148900000Y-88390000D01*
X151100000Y-88390000D01*
X151107071Y-88392929D01*
G37*
G36*
X154107071Y-88392929D02*
G01*
X154110000Y-88400000D01*
X154110000Y-89300000D01*
X154107071Y-89307071D01*
X154100000Y-89310000D01*
X154089895Y-89310000D01*
X153639757Y-89310000D01*
X153610000Y-89339757D01*
X153610000Y-89700000D01*
X153607071Y-89707071D01*
X153600000Y-89710000D01*
X153589895Y-89710000D01*
X152410105Y-89710000D01*
X152400000Y-89710000D01*
X152392929Y-89707071D01*
X152390000Y-89700000D01*
X152390000Y-89339757D01*
X152360243Y-89310000D01*
X151900000Y-89310000D01*
X151892929Y-89307071D01*
X151890000Y-89300000D01*
X151890000Y-88400000D01*
X151892929Y-88392929D01*
X151900000Y-88390000D01*
X154100000Y-88390000D01*
X154107071Y-88392929D01*
G37*
M02*
