G04 #@! TF.GenerationSoftware,KiCad,Pcbnew,10.0.3-10.0.3~ubuntu26.04.1*
G04 #@! TF.CreationDate,2026-07-24T16:25:19+03:00*
G04 #@! TF.ProjectId,retrolight-main,72657472-6f6c-4696-9768-742d6d61696e,B*
G04 #@! TF.SameCoordinates,Original*
G04 #@! TF.FileFunction,Copper,L1,Top*
G04 #@! TF.FilePolarity,Positive*
%FSLAX46Y46*%
G04 Gerber Fmt 4.6, Leading zero omitted, Abs format (unit mm)*
G04 Created by KiCad (PCBNEW 10.0.3-10.0.3~ubuntu26.04.1) date 2026-07-24 16:25:19*
%MOMM*%
%LPD*%
G01*
G04 APERTURE LIST*
G04 Aperture macros list*
%AMRoundRect*
0 Rectangle with rounded corners*
0 $1 Rounding radius*
0 $2 $3 $4 $5 $6 $7 $8 $9 X,Y pos of 4 corners*
0 Add a 4 corners polygon primitive as box body*
4,1,4,$2,$3,$4,$5,$6,$7,$8,$9,$2,$3,0*
0 Add four circle primitives for the rounded corners*
1,1,$1+$1,$2,$3*
1,1,$1+$1,$4,$5*
1,1,$1+$1,$6,$7*
1,1,$1+$1,$8,$9*
0 Add four rect primitives between the rounded corners*
20,1,$1+$1,$2,$3,$4,$5,0*
20,1,$1+$1,$4,$5,$6,$7,0*
20,1,$1+$1,$6,$7,$8,$9,0*
20,1,$1+$1,$8,$9,$2,$3,0*%
G04 Aperture macros list end*
G04 #@! TA.AperFunction,SMDPad,CuDef*
%ADD10RoundRect,0.237500X-0.250000X-0.237500X0.250000X-0.237500X0.250000X0.237500X-0.250000X0.237500X0*%
G04 #@! TD*
G04 #@! TA.AperFunction,SMDPad,CuDef*
%ADD11RoundRect,0.237500X0.250000X0.237500X-0.250000X0.237500X-0.250000X-0.237500X0.250000X-0.237500X0*%
G04 #@! TD*
G04 #@! TA.AperFunction,ComponentPad*
%ADD12C,7.600000*%
G04 #@! TD*
G04 #@! TA.AperFunction,SMDPad,CuDef*
%ADD13RoundRect,0.237500X0.237500X-0.300000X0.237500X0.300000X-0.237500X0.300000X-0.237500X-0.300000X0*%
G04 #@! TD*
G04 #@! TA.AperFunction,SMDPad,CuDef*
%ADD14RoundRect,0.100000X-0.637500X-0.100000X0.637500X-0.100000X0.637500X0.100000X-0.637500X0.100000X0*%
G04 #@! TD*
G04 #@! TA.AperFunction,ComponentPad*
%ADD15RoundRect,0.250000X-0.600000X0.600000X-0.600000X-0.600000X0.600000X-0.600000X0.600000X0.600000X0*%
G04 #@! TD*
G04 #@! TA.AperFunction,ComponentPad*
%ADD16C,1.700000*%
G04 #@! TD*
G04 #@! TA.AperFunction,ViaPad*
%ADD17C,0.610000*%
G04 #@! TD*
G04 #@! TA.AperFunction,Conductor*
%ADD18C,0.203200*%
G04 #@! TD*
G04 #@! TA.AperFunction,Conductor*
%ADD19C,0.254000*%
G04 #@! TD*
G04 APERTURE END LIST*
D10*
G04 #@! TO.P,R9,1*
G04 #@! TO.N,Net-(U1-A3)*
X132587500Y-92500000D03*
G04 #@! TO.P,R9,2*
G04 #@! TO.N,GND*
X134412500Y-92500000D03*
G04 #@! TD*
D11*
G04 #@! TO.P,R5,1*
G04 #@! TO.N,Net-(U1-A3)*
X130412500Y-92500000D03*
G04 #@! TO.P,R5,2*
G04 #@! TO.N,VCC*
X128587500Y-92500000D03*
G04 #@! TD*
D10*
G04 #@! TO.P,R7,1*
G04 #@! TO.N,Net-(U1-A1)*
X132587500Y-88000000D03*
G04 #@! TO.P,R7,2*
G04 #@! TO.N,GND*
X134412500Y-88000000D03*
G04 #@! TD*
D12*
G04 #@! TO.P,H2,1,1_1*
G04 #@! TO.N,GND*
X160000000Y-100000000D03*
G04 #@! TD*
D11*
G04 #@! TO.P,R10,1*
G04 #@! TO.N,Net-(U1-REXT)*
X140412500Y-86000000D03*
G04 #@! TO.P,R10,2*
G04 #@! TO.N,GND*
X138587500Y-86000000D03*
G04 #@! TD*
G04 #@! TO.P,R4,1*
G04 #@! TO.N,Net-(U1-A2)*
X130412500Y-90500000D03*
G04 #@! TO.P,R4,2*
G04 #@! TO.N,VCC*
X128587500Y-90500000D03*
G04 #@! TD*
D10*
G04 #@! TO.P,R6,1*
G04 #@! TO.N,Net-(U1-A0)*
X132587500Y-86000000D03*
G04 #@! TO.P,R6,2*
G04 #@! TO.N,GND*
X134412500Y-86000000D03*
G04 #@! TD*
D13*
G04 #@! TO.P,C2,1*
G04 #@! TO.N,VCC*
X148000000Y-87362500D03*
G04 #@! TO.P,C2,2*
G04 #@! TO.N,GND*
X148000000Y-85637500D03*
G04 #@! TD*
D14*
G04 #@! TO.P,U1,1,REXT_1*
G04 #@! TO.N,Net-(U1-REXT)*
X139637500Y-87575000D03*
G04 #@! TO.P,U1,2,A0_2*
G04 #@! TO.N,Net-(U1-A0)*
X139637500Y-88225000D03*
G04 #@! TO.P,U1,3,A1_3*
G04 #@! TO.N,Net-(U1-A1)*
X139637500Y-88875000D03*
G04 #@! TO.P,U1,4,A2_4*
G04 #@! TO.N,Net-(U1-A2)*
X139637500Y-89525000D03*
G04 #@! TO.P,U1,5,A3_5*
G04 #@! TO.N,Net-(U1-A3)*
X139637500Y-90175000D03*
G04 #@! TO.P,U1,6,~{OUT0}_6*
G04 #@! TO.N,Net-(D1-K)*
X139637500Y-90825000D03*
G04 #@! TO.P,U1,7,~{OUT1}_7*
G04 #@! TO.N,Net-(D2-K)*
X139637500Y-91475000D03*
G04 #@! TO.P,U1,8,GND_8*
G04 #@! TO.N,GND*
X139637500Y-92125000D03*
G04 #@! TO.P,U1,9,~{OUT2}_9*
G04 #@! TO.N,Net-(D3-K)*
X139637500Y-92775000D03*
G04 #@! TO.P,U1,10,~{OUT3}_10*
G04 #@! TO.N,Net-(D4-K)*
X139637500Y-93425000D03*
G04 #@! TO.P,U1,11,~{OUT4}_11*
G04 #@! TO.N,Net-(D5-K)*
X145362500Y-93425000D03*
G04 #@! TO.P,U1,12,~{OUT5}_12*
G04 #@! TO.N,Net-(D6-K)*
X145362500Y-92775000D03*
G04 #@! TO.P,U1,13,GND_13*
G04 #@! TO.N,GND*
X145362500Y-92125000D03*
G04 #@! TO.P,U1,14,~{OUT6}_14*
G04 #@! TO.N,Net-(D7-K)*
X145362500Y-91475000D03*
G04 #@! TO.P,U1,15,~{OUT7}_15*
G04 #@! TO.N,Net-(D8-K)*
X145362500Y-90825000D03*
G04 #@! TO.P,U1,16,GND_16*
G04 #@! TO.N,GND*
X145362500Y-90175000D03*
G04 #@! TO.P,U1,17,~{RESET}_17*
G04 #@! TO.N,/~{RESET}*
X145362500Y-89525000D03*
G04 #@! TO.P,U1,18,SCL_18*
G04 #@! TO.N,/SCL*
X145362500Y-88875000D03*
G04 #@! TO.P,U1,19,SDA_19*
G04 #@! TO.N,/SDA*
X145362500Y-88225000D03*
G04 #@! TO.P,U1,20,VCC_20*
G04 #@! TO.N,VCC*
X145362500Y-87575000D03*
G04 #@! TD*
D15*
G04 #@! TO.P,J1,1,Pin_1_1*
G04 #@! TO.N,VCC*
X147580000Y-98500000D03*
D16*
G04 #@! TO.P,J1,2,Pin_2_2*
G04 #@! TO.N,unconnected-(J1-Pin_2-Pad2)*
X147580000Y-101040000D03*
G04 #@! TO.P,J1,3,Pin_3_3*
G04 #@! TO.N,/SDA*
X145040000Y-98500000D03*
G04 #@! TO.P,J1,4,Pin_4_4*
G04 #@! TO.N,unconnected-(J1-Pin_4-Pad4)*
X145040000Y-101040000D03*
G04 #@! TO.P,J1,5,Pin_5_5*
G04 #@! TO.N,/SCL*
X142500000Y-98500000D03*
G04 #@! TO.P,J1,6,Pin_6_6*
G04 #@! TO.N,unconnected-(J1-Pin_6-Pad6)*
X142500000Y-101040000D03*
G04 #@! TO.P,J1,7,Pin_7_7*
G04 #@! TO.N,/~{RESET}*
X139960000Y-98500000D03*
G04 #@! TO.P,J1,8,Pin_8_8*
G04 #@! TO.N,unconnected-(J1-Pin_8-Pad8)*
X139960000Y-101040000D03*
G04 #@! TO.P,J1,9,Pin_9_9*
G04 #@! TO.N,unconnected-(J1-Pin_9-Pad9)*
X137420000Y-98500000D03*
G04 #@! TO.P,J1,10,Pin_10_10*
G04 #@! TO.N,GND*
X137420000Y-101040000D03*
G04 #@! TD*
D12*
G04 #@! TO.P,H1,1,1_1*
G04 #@! TO.N,GND*
X125000000Y-100000000D03*
G04 #@! TD*
D11*
G04 #@! TO.P,R2,1*
G04 #@! TO.N,Net-(U1-A0)*
X130412500Y-86000000D03*
G04 #@! TO.P,R2,2*
G04 #@! TO.N,VCC*
X128587500Y-86000000D03*
G04 #@! TD*
D10*
G04 #@! TO.P,R8,1*
G04 #@! TO.N,Net-(U1-A2)*
X132587500Y-90500000D03*
G04 #@! TO.P,R8,2*
G04 #@! TO.N,GND*
X134412500Y-90500000D03*
G04 #@! TD*
D11*
G04 #@! TO.P,R3,1*
G04 #@! TO.N,Net-(U1-A1)*
X130412500Y-88000000D03*
G04 #@! TO.P,R3,2*
G04 #@! TO.N,VCC*
X128587500Y-88000000D03*
G04 #@! TD*
D10*
G04 #@! TO.P,R1,1*
G04 #@! TO.N,/~{RESET}*
X150087500Y-90500000D03*
G04 #@! TO.P,R1,2*
G04 #@! TO.N,VCC*
X151912500Y-90500000D03*
G04 #@! TD*
D13*
G04 #@! TO.P,C1,1*
G04 #@! TO.N,VCC*
X150000000Y-87362500D03*
G04 #@! TO.P,C1,2*
G04 #@! TO.N,GND*
X150000000Y-85637500D03*
G04 #@! TD*
D17*
G04 #@! TO.N,GND*
X129500000Y-91500000D03*
X142500000Y-92000000D03*
X142500000Y-91000000D03*
X129500000Y-87000000D03*
X142500000Y-90000000D03*
X142500000Y-93000000D03*
G04 #@! TO.N,VCC*
X151912500Y-95250000D03*
X128587500Y-89250000D03*
G04 #@! TO.N,Net-(D1-K)*
X135000000Y-94500000D03*
G04 #@! TO.N,Net-(D2-K)*
X136500000Y-94500000D03*
G04 #@! TO.N,Net-(D3-K)*
X138000000Y-94500000D03*
G04 #@! TO.N,Net-(D4-K)*
X139500000Y-94500000D03*
G04 #@! TO.N,Net-(D5-K)*
X145500000Y-94500000D03*
G04 #@! TO.N,Net-(D6-K)*
X147000000Y-94500000D03*
G04 #@! TO.N,Net-(D7-K)*
X148500000Y-94500000D03*
G04 #@! TO.N,Net-(D8-K)*
X150000000Y-94500000D03*
G04 #@! TD*
G04 #@! TO.N,Net-(U1-A3)*
D18*
X130412500Y-92500000D02*
X132587500Y-92500000D01*
X136825000Y-90175000D02*
X139637500Y-90175000D01*
X133337500Y-91750000D02*
X135250000Y-91750000D01*
X135250000Y-91750000D02*
X136825000Y-90175000D01*
X132587500Y-92500000D02*
X133337500Y-91750000D01*
G04 #@! TO.N,VCC*
D19*
X147787500Y-87575000D02*
X148000000Y-87362500D01*
D18*
X151912500Y-95250000D02*
X151912500Y-90500000D01*
X128587500Y-90500000D02*
X128587500Y-92500000D01*
D19*
X148000000Y-87362500D02*
X150000000Y-87362500D01*
X145362500Y-87575000D02*
X147787500Y-87575000D01*
D18*
X128587500Y-89250000D02*
X128587500Y-90500000D01*
X128587500Y-86000000D02*
X128587500Y-88000000D01*
X128587500Y-88000000D02*
X128587500Y-89250000D01*
D19*
X155250000Y-98500000D02*
X147580000Y-98500000D01*
X156000000Y-88250000D02*
X156000000Y-97750000D01*
X155112500Y-87362500D02*
X156000000Y-88250000D01*
X150000000Y-87362500D02*
X155112500Y-87362500D01*
X156000000Y-97750000D02*
X155250000Y-98500000D01*
G04 #@! TO.N,Net-(U1-A1)*
D18*
X130412500Y-88000000D02*
X132587500Y-88000000D01*
X133462500Y-88875000D02*
X132587500Y-88000000D01*
X139637500Y-88875000D02*
X133462500Y-88875000D01*
G04 #@! TO.N,Net-(U1-REXT)*
X139637500Y-86775000D02*
X140412500Y-86000000D01*
X139637500Y-87575000D02*
X139637500Y-86775000D01*
G04 #@! TO.N,Net-(U1-A2)*
X132587500Y-90500000D02*
X133562500Y-89525000D01*
X133562500Y-89525000D02*
X139637500Y-89525000D01*
X130412500Y-90500000D02*
X132587500Y-90500000D01*
G04 #@! TO.N,Net-(U1-A0)*
X133337500Y-86750000D02*
X135000000Y-86750000D01*
X136475000Y-88225000D02*
X139637500Y-88225000D01*
X135000000Y-86750000D02*
X136475000Y-88225000D01*
X132587500Y-86000000D02*
X133337500Y-86750000D01*
X130412500Y-86000000D02*
X132587500Y-86000000D01*
G04 #@! TO.N,Net-(D1-K)*
X136000000Y-93500000D02*
X136000000Y-91750000D01*
X136925000Y-90825000D02*
X139637500Y-90825000D01*
X136000000Y-91750000D02*
X136925000Y-90825000D01*
X135000000Y-94500000D02*
X136000000Y-93500000D01*
G04 #@! TO.N,Net-(D2-K)*
X136500000Y-92000000D02*
X137025000Y-91475000D01*
X137025000Y-91475000D02*
X139637500Y-91475000D01*
X136500000Y-94500000D02*
X136500000Y-92000000D01*
G04 #@! TO.N,Net-(D3-K)*
X138475000Y-92775000D02*
X139637500Y-92775000D01*
X138000000Y-94500000D02*
X138000000Y-93250000D01*
X138000000Y-93250000D02*
X138475000Y-92775000D01*
G04 #@! TO.N,Net-(D4-K)*
X139500000Y-93562500D02*
X139637500Y-93425000D01*
X139500000Y-94500000D02*
X139500000Y-93562500D01*
G04 #@! TO.N,Net-(D5-K)*
X145500000Y-94500000D02*
X145500000Y-93562500D01*
X145500000Y-93562500D02*
X145362500Y-93425000D01*
G04 #@! TO.N,Net-(D6-K)*
X147000000Y-93250000D02*
X146525000Y-92775000D01*
X146525000Y-92775000D02*
X145362500Y-92775000D01*
X147000000Y-94500000D02*
X147000000Y-93250000D01*
G04 #@! TO.N,Net-(D7-K)*
X148500000Y-94500000D02*
X148500000Y-92000000D01*
X148500000Y-92000000D02*
X147975000Y-91475000D01*
X147975000Y-91475000D02*
X145362500Y-91475000D01*
G04 #@! TO.N,Net-(D8-K)*
X149000000Y-91750000D02*
X148075000Y-90825000D01*
X150000000Y-94500000D02*
X149000000Y-93500000D01*
X149000000Y-93500000D02*
X149000000Y-91750000D01*
X148075000Y-90825000D02*
X145362500Y-90825000D01*
G04 #@! TO.N,/~{RESET}*
X150087500Y-90500000D02*
X149112500Y-89525000D01*
X150087500Y-90500000D02*
X150750000Y-91162500D01*
X142960000Y-95500000D02*
X139960000Y-98500000D01*
X150750000Y-95000000D02*
X150250000Y-95500000D01*
X150750000Y-91162500D02*
X150750000Y-95000000D01*
X150250000Y-95500000D02*
X142960000Y-95500000D01*
X149112500Y-89525000D02*
X145362500Y-89525000D01*
G04 #@! TO.N,/SCL*
X152500000Y-96000000D02*
X145000000Y-96000000D01*
X153000000Y-95500000D02*
X152500000Y-96000000D01*
X153000000Y-89500000D02*
X153000000Y-95500000D01*
X152375000Y-88875000D02*
X153000000Y-89500000D01*
X145362500Y-88875000D02*
X152375000Y-88875000D01*
X145000000Y-96000000D02*
X142500000Y-98500000D01*
G04 #@! TO.N,/SDA*
X147040000Y-96500000D02*
X153000000Y-96500000D01*
X145040000Y-98500000D02*
X147040000Y-96500000D01*
X152975000Y-88225000D02*
X145362500Y-88225000D01*
X153000000Y-96500000D02*
X153500000Y-96000000D01*
X153500000Y-96000000D02*
X153500000Y-88750000D01*
X153500000Y-88750000D02*
X152975000Y-88225000D01*
G04 #@! TD*
G04 #@! TA.AperFunction,Conductor*
G04 #@! TO.N,GND*
G36*
X147592359Y-84768907D02*
G01*
X147628323Y-84818407D01*
X147628323Y-84879593D01*
X147592359Y-84929093D01*
X147566866Y-84942444D01*
X147555759Y-84946330D01*
X147449651Y-85024641D01*
X147449641Y-85024651D01*
X147371330Y-85130759D01*
X147327772Y-85255240D01*
X147327771Y-85255241D01*
X147325000Y-85284798D01*
X147325000Y-85537499D01*
X147325001Y-85537500D01*
X148674999Y-85537500D01*
X148675000Y-85537499D01*
X148675000Y-85284798D01*
X148672228Y-85255241D01*
X148672227Y-85255240D01*
X148628669Y-85130759D01*
X148550358Y-85024651D01*
X148550348Y-85024641D01*
X148444240Y-84946330D01*
X148433134Y-84942444D01*
X148384454Y-84905379D01*
X148366857Y-84846778D01*
X148387065Y-84789026D01*
X148437360Y-84754183D01*
X148465832Y-84750000D01*
X149534168Y-84750000D01*
X149592359Y-84768907D01*
X149628323Y-84818407D01*
X149628323Y-84879593D01*
X149592359Y-84929093D01*
X149566866Y-84942444D01*
X149555759Y-84946330D01*
X149449651Y-85024641D01*
X149449641Y-85024651D01*
X149371330Y-85130759D01*
X149327772Y-85255240D01*
X149327771Y-85255241D01*
X149325000Y-85284798D01*
X149325000Y-85537499D01*
X149325001Y-85537500D01*
X150674999Y-85537500D01*
X150675000Y-85537499D01*
X150675000Y-85284798D01*
X150672228Y-85255241D01*
X150672227Y-85255240D01*
X150628669Y-85130759D01*
X150550358Y-85024651D01*
X150550348Y-85024641D01*
X150444240Y-84946330D01*
X150433134Y-84942444D01*
X150384454Y-84905379D01*
X150366857Y-84846778D01*
X150387065Y-84789026D01*
X150437360Y-84754183D01*
X150465832Y-84750000D01*
X164651000Y-84750000D01*
X164709191Y-84768907D01*
X164745155Y-84818407D01*
X164750000Y-84849000D01*
X164750000Y-104651000D01*
X164731093Y-104709191D01*
X164681593Y-104745155D01*
X164651000Y-104750000D01*
X120349000Y-104750000D01*
X120290809Y-104731093D01*
X120254845Y-104681593D01*
X120250000Y-104651000D01*
X120250000Y-100936581D01*
X136370000Y-100936581D01*
X136370000Y-101143418D01*
X136410349Y-101346272D01*
X136489501Y-101537360D01*
X136489508Y-101537374D01*
X136604405Y-101709329D01*
X136606826Y-101711750D01*
X137002210Y-101316365D01*
X137019901Y-101347007D01*
X137112993Y-101440099D01*
X137143632Y-101457788D01*
X136748249Y-101853173D01*
X136750670Y-101855594D01*
X136922625Y-101970491D01*
X136922639Y-101970498D01*
X137113727Y-102049650D01*
X137316581Y-102089999D01*
X137316586Y-102090000D01*
X137523414Y-102090000D01*
X137523418Y-102089999D01*
X137726272Y-102049650D01*
X137917360Y-101970498D01*
X137917366Y-101970495D01*
X138089333Y-101855591D01*
X138091750Y-101853173D01*
X137696366Y-101457789D01*
X137727007Y-101440099D01*
X137820099Y-101347007D01*
X137837789Y-101316366D01*
X138233173Y-101711750D01*
X138235591Y-101709333D01*
X138350495Y-101537366D01*
X138350498Y-101537360D01*
X138429650Y-101346272D01*
X138469999Y-101143418D01*
X138470000Y-101143413D01*
X138470000Y-100936585D01*
X138469999Y-100936582D01*
X138469989Y-100936532D01*
X138909500Y-100936532D01*
X138909500Y-101143467D01*
X138949869Y-101346418D01*
X139029058Y-101537597D01*
X139029059Y-101537598D01*
X139144023Y-101709655D01*
X139290345Y-101855977D01*
X139462402Y-101970941D01*
X139653580Y-102050130D01*
X139856535Y-102090500D01*
X139856536Y-102090500D01*
X140063464Y-102090500D01*
X140063465Y-102090500D01*
X140266420Y-102050130D01*
X140457598Y-101970941D01*
X140629655Y-101855977D01*
X140775977Y-101709655D01*
X140890941Y-101537598D01*
X140970130Y-101346420D01*
X141010500Y-101143465D01*
X141010500Y-100936535D01*
X141010499Y-100936532D01*
X141449500Y-100936532D01*
X141449500Y-101143467D01*
X141489869Y-101346418D01*
X141569058Y-101537597D01*
X141569059Y-101537598D01*
X141684023Y-101709655D01*
X141830345Y-101855977D01*
X142002402Y-101970941D01*
X142193580Y-102050130D01*
X142396535Y-102090500D01*
X142396536Y-102090500D01*
X142603464Y-102090500D01*
X142603465Y-102090500D01*
X142806420Y-102050130D01*
X142997598Y-101970941D01*
X143169655Y-101855977D01*
X143315977Y-101709655D01*
X143430941Y-101537598D01*
X143510130Y-101346420D01*
X143550500Y-101143465D01*
X143550500Y-100936535D01*
X143550499Y-100936532D01*
X143989500Y-100936532D01*
X143989500Y-101143467D01*
X144029869Y-101346418D01*
X144109058Y-101537597D01*
X144109059Y-101537598D01*
X144224023Y-101709655D01*
X144370345Y-101855977D01*
X144542402Y-101970941D01*
X144733580Y-102050130D01*
X144936535Y-102090500D01*
X144936536Y-102090500D01*
X145143464Y-102090500D01*
X145143465Y-102090500D01*
X145346420Y-102050130D01*
X145537598Y-101970941D01*
X145709655Y-101855977D01*
X145855977Y-101709655D01*
X145970941Y-101537598D01*
X146050130Y-101346420D01*
X146090500Y-101143465D01*
X146090500Y-100936535D01*
X146090499Y-100936532D01*
X146529500Y-100936532D01*
X146529500Y-101143467D01*
X146569869Y-101346418D01*
X146649058Y-101537597D01*
X146649059Y-101537598D01*
X146764023Y-101709655D01*
X146910345Y-101855977D01*
X147082402Y-101970941D01*
X147273580Y-102050130D01*
X147476535Y-102090500D01*
X147476536Y-102090500D01*
X147683464Y-102090500D01*
X147683465Y-102090500D01*
X147886420Y-102050130D01*
X148077598Y-101970941D01*
X148249655Y-101855977D01*
X148395977Y-101709655D01*
X148510941Y-101537598D01*
X148590130Y-101346420D01*
X148630500Y-101143465D01*
X148630500Y-100936535D01*
X148590130Y-100733580D01*
X148510941Y-100542402D01*
X148395977Y-100370345D01*
X148249655Y-100224023D01*
X148078270Y-100109508D01*
X148077597Y-100109058D01*
X147886418Y-100029869D01*
X147683467Y-99989500D01*
X147683465Y-99989500D01*
X147476535Y-99989500D01*
X147476532Y-99989500D01*
X147273581Y-100029869D01*
X147082402Y-100109058D01*
X146910348Y-100224020D01*
X146764020Y-100370348D01*
X146649058Y-100542402D01*
X146569869Y-100733581D01*
X146529500Y-100936532D01*
X146090499Y-100936532D01*
X146050130Y-100733580D01*
X145970941Y-100542402D01*
X145855977Y-100370345D01*
X145709655Y-100224023D01*
X145538270Y-100109508D01*
X145537597Y-100109058D01*
X145346418Y-100029869D01*
X145143467Y-99989500D01*
X145143465Y-99989500D01*
X144936535Y-99989500D01*
X144936532Y-99989500D01*
X144733581Y-100029869D01*
X144542402Y-100109058D01*
X144370348Y-100224020D01*
X144224020Y-100370348D01*
X144109058Y-100542402D01*
X144029869Y-100733581D01*
X143989500Y-100936532D01*
X143550499Y-100936532D01*
X143510130Y-100733580D01*
X143430941Y-100542402D01*
X143315977Y-100370345D01*
X143169655Y-100224023D01*
X142998270Y-100109508D01*
X142997597Y-100109058D01*
X142806418Y-100029869D01*
X142603467Y-99989500D01*
X142603465Y-99989500D01*
X142396535Y-99989500D01*
X142396532Y-99989500D01*
X142193581Y-100029869D01*
X142002402Y-100109058D01*
X141830348Y-100224020D01*
X141684020Y-100370348D01*
X141569058Y-100542402D01*
X141489869Y-100733581D01*
X141449500Y-100936532D01*
X141010499Y-100936532D01*
X140970130Y-100733580D01*
X140890941Y-100542402D01*
X140775977Y-100370345D01*
X140629655Y-100224023D01*
X140458270Y-100109508D01*
X140457597Y-100109058D01*
X140266418Y-100029869D01*
X140063467Y-99989500D01*
X140063465Y-99989500D01*
X139856535Y-99989500D01*
X139856532Y-99989500D01*
X139653581Y-100029869D01*
X139462402Y-100109058D01*
X139290348Y-100224020D01*
X139144020Y-100370348D01*
X139029058Y-100542402D01*
X138949869Y-100733581D01*
X138909500Y-100936532D01*
X138469989Y-100936532D01*
X138429650Y-100733727D01*
X138350498Y-100542639D01*
X138350491Y-100542625D01*
X138235594Y-100370670D01*
X138233173Y-100368249D01*
X137837788Y-100763632D01*
X137820099Y-100732993D01*
X137727007Y-100639901D01*
X137696365Y-100622210D01*
X138091750Y-100226826D01*
X138089329Y-100224405D01*
X137917374Y-100109508D01*
X137917360Y-100109501D01*
X137726272Y-100030349D01*
X137523418Y-99990000D01*
X137316581Y-99990000D01*
X137113727Y-100030349D01*
X136922639Y-100109501D01*
X136922630Y-100109505D01*
X136750665Y-100224410D01*
X136748248Y-100226825D01*
X137143633Y-100622210D01*
X137112993Y-100639901D01*
X137019901Y-100732993D01*
X137002210Y-100763633D01*
X136606825Y-100368248D01*
X136604410Y-100370665D01*
X136489505Y-100542630D01*
X136489501Y-100542639D01*
X136410349Y-100733727D01*
X136370000Y-100936581D01*
X120250000Y-100936581D01*
X120250000Y-98396532D01*
X136369500Y-98396532D01*
X136369500Y-98603467D01*
X136409869Y-98806418D01*
X136489058Y-98997597D01*
X136604020Y-99169651D01*
X136604023Y-99169655D01*
X136750345Y-99315977D01*
X136922402Y-99430941D01*
X137113580Y-99510130D01*
X137316535Y-99550500D01*
X137316536Y-99550500D01*
X137523464Y-99550500D01*
X137523465Y-99550500D01*
X137726420Y-99510130D01*
X137917598Y-99430941D01*
X138089655Y-99315977D01*
X138235977Y-99169655D01*
X138350941Y-98997598D01*
X138430130Y-98806420D01*
X138470500Y-98603465D01*
X138470500Y-98396535D01*
X138470499Y-98396532D01*
X138909500Y-98396532D01*
X138909500Y-98603467D01*
X138949869Y-98806418D01*
X139029058Y-98997597D01*
X139144020Y-99169651D01*
X139144023Y-99169655D01*
X139290345Y-99315977D01*
X139462402Y-99430941D01*
X139653580Y-99510130D01*
X139856535Y-99550500D01*
X139856536Y-99550500D01*
X140063464Y-99550500D01*
X140063465Y-99550500D01*
X140266420Y-99510130D01*
X140457598Y-99430941D01*
X140629655Y-99315977D01*
X140775977Y-99169655D01*
X140890941Y-98997598D01*
X140970130Y-98806420D01*
X141010500Y-98603465D01*
X141010500Y-98396535D01*
X140970130Y-98193580D01*
X140890941Y-98002402D01*
X140890940Y-98002400D01*
X140890939Y-98002398D01*
X140888649Y-97998113D01*
X140890260Y-97997251D01*
X140875674Y-97945505D01*
X140896859Y-97888105D01*
X140904585Y-97879410D01*
X143025900Y-95758096D01*
X143080417Y-95730319D01*
X143095904Y-95729100D01*
X144707896Y-95729100D01*
X144766087Y-95748007D01*
X144802051Y-95797507D01*
X144802051Y-95858693D01*
X144777901Y-95898101D01*
X143226502Y-97449500D01*
X143120596Y-97555406D01*
X143066079Y-97583183D01*
X143005647Y-97573612D01*
X143000780Y-97570759D01*
X142997601Y-97569060D01*
X142806418Y-97489869D01*
X142603467Y-97449500D01*
X142603465Y-97449500D01*
X142396535Y-97449500D01*
X142396532Y-97449500D01*
X142193581Y-97489869D01*
X142002402Y-97569058D01*
X141830348Y-97684020D01*
X141684020Y-97830348D01*
X141569058Y-98002402D01*
X141489869Y-98193581D01*
X141449500Y-98396532D01*
X141449500Y-98603467D01*
X141489869Y-98806418D01*
X141569058Y-98997597D01*
X141684020Y-99169651D01*
X141684023Y-99169655D01*
X141830345Y-99315977D01*
X142002402Y-99430941D01*
X142193580Y-99510130D01*
X142396535Y-99550500D01*
X142396536Y-99550500D01*
X142603464Y-99550500D01*
X142603465Y-99550500D01*
X142806420Y-99510130D01*
X142997598Y-99430941D01*
X143169655Y-99315977D01*
X143315977Y-99169655D01*
X143430941Y-98997598D01*
X143510130Y-98806420D01*
X143550500Y-98603465D01*
X143550500Y-98396535D01*
X143510130Y-98193580D01*
X143430941Y-98002402D01*
X143430940Y-98002400D01*
X143430939Y-98002398D01*
X143428649Y-97998113D01*
X143430260Y-97997251D01*
X143415674Y-97945505D01*
X143436859Y-97888105D01*
X143444584Y-97879411D01*
X145065901Y-96258096D01*
X145120418Y-96230319D01*
X145135905Y-96229100D01*
X146747896Y-96229100D01*
X146806087Y-96248007D01*
X146842051Y-96297507D01*
X146842051Y-96358693D01*
X146817901Y-96398101D01*
X146521782Y-96694221D01*
X145660596Y-97555406D01*
X145606079Y-97583183D01*
X145545647Y-97573612D01*
X145540780Y-97570759D01*
X145537601Y-97569060D01*
X145346418Y-97489869D01*
X145143467Y-97449500D01*
X145143465Y-97449500D01*
X144936535Y-97449500D01*
X144936532Y-97449500D01*
X144733581Y-97489869D01*
X144542402Y-97569058D01*
X144370348Y-97684020D01*
X144224020Y-97830348D01*
X144109058Y-98002402D01*
X144029869Y-98193581D01*
X143989500Y-98396532D01*
X143989500Y-98603467D01*
X144029869Y-98806418D01*
X144109058Y-98997597D01*
X144224020Y-99169651D01*
X144224023Y-99169655D01*
X144370345Y-99315977D01*
X144542402Y-99430941D01*
X144733580Y-99510130D01*
X144936535Y-99550500D01*
X144936536Y-99550500D01*
X145143464Y-99550500D01*
X145143465Y-99550500D01*
X145346420Y-99510130D01*
X145537598Y-99430941D01*
X145709655Y-99315977D01*
X145855977Y-99169655D01*
X145970941Y-98997598D01*
X146050130Y-98806420D01*
X146090500Y-98603465D01*
X146090500Y-98396535D01*
X146050130Y-98193580D01*
X145970941Y-98002402D01*
X145970940Y-98002400D01*
X145970939Y-98002398D01*
X145968649Y-97998113D01*
X145970260Y-97997251D01*
X145955674Y-97945505D01*
X145976859Y-97888105D01*
X145984584Y-97879411D01*
X147105901Y-96758096D01*
X147160418Y-96730319D01*
X147175905Y-96729100D01*
X153045568Y-96729100D01*
X153045570Y-96729100D01*
X153045571Y-96729100D01*
X153070229Y-96718885D01*
X153070232Y-96718885D01*
X153100004Y-96706553D01*
X153129775Y-96694222D01*
X153694222Y-96129774D01*
X153729100Y-96045570D01*
X153729100Y-95954430D01*
X153729100Y-95954429D01*
X153729100Y-88704429D01*
X153715968Y-88672725D01*
X153694222Y-88620225D01*
X153104775Y-88030778D01*
X153104773Y-88030777D01*
X153104772Y-88030776D01*
X153045233Y-88006115D01*
X153020571Y-87995900D01*
X150724405Y-87995900D01*
X150697274Y-87987085D01*
X150669794Y-87979475D01*
X150668377Y-87977696D01*
X150666214Y-87976993D01*
X150649445Y-87953913D01*
X150631687Y-87931605D01*
X150631663Y-87929438D01*
X150630250Y-87927493D01*
X150628996Y-87870479D01*
X150629873Y-87867310D01*
X150672725Y-87744849D01*
X150675500Y-87715256D01*
X150675500Y-87702546D01*
X150679091Y-87689579D01*
X150688907Y-87674736D01*
X150694407Y-87657809D01*
X150705369Y-87649844D01*
X150712842Y-87638545D01*
X150729507Y-87632307D01*
X150743907Y-87621845D01*
X150767395Y-87618125D01*
X150770145Y-87617096D01*
X150771508Y-87617473D01*
X150774500Y-87617000D01*
X154966074Y-87617000D01*
X155024265Y-87635907D01*
X155036078Y-87645996D01*
X155716504Y-88326421D01*
X155744281Y-88380938D01*
X155745500Y-88396425D01*
X155745500Y-97603574D01*
X155726593Y-97661765D01*
X155716504Y-97673578D01*
X155173578Y-98216504D01*
X155119061Y-98244281D01*
X155103574Y-98245500D01*
X148729500Y-98245500D01*
X148671309Y-98226593D01*
X148635345Y-98177093D01*
X148630500Y-98146500D01*
X148630500Y-97845727D01*
X148630499Y-97845725D01*
X148627646Y-97815305D01*
X148627646Y-97815301D01*
X148582793Y-97687118D01*
X148572800Y-97673578D01*
X148502154Y-97577855D01*
X148502152Y-97577853D01*
X148502150Y-97577850D01*
X148502146Y-97577847D01*
X148502144Y-97577845D01*
X148392883Y-97497207D01*
X148264703Y-97452355D01*
X148264694Y-97452353D01*
X148234274Y-97449500D01*
X148234266Y-97449500D01*
X146925734Y-97449500D01*
X146925725Y-97449500D01*
X146895305Y-97452353D01*
X146895296Y-97452355D01*
X146767116Y-97497207D01*
X146657855Y-97577845D01*
X146657845Y-97577855D01*
X146577207Y-97687116D01*
X146532355Y-97815296D01*
X146532353Y-97815305D01*
X146529500Y-97845725D01*
X146529500Y-99154274D01*
X146532353Y-99184694D01*
X146532355Y-99184703D01*
X146577207Y-99312883D01*
X146657845Y-99422144D01*
X146657847Y-99422146D01*
X146657850Y-99422150D01*
X146657853Y-99422152D01*
X146657855Y-99422154D01*
X146767116Y-99502792D01*
X146767117Y-99502792D01*
X146767118Y-99502793D01*
X146895301Y-99547646D01*
X146925725Y-99550499D01*
X146925727Y-99550500D01*
X146925734Y-99550500D01*
X148234273Y-99550500D01*
X148234273Y-99550499D01*
X148264699Y-99547646D01*
X148392882Y-99502793D01*
X148502150Y-99422150D01*
X148582793Y-99312882D01*
X148627646Y-99184699D01*
X148630499Y-99154273D01*
X148630500Y-99154273D01*
X148630500Y-98853500D01*
X148649407Y-98795309D01*
X148698907Y-98759345D01*
X148729500Y-98754500D01*
X155300624Y-98754500D01*
X155394161Y-98715756D01*
X155394161Y-98715755D01*
X155394163Y-98715755D01*
X156144161Y-97965755D01*
X156144163Y-97965755D01*
X156215755Y-97894163D01*
X156248419Y-97815305D01*
X156254500Y-97800624D01*
X156254500Y-88312155D01*
X156254501Y-88312146D01*
X156254501Y-88199377D01*
X156215755Y-88105838D01*
X156215755Y-88105837D01*
X156144163Y-88034245D01*
X156144161Y-88034244D01*
X155256663Y-87146745D01*
X155256661Y-87146744D01*
X155256660Y-87146743D01*
X155163125Y-87108000D01*
X155163123Y-87108000D01*
X150774500Y-87108000D01*
X150716309Y-87089093D01*
X150680345Y-87039593D01*
X150675980Y-87012032D01*
X150675825Y-87012039D01*
X150675717Y-87012050D01*
X150675716Y-87012044D01*
X150675608Y-87012050D01*
X150675499Y-87009733D01*
X150672725Y-86980155D01*
X150672725Y-86980151D01*
X150629116Y-86855525D01*
X150618323Y-86840901D01*
X150550714Y-86749293D01*
X150550713Y-86749292D01*
X150550711Y-86749289D01*
X150550706Y-86749285D01*
X150444476Y-86670884D01*
X150319852Y-86627276D01*
X150319851Y-86627275D01*
X150319849Y-86627275D01*
X150319847Y-86627274D01*
X150319844Y-86627274D01*
X150290266Y-86624500D01*
X150290256Y-86624500D01*
X149709744Y-86624500D01*
X149709733Y-86624500D01*
X149680155Y-86627274D01*
X149680147Y-86627276D01*
X149555523Y-86670884D01*
X149449293Y-86749285D01*
X149449285Y-86749293D01*
X149370884Y-86855523D01*
X149327276Y-86980147D01*
X149327274Y-86980155D01*
X149324500Y-87009733D01*
X149324392Y-87012050D01*
X149324283Y-87012044D01*
X149324283Y-87012050D01*
X149324174Y-87012039D01*
X149323522Y-87012009D01*
X149305593Y-87067191D01*
X149256093Y-87103155D01*
X149225500Y-87108000D01*
X148774500Y-87108000D01*
X148716309Y-87089093D01*
X148680345Y-87039593D01*
X148675980Y-87012032D01*
X148675825Y-87012039D01*
X148675717Y-87012050D01*
X148675716Y-87012044D01*
X148675608Y-87012050D01*
X148675499Y-87009733D01*
X148672725Y-86980155D01*
X148672725Y-86980151D01*
X148629116Y-86855525D01*
X148618323Y-86840901D01*
X148550714Y-86749293D01*
X148550713Y-86749292D01*
X148550711Y-86749289D01*
X148550706Y-86749285D01*
X148444476Y-86670884D01*
X148319852Y-86627276D01*
X148319851Y-86627275D01*
X148319849Y-86627275D01*
X148319847Y-86627274D01*
X148319844Y-86627274D01*
X148290266Y-86624500D01*
X148290256Y-86624500D01*
X147709744Y-86624500D01*
X147709733Y-86624500D01*
X147680155Y-86627274D01*
X147680147Y-86627276D01*
X147555523Y-86670884D01*
X147449293Y-86749285D01*
X147449285Y-86749293D01*
X147370884Y-86855523D01*
X147327276Y-86980147D01*
X147327274Y-86980155D01*
X147324500Y-87009733D01*
X147324500Y-87221500D01*
X147305593Y-87279691D01*
X147256093Y-87315655D01*
X147225500Y-87320500D01*
X146311478Y-87320500D01*
X146253287Y-87301593D01*
X146241480Y-87291509D01*
X146172765Y-87222794D01*
X146069991Y-87177415D01*
X146069990Y-87177414D01*
X146069988Y-87177414D01*
X146044868Y-87174500D01*
X144680139Y-87174500D01*
X144680136Y-87174501D01*
X144655009Y-87177414D01*
X144552235Y-87222794D01*
X144472794Y-87302235D01*
X144427414Y-87405011D01*
X144424500Y-87430130D01*
X144424500Y-87719859D01*
X144424501Y-87719864D01*
X144427414Y-87744990D01*
X144438855Y-87770900D01*
X144464729Y-87829500D01*
X144476500Y-87856157D01*
X144474126Y-87857205D01*
X144487537Y-87902757D01*
X144474477Y-87942949D01*
X144476500Y-87943843D01*
X144472794Y-87952234D01*
X144472794Y-87952235D01*
X144453525Y-87995875D01*
X144427414Y-88055011D01*
X144424500Y-88080130D01*
X144424500Y-88369859D01*
X144424501Y-88369864D01*
X144427414Y-88394990D01*
X144438114Y-88419222D01*
X144471650Y-88495175D01*
X144476500Y-88506157D01*
X144474126Y-88507205D01*
X144487537Y-88552757D01*
X144474477Y-88592949D01*
X144476500Y-88593843D01*
X144472794Y-88602234D01*
X144472794Y-88602235D01*
X144439941Y-88676641D01*
X144427414Y-88705011D01*
X144424500Y-88730130D01*
X144424500Y-89019859D01*
X144424501Y-89019864D01*
X144427414Y-89044990D01*
X144438114Y-89069222D01*
X144468838Y-89138806D01*
X144476500Y-89156157D01*
X144474126Y-89157205D01*
X144487537Y-89202757D01*
X144474477Y-89242949D01*
X144476500Y-89243843D01*
X144472794Y-89252234D01*
X144472794Y-89252235D01*
X144450267Y-89303254D01*
X144427414Y-89355011D01*
X144424500Y-89380130D01*
X144424500Y-89669859D01*
X144424501Y-89669864D01*
X144427414Y-89694990D01*
X144451437Y-89749397D01*
X144471913Y-89795770D01*
X144476500Y-89806157D01*
X144474280Y-89807137D01*
X144487845Y-89853198D01*
X144474845Y-89893214D01*
X144476919Y-89894130D01*
X144427909Y-90005127D01*
X144425000Y-90030202D01*
X144425000Y-90074999D01*
X144425001Y-90075000D01*
X146299998Y-90075000D01*
X146299999Y-90074999D01*
X146299999Y-90030210D01*
X146299998Y-90030208D01*
X146297090Y-90005125D01*
X146248081Y-89894130D01*
X146251429Y-89892651D01*
X146238970Y-89850370D01*
X146259475Y-89792723D01*
X146309947Y-89758138D01*
X146337932Y-89754100D01*
X148976595Y-89754100D01*
X149034786Y-89773007D01*
X149046599Y-89783096D01*
X149372913Y-90109410D01*
X149400690Y-90163927D01*
X149401477Y-90188655D01*
X149399500Y-90209743D01*
X149399500Y-90790266D01*
X149402274Y-90819844D01*
X149402276Y-90819852D01*
X149445884Y-90944476D01*
X149524021Y-91050348D01*
X149524289Y-91050711D01*
X149524292Y-91050713D01*
X149524293Y-91050714D01*
X149630523Y-91129115D01*
X149630524Y-91129115D01*
X149630525Y-91129116D01*
X149755151Y-91172725D01*
X149779412Y-91175000D01*
X149784733Y-91175499D01*
X149784738Y-91175500D01*
X149784744Y-91175500D01*
X150390262Y-91175500D01*
X150392573Y-91175392D01*
X150392630Y-91176631D01*
X150400711Y-91178432D01*
X150413217Y-91176452D01*
X150429852Y-91184927D01*
X150448073Y-91188989D01*
X150467726Y-91204223D01*
X150491905Y-91228401D01*
X150519681Y-91282916D01*
X150520900Y-91298403D01*
X150520900Y-94067008D01*
X150501993Y-94125199D01*
X150452493Y-94161163D01*
X150391307Y-94161163D01*
X150351898Y-94137013D01*
X150310384Y-94095499D01*
X150310381Y-94095497D01*
X150195119Y-94028950D01*
X150195121Y-94028950D01*
X150145235Y-94015583D01*
X150066550Y-93994500D01*
X149933450Y-93994500D01*
X149897998Y-94003999D01*
X149836896Y-94000796D01*
X149802372Y-93978376D01*
X149258096Y-93434099D01*
X149230319Y-93379582D01*
X149229100Y-93364095D01*
X149229100Y-91704429D01*
X149204480Y-91644990D01*
X149194223Y-91620228D01*
X149194222Y-91620227D01*
X149194222Y-91620226D01*
X148204775Y-90630778D01*
X148204773Y-90630777D01*
X148204772Y-90630776D01*
X148145233Y-90606115D01*
X148120571Y-90595900D01*
X146337932Y-90595900D01*
X146279741Y-90576993D01*
X146243777Y-90527493D01*
X146243777Y-90466307D01*
X146248766Y-90456172D01*
X146248081Y-90455870D01*
X146297090Y-90344872D01*
X146299999Y-90319797D01*
X146300000Y-90319795D01*
X146300000Y-90275001D01*
X146299999Y-90275000D01*
X144425002Y-90275000D01*
X144425001Y-90275001D01*
X144425001Y-90319791D01*
X144427909Y-90344874D01*
X144476919Y-90455870D01*
X144474488Y-90456943D01*
X144487845Y-90502295D01*
X144474618Y-90543012D01*
X144476500Y-90543843D01*
X144472794Y-90552234D01*
X144472794Y-90552235D01*
X144449004Y-90606115D01*
X144427414Y-90655011D01*
X144424500Y-90680130D01*
X144424500Y-90969859D01*
X144424501Y-90969864D01*
X144427414Y-90994990D01*
X144451437Y-91049397D01*
X144452015Y-91050706D01*
X144476500Y-91106157D01*
X144474126Y-91107205D01*
X144487537Y-91152757D01*
X144474477Y-91192949D01*
X144476500Y-91193843D01*
X144472794Y-91202234D01*
X144472794Y-91202235D01*
X144471914Y-91204229D01*
X144427414Y-91305011D01*
X144424500Y-91330130D01*
X144424500Y-91619859D01*
X144424501Y-91619864D01*
X144427414Y-91644990D01*
X144449197Y-91694323D01*
X144472526Y-91747159D01*
X144476500Y-91756157D01*
X144474280Y-91757137D01*
X144487845Y-91803198D01*
X144474845Y-91843214D01*
X144476919Y-91844130D01*
X144427909Y-91955127D01*
X144425000Y-91980202D01*
X144425000Y-92024999D01*
X144425001Y-92025000D01*
X146299998Y-92025000D01*
X146299999Y-92024999D01*
X146299999Y-91980210D01*
X146299998Y-91980208D01*
X146297090Y-91955125D01*
X146248081Y-91844130D01*
X146251429Y-91842651D01*
X146238970Y-91800370D01*
X146259475Y-91742723D01*
X146309947Y-91708138D01*
X146337932Y-91704100D01*
X147839095Y-91704100D01*
X147897286Y-91723007D01*
X147909099Y-91733096D01*
X148241904Y-92065901D01*
X148269681Y-92120418D01*
X148270900Y-92135905D01*
X148270900Y-93991411D01*
X148251993Y-94049602D01*
X148221401Y-94077147D01*
X148189618Y-94095497D01*
X148095497Y-94189618D01*
X148028950Y-94304879D01*
X148018793Y-94342788D01*
X147994500Y-94433450D01*
X147994500Y-94566550D01*
X148024880Y-94679930D01*
X148028950Y-94695120D01*
X148089274Y-94799602D01*
X148095499Y-94810384D01*
X148189616Y-94904501D01*
X148189618Y-94904502D01*
X148304880Y-94971049D01*
X148304878Y-94971049D01*
X148304882Y-94971050D01*
X148304884Y-94971051D01*
X148433450Y-95005500D01*
X148433452Y-95005500D01*
X148566548Y-95005500D01*
X148566550Y-95005500D01*
X148695116Y-94971051D01*
X148695118Y-94971049D01*
X148695120Y-94971049D01*
X148729362Y-94951278D01*
X148810384Y-94904501D01*
X148904501Y-94810384D01*
X148971051Y-94695116D01*
X149005500Y-94566550D01*
X149005500Y-94433450D01*
X148971051Y-94304884D01*
X148971049Y-94304881D01*
X148971049Y-94304879D01*
X148904502Y-94189618D01*
X148904501Y-94189616D01*
X148810384Y-94095499D01*
X148810381Y-94095497D01*
X148778599Y-94077147D01*
X148737658Y-94031676D01*
X148729100Y-93991411D01*
X148729100Y-93792104D01*
X148748007Y-93733913D01*
X148797507Y-93697949D01*
X148858693Y-93697949D01*
X148898101Y-93722098D01*
X149167415Y-93991411D01*
X149478376Y-94302372D01*
X149506153Y-94356889D01*
X149503998Y-94397998D01*
X149494500Y-94433450D01*
X149494500Y-94566550D01*
X149524880Y-94679930D01*
X149528950Y-94695120D01*
X149589274Y-94799602D01*
X149595499Y-94810384D01*
X149689616Y-94904501D01*
X149689618Y-94904502D01*
X149804880Y-94971049D01*
X149804878Y-94971049D01*
X149804882Y-94971050D01*
X149804884Y-94971051D01*
X149933450Y-95005500D01*
X149933452Y-95005500D01*
X150066547Y-95005500D01*
X150066550Y-95005500D01*
X150193178Y-94971570D01*
X150254275Y-94974772D01*
X150301825Y-95013277D01*
X150317661Y-95072378D01*
X150295735Y-95129499D01*
X150288801Y-95137200D01*
X150184099Y-95241903D01*
X150129582Y-95269681D01*
X150114095Y-95270900D01*
X142914429Y-95270900D01*
X142879551Y-95285347D01*
X142879550Y-95285347D01*
X142830228Y-95305776D01*
X140580596Y-97555406D01*
X140526079Y-97583183D01*
X140465647Y-97573612D01*
X140460780Y-97570759D01*
X140457601Y-97569060D01*
X140266418Y-97489869D01*
X140063467Y-97449500D01*
X140063465Y-97449500D01*
X139856535Y-97449500D01*
X139856532Y-97449500D01*
X139653581Y-97489869D01*
X139462402Y-97569058D01*
X139290348Y-97684020D01*
X139144020Y-97830348D01*
X139029058Y-98002402D01*
X138949869Y-98193581D01*
X138909500Y-98396532D01*
X138470499Y-98396532D01*
X138430130Y-98193580D01*
X138350941Y-98002402D01*
X138235977Y-97830345D01*
X138089655Y-97684023D01*
X138074023Y-97673578D01*
X137917597Y-97569058D01*
X137726418Y-97489869D01*
X137523467Y-97449500D01*
X137523465Y-97449500D01*
X137316535Y-97449500D01*
X137316532Y-97449500D01*
X137113581Y-97489869D01*
X136922402Y-97569058D01*
X136750348Y-97684020D01*
X136604020Y-97830348D01*
X136489058Y-98002402D01*
X136409869Y-98193581D01*
X136369500Y-98396532D01*
X120250000Y-98396532D01*
X120250000Y-85709733D01*
X127899500Y-85709733D01*
X127899500Y-86290266D01*
X127902274Y-86319844D01*
X127902276Y-86319852D01*
X127945884Y-86444476D01*
X128023721Y-86549942D01*
X128024289Y-86550711D01*
X128024292Y-86550713D01*
X128024293Y-86550714D01*
X128130523Y-86629115D01*
X128130524Y-86629115D01*
X128130525Y-86629116D01*
X128255151Y-86672725D01*
X128268642Y-86673990D01*
X128324812Y-86698245D01*
X128355999Y-86750885D01*
X128358400Y-86772557D01*
X128358400Y-87227442D01*
X128339493Y-87285633D01*
X128289993Y-87321597D01*
X128268645Y-87326009D01*
X128255155Y-87327274D01*
X128255147Y-87327276D01*
X128130523Y-87370884D01*
X128024293Y-87449285D01*
X128024285Y-87449293D01*
X127945884Y-87555523D01*
X127902276Y-87680147D01*
X127902274Y-87680155D01*
X127899500Y-87709733D01*
X127899500Y-88290266D01*
X127902274Y-88319844D01*
X127902276Y-88319852D01*
X127945884Y-88444476D01*
X128023764Y-88550000D01*
X128024289Y-88550711D01*
X128024292Y-88550713D01*
X128024293Y-88550714D01*
X128130523Y-88629115D01*
X128130524Y-88629115D01*
X128130525Y-88629116D01*
X128170674Y-88643165D01*
X128252006Y-88671625D01*
X128300687Y-88708691D01*
X128318283Y-88767291D01*
X128298074Y-88825043D01*
X128279582Y-88843606D01*
X128277122Y-88845493D01*
X128182997Y-88939618D01*
X128116450Y-89054879D01*
X128100933Y-89112789D01*
X128082000Y-89183450D01*
X128082000Y-89316550D01*
X128099038Y-89380136D01*
X128116450Y-89445120D01*
X128182997Y-89560381D01*
X128182999Y-89560384D01*
X128277116Y-89654501D01*
X128277118Y-89654502D01*
X128279571Y-89656384D01*
X128280826Y-89658210D01*
X128281705Y-89659089D01*
X128281542Y-89659251D01*
X128314230Y-89706806D01*
X128312633Y-89767971D01*
X128275389Y-89816515D01*
X128252008Y-89828374D01*
X128130522Y-89870884D01*
X128024293Y-89949285D01*
X128024285Y-89949293D01*
X127945884Y-90055523D01*
X127902276Y-90180147D01*
X127902274Y-90180155D01*
X127899500Y-90209733D01*
X127899500Y-90790266D01*
X127902274Y-90819844D01*
X127902276Y-90819852D01*
X127945884Y-90944476D01*
X128024021Y-91050348D01*
X128024289Y-91050711D01*
X128024292Y-91050713D01*
X128024293Y-91050714D01*
X128130523Y-91129115D01*
X128130524Y-91129115D01*
X128130525Y-91129116D01*
X128255151Y-91172725D01*
X128268642Y-91173990D01*
X128324812Y-91198245D01*
X128355999Y-91250885D01*
X128358400Y-91272557D01*
X128358400Y-91727442D01*
X128339493Y-91785633D01*
X128289993Y-91821597D01*
X128268645Y-91826009D01*
X128255155Y-91827274D01*
X128255147Y-91827276D01*
X128130523Y-91870884D01*
X128024293Y-91949285D01*
X128024285Y-91949293D01*
X127945884Y-92055523D01*
X127902276Y-92180147D01*
X127902274Y-92180155D01*
X127899500Y-92209733D01*
X127899500Y-92790266D01*
X127902274Y-92819844D01*
X127902276Y-92819852D01*
X127945884Y-92944476D01*
X128024021Y-93050348D01*
X128024289Y-93050711D01*
X128024292Y-93050713D01*
X128024293Y-93050714D01*
X128130523Y-93129115D01*
X128130524Y-93129115D01*
X128130525Y-93129116D01*
X128255151Y-93172725D01*
X128279412Y-93175000D01*
X128284733Y-93175499D01*
X128284738Y-93175500D01*
X128284744Y-93175500D01*
X128890262Y-93175500D01*
X128890265Y-93175499D01*
X128919849Y-93172725D01*
X129044475Y-93129116D01*
X129150711Y-93050711D01*
X129229116Y-92944475D01*
X129272725Y-92819849D01*
X129275500Y-92790256D01*
X129275500Y-92209744D01*
X129275500Y-92209738D01*
X129275499Y-92209733D01*
X129274820Y-92202493D01*
X129272725Y-92180151D01*
X129229116Y-92055525D01*
X129224763Y-92049627D01*
X129150714Y-91949293D01*
X129150713Y-91949292D01*
X129150711Y-91949289D01*
X129150706Y-91949285D01*
X129044476Y-91870884D01*
X128919852Y-91827276D01*
X128919851Y-91827275D01*
X128919849Y-91827275D01*
X128919847Y-91827274D01*
X128919844Y-91827274D01*
X128906355Y-91826009D01*
X128850184Y-91801751D01*
X128819000Y-91749109D01*
X128816600Y-91727442D01*
X128816600Y-91272557D01*
X128835507Y-91214366D01*
X128885007Y-91178402D01*
X128906352Y-91173990D01*
X128919849Y-91172725D01*
X129044475Y-91129116D01*
X129150711Y-91050711D01*
X129229116Y-90944475D01*
X129272725Y-90819849D01*
X129275499Y-90790265D01*
X129275500Y-90790261D01*
X129275500Y-90209738D01*
X129275499Y-90209733D01*
X129274820Y-90202493D01*
X129272725Y-90180151D01*
X129229116Y-90055525D01*
X129210431Y-90030208D01*
X129150714Y-89949293D01*
X129150713Y-89949292D01*
X129150711Y-89949289D01*
X129144309Y-89944564D01*
X129044476Y-89870884D01*
X128922992Y-89828374D01*
X128874311Y-89791308D01*
X128856715Y-89732708D01*
X128876924Y-89674956D01*
X128895433Y-89656380D01*
X128897873Y-89654507D01*
X128897884Y-89654501D01*
X128992001Y-89560384D01*
X129058551Y-89445116D01*
X129093000Y-89316550D01*
X129093000Y-89183450D01*
X129058551Y-89054884D01*
X129058549Y-89054881D01*
X129058549Y-89054879D01*
X128992002Y-88939618D01*
X128992001Y-88939616D01*
X128897884Y-88845499D01*
X128897881Y-88845497D01*
X128897880Y-88845496D01*
X128895422Y-88843610D01*
X128894165Y-88841781D01*
X128893295Y-88840911D01*
X128893456Y-88840749D01*
X128860767Y-88793185D01*
X128862370Y-88732021D01*
X128899618Y-88683480D01*
X128922993Y-88671625D01*
X128967317Y-88656115D01*
X129044475Y-88629116D01*
X129150711Y-88550711D01*
X129229116Y-88444475D01*
X129272725Y-88319849D01*
X129275499Y-88290265D01*
X129275500Y-88290261D01*
X129275500Y-87709738D01*
X129275499Y-87709733D01*
X129273498Y-87688399D01*
X129272725Y-87680151D01*
X129229116Y-87555525D01*
X129150711Y-87449289D01*
X129124765Y-87430140D01*
X129044476Y-87370884D01*
X128919852Y-87327276D01*
X128919851Y-87327275D01*
X128919849Y-87327275D01*
X128919847Y-87327274D01*
X128919844Y-87327274D01*
X128906355Y-87326009D01*
X128850184Y-87301751D01*
X128819000Y-87249109D01*
X128816600Y-87227442D01*
X128816600Y-86772557D01*
X128835507Y-86714366D01*
X128885007Y-86678402D01*
X128906352Y-86673990D01*
X128919849Y-86672725D01*
X129044475Y-86629116D01*
X129150711Y-86550711D01*
X129229116Y-86444475D01*
X129272725Y-86319849D01*
X129275499Y-86290265D01*
X129275500Y-86290261D01*
X129275500Y-85709738D01*
X129275499Y-85709733D01*
X129724500Y-85709733D01*
X129724500Y-86290266D01*
X129727274Y-86319844D01*
X129727276Y-86319852D01*
X129770884Y-86444476D01*
X129848721Y-86549942D01*
X129849289Y-86550711D01*
X129849292Y-86550713D01*
X129849293Y-86550714D01*
X129955523Y-86629115D01*
X129955524Y-86629115D01*
X129955525Y-86629116D01*
X130080151Y-86672725D01*
X130104412Y-86675000D01*
X130109733Y-86675499D01*
X130109738Y-86675500D01*
X130109744Y-86675500D01*
X130715262Y-86675500D01*
X130715265Y-86675499D01*
X130744849Y-86672725D01*
X130869475Y-86629116D01*
X130975711Y-86550711D01*
X131054116Y-86444475D01*
X131097725Y-86319849D01*
X131097819Y-86318850D01*
X131098069Y-86318269D01*
X131099010Y-86313965D01*
X131099849Y-86314148D01*
X131122081Y-86262680D01*
X131174725Y-86231499D01*
X131196386Y-86229100D01*
X131803614Y-86229100D01*
X131861805Y-86248007D01*
X131897769Y-86297507D01*
X131902181Y-86318850D01*
X131902274Y-86319845D01*
X131902276Y-86319852D01*
X131945884Y-86444476D01*
X132023721Y-86549942D01*
X132024289Y-86550711D01*
X132024292Y-86550713D01*
X132024293Y-86550714D01*
X132130523Y-86629115D01*
X132130524Y-86629115D01*
X132130525Y-86629116D01*
X132255151Y-86672725D01*
X132279412Y-86675000D01*
X132284733Y-86675499D01*
X132284738Y-86675500D01*
X132284744Y-86675500D01*
X132890262Y-86675500D01*
X132892573Y-86675392D01*
X132892631Y-86676641D01*
X132948041Y-86688971D01*
X132967731Y-86704229D01*
X133104404Y-86840901D01*
X133207725Y-86944222D01*
X133267266Y-86968884D01*
X133291929Y-86979100D01*
X133291930Y-86979100D01*
X133383070Y-86979100D01*
X134864095Y-86979100D01*
X134922286Y-86998007D01*
X134934099Y-87008096D01*
X136345225Y-88419222D01*
X136404766Y-88443884D01*
X136429429Y-88454100D01*
X136432657Y-88455437D01*
X136465040Y-88483096D01*
X136473365Y-88490207D01*
X136479182Y-88495175D01*
X136488825Y-88535347D01*
X136493464Y-88554667D01*
X136493463Y-88554668D01*
X136493464Y-88554670D01*
X136484009Y-88577493D01*
X136470049Y-88611195D01*
X136470047Y-88611195D01*
X136470047Y-88611198D01*
X136445954Y-88625961D01*
X136417880Y-88643165D01*
X136394769Y-88645900D01*
X135100946Y-88645900D01*
X135042755Y-88626993D01*
X135006791Y-88577493D01*
X135006791Y-88516307D01*
X135021291Y-88488112D01*
X135053669Y-88444240D01*
X135097227Y-88319759D01*
X135097228Y-88319758D01*
X135100000Y-88290201D01*
X135100000Y-88100001D01*
X135099999Y-88100000D01*
X133725001Y-88100000D01*
X133725000Y-88100001D01*
X133725000Y-88290201D01*
X133727771Y-88319758D01*
X133727772Y-88319759D01*
X133771330Y-88444240D01*
X133803709Y-88488112D01*
X133808779Y-88503327D01*
X133818209Y-88516307D01*
X133818209Y-88531628D01*
X133823051Y-88546160D01*
X133818209Y-88561450D01*
X133818209Y-88577493D01*
X133809204Y-88589886D01*
X133804580Y-88604490D01*
X133791674Y-88614014D01*
X133782245Y-88626993D01*
X133767674Y-88631727D01*
X133755350Y-88640823D01*
X133724054Y-88645900D01*
X133598405Y-88645900D01*
X133540214Y-88626993D01*
X133528401Y-88616904D01*
X133302086Y-88390589D01*
X133274309Y-88336072D01*
X133273523Y-88311340D01*
X133273942Y-88306867D01*
X133275500Y-88290256D01*
X133275500Y-87709798D01*
X133725000Y-87709798D01*
X133725000Y-87899999D01*
X133725001Y-87900000D01*
X134312499Y-87900000D01*
X134312500Y-87899999D01*
X134312500Y-87325001D01*
X134512500Y-87325001D01*
X134512500Y-87899999D01*
X134512501Y-87900000D01*
X135099999Y-87900000D01*
X135100000Y-87899999D01*
X135100000Y-87709798D01*
X135097228Y-87680241D01*
X135097227Y-87680240D01*
X135053669Y-87555759D01*
X134975358Y-87449651D01*
X134975348Y-87449641D01*
X134869240Y-87371330D01*
X134744759Y-87327772D01*
X134744758Y-87327771D01*
X134715201Y-87325000D01*
X134512501Y-87325000D01*
X134512500Y-87325001D01*
X134312500Y-87325001D01*
X134312499Y-87325000D01*
X134109799Y-87325000D01*
X134080241Y-87327771D01*
X134080240Y-87327772D01*
X133955759Y-87371330D01*
X133849651Y-87449641D01*
X133849641Y-87449651D01*
X133771330Y-87555759D01*
X133727772Y-87680240D01*
X133727771Y-87680241D01*
X133725000Y-87709798D01*
X133275500Y-87709798D01*
X133275500Y-87709744D01*
X133275500Y-87709738D01*
X133275499Y-87709733D01*
X133273498Y-87688399D01*
X133272725Y-87680151D01*
X133229116Y-87555525D01*
X133150711Y-87449289D01*
X133124765Y-87430140D01*
X133044476Y-87370884D01*
X132919852Y-87327276D01*
X132919851Y-87327275D01*
X132919849Y-87327275D01*
X132919847Y-87327274D01*
X132919844Y-87327274D01*
X132890266Y-87324500D01*
X132890256Y-87324500D01*
X132284744Y-87324500D01*
X132284733Y-87324500D01*
X132255155Y-87327274D01*
X132255147Y-87327276D01*
X132130523Y-87370884D01*
X132024293Y-87449285D01*
X132024285Y-87449293D01*
X131945884Y-87555523D01*
X131902276Y-87680147D01*
X131902274Y-87680154D01*
X131902181Y-87681150D01*
X131901930Y-87681730D01*
X131900990Y-87686035D01*
X131900150Y-87685851D01*
X131877919Y-87737320D01*
X131825275Y-87768501D01*
X131803614Y-87770900D01*
X131196386Y-87770900D01*
X131138195Y-87751993D01*
X131102231Y-87702493D01*
X131097819Y-87681150D01*
X131097725Y-87680154D01*
X131097725Y-87680151D01*
X131054116Y-87555525D01*
X130975711Y-87449289D01*
X130949765Y-87430140D01*
X130869476Y-87370884D01*
X130744852Y-87327276D01*
X130744851Y-87327275D01*
X130744849Y-87327275D01*
X130744847Y-87327274D01*
X130744844Y-87327274D01*
X130715266Y-87324500D01*
X130715256Y-87324500D01*
X130109744Y-87324500D01*
X130109733Y-87324500D01*
X130080155Y-87327274D01*
X130080147Y-87327276D01*
X129955523Y-87370884D01*
X129849293Y-87449285D01*
X129849285Y-87449293D01*
X129770884Y-87555523D01*
X129727276Y-87680147D01*
X129727274Y-87680155D01*
X129724500Y-87709733D01*
X129724500Y-88290266D01*
X129727274Y-88319844D01*
X129727276Y-88319852D01*
X129770884Y-88444476D01*
X129848764Y-88550000D01*
X129849289Y-88550711D01*
X129849292Y-88550713D01*
X129849293Y-88550714D01*
X129955523Y-88629115D01*
X129955524Y-88629115D01*
X129955525Y-88629116D01*
X130080151Y-88672725D01*
X130107441Y-88675284D01*
X130109733Y-88675499D01*
X130109738Y-88675500D01*
X130109744Y-88675500D01*
X130715262Y-88675500D01*
X130715265Y-88675499D01*
X130744849Y-88672725D01*
X130869475Y-88629116D01*
X130975711Y-88550711D01*
X131054116Y-88444475D01*
X131097725Y-88319849D01*
X131097819Y-88318850D01*
X131098069Y-88318269D01*
X131099010Y-88313965D01*
X131099849Y-88314148D01*
X131122081Y-88262680D01*
X131174725Y-88231499D01*
X131196386Y-88229100D01*
X131803614Y-88229100D01*
X131861805Y-88248007D01*
X131897769Y-88297507D01*
X131902181Y-88318850D01*
X131902274Y-88319845D01*
X131902276Y-88319852D01*
X131945884Y-88444476D01*
X132023764Y-88550000D01*
X132024289Y-88550711D01*
X132024292Y-88550713D01*
X132024293Y-88550714D01*
X132130523Y-88629115D01*
X132130524Y-88629115D01*
X132130525Y-88629116D01*
X132255151Y-88672725D01*
X132282441Y-88675284D01*
X132284733Y-88675499D01*
X132284738Y-88675500D01*
X132284744Y-88675500D01*
X132890262Y-88675500D01*
X132892573Y-88675392D01*
X132892631Y-88676641D01*
X132948041Y-88688971D01*
X132967732Y-88704229D01*
X133332725Y-89069222D01*
X133392230Y-89093869D01*
X133416929Y-89104100D01*
X133416930Y-89104100D01*
X133489114Y-89104100D01*
X133495889Y-89105041D01*
X133517554Y-89115564D01*
X133540460Y-89123007D01*
X133544596Y-89128699D01*
X133550925Y-89131774D01*
X133562265Y-89153019D01*
X133576424Y-89172507D01*
X133576424Y-89179544D01*
X133579737Y-89185751D01*
X133576424Y-89209605D01*
X133576424Y-89233693D01*
X133572287Y-89239385D01*
X133571320Y-89246355D01*
X133554617Y-89263707D01*
X133540460Y-89283193D01*
X133530482Y-89288780D01*
X133528888Y-89290437D01*
X133526889Y-89290792D01*
X133520153Y-89294565D01*
X133516930Y-89295900D01*
X133516929Y-89295900D01*
X133506238Y-89300328D01*
X133499175Y-89303254D01*
X133432722Y-89330779D01*
X132967730Y-89795770D01*
X132913214Y-89823547D01*
X132892591Y-89824202D01*
X132892573Y-89824608D01*
X132890261Y-89824500D01*
X132890256Y-89824500D01*
X132284744Y-89824500D01*
X132284733Y-89824500D01*
X132255155Y-89827274D01*
X132255147Y-89827276D01*
X132130523Y-89870884D01*
X132024293Y-89949285D01*
X132024285Y-89949293D01*
X131945884Y-90055523D01*
X131902276Y-90180147D01*
X131902274Y-90180154D01*
X131902181Y-90181150D01*
X131901930Y-90181730D01*
X131900990Y-90186035D01*
X131900150Y-90185851D01*
X131877919Y-90237320D01*
X131825275Y-90268501D01*
X131803614Y-90270900D01*
X131196386Y-90270900D01*
X131138195Y-90251993D01*
X131102231Y-90202493D01*
X131097819Y-90181150D01*
X131097725Y-90180154D01*
X131097725Y-90180151D01*
X131054116Y-90055525D01*
X131035431Y-90030208D01*
X130975714Y-89949293D01*
X130975713Y-89949292D01*
X130975711Y-89949289D01*
X130969309Y-89944564D01*
X130869476Y-89870884D01*
X130744852Y-89827276D01*
X130744851Y-89827275D01*
X130744849Y-89827275D01*
X130744847Y-89827274D01*
X130744844Y-89827274D01*
X130715266Y-89824500D01*
X130715256Y-89824500D01*
X130109744Y-89824500D01*
X130109733Y-89824500D01*
X130080155Y-89827274D01*
X130080147Y-89827276D01*
X129955523Y-89870884D01*
X129849293Y-89949285D01*
X129849285Y-89949293D01*
X129770884Y-90055523D01*
X129727276Y-90180147D01*
X129727274Y-90180155D01*
X129724500Y-90209733D01*
X129724500Y-90790266D01*
X129727274Y-90819844D01*
X129727276Y-90819852D01*
X129770884Y-90944476D01*
X129849021Y-91050348D01*
X129849289Y-91050711D01*
X129849292Y-91050713D01*
X129849293Y-91050714D01*
X129955523Y-91129115D01*
X129955524Y-91129115D01*
X129955525Y-91129116D01*
X130080151Y-91172725D01*
X130104412Y-91175000D01*
X130109733Y-91175499D01*
X130109738Y-91175500D01*
X130109744Y-91175500D01*
X130715262Y-91175500D01*
X130715265Y-91175499D01*
X130744849Y-91172725D01*
X130869475Y-91129116D01*
X130975711Y-91050711D01*
X131054116Y-90944475D01*
X131097725Y-90819849D01*
X131097819Y-90818850D01*
X131098069Y-90818269D01*
X131099010Y-90813965D01*
X131099849Y-90814148D01*
X131122081Y-90762680D01*
X131174725Y-90731499D01*
X131196386Y-90729100D01*
X131803614Y-90729100D01*
X131861805Y-90748007D01*
X131897769Y-90797507D01*
X131902181Y-90818850D01*
X131902274Y-90819845D01*
X131902276Y-90819852D01*
X131945884Y-90944476D01*
X132024021Y-91050348D01*
X132024289Y-91050711D01*
X132024292Y-91050713D01*
X132024293Y-91050714D01*
X132130523Y-91129115D01*
X132130524Y-91129115D01*
X132130525Y-91129116D01*
X132255151Y-91172725D01*
X132279412Y-91175000D01*
X132284733Y-91175499D01*
X132284738Y-91175500D01*
X132284744Y-91175500D01*
X132890262Y-91175500D01*
X132890265Y-91175499D01*
X132919849Y-91172725D01*
X133044475Y-91129116D01*
X133150711Y-91050711D01*
X133229116Y-90944475D01*
X133272725Y-90819849D01*
X133275499Y-90790265D01*
X133275500Y-90790261D01*
X133275500Y-90600001D01*
X133725000Y-90600001D01*
X133725000Y-90790201D01*
X133727771Y-90819758D01*
X133727772Y-90819759D01*
X133771330Y-90944240D01*
X133849641Y-91050348D01*
X133849651Y-91050358D01*
X133955759Y-91128669D01*
X134080240Y-91172227D01*
X134080241Y-91172228D01*
X134109799Y-91175000D01*
X134312499Y-91175000D01*
X134312500Y-91174999D01*
X134312500Y-90600001D01*
X134512500Y-90600001D01*
X134512500Y-91174999D01*
X134512501Y-91175000D01*
X134715201Y-91175000D01*
X134744758Y-91172228D01*
X134744759Y-91172227D01*
X134869240Y-91128669D01*
X134975348Y-91050358D01*
X134975358Y-91050348D01*
X135053669Y-90944240D01*
X135097227Y-90819759D01*
X135097228Y-90819758D01*
X135100000Y-90790201D01*
X135100000Y-90600001D01*
X135099999Y-90600000D01*
X134512501Y-90600000D01*
X134512500Y-90600001D01*
X134312500Y-90600001D01*
X134312499Y-90600000D01*
X133725001Y-90600000D01*
X133725000Y-90600001D01*
X133275500Y-90600001D01*
X133275500Y-90209738D01*
X133275499Y-90209733D01*
X133273523Y-90188656D01*
X133286914Y-90128954D01*
X133302083Y-90109412D01*
X133628401Y-89783096D01*
X133682917Y-89755319D01*
X133698404Y-89754100D01*
X133813744Y-89754100D01*
X133871935Y-89773007D01*
X133907899Y-89822507D01*
X133907899Y-89883693D01*
X133872532Y-89932755D01*
X133849651Y-89949641D01*
X133849641Y-89949651D01*
X133771330Y-90055759D01*
X133727772Y-90180240D01*
X133727771Y-90180241D01*
X133725000Y-90209798D01*
X133725000Y-90399999D01*
X133725001Y-90400000D01*
X135099999Y-90400000D01*
X135100000Y-90399999D01*
X135100000Y-90209798D01*
X135097228Y-90180241D01*
X135097227Y-90180240D01*
X135053669Y-90055759D01*
X134975358Y-89949651D01*
X134975348Y-89949641D01*
X134952468Y-89932755D01*
X134916875Y-89882987D01*
X134917333Y-89821804D01*
X134953666Y-89772574D01*
X135011256Y-89754100D01*
X136744769Y-89754100D01*
X136802960Y-89773007D01*
X136838924Y-89822507D01*
X136838924Y-89883693D01*
X136802960Y-89933193D01*
X136782656Y-89944564D01*
X136779431Y-89945900D01*
X136779429Y-89945900D01*
X136695225Y-89980779D01*
X136695224Y-89980780D01*
X135184099Y-91491904D01*
X135129582Y-91519681D01*
X135114095Y-91520900D01*
X133291929Y-91520900D01*
X133267266Y-91531115D01*
X133267264Y-91531115D01*
X133207725Y-91555777D01*
X132967731Y-91795770D01*
X132913215Y-91823547D01*
X132892591Y-91824204D01*
X132892573Y-91824608D01*
X132890261Y-91824500D01*
X132890256Y-91824500D01*
X132284744Y-91824500D01*
X132284733Y-91824500D01*
X132255155Y-91827274D01*
X132255147Y-91827276D01*
X132130523Y-91870884D01*
X132024293Y-91949285D01*
X132024285Y-91949293D01*
X131945884Y-92055523D01*
X131902276Y-92180147D01*
X131902274Y-92180154D01*
X131902181Y-92181150D01*
X131901930Y-92181730D01*
X131900990Y-92186035D01*
X131900150Y-92185851D01*
X131877919Y-92237320D01*
X131825275Y-92268501D01*
X131803614Y-92270900D01*
X131196386Y-92270900D01*
X131138195Y-92251993D01*
X131102231Y-92202493D01*
X131097819Y-92181150D01*
X131097768Y-92180618D01*
X131097725Y-92180151D01*
X131054116Y-92055525D01*
X131049763Y-92049627D01*
X130975714Y-91949293D01*
X130975713Y-91949292D01*
X130975711Y-91949289D01*
X130975706Y-91949285D01*
X130869476Y-91870884D01*
X130744852Y-91827276D01*
X130744851Y-91827275D01*
X130744849Y-91827275D01*
X130744847Y-91827274D01*
X130744844Y-91827274D01*
X130715266Y-91824500D01*
X130715256Y-91824500D01*
X130109744Y-91824500D01*
X130109733Y-91824500D01*
X130080155Y-91827274D01*
X130080147Y-91827276D01*
X129955523Y-91870884D01*
X129849293Y-91949285D01*
X129849285Y-91949293D01*
X129770884Y-92055523D01*
X129727276Y-92180147D01*
X129727274Y-92180155D01*
X129724500Y-92209733D01*
X129724500Y-92790266D01*
X129727274Y-92819844D01*
X129727276Y-92819852D01*
X129770884Y-92944476D01*
X129849021Y-93050348D01*
X129849289Y-93050711D01*
X129849292Y-93050713D01*
X129849293Y-93050714D01*
X129955523Y-93129115D01*
X129955524Y-93129115D01*
X129955525Y-93129116D01*
X130080151Y-93172725D01*
X130104412Y-93175000D01*
X130109733Y-93175499D01*
X130109738Y-93175500D01*
X130109744Y-93175500D01*
X130715262Y-93175500D01*
X130715265Y-93175499D01*
X130744849Y-93172725D01*
X130869475Y-93129116D01*
X130975711Y-93050711D01*
X131054116Y-92944475D01*
X131097725Y-92819849D01*
X131097819Y-92818850D01*
X131098069Y-92818269D01*
X131099010Y-92813965D01*
X131099849Y-92814148D01*
X131122081Y-92762680D01*
X131174725Y-92731499D01*
X131196386Y-92729100D01*
X131803614Y-92729100D01*
X131861805Y-92748007D01*
X131897769Y-92797507D01*
X131902181Y-92818850D01*
X131902274Y-92819845D01*
X131902276Y-92819852D01*
X131945884Y-92944476D01*
X132024021Y-93050348D01*
X132024289Y-93050711D01*
X132024292Y-93050713D01*
X132024293Y-93050714D01*
X132130523Y-93129115D01*
X132130524Y-93129115D01*
X132130525Y-93129116D01*
X132255151Y-93172725D01*
X132279412Y-93175000D01*
X132284733Y-93175499D01*
X132284738Y-93175500D01*
X132284744Y-93175500D01*
X132890262Y-93175500D01*
X132890265Y-93175499D01*
X132919849Y-93172725D01*
X133044475Y-93129116D01*
X133150711Y-93050711D01*
X133229116Y-92944475D01*
X133272725Y-92819849D01*
X133275500Y-92790256D01*
X133275500Y-92600001D01*
X133725000Y-92600001D01*
X133725000Y-92790201D01*
X133727771Y-92819758D01*
X133727772Y-92819759D01*
X133771330Y-92944240D01*
X133849641Y-93050348D01*
X133849651Y-93050358D01*
X133955759Y-93128669D01*
X134080240Y-93172227D01*
X134080241Y-93172228D01*
X134109799Y-93175000D01*
X134312499Y-93175000D01*
X134312500Y-93174999D01*
X134312500Y-92600001D01*
X134512500Y-92600001D01*
X134512500Y-93174999D01*
X134512501Y-93175000D01*
X134715201Y-93175000D01*
X134744758Y-93172228D01*
X134744759Y-93172227D01*
X134869240Y-93128669D01*
X134975348Y-93050358D01*
X134975358Y-93050348D01*
X135053669Y-92944240D01*
X135097227Y-92819759D01*
X135097228Y-92819758D01*
X135100000Y-92790201D01*
X135100000Y-92600001D01*
X135099999Y-92600000D01*
X134512501Y-92600000D01*
X134512500Y-92600001D01*
X134312500Y-92600001D01*
X134312499Y-92600000D01*
X133725001Y-92600000D01*
X133725000Y-92600001D01*
X133275500Y-92600001D01*
X133275500Y-92209744D01*
X133275500Y-92209738D01*
X133275499Y-92209736D01*
X133273523Y-92188658D01*
X133276279Y-92176367D01*
X133274309Y-92163926D01*
X133282812Y-92147236D01*
X133286913Y-92128955D01*
X133302087Y-92109409D01*
X133403401Y-92008096D01*
X133457917Y-91980319D01*
X133473404Y-91979100D01*
X133658627Y-91979100D01*
X133716818Y-91998007D01*
X133752782Y-92047507D01*
X133752782Y-92108693D01*
X133752072Y-92110797D01*
X133727771Y-92180243D01*
X133725000Y-92209798D01*
X133725000Y-92399999D01*
X133725001Y-92400000D01*
X135099999Y-92400000D01*
X135100000Y-92399999D01*
X135100000Y-92209798D01*
X135097228Y-92180243D01*
X135072928Y-92110797D01*
X135072315Y-92083499D01*
X135069799Y-92056318D01*
X135071636Y-92053224D01*
X135071556Y-92049627D01*
X135087102Y-92027186D01*
X135101046Y-92003713D01*
X135104184Y-92002530D01*
X135106400Y-91999333D01*
X135157246Y-91979522D01*
X135161804Y-91979100D01*
X135204430Y-91979100D01*
X135295570Y-91979100D01*
X135295571Y-91979100D01*
X135320233Y-91968884D01*
X135379775Y-91944222D01*
X135601896Y-91722101D01*
X135656413Y-91694323D01*
X135716845Y-91703894D01*
X135760110Y-91747159D01*
X135770900Y-91792104D01*
X135770900Y-93364094D01*
X135751993Y-93422285D01*
X135741904Y-93434098D01*
X135197626Y-93978375D01*
X135143109Y-94006152D01*
X135102001Y-94003998D01*
X135066552Y-93994500D01*
X135066550Y-93994500D01*
X134933450Y-93994500D01*
X134854764Y-94015583D01*
X134804879Y-94028950D01*
X134689618Y-94095497D01*
X134595497Y-94189618D01*
X134528950Y-94304879D01*
X134518793Y-94342788D01*
X134494500Y-94433450D01*
X134494500Y-94566550D01*
X134524880Y-94679930D01*
X134528950Y-94695120D01*
X134589274Y-94799602D01*
X134595499Y-94810384D01*
X134689616Y-94904501D01*
X134689618Y-94904502D01*
X134804880Y-94971049D01*
X134804878Y-94971049D01*
X134804882Y-94971050D01*
X134804884Y-94971051D01*
X134933450Y-95005500D01*
X134933452Y-95005500D01*
X135066548Y-95005500D01*
X135066550Y-95005500D01*
X135195116Y-94971051D01*
X135195118Y-94971049D01*
X135195120Y-94971049D01*
X135229362Y-94951278D01*
X135310384Y-94904501D01*
X135404501Y-94810384D01*
X135471051Y-94695116D01*
X135505500Y-94566550D01*
X135505500Y-94433450D01*
X135496001Y-94398000D01*
X135499202Y-94336899D01*
X135521621Y-94302374D01*
X136101898Y-93722097D01*
X136156413Y-93694322D01*
X136216845Y-93703893D01*
X136260110Y-93747158D01*
X136270900Y-93792103D01*
X136270900Y-93991411D01*
X136251993Y-94049602D01*
X136221401Y-94077147D01*
X136189618Y-94095497D01*
X136095497Y-94189618D01*
X136028950Y-94304879D01*
X136018793Y-94342788D01*
X135994500Y-94433450D01*
X135994500Y-94566550D01*
X136024880Y-94679930D01*
X136028950Y-94695120D01*
X136089274Y-94799602D01*
X136095499Y-94810384D01*
X136189616Y-94904501D01*
X136189618Y-94904502D01*
X136304880Y-94971049D01*
X136304878Y-94971049D01*
X136304882Y-94971050D01*
X136304884Y-94971051D01*
X136433450Y-95005500D01*
X136433452Y-95005500D01*
X136566548Y-95005500D01*
X136566550Y-95005500D01*
X136695116Y-94971051D01*
X136695118Y-94971049D01*
X136695120Y-94971049D01*
X136729362Y-94951278D01*
X136810384Y-94904501D01*
X136904501Y-94810384D01*
X136971051Y-94695116D01*
X137005500Y-94566550D01*
X137005500Y-94433450D01*
X137494500Y-94433450D01*
X137494500Y-94566550D01*
X137524880Y-94679930D01*
X137528950Y-94695120D01*
X137589274Y-94799602D01*
X137595499Y-94810384D01*
X137689616Y-94904501D01*
X137689618Y-94904502D01*
X137804880Y-94971049D01*
X137804878Y-94971049D01*
X137804882Y-94971050D01*
X137804884Y-94971051D01*
X137933450Y-95005500D01*
X137933452Y-95005500D01*
X138066548Y-95005500D01*
X138066550Y-95005500D01*
X138195116Y-94971051D01*
X138195118Y-94971049D01*
X138195120Y-94971049D01*
X138229362Y-94951278D01*
X138310384Y-94904501D01*
X138404501Y-94810384D01*
X138471051Y-94695116D01*
X138505500Y-94566550D01*
X138505500Y-94433450D01*
X138471051Y-94304884D01*
X138471049Y-94304881D01*
X138471049Y-94304879D01*
X138404502Y-94189618D01*
X138404501Y-94189616D01*
X138310384Y-94095499D01*
X138310381Y-94095497D01*
X138278599Y-94077147D01*
X138237658Y-94031676D01*
X138229100Y-93991411D01*
X138229100Y-93385904D01*
X138248007Y-93327713D01*
X138258096Y-93315900D01*
X138540900Y-93033096D01*
X138548017Y-93029469D01*
X138552713Y-93023007D01*
X138574761Y-93015843D01*
X138595417Y-93005319D01*
X138610904Y-93004100D01*
X138661452Y-93004100D01*
X138719643Y-93023007D01*
X138755607Y-93072507D01*
X138755607Y-93133693D01*
X138750770Y-93143520D01*
X138751500Y-93143843D01*
X138747794Y-93152234D01*
X138747794Y-93152235D01*
X138737522Y-93175499D01*
X138702414Y-93255011D01*
X138699500Y-93280130D01*
X138699500Y-93569859D01*
X138699501Y-93569864D01*
X138702414Y-93594990D01*
X138727756Y-93652385D01*
X138747794Y-93697765D01*
X138827235Y-93777206D01*
X138930009Y-93822585D01*
X138955135Y-93825500D01*
X139171900Y-93825499D01*
X139186811Y-93830344D01*
X139202493Y-93830344D01*
X139215179Y-93839561D01*
X139230090Y-93844406D01*
X139239305Y-93857089D01*
X139251993Y-93866308D01*
X139256838Y-93881222D01*
X139266054Y-93893906D01*
X139270900Y-93924499D01*
X139270900Y-93991411D01*
X139251993Y-94049602D01*
X139221401Y-94077147D01*
X139189618Y-94095497D01*
X139095497Y-94189618D01*
X139028950Y-94304879D01*
X139018793Y-94342788D01*
X138994500Y-94433450D01*
X138994500Y-94566550D01*
X139024880Y-94679930D01*
X139028950Y-94695120D01*
X139089274Y-94799602D01*
X139095499Y-94810384D01*
X139189616Y-94904501D01*
X139189618Y-94904502D01*
X139304880Y-94971049D01*
X139304878Y-94971049D01*
X139304882Y-94971050D01*
X139304884Y-94971051D01*
X139433450Y-95005500D01*
X139433452Y-95005500D01*
X139566548Y-95005500D01*
X139566550Y-95005500D01*
X139695116Y-94971051D01*
X139695118Y-94971049D01*
X139695120Y-94971049D01*
X139729362Y-94951278D01*
X139810384Y-94904501D01*
X139904501Y-94810384D01*
X139971051Y-94695116D01*
X140005500Y-94566550D01*
X140005500Y-94433450D01*
X139971051Y-94304884D01*
X139971049Y-94304881D01*
X139971049Y-94304879D01*
X139904502Y-94189618D01*
X139904501Y-94189616D01*
X139810384Y-94095499D01*
X139810381Y-94095497D01*
X139778599Y-94077147D01*
X139764752Y-94061768D01*
X139748007Y-94049602D01*
X139744737Y-94039538D01*
X139737658Y-94031676D01*
X139729100Y-93991411D01*
X139729100Y-93924499D01*
X139748007Y-93866308D01*
X139797507Y-93830344D01*
X139828100Y-93825499D01*
X140319861Y-93825499D01*
X140319864Y-93825499D01*
X140344991Y-93822585D01*
X140447765Y-93777206D01*
X140527206Y-93697765D01*
X140572585Y-93594991D01*
X140575500Y-93569865D01*
X140575499Y-93280136D01*
X140572585Y-93255009D01*
X140527206Y-93152235D01*
X140527205Y-93152234D01*
X140523500Y-93143843D01*
X140525875Y-93142794D01*
X140512462Y-93097261D01*
X140525526Y-93057051D01*
X140523500Y-93056157D01*
X140527204Y-93047766D01*
X140527206Y-93047765D01*
X140572585Y-92944991D01*
X140575500Y-92919865D01*
X140575499Y-92630136D01*
X140575498Y-92630130D01*
X144424500Y-92630130D01*
X144424500Y-92919859D01*
X144424501Y-92919864D01*
X144427414Y-92944990D01*
X144451437Y-92999397D01*
X144470557Y-93042699D01*
X144476500Y-93056157D01*
X144474126Y-93057205D01*
X144487537Y-93102757D01*
X144474477Y-93142949D01*
X144476500Y-93143843D01*
X144472794Y-93152234D01*
X144472794Y-93152235D01*
X144462522Y-93175499D01*
X144427414Y-93255011D01*
X144424500Y-93280130D01*
X144424500Y-93569859D01*
X144424501Y-93569864D01*
X144427414Y-93594990D01*
X144452756Y-93652385D01*
X144472794Y-93697765D01*
X144552235Y-93777206D01*
X144655009Y-93822585D01*
X144680135Y-93825500D01*
X145171900Y-93825499D01*
X145186812Y-93830344D01*
X145202493Y-93830344D01*
X145215178Y-93839560D01*
X145230091Y-93844406D01*
X145239307Y-93857091D01*
X145251993Y-93866308D01*
X145256838Y-93881220D01*
X145266055Y-93893906D01*
X145270900Y-93924499D01*
X145270900Y-93991411D01*
X145251993Y-94049602D01*
X145221401Y-94077147D01*
X145189618Y-94095497D01*
X145095497Y-94189618D01*
X145028950Y-94304879D01*
X145018793Y-94342788D01*
X144994500Y-94433450D01*
X144994500Y-94566550D01*
X145024880Y-94679930D01*
X145028950Y-94695120D01*
X145089274Y-94799602D01*
X145095499Y-94810384D01*
X145189616Y-94904501D01*
X145189618Y-94904502D01*
X145304880Y-94971049D01*
X145304878Y-94971049D01*
X145304882Y-94971050D01*
X145304884Y-94971051D01*
X145433450Y-95005500D01*
X145433452Y-95005500D01*
X145566548Y-95005500D01*
X145566550Y-95005500D01*
X145695116Y-94971051D01*
X145695118Y-94971049D01*
X145695120Y-94971049D01*
X145729362Y-94951278D01*
X145810384Y-94904501D01*
X145904501Y-94810384D01*
X145971051Y-94695116D01*
X146005500Y-94566550D01*
X146005500Y-94433450D01*
X145971051Y-94304884D01*
X145971049Y-94304881D01*
X145971049Y-94304879D01*
X145904502Y-94189618D01*
X145904501Y-94189616D01*
X145810384Y-94095499D01*
X145810381Y-94095497D01*
X145778599Y-94077147D01*
X145764752Y-94061768D01*
X145748007Y-94049602D01*
X145744737Y-94039538D01*
X145737658Y-94031676D01*
X145729100Y-93991411D01*
X145729100Y-93924499D01*
X145748007Y-93866308D01*
X145797507Y-93830344D01*
X145828100Y-93825499D01*
X146044861Y-93825499D01*
X146044864Y-93825499D01*
X146069991Y-93822585D01*
X146172765Y-93777206D01*
X146252206Y-93697765D01*
X146297585Y-93594991D01*
X146300500Y-93569865D01*
X146300499Y-93280136D01*
X146297585Y-93255009D01*
X146252206Y-93152235D01*
X146252205Y-93152234D01*
X146248500Y-93143843D01*
X146250973Y-93142750D01*
X146244393Y-93133693D01*
X146244393Y-93116669D01*
X146239586Y-93100339D01*
X146244393Y-93086838D01*
X146244393Y-93072507D01*
X146254399Y-93058734D01*
X146260109Y-93042699D01*
X146271932Y-93034602D01*
X146280357Y-93023007D01*
X146296548Y-93017746D01*
X146310593Y-93008129D01*
X146338548Y-93004100D01*
X146389096Y-93004100D01*
X146447287Y-93023007D01*
X146459099Y-93033096D01*
X146741903Y-93315899D01*
X146769681Y-93370416D01*
X146770900Y-93385903D01*
X146770900Y-93991411D01*
X146751993Y-94049602D01*
X146721401Y-94077147D01*
X146689618Y-94095497D01*
X146595497Y-94189618D01*
X146528950Y-94304879D01*
X146518793Y-94342788D01*
X146494500Y-94433450D01*
X146494500Y-94566550D01*
X146524880Y-94679930D01*
X146528950Y-94695120D01*
X146589274Y-94799602D01*
X146595499Y-94810384D01*
X146689616Y-94904501D01*
X146689618Y-94904502D01*
X146804880Y-94971049D01*
X146804878Y-94971049D01*
X146804882Y-94971050D01*
X146804884Y-94971051D01*
X146933450Y-95005500D01*
X146933452Y-95005500D01*
X147066548Y-95005500D01*
X147066550Y-95005500D01*
X147195116Y-94971051D01*
X147195118Y-94971049D01*
X147195120Y-94971049D01*
X147229362Y-94951278D01*
X147310384Y-94904501D01*
X147404501Y-94810384D01*
X147471051Y-94695116D01*
X147505500Y-94566550D01*
X147505500Y-94433450D01*
X147471051Y-94304884D01*
X147471049Y-94304881D01*
X147471049Y-94304879D01*
X147404502Y-94189618D01*
X147404501Y-94189616D01*
X147310384Y-94095499D01*
X147310381Y-94095497D01*
X147278599Y-94077147D01*
X147237658Y-94031676D01*
X147229100Y-93991411D01*
X147229100Y-93204429D01*
X147217117Y-93175500D01*
X147194221Y-93120225D01*
X147171257Y-93097261D01*
X147129780Y-93055783D01*
X147129774Y-93055778D01*
X146654774Y-92580777D01*
X146595233Y-92556115D01*
X146570571Y-92545900D01*
X146337932Y-92545900D01*
X146279741Y-92526993D01*
X146243777Y-92477493D01*
X146243777Y-92416307D01*
X146248766Y-92406172D01*
X146248081Y-92405870D01*
X146297090Y-92294872D01*
X146299999Y-92269797D01*
X146300000Y-92269795D01*
X146300000Y-92225001D01*
X146299999Y-92225000D01*
X144425002Y-92225000D01*
X144425001Y-92225001D01*
X144425001Y-92269791D01*
X144427909Y-92294874D01*
X144476919Y-92405870D01*
X144474488Y-92406943D01*
X144487845Y-92452295D01*
X144474618Y-92493012D01*
X144476500Y-92493843D01*
X144472794Y-92502234D01*
X144472794Y-92502235D01*
X144455297Y-92541862D01*
X144427414Y-92605011D01*
X144424500Y-92630130D01*
X140575498Y-92630130D01*
X140572585Y-92605009D01*
X140527206Y-92502235D01*
X140527205Y-92502234D01*
X140523500Y-92493843D01*
X140525719Y-92492863D01*
X140512154Y-92446806D01*
X140525160Y-92406788D01*
X140523081Y-92405870D01*
X140572090Y-92294872D01*
X140574999Y-92269797D01*
X140575000Y-92269795D01*
X140575000Y-92225001D01*
X140574999Y-92225000D01*
X138700002Y-92225000D01*
X138700001Y-92225001D01*
X138700001Y-92269791D01*
X138702909Y-92294874D01*
X138751919Y-92405870D01*
X138748570Y-92407348D01*
X138761030Y-92449630D01*
X138740525Y-92507277D01*
X138690053Y-92541862D01*
X138662068Y-92545900D01*
X138429429Y-92545900D01*
X138404768Y-92556115D01*
X138345226Y-92580778D01*
X138345225Y-92580779D01*
X137805778Y-93120225D01*
X137784090Y-93172585D01*
X137782883Y-93175500D01*
X137770900Y-93204429D01*
X137770900Y-93991411D01*
X137751993Y-94049602D01*
X137721401Y-94077147D01*
X137689618Y-94095497D01*
X137595497Y-94189618D01*
X137528950Y-94304879D01*
X137518793Y-94342788D01*
X137494500Y-94433450D01*
X137005500Y-94433450D01*
X136971051Y-94304884D01*
X136971049Y-94304881D01*
X136971049Y-94304879D01*
X136904502Y-94189618D01*
X136904501Y-94189616D01*
X136810384Y-94095499D01*
X136810381Y-94095497D01*
X136778599Y-94077147D01*
X136737658Y-94031676D01*
X136729100Y-93991411D01*
X136729100Y-92135905D01*
X136748007Y-92077714D01*
X136758096Y-92065901D01*
X137090901Y-91733096D01*
X137145418Y-91705319D01*
X137160905Y-91704100D01*
X138662068Y-91704100D01*
X138720259Y-91723007D01*
X138756223Y-91772507D01*
X138756223Y-91833693D01*
X138751233Y-91843827D01*
X138751919Y-91844130D01*
X138702909Y-91955127D01*
X138700000Y-91980202D01*
X138700000Y-92024999D01*
X138700001Y-92025000D01*
X140574998Y-92025000D01*
X140574999Y-92024999D01*
X140574999Y-91980210D01*
X140574998Y-91980208D01*
X140572090Y-91955125D01*
X140523081Y-91844130D01*
X140525512Y-91843056D01*
X140512154Y-91797709D01*
X140525385Y-91756989D01*
X140523500Y-91756157D01*
X140527204Y-91747766D01*
X140527206Y-91747765D01*
X140572585Y-91644991D01*
X140575500Y-91619865D01*
X140575499Y-91330136D01*
X140572585Y-91305009D01*
X140527206Y-91202235D01*
X140527205Y-91202234D01*
X140523500Y-91193843D01*
X140525875Y-91192794D01*
X140512462Y-91147261D01*
X140525526Y-91107051D01*
X140523500Y-91106157D01*
X140527204Y-91097766D01*
X140527206Y-91097765D01*
X140572585Y-90994991D01*
X140575500Y-90969865D01*
X140575499Y-90680136D01*
X140572585Y-90655009D01*
X140527206Y-90552235D01*
X140527205Y-90552234D01*
X140523500Y-90543843D01*
X140525875Y-90542794D01*
X140512462Y-90497261D01*
X140525526Y-90457051D01*
X140523500Y-90456157D01*
X140527204Y-90447766D01*
X140527206Y-90447765D01*
X140572585Y-90344991D01*
X140575500Y-90319865D01*
X140575499Y-90030136D01*
X140572585Y-90005009D01*
X140527206Y-89902235D01*
X140527205Y-89902234D01*
X140523500Y-89893843D01*
X140525875Y-89892794D01*
X140512462Y-89847261D01*
X140525526Y-89807051D01*
X140523500Y-89806157D01*
X140527204Y-89797766D01*
X140527206Y-89797765D01*
X140572585Y-89694991D01*
X140575500Y-89669865D01*
X140575499Y-89380136D01*
X140572585Y-89355009D01*
X140527206Y-89252235D01*
X140527205Y-89252234D01*
X140523500Y-89243843D01*
X140525875Y-89242794D01*
X140512462Y-89197261D01*
X140525526Y-89157051D01*
X140523500Y-89156157D01*
X140527204Y-89147766D01*
X140527206Y-89147765D01*
X140572585Y-89044991D01*
X140575500Y-89019865D01*
X140575499Y-88730136D01*
X140572585Y-88705009D01*
X140527206Y-88602235D01*
X140527205Y-88602234D01*
X140523500Y-88593843D01*
X140525875Y-88592794D01*
X140512462Y-88547261D01*
X140525526Y-88507051D01*
X140523500Y-88506157D01*
X140527204Y-88497766D01*
X140527206Y-88497765D01*
X140572585Y-88394991D01*
X140575500Y-88369865D01*
X140575499Y-88080136D01*
X140572585Y-88055009D01*
X140527206Y-87952235D01*
X140527205Y-87952234D01*
X140523500Y-87943843D01*
X140525875Y-87942794D01*
X140512462Y-87897261D01*
X140525526Y-87857051D01*
X140523500Y-87856157D01*
X140527204Y-87847766D01*
X140527206Y-87847765D01*
X140572585Y-87744991D01*
X140575500Y-87719865D01*
X140575499Y-87430136D01*
X140572585Y-87405009D01*
X140527206Y-87302235D01*
X140447765Y-87222794D01*
X140344991Y-87177415D01*
X140344990Y-87177414D01*
X140344988Y-87177414D01*
X140319869Y-87174500D01*
X140319865Y-87174500D01*
X139965600Y-87174500D01*
X139950688Y-87169655D01*
X139935007Y-87169655D01*
X139922321Y-87160438D01*
X139907409Y-87155593D01*
X139898192Y-87142907D01*
X139885507Y-87133691D01*
X139880661Y-87118778D01*
X139871445Y-87106093D01*
X139866600Y-87075500D01*
X139866600Y-86910904D01*
X139885507Y-86852713D01*
X139895596Y-86840901D01*
X140032266Y-86704230D01*
X140086783Y-86676452D01*
X140107407Y-86675809D01*
X140107427Y-86675392D01*
X140109738Y-86675500D01*
X140109744Y-86675500D01*
X140715262Y-86675500D01*
X140715265Y-86675499D01*
X140744849Y-86672725D01*
X140869475Y-86629116D01*
X140975711Y-86550711D01*
X141054116Y-86444475D01*
X141097725Y-86319849D01*
X141100499Y-86290265D01*
X141100500Y-86290261D01*
X141100500Y-85737501D01*
X147325000Y-85737501D01*
X147325000Y-85990201D01*
X147327771Y-86019758D01*
X147327772Y-86019759D01*
X147371330Y-86144240D01*
X147449641Y-86250348D01*
X147449651Y-86250358D01*
X147555759Y-86328669D01*
X147680240Y-86372227D01*
X147680241Y-86372228D01*
X147709799Y-86375000D01*
X147899999Y-86375000D01*
X147900000Y-86374999D01*
X147900000Y-85737501D01*
X148100000Y-85737501D01*
X148100000Y-86374999D01*
X148100001Y-86375000D01*
X148290201Y-86375000D01*
X148319758Y-86372228D01*
X148319759Y-86372227D01*
X148444240Y-86328669D01*
X148550348Y-86250358D01*
X148550358Y-86250348D01*
X148628669Y-86144240D01*
X148672227Y-86019759D01*
X148672228Y-86019758D01*
X148675000Y-85990201D01*
X148675000Y-85737501D01*
X149325000Y-85737501D01*
X149325000Y-85990201D01*
X149327771Y-86019758D01*
X149327772Y-86019759D01*
X149371330Y-86144240D01*
X149449641Y-86250348D01*
X149449651Y-86250358D01*
X149555759Y-86328669D01*
X149680240Y-86372227D01*
X149680241Y-86372228D01*
X149709799Y-86375000D01*
X149899999Y-86375000D01*
X149900000Y-86374999D01*
X149900000Y-85737501D01*
X150100000Y-85737501D01*
X150100000Y-86374999D01*
X150100001Y-86375000D01*
X150290201Y-86375000D01*
X150319758Y-86372228D01*
X150319759Y-86372227D01*
X150444240Y-86328669D01*
X150550348Y-86250358D01*
X150550358Y-86250348D01*
X150628669Y-86144240D01*
X150672227Y-86019759D01*
X150672228Y-86019758D01*
X150675000Y-85990201D01*
X150675000Y-85737501D01*
X150674999Y-85737500D01*
X150100001Y-85737500D01*
X150100000Y-85737501D01*
X149900000Y-85737501D01*
X149899999Y-85737500D01*
X149325001Y-85737500D01*
X149325000Y-85737501D01*
X148675000Y-85737501D01*
X148674999Y-85737500D01*
X148100001Y-85737500D01*
X148100000Y-85737501D01*
X147900000Y-85737501D01*
X147899999Y-85737500D01*
X147325001Y-85737500D01*
X147325000Y-85737501D01*
X141100500Y-85737501D01*
X141100500Y-85709745D01*
X141100124Y-85705736D01*
X141100124Y-85705733D01*
X141099541Y-85699525D01*
X141097725Y-85680151D01*
X141054116Y-85555525D01*
X141040812Y-85537499D01*
X140975714Y-85449293D01*
X140975713Y-85449292D01*
X140975711Y-85449289D01*
X140975706Y-85449285D01*
X140869476Y-85370884D01*
X140744852Y-85327276D01*
X140744851Y-85327275D01*
X140744849Y-85327275D01*
X140744847Y-85327274D01*
X140744844Y-85327274D01*
X140715266Y-85324500D01*
X140715256Y-85324500D01*
X140109744Y-85324500D01*
X140109733Y-85324500D01*
X140080155Y-85327274D01*
X140080147Y-85327276D01*
X139955523Y-85370884D01*
X139849293Y-85449285D01*
X139849285Y-85449293D01*
X139770884Y-85555523D01*
X139727276Y-85680147D01*
X139727274Y-85680155D01*
X139724500Y-85709733D01*
X139724500Y-86290256D01*
X139726477Y-86311344D01*
X139713084Y-86371045D01*
X139697913Y-86390588D01*
X139443278Y-86645224D01*
X139443278Y-86645225D01*
X139430738Y-86675500D01*
X139429536Y-86678402D01*
X139408400Y-86729428D01*
X139408400Y-87075500D01*
X139389493Y-87133691D01*
X139339993Y-87169655D01*
X139309400Y-87174500D01*
X138955139Y-87174500D01*
X138955136Y-87174501D01*
X138930009Y-87177414D01*
X138827235Y-87222794D01*
X138747794Y-87302235D01*
X138702414Y-87405011D01*
X138699500Y-87430130D01*
X138699500Y-87719859D01*
X138699501Y-87719864D01*
X138702414Y-87744990D01*
X138713855Y-87770900D01*
X138739729Y-87829500D01*
X138751500Y-87856157D01*
X138748055Y-87857677D01*
X138760414Y-87899661D01*
X138739891Y-87957301D01*
X138689407Y-87991871D01*
X138661452Y-87995900D01*
X136610905Y-87995900D01*
X136552714Y-87976993D01*
X136540901Y-87966904D01*
X135853688Y-87279691D01*
X135129775Y-86555778D01*
X135117549Y-86550714D01*
X135115686Y-86549942D01*
X135069161Y-86510204D01*
X135054878Y-86450709D01*
X135060129Y-86425780D01*
X135097227Y-86319758D01*
X135097228Y-86319758D01*
X135100000Y-86290201D01*
X135100000Y-86100001D01*
X137900000Y-86100001D01*
X137900000Y-86290201D01*
X137902771Y-86319758D01*
X137902772Y-86319759D01*
X137946330Y-86444240D01*
X138024641Y-86550348D01*
X138024651Y-86550358D01*
X138130759Y-86628669D01*
X138255240Y-86672227D01*
X138255241Y-86672228D01*
X138284799Y-86675000D01*
X138487499Y-86675000D01*
X138487500Y-86674999D01*
X138487500Y-86100001D01*
X138687500Y-86100001D01*
X138687500Y-86674999D01*
X138687501Y-86675000D01*
X138890201Y-86675000D01*
X138919758Y-86672228D01*
X138919759Y-86672227D01*
X139044240Y-86628669D01*
X139150348Y-86550358D01*
X139150358Y-86550348D01*
X139228669Y-86444240D01*
X139272227Y-86319759D01*
X139272228Y-86319758D01*
X139275000Y-86290201D01*
X139275000Y-86100001D01*
X139274999Y-86100000D01*
X138687501Y-86100000D01*
X138687500Y-86100001D01*
X138487500Y-86100001D01*
X138487499Y-86100000D01*
X137900001Y-86100000D01*
X137900000Y-86100001D01*
X135100000Y-86100001D01*
X135099999Y-86100000D01*
X133725001Y-86100000D01*
X133725000Y-86100001D01*
X133725000Y-86290201D01*
X133727771Y-86319756D01*
X133752072Y-86389203D01*
X133752098Y-86390365D01*
X133752782Y-86391307D01*
X133752782Y-86420858D01*
X133753444Y-86450373D01*
X133752782Y-86451328D01*
X133752782Y-86452493D01*
X133735409Y-86476404D01*
X133718600Y-86500667D01*
X133717502Y-86501051D01*
X133716818Y-86501993D01*
X133688716Y-86511123D01*
X133660848Y-86520875D01*
X133658627Y-86520900D01*
X133473405Y-86520900D01*
X133415214Y-86501993D01*
X133403401Y-86491904D01*
X133302086Y-86390589D01*
X133274309Y-86336072D01*
X133273523Y-86311340D01*
X133275499Y-86290263D01*
X133275500Y-86290261D01*
X133275500Y-85709798D01*
X133725000Y-85709798D01*
X133725000Y-85899999D01*
X133725001Y-85900000D01*
X134312499Y-85900000D01*
X134312500Y-85899999D01*
X134312500Y-85325001D01*
X134512500Y-85325001D01*
X134512500Y-85899999D01*
X134512501Y-85900000D01*
X135099999Y-85900000D01*
X135100000Y-85899999D01*
X135100000Y-85709798D01*
X137900000Y-85709798D01*
X137900000Y-85899999D01*
X137900001Y-85900000D01*
X138487499Y-85900000D01*
X138487500Y-85899999D01*
X138487500Y-85325001D01*
X138687500Y-85325001D01*
X138687500Y-85899999D01*
X138687501Y-85900000D01*
X139274999Y-85900000D01*
X139275000Y-85899999D01*
X139275000Y-85709798D01*
X139272228Y-85680241D01*
X139272227Y-85680240D01*
X139228669Y-85555759D01*
X139150358Y-85449651D01*
X139150348Y-85449641D01*
X139044240Y-85371330D01*
X138919759Y-85327772D01*
X138919758Y-85327771D01*
X138890201Y-85325000D01*
X138687501Y-85325000D01*
X138687500Y-85325001D01*
X138487500Y-85325001D01*
X138487499Y-85325000D01*
X138284799Y-85325000D01*
X138255241Y-85327771D01*
X138255240Y-85327772D01*
X138130759Y-85371330D01*
X138024651Y-85449641D01*
X138024641Y-85449651D01*
X137946330Y-85555759D01*
X137902772Y-85680240D01*
X137902771Y-85680241D01*
X137900000Y-85709798D01*
X135100000Y-85709798D01*
X135097228Y-85680241D01*
X135097227Y-85680240D01*
X135053669Y-85555759D01*
X134975358Y-85449651D01*
X134975348Y-85449641D01*
X134869240Y-85371330D01*
X134744759Y-85327772D01*
X134744758Y-85327771D01*
X134715201Y-85325000D01*
X134512501Y-85325000D01*
X134512500Y-85325001D01*
X134312500Y-85325001D01*
X134312499Y-85325000D01*
X134109799Y-85325000D01*
X134080241Y-85327771D01*
X134080240Y-85327772D01*
X133955759Y-85371330D01*
X133849651Y-85449641D01*
X133849641Y-85449651D01*
X133771330Y-85555759D01*
X133727772Y-85680240D01*
X133727771Y-85680241D01*
X133725000Y-85709798D01*
X133275500Y-85709798D01*
X133275500Y-85709738D01*
X133275499Y-85709733D01*
X133274820Y-85702493D01*
X133272725Y-85680151D01*
X133229116Y-85555525D01*
X133215812Y-85537499D01*
X133150714Y-85449293D01*
X133150713Y-85449292D01*
X133150711Y-85449289D01*
X133150706Y-85449285D01*
X133044476Y-85370884D01*
X132919852Y-85327276D01*
X132919851Y-85327275D01*
X132919849Y-85327275D01*
X132919847Y-85327274D01*
X132919844Y-85327274D01*
X132890266Y-85324500D01*
X132890256Y-85324500D01*
X132284744Y-85324500D01*
X132284733Y-85324500D01*
X132255155Y-85327274D01*
X132255147Y-85327276D01*
X132130523Y-85370884D01*
X132024293Y-85449285D01*
X132024285Y-85449293D01*
X131945884Y-85555523D01*
X131902276Y-85680147D01*
X131902274Y-85680154D01*
X131902181Y-85681150D01*
X131901930Y-85681730D01*
X131900990Y-85686035D01*
X131900150Y-85685851D01*
X131877919Y-85737320D01*
X131825275Y-85768501D01*
X131803614Y-85770900D01*
X131196386Y-85770900D01*
X131138195Y-85751993D01*
X131102231Y-85702493D01*
X131097819Y-85681150D01*
X131097725Y-85680154D01*
X131097725Y-85680151D01*
X131054116Y-85555525D01*
X131040812Y-85537499D01*
X130975714Y-85449293D01*
X130975713Y-85449292D01*
X130975711Y-85449289D01*
X130975706Y-85449285D01*
X130869476Y-85370884D01*
X130744852Y-85327276D01*
X130744851Y-85327275D01*
X130744849Y-85327275D01*
X130744847Y-85327274D01*
X130744844Y-85327274D01*
X130715266Y-85324500D01*
X130715256Y-85324500D01*
X130109744Y-85324500D01*
X130109733Y-85324500D01*
X130080155Y-85327274D01*
X130080147Y-85327276D01*
X129955523Y-85370884D01*
X129849293Y-85449285D01*
X129849285Y-85449293D01*
X129770884Y-85555523D01*
X129727276Y-85680147D01*
X129727274Y-85680155D01*
X129724500Y-85709733D01*
X129275499Y-85709733D01*
X129274820Y-85702493D01*
X129272725Y-85680151D01*
X129229116Y-85555525D01*
X129215812Y-85537499D01*
X129150714Y-85449293D01*
X129150713Y-85449292D01*
X129150711Y-85449289D01*
X129150706Y-85449285D01*
X129044476Y-85370884D01*
X128919852Y-85327276D01*
X128919851Y-85327275D01*
X128919849Y-85327275D01*
X128919847Y-85327274D01*
X128919844Y-85327274D01*
X128890266Y-85324500D01*
X128890256Y-85324500D01*
X128284744Y-85324500D01*
X128284733Y-85324500D01*
X128255155Y-85327274D01*
X128255147Y-85327276D01*
X128130523Y-85370884D01*
X128024293Y-85449285D01*
X128024285Y-85449293D01*
X127945884Y-85555523D01*
X127902276Y-85680147D01*
X127902274Y-85680155D01*
X127899500Y-85709733D01*
X120250000Y-85709733D01*
X120250000Y-84849000D01*
X120268907Y-84790809D01*
X120318407Y-84754845D01*
X120349000Y-84750000D01*
X147534168Y-84750000D01*
X147592359Y-84768907D01*
G37*
G04 #@! TD.AperFunction*
G04 #@! TD*
M02*
