G04 #@! TF.GenerationSoftware,KiCad,Pcbnew,10.0.3-10.0.3~ubuntu26.04.1*
G04 #@! TF.CreationDate,2026-07-26T19:54:42+03:00*
G04 #@! TF.ProjectId,retrolight-main,72657472-6f6c-4696-9768-742d6d61696e,B*
G04 #@! TF.SameCoordinates,Original*
G04 #@! TF.FileFunction,Copper,L1,Top*
G04 #@! TF.FilePolarity,Positive*
%FSLAX46Y46*%
G04 Gerber Fmt 4.6, Leading zero omitted, Abs format (unit mm)*
G04 Created by KiCad (PCBNEW 10.0.3-10.0.3~ubuntu26.04.1) date 2026-07-26 19:54:42*
%MOMM*%
%LPD*%
G01*
G04 APERTURE LIST*
G04 Aperture macros list*
%AMRoundRect*
0 Rectangle with rounded corners*
0 $1 Rounding radius*
0 $2 $3 $4 $5 $6 $7 $8 $9 X,Y pos of 4 corners*
0 Add a 4 corners polygon primitive as box body*
4,1,4,$2,$3,$4,$5,$6,$7,$8,$9,$2,$3,0*
0 Add four circle primitives for the rounded corners*
1,1,$1+$1,$2,$3*
1,1,$1+$1,$4,$5*
1,1,$1+$1,$6,$7*
1,1,$1+$1,$8,$9*
0 Add four rect primitives between the rounded corners*
20,1,$1+$1,$2,$3,$4,$5,0*
20,1,$1+$1,$4,$5,$6,$7,0*
20,1,$1+$1,$6,$7,$8,$9,0*
20,1,$1+$1,$8,$9,$2,$3,0*%
G04 Aperture macros list end*
G04 #@! TA.AperFunction,SMDPad,CuDef*
%ADD10RoundRect,0.237500X-0.250000X-0.237500X0.250000X-0.237500X0.250000X0.237500X-0.250000X0.237500X0*%
G04 #@! TD*
G04 #@! TA.AperFunction,SMDPad,CuDef*
%ADD11RoundRect,0.237500X0.250000X0.237500X-0.250000X0.237500X-0.250000X-0.237500X0.250000X-0.237500X0*%
G04 #@! TD*
G04 #@! TA.AperFunction,ComponentPad*
%ADD12C,7.600000*%
G04 #@! TD*
G04 #@! TA.AperFunction,SMDPad,CuDef*
%ADD13RoundRect,0.237500X0.237500X-0.300000X0.237500X0.300000X-0.237500X0.300000X-0.237500X-0.300000X0*%
G04 #@! TD*
G04 #@! TA.AperFunction,SMDPad,CuDef*
%ADD14RoundRect,0.100000X-0.637500X-0.100000X0.637500X-0.100000X0.637500X0.100000X-0.637500X0.100000X0*%
G04 #@! TD*
G04 #@! TA.AperFunction,ComponentPad*
%ADD15RoundRect,0.250000X-0.600000X0.600000X-0.600000X-0.600000X0.600000X-0.600000X0.600000X0.600000X0*%
G04 #@! TD*
G04 #@! TA.AperFunction,ComponentPad*
%ADD16C,1.700000*%
G04 #@! TD*
G04 #@! TA.AperFunction,ViaPad*
%ADD17C,0.610000*%
G04 #@! TD*
G04 #@! TA.AperFunction,Conductor*
%ADD18C,0.254000*%
G04 #@! TD*
G04 APERTURE END LIST*
D10*
G04 #@! TO.P,R9,1*
G04 #@! TO.N,Net-(U1-A3)*
X132587500Y-92500000D03*
G04 #@! TO.P,R9,2*
G04 #@! TO.N,GND*
X134412500Y-92500000D03*
G04 #@! TD*
D11*
G04 #@! TO.P,R5,1*
G04 #@! TO.N,Net-(U1-A3)*
X130412500Y-92500000D03*
G04 #@! TO.P,R5,2*
G04 #@! TO.N,VCC*
X128587500Y-92500000D03*
G04 #@! TD*
D10*
G04 #@! TO.P,R7,1*
G04 #@! TO.N,Net-(U1-A1)*
X132587500Y-88000000D03*
G04 #@! TO.P,R7,2*
G04 #@! TO.N,GND*
X134412500Y-88000000D03*
G04 #@! TD*
D12*
G04 #@! TO.P,H2,1,1_1*
G04 #@! TO.N,GND*
X160000000Y-100000000D03*
G04 #@! TD*
D11*
G04 #@! TO.P,R10,1*
G04 #@! TO.N,Net-(U1-REXT)*
X140412500Y-86000000D03*
G04 #@! TO.P,R10,2*
G04 #@! TO.N,GND*
X138587500Y-86000000D03*
G04 #@! TD*
G04 #@! TO.P,R4,1*
G04 #@! TO.N,Net-(U1-A2)*
X130412500Y-90500000D03*
G04 #@! TO.P,R4,2*
G04 #@! TO.N,VCC*
X128587500Y-90500000D03*
G04 #@! TD*
D10*
G04 #@! TO.P,R6,1*
G04 #@! TO.N,Net-(U1-A0)*
X132587500Y-86000000D03*
G04 #@! TO.P,R6,2*
G04 #@! TO.N,GND*
X134412500Y-86000000D03*
G04 #@! TD*
D13*
G04 #@! TO.P,C2,1*
G04 #@! TO.N,VCC*
X148000000Y-87362500D03*
G04 #@! TO.P,C2,2*
G04 #@! TO.N,GND*
X148000000Y-85637500D03*
G04 #@! TD*
D14*
G04 #@! TO.P,U1,1,REXT_1*
G04 #@! TO.N,Net-(U1-REXT)*
X139637500Y-87575000D03*
G04 #@! TO.P,U1,2,A0_2*
G04 #@! TO.N,Net-(U1-A0)*
X139637500Y-88225000D03*
G04 #@! TO.P,U1,3,A1_3*
G04 #@! TO.N,Net-(U1-A1)*
X139637500Y-88875000D03*
G04 #@! TO.P,U1,4,A2_4*
G04 #@! TO.N,Net-(U1-A2)*
X139637500Y-89525000D03*
G04 #@! TO.P,U1,5,A3_5*
G04 #@! TO.N,Net-(U1-A3)*
X139637500Y-90175000D03*
G04 #@! TO.P,U1,6,~{OUT0}_6*
G04 #@! TO.N,Net-(U1-~{OUT0})*
X139637500Y-90825000D03*
G04 #@! TO.P,U1,7,~{OUT1}_7*
G04 #@! TO.N,Net-(U1-~{OUT1})*
X139637500Y-91475000D03*
G04 #@! TO.P,U1,8,GND_8*
G04 #@! TO.N,GND*
X139637500Y-92125000D03*
G04 #@! TO.P,U1,9,~{OUT2}_9*
G04 #@! TO.N,Net-(U1-~{OUT2})*
X139637500Y-92775000D03*
G04 #@! TO.P,U1,10,~{OUT3}_10*
G04 #@! TO.N,Net-(U1-~{OUT3})*
X139637500Y-93425000D03*
G04 #@! TO.P,U1,11,~{OUT4}_11*
G04 #@! TO.N,Net-(U1-~{OUT4})*
X145362500Y-93425000D03*
G04 #@! TO.P,U1,12,~{OUT5}_12*
G04 #@! TO.N,Net-(U1-~{OUT5})*
X145362500Y-92775000D03*
G04 #@! TO.P,U1,13,GND_13*
G04 #@! TO.N,GND*
X145362500Y-92125000D03*
G04 #@! TO.P,U1,14,~{OUT6}_14*
G04 #@! TO.N,Net-(U1-~{OUT6})*
X145362500Y-91475000D03*
G04 #@! TO.P,U1,15,~{OUT7}_15*
G04 #@! TO.N,Net-(U1-~{OUT7})*
X145362500Y-90825000D03*
G04 #@! TO.P,U1,16,GND_16*
G04 #@! TO.N,GND*
X145362500Y-90175000D03*
G04 #@! TO.P,U1,17,~{RESET}_17*
G04 #@! TO.N,/~{RESET}*
X145362500Y-89525000D03*
G04 #@! TO.P,U1,18,SCL_18*
G04 #@! TO.N,/SCL*
X145362500Y-88875000D03*
G04 #@! TO.P,U1,19,SDA_19*
G04 #@! TO.N,/SDA*
X145362500Y-88225000D03*
G04 #@! TO.P,U1,20,VCC_20*
G04 #@! TO.N,VCC*
X145362500Y-87575000D03*
G04 #@! TD*
D15*
G04 #@! TO.P,J1,1,Pin_1_1*
G04 #@! TO.N,VCC*
X147580000Y-98497500D03*
D16*
G04 #@! TO.P,J1,2,Pin_2_2*
G04 #@! TO.N,unconnected-(J1-Pin_2-Pad2)*
X147580000Y-101037500D03*
G04 #@! TO.P,J1,3,Pin_3_3*
G04 #@! TO.N,/SDA*
X145040000Y-98497500D03*
G04 #@! TO.P,J1,4,Pin_4_4*
G04 #@! TO.N,unconnected-(J1-Pin_4-Pad4)*
X145040000Y-101037500D03*
G04 #@! TO.P,J1,5,Pin_5_5*
G04 #@! TO.N,/SCL*
X142500000Y-98497500D03*
G04 #@! TO.P,J1,6,Pin_6_6*
G04 #@! TO.N,unconnected-(J1-Pin_6-Pad6)*
X142500000Y-101037500D03*
G04 #@! TO.P,J1,7,Pin_7_7*
G04 #@! TO.N,/~{RESET}*
X139960000Y-98497500D03*
G04 #@! TO.P,J1,8,Pin_8_8*
G04 #@! TO.N,unconnected-(J1-Pin_8-Pad8)*
X139960000Y-101037500D03*
G04 #@! TO.P,J1,9,Pin_9_9*
G04 #@! TO.N,unconnected-(J1-Pin_9-Pad9)*
X137420000Y-98497500D03*
G04 #@! TO.P,J1,10,Pin_10_10*
G04 #@! TO.N,GND*
X137420000Y-101037500D03*
G04 #@! TD*
D12*
G04 #@! TO.P,H1,1,1_1*
G04 #@! TO.N,GND*
X125000000Y-100000000D03*
G04 #@! TD*
D11*
G04 #@! TO.P,R2,1*
G04 #@! TO.N,Net-(U1-A0)*
X130412500Y-86000000D03*
G04 #@! TO.P,R2,2*
G04 #@! TO.N,VCC*
X128587500Y-86000000D03*
G04 #@! TD*
D10*
G04 #@! TO.P,R8,1*
G04 #@! TO.N,Net-(U1-A2)*
X132587500Y-90500000D03*
G04 #@! TO.P,R8,2*
G04 #@! TO.N,GND*
X134412500Y-90500000D03*
G04 #@! TD*
D11*
G04 #@! TO.P,R3,1*
G04 #@! TO.N,Net-(U1-A1)*
X130412500Y-88000000D03*
G04 #@! TO.P,R3,2*
G04 #@! TO.N,VCC*
X128587500Y-88000000D03*
G04 #@! TD*
D10*
G04 #@! TO.P,R1,1*
G04 #@! TO.N,/~{RESET}*
X150087500Y-90500000D03*
G04 #@! TO.P,R1,2*
G04 #@! TO.N,VCC*
X151912500Y-90500000D03*
G04 #@! TD*
D13*
G04 #@! TO.P,C1,1*
G04 #@! TO.N,VCC*
X150000000Y-87362500D03*
G04 #@! TO.P,C1,2*
G04 #@! TO.N,GND*
X150000000Y-85637500D03*
G04 #@! TD*
D17*
G04 #@! TO.N,GND*
X129500000Y-91500000D03*
X142500000Y-92000000D03*
X142500000Y-91000000D03*
X129500000Y-87000000D03*
X142500000Y-90000000D03*
X142500000Y-93000000D03*
G04 #@! TO.N,VCC*
X151912500Y-95250000D03*
X128587500Y-89250000D03*
G04 #@! TO.N,Net-(U1-~{OUT0})*
X135000000Y-94500000D03*
G04 #@! TO.N,Net-(U1-~{OUT1})*
X136500000Y-94500000D03*
G04 #@! TO.N,Net-(U1-~{OUT2})*
X138000000Y-94500000D03*
G04 #@! TO.N,Net-(U1-~{OUT3})*
X139500000Y-94500000D03*
G04 #@! TO.N,Net-(U1-~{OUT4})*
X145500000Y-94500000D03*
G04 #@! TO.N,Net-(U1-~{OUT5})*
X147000000Y-94500000D03*
G04 #@! TO.N,Net-(U1-~{OUT6})*
X148500000Y-94500000D03*
G04 #@! TO.N,Net-(U1-~{OUT7})*
X150000000Y-94500000D03*
G04 #@! TD*
G04 #@! TO.N,Net-(U1-A3)*
D18*
X130412500Y-92500000D02*
X132587500Y-92500000D01*
X136825000Y-90175000D02*
X139637500Y-90175000D01*
X133337500Y-91750000D02*
X135250000Y-91750000D01*
X135250000Y-91750000D02*
X136825000Y-90175000D01*
X132587500Y-92500000D02*
X133337500Y-91750000D01*
G04 #@! TO.N,VCC*
X128587500Y-88000000D02*
X128587500Y-90500000D01*
X128587500Y-90500000D02*
X128587500Y-92500000D01*
X151912500Y-95250000D02*
X151912500Y-90500000D01*
X128587500Y-86000000D02*
X128587500Y-88000000D01*
G04 #@! TO.N,Net-(U1-A1)*
X130412500Y-88000000D02*
X132587500Y-88000000D01*
X133462500Y-88875000D02*
X132587500Y-88000000D01*
X139637500Y-88875000D02*
X133462500Y-88875000D01*
G04 #@! TO.N,Net-(U1-REXT)*
X139637500Y-86775000D02*
X140412500Y-86000000D01*
X139637500Y-87575000D02*
X139637500Y-86775000D01*
G04 #@! TO.N,Net-(U1-A2)*
X132587500Y-90500000D02*
X133562500Y-89525000D01*
X133562500Y-89525000D02*
X139637500Y-89525000D01*
X130412500Y-90500000D02*
X132587500Y-90500000D01*
G04 #@! TO.N,Net-(U1-A0)*
X133337500Y-86750000D02*
X135000000Y-86750000D01*
X136475000Y-88225000D02*
X139637500Y-88225000D01*
X135000000Y-86750000D02*
X136475000Y-88225000D01*
X132587500Y-86000000D02*
X133337500Y-86750000D01*
X130412500Y-86000000D02*
X132587500Y-86000000D01*
G04 #@! TO.N,Net-(U1-~{OUT0})*
X136000000Y-93500000D02*
X136000000Y-91750000D01*
X136925000Y-90825000D02*
X139637500Y-90825000D01*
X136000000Y-91750000D02*
X136925000Y-90825000D01*
X135000000Y-94500000D02*
X136000000Y-93500000D01*
G04 #@! TO.N,Net-(U1-~{OUT1})*
X136500000Y-92000000D02*
X137025000Y-91475000D01*
X137025000Y-91475000D02*
X139637500Y-91475000D01*
X136500000Y-94500000D02*
X136500000Y-92000000D01*
G04 #@! TO.N,Net-(U1-~{OUT2})*
X138475000Y-92775000D02*
X139637500Y-92775000D01*
X138000000Y-94500000D02*
X138000000Y-93250000D01*
X138000000Y-93250000D02*
X138475000Y-92775000D01*
G04 #@! TO.N,Net-(U1-~{OUT3})*
X139500000Y-93562500D02*
X139637500Y-93425000D01*
X139500000Y-94500000D02*
X139500000Y-93562500D01*
G04 #@! TO.N,Net-(U1-~{OUT4})*
X145500000Y-94500000D02*
X145500000Y-93562500D01*
X145500000Y-93562500D02*
X145362500Y-93425000D01*
G04 #@! TO.N,Net-(U1-~{OUT5})*
X147000000Y-93250000D02*
X146525000Y-92775000D01*
X146525000Y-92775000D02*
X145362500Y-92775000D01*
X147000000Y-94500000D02*
X147000000Y-93250000D01*
G04 #@! TO.N,Net-(U1-~{OUT6})*
X148500000Y-94500000D02*
X148500000Y-92000000D01*
X148500000Y-92000000D02*
X147975000Y-91475000D01*
X147975000Y-91475000D02*
X145362500Y-91475000D01*
G04 #@! TO.N,Net-(U1-~{OUT7})*
X149000000Y-91750000D02*
X148075000Y-90825000D01*
X150000000Y-94500000D02*
X149000000Y-93500000D01*
X149000000Y-93500000D02*
X149000000Y-91750000D01*
X148075000Y-90825000D02*
X145362500Y-90825000D01*
G04 #@! TO.N,/~{RESET}*
X150087500Y-90500000D02*
X149112500Y-89525000D01*
X150087500Y-90500000D02*
X150750000Y-91162500D01*
X142960000Y-95500000D02*
X139960000Y-98500000D01*
X150750000Y-95000000D02*
X150250000Y-95500000D01*
X150750000Y-91162500D02*
X150750000Y-95000000D01*
X150250000Y-95500000D02*
X142960000Y-95500000D01*
X149112500Y-89525000D02*
X145362500Y-89525000D01*
G04 #@! TO.N,/SCL*
X152500000Y-96000000D02*
X145000000Y-96000000D01*
X153000000Y-95500000D02*
X152500000Y-96000000D01*
X153000000Y-89500000D02*
X153000000Y-95500000D01*
X152375000Y-88875000D02*
X153000000Y-89500000D01*
X145362500Y-88875000D02*
X152375000Y-88875000D01*
X145000000Y-96000000D02*
X142500000Y-98500000D01*
G04 #@! TO.N,/SDA*
X147040000Y-96500000D02*
X153000000Y-96500000D01*
X145040000Y-98500000D02*
X147040000Y-96500000D01*
X152975000Y-88225000D02*
X145362500Y-88225000D01*
X153000000Y-96500000D02*
X153500000Y-96000000D01*
X153500000Y-96000000D02*
X153500000Y-88750000D01*
X153500000Y-88750000D02*
X152975000Y-88225000D01*
G04 #@! TD*
G04 #@! TA.AperFunction,Conductor*
G04 #@! TO.N,VCC*
G36*
X147318039Y-87019685D02*
G01*
X147363794Y-87072489D01*
X147375000Y-87124000D01*
X147375000Y-87237500D01*
X148625000Y-87237500D01*
X148625000Y-87124000D01*
X148644685Y-87056961D01*
X148697489Y-87011206D01*
X148749000Y-87000000D01*
X149251000Y-87000000D01*
X149318039Y-87019685D01*
X149363794Y-87072489D01*
X149375000Y-87124000D01*
X149375000Y-87237500D01*
X150625000Y-87237500D01*
X150625000Y-87124000D01*
X150627550Y-87115314D01*
X150626262Y-87106353D01*
X150637240Y-87082312D01*
X150644685Y-87056961D01*
X150651525Y-87051033D01*
X150655287Y-87042797D01*
X150677521Y-87028507D01*
X150697489Y-87011206D01*
X150708003Y-87008918D01*
X150714065Y-87005023D01*
X150749000Y-87000000D01*
X150948638Y-87000000D01*
X151015677Y-87019685D01*
X151036319Y-87036319D01*
X151250000Y-87250000D01*
X154698638Y-87250000D01*
X154765677Y-87269685D01*
X154786319Y-87286319D01*
X154963681Y-87463681D01*
X154997166Y-87525004D01*
X155000000Y-87551362D01*
X155000000Y-97448638D01*
X154980315Y-97515677D01*
X154963681Y-97536319D01*
X154786319Y-97713681D01*
X154724996Y-97747166D01*
X154698638Y-97750000D01*
X150499999Y-97750000D01*
X148536319Y-99713681D01*
X148474996Y-99747166D01*
X148448638Y-99750000D01*
X146551362Y-99750000D01*
X146484323Y-99730315D01*
X146463681Y-99713681D01*
X146286319Y-99536319D01*
X146252834Y-99474996D01*
X146250000Y-99448638D01*
X146250000Y-97701279D01*
X146269685Y-97634240D01*
X146286319Y-97613598D01*
X146613598Y-97286319D01*
X146674921Y-97252834D01*
X146701279Y-97250000D01*
X146937305Y-97250000D01*
X147004344Y-97269685D01*
X147050099Y-97322489D01*
X147060043Y-97391647D01*
X147031018Y-97455203D01*
X146972240Y-97492977D01*
X146953288Y-97496465D01*
X146953332Y-97496739D01*
X146854850Y-97512335D01*
X146854844Y-97512337D01*
X146741958Y-97569856D01*
X146741949Y-97569863D01*
X146652363Y-97659449D01*
X146652360Y-97659453D01*
X146594833Y-97772355D01*
X146580000Y-97866013D01*
X146580000Y-98372500D01*
X147095856Y-98372500D01*
X147080000Y-98431674D01*
X147080000Y-98563326D01*
X147095856Y-98622500D01*
X146580001Y-98622500D01*
X146580001Y-99128979D01*
X146594835Y-99222649D01*
X146594837Y-99222655D01*
X146652356Y-99335541D01*
X146652363Y-99335550D01*
X146741949Y-99425136D01*
X146741953Y-99425139D01*
X146854855Y-99482666D01*
X146948514Y-99497499D01*
X147454999Y-99497499D01*
X147455000Y-99497498D01*
X147455000Y-98981644D01*
X147514174Y-98997500D01*
X147645826Y-98997500D01*
X147705000Y-98981644D01*
X147705000Y-99497499D01*
X148211479Y-99497499D01*
X148305149Y-99482664D01*
X148305155Y-99482662D01*
X148418041Y-99425143D01*
X148418050Y-99425136D01*
X148507636Y-99335550D01*
X148507639Y-99335546D01*
X148565166Y-99222644D01*
X148580000Y-99128986D01*
X148580000Y-98622500D01*
X148064144Y-98622500D01*
X148080000Y-98563326D01*
X148080000Y-98431674D01*
X148064144Y-98372500D01*
X148579999Y-98372500D01*
X148579999Y-97866020D01*
X148565164Y-97772350D01*
X148565162Y-97772344D01*
X148507643Y-97659458D01*
X148507636Y-97659449D01*
X148418050Y-97569863D01*
X148418046Y-97569860D01*
X148305144Y-97512333D01*
X148206668Y-97496737D01*
X148206896Y-97495297D01*
X148147696Y-97472737D01*
X148106223Y-97416507D01*
X148101734Y-97346782D01*
X148135654Y-97285698D01*
X148197213Y-97252650D01*
X148222710Y-97250000D01*
X154250000Y-97250000D01*
X154500000Y-97000000D01*
X154500000Y-88000000D01*
X154250000Y-87750000D01*
X150749000Y-87750000D01*
X150681961Y-87730315D01*
X150636206Y-87677511D01*
X150625000Y-87626000D01*
X150625000Y-87487500D01*
X149375000Y-87487500D01*
X149375000Y-87626000D01*
X149355315Y-87693039D01*
X149302511Y-87738794D01*
X149251000Y-87750000D01*
X148749000Y-87750000D01*
X148681961Y-87730315D01*
X148636206Y-87677511D01*
X148625000Y-87626000D01*
X148625000Y-87487500D01*
X147375000Y-87487500D01*
X147375000Y-87626000D01*
X147355315Y-87693039D01*
X147302511Y-87738794D01*
X147251000Y-87750000D01*
X146749999Y-87750000D01*
X146565819Y-87934181D01*
X146538891Y-87948884D01*
X146513073Y-87965477D01*
X146506872Y-87966368D01*
X146504496Y-87967666D01*
X146478138Y-87970500D01*
X146335213Y-87970500D01*
X146268174Y-87950815D01*
X146222419Y-87898011D01*
X146212475Y-87828853D01*
X146232111Y-87777609D01*
X146235495Y-87772543D01*
X146235496Y-87772542D01*
X146249925Y-87700000D01*
X145486500Y-87700000D01*
X145477814Y-87697449D01*
X145468853Y-87698738D01*
X145444812Y-87687759D01*
X145419461Y-87680315D01*
X145413533Y-87673474D01*
X145405297Y-87669713D01*
X145391007Y-87647478D01*
X145373706Y-87627511D01*
X145371418Y-87616996D01*
X145367523Y-87610935D01*
X145362500Y-87576000D01*
X145362500Y-87574000D01*
X145382185Y-87506961D01*
X145434989Y-87461206D01*
X145486500Y-87450000D01*
X146249925Y-87450000D01*
X146235496Y-87377457D01*
X146235495Y-87377456D01*
X146180239Y-87294760D01*
X146097544Y-87239505D01*
X146095263Y-87238560D01*
X146091055Y-87235169D01*
X146087390Y-87232720D01*
X146087609Y-87232391D01*
X146040861Y-87194717D01*
X146018798Y-87128422D01*
X146036079Y-87060724D01*
X146087218Y-87013115D01*
X146142719Y-87000000D01*
X147251000Y-87000000D01*
X147318039Y-87019685D01*
G37*
G04 #@! TD.AperFunction*
G04 #@! TD*
G04 #@! TA.AperFunction,Conductor*
G04 #@! TO.N,GND*
G36*
X147562601Y-84755023D02*
G01*
X147572855Y-84758034D01*
X147631633Y-84795810D01*
X147660657Y-84859366D01*
X147650713Y-84928524D01*
X147614323Y-84974676D01*
X147611213Y-84977109D01*
X147591105Y-84989928D01*
X147531893Y-85020098D01*
X147531887Y-85020101D01*
X147445103Y-85106885D01*
X147445096Y-85106896D01*
X147389370Y-85216265D01*
X147375001Y-85306997D01*
X147375000Y-85307003D01*
X147375000Y-85512500D01*
X148625000Y-85512500D01*
X148625000Y-85306997D01*
X148610630Y-85216270D01*
X148610629Y-85216267D01*
X148554904Y-85106900D01*
X148554902Y-85106896D01*
X148554900Y-85106892D01*
X148554897Y-85106888D01*
X148554896Y-85106887D01*
X148554895Y-85106885D01*
X148468113Y-85020103D01*
X148468109Y-85020101D01*
X148468107Y-85020099D01*
X148468102Y-85020096D01*
X148468098Y-85020094D01*
X148414096Y-84992579D01*
X148403263Y-84982348D01*
X148385251Y-84972246D01*
X148377481Y-84964908D01*
X148368492Y-84949509D01*
X148363299Y-84944605D01*
X148358654Y-84935863D01*
X148354759Y-84927769D01*
X148354350Y-84925284D01*
X148342257Y-84904567D01*
X148344053Y-84862634D01*
X148343427Y-84858825D01*
X148344303Y-84856800D01*
X148345247Y-84834761D01*
X148367482Y-84803216D01*
X148371168Y-84794698D01*
X148375572Y-84791740D01*
X148385503Y-84777653D01*
X148420750Y-84761405D01*
X148429174Y-84755750D01*
X148433196Y-84755669D01*
X148438876Y-84753051D01*
X148442751Y-84752295D01*
X148466495Y-84750000D01*
X149527665Y-84750000D01*
X149562601Y-84755023D01*
X149572855Y-84758034D01*
X149631633Y-84795810D01*
X149660657Y-84859366D01*
X149650713Y-84928524D01*
X149614323Y-84974676D01*
X149611213Y-84977109D01*
X149591105Y-84989928D01*
X149531893Y-85020098D01*
X149531887Y-85020101D01*
X149445103Y-85106885D01*
X149445096Y-85106896D01*
X149389370Y-85216265D01*
X149375001Y-85306997D01*
X149375000Y-85307003D01*
X149375000Y-85512500D01*
X150625000Y-85512500D01*
X150625000Y-85306997D01*
X150610630Y-85216270D01*
X150610629Y-85216267D01*
X150554904Y-85106900D01*
X150554902Y-85106896D01*
X150554900Y-85106892D01*
X150554897Y-85106888D01*
X150554896Y-85106887D01*
X150554895Y-85106885D01*
X150468113Y-85020103D01*
X150468109Y-85020101D01*
X150468107Y-85020099D01*
X150468102Y-85020096D01*
X150468098Y-85020094D01*
X150414096Y-84992579D01*
X150403263Y-84982348D01*
X150385251Y-84972246D01*
X150377481Y-84964908D01*
X150368492Y-84949509D01*
X150363299Y-84944605D01*
X150358654Y-84935863D01*
X150354759Y-84927769D01*
X150354350Y-84925284D01*
X150342257Y-84904567D01*
X150344053Y-84862634D01*
X150343427Y-84858825D01*
X150344303Y-84856800D01*
X150345247Y-84834761D01*
X150367482Y-84803216D01*
X150371168Y-84794698D01*
X150375572Y-84791740D01*
X150385503Y-84777653D01*
X150420750Y-84761405D01*
X150429174Y-84755750D01*
X150433196Y-84755669D01*
X150438876Y-84753051D01*
X150442751Y-84752295D01*
X150466495Y-84750000D01*
X164608170Y-84750000D01*
X164643106Y-84755023D01*
X164658104Y-84759427D01*
X164716855Y-84797172D01*
X164718042Y-84798541D01*
X164745518Y-84853402D01*
X164747163Y-84860960D01*
X164750000Y-84887331D01*
X164750000Y-104608170D01*
X164749999Y-104608176D01*
X164750000Y-104608179D01*
X164744975Y-104643114D01*
X164740570Y-104658112D01*
X164702827Y-104716855D01*
X164702792Y-104716885D01*
X164702791Y-104716887D01*
X164702789Y-104716887D01*
X164701458Y-104718042D01*
X164646597Y-104745518D01*
X164639039Y-104747163D01*
X164612668Y-104750000D01*
X120391830Y-104750000D01*
X120391825Y-104749999D01*
X120391823Y-104750000D01*
X120356889Y-104744975D01*
X120341890Y-104740570D01*
X120283144Y-104702827D01*
X120283115Y-104702793D01*
X120283114Y-104702793D01*
X120283113Y-104702791D01*
X120281957Y-104701458D01*
X120254477Y-104646583D01*
X120252832Y-104639021D01*
X120250000Y-104612668D01*
X120250000Y-100939000D01*
X136420000Y-100939000D01*
X136420000Y-101135998D01*
X136458421Y-101329155D01*
X136458430Y-101329194D01*
X136533801Y-101511159D01*
X136533809Y-101511175D01*
X136628232Y-101652489D01*
X136628232Y-101652488D01*
X136628233Y-101652489D01*
X136890377Y-101390345D01*
X136898322Y-101386006D01*
X136903748Y-101378759D01*
X136928507Y-101369524D01*
X136951700Y-101356860D01*
X136960729Y-101357505D01*
X136969212Y-101354342D01*
X136995032Y-101359958D01*
X137021392Y-101361844D01*
X137030445Y-101367662D01*
X137037485Y-101369194D01*
X137065739Y-101390345D01*
X137067153Y-101391759D01*
X137100638Y-101453082D01*
X137095654Y-101522774D01*
X137067153Y-101567121D01*
X136805008Y-101829265D01*
X136805008Y-101829266D01*
X136946324Y-101923690D01*
X136946326Y-101923691D01*
X137128306Y-101999069D01*
X137128318Y-101999072D01*
X137313862Y-102035979D01*
X137318533Y-102036908D01*
X137320768Y-102037409D01*
X137321506Y-102037500D01*
X137518492Y-102037500D01*
X137518493Y-102037500D01*
X137523401Y-102036703D01*
X137526130Y-102035980D01*
X137711681Y-101999072D01*
X137711693Y-101999069D01*
X137791058Y-101966194D01*
X137893670Y-101923693D01*
X137903824Y-101916908D01*
X137903823Y-101916908D01*
X138034990Y-101829266D01*
X137772845Y-101567121D01*
X137768507Y-101559176D01*
X137761260Y-101553751D01*
X137752025Y-101528991D01*
X137739361Y-101505799D01*
X137740006Y-101496769D01*
X137736843Y-101488287D01*
X137742459Y-101462466D01*
X137744345Y-101436107D01*
X137750163Y-101427053D01*
X137751695Y-101420014D01*
X137772846Y-101391760D01*
X137774260Y-101390346D01*
X137835583Y-101356861D01*
X137905275Y-101361845D01*
X137949622Y-101390346D01*
X138211766Y-101652490D01*
X138211767Y-101652489D01*
X138306190Y-101511175D01*
X138306195Y-101511165D01*
X138355653Y-101391760D01*
X138381569Y-101329193D01*
X138381572Y-101329181D01*
X138419999Y-101135995D01*
X138420000Y-101135992D01*
X138420000Y-100939009D01*
X138419999Y-100939003D01*
X138419941Y-100938713D01*
X138957100Y-100938713D01*
X138957100Y-101136285D01*
X138995634Y-101330015D01*
X138995636Y-101330022D01*
X138995644Y-101330045D01*
X139071231Y-101512531D01*
X139071238Y-101512546D01*
X139071242Y-101512552D01*
X139071244Y-101512557D01*
X139180998Y-101676816D01*
X139320679Y-101816497D01*
X139320683Y-101816500D01*
X139320685Y-101816502D01*
X139320688Y-101816504D01*
X139320692Y-101816507D01*
X139320691Y-101816507D01*
X139320754Y-101816559D01*
X139320791Y-101816573D01*
X139484949Y-101926259D01*
X139667465Y-102001859D01*
X139667466Y-102001859D01*
X139667467Y-102001859D01*
X139667472Y-102001861D01*
X139853594Y-102038882D01*
X139856317Y-102039604D01*
X139861220Y-102040400D01*
X140058779Y-102040400D01*
X140062902Y-102040400D01*
X140070757Y-102038017D01*
X140102685Y-102031665D01*
X140123363Y-102027553D01*
X140252527Y-102001861D01*
X140252527Y-102001860D01*
X140252532Y-102001860D01*
X140252534Y-102001859D01*
X140252535Y-102001859D01*
X140435051Y-101926259D01*
X140599312Y-101816504D01*
X140739004Y-101676812D01*
X140848759Y-101512551D01*
X140924359Y-101330035D01*
X140924527Y-101329193D01*
X140962899Y-101136281D01*
X140962900Y-101136279D01*
X140962900Y-100938720D01*
X140962899Y-100938718D01*
X140962898Y-100938713D01*
X141497100Y-100938713D01*
X141497100Y-101136285D01*
X141535634Y-101330015D01*
X141535636Y-101330022D01*
X141535644Y-101330045D01*
X141611231Y-101512531D01*
X141611238Y-101512546D01*
X141611242Y-101512552D01*
X141611244Y-101512557D01*
X141720998Y-101676816D01*
X141860679Y-101816497D01*
X141860683Y-101816500D01*
X141860685Y-101816502D01*
X141860688Y-101816504D01*
X141860692Y-101816507D01*
X141860691Y-101816507D01*
X141860754Y-101816559D01*
X141860791Y-101816573D01*
X142024949Y-101926259D01*
X142207465Y-102001859D01*
X142207466Y-102001859D01*
X142207467Y-102001859D01*
X142207472Y-102001861D01*
X142393594Y-102038882D01*
X142396317Y-102039604D01*
X142401220Y-102040400D01*
X142598779Y-102040400D01*
X142602902Y-102040400D01*
X142610757Y-102038017D01*
X142642685Y-102031665D01*
X142663363Y-102027553D01*
X142792527Y-102001861D01*
X142792527Y-102001860D01*
X142792532Y-102001860D01*
X142792534Y-102001859D01*
X142792535Y-102001859D01*
X142975051Y-101926259D01*
X143139312Y-101816504D01*
X143279004Y-101676812D01*
X143388759Y-101512551D01*
X143464359Y-101330035D01*
X143464527Y-101329193D01*
X143502899Y-101136281D01*
X143502900Y-101136279D01*
X143502900Y-100938720D01*
X143502899Y-100938718D01*
X143502898Y-100938713D01*
X144037100Y-100938713D01*
X144037100Y-101136285D01*
X144075634Y-101330015D01*
X144075636Y-101330022D01*
X144075644Y-101330045D01*
X144151231Y-101512531D01*
X144151238Y-101512546D01*
X144151242Y-101512552D01*
X144151244Y-101512557D01*
X144260998Y-101676816D01*
X144400679Y-101816497D01*
X144400683Y-101816500D01*
X144400685Y-101816502D01*
X144400688Y-101816504D01*
X144400692Y-101816507D01*
X144400691Y-101816507D01*
X144400754Y-101816559D01*
X144400791Y-101816573D01*
X144564949Y-101926259D01*
X144747465Y-102001859D01*
X144747466Y-102001859D01*
X144747467Y-102001859D01*
X144747472Y-102001861D01*
X144933594Y-102038882D01*
X144936317Y-102039604D01*
X144941220Y-102040400D01*
X145138779Y-102040400D01*
X145142902Y-102040400D01*
X145150757Y-102038017D01*
X145182685Y-102031665D01*
X145203363Y-102027553D01*
X145332527Y-102001861D01*
X145332527Y-102001860D01*
X145332532Y-102001860D01*
X145332534Y-102001859D01*
X145332535Y-102001859D01*
X145515051Y-101926259D01*
X145679312Y-101816504D01*
X145819004Y-101676812D01*
X145928759Y-101512551D01*
X146004359Y-101330035D01*
X146004527Y-101329193D01*
X146042466Y-101138456D01*
X146042900Y-101136460D01*
X146042900Y-100938640D01*
X146042747Y-100937957D01*
X146004361Y-100744972D01*
X146004358Y-100744963D01*
X145998364Y-100730493D01*
X145993246Y-100718138D01*
X145928762Y-100562456D01*
X145928760Y-100562452D01*
X145928759Y-100562449D01*
X145819073Y-100398292D01*
X145819063Y-100398260D01*
X145819007Y-100398191D01*
X145819007Y-100398192D01*
X145819004Y-100398188D01*
X145819002Y-100398185D01*
X145818999Y-100398182D01*
X145818997Y-100398179D01*
X145679316Y-100258498D01*
X145519421Y-100151661D01*
X145519422Y-100151661D01*
X145515054Y-100148743D01*
X145515053Y-100148742D01*
X145515051Y-100148741D01*
X145515048Y-100148739D01*
X145515043Y-100148737D01*
X145513412Y-100148061D01*
X145513408Y-100148059D01*
X145332545Y-100073144D01*
X145332522Y-100073136D01*
X145332515Y-100073134D01*
X145138784Y-100034600D01*
X145138780Y-100034600D01*
X145138777Y-100034600D01*
X144941223Y-100034600D01*
X144941220Y-100034600D01*
X144941215Y-100034600D01*
X144747483Y-100073135D01*
X144747476Y-100073136D01*
X144747453Y-100073144D01*
X144564967Y-100148731D01*
X144564952Y-100148738D01*
X144564946Y-100148742D01*
X144564941Y-100148744D01*
X144400682Y-100258498D01*
X144260998Y-100398182D01*
X144151244Y-100562441D01*
X144151242Y-100562446D01*
X144151238Y-100562452D01*
X144151231Y-100562467D01*
X144075644Y-100744953D01*
X144075636Y-100744976D01*
X144075634Y-100744983D01*
X144037100Y-100938713D01*
X143502898Y-100938713D01*
X143502820Y-100938322D01*
X143502822Y-100938182D01*
X143502474Y-100936584D01*
X143464361Y-100744972D01*
X143464358Y-100744963D01*
X143458364Y-100730493D01*
X143453246Y-100718138D01*
X143388762Y-100562456D01*
X143388760Y-100562452D01*
X143388759Y-100562449D01*
X143279073Y-100398292D01*
X143279063Y-100398260D01*
X143279007Y-100398191D01*
X143279007Y-100398192D01*
X143279004Y-100398188D01*
X143279002Y-100398185D01*
X143278999Y-100398182D01*
X143278997Y-100398179D01*
X143139316Y-100258498D01*
X142979421Y-100151661D01*
X142979422Y-100151661D01*
X142975054Y-100148743D01*
X142975053Y-100148742D01*
X142975051Y-100148741D01*
X142975048Y-100148739D01*
X142975043Y-100148737D01*
X142973412Y-100148061D01*
X142973408Y-100148059D01*
X142792545Y-100073144D01*
X142792522Y-100073136D01*
X142792515Y-100073134D01*
X142598784Y-100034600D01*
X142598780Y-100034600D01*
X142598777Y-100034600D01*
X142401223Y-100034600D01*
X142401220Y-100034600D01*
X142401215Y-100034600D01*
X142207483Y-100073135D01*
X142207476Y-100073136D01*
X142207453Y-100073144D01*
X142024967Y-100148731D01*
X142024952Y-100148738D01*
X142024946Y-100148742D01*
X142024941Y-100148744D01*
X141860682Y-100258498D01*
X141720998Y-100398182D01*
X141611244Y-100562441D01*
X141611242Y-100562446D01*
X141611238Y-100562452D01*
X141611231Y-100562467D01*
X141535644Y-100744953D01*
X141535636Y-100744976D01*
X141535634Y-100744983D01*
X141497100Y-100938713D01*
X140962898Y-100938713D01*
X140962820Y-100938322D01*
X140962822Y-100938182D01*
X140962474Y-100936584D01*
X140924361Y-100744972D01*
X140924358Y-100744963D01*
X140918364Y-100730493D01*
X140913246Y-100718138D01*
X140848762Y-100562456D01*
X140848760Y-100562452D01*
X140848759Y-100562449D01*
X140739073Y-100398292D01*
X140739063Y-100398260D01*
X140739007Y-100398191D01*
X140739007Y-100398192D01*
X140739004Y-100398188D01*
X140739002Y-100398185D01*
X140738999Y-100398182D01*
X140738997Y-100398179D01*
X140599316Y-100258498D01*
X140439421Y-100151661D01*
X140439422Y-100151661D01*
X140435054Y-100148743D01*
X140435053Y-100148742D01*
X140435051Y-100148741D01*
X140435048Y-100148739D01*
X140435043Y-100148737D01*
X140433412Y-100148061D01*
X140433408Y-100148059D01*
X140252545Y-100073144D01*
X140252522Y-100073136D01*
X140252515Y-100073134D01*
X140058784Y-100034600D01*
X140058780Y-100034600D01*
X140058777Y-100034600D01*
X139861223Y-100034600D01*
X139861220Y-100034600D01*
X139861215Y-100034600D01*
X139667483Y-100073135D01*
X139667476Y-100073136D01*
X139667453Y-100073144D01*
X139484967Y-100148731D01*
X139484952Y-100148738D01*
X139484946Y-100148742D01*
X139484941Y-100148744D01*
X139320682Y-100258498D01*
X139180998Y-100398182D01*
X139071244Y-100562441D01*
X139071242Y-100562446D01*
X139071238Y-100562452D01*
X139071231Y-100562467D01*
X138995644Y-100744953D01*
X138995636Y-100744976D01*
X138995634Y-100744983D01*
X138957100Y-100938713D01*
X138419941Y-100938713D01*
X138419507Y-100936531D01*
X138403861Y-100857873D01*
X138381572Y-100745818D01*
X138381569Y-100745806D01*
X138306191Y-100563826D01*
X138306190Y-100563824D01*
X138306188Y-100563821D01*
X138306187Y-100563818D01*
X138211767Y-100422508D01*
X138211766Y-100422508D01*
X137949620Y-100684653D01*
X137941673Y-100688992D01*
X137936249Y-100696238D01*
X137911491Y-100705472D01*
X137888297Y-100718137D01*
X137879267Y-100717491D01*
X137870785Y-100720655D01*
X137844964Y-100715038D01*
X137818605Y-100713153D01*
X137809551Y-100707334D01*
X137802512Y-100705803D01*
X137774258Y-100684652D01*
X137772845Y-100683239D01*
X137739360Y-100621916D01*
X137744344Y-100552224D01*
X137772845Y-100507877D01*
X137882543Y-100398179D01*
X138034989Y-100245733D01*
X138034989Y-100245732D01*
X138034989Y-100245731D01*
X137893680Y-100151312D01*
X137893674Y-100151309D01*
X137893671Y-100151307D01*
X137893667Y-100151305D01*
X137893659Y-100151301D01*
X137711694Y-100075930D01*
X137711655Y-100075921D01*
X137518498Y-100037500D01*
X137518495Y-100037500D01*
X137321504Y-100037500D01*
X137321500Y-100037500D01*
X137128343Y-100075921D01*
X137128304Y-100075930D01*
X136946330Y-100151305D01*
X136946318Y-100151312D01*
X136805009Y-100245732D01*
X136805009Y-100245733D01*
X137067153Y-100507877D01*
X137071491Y-100515822D01*
X137078739Y-100521248D01*
X137087973Y-100546007D01*
X137100638Y-100569200D01*
X137099992Y-100578229D01*
X137103156Y-100586712D01*
X137097539Y-100612532D01*
X137095654Y-100638892D01*
X137089835Y-100647945D01*
X137088304Y-100654985D01*
X137067153Y-100683239D01*
X137065739Y-100684653D01*
X137004416Y-100718138D01*
X136934724Y-100713154D01*
X136890377Y-100684653D01*
X136628233Y-100422509D01*
X136628232Y-100422509D01*
X136533812Y-100563818D01*
X136533805Y-100563830D01*
X136458430Y-100745804D01*
X136458421Y-100745843D01*
X136420000Y-100939000D01*
X120250000Y-100939000D01*
X120250000Y-98398713D01*
X136417100Y-98398713D01*
X136417100Y-98596285D01*
X136455634Y-98790015D01*
X136455636Y-98790022D01*
X136455644Y-98790045D01*
X136531231Y-98972531D01*
X136531238Y-98972546D01*
X136531242Y-98972552D01*
X136531244Y-98972557D01*
X136640998Y-99136816D01*
X136780679Y-99276497D01*
X136780683Y-99276500D01*
X136780685Y-99276502D01*
X136780688Y-99276504D01*
X136780692Y-99276507D01*
X136780691Y-99276507D01*
X136780754Y-99276559D01*
X136780791Y-99276573D01*
X136944949Y-99386259D01*
X137127465Y-99461859D01*
X137127466Y-99461859D01*
X137127467Y-99461859D01*
X137127472Y-99461861D01*
X137313594Y-99498882D01*
X137316317Y-99499604D01*
X137321220Y-99500400D01*
X137518779Y-99500400D01*
X137522900Y-99500400D01*
X137530747Y-99498018D01*
X137593900Y-99485457D01*
X137712527Y-99461861D01*
X137712529Y-99461859D01*
X137712531Y-99461859D01*
X137712535Y-99461859D01*
X137714749Y-99460942D01*
X137723697Y-99457241D01*
X137723739Y-99457217D01*
X137895051Y-99386259D01*
X138059312Y-99276504D01*
X138199004Y-99136812D01*
X138308759Y-98972551D01*
X138384359Y-98790035D01*
X138422900Y-98596277D01*
X138422900Y-98398723D01*
X138422900Y-98398720D01*
X138422899Y-98398718D01*
X138422898Y-98398713D01*
X138957100Y-98398713D01*
X138957100Y-98596285D01*
X138995634Y-98790015D01*
X138995636Y-98790022D01*
X138995644Y-98790045D01*
X139071231Y-98972531D01*
X139071238Y-98972546D01*
X139071242Y-98972552D01*
X139071244Y-98972557D01*
X139180998Y-99136816D01*
X139320679Y-99276497D01*
X139320683Y-99276500D01*
X139320685Y-99276502D01*
X139320688Y-99276504D01*
X139320692Y-99276507D01*
X139320691Y-99276507D01*
X139320754Y-99276559D01*
X139320791Y-99276573D01*
X139484949Y-99386259D01*
X139667465Y-99461859D01*
X139667466Y-99461859D01*
X139667467Y-99461859D01*
X139667472Y-99461861D01*
X139853594Y-99498882D01*
X139856317Y-99499604D01*
X139861220Y-99500400D01*
X140058779Y-99500400D01*
X140062900Y-99500400D01*
X140070747Y-99498018D01*
X140133900Y-99485457D01*
X140252527Y-99461861D01*
X140252529Y-99461859D01*
X140252531Y-99461859D01*
X140252535Y-99461859D01*
X140254749Y-99460942D01*
X140263697Y-99457241D01*
X140263739Y-99457217D01*
X140435051Y-99386259D01*
X140599312Y-99276504D01*
X140739004Y-99136812D01*
X140848759Y-98972551D01*
X140924359Y-98790035D01*
X140962900Y-98596277D01*
X140962900Y-98398723D01*
X140962900Y-98398720D01*
X140962900Y-98398536D01*
X140962464Y-98396531D01*
X140961723Y-98392809D01*
X140924361Y-98204972D01*
X140924359Y-98204967D01*
X140924359Y-98204965D01*
X140872263Y-98079194D01*
X140863536Y-98045001D01*
X140861865Y-98029461D01*
X140865030Y-98011915D01*
X140863124Y-97994186D01*
X140874267Y-97960709D01*
X140874268Y-97960704D01*
X140880366Y-97948523D01*
X140903565Y-97916350D01*
X143016494Y-95803423D01*
X143044744Y-95782275D01*
X143067836Y-95769667D01*
X143127261Y-95754500D01*
X144568390Y-95754500D01*
X144603317Y-95759521D01*
X144614170Y-95762707D01*
X144672951Y-95800477D01*
X144701980Y-95864031D01*
X144692040Y-95933190D01*
X144690208Y-95937205D01*
X144688855Y-95940167D01*
X144663739Y-95976342D01*
X143086046Y-97554033D01*
X143057790Y-97575185D01*
X143044069Y-97582677D01*
X143026649Y-97586466D01*
X143011004Y-97595010D01*
X142975800Y-97597528D01*
X142962221Y-97596557D01*
X142923612Y-97587434D01*
X142792545Y-97533144D01*
X142792522Y-97533136D01*
X142792515Y-97533134D01*
X142598784Y-97494600D01*
X142598780Y-97494600D01*
X142598777Y-97494600D01*
X142401223Y-97494600D01*
X142401220Y-97494600D01*
X142401215Y-97494600D01*
X142207483Y-97533135D01*
X142207476Y-97533136D01*
X142207453Y-97533144D01*
X142024967Y-97608731D01*
X142024952Y-97608738D01*
X142024946Y-97608742D01*
X142024941Y-97608744D01*
X141860682Y-97718498D01*
X141720998Y-97858182D01*
X141611244Y-98022441D01*
X141611242Y-98022446D01*
X141611238Y-98022452D01*
X141611231Y-98022467D01*
X141535644Y-98204953D01*
X141535636Y-98204976D01*
X141535634Y-98204983D01*
X141497100Y-98398713D01*
X141497100Y-98596285D01*
X141535634Y-98790015D01*
X141535636Y-98790022D01*
X141535644Y-98790045D01*
X141611231Y-98972531D01*
X141611238Y-98972546D01*
X141611242Y-98972552D01*
X141611244Y-98972557D01*
X141720998Y-99136816D01*
X141860679Y-99276497D01*
X141860683Y-99276500D01*
X141860685Y-99276502D01*
X141860688Y-99276504D01*
X141860692Y-99276507D01*
X141860691Y-99276507D01*
X141860754Y-99276559D01*
X141860791Y-99276573D01*
X142024949Y-99386259D01*
X142207465Y-99461859D01*
X142207466Y-99461859D01*
X142207467Y-99461859D01*
X142207472Y-99461861D01*
X142393594Y-99498882D01*
X142396317Y-99499604D01*
X142401220Y-99500400D01*
X142598779Y-99500400D01*
X142602900Y-99500400D01*
X142610747Y-99498018D01*
X142673900Y-99485457D01*
X142792527Y-99461861D01*
X142792529Y-99461859D01*
X142792531Y-99461859D01*
X142792535Y-99461859D01*
X142794749Y-99460942D01*
X142803697Y-99457241D01*
X142803739Y-99457217D01*
X142975051Y-99386259D01*
X143139312Y-99276504D01*
X143279004Y-99136812D01*
X143388759Y-98972551D01*
X143464359Y-98790035D01*
X143502900Y-98596277D01*
X143502900Y-98398723D01*
X143502900Y-98398720D01*
X143502900Y-98398536D01*
X143502464Y-98396531D01*
X143501723Y-98392809D01*
X143464361Y-98204972D01*
X143464359Y-98204967D01*
X143464359Y-98204965D01*
X143412263Y-98079194D01*
X143403536Y-98045001D01*
X143401865Y-98029461D01*
X143405030Y-98011915D01*
X143403124Y-97994186D01*
X143414267Y-97960709D01*
X143414268Y-97960704D01*
X143420366Y-97948523D01*
X143443565Y-97916350D01*
X145056494Y-96303423D01*
X145084744Y-96282275D01*
X145107836Y-96269667D01*
X145167261Y-96254500D01*
X146608390Y-96254500D01*
X146643317Y-96259521D01*
X146654170Y-96262707D01*
X146712951Y-96300477D01*
X146741980Y-96364031D01*
X146732041Y-96433190D01*
X146732040Y-96433192D01*
X146728855Y-96440167D01*
X146703739Y-96476342D01*
X145626046Y-97554033D01*
X145597790Y-97575185D01*
X145584069Y-97582677D01*
X145566649Y-97586466D01*
X145551004Y-97595010D01*
X145515800Y-97597528D01*
X145502221Y-97596557D01*
X145463612Y-97587434D01*
X145332545Y-97533144D01*
X145332522Y-97533136D01*
X145332515Y-97533134D01*
X145138784Y-97494600D01*
X145138780Y-97494600D01*
X145138777Y-97494600D01*
X144941223Y-97494600D01*
X144941220Y-97494600D01*
X144941215Y-97494600D01*
X144747483Y-97533135D01*
X144747476Y-97533136D01*
X144747453Y-97533144D01*
X144564967Y-97608731D01*
X144564952Y-97608738D01*
X144564946Y-97608742D01*
X144564941Y-97608744D01*
X144400682Y-97718498D01*
X144260998Y-97858182D01*
X144151244Y-98022441D01*
X144151242Y-98022446D01*
X144151238Y-98022452D01*
X144151231Y-98022467D01*
X144075644Y-98204953D01*
X144075636Y-98204976D01*
X144075634Y-98204983D01*
X144037100Y-98398713D01*
X144037100Y-98596285D01*
X144075634Y-98790015D01*
X144075636Y-98790022D01*
X144075644Y-98790045D01*
X144151231Y-98972531D01*
X144151238Y-98972546D01*
X144151242Y-98972552D01*
X144151244Y-98972557D01*
X144260998Y-99136816D01*
X144400679Y-99276497D01*
X144400683Y-99276500D01*
X144400685Y-99276502D01*
X144400688Y-99276504D01*
X144400692Y-99276507D01*
X144400691Y-99276507D01*
X144400754Y-99276559D01*
X144400791Y-99276573D01*
X144564949Y-99386259D01*
X144747465Y-99461859D01*
X144747466Y-99461859D01*
X144747467Y-99461859D01*
X144747472Y-99461861D01*
X144933594Y-99498882D01*
X144936317Y-99499604D01*
X144941220Y-99500400D01*
X145138779Y-99500400D01*
X145142900Y-99500400D01*
X145150747Y-99498018D01*
X145213900Y-99485457D01*
X145332527Y-99461861D01*
X145332529Y-99461859D01*
X145332531Y-99461859D01*
X145332535Y-99461859D01*
X145334749Y-99460942D01*
X145343697Y-99457241D01*
X145343739Y-99457217D01*
X145515051Y-99386259D01*
X145679312Y-99276504D01*
X145819004Y-99136812D01*
X145864998Y-99067975D01*
X145918609Y-99023172D01*
X145987934Y-99014463D01*
X146050962Y-99044618D01*
X146087681Y-99104060D01*
X146092100Y-99136867D01*
X146092100Y-99448637D01*
X146093004Y-99465504D01*
X146093008Y-99465555D01*
X146095838Y-99491876D01*
X146095839Y-99491878D01*
X146114247Y-99550664D01*
X146114248Y-99550668D01*
X146147733Y-99611992D01*
X146147735Y-99611995D01*
X146174660Y-99647963D01*
X146174676Y-99647981D01*
X146352015Y-99825320D01*
X146352024Y-99825328D01*
X146352029Y-99825333D01*
X146364605Y-99836630D01*
X146385247Y-99853264D01*
X146439836Y-99881819D01*
X146506875Y-99901504D01*
X146506873Y-99901504D01*
X146521812Y-99903651D01*
X146551362Y-99907900D01*
X146551364Y-99907900D01*
X147062997Y-99907900D01*
X147130036Y-99927585D01*
X147175791Y-99980389D01*
X147185735Y-100049547D01*
X147156710Y-100113103D01*
X147110448Y-100146462D01*
X147104957Y-100148736D01*
X147104952Y-100148738D01*
X147104946Y-100148742D01*
X147104941Y-100148744D01*
X146940682Y-100258498D01*
X146800998Y-100398182D01*
X146691244Y-100562441D01*
X146691242Y-100562446D01*
X146691238Y-100562452D01*
X146691231Y-100562467D01*
X146615644Y-100744953D01*
X146615636Y-100744976D01*
X146615634Y-100744983D01*
X146577100Y-100938713D01*
X146577100Y-101136285D01*
X146615634Y-101330015D01*
X146615636Y-101330022D01*
X146615644Y-101330045D01*
X146691231Y-101512531D01*
X146691238Y-101512546D01*
X146691242Y-101512552D01*
X146691244Y-101512557D01*
X146800998Y-101676816D01*
X146940679Y-101816497D01*
X146940683Y-101816500D01*
X146940685Y-101816502D01*
X146940688Y-101816504D01*
X146940692Y-101816507D01*
X146940691Y-101816507D01*
X146940754Y-101816559D01*
X146940791Y-101816573D01*
X147104949Y-101926259D01*
X147287465Y-102001859D01*
X147287466Y-102001859D01*
X147287467Y-102001859D01*
X147287472Y-102001861D01*
X147473594Y-102038882D01*
X147476317Y-102039604D01*
X147481220Y-102040400D01*
X147678779Y-102040400D01*
X147682902Y-102040400D01*
X147690757Y-102038017D01*
X147722685Y-102031665D01*
X147743363Y-102027553D01*
X147872527Y-102001861D01*
X147872527Y-102001860D01*
X147872532Y-102001860D01*
X147872534Y-102001859D01*
X147872535Y-102001859D01*
X148055051Y-101926259D01*
X148219312Y-101816504D01*
X148359004Y-101676812D01*
X148468759Y-101512551D01*
X148544359Y-101330035D01*
X148544527Y-101329193D01*
X148582466Y-101138456D01*
X148582900Y-101136460D01*
X148582900Y-100938640D01*
X148582747Y-100937957D01*
X148544361Y-100744972D01*
X148544358Y-100744963D01*
X148538364Y-100730493D01*
X148533246Y-100718138D01*
X148468762Y-100562456D01*
X148468760Y-100562452D01*
X148468759Y-100562449D01*
X148359073Y-100398292D01*
X148359063Y-100398260D01*
X148359007Y-100398191D01*
X148359007Y-100398192D01*
X148359004Y-100398188D01*
X148359002Y-100398185D01*
X148358999Y-100398182D01*
X148358997Y-100398179D01*
X148219316Y-100258498D01*
X148059421Y-100151661D01*
X148059422Y-100151661D01*
X148055054Y-100148743D01*
X148055053Y-100148742D01*
X148055051Y-100148741D01*
X148055048Y-100148739D01*
X148055043Y-100148737D01*
X148053414Y-100148062D01*
X148053412Y-100148061D01*
X148051946Y-100147454D01*
X148049559Y-100146465D01*
X147995152Y-100102632D01*
X147973080Y-100036341D01*
X147990351Y-99968639D01*
X148041482Y-99921023D01*
X148097000Y-99907900D01*
X148448638Y-99907900D01*
X148465518Y-99906995D01*
X148491876Y-99904161D01*
X148550670Y-99885751D01*
X148611993Y-99852266D01*
X148647971Y-99825333D01*
X150529084Y-97944218D01*
X150590407Y-97910734D01*
X150616765Y-97907900D01*
X154698638Y-97907900D01*
X154715518Y-97906995D01*
X154741876Y-97904161D01*
X154800670Y-97885751D01*
X154861993Y-97852266D01*
X154897971Y-97825333D01*
X155075333Y-97647971D01*
X155086630Y-97635395D01*
X155103264Y-97614753D01*
X155131819Y-97560164D01*
X155151504Y-97493125D01*
X155157900Y-97448638D01*
X155157900Y-87551362D01*
X155156995Y-87534482D01*
X155154161Y-87508124D01*
X155135751Y-87449330D01*
X155102266Y-87388007D01*
X155101197Y-87386579D01*
X155075339Y-87352036D01*
X155075323Y-87352018D01*
X154897984Y-87174679D01*
X154896030Y-87172924D01*
X154887364Y-87165139D01*
X154885393Y-87163368D01*
X154864752Y-87146735D01*
X154810162Y-87118180D01*
X154743123Y-87098495D01*
X154743126Y-87098495D01*
X154698640Y-87092100D01*
X154698638Y-87092100D01*
X151366766Y-87092100D01*
X151299727Y-87072415D01*
X151279089Y-87055785D01*
X151147971Y-86924667D01*
X151135395Y-86913370D01*
X151114753Y-86896736D01*
X151114752Y-86896735D01*
X151060162Y-86868180D01*
X150993123Y-86848495D01*
X150993126Y-86848495D01*
X150948640Y-86842100D01*
X150948638Y-86842100D01*
X150749000Y-86842100D01*
X150748998Y-86842100D01*
X150726536Y-86843706D01*
X150726524Y-86843707D01*
X150691591Y-86848730D01*
X150685956Y-86850832D01*
X150669003Y-86855809D01*
X150664467Y-86856796D01*
X150594775Y-86851815D01*
X150550421Y-86823312D01*
X150469832Y-86742723D01*
X150469830Y-86742721D01*
X150433464Y-86724192D01*
X150400486Y-86693046D01*
X150268222Y-86672100D01*
X149731778Y-86672100D01*
X149708923Y-86675719D01*
X149640355Y-86686578D01*
X149530170Y-86742719D01*
X149447156Y-86825732D01*
X149385833Y-86859217D01*
X149324540Y-86857027D01*
X149295484Y-86848495D01*
X149251002Y-86842100D01*
X149251000Y-86842100D01*
X148749000Y-86842100D01*
X148748992Y-86842100D01*
X148715434Y-86845708D01*
X148664462Y-86856798D01*
X148661557Y-86856590D01*
X148658940Y-86857869D01*
X148626913Y-86854112D01*
X148594771Y-86851814D01*
X148591562Y-86849966D01*
X148589546Y-86849730D01*
X148580241Y-86843447D01*
X148559368Y-86831428D01*
X148554702Y-86827593D01*
X148469830Y-86742721D01*
X148421443Y-86718067D01*
X148411023Y-86709503D01*
X148399752Y-86692930D01*
X148268222Y-86672100D01*
X147731778Y-86672100D01*
X147708923Y-86675719D01*
X147640355Y-86686578D01*
X147530170Y-86742719D01*
X147447156Y-86825732D01*
X147385833Y-86859217D01*
X147324540Y-86857027D01*
X147295484Y-86848495D01*
X147251002Y-86842100D01*
X147251000Y-86842100D01*
X146142719Y-86842100D01*
X146142714Y-86842100D01*
X146142705Y-86842101D01*
X146106415Y-86846330D01*
X146106410Y-86846331D01*
X146062996Y-86856590D01*
X146051880Y-86859217D01*
X146050902Y-86859448D01*
X145979627Y-86897544D01*
X145928498Y-86945143D01*
X145923109Y-86950404D01*
X145923106Y-86950407D01*
X145883085Y-87021668D01*
X145883085Y-87021669D01*
X145865806Y-87089358D01*
X145864118Y-87096693D01*
X145863381Y-87105527D01*
X145860417Y-87105279D01*
X145848096Y-87158826D01*
X145798102Y-87207636D01*
X145739983Y-87222100D01*
X144700092Y-87222100D01*
X144663206Y-87229436D01*
X144626320Y-87236773D01*
X144626318Y-87236774D01*
X144542668Y-87292669D01*
X144486774Y-87376321D01*
X144486772Y-87376323D01*
X144486770Y-87376328D01*
X144483445Y-87393046D01*
X144472100Y-87450085D01*
X144472100Y-87699907D01*
X144472920Y-87704028D01*
X144486773Y-87773677D01*
X144522825Y-87827633D01*
X144527759Y-87840361D01*
X144527972Y-87842892D01*
X144530476Y-87848125D01*
X144535147Y-87863044D01*
X144536395Y-87932893D01*
X144533289Y-87944219D01*
X144532794Y-87946022D01*
X144516312Y-87982114D01*
X144486777Y-88026315D01*
X144486774Y-88026321D01*
X144486772Y-88026323D01*
X144486770Y-88026328D01*
X144472100Y-88100086D01*
X144472100Y-88349909D01*
X144473929Y-88359107D01*
X144473930Y-88359107D01*
X144473930Y-88359108D01*
X144486773Y-88423677D01*
X144505546Y-88451773D01*
X144515242Y-88466284D01*
X144527513Y-88491933D01*
X144530473Y-88498119D01*
X144535145Y-88513039D01*
X144536395Y-88582893D01*
X144532794Y-88596022D01*
X144516312Y-88632114D01*
X144486777Y-88676315D01*
X144486774Y-88676321D01*
X144486772Y-88676323D01*
X144486770Y-88676328D01*
X144475017Y-88735415D01*
X144472100Y-88750085D01*
X144472100Y-88999907D01*
X144486689Y-89073256D01*
X144486742Y-89073522D01*
X144486773Y-89073678D01*
X144515241Y-89116282D01*
X144515243Y-89116286D01*
X144515245Y-89116288D01*
X144530476Y-89148126D01*
X144535147Y-89163046D01*
X144536395Y-89232893D01*
X144532794Y-89246022D01*
X144516312Y-89282114D01*
X144486777Y-89326315D01*
X144486774Y-89326321D01*
X144486772Y-89326323D01*
X144486770Y-89326328D01*
X144472100Y-89400086D01*
X144472100Y-89649907D01*
X144475712Y-89668071D01*
X144486772Y-89723676D01*
X144486772Y-89723677D01*
X144516982Y-89768890D01*
X144516984Y-89768892D01*
X144516985Y-89768895D01*
X144516988Y-89768899D01*
X144527080Y-89789991D01*
X144532217Y-89800728D01*
X144536889Y-89815646D01*
X144538139Y-89885503D01*
X144538137Y-89885510D01*
X144534534Y-89898643D01*
X144518055Y-89934726D01*
X144499725Y-89962159D01*
X144490527Y-89972307D01*
X144479019Y-90030169D01*
X144475075Y-90050000D01*
X146249925Y-90050000D01*
X146249925Y-90049999D01*
X146235273Y-89976334D01*
X146227671Y-89958211D01*
X146222821Y-89942721D01*
X146222713Y-89942379D01*
X146221467Y-89872521D01*
X146258187Y-89813078D01*
X146313619Y-89784399D01*
X146317163Y-89783595D01*
X146321676Y-89782572D01*
X146349104Y-89779500D01*
X148937890Y-89779500D01*
X148972822Y-89784521D01*
X148998066Y-89791934D01*
X149050812Y-89823230D01*
X149398175Y-90170592D01*
X149419323Y-90198842D01*
X149431931Y-90221931D01*
X149447100Y-90281360D01*
X149447100Y-90722474D01*
X149442392Y-90738507D01*
X149461577Y-90859639D01*
X149461578Y-90859643D01*
X149517719Y-90969828D01*
X149517720Y-90969829D01*
X149517721Y-90969830D01*
X149605169Y-91057278D01*
X149651939Y-91081108D01*
X149715356Y-91113420D01*
X149715357Y-91113420D01*
X149715359Y-91113421D01*
X149715358Y-91113421D01*
X149727507Y-91115345D01*
X149727509Y-91115346D01*
X149806772Y-91127900D01*
X149806777Y-91127900D01*
X149806778Y-91127900D01*
X150286292Y-91127900D01*
X150318527Y-91132163D01*
X150319887Y-91132529D01*
X150333561Y-91136544D01*
X150340020Y-91137949D01*
X150342924Y-91138731D01*
X150370250Y-91155431D01*
X150398363Y-91170780D01*
X150398370Y-91170787D01*
X150446573Y-91218990D01*
X150467723Y-91247242D01*
X150480331Y-91270331D01*
X150495500Y-91329760D01*
X150495500Y-94030740D01*
X150495499Y-94030742D01*
X150495500Y-94030743D01*
X150493714Y-94043161D01*
X150490476Y-94065678D01*
X150487289Y-94076531D01*
X150449514Y-94135308D01*
X150385957Y-94164331D01*
X150316802Y-94154387D01*
X150316800Y-94154386D01*
X150316799Y-94154386D01*
X150316798Y-94154385D01*
X150308514Y-94150602D01*
X150284539Y-94136184D01*
X150281160Y-94133591D01*
X150281144Y-94133582D01*
X150176743Y-94073305D01*
X150060284Y-94042100D01*
X150060283Y-94042100D01*
X149971209Y-94042100D01*
X149971208Y-94042099D01*
X149971208Y-94042100D01*
X149936273Y-94037077D01*
X149911031Y-94029665D01*
X149858286Y-93998369D01*
X149303426Y-93443508D01*
X149282274Y-93415252D01*
X149269667Y-93392163D01*
X149254500Y-93332738D01*
X149254500Y-91818506D01*
X149254501Y-91818469D01*
X149254501Y-91699378D01*
X149254501Y-91699377D01*
X149215755Y-91605838D01*
X149215755Y-91605837D01*
X149144163Y-91534245D01*
X149137098Y-91527180D01*
X149135428Y-91525510D01*
X149135401Y-91525484D01*
X148233644Y-90623726D01*
X148233643Y-90623725D01*
X148219162Y-90609244D01*
X148219160Y-90609242D01*
X148125959Y-90570639D01*
X148125724Y-90570523D01*
X148125625Y-90570500D01*
X148125624Y-90570500D01*
X148125623Y-90570500D01*
X148125621Y-90570500D01*
X146353043Y-90570500D01*
X146353039Y-90570499D01*
X146353038Y-90570500D01*
X146318103Y-90565476D01*
X146305034Y-90561638D01*
X146246258Y-90523861D01*
X146217235Y-90460304D01*
X146224184Y-90398295D01*
X146227629Y-90389304D01*
X146234053Y-90375241D01*
X146235491Y-90372547D01*
X146235495Y-90372543D01*
X146235496Y-90372542D01*
X146249925Y-90300000D01*
X144475075Y-90300000D01*
X144489502Y-90372540D01*
X144492397Y-90377957D01*
X144496289Y-90382699D01*
X144516985Y-90413673D01*
X144532216Y-90445506D01*
X144536888Y-90460425D01*
X144537207Y-90478255D01*
X144537863Y-90480350D01*
X144537282Y-90482466D01*
X144538138Y-90530284D01*
X144538136Y-90530289D01*
X144534533Y-90543422D01*
X144518054Y-90579505D01*
X144486774Y-90626318D01*
X144486770Y-90626330D01*
X144472100Y-90700086D01*
X144472100Y-90949907D01*
X144475720Y-90968108D01*
X144475719Y-90968108D01*
X144486771Y-91023674D01*
X144486772Y-91023675D01*
X144515242Y-91066284D01*
X144529215Y-91095490D01*
X144530473Y-91098119D01*
X144535145Y-91113039D01*
X144536395Y-91182893D01*
X144532794Y-91196022D01*
X144516312Y-91232114D01*
X144486777Y-91276315D01*
X144486774Y-91276321D01*
X144486772Y-91276323D01*
X144486770Y-91276328D01*
X144476143Y-91329760D01*
X144472100Y-91350085D01*
X144472100Y-91599907D01*
X144473280Y-91605838D01*
X144486773Y-91673677D01*
X144524363Y-91729936D01*
X144529237Y-91742292D01*
X144529482Y-91745012D01*
X144532217Y-91750728D01*
X144536889Y-91765646D01*
X144538139Y-91835503D01*
X144538137Y-91835510D01*
X144534534Y-91848643D01*
X144518055Y-91884726D01*
X144499725Y-91912159D01*
X144490527Y-91922307D01*
X144479483Y-91977837D01*
X144475075Y-92000000D01*
X146249925Y-92000000D01*
X146249925Y-91999999D01*
X146235273Y-91926334D01*
X146227671Y-91908211D01*
X146222714Y-91892380D01*
X146221467Y-91822521D01*
X146258187Y-91763078D01*
X146313619Y-91734399D01*
X146317163Y-91733595D01*
X146321676Y-91732572D01*
X146349104Y-91729500D01*
X147800390Y-91729500D01*
X147835322Y-91734521D01*
X147860566Y-91741934D01*
X147913312Y-91773230D01*
X148196575Y-92056492D01*
X148217723Y-92084742D01*
X148230331Y-92107831D01*
X148245500Y-92167260D01*
X148245500Y-94037739D01*
X148240476Y-94072678D01*
X148233063Y-94097921D01*
X148201769Y-94150663D01*
X148133589Y-94218843D01*
X148073305Y-94323256D01*
X148073305Y-94323257D01*
X148042100Y-94439716D01*
X148042100Y-94560284D01*
X148073305Y-94676743D01*
X148133589Y-94781157D01*
X148218843Y-94866411D01*
X148323257Y-94926695D01*
X148439716Y-94957900D01*
X148439718Y-94957900D01*
X148560282Y-94957900D01*
X148560284Y-94957900D01*
X148676743Y-94926695D01*
X148781157Y-94866411D01*
X148866411Y-94781157D01*
X148926695Y-94676743D01*
X148957900Y-94560284D01*
X148957900Y-94439716D01*
X148926695Y-94323257D01*
X148866411Y-94218843D01*
X148803425Y-94155857D01*
X148783643Y-94130043D01*
X148782937Y-94128817D01*
X148776113Y-94116319D01*
X148772554Y-94110782D01*
X148771036Y-94108144D01*
X148763531Y-94077041D01*
X148754500Y-94046278D01*
X148754500Y-93931608D01*
X148759521Y-93896681D01*
X148762707Y-93885828D01*
X148800477Y-93827047D01*
X148864031Y-93798018D01*
X148933186Y-93807956D01*
X148940177Y-93811148D01*
X148976341Y-93836259D01*
X149179349Y-94039266D01*
X149493174Y-94353091D01*
X149514323Y-94381342D01*
X149526931Y-94404431D01*
X149542100Y-94463860D01*
X149542100Y-94560284D01*
X149573305Y-94676743D01*
X149633589Y-94781157D01*
X149718843Y-94866411D01*
X149823257Y-94926695D01*
X149939716Y-94957900D01*
X149939718Y-94957900D01*
X150060282Y-94957900D01*
X150060284Y-94957900D01*
X150104082Y-94946164D01*
X150120332Y-94946203D01*
X150133839Y-94941960D01*
X150139085Y-94941972D01*
X150150432Y-94942242D01*
X150163152Y-94946308D01*
X150168862Y-94946323D01*
X150178761Y-94949028D01*
X150186413Y-94953744D01*
X150216982Y-94963516D01*
X150232229Y-94981983D01*
X150238241Y-94985688D01*
X150242333Y-94994219D01*
X150261468Y-95017394D01*
X150264130Y-95039663D01*
X150268458Y-95048685D01*
X150266800Y-95061990D01*
X150269763Y-95086769D01*
X150269754Y-95086822D01*
X150269652Y-95087427D01*
X150261041Y-95108210D01*
X150259820Y-95118019D01*
X150254174Y-95124787D01*
X150248408Y-95138708D01*
X150247105Y-95140539D01*
X150233755Y-95156325D01*
X150193504Y-95196575D01*
X150165257Y-95217722D01*
X150142172Y-95230329D01*
X150082739Y-95245500D01*
X143028929Y-95245500D01*
X143028897Y-95245499D01*
X143025057Y-95245499D01*
X143010623Y-95245499D01*
X142909377Y-95245499D01*
X142909376Y-95245499D01*
X142909375Y-95245499D01*
X142815832Y-95284247D01*
X140546045Y-97554034D01*
X140517790Y-97575185D01*
X140504069Y-97582677D01*
X140435800Y-97597528D01*
X140435796Y-97597527D01*
X140435796Y-97597528D01*
X140435795Y-97597527D01*
X140422221Y-97596557D01*
X140383612Y-97587434D01*
X140252545Y-97533144D01*
X140252522Y-97533136D01*
X140252515Y-97533134D01*
X140058784Y-97494600D01*
X140058780Y-97494600D01*
X140058777Y-97494600D01*
X139861223Y-97494600D01*
X139861220Y-97494600D01*
X139861215Y-97494600D01*
X139667483Y-97533135D01*
X139667476Y-97533136D01*
X139667453Y-97533144D01*
X139484967Y-97608731D01*
X139484952Y-97608738D01*
X139484946Y-97608742D01*
X139484941Y-97608744D01*
X139320682Y-97718498D01*
X139180998Y-97858182D01*
X139071244Y-98022441D01*
X139071242Y-98022446D01*
X139071238Y-98022452D01*
X139071231Y-98022467D01*
X138995644Y-98204953D01*
X138995636Y-98204976D01*
X138995634Y-98204983D01*
X138957100Y-98398713D01*
X138422898Y-98398713D01*
X138384361Y-98204972D01*
X138384358Y-98204963D01*
X138332265Y-98079197D01*
X138310442Y-98026511D01*
X138310439Y-98026505D01*
X138308762Y-98022456D01*
X138308761Y-98022455D01*
X138308759Y-98022449D01*
X138199073Y-97858292D01*
X138199063Y-97858260D01*
X138199007Y-97858191D01*
X138199007Y-97858192D01*
X138199004Y-97858188D01*
X138199002Y-97858185D01*
X138198999Y-97858182D01*
X138198997Y-97858179D01*
X138059316Y-97718498D01*
X137899421Y-97611661D01*
X137899422Y-97611661D01*
X137895054Y-97608743D01*
X137895053Y-97608742D01*
X137895051Y-97608741D01*
X137895048Y-97608739D01*
X137895043Y-97608737D01*
X137893412Y-97608061D01*
X137893408Y-97608059D01*
X137712545Y-97533144D01*
X137712522Y-97533136D01*
X137712515Y-97533134D01*
X137518784Y-97494600D01*
X137518780Y-97494600D01*
X137518777Y-97494600D01*
X137321223Y-97494600D01*
X137321220Y-97494600D01*
X137321215Y-97494600D01*
X137127483Y-97533135D01*
X137127476Y-97533136D01*
X137127453Y-97533144D01*
X136944967Y-97608731D01*
X136944952Y-97608738D01*
X136944946Y-97608742D01*
X136944941Y-97608744D01*
X136780682Y-97718498D01*
X136640998Y-97858182D01*
X136531244Y-98022441D01*
X136531242Y-98022446D01*
X136531238Y-98022452D01*
X136531231Y-98022467D01*
X136455644Y-98204953D01*
X136455636Y-98204976D01*
X136455634Y-98204983D01*
X136417100Y-98398713D01*
X120250000Y-98398713D01*
X120250000Y-86238507D01*
X127942392Y-86238507D01*
X127961577Y-86359639D01*
X127961578Y-86359643D01*
X128017719Y-86469828D01*
X128017721Y-86469830D01*
X128105169Y-86557278D01*
X128109028Y-86559244D01*
X128215356Y-86613420D01*
X128228291Y-86615468D01*
X128244111Y-86622934D01*
X128244319Y-86623032D01*
X128244373Y-86623081D01*
X128244509Y-86623123D01*
X128248469Y-86625000D01*
X128258634Y-86629819D01*
X128310771Y-86676313D01*
X128314257Y-86681911D01*
X128333000Y-86747461D01*
X128333000Y-87244210D01*
X128332999Y-87244216D01*
X128333000Y-87244219D01*
X128327975Y-87279154D01*
X128323570Y-87294152D01*
X128285811Y-87352910D01*
X128280828Y-87357229D01*
X128224585Y-87383405D01*
X128224637Y-87383563D01*
X128223342Y-87383983D01*
X128219008Y-87386000D01*
X128217681Y-87386210D01*
X128215354Y-87386579D01*
X128105172Y-87442718D01*
X128105166Y-87442723D01*
X128017719Y-87530170D01*
X127961578Y-87640355D01*
X127947100Y-87731777D01*
X127947100Y-88222474D01*
X127942392Y-88238507D01*
X127961577Y-88359639D01*
X127961578Y-88359643D01*
X128017719Y-88469828D01*
X128017721Y-88469830D01*
X128105169Y-88557278D01*
X128137233Y-88573615D01*
X128215356Y-88613420D01*
X128227802Y-88615390D01*
X128243435Y-88622619D01*
X128243736Y-88622882D01*
X128244502Y-88623119D01*
X128258664Y-88629832D01*
X128309859Y-88674832D01*
X128313311Y-88680204D01*
X128333000Y-88747240D01*
X128333000Y-88787739D01*
X128332999Y-88787741D01*
X128333000Y-88787743D01*
X128327976Y-88822678D01*
X128320563Y-88847921D01*
X128289269Y-88900663D01*
X128221088Y-88968844D01*
X128221085Y-88968849D01*
X128160807Y-89073250D01*
X128160806Y-89073251D01*
X128136003Y-89165816D01*
X128136003Y-89165819D01*
X128129600Y-89189716D01*
X128129600Y-89310284D01*
X128160805Y-89426743D01*
X128221089Y-89531157D01*
X128221091Y-89531159D01*
X128284072Y-89594140D01*
X128303851Y-89619948D01*
X128304568Y-89621194D01*
X128311384Y-89633676D01*
X128314951Y-89639227D01*
X128316460Y-89641847D01*
X128323975Y-89672984D01*
X128333000Y-89703717D01*
X128333000Y-89744210D01*
X128327975Y-89779152D01*
X128327393Y-89781135D01*
X128323570Y-89794152D01*
X128285811Y-89852910D01*
X128280828Y-89857229D01*
X128224585Y-89883405D01*
X128224637Y-89883563D01*
X128223342Y-89883983D01*
X128219008Y-89886000D01*
X128217681Y-89886210D01*
X128215354Y-89886579D01*
X128105172Y-89942718D01*
X128105166Y-89942723D01*
X128017719Y-90030170D01*
X127961578Y-90140355D01*
X127947100Y-90231777D01*
X127947100Y-90722474D01*
X127942392Y-90738507D01*
X127961577Y-90859639D01*
X127961578Y-90859643D01*
X128017719Y-90969828D01*
X128017720Y-90969829D01*
X128017721Y-90969830D01*
X128105169Y-91057278D01*
X128141428Y-91075752D01*
X128215356Y-91113420D01*
X128227705Y-91115375D01*
X128243261Y-91122539D01*
X128243613Y-91122846D01*
X128244509Y-91123123D01*
X128248469Y-91125000D01*
X128258634Y-91129819D01*
X128310771Y-91176313D01*
X128314257Y-91181911D01*
X128333000Y-91247461D01*
X128333000Y-91744210D01*
X128332999Y-91744216D01*
X128333000Y-91744219D01*
X128327975Y-91779154D01*
X128323570Y-91794152D01*
X128285811Y-91852910D01*
X128280828Y-91857229D01*
X128224585Y-91883405D01*
X128224637Y-91883563D01*
X128223342Y-91883983D01*
X128219008Y-91886000D01*
X128217681Y-91886210D01*
X128215354Y-91886579D01*
X128105172Y-91942718D01*
X128105166Y-91942723D01*
X128017719Y-92030170D01*
X127961578Y-92140355D01*
X127947100Y-92231777D01*
X127947100Y-92722474D01*
X127942392Y-92738507D01*
X127961577Y-92859639D01*
X127961578Y-92859643D01*
X128017719Y-92969828D01*
X128017721Y-92969830D01*
X128105169Y-93057278D01*
X128152791Y-93081542D01*
X128215356Y-93113420D01*
X128215357Y-93113420D01*
X128215359Y-93113421D01*
X128215358Y-93113421D01*
X128227505Y-93115344D01*
X128227508Y-93115346D01*
X128306772Y-93127900D01*
X128868222Y-93127900D01*
X128868227Y-93127900D01*
X128926771Y-93118626D01*
X128959641Y-93113421D01*
X128959642Y-93113420D01*
X128959644Y-93113420D01*
X129069832Y-93057277D01*
X129157277Y-92969832D01*
X129213420Y-92859644D01*
X129213420Y-92859642D01*
X129213421Y-92859641D01*
X129213422Y-92859631D01*
X129214559Y-92854900D01*
X129214559Y-92854898D01*
X129214563Y-92854879D01*
X129214947Y-92850007D01*
X129227900Y-92768227D01*
X129227900Y-92231771D01*
X129214891Y-92149642D01*
X129213421Y-92140358D01*
X129213420Y-92140356D01*
X129213420Y-92140355D01*
X129157279Y-92030170D01*
X129069832Y-91942723D01*
X129069830Y-91942721D01*
X128959642Y-91886579D01*
X128950361Y-91883564D01*
X128950521Y-91883071D01*
X128930489Y-91876875D01*
X128916362Y-91870177D01*
X128864222Y-91823676D01*
X128860733Y-91818073D01*
X128842000Y-91752537D01*
X128842000Y-91255788D01*
X128847023Y-91220852D01*
X128851427Y-91205854D01*
X128861065Y-91190855D01*
X128866087Y-91173753D01*
X128889199Y-91147079D01*
X128894182Y-91142761D01*
X128950411Y-91116595D01*
X128950360Y-91116436D01*
X128951670Y-91116010D01*
X128955995Y-91113998D01*
X128957116Y-91113820D01*
X128959644Y-91113420D01*
X129069832Y-91057277D01*
X129157277Y-90969832D01*
X129213420Y-90859644D01*
X129213420Y-90859642D01*
X129213421Y-90859641D01*
X129213422Y-90859631D01*
X129214559Y-90854900D01*
X129214559Y-90854898D01*
X129214563Y-90854879D01*
X129214947Y-90850007D01*
X129227900Y-90768227D01*
X129227900Y-90231771D01*
X129214891Y-90149642D01*
X129213421Y-90140358D01*
X129213420Y-90140356D01*
X129213420Y-90140355D01*
X129157279Y-90030170D01*
X129069832Y-89942723D01*
X129069830Y-89942721D01*
X128959642Y-89886579D01*
X128950361Y-89883564D01*
X128950521Y-89883070D01*
X128930485Y-89876873D01*
X128916321Y-89870157D01*
X128865129Y-89825150D01*
X128861682Y-89819786D01*
X128842000Y-89752750D01*
X128842000Y-89712259D01*
X128847022Y-89677326D01*
X128848297Y-89672984D01*
X128854434Y-89652081D01*
X128885728Y-89599339D01*
X128915970Y-89569098D01*
X128953911Y-89531157D01*
X129014195Y-89426743D01*
X129045400Y-89310284D01*
X129045400Y-89189716D01*
X129014195Y-89073257D01*
X128953911Y-88968843D01*
X128890926Y-88905858D01*
X128871143Y-88880043D01*
X128870437Y-88878817D01*
X128863613Y-88866319D01*
X128860054Y-88860782D01*
X128858536Y-88858144D01*
X128851031Y-88827041D01*
X128842000Y-88796278D01*
X128842000Y-88755788D01*
X128847023Y-88720852D01*
X128851427Y-88705854D01*
X128889199Y-88647079D01*
X128894182Y-88642761D01*
X128950411Y-88616595D01*
X128950360Y-88616436D01*
X128951670Y-88616010D01*
X128955995Y-88613998D01*
X128957116Y-88613820D01*
X128959644Y-88613420D01*
X129069832Y-88557277D01*
X129157277Y-88469832D01*
X129213420Y-88359644D01*
X129213420Y-88359642D01*
X129213421Y-88359641D01*
X129213422Y-88359631D01*
X129214559Y-88354900D01*
X129214559Y-88354898D01*
X129214563Y-88354879D01*
X129214947Y-88350007D01*
X129227900Y-88268227D01*
X129227900Y-87731771D01*
X129214891Y-87649642D01*
X129213421Y-87640358D01*
X129213420Y-87640356D01*
X129213420Y-87640355D01*
X129157279Y-87530170D01*
X129069832Y-87442723D01*
X129069830Y-87442721D01*
X128959642Y-87386579D01*
X128950361Y-87383564D01*
X128950521Y-87383071D01*
X128930489Y-87376875D01*
X128916362Y-87370177D01*
X128864222Y-87323676D01*
X128860733Y-87318073D01*
X128842000Y-87252537D01*
X128842000Y-86755788D01*
X128847023Y-86720852D01*
X128851427Y-86705854D01*
X128861065Y-86690855D01*
X128866087Y-86673753D01*
X128889199Y-86647079D01*
X128894182Y-86642761D01*
X128950411Y-86616595D01*
X128950360Y-86616436D01*
X128951670Y-86616010D01*
X128955995Y-86613998D01*
X128957116Y-86613820D01*
X128959644Y-86613420D01*
X129069832Y-86557277D01*
X129157277Y-86469832D01*
X129213420Y-86359644D01*
X129213420Y-86359642D01*
X129213421Y-86359641D01*
X129213422Y-86359631D01*
X129214559Y-86354900D01*
X129214559Y-86354898D01*
X129214563Y-86354879D01*
X129214947Y-86350007D01*
X129227900Y-86268227D01*
X129227900Y-86238507D01*
X129767392Y-86238507D01*
X129786577Y-86359639D01*
X129786578Y-86359643D01*
X129842719Y-86469828D01*
X129842721Y-86469830D01*
X129930169Y-86557278D01*
X129983205Y-86584300D01*
X130040356Y-86613420D01*
X130040357Y-86613420D01*
X130040359Y-86613421D01*
X130040358Y-86613421D01*
X130052505Y-86615344D01*
X130052508Y-86615346D01*
X130131772Y-86627900D01*
X130693222Y-86627900D01*
X130693227Y-86627900D01*
X130751771Y-86618626D01*
X130784641Y-86613421D01*
X130784642Y-86613420D01*
X130784644Y-86613420D01*
X130894832Y-86557277D01*
X130982277Y-86469832D01*
X131038420Y-86359644D01*
X131038420Y-86359639D01*
X131040548Y-86355464D01*
X131042205Y-86351297D01*
X131042488Y-86350698D01*
X131042490Y-86350699D01*
X131052837Y-86328868D01*
X131064703Y-86315562D01*
X131072341Y-86299452D01*
X131099332Y-86276730D01*
X131099334Y-86276727D01*
X131104940Y-86273236D01*
X131170481Y-86254500D01*
X131821191Y-86254500D01*
X131856127Y-86259523D01*
X131871125Y-86263927D01*
X131929896Y-86301694D01*
X131934198Y-86306658D01*
X131955033Y-86351466D01*
X131958558Y-86350324D01*
X131961579Y-86359646D01*
X132017719Y-86469828D01*
X132017721Y-86469830D01*
X132105169Y-86557278D01*
X132158205Y-86584300D01*
X132215356Y-86613420D01*
X132215357Y-86613420D01*
X132215359Y-86613421D01*
X132215358Y-86613421D01*
X132227505Y-86615344D01*
X132227508Y-86615346D01*
X132306772Y-86627900D01*
X132306777Y-86627900D01*
X132306778Y-86627900D01*
X132786291Y-86627900D01*
X132821223Y-86632921D01*
X132846467Y-86640334D01*
X132899213Y-86671630D01*
X133111551Y-86883968D01*
X133111565Y-86883983D01*
X133114676Y-86887094D01*
X133114677Y-86887095D01*
X133193339Y-86965757D01*
X133265680Y-86995720D01*
X133265682Y-86995722D01*
X133281458Y-87002255D01*
X133286877Y-87004500D01*
X133388123Y-87004500D01*
X134825390Y-87004500D01*
X134857895Y-87009173D01*
X134860322Y-87009521D01*
X134885566Y-87016934D01*
X134938312Y-87048230D01*
X136286293Y-88396211D01*
X136307442Y-88424461D01*
X136312863Y-88434388D01*
X136327717Y-88502661D01*
X136303303Y-88568126D01*
X136247371Y-88609999D01*
X136247367Y-88610001D01*
X136240179Y-88612682D01*
X136196845Y-88620500D01*
X135122432Y-88620500D01*
X135122429Y-88620499D01*
X135122428Y-88620500D01*
X135087493Y-88615476D01*
X135074175Y-88611565D01*
X135015398Y-88573789D01*
X134986376Y-88510234D01*
X134986180Y-88508874D01*
X134985901Y-88506929D01*
X134990449Y-88451773D01*
X134991046Y-88449892D01*
X134998748Y-88431114D01*
X135035629Y-88358732D01*
X135042270Y-88316801D01*
X135050000Y-88268001D01*
X135050000Y-88125000D01*
X133775000Y-88125000D01*
X133775000Y-88222248D01*
X133770292Y-88238281D01*
X133789368Y-88358729D01*
X133789369Y-88358732D01*
X133822789Y-88424322D01*
X133828880Y-88438354D01*
X133830097Y-88441711D01*
X133830442Y-88447262D01*
X133833642Y-88457748D01*
X133834159Y-88457651D01*
X133834417Y-88459020D01*
X133834051Y-88459088D01*
X133836258Y-88466322D01*
X133837724Y-88476516D01*
X133833914Y-88503019D01*
X133834439Y-88511446D01*
X133832100Y-88515635D01*
X133827783Y-88545675D01*
X133786443Y-88595508D01*
X133783174Y-88597813D01*
X133729796Y-88619147D01*
X133729606Y-88619175D01*
X133711528Y-88620500D01*
X133637110Y-88620500D01*
X133637109Y-88620499D01*
X133637109Y-88620500D01*
X133602174Y-88615477D01*
X133576932Y-88608065D01*
X133524187Y-88576769D01*
X133276826Y-88329408D01*
X133255674Y-88301152D01*
X133243067Y-88278063D01*
X133227900Y-88218638D01*
X133227900Y-87732003D01*
X133775000Y-87732003D01*
X133775000Y-87875000D01*
X134287500Y-87875000D01*
X134537500Y-87875000D01*
X135050000Y-87875000D01*
X135050000Y-87731997D01*
X135035630Y-87641270D01*
X135035629Y-87641267D01*
X134979904Y-87531900D01*
X134979902Y-87531896D01*
X134979900Y-87531892D01*
X134979897Y-87531888D01*
X134979896Y-87531887D01*
X134979895Y-87531885D01*
X134893113Y-87445103D01*
X134893102Y-87445096D01*
X134783733Y-87389370D01*
X134738364Y-87382185D01*
X134692996Y-87375000D01*
X134692995Y-87375000D01*
X134537500Y-87375000D01*
X134537500Y-87875000D01*
X134287500Y-87875000D01*
X134287500Y-87375000D01*
X134132005Y-87375000D01*
X134132004Y-87375000D01*
X134123619Y-87376328D01*
X134041264Y-87389370D01*
X133931896Y-87445096D01*
X133931885Y-87445103D01*
X133845103Y-87531885D01*
X133845096Y-87531896D01*
X133789370Y-87641265D01*
X133780083Y-87699907D01*
X133775000Y-87732003D01*
X133227900Y-87732003D01*
X133227900Y-87731771D01*
X133214891Y-87649642D01*
X133213421Y-87640358D01*
X133213420Y-87640356D01*
X133213420Y-87640355D01*
X133157279Y-87530170D01*
X133069832Y-87442723D01*
X133069830Y-87442721D01*
X133033464Y-87424192D01*
X133000486Y-87393046D01*
X132868222Y-87372100D01*
X132306778Y-87372100D01*
X132288466Y-87375000D01*
X132215355Y-87386578D01*
X132105170Y-87442719D01*
X132017720Y-87530169D01*
X131977193Y-87609709D01*
X131963225Y-87637122D01*
X131963214Y-87637145D01*
X131959425Y-87644581D01*
X131957775Y-87648738D01*
X131947165Y-87671124D01*
X131935298Y-87684432D01*
X131927665Y-87700539D01*
X131900667Y-87723271D01*
X131895073Y-87726755D01*
X131829519Y-87745500D01*
X131178809Y-87745500D01*
X131143868Y-87740475D01*
X131128869Y-87736070D01*
X131070101Y-87698303D01*
X131065781Y-87693318D01*
X131044921Y-87648496D01*
X131041434Y-87649630D01*
X131038420Y-87640358D01*
X131038420Y-87640356D01*
X130993076Y-87551362D01*
X130982279Y-87530170D01*
X130894832Y-87442723D01*
X130894830Y-87442721D01*
X130858464Y-87424192D01*
X130825486Y-87393046D01*
X130693222Y-87372100D01*
X130131778Y-87372100D01*
X130113466Y-87375000D01*
X130040355Y-87386578D01*
X129930170Y-87442719D01*
X129842719Y-87530170D01*
X129786578Y-87640355D01*
X129772100Y-87731777D01*
X129772100Y-88222474D01*
X129767392Y-88238507D01*
X129786577Y-88359639D01*
X129786578Y-88359643D01*
X129842719Y-88469828D01*
X129842721Y-88469830D01*
X129930169Y-88557278D01*
X129982971Y-88584181D01*
X130040356Y-88613420D01*
X130040357Y-88613420D01*
X130040359Y-88613421D01*
X130040358Y-88613421D01*
X130052505Y-88615344D01*
X130052508Y-88615346D01*
X130131772Y-88627900D01*
X130693222Y-88627900D01*
X130693227Y-88627900D01*
X130751771Y-88618626D01*
X130784641Y-88613421D01*
X130784642Y-88613420D01*
X130784644Y-88613420D01*
X130894832Y-88557277D01*
X130982277Y-88469832D01*
X131038420Y-88359644D01*
X131038420Y-88359639D01*
X131040548Y-88355464D01*
X131042205Y-88351297D01*
X131042488Y-88350698D01*
X131042490Y-88350699D01*
X131052837Y-88328868D01*
X131064703Y-88315562D01*
X131072341Y-88299452D01*
X131099332Y-88276730D01*
X131099334Y-88276727D01*
X131104940Y-88273236D01*
X131170481Y-88254500D01*
X131821191Y-88254500D01*
X131856127Y-88259523D01*
X131871125Y-88263927D01*
X131929896Y-88301694D01*
X131934198Y-88306658D01*
X131955033Y-88351466D01*
X131958558Y-88350324D01*
X131961579Y-88359646D01*
X132017719Y-88469828D01*
X132017721Y-88469830D01*
X132105169Y-88557278D01*
X132157971Y-88584181D01*
X132215356Y-88613420D01*
X132215357Y-88613420D01*
X132215359Y-88613421D01*
X132215358Y-88613421D01*
X132227505Y-88615344D01*
X132227508Y-88615346D01*
X132306772Y-88627900D01*
X132306777Y-88627900D01*
X132306778Y-88627900D01*
X132786290Y-88627900D01*
X132821222Y-88632921D01*
X132846466Y-88640334D01*
X132899212Y-88671630D01*
X133318334Y-89090753D01*
X133318335Y-89090753D01*
X133318337Y-89090755D01*
X133355626Y-89106201D01*
X133385972Y-89124207D01*
X133394538Y-89131109D01*
X133396877Y-89132994D01*
X133436724Y-89190388D01*
X133440237Y-89255892D01*
X133439235Y-89260500D01*
X133405756Y-89321826D01*
X133405748Y-89321833D01*
X132904408Y-89823173D01*
X132876157Y-89844322D01*
X132853069Y-89856930D01*
X132793639Y-89872100D01*
X132306778Y-89872100D01*
X132283923Y-89875719D01*
X132215355Y-89886578D01*
X132105170Y-89942719D01*
X132017720Y-90030169D01*
X131977193Y-90109709D01*
X131963234Y-90137104D01*
X131963214Y-90137145D01*
X131959425Y-90144581D01*
X131957775Y-90148738D01*
X131947165Y-90171124D01*
X131935298Y-90184432D01*
X131927665Y-90200539D01*
X131900667Y-90223271D01*
X131895073Y-90226755D01*
X131829519Y-90245500D01*
X131178809Y-90245500D01*
X131143868Y-90240475D01*
X131128869Y-90236070D01*
X131070101Y-90198303D01*
X131065781Y-90193318D01*
X131044921Y-90148496D01*
X131041434Y-90149630D01*
X131038420Y-90140358D01*
X131038420Y-90140356D01*
X130992428Y-90050090D01*
X130982279Y-90030170D01*
X130894832Y-89942723D01*
X130894830Y-89942721D01*
X130858464Y-89924192D01*
X130825486Y-89893046D01*
X130693222Y-89872100D01*
X130131778Y-89872100D01*
X130108923Y-89875719D01*
X130040355Y-89886578D01*
X129930170Y-89942719D01*
X129842719Y-90030170D01*
X129786578Y-90140355D01*
X129772100Y-90231777D01*
X129772100Y-90722474D01*
X129767392Y-90738507D01*
X129786577Y-90859639D01*
X129786578Y-90859643D01*
X129842719Y-90969828D01*
X129842720Y-90969829D01*
X129842721Y-90969830D01*
X129930169Y-91057278D01*
X129976939Y-91081108D01*
X130040356Y-91113420D01*
X130040357Y-91113420D01*
X130040359Y-91113421D01*
X130040358Y-91113421D01*
X130052507Y-91115345D01*
X130052509Y-91115346D01*
X130131772Y-91127900D01*
X130693222Y-91127900D01*
X130693227Y-91127900D01*
X130751771Y-91118626D01*
X130784641Y-91113421D01*
X130784642Y-91113420D01*
X130784644Y-91113420D01*
X130894832Y-91057277D01*
X130982277Y-90969832D01*
X131038420Y-90859644D01*
X131038420Y-90859639D01*
X131040548Y-90855464D01*
X131042205Y-90851297D01*
X131042488Y-90850698D01*
X131042490Y-90850699D01*
X131052837Y-90828868D01*
X131064703Y-90815562D01*
X131072341Y-90799452D01*
X131099332Y-90776730D01*
X131099334Y-90776727D01*
X131104940Y-90773236D01*
X131170481Y-90754500D01*
X131821191Y-90754500D01*
X131856127Y-90759523D01*
X131871125Y-90763927D01*
X131929896Y-90801694D01*
X131934198Y-90806658D01*
X131955033Y-90851466D01*
X131958558Y-90850324D01*
X131961579Y-90859646D01*
X132017719Y-90969828D01*
X132017720Y-90969829D01*
X132017721Y-90969830D01*
X132105169Y-91057278D01*
X132151939Y-91081108D01*
X132215356Y-91113420D01*
X132215357Y-91113420D01*
X132215359Y-91113421D01*
X132215358Y-91113421D01*
X132227507Y-91115345D01*
X132227509Y-91115346D01*
X132306772Y-91127900D01*
X132868222Y-91127900D01*
X132868227Y-91127900D01*
X132926771Y-91118626D01*
X132959641Y-91113421D01*
X132959642Y-91113420D01*
X132959644Y-91113420D01*
X133069832Y-91057277D01*
X133157277Y-90969832D01*
X133213420Y-90859644D01*
X133213420Y-90859642D01*
X133213421Y-90859641D01*
X133213422Y-90859631D01*
X133214559Y-90854900D01*
X133214559Y-90854898D01*
X133214563Y-90854879D01*
X133214947Y-90850007D01*
X133227900Y-90768227D01*
X133227900Y-90738281D01*
X133770292Y-90738281D01*
X133789368Y-90858728D01*
X133789369Y-90858731D01*
X133845094Y-90968098D01*
X133845103Y-90968113D01*
X133931885Y-91054895D01*
X133931887Y-91054896D01*
X133931888Y-91054897D01*
X133931892Y-91054900D01*
X133957375Y-91067884D01*
X134041267Y-91110629D01*
X134041270Y-91110630D01*
X134131998Y-91125000D01*
X134132003Y-91125000D01*
X134287500Y-91125000D01*
X134537500Y-91125000D01*
X134692996Y-91125000D01*
X134693001Y-91125000D01*
X134783728Y-91110630D01*
X134783730Y-91110629D01*
X134783732Y-91110629D01*
X134893107Y-91054900D01*
X134893111Y-91054897D01*
X134979897Y-90968111D01*
X134979900Y-90968107D01*
X135035629Y-90858732D01*
X135035665Y-90858507D01*
X135050000Y-90768001D01*
X135050000Y-90625000D01*
X134537500Y-90625000D01*
X134537500Y-91125000D01*
X134287500Y-91125000D01*
X134287500Y-90625000D01*
X133775000Y-90625000D01*
X133775000Y-90722248D01*
X133770292Y-90738281D01*
X133227900Y-90738281D01*
X133227900Y-90288707D01*
X133232922Y-90253774D01*
X133240334Y-90228529D01*
X133271628Y-90175787D01*
X133618993Y-89828423D01*
X133647244Y-89807275D01*
X133658525Y-89801115D01*
X133661527Y-89799185D01*
X133728565Y-89779500D01*
X133780299Y-89779500D01*
X133814377Y-89784399D01*
X133815226Y-89784521D01*
X133826079Y-89787707D01*
X133884860Y-89825477D01*
X133913889Y-89889031D01*
X133903949Y-89958190D01*
X133902138Y-89962159D01*
X133900764Y-89965167D01*
X133875648Y-90001342D01*
X133845107Y-90031882D01*
X133845100Y-90031890D01*
X133845096Y-90031896D01*
X133789370Y-90141265D01*
X133780337Y-90198303D01*
X133775000Y-90232003D01*
X133775000Y-90375000D01*
X135050000Y-90375000D01*
X135050000Y-90231997D01*
X135035630Y-90141270D01*
X135035629Y-90141267D01*
X135013234Y-90097314D01*
X134979900Y-90031892D01*
X134979897Y-90031888D01*
X134951794Y-90003785D01*
X134930646Y-89975535D01*
X134925224Y-89965605D01*
X134910373Y-89897334D01*
X134934790Y-89831870D01*
X134990719Y-89790000D01*
X134994596Y-89788554D01*
X134997932Y-89787311D01*
X135041246Y-89779500D01*
X136543390Y-89779500D01*
X136578317Y-89784521D01*
X136589170Y-89787707D01*
X136604170Y-89797345D01*
X136621278Y-89802368D01*
X136632951Y-89815839D01*
X136647951Y-89825477D01*
X136655359Y-89841697D01*
X136667035Y-89855170D01*
X136669572Y-89872814D01*
X136676980Y-89889031D01*
X136674443Y-89906679D01*
X136676982Y-89924328D01*
X136667041Y-89958190D01*
X136665229Y-89962159D01*
X136663855Y-89965167D01*
X136638739Y-90001342D01*
X135193508Y-91446573D01*
X135165257Y-91467722D01*
X135142169Y-91480330D01*
X135082739Y-91495500D01*
X133286877Y-91495500D01*
X133286875Y-91495500D01*
X133286873Y-91495501D01*
X133193339Y-91534242D01*
X133193337Y-91534244D01*
X133127675Y-91599907D01*
X133121745Y-91605837D01*
X133121744Y-91605838D01*
X133113268Y-91614313D01*
X133113265Y-91614316D01*
X132904409Y-91823173D01*
X132876158Y-91844322D01*
X132853070Y-91856930D01*
X132793640Y-91872100D01*
X132306778Y-91872100D01*
X132283923Y-91875719D01*
X132215355Y-91886578D01*
X132105170Y-91942719D01*
X132017720Y-92030169D01*
X131977193Y-92109709D01*
X131963225Y-92137122D01*
X131963214Y-92137145D01*
X131959425Y-92144581D01*
X131957775Y-92148738D01*
X131947165Y-92171124D01*
X131935298Y-92184432D01*
X131927665Y-92200539D01*
X131900667Y-92223271D01*
X131895073Y-92226755D01*
X131829519Y-92245500D01*
X131178809Y-92245500D01*
X131143868Y-92240475D01*
X131128869Y-92236070D01*
X131070101Y-92198303D01*
X131065781Y-92193318D01*
X131044921Y-92148496D01*
X131041434Y-92149630D01*
X131038420Y-92140358D01*
X131038420Y-92140356D01*
X131002113Y-92069098D01*
X130982279Y-92030170D01*
X130894832Y-91942723D01*
X130894830Y-91942721D01*
X130858464Y-91924192D01*
X130825486Y-91893046D01*
X130693222Y-91872100D01*
X130131778Y-91872100D01*
X130108923Y-91875719D01*
X130040355Y-91886578D01*
X129930170Y-91942719D01*
X129842719Y-92030170D01*
X129786578Y-92140355D01*
X129772100Y-92231777D01*
X129772100Y-92722474D01*
X129767392Y-92738507D01*
X129786577Y-92859639D01*
X129786578Y-92859643D01*
X129842719Y-92969828D01*
X129842721Y-92969830D01*
X129930169Y-93057278D01*
X129977791Y-93081542D01*
X130040356Y-93113420D01*
X130040357Y-93113420D01*
X130040359Y-93113421D01*
X130040358Y-93113421D01*
X130052505Y-93115344D01*
X130052508Y-93115346D01*
X130131772Y-93127900D01*
X130693222Y-93127900D01*
X130693227Y-93127900D01*
X130751771Y-93118626D01*
X130784641Y-93113421D01*
X130784642Y-93113420D01*
X130784644Y-93113420D01*
X130894832Y-93057277D01*
X130982277Y-92969832D01*
X131038420Y-92859644D01*
X131038420Y-92859639D01*
X131040548Y-92855464D01*
X131042205Y-92851297D01*
X131042488Y-92850698D01*
X131042490Y-92850699D01*
X131052837Y-92828868D01*
X131064703Y-92815562D01*
X131072341Y-92799452D01*
X131099332Y-92776730D01*
X131099334Y-92776727D01*
X131104940Y-92773236D01*
X131170481Y-92754500D01*
X131821191Y-92754500D01*
X131856127Y-92759523D01*
X131871125Y-92763927D01*
X131929896Y-92801694D01*
X131934198Y-92806658D01*
X131955033Y-92851466D01*
X131958558Y-92850324D01*
X131961579Y-92859646D01*
X132017719Y-92969828D01*
X132017721Y-92969830D01*
X132105169Y-93057278D01*
X132152791Y-93081542D01*
X132215356Y-93113420D01*
X132215357Y-93113420D01*
X132215359Y-93113421D01*
X132215358Y-93113421D01*
X132227505Y-93115344D01*
X132227508Y-93115346D01*
X132306772Y-93127900D01*
X132868222Y-93127900D01*
X132868227Y-93127900D01*
X132926771Y-93118626D01*
X132959641Y-93113421D01*
X132959642Y-93113420D01*
X132959644Y-93113420D01*
X133069832Y-93057277D01*
X133157277Y-92969832D01*
X133213420Y-92859644D01*
X133213420Y-92859642D01*
X133213421Y-92859641D01*
X133213422Y-92859631D01*
X133214559Y-92854900D01*
X133214559Y-92854898D01*
X133214563Y-92854879D01*
X133214947Y-92850007D01*
X133227900Y-92768227D01*
X133227900Y-92738281D01*
X133770292Y-92738281D01*
X133789368Y-92858728D01*
X133789369Y-92858731D01*
X133845094Y-92968098D01*
X133845103Y-92968113D01*
X133931885Y-93054895D01*
X133931887Y-93054896D01*
X133931888Y-93054897D01*
X133931892Y-93054900D01*
X133931900Y-93054904D01*
X134041267Y-93110629D01*
X134041270Y-93110630D01*
X134131998Y-93125000D01*
X134132003Y-93125000D01*
X134287500Y-93125000D01*
X134537500Y-93125000D01*
X134692996Y-93125000D01*
X134693001Y-93125000D01*
X134783728Y-93110630D01*
X134783730Y-93110629D01*
X134783732Y-93110629D01*
X134893107Y-93054900D01*
X134893111Y-93054897D01*
X134979897Y-92968111D01*
X134979900Y-92968107D01*
X135035629Y-92858732D01*
X135036236Y-92854900D01*
X135050000Y-92768001D01*
X135050000Y-92625000D01*
X134537500Y-92625000D01*
X134537500Y-93125000D01*
X134287500Y-93125000D01*
X134287500Y-92625000D01*
X133775000Y-92625000D01*
X133775000Y-92722248D01*
X133770292Y-92738281D01*
X133227900Y-92738281D01*
X133227900Y-92288705D01*
X133232164Y-92256468D01*
X133232530Y-92255107D01*
X133236544Y-92241437D01*
X133237946Y-92234989D01*
X133238732Y-92232073D01*
X133255436Y-92204741D01*
X133270786Y-92176630D01*
X133393992Y-92053424D01*
X133422249Y-92032271D01*
X133437059Y-92024185D01*
X133445335Y-92019665D01*
X133504759Y-92004500D01*
X133648018Y-92004500D01*
X133676878Y-92008649D01*
X133682950Y-92009521D01*
X133696269Y-92013432D01*
X133755047Y-92051206D01*
X133784073Y-92114761D01*
X133784073Y-92114767D01*
X133785925Y-92127651D01*
X133785660Y-92164691D01*
X133775000Y-92231997D01*
X133775000Y-92232004D01*
X133775000Y-92375000D01*
X135050000Y-92375000D01*
X135050000Y-92231999D01*
X135039468Y-92165507D01*
X135038963Y-92130221D01*
X135040742Y-92116454D01*
X135068853Y-92052493D01*
X135127081Y-92013881D01*
X135129298Y-92013196D01*
X135139538Y-92010031D01*
X135176158Y-92004500D01*
X135300622Y-92004500D01*
X135300623Y-92004500D01*
X135364993Y-91977837D01*
X135385698Y-91969261D01*
X135392933Y-91966873D01*
X135396032Y-91965361D01*
X135402784Y-91957133D01*
X135521221Y-91838695D01*
X135549468Y-91817551D01*
X135559396Y-91812130D01*
X135627669Y-91797281D01*
X135693132Y-91821700D01*
X135734999Y-91877626D01*
X135737647Y-91884726D01*
X135737680Y-91884813D01*
X135745500Y-91928152D01*
X135745500Y-93325389D01*
X135740476Y-93360326D01*
X135733064Y-93385567D01*
X135701769Y-93438311D01*
X135146907Y-93993173D01*
X135127567Y-94007651D01*
X135118656Y-94014322D01*
X135095568Y-94026930D01*
X135036138Y-94042100D01*
X134939716Y-94042100D01*
X134823256Y-94073305D01*
X134823255Y-94073305D01*
X134823253Y-94073306D01*
X134823250Y-94073307D01*
X134718853Y-94133582D01*
X134718839Y-94133591D01*
X134718834Y-94133595D01*
X134633595Y-94218834D01*
X134633592Y-94218838D01*
X134633591Y-94218840D01*
X134633589Y-94218843D01*
X134573305Y-94323256D01*
X134573305Y-94323257D01*
X134542100Y-94439716D01*
X134542100Y-94560284D01*
X134573305Y-94676743D01*
X134633589Y-94781157D01*
X134718843Y-94866411D01*
X134823257Y-94926695D01*
X134939716Y-94957900D01*
X134939718Y-94957900D01*
X135060282Y-94957900D01*
X135060284Y-94957900D01*
X135176743Y-94926695D01*
X135281157Y-94866411D01*
X135366411Y-94781157D01*
X135426695Y-94676743D01*
X135457900Y-94560284D01*
X135457900Y-94471207D01*
X135462922Y-94436274D01*
X135465639Y-94427021D01*
X135470334Y-94411029D01*
X135501628Y-94358287D01*
X136021213Y-93838701D01*
X136049473Y-93817548D01*
X136053255Y-93815484D01*
X136053256Y-93815483D01*
X136059100Y-93812293D01*
X136060368Y-93814616D01*
X136062887Y-93813776D01*
X136074370Y-93804842D01*
X136095366Y-93802946D01*
X136115369Y-93796277D01*
X136129469Y-93799867D01*
X136143957Y-93798560D01*
X136162643Y-93808316D01*
X136183078Y-93813520D01*
X136194126Y-93824752D01*
X136205893Y-93830896D01*
X136222876Y-93853982D01*
X136224043Y-93855169D01*
X136224906Y-93854615D01*
X136225811Y-93856023D01*
X136226205Y-93857367D01*
X136227567Y-93858751D01*
X136229206Y-93861624D01*
X136229542Y-93863043D01*
X136230725Y-93864651D01*
X136231459Y-93866116D01*
X136230397Y-93866647D01*
X136236541Y-93892557D01*
X136245500Y-93923061D01*
X136245500Y-94037739D01*
X136240476Y-94072678D01*
X136233063Y-94097921D01*
X136201769Y-94150663D01*
X136133589Y-94218843D01*
X136073305Y-94323256D01*
X136073305Y-94323257D01*
X136042100Y-94439716D01*
X136042100Y-94560284D01*
X136073305Y-94676743D01*
X136133589Y-94781157D01*
X136218843Y-94866411D01*
X136323257Y-94926695D01*
X136439716Y-94957900D01*
X136439718Y-94957900D01*
X136560282Y-94957900D01*
X136560284Y-94957900D01*
X136676743Y-94926695D01*
X136781157Y-94866411D01*
X136866411Y-94781157D01*
X136926695Y-94676743D01*
X136957900Y-94560284D01*
X136957900Y-94439716D01*
X137542100Y-94439716D01*
X137542100Y-94560284D01*
X137573305Y-94676743D01*
X137633589Y-94781157D01*
X137718843Y-94866411D01*
X137823257Y-94926695D01*
X137939716Y-94957900D01*
X137939718Y-94957900D01*
X138060282Y-94957900D01*
X138060284Y-94957900D01*
X138176743Y-94926695D01*
X138281157Y-94866411D01*
X138366411Y-94781157D01*
X138426695Y-94676743D01*
X138457900Y-94560284D01*
X138457900Y-94439716D01*
X138426695Y-94323257D01*
X138366411Y-94218843D01*
X138303425Y-94155857D01*
X138303423Y-94155854D01*
X138303422Y-94155854D01*
X138282272Y-94127599D01*
X138275725Y-94115609D01*
X138274765Y-94113851D01*
X138269666Y-94104511D01*
X138254500Y-94045088D01*
X138254500Y-93424608D01*
X138259522Y-93389675D01*
X138266934Y-93364430D01*
X138298228Y-93311688D01*
X138531494Y-93078422D01*
X138557301Y-93058645D01*
X138558505Y-93057951D01*
X138571025Y-93051115D01*
X138576578Y-93047546D01*
X138579198Y-93046038D01*
X138610328Y-93038525D01*
X138641065Y-93029500D01*
X138643469Y-93029500D01*
X138646140Y-93029883D01*
X138647118Y-93029648D01*
X138648966Y-93030290D01*
X138678397Y-93034521D01*
X138684415Y-93036287D01*
X138691465Y-93038357D01*
X138750244Y-93076128D01*
X138779273Y-93139682D01*
X138772324Y-93201712D01*
X138768626Y-93211361D01*
X138763215Y-93222699D01*
X138763511Y-93222847D01*
X138761771Y-93226325D01*
X138761770Y-93226328D01*
X138750017Y-93285415D01*
X138747100Y-93300085D01*
X138747100Y-93549907D01*
X138761773Y-93623678D01*
X138761774Y-93623680D01*
X138775461Y-93644163D01*
X138817669Y-93707331D01*
X138900725Y-93762827D01*
X138901048Y-93763143D01*
X138901321Y-93763225D01*
X138901323Y-93763227D01*
X138901325Y-93763227D01*
X138901326Y-93763227D01*
X138901327Y-93763228D01*
X138901330Y-93763228D01*
X138907150Y-93764994D01*
X138907160Y-93764997D01*
X138907199Y-93765008D01*
X138913302Y-93765610D01*
X138917847Y-93766513D01*
X138926133Y-93768162D01*
X138975089Y-93777900D01*
X139103671Y-93777899D01*
X139125111Y-93779767D01*
X139134436Y-93781404D01*
X139137267Y-93782804D01*
X139138602Y-93782921D01*
X139142972Y-93784204D01*
X139142687Y-93785173D01*
X139158754Y-93789274D01*
X139159013Y-93788582D01*
X139161862Y-93789644D01*
X139162721Y-93790287D01*
X139164515Y-93790745D01*
X139167221Y-93791981D01*
X139166651Y-93793227D01*
X139178560Y-93802139D01*
X139188305Y-93804998D01*
X139192939Y-93810343D01*
X139197062Y-93812383D01*
X139200979Y-93818915D01*
X139213059Y-93827954D01*
X139214085Y-93827066D01*
X139215001Y-93828123D01*
X139215892Y-93830074D01*
X139217804Y-93831505D01*
X139217829Y-93831538D01*
X139219655Y-93833978D01*
X139218180Y-93835081D01*
X139222407Y-93844332D01*
X139234074Y-93857790D01*
X139244026Y-93891651D01*
X139244233Y-93893088D01*
X139245500Y-93910768D01*
X139245500Y-94037739D01*
X139240476Y-94072678D01*
X139233063Y-94097921D01*
X139201769Y-94150663D01*
X139133589Y-94218843D01*
X139073305Y-94323256D01*
X139073305Y-94323257D01*
X139042100Y-94439716D01*
X139042100Y-94560284D01*
X139073305Y-94676743D01*
X139133589Y-94781157D01*
X139218843Y-94866411D01*
X139323257Y-94926695D01*
X139439716Y-94957900D01*
X139439718Y-94957900D01*
X139560282Y-94957900D01*
X139560284Y-94957900D01*
X139676743Y-94926695D01*
X139781157Y-94866411D01*
X139866411Y-94781157D01*
X139926695Y-94676743D01*
X139957900Y-94560284D01*
X139957900Y-94439716D01*
X139926695Y-94323257D01*
X139866411Y-94218843D01*
X139803425Y-94155857D01*
X139783643Y-94130043D01*
X139782937Y-94128817D01*
X139776113Y-94116319D01*
X139772554Y-94110782D01*
X139771036Y-94108144D01*
X139763531Y-94077041D01*
X139754500Y-94046278D01*
X139754500Y-93919728D01*
X139759523Y-93884792D01*
X139763927Y-93869794D01*
X139801672Y-93811043D01*
X139803041Y-93809856D01*
X139857920Y-93782376D01*
X139865479Y-93780732D01*
X139891832Y-93777899D01*
X140299908Y-93777899D01*
X140299910Y-93777899D01*
X140373677Y-93763227D01*
X140457331Y-93707331D01*
X140513227Y-93623677D01*
X140527900Y-93549911D01*
X140527899Y-93300090D01*
X140513227Y-93226323D01*
X140513226Y-93226321D01*
X140513225Y-93226319D01*
X140484263Y-93182975D01*
X140483763Y-93182202D01*
X140483318Y-93180706D01*
X140469523Y-93151871D01*
X140464852Y-93136951D01*
X140464502Y-93117388D01*
X140463860Y-93115227D01*
X140464428Y-93113266D01*
X140463604Y-93067107D01*
X140467207Y-93053970D01*
X140483684Y-93017889D01*
X140513227Y-92973677D01*
X140513993Y-92969830D01*
X140527899Y-92899914D01*
X140527900Y-92899911D01*
X140527899Y-92650090D01*
X140527898Y-92650085D01*
X144472100Y-92650085D01*
X144472100Y-92899907D01*
X144485665Y-92968107D01*
X144486773Y-92973677D01*
X144508452Y-93006123D01*
X144515242Y-93016284D01*
X144529477Y-93046038D01*
X144530473Y-93048119D01*
X144535145Y-93063039D01*
X144536395Y-93132893D01*
X144532824Y-93145914D01*
X144532794Y-93146022D01*
X144516312Y-93182114D01*
X144486777Y-93226315D01*
X144486774Y-93226321D01*
X144486772Y-93226323D01*
X144486770Y-93226328D01*
X144475017Y-93285415D01*
X144472100Y-93300085D01*
X144472100Y-93549907D01*
X144486773Y-93623678D01*
X144486774Y-93623680D01*
X144500461Y-93644163D01*
X144542669Y-93707331D01*
X144625725Y-93762827D01*
X144626048Y-93763143D01*
X144626321Y-93763225D01*
X144626323Y-93763227D01*
X144626325Y-93763227D01*
X144626326Y-93763227D01*
X144626327Y-93763228D01*
X144626330Y-93763228D01*
X144632154Y-93764995D01*
X144632156Y-93764996D01*
X144632196Y-93765008D01*
X144638298Y-93765609D01*
X144663206Y-93770563D01*
X144700089Y-93777900D01*
X145103675Y-93777899D01*
X145125118Y-93779767D01*
X145134436Y-93781403D01*
X145137265Y-93782802D01*
X145138599Y-93782919D01*
X145142970Y-93784202D01*
X145142684Y-93785175D01*
X145158747Y-93789276D01*
X145159007Y-93788580D01*
X145161859Y-93789643D01*
X145162727Y-93790292D01*
X145164530Y-93790753D01*
X145167237Y-93791990D01*
X145166665Y-93793239D01*
X145178559Y-93802139D01*
X145188305Y-93804998D01*
X145192940Y-93810345D01*
X145197062Y-93812384D01*
X145200977Y-93818913D01*
X145213060Y-93827954D01*
X145214085Y-93827066D01*
X145215001Y-93828123D01*
X145215891Y-93830072D01*
X145217802Y-93831502D01*
X145217835Y-93831546D01*
X145219660Y-93833985D01*
X145218183Y-93835089D01*
X145222407Y-93844332D01*
X145234074Y-93857790D01*
X145244026Y-93891651D01*
X145244233Y-93893088D01*
X145245500Y-93910768D01*
X145245500Y-94037739D01*
X145240476Y-94072678D01*
X145233063Y-94097921D01*
X145201769Y-94150663D01*
X145133589Y-94218843D01*
X145073305Y-94323256D01*
X145073305Y-94323257D01*
X145042100Y-94439716D01*
X145042100Y-94560284D01*
X145073305Y-94676743D01*
X145133589Y-94781157D01*
X145218843Y-94866411D01*
X145323257Y-94926695D01*
X145439716Y-94957900D01*
X145439718Y-94957900D01*
X145560282Y-94957900D01*
X145560284Y-94957900D01*
X145676743Y-94926695D01*
X145781157Y-94866411D01*
X145866411Y-94781157D01*
X145926695Y-94676743D01*
X145957900Y-94560284D01*
X145957900Y-94439716D01*
X145926695Y-94323257D01*
X145866411Y-94218843D01*
X145803425Y-94155857D01*
X145783643Y-94130043D01*
X145782937Y-94128817D01*
X145776113Y-94116319D01*
X145772554Y-94110782D01*
X145771036Y-94108144D01*
X145763531Y-94077041D01*
X145754500Y-94046278D01*
X145754500Y-93919728D01*
X145759523Y-93884792D01*
X145763927Y-93869794D01*
X145801672Y-93811043D01*
X145803041Y-93809856D01*
X145857920Y-93782376D01*
X145865479Y-93780732D01*
X145891832Y-93777899D01*
X146024908Y-93777899D01*
X146024910Y-93777899D01*
X146098677Y-93763227D01*
X146182331Y-93707331D01*
X146238227Y-93623677D01*
X146252900Y-93549911D01*
X146252899Y-93300090D01*
X146238227Y-93226323D01*
X146238224Y-93226319D01*
X146238223Y-93226317D01*
X146236503Y-93222464D01*
X146234531Y-93217792D01*
X146232797Y-93213439D01*
X146232563Y-93212691D01*
X146232445Y-93212554D01*
X146229357Y-93204802D01*
X146229042Y-93201448D01*
X146228742Y-93200488D01*
X146228946Y-93200423D01*
X146228590Y-93196620D01*
X146224515Y-93184557D01*
X146223409Y-93184809D01*
X146222965Y-93182855D01*
X146223116Y-93180417D01*
X146221818Y-93176573D01*
X146221590Y-93174988D01*
X146223471Y-93174717D01*
X146224287Y-93161604D01*
X146221958Y-93153651D01*
X146223933Y-93146938D01*
X146222837Y-93135237D01*
X146226351Y-93128448D01*
X146227306Y-93113120D01*
X146238290Y-93098159D01*
X146241686Y-93086625D01*
X146253137Y-93076715D01*
X146254962Y-93073191D01*
X146257840Y-93071535D01*
X146263766Y-93063464D01*
X146262480Y-93062036D01*
X146262964Y-93061600D01*
X146266318Y-93059989D01*
X146268659Y-93056802D01*
X146268741Y-93056740D01*
X146270332Y-93055528D01*
X146271745Y-93057383D01*
X146280126Y-93053358D01*
X146294519Y-93040904D01*
X146324127Y-93032230D01*
X146325949Y-93031356D01*
X146328318Y-93030992D01*
X146329411Y-93030835D01*
X146330004Y-93030751D01*
X146347572Y-93029500D01*
X146350390Y-93029500D01*
X146385322Y-93034521D01*
X146410566Y-93041934D01*
X146463312Y-93073230D01*
X146696575Y-93306492D01*
X146717723Y-93334742D01*
X146730331Y-93357831D01*
X146745500Y-93417260D01*
X146745500Y-94037739D01*
X146740476Y-94072678D01*
X146733063Y-94097921D01*
X146701769Y-94150663D01*
X146633589Y-94218843D01*
X146573305Y-94323256D01*
X146573305Y-94323257D01*
X146542100Y-94439716D01*
X146542100Y-94560284D01*
X146573305Y-94676743D01*
X146633589Y-94781157D01*
X146718843Y-94866411D01*
X146823257Y-94926695D01*
X146939716Y-94957900D01*
X146939718Y-94957900D01*
X147060282Y-94957900D01*
X147060284Y-94957900D01*
X147176743Y-94926695D01*
X147281157Y-94866411D01*
X147366411Y-94781157D01*
X147426695Y-94676743D01*
X147457900Y-94560284D01*
X147457900Y-94439716D01*
X147426695Y-94323257D01*
X147366411Y-94218843D01*
X147303425Y-94155857D01*
X147303423Y-94155854D01*
X147303422Y-94155854D01*
X147282272Y-94127599D01*
X147275725Y-94115609D01*
X147274765Y-94113851D01*
X147269666Y-94104511D01*
X147254500Y-94045088D01*
X147254500Y-93199378D01*
X147246766Y-93180706D01*
X147215757Y-93105839D01*
X147137098Y-93027180D01*
X147137091Y-93027174D01*
X147135415Y-93025498D01*
X147135415Y-93025497D01*
X147135401Y-93025484D01*
X146905889Y-92795972D01*
X146683644Y-92573726D01*
X146683643Y-92573725D01*
X146669163Y-92559245D01*
X146669162Y-92559244D01*
X146669160Y-92559242D01*
X146575959Y-92520639D01*
X146575724Y-92520523D01*
X146575625Y-92520500D01*
X146575624Y-92520500D01*
X146575623Y-92520500D01*
X146575621Y-92520500D01*
X146353043Y-92520500D01*
X146353039Y-92520499D01*
X146353038Y-92520500D01*
X146318103Y-92515476D01*
X146305034Y-92511638D01*
X146246258Y-92473861D01*
X146217235Y-92410304D01*
X146224184Y-92348295D01*
X146227629Y-92339304D01*
X146234053Y-92325241D01*
X146235491Y-92322547D01*
X146235495Y-92322543D01*
X146235496Y-92322542D01*
X146249925Y-92250000D01*
X144485388Y-92250000D01*
X144534710Y-92389160D01*
X144541646Y-92423763D01*
X144542194Y-92433710D01*
X144540602Y-92433797D01*
X144538336Y-92455012D01*
X144538552Y-92458924D01*
X144537772Y-92460298D01*
X144535097Y-92485347D01*
X144536633Y-92485769D01*
X144534529Y-92493435D01*
X144534143Y-92494279D01*
X144534142Y-92494291D01*
X144531656Y-92500307D01*
X144531432Y-92500214D01*
X144518054Y-92529506D01*
X144486773Y-92576321D01*
X144486772Y-92576324D01*
X144486771Y-92576327D01*
X144472100Y-92650085D01*
X140527898Y-92650085D01*
X140513227Y-92576323D01*
X140513226Y-92576321D01*
X140513225Y-92576318D01*
X140511493Y-92573726D01*
X140483013Y-92531103D01*
X140467781Y-92499269D01*
X140463914Y-92486921D01*
X140460999Y-92477613D01*
X140456945Y-92420631D01*
X140457545Y-92416946D01*
X140459759Y-92408310D01*
X140459750Y-92407757D01*
X140460009Y-92407336D01*
X140463053Y-92395467D01*
X140514612Y-92250000D01*
X140514611Y-92250000D01*
X138750075Y-92250000D01*
X138764726Y-92323666D01*
X138772329Y-92341791D01*
X138777285Y-92357619D01*
X138778532Y-92427478D01*
X138741812Y-92486921D01*
X138686396Y-92515596D01*
X138678342Y-92517424D01*
X138650896Y-92520500D01*
X138424371Y-92520500D01*
X138411646Y-92525772D01*
X138411644Y-92525773D01*
X138396979Y-92531848D01*
X138330840Y-92559244D01*
X138330835Y-92559246D01*
X138259250Y-92630832D01*
X138259244Y-92630838D01*
X138251781Y-92638300D01*
X137874714Y-93015367D01*
X137820951Y-93069128D01*
X137820952Y-93069128D01*
X137784242Y-93105837D01*
X137745502Y-93199370D01*
X137745500Y-93199378D01*
X137745500Y-94037739D01*
X137745499Y-94037741D01*
X137745500Y-94037743D01*
X137740476Y-94072678D01*
X137733063Y-94097921D01*
X137701769Y-94150663D01*
X137633589Y-94218843D01*
X137573305Y-94323256D01*
X137573305Y-94323257D01*
X137542100Y-94439716D01*
X136957900Y-94439716D01*
X136926695Y-94323257D01*
X136866411Y-94218843D01*
X136803425Y-94155857D01*
X136803423Y-94155854D01*
X136803422Y-94155854D01*
X136782272Y-94127599D01*
X136775725Y-94115609D01*
X136774765Y-94113851D01*
X136769666Y-94104511D01*
X136754500Y-94045088D01*
X136754500Y-92174608D01*
X136759522Y-92139675D01*
X136760272Y-92137122D01*
X136766934Y-92114430D01*
X136798228Y-92061688D01*
X137081498Y-91778418D01*
X137109743Y-91757275D01*
X137132835Y-91744667D01*
X137192260Y-91729500D01*
X138646957Y-91729500D01*
X138681891Y-91734523D01*
X138694959Y-91738360D01*
X138753737Y-91776134D01*
X138782763Y-91839689D01*
X138775813Y-91901711D01*
X138772380Y-91910669D01*
X138765952Y-91924744D01*
X138764503Y-91927454D01*
X138750075Y-92000000D01*
X140524925Y-92000000D01*
X140524925Y-91999999D01*
X140510496Y-91927456D01*
X140507606Y-91922049D01*
X140503710Y-91917302D01*
X140501356Y-91913779D01*
X140483010Y-91886322D01*
X140467778Y-91854483D01*
X140463107Y-91839563D01*
X140462789Y-91821743D01*
X140462134Y-91819651D01*
X140462714Y-91817536D01*
X140461861Y-91769711D01*
X140463681Y-91763078D01*
X140465463Y-91756581D01*
X140481940Y-91720499D01*
X140513227Y-91673677D01*
X140527900Y-91599911D01*
X140527899Y-91350090D01*
X140513227Y-91276323D01*
X140513226Y-91276321D01*
X140513225Y-91276319D01*
X140484263Y-91232975D01*
X140483763Y-91232202D01*
X140483318Y-91230706D01*
X140469523Y-91201871D01*
X140464852Y-91186951D01*
X140464502Y-91167388D01*
X140463860Y-91165227D01*
X140464428Y-91163266D01*
X140463604Y-91117107D01*
X140467207Y-91103970D01*
X140483684Y-91067889D01*
X140513227Y-91023677D01*
X140527900Y-90949911D01*
X140527899Y-90700090D01*
X140513227Y-90626323D01*
X140513226Y-90626321D01*
X140513225Y-90626319D01*
X140484263Y-90582975D01*
X140483763Y-90582202D01*
X140483318Y-90580706D01*
X140469523Y-90551871D01*
X140464852Y-90536951D01*
X140464502Y-90517388D01*
X140463860Y-90515227D01*
X140464428Y-90513266D01*
X140463604Y-90467107D01*
X140467207Y-90453970D01*
X140483684Y-90417889D01*
X140513227Y-90373677D01*
X140513454Y-90372540D01*
X140527899Y-90299914D01*
X140527900Y-90299911D01*
X140527899Y-90050090D01*
X140513227Y-89976323D01*
X140513226Y-89976321D01*
X140513225Y-89976319D01*
X140484263Y-89932975D01*
X140483763Y-89932202D01*
X140483318Y-89930706D01*
X140469523Y-89901871D01*
X140464852Y-89886951D01*
X140464502Y-89867388D01*
X140463860Y-89865227D01*
X140464428Y-89863266D01*
X140463604Y-89817107D01*
X140467207Y-89803970D01*
X140483684Y-89767889D01*
X140513227Y-89723677D01*
X140527900Y-89649911D01*
X140527899Y-89400090D01*
X140513227Y-89326323D01*
X140513226Y-89326321D01*
X140513225Y-89326319D01*
X140484263Y-89282975D01*
X140483763Y-89282202D01*
X140483318Y-89280706D01*
X140469523Y-89251871D01*
X140464852Y-89236951D01*
X140464502Y-89217388D01*
X140463860Y-89215227D01*
X140464428Y-89213266D01*
X140463604Y-89167107D01*
X140467207Y-89153970D01*
X140483684Y-89117889D01*
X140513227Y-89073677D01*
X140513318Y-89073224D01*
X140527899Y-88999914D01*
X140527900Y-88999911D01*
X140527899Y-88750090D01*
X140513227Y-88676323D01*
X140513226Y-88676321D01*
X140513225Y-88676319D01*
X140484263Y-88632975D01*
X140483763Y-88632202D01*
X140483318Y-88630706D01*
X140469523Y-88601871D01*
X140464852Y-88586951D01*
X140464502Y-88567388D01*
X140463860Y-88565227D01*
X140464428Y-88563266D01*
X140463604Y-88517107D01*
X140467207Y-88503970D01*
X140483684Y-88467889D01*
X140513227Y-88423677D01*
X140516183Y-88408819D01*
X140525323Y-88362864D01*
X140527900Y-88349911D01*
X140527899Y-88100090D01*
X140513227Y-88026323D01*
X140513226Y-88026321D01*
X140513225Y-88026319D01*
X140484263Y-87982975D01*
X140483763Y-87982202D01*
X140483318Y-87980706D01*
X140469523Y-87951871D01*
X140464852Y-87936951D01*
X140464502Y-87917388D01*
X140463860Y-87915227D01*
X140464428Y-87913266D01*
X140463604Y-87867107D01*
X140467207Y-87853970D01*
X140483684Y-87817889D01*
X140513227Y-87773677D01*
X140527900Y-87699911D01*
X140527899Y-87450090D01*
X140513227Y-87376323D01*
X140513226Y-87376321D01*
X140513225Y-87376319D01*
X140481659Y-87329079D01*
X140457331Y-87292669D01*
X140457330Y-87292668D01*
X140373679Y-87236774D01*
X140373677Y-87236773D01*
X140373675Y-87236772D01*
X140373672Y-87236771D01*
X140373669Y-87236770D01*
X140373660Y-87236767D01*
X140299919Y-87222100D01*
X140299915Y-87222100D01*
X140299911Y-87222100D01*
X140033833Y-87222100D01*
X140012381Y-87220230D01*
X140003050Y-87218591D01*
X140000220Y-87217190D01*
X139998892Y-87217075D01*
X139994520Y-87215791D01*
X139994803Y-87214824D01*
X139978690Y-87210711D01*
X139978435Y-87211397D01*
X139975587Y-87210334D01*
X139974747Y-87209705D01*
X139972999Y-87209259D01*
X139970292Y-87208023D01*
X139970854Y-87206790D01*
X139958878Y-87197823D01*
X139949123Y-87194955D01*
X139944509Y-87189625D01*
X139940427Y-87187606D01*
X139936512Y-87181077D01*
X139924434Y-87172033D01*
X139923407Y-87172924D01*
X139922492Y-87171868D01*
X139921597Y-87169909D01*
X139919684Y-87168477D01*
X139917858Y-87166038D01*
X139919327Y-87164937D01*
X139915077Y-87155630D01*
X139903390Y-87142132D01*
X139893488Y-87108357D01*
X139893468Y-87108312D01*
X139893461Y-87108263D01*
X139893255Y-87106826D01*
X139892000Y-87089230D01*
X139892000Y-86949608D01*
X139897022Y-86914675D01*
X139904434Y-86889430D01*
X139935727Y-86836690D01*
X140095598Y-86676819D01*
X140096210Y-86676362D01*
X140123844Y-86655675D01*
X140146936Y-86643067D01*
X140206361Y-86627900D01*
X140693227Y-86627900D01*
X140751771Y-86618626D01*
X140784641Y-86613421D01*
X140784642Y-86613420D01*
X140784644Y-86613420D01*
X140894832Y-86557277D01*
X140982277Y-86469832D01*
X141038420Y-86359644D01*
X141038420Y-86359642D01*
X141038421Y-86359641D01*
X141038422Y-86359631D01*
X141039559Y-86354900D01*
X141039559Y-86354898D01*
X141039563Y-86354879D01*
X141039947Y-86350007D01*
X141052900Y-86268227D01*
X141052900Y-85938281D01*
X147370292Y-85938281D01*
X147389368Y-86058728D01*
X147389369Y-86058731D01*
X147445094Y-86168098D01*
X147445103Y-86168113D01*
X147531885Y-86254895D01*
X147531887Y-86254896D01*
X147531888Y-86254897D01*
X147531892Y-86254900D01*
X147540013Y-86259038D01*
X147641267Y-86310629D01*
X147641270Y-86310630D01*
X147731998Y-86325000D01*
X147732003Y-86325000D01*
X147875000Y-86325000D01*
X148125000Y-86325000D01*
X148267996Y-86325000D01*
X148268001Y-86325000D01*
X148358728Y-86310630D01*
X148358730Y-86310629D01*
X148358732Y-86310629D01*
X148468107Y-86254900D01*
X148468111Y-86254897D01*
X148554897Y-86168111D01*
X148554900Y-86168107D01*
X148610629Y-86058732D01*
X148610630Y-86058728D01*
X148625000Y-85968001D01*
X148625000Y-85938281D01*
X149370292Y-85938281D01*
X149389368Y-86058728D01*
X149389369Y-86058731D01*
X149445094Y-86168098D01*
X149445103Y-86168113D01*
X149531885Y-86254895D01*
X149531887Y-86254896D01*
X149531888Y-86254897D01*
X149531892Y-86254900D01*
X149540013Y-86259038D01*
X149641267Y-86310629D01*
X149641270Y-86310630D01*
X149731998Y-86325000D01*
X149732003Y-86325000D01*
X149875000Y-86325000D01*
X150125000Y-86325000D01*
X150267996Y-86325000D01*
X150268001Y-86325000D01*
X150358728Y-86310630D01*
X150358730Y-86310629D01*
X150358732Y-86310629D01*
X150468107Y-86254900D01*
X150468111Y-86254897D01*
X150554897Y-86168111D01*
X150554900Y-86168107D01*
X150610629Y-86058732D01*
X150610630Y-86058728D01*
X150625000Y-85968001D01*
X150625000Y-85762500D01*
X150125000Y-85762500D01*
X150125000Y-86325000D01*
X149875000Y-86325000D01*
X149875000Y-85762500D01*
X149375000Y-85762500D01*
X149375000Y-85922248D01*
X149370292Y-85938281D01*
X148625000Y-85938281D01*
X148625000Y-85762500D01*
X148125000Y-85762500D01*
X148125000Y-86325000D01*
X147875000Y-86325000D01*
X147875000Y-85762500D01*
X147375000Y-85762500D01*
X147375000Y-85922248D01*
X147370292Y-85938281D01*
X141052900Y-85938281D01*
X141052900Y-85731777D01*
X141038421Y-85640359D01*
X141038421Y-85640358D01*
X141010348Y-85585262D01*
X141010347Y-85585260D01*
X141009337Y-85583279D01*
X140982278Y-85530169D01*
X140894830Y-85442721D01*
X140858464Y-85424192D01*
X140825486Y-85393046D01*
X140693222Y-85372100D01*
X140131778Y-85372100D01*
X140113466Y-85375000D01*
X140040355Y-85386578D01*
X139930170Y-85442719D01*
X139842719Y-85530170D01*
X139786578Y-85640355D01*
X139772100Y-85731777D01*
X139772100Y-86211289D01*
X139772099Y-86211291D01*
X139772100Y-86211293D01*
X139767076Y-86246228D01*
X139759664Y-86271468D01*
X139728369Y-86324210D01*
X139472837Y-86579740D01*
X139472766Y-86579816D01*
X139421741Y-86630839D01*
X139383002Y-86724370D01*
X139383000Y-86724378D01*
X139383000Y-87080270D01*
X139382999Y-87080276D01*
X139383000Y-87080279D01*
X139377975Y-87115214D01*
X139373570Y-87130212D01*
X139335827Y-87188955D01*
X139335792Y-87188985D01*
X139335791Y-87188987D01*
X139335789Y-87188987D01*
X139334458Y-87190142D01*
X139279597Y-87217618D01*
X139272039Y-87219263D01*
X139245668Y-87222100D01*
X138975092Y-87222100D01*
X138938206Y-87229436D01*
X138901320Y-87236773D01*
X138901318Y-87236774D01*
X138817668Y-87292669D01*
X138761774Y-87376321D01*
X138761772Y-87376323D01*
X138761770Y-87376328D01*
X138758445Y-87393046D01*
X138747100Y-87450085D01*
X138747100Y-87699907D01*
X138761773Y-87773678D01*
X138761774Y-87773679D01*
X138765368Y-87782355D01*
X138769143Y-87792758D01*
X138773796Y-87807617D01*
X138775044Y-87877475D01*
X138738326Y-87936919D01*
X138682901Y-87965598D01*
X138674845Y-87967426D01*
X138647406Y-87970500D01*
X136649610Y-87970500D01*
X136614674Y-87965477D01*
X136589432Y-87958065D01*
X136536687Y-87926769D01*
X135144163Y-86534245D01*
X135144161Y-86534243D01*
X135120605Y-86524486D01*
X135090256Y-86506478D01*
X135078083Y-86496668D01*
X135038237Y-86439277D01*
X135038236Y-86439273D01*
X135036850Y-86435108D01*
X135031705Y-86378753D01*
X135032156Y-86375534D01*
X135034925Y-86363570D01*
X135034492Y-86363466D01*
X135035628Y-86358731D01*
X135035629Y-86358729D01*
X135050000Y-86267996D01*
X135050000Y-86238281D01*
X137945292Y-86238281D01*
X137964368Y-86358728D01*
X137964369Y-86358731D01*
X138020094Y-86468098D01*
X138020103Y-86468113D01*
X138106885Y-86554895D01*
X138106887Y-86554896D01*
X138106888Y-86554897D01*
X138106892Y-86554900D01*
X138106900Y-86554904D01*
X138216267Y-86610629D01*
X138216270Y-86610630D01*
X138306998Y-86625000D01*
X138307003Y-86625000D01*
X138462500Y-86625000D01*
X138712500Y-86625000D01*
X138867996Y-86625000D01*
X138868001Y-86625000D01*
X138958728Y-86610630D01*
X138958730Y-86610629D01*
X138958732Y-86610629D01*
X139068107Y-86554900D01*
X139068111Y-86554897D01*
X139154897Y-86468111D01*
X139154900Y-86468107D01*
X139210629Y-86358732D01*
X139210629Y-86358730D01*
X139210630Y-86358728D01*
X139225000Y-86268001D01*
X139225000Y-86125000D01*
X138712500Y-86125000D01*
X138712500Y-86625000D01*
X138462500Y-86625000D01*
X138462500Y-86125000D01*
X137950000Y-86125000D01*
X137950000Y-86222248D01*
X137945292Y-86238281D01*
X135050000Y-86238281D01*
X135050000Y-86125000D01*
X133775000Y-86125000D01*
X133775000Y-86268000D01*
X133785531Y-86334491D01*
X133786702Y-86363277D01*
X133786453Y-86366554D01*
X133785925Y-86370641D01*
X133786067Y-86371632D01*
X133785554Y-86378396D01*
X133774948Y-86406453D01*
X133766700Y-86435304D01*
X133762721Y-86438801D01*
X133760850Y-86443753D01*
X133736788Y-86461601D01*
X133714243Y-86481423D01*
X133708890Y-86483915D01*
X133705779Y-86484603D01*
X133704734Y-86485379D01*
X133701207Y-86485615D01*
X133656557Y-86495500D01*
X133512109Y-86495500D01*
X133477173Y-86490477D01*
X133451931Y-86483065D01*
X133399186Y-86451769D01*
X133276826Y-86329409D01*
X133276821Y-86329404D01*
X133255674Y-86301153D01*
X133243067Y-86278064D01*
X133227900Y-86218639D01*
X133227900Y-85732003D01*
X133775000Y-85732003D01*
X133775000Y-85875000D01*
X134287500Y-85875000D01*
X134537500Y-85875000D01*
X135050000Y-85875000D01*
X135050000Y-85732003D01*
X137950000Y-85732003D01*
X137950000Y-85875000D01*
X138462500Y-85875000D01*
X138712500Y-85875000D01*
X139225000Y-85875000D01*
X139225000Y-85731997D01*
X139210630Y-85641270D01*
X139210629Y-85641267D01*
X139154904Y-85531900D01*
X139154902Y-85531896D01*
X139154900Y-85531892D01*
X139154897Y-85531888D01*
X139154896Y-85531887D01*
X139154895Y-85531885D01*
X139068113Y-85445103D01*
X139068102Y-85445096D01*
X138958733Y-85389370D01*
X138913364Y-85382185D01*
X138867996Y-85375000D01*
X138867995Y-85375000D01*
X138712500Y-85375000D01*
X138712500Y-85875000D01*
X138462500Y-85875000D01*
X138462500Y-85375000D01*
X138307005Y-85375000D01*
X138307004Y-85375000D01*
X138284319Y-85378592D01*
X138216264Y-85389370D01*
X138106896Y-85445096D01*
X138106885Y-85445103D01*
X138020103Y-85531885D01*
X138020096Y-85531896D01*
X137964370Y-85641265D01*
X137955337Y-85698303D01*
X137950000Y-85732003D01*
X135050000Y-85732003D01*
X135050000Y-85731997D01*
X135035630Y-85641270D01*
X135035629Y-85641267D01*
X134979904Y-85531900D01*
X134979902Y-85531896D01*
X134979900Y-85531892D01*
X134979897Y-85531888D01*
X134979896Y-85531887D01*
X134979895Y-85531885D01*
X134893113Y-85445103D01*
X134893102Y-85445096D01*
X134783733Y-85389370D01*
X134738364Y-85382185D01*
X134692996Y-85375000D01*
X134692995Y-85375000D01*
X134537500Y-85375000D01*
X134537500Y-85875000D01*
X134287500Y-85875000D01*
X134287500Y-85375000D01*
X134132005Y-85375000D01*
X134132004Y-85375000D01*
X134109319Y-85378592D01*
X134041264Y-85389370D01*
X133931896Y-85445096D01*
X133931885Y-85445103D01*
X133845103Y-85531885D01*
X133845096Y-85531896D01*
X133789370Y-85641265D01*
X133780337Y-85698303D01*
X133775000Y-85732003D01*
X133227900Y-85732003D01*
X133227900Y-85731771D01*
X133214891Y-85649642D01*
X133213421Y-85640358D01*
X133213420Y-85640356D01*
X133213420Y-85640355D01*
X133157279Y-85530170D01*
X133069832Y-85442723D01*
X133069830Y-85442721D01*
X133033464Y-85424192D01*
X133000486Y-85393046D01*
X132868222Y-85372100D01*
X132306778Y-85372100D01*
X132288466Y-85375000D01*
X132215355Y-85386578D01*
X132105170Y-85442719D01*
X132017720Y-85530169D01*
X131977193Y-85609709D01*
X131963225Y-85637122D01*
X131963214Y-85637145D01*
X131959425Y-85644581D01*
X131957775Y-85648738D01*
X131947165Y-85671124D01*
X131935298Y-85684432D01*
X131927665Y-85700539D01*
X131900667Y-85723271D01*
X131895073Y-85726755D01*
X131829519Y-85745500D01*
X131178809Y-85745500D01*
X131143868Y-85740475D01*
X131128869Y-85736070D01*
X131070101Y-85698303D01*
X131065781Y-85693318D01*
X131044921Y-85648496D01*
X131041434Y-85649630D01*
X131038420Y-85640358D01*
X131038420Y-85640356D01*
X130983154Y-85531888D01*
X130982279Y-85530170D01*
X130894832Y-85442723D01*
X130894830Y-85442721D01*
X130858464Y-85424192D01*
X130825486Y-85393046D01*
X130693222Y-85372100D01*
X130131778Y-85372100D01*
X130113466Y-85375000D01*
X130040355Y-85386578D01*
X129930170Y-85442719D01*
X129842719Y-85530170D01*
X129786578Y-85640355D01*
X129772100Y-85731777D01*
X129772100Y-86222474D01*
X129767392Y-86238507D01*
X129227900Y-86238507D01*
X129227900Y-85731771D01*
X129214891Y-85649642D01*
X129213421Y-85640358D01*
X129213420Y-85640356D01*
X129213420Y-85640355D01*
X129157279Y-85530170D01*
X129069832Y-85442723D01*
X129069830Y-85442721D01*
X129033464Y-85424192D01*
X129000486Y-85393046D01*
X128868222Y-85372100D01*
X128306778Y-85372100D01*
X128288466Y-85375000D01*
X128215355Y-85386578D01*
X128105170Y-85442719D01*
X128017719Y-85530170D01*
X127961578Y-85640355D01*
X127947100Y-85731777D01*
X127947100Y-86222474D01*
X127942392Y-86238507D01*
X120250000Y-86238507D01*
X120250000Y-84891829D01*
X120255023Y-84856893D01*
X120255051Y-84856800D01*
X120259427Y-84841894D01*
X120297172Y-84783144D01*
X120297200Y-84783119D01*
X120297199Y-84783119D01*
X120298541Y-84781956D01*
X120353420Y-84754477D01*
X120360979Y-84752833D01*
X120387332Y-84750000D01*
X147527665Y-84750000D01*
X147562601Y-84755023D01*
G37*
G04 #@! TD.AperFunction*
G04 #@! TD*
M02*
