G04 #@! TF.GenerationSoftware,KiCad,Pcbnew,10.0.3-10.0.3~ubuntu26.04.1*
G04 #@! TF.CreationDate,2026-07-24T16:25:32+03:00*
G04 #@! TF.ProjectId,retrolight-main,72657472-6f6c-4696-9768-742d6d61696e,B*
G04 #@! TF.SameCoordinates,Original*
G04 #@! TF.FileFunction,Soldermask,Bot*
G04 #@! TF.FilePolarity,Negative*
%FSLAX46Y46*%
G04 Gerber Fmt 4.6, Leading zero omitted, Abs format (unit mm)*
G04 Created by KiCad (PCBNEW 10.0.3-10.0.3~ubuntu26.04.1) date 2026-07-24 16:25:32*
%MOMM*%
%LPD*%
G01*
G04 APERTURE LIST*
G04 APERTURE END LIST*
G36*
X125557576Y-96241129D02*
G01*
X125923325Y-96313881D01*
X126280181Y-96422133D01*
X126624709Y-96564841D01*
X126953590Y-96740631D01*
X127263657Y-96947811D01*
X127551924Y-97184386D01*
X127815614Y-97448076D01*
X128052189Y-97736343D01*
X128259369Y-98046410D01*
X128435159Y-98375291D01*
X128577867Y-98719819D01*
X128686119Y-99076675D01*
X128758871Y-99442424D01*
X128795423Y-99813543D01*
X128795423Y-100186457D01*
X128758871Y-100557576D01*
X128686119Y-100923325D01*
X128577867Y-101280181D01*
X128435159Y-101624709D01*
X128259369Y-101953590D01*
X128052189Y-102263657D01*
X127815614Y-102551924D01*
X127551924Y-102815614D01*
X127263657Y-103052189D01*
X126953590Y-103259369D01*
X126624709Y-103435159D01*
X126280181Y-103577867D01*
X125923325Y-103686119D01*
X125557576Y-103758871D01*
X125186457Y-103795423D01*
X124813543Y-103795423D01*
X124442424Y-103758871D01*
X124076675Y-103686119D01*
X123719819Y-103577867D01*
X123375291Y-103435159D01*
X123046410Y-103259369D01*
X122736343Y-103052189D01*
X122448076Y-102815614D01*
X122184386Y-102551924D01*
X121947811Y-102263657D01*
X121740631Y-101953590D01*
X121564841Y-101624709D01*
X121422133Y-101280181D01*
X121313881Y-100923325D01*
X121241129Y-100557576D01*
X121204577Y-100186457D01*
X121204577Y-99813543D01*
X121241129Y-99442424D01*
X121313881Y-99076675D01*
X121422133Y-98719819D01*
X121564841Y-98375291D01*
X121740631Y-98046410D01*
X121947811Y-97736343D01*
X122184386Y-97448076D01*
X122448076Y-97184386D01*
X122736343Y-96947811D01*
X123046410Y-96740631D01*
X123375291Y-96564841D01*
X123719819Y-96422133D01*
X124076675Y-96313881D01*
X124442424Y-96241129D01*
X124813543Y-96204577D01*
X125186457Y-96204577D01*
X125557576Y-96241129D01*
G37*
G36*
X160557576Y-96241129D02*
G01*
X160923325Y-96313881D01*
X161280181Y-96422133D01*
X161624709Y-96564841D01*
X161953590Y-96740631D01*
X162263657Y-96947811D01*
X162551924Y-97184386D01*
X162815614Y-97448076D01*
X163052189Y-97736343D01*
X163259369Y-98046410D01*
X163435159Y-98375291D01*
X163577867Y-98719819D01*
X163686119Y-99076675D01*
X163758871Y-99442424D01*
X163795423Y-99813543D01*
X163795423Y-100186457D01*
X163758871Y-100557576D01*
X163686119Y-100923325D01*
X163577867Y-101280181D01*
X163435159Y-101624709D01*
X163259369Y-101953590D01*
X163052189Y-102263657D01*
X162815614Y-102551924D01*
X162551924Y-102815614D01*
X162263657Y-103052189D01*
X161953590Y-103259369D01*
X161624709Y-103435159D01*
X161280181Y-103577867D01*
X160923325Y-103686119D01*
X160557576Y-103758871D01*
X160186457Y-103795423D01*
X159813543Y-103795423D01*
X159442424Y-103758871D01*
X159076675Y-103686119D01*
X158719819Y-103577867D01*
X158375291Y-103435159D01*
X158046410Y-103259369D01*
X157736343Y-103052189D01*
X157448076Y-102815614D01*
X157184386Y-102551924D01*
X156947811Y-102263657D01*
X156740631Y-101953590D01*
X156564841Y-101624709D01*
X156422133Y-101280181D01*
X156313881Y-100923325D01*
X156241129Y-100557576D01*
X156204577Y-100186457D01*
X156204577Y-99813543D01*
X156241129Y-99442424D01*
X156313881Y-99076675D01*
X156422133Y-98719819D01*
X156564841Y-98375291D01*
X156740631Y-98046410D01*
X156947811Y-97736343D01*
X157184386Y-97448076D01*
X157448076Y-97184386D01*
X157736343Y-96947811D01*
X158046410Y-96740631D01*
X158375291Y-96564841D01*
X158719819Y-96422133D01*
X159076675Y-96313881D01*
X159442424Y-96241129D01*
X159813543Y-96204577D01*
X160186457Y-96204577D01*
X160557576Y-96241129D01*
G37*
G36*
X137666742Y-100226601D02*
G01*
X137820687Y-100290367D01*
X137959234Y-100382941D01*
X138077059Y-100500766D01*
X138169633Y-100639313D01*
X138233399Y-100793258D01*
X138265907Y-100956685D01*
X138265907Y-101123315D01*
X138233399Y-101286742D01*
X138169633Y-101440687D01*
X138077059Y-101579234D01*
X137959234Y-101697059D01*
X137820687Y-101789633D01*
X137666742Y-101853399D01*
X137503315Y-101885907D01*
X137336685Y-101885907D01*
X137173258Y-101853399D01*
X137019313Y-101789633D01*
X136880766Y-101697059D01*
X136762941Y-101579234D01*
X136670367Y-101440687D01*
X136606601Y-101286742D01*
X136574093Y-101123315D01*
X136574093Y-100956685D01*
X136606601Y-100793258D01*
X136670367Y-100639313D01*
X136762941Y-100500766D01*
X136880766Y-100382941D01*
X137019313Y-100290367D01*
X137173258Y-100226601D01*
X137336685Y-100194093D01*
X137503315Y-100194093D01*
X137666742Y-100226601D01*
G37*
G36*
X140206742Y-100226601D02*
G01*
X140360687Y-100290367D01*
X140499234Y-100382941D01*
X140617059Y-100500766D01*
X140709633Y-100639313D01*
X140773399Y-100793258D01*
X140805907Y-100956685D01*
X140805907Y-101123315D01*
X140773399Y-101286742D01*
X140709633Y-101440687D01*
X140617059Y-101579234D01*
X140499234Y-101697059D01*
X140360687Y-101789633D01*
X140206742Y-101853399D01*
X140043315Y-101885907D01*
X139876685Y-101885907D01*
X139713258Y-101853399D01*
X139559313Y-101789633D01*
X139420766Y-101697059D01*
X139302941Y-101579234D01*
X139210367Y-101440687D01*
X139146601Y-101286742D01*
X139114093Y-101123315D01*
X139114093Y-100956685D01*
X139146601Y-100793258D01*
X139210367Y-100639313D01*
X139302941Y-100500766D01*
X139420766Y-100382941D01*
X139559313Y-100290367D01*
X139713258Y-100226601D01*
X139876685Y-100194093D01*
X140043315Y-100194093D01*
X140206742Y-100226601D01*
G37*
G36*
X142746742Y-100226601D02*
G01*
X142900687Y-100290367D01*
X143039234Y-100382941D01*
X143157059Y-100500766D01*
X143249633Y-100639313D01*
X143313399Y-100793258D01*
X143345907Y-100956685D01*
X143345907Y-101123315D01*
X143313399Y-101286742D01*
X143249633Y-101440687D01*
X143157059Y-101579234D01*
X143039234Y-101697059D01*
X142900687Y-101789633D01*
X142746742Y-101853399D01*
X142583315Y-101885907D01*
X142416685Y-101885907D01*
X142253258Y-101853399D01*
X142099313Y-101789633D01*
X141960766Y-101697059D01*
X141842941Y-101579234D01*
X141750367Y-101440687D01*
X141686601Y-101286742D01*
X141654093Y-101123315D01*
X141654093Y-100956685D01*
X141686601Y-100793258D01*
X141750367Y-100639313D01*
X141842941Y-100500766D01*
X141960766Y-100382941D01*
X142099313Y-100290367D01*
X142253258Y-100226601D01*
X142416685Y-100194093D01*
X142583315Y-100194093D01*
X142746742Y-100226601D01*
G37*
G36*
X145286742Y-100226601D02*
G01*
X145440687Y-100290367D01*
X145579234Y-100382941D01*
X145697059Y-100500766D01*
X145789633Y-100639313D01*
X145853399Y-100793258D01*
X145885907Y-100956685D01*
X145885907Y-101123315D01*
X145853399Y-101286742D01*
X145789633Y-101440687D01*
X145697059Y-101579234D01*
X145579234Y-101697059D01*
X145440687Y-101789633D01*
X145286742Y-101853399D01*
X145123315Y-101885907D01*
X144956685Y-101885907D01*
X144793258Y-101853399D01*
X144639313Y-101789633D01*
X144500766Y-101697059D01*
X144382941Y-101579234D01*
X144290367Y-101440687D01*
X144226601Y-101286742D01*
X144194093Y-101123315D01*
X144194093Y-100956685D01*
X144226601Y-100793258D01*
X144290367Y-100639313D01*
X144382941Y-100500766D01*
X144500766Y-100382941D01*
X144639313Y-100290367D01*
X144793258Y-100226601D01*
X144956685Y-100194093D01*
X145123315Y-100194093D01*
X145286742Y-100226601D01*
G37*
G36*
X147826742Y-100226601D02*
G01*
X147980687Y-100290367D01*
X148119234Y-100382941D01*
X148237059Y-100500766D01*
X148329633Y-100639313D01*
X148393399Y-100793258D01*
X148425907Y-100956685D01*
X148425907Y-101123315D01*
X148393399Y-101286742D01*
X148329633Y-101440687D01*
X148237059Y-101579234D01*
X148119234Y-101697059D01*
X147980687Y-101789633D01*
X147826742Y-101853399D01*
X147663315Y-101885907D01*
X147496685Y-101885907D01*
X147333258Y-101853399D01*
X147179313Y-101789633D01*
X147040766Y-101697059D01*
X146922941Y-101579234D01*
X146830367Y-101440687D01*
X146766601Y-101286742D01*
X146734093Y-101123315D01*
X146734093Y-100956685D01*
X146766601Y-100793258D01*
X146830367Y-100639313D01*
X146922941Y-100500766D01*
X147040766Y-100382941D01*
X147179313Y-100290367D01*
X147333258Y-100226601D01*
X147496685Y-100194093D01*
X147663315Y-100194093D01*
X147826742Y-100226601D01*
G37*
G36*
X148184116Y-97650818D02*
G01*
X148235379Y-97656766D01*
X148252892Y-97664499D01*
X148275671Y-97669030D01*
X148300057Y-97685324D01*
X148320788Y-97694478D01*
X148334946Y-97708636D01*
X148356777Y-97723223D01*
X148371363Y-97745053D01*
X148385521Y-97759211D01*
X148394673Y-97779939D01*
X148410970Y-97804329D01*
X148415501Y-97827109D01*
X148423233Y-97844620D01*
X148429178Y-97895872D01*
X148430000Y-97900000D01*
X148430000Y-99100000D01*
X148429178Y-99104128D01*
X148423233Y-99155379D01*
X148415501Y-99172888D01*
X148410970Y-99195671D01*
X148394672Y-99220062D01*
X148385521Y-99240788D01*
X148371365Y-99254943D01*
X148356777Y-99276777D01*
X148334943Y-99291365D01*
X148320788Y-99305521D01*
X148300062Y-99314672D01*
X148275671Y-99330970D01*
X148252888Y-99335501D01*
X148235379Y-99343233D01*
X148184129Y-99349178D01*
X148180000Y-99350000D01*
X146980000Y-99350000D01*
X146975873Y-99349179D01*
X146924620Y-99343233D01*
X146907109Y-99335501D01*
X146884329Y-99330970D01*
X146859939Y-99314673D01*
X146839211Y-99305521D01*
X146825053Y-99291363D01*
X146803223Y-99276777D01*
X146788636Y-99254946D01*
X146774478Y-99240788D01*
X146765324Y-99220057D01*
X146749030Y-99195671D01*
X146744499Y-99172892D01*
X146736766Y-99155379D01*
X146730818Y-99104117D01*
X146730000Y-99100000D01*
X146730000Y-97900000D01*
X146730818Y-97895885D01*
X146736766Y-97844620D01*
X146744499Y-97827105D01*
X146749030Y-97804329D01*
X146765323Y-97779944D01*
X146774478Y-97759211D01*
X146788638Y-97745050D01*
X146803223Y-97723223D01*
X146825050Y-97708638D01*
X146839211Y-97694478D01*
X146859944Y-97685323D01*
X146884329Y-97669030D01*
X146907105Y-97664499D01*
X146924620Y-97656766D01*
X146975884Y-97650818D01*
X146980000Y-97650000D01*
X148180000Y-97650000D01*
X148184116Y-97650818D01*
G37*
G36*
X137666742Y-97686601D02*
G01*
X137820687Y-97750367D01*
X137959234Y-97842941D01*
X138077059Y-97960766D01*
X138169633Y-98099313D01*
X138233399Y-98253258D01*
X138265907Y-98416685D01*
X138265907Y-98583315D01*
X138233399Y-98746742D01*
X138169633Y-98900687D01*
X138077059Y-99039234D01*
X137959234Y-99157059D01*
X137820687Y-99249633D01*
X137666742Y-99313399D01*
X137503315Y-99345907D01*
X137336685Y-99345907D01*
X137173258Y-99313399D01*
X137019313Y-99249633D01*
X136880766Y-99157059D01*
X136762941Y-99039234D01*
X136670367Y-98900687D01*
X136606601Y-98746742D01*
X136574093Y-98583315D01*
X136574093Y-98416685D01*
X136606601Y-98253258D01*
X136670367Y-98099313D01*
X136762941Y-97960766D01*
X136880766Y-97842941D01*
X137019313Y-97750367D01*
X137173258Y-97686601D01*
X137336685Y-97654093D01*
X137503315Y-97654093D01*
X137666742Y-97686601D01*
G37*
G36*
X140206742Y-97686601D02*
G01*
X140360687Y-97750367D01*
X140499234Y-97842941D01*
X140617059Y-97960766D01*
X140709633Y-98099313D01*
X140773399Y-98253258D01*
X140805907Y-98416685D01*
X140805907Y-98583315D01*
X140773399Y-98746742D01*
X140709633Y-98900687D01*
X140617059Y-99039234D01*
X140499234Y-99157059D01*
X140360687Y-99249633D01*
X140206742Y-99313399D01*
X140043315Y-99345907D01*
X139876685Y-99345907D01*
X139713258Y-99313399D01*
X139559313Y-99249633D01*
X139420766Y-99157059D01*
X139302941Y-99039234D01*
X139210367Y-98900687D01*
X139146601Y-98746742D01*
X139114093Y-98583315D01*
X139114093Y-98416685D01*
X139146601Y-98253258D01*
X139210367Y-98099313D01*
X139302941Y-97960766D01*
X139420766Y-97842941D01*
X139559313Y-97750367D01*
X139713258Y-97686601D01*
X139876685Y-97654093D01*
X140043315Y-97654093D01*
X140206742Y-97686601D01*
G37*
G36*
X142746742Y-97686601D02*
G01*
X142900687Y-97750367D01*
X143039234Y-97842941D01*
X143157059Y-97960766D01*
X143249633Y-98099313D01*
X143313399Y-98253258D01*
X143345907Y-98416685D01*
X143345907Y-98583315D01*
X143313399Y-98746742D01*
X143249633Y-98900687D01*
X143157059Y-99039234D01*
X143039234Y-99157059D01*
X142900687Y-99249633D01*
X142746742Y-99313399D01*
X142583315Y-99345907D01*
X142416685Y-99345907D01*
X142253258Y-99313399D01*
X142099313Y-99249633D01*
X141960766Y-99157059D01*
X141842941Y-99039234D01*
X141750367Y-98900687D01*
X141686601Y-98746742D01*
X141654093Y-98583315D01*
X141654093Y-98416685D01*
X141686601Y-98253258D01*
X141750367Y-98099313D01*
X141842941Y-97960766D01*
X141960766Y-97842941D01*
X142099313Y-97750367D01*
X142253258Y-97686601D01*
X142416685Y-97654093D01*
X142583315Y-97654093D01*
X142746742Y-97686601D01*
G37*
G36*
X145286742Y-97686601D02*
G01*
X145440687Y-97750367D01*
X145579234Y-97842941D01*
X145697059Y-97960766D01*
X145789633Y-98099313D01*
X145853399Y-98253258D01*
X145885907Y-98416685D01*
X145885907Y-98583315D01*
X145853399Y-98746742D01*
X145789633Y-98900687D01*
X145697059Y-99039234D01*
X145579234Y-99157059D01*
X145440687Y-99249633D01*
X145286742Y-99313399D01*
X145123315Y-99345907D01*
X144956685Y-99345907D01*
X144793258Y-99313399D01*
X144639313Y-99249633D01*
X144500766Y-99157059D01*
X144382941Y-99039234D01*
X144290367Y-98900687D01*
X144226601Y-98746742D01*
X144194093Y-98583315D01*
X144194093Y-98416685D01*
X144226601Y-98253258D01*
X144290367Y-98099313D01*
X144382941Y-97960766D01*
X144500766Y-97842941D01*
X144639313Y-97750367D01*
X144793258Y-97686601D01*
X144956685Y-97654093D01*
X145123315Y-97654093D01*
X145286742Y-97686601D01*
G37*
G36*
X132629115Y-91275818D02*
G01*
X132680378Y-91281766D01*
X132697892Y-91289499D01*
X132720670Y-91294030D01*
X132745054Y-91310323D01*
X132765788Y-91319478D01*
X132779950Y-91333640D01*
X132801776Y-91348224D01*
X132816359Y-91370049D01*
X132830521Y-91384211D01*
X132839675Y-91404943D01*
X132855970Y-91429330D01*
X132860500Y-91452108D01*
X132868233Y-91469621D01*
X132874182Y-91520898D01*
X132874999Y-91525002D01*
X132874999Y-91527932D01*
X132875000Y-91527941D01*
X132875000Y-92447058D01*
X132875000Y-92449999D01*
X132874180Y-92454116D01*
X132868233Y-92505378D01*
X132860501Y-92522888D01*
X132855970Y-92545670D01*
X132839673Y-92570058D01*
X132830521Y-92590788D01*
X132816361Y-92604947D01*
X132801776Y-92626776D01*
X132779947Y-92641361D01*
X132765788Y-92655521D01*
X132745058Y-92664673D01*
X132720670Y-92680970D01*
X132697889Y-92685501D01*
X132680378Y-92693233D01*
X132629102Y-92699182D01*
X132624998Y-92699999D01*
X132622066Y-92699999D01*
X132622058Y-92700000D01*
X131377942Y-92700000D01*
X131377941Y-92699999D01*
X131375001Y-92700000D01*
X131370883Y-92699181D01*
X131319621Y-92693233D01*
X131302110Y-92685501D01*
X131279330Y-92680970D01*
X131254943Y-92664675D01*
X131234211Y-92655521D01*
X131220049Y-92641359D01*
X131198224Y-92626776D01*
X131183640Y-92604950D01*
X131169478Y-92590788D01*
X131160323Y-92570054D01*
X131144030Y-92545670D01*
X131139499Y-92522893D01*
X131131766Y-92505378D01*
X131125817Y-92454101D01*
X131125001Y-92449998D01*
X131125000Y-92447066D01*
X131125000Y-92447058D01*
X131125000Y-91527941D01*
X131125000Y-91527940D01*
X131125000Y-91525001D01*
X131125818Y-91520886D01*
X131131766Y-91469621D01*
X131139499Y-91452105D01*
X131144030Y-91429330D01*
X131160321Y-91404947D01*
X131169478Y-91384211D01*
X131183642Y-91370046D01*
X131198224Y-91348224D01*
X131220046Y-91333642D01*
X131234211Y-91319478D01*
X131254947Y-91310321D01*
X131279330Y-91294030D01*
X131302104Y-91289500D01*
X131319621Y-91281766D01*
X131370898Y-91275817D01*
X131375002Y-91275001D01*
X131377933Y-91275000D01*
X131377942Y-91275000D01*
X132622058Y-91275000D01*
X132624999Y-91275000D01*
X132629115Y-91275818D01*
G37*
G36*
X135629115Y-91275818D02*
G01*
X135680378Y-91281766D01*
X135697892Y-91289499D01*
X135720670Y-91294030D01*
X135745054Y-91310323D01*
X135765788Y-91319478D01*
X135779950Y-91333640D01*
X135801776Y-91348224D01*
X135816359Y-91370049D01*
X135830521Y-91384211D01*
X135839675Y-91404943D01*
X135855970Y-91429330D01*
X135860500Y-91452108D01*
X135868233Y-91469621D01*
X135874182Y-91520898D01*
X135874999Y-91525002D01*
X135874999Y-91527932D01*
X135875000Y-91527941D01*
X135875000Y-92447058D01*
X135875000Y-92449999D01*
X135874180Y-92454116D01*
X135868233Y-92505378D01*
X135860501Y-92522888D01*
X135855970Y-92545670D01*
X135839673Y-92570058D01*
X135830521Y-92590788D01*
X135816361Y-92604947D01*
X135801776Y-92626776D01*
X135779947Y-92641361D01*
X135765788Y-92655521D01*
X135745058Y-92664673D01*
X135720670Y-92680970D01*
X135697889Y-92685501D01*
X135680378Y-92693233D01*
X135629102Y-92699182D01*
X135624998Y-92699999D01*
X135622066Y-92699999D01*
X135622058Y-92700000D01*
X134377942Y-92700000D01*
X134377941Y-92699999D01*
X134375001Y-92700000D01*
X134370883Y-92699181D01*
X134319621Y-92693233D01*
X134302110Y-92685501D01*
X134279330Y-92680970D01*
X134254943Y-92664675D01*
X134234211Y-92655521D01*
X134220049Y-92641359D01*
X134198224Y-92626776D01*
X134183640Y-92604950D01*
X134169478Y-92590788D01*
X134160323Y-92570054D01*
X134144030Y-92545670D01*
X134139499Y-92522893D01*
X134131766Y-92505378D01*
X134125817Y-92454101D01*
X134125001Y-92449998D01*
X134125000Y-92447066D01*
X134125000Y-92447058D01*
X134125000Y-91527941D01*
X134125000Y-91527940D01*
X134125000Y-91525001D01*
X134125818Y-91520886D01*
X134131766Y-91469621D01*
X134139499Y-91452105D01*
X134144030Y-91429330D01*
X134160321Y-91404947D01*
X134169478Y-91384211D01*
X134183642Y-91370046D01*
X134198224Y-91348224D01*
X134220046Y-91333642D01*
X134234211Y-91319478D01*
X134254947Y-91310321D01*
X134279330Y-91294030D01*
X134302104Y-91289500D01*
X134319621Y-91281766D01*
X134370898Y-91275817D01*
X134375002Y-91275001D01*
X134377933Y-91275000D01*
X134377942Y-91275000D01*
X135622058Y-91275000D01*
X135624999Y-91275000D01*
X135629115Y-91275818D01*
G37*
G36*
X138629115Y-91275818D02*
G01*
X138680378Y-91281766D01*
X138697892Y-91289499D01*
X138720670Y-91294030D01*
X138745054Y-91310323D01*
X138765788Y-91319478D01*
X138779950Y-91333640D01*
X138801776Y-91348224D01*
X138816359Y-91370049D01*
X138830521Y-91384211D01*
X138839675Y-91404943D01*
X138855970Y-91429330D01*
X138860500Y-91452108D01*
X138868233Y-91469621D01*
X138874182Y-91520898D01*
X138874999Y-91525002D01*
X138874999Y-91527932D01*
X138875000Y-91527941D01*
X138875000Y-92447058D01*
X138875000Y-92449999D01*
X138874180Y-92454116D01*
X138868233Y-92505378D01*
X138860501Y-92522888D01*
X138855970Y-92545670D01*
X138839673Y-92570058D01*
X138830521Y-92590788D01*
X138816361Y-92604947D01*
X138801776Y-92626776D01*
X138779947Y-92641361D01*
X138765788Y-92655521D01*
X138745058Y-92664673D01*
X138720670Y-92680970D01*
X138697889Y-92685501D01*
X138680378Y-92693233D01*
X138629102Y-92699182D01*
X138624998Y-92699999D01*
X138622066Y-92699999D01*
X138622058Y-92700000D01*
X137377942Y-92700000D01*
X137377941Y-92699999D01*
X137375001Y-92700000D01*
X137370883Y-92699181D01*
X137319621Y-92693233D01*
X137302110Y-92685501D01*
X137279330Y-92680970D01*
X137254943Y-92664675D01*
X137234211Y-92655521D01*
X137220049Y-92641359D01*
X137198224Y-92626776D01*
X137183640Y-92604950D01*
X137169478Y-92590788D01*
X137160323Y-92570054D01*
X137144030Y-92545670D01*
X137139499Y-92522893D01*
X137131766Y-92505378D01*
X137125817Y-92454101D01*
X137125001Y-92449998D01*
X137125000Y-92447066D01*
X137125000Y-92447058D01*
X137125000Y-91527941D01*
X137125000Y-91527940D01*
X137125000Y-91525001D01*
X137125818Y-91520886D01*
X137131766Y-91469621D01*
X137139499Y-91452105D01*
X137144030Y-91429330D01*
X137160321Y-91404947D01*
X137169478Y-91384211D01*
X137183642Y-91370046D01*
X137198224Y-91348224D01*
X137220046Y-91333642D01*
X137234211Y-91319478D01*
X137254947Y-91310321D01*
X137279330Y-91294030D01*
X137302104Y-91289500D01*
X137319621Y-91281766D01*
X137370898Y-91275817D01*
X137375002Y-91275001D01*
X137377933Y-91275000D01*
X137377942Y-91275000D01*
X138622058Y-91275000D01*
X138624999Y-91275000D01*
X138629115Y-91275818D01*
G37*
G36*
X141629115Y-91275818D02*
G01*
X141680378Y-91281766D01*
X141697892Y-91289499D01*
X141720670Y-91294030D01*
X141745054Y-91310323D01*
X141765788Y-91319478D01*
X141779950Y-91333640D01*
X141801776Y-91348224D01*
X141816359Y-91370049D01*
X141830521Y-91384211D01*
X141839675Y-91404943D01*
X141855970Y-91429330D01*
X141860500Y-91452108D01*
X141868233Y-91469621D01*
X141874182Y-91520898D01*
X141874999Y-91525002D01*
X141874999Y-91527932D01*
X141875000Y-91527941D01*
X141875000Y-92447058D01*
X141875000Y-92449999D01*
X141874180Y-92454116D01*
X141868233Y-92505378D01*
X141860501Y-92522888D01*
X141855970Y-92545670D01*
X141839673Y-92570058D01*
X141830521Y-92590788D01*
X141816361Y-92604947D01*
X141801776Y-92626776D01*
X141779947Y-92641361D01*
X141765788Y-92655521D01*
X141745058Y-92664673D01*
X141720670Y-92680970D01*
X141697889Y-92685501D01*
X141680378Y-92693233D01*
X141629102Y-92699182D01*
X141624998Y-92699999D01*
X141622066Y-92699999D01*
X141622058Y-92700000D01*
X140377942Y-92700000D01*
X140377941Y-92699999D01*
X140375001Y-92700000D01*
X140370883Y-92699181D01*
X140319621Y-92693233D01*
X140302110Y-92685501D01*
X140279330Y-92680970D01*
X140254943Y-92664675D01*
X140234211Y-92655521D01*
X140220049Y-92641359D01*
X140198224Y-92626776D01*
X140183640Y-92604950D01*
X140169478Y-92590788D01*
X140160323Y-92570054D01*
X140144030Y-92545670D01*
X140139499Y-92522893D01*
X140131766Y-92505378D01*
X140125817Y-92454101D01*
X140125001Y-92449998D01*
X140125000Y-92447066D01*
X140125000Y-92447058D01*
X140125000Y-91527941D01*
X140125000Y-91527940D01*
X140125000Y-91525001D01*
X140125818Y-91520886D01*
X140131766Y-91469621D01*
X140139499Y-91452105D01*
X140144030Y-91429330D01*
X140160321Y-91404947D01*
X140169478Y-91384211D01*
X140183642Y-91370046D01*
X140198224Y-91348224D01*
X140220046Y-91333642D01*
X140234211Y-91319478D01*
X140254947Y-91310321D01*
X140279330Y-91294030D01*
X140302104Y-91289500D01*
X140319621Y-91281766D01*
X140370898Y-91275817D01*
X140375002Y-91275001D01*
X140377933Y-91275000D01*
X140377942Y-91275000D01*
X141622058Y-91275000D01*
X141624999Y-91275000D01*
X141629115Y-91275818D01*
G37*
G36*
X144629115Y-91275818D02*
G01*
X144680378Y-91281766D01*
X144697892Y-91289499D01*
X144720670Y-91294030D01*
X144745054Y-91310323D01*
X144765788Y-91319478D01*
X144779950Y-91333640D01*
X144801776Y-91348224D01*
X144816359Y-91370049D01*
X144830521Y-91384211D01*
X144839675Y-91404943D01*
X144855970Y-91429330D01*
X144860500Y-91452108D01*
X144868233Y-91469621D01*
X144874182Y-91520898D01*
X144874999Y-91525002D01*
X144874999Y-91527932D01*
X144875000Y-91527941D01*
X144875000Y-92447058D01*
X144875000Y-92449999D01*
X144874180Y-92454116D01*
X144868233Y-92505378D01*
X144860501Y-92522888D01*
X144855970Y-92545670D01*
X144839673Y-92570058D01*
X144830521Y-92590788D01*
X144816361Y-92604947D01*
X144801776Y-92626776D01*
X144779947Y-92641361D01*
X144765788Y-92655521D01*
X144745058Y-92664673D01*
X144720670Y-92680970D01*
X144697889Y-92685501D01*
X144680378Y-92693233D01*
X144629102Y-92699182D01*
X144624998Y-92699999D01*
X144622066Y-92699999D01*
X144622058Y-92700000D01*
X143377942Y-92700000D01*
X143377941Y-92699999D01*
X143375001Y-92700000D01*
X143370883Y-92699181D01*
X143319621Y-92693233D01*
X143302110Y-92685501D01*
X143279330Y-92680970D01*
X143254943Y-92664675D01*
X143234211Y-92655521D01*
X143220049Y-92641359D01*
X143198224Y-92626776D01*
X143183640Y-92604950D01*
X143169478Y-92590788D01*
X143160323Y-92570054D01*
X143144030Y-92545670D01*
X143139499Y-92522893D01*
X143131766Y-92505378D01*
X143125817Y-92454101D01*
X143125001Y-92449998D01*
X143125000Y-92447066D01*
X143125000Y-92447058D01*
X143125000Y-91527941D01*
X143125000Y-91527940D01*
X143125000Y-91525001D01*
X143125818Y-91520886D01*
X143131766Y-91469621D01*
X143139499Y-91452105D01*
X143144030Y-91429330D01*
X143160321Y-91404947D01*
X143169478Y-91384211D01*
X143183642Y-91370046D01*
X143198224Y-91348224D01*
X143220046Y-91333642D01*
X143234211Y-91319478D01*
X143254947Y-91310321D01*
X143279330Y-91294030D01*
X143302104Y-91289500D01*
X143319621Y-91281766D01*
X143370898Y-91275817D01*
X143375002Y-91275001D01*
X143377933Y-91275000D01*
X143377942Y-91275000D01*
X144622058Y-91275000D01*
X144624999Y-91275000D01*
X144629115Y-91275818D01*
G37*
G36*
X147629115Y-91275818D02*
G01*
X147680378Y-91281766D01*
X147697892Y-91289499D01*
X147720670Y-91294030D01*
X147745054Y-91310323D01*
X147765788Y-91319478D01*
X147779950Y-91333640D01*
X147801776Y-91348224D01*
X147816359Y-91370049D01*
X147830521Y-91384211D01*
X147839675Y-91404943D01*
X147855970Y-91429330D01*
X147860500Y-91452108D01*
X147868233Y-91469621D01*
X147874182Y-91520898D01*
X147874999Y-91525002D01*
X147874999Y-91527932D01*
X147875000Y-91527941D01*
X147875000Y-92447058D01*
X147875000Y-92449999D01*
X147874180Y-92454116D01*
X147868233Y-92505378D01*
X147860501Y-92522888D01*
X147855970Y-92545670D01*
X147839673Y-92570058D01*
X147830521Y-92590788D01*
X147816361Y-92604947D01*
X147801776Y-92626776D01*
X147779947Y-92641361D01*
X147765788Y-92655521D01*
X147745058Y-92664673D01*
X147720670Y-92680970D01*
X147697889Y-92685501D01*
X147680378Y-92693233D01*
X147629102Y-92699182D01*
X147624998Y-92699999D01*
X147622066Y-92699999D01*
X147622058Y-92700000D01*
X146377942Y-92700000D01*
X146377941Y-92699999D01*
X146375001Y-92700000D01*
X146370883Y-92699181D01*
X146319621Y-92693233D01*
X146302110Y-92685501D01*
X146279330Y-92680970D01*
X146254943Y-92664675D01*
X146234211Y-92655521D01*
X146220049Y-92641359D01*
X146198224Y-92626776D01*
X146183640Y-92604950D01*
X146169478Y-92590788D01*
X146160323Y-92570054D01*
X146144030Y-92545670D01*
X146139499Y-92522893D01*
X146131766Y-92505378D01*
X146125817Y-92454101D01*
X146125001Y-92449998D01*
X146125000Y-92447066D01*
X146125000Y-92447058D01*
X146125000Y-91527941D01*
X146125000Y-91527940D01*
X146125000Y-91525001D01*
X146125818Y-91520886D01*
X146131766Y-91469621D01*
X146139499Y-91452105D01*
X146144030Y-91429330D01*
X146160321Y-91404947D01*
X146169478Y-91384211D01*
X146183642Y-91370046D01*
X146198224Y-91348224D01*
X146220046Y-91333642D01*
X146234211Y-91319478D01*
X146254947Y-91310321D01*
X146279330Y-91294030D01*
X146302104Y-91289500D01*
X146319621Y-91281766D01*
X146370898Y-91275817D01*
X146375002Y-91275001D01*
X146377933Y-91275000D01*
X146377942Y-91275000D01*
X147622058Y-91275000D01*
X147624999Y-91275000D01*
X147629115Y-91275818D01*
G37*
G36*
X150629115Y-91275818D02*
G01*
X150680378Y-91281766D01*
X150697892Y-91289499D01*
X150720670Y-91294030D01*
X150745054Y-91310323D01*
X150765788Y-91319478D01*
X150779950Y-91333640D01*
X150801776Y-91348224D01*
X150816359Y-91370049D01*
X150830521Y-91384211D01*
X150839675Y-91404943D01*
X150855970Y-91429330D01*
X150860500Y-91452108D01*
X150868233Y-91469621D01*
X150874182Y-91520898D01*
X150874999Y-91525002D01*
X150874999Y-91527932D01*
X150875000Y-91527941D01*
X150875000Y-92447058D01*
X150875000Y-92449999D01*
X150874180Y-92454116D01*
X150868233Y-92505378D01*
X150860501Y-92522888D01*
X150855970Y-92545670D01*
X150839673Y-92570058D01*
X150830521Y-92590788D01*
X150816361Y-92604947D01*
X150801776Y-92626776D01*
X150779947Y-92641361D01*
X150765788Y-92655521D01*
X150745058Y-92664673D01*
X150720670Y-92680970D01*
X150697889Y-92685501D01*
X150680378Y-92693233D01*
X150629102Y-92699182D01*
X150624998Y-92699999D01*
X150622066Y-92699999D01*
X150622058Y-92700000D01*
X149377942Y-92700000D01*
X149377941Y-92699999D01*
X149375001Y-92700000D01*
X149370883Y-92699181D01*
X149319621Y-92693233D01*
X149302110Y-92685501D01*
X149279330Y-92680970D01*
X149254943Y-92664675D01*
X149234211Y-92655521D01*
X149220049Y-92641359D01*
X149198224Y-92626776D01*
X149183640Y-92604950D01*
X149169478Y-92590788D01*
X149160323Y-92570054D01*
X149144030Y-92545670D01*
X149139499Y-92522893D01*
X149131766Y-92505378D01*
X149125817Y-92454101D01*
X149125001Y-92449998D01*
X149125000Y-92447066D01*
X149125000Y-92447058D01*
X149125000Y-91527941D01*
X149125000Y-91527940D01*
X149125000Y-91525001D01*
X149125818Y-91520886D01*
X149131766Y-91469621D01*
X149139499Y-91452105D01*
X149144030Y-91429330D01*
X149160321Y-91404947D01*
X149169478Y-91384211D01*
X149183642Y-91370046D01*
X149198224Y-91348224D01*
X149220046Y-91333642D01*
X149234211Y-91319478D01*
X149254947Y-91310321D01*
X149279330Y-91294030D01*
X149302104Y-91289500D01*
X149319621Y-91281766D01*
X149370898Y-91275817D01*
X149375002Y-91275001D01*
X149377933Y-91275000D01*
X149377942Y-91275000D01*
X150622058Y-91275000D01*
X150624999Y-91275000D01*
X150629115Y-91275818D01*
G37*
G36*
X153629115Y-91275818D02*
G01*
X153680378Y-91281766D01*
X153697892Y-91289499D01*
X153720670Y-91294030D01*
X153745054Y-91310323D01*
X153765788Y-91319478D01*
X153779950Y-91333640D01*
X153801776Y-91348224D01*
X153816359Y-91370049D01*
X153830521Y-91384211D01*
X153839675Y-91404943D01*
X153855970Y-91429330D01*
X153860500Y-91452108D01*
X153868233Y-91469621D01*
X153874182Y-91520898D01*
X153874999Y-91525002D01*
X153874999Y-91527932D01*
X153875000Y-91527941D01*
X153875000Y-92447058D01*
X153875000Y-92449999D01*
X153874180Y-92454116D01*
X153868233Y-92505378D01*
X153860501Y-92522888D01*
X153855970Y-92545670D01*
X153839673Y-92570058D01*
X153830521Y-92590788D01*
X153816361Y-92604947D01*
X153801776Y-92626776D01*
X153779947Y-92641361D01*
X153765788Y-92655521D01*
X153745058Y-92664673D01*
X153720670Y-92680970D01*
X153697889Y-92685501D01*
X153680378Y-92693233D01*
X153629102Y-92699182D01*
X153624998Y-92699999D01*
X153622066Y-92699999D01*
X153622058Y-92700000D01*
X152377942Y-92700000D01*
X152377941Y-92699999D01*
X152375001Y-92700000D01*
X152370883Y-92699181D01*
X152319621Y-92693233D01*
X152302110Y-92685501D01*
X152279330Y-92680970D01*
X152254943Y-92664675D01*
X152234211Y-92655521D01*
X152220049Y-92641359D01*
X152198224Y-92626776D01*
X152183640Y-92604950D01*
X152169478Y-92590788D01*
X152160323Y-92570054D01*
X152144030Y-92545670D01*
X152139499Y-92522893D01*
X152131766Y-92505378D01*
X152125817Y-92454101D01*
X152125001Y-92449998D01*
X152125000Y-92447066D01*
X152125000Y-92447058D01*
X152125000Y-91527941D01*
X152125000Y-91527940D01*
X152125000Y-91525001D01*
X152125818Y-91520886D01*
X152131766Y-91469621D01*
X152139499Y-91452105D01*
X152144030Y-91429330D01*
X152160321Y-91404947D01*
X152169478Y-91384211D01*
X152183642Y-91370046D01*
X152198224Y-91348224D01*
X152220046Y-91333642D01*
X152234211Y-91319478D01*
X152254947Y-91310321D01*
X152279330Y-91294030D01*
X152302104Y-91289500D01*
X152319621Y-91281766D01*
X152370898Y-91275817D01*
X152375002Y-91275001D01*
X152377933Y-91275000D01*
X152377942Y-91275000D01*
X153622058Y-91275000D01*
X153624999Y-91275000D01*
X153629115Y-91275818D01*
G37*
G36*
X132629115Y-88300818D02*
G01*
X132680378Y-88306766D01*
X132697892Y-88314499D01*
X132720670Y-88319030D01*
X132745054Y-88335323D01*
X132765788Y-88344478D01*
X132779950Y-88358640D01*
X132801776Y-88373224D01*
X132816359Y-88395049D01*
X132830521Y-88409211D01*
X132839675Y-88429943D01*
X132855970Y-88454330D01*
X132860500Y-88477108D01*
X132868233Y-88494621D01*
X132874182Y-88545898D01*
X132874999Y-88550002D01*
X132874999Y-88552932D01*
X132875000Y-88552941D01*
X132875000Y-89472058D01*
X132875000Y-89474999D01*
X132874180Y-89479116D01*
X132868233Y-89530378D01*
X132860501Y-89547888D01*
X132855970Y-89570670D01*
X132839673Y-89595058D01*
X132830521Y-89615788D01*
X132816361Y-89629947D01*
X132801776Y-89651776D01*
X132779947Y-89666361D01*
X132765788Y-89680521D01*
X132745058Y-89689673D01*
X132720670Y-89705970D01*
X132697889Y-89710501D01*
X132680378Y-89718233D01*
X132629102Y-89724182D01*
X132624998Y-89724999D01*
X132622066Y-89724999D01*
X132622058Y-89725000D01*
X131377942Y-89725000D01*
X131377941Y-89724999D01*
X131375001Y-89725000D01*
X131370883Y-89724181D01*
X131319621Y-89718233D01*
X131302110Y-89710501D01*
X131279330Y-89705970D01*
X131254943Y-89689675D01*
X131234211Y-89680521D01*
X131220049Y-89666359D01*
X131198224Y-89651776D01*
X131183640Y-89629950D01*
X131169478Y-89615788D01*
X131160323Y-89595054D01*
X131144030Y-89570670D01*
X131139499Y-89547893D01*
X131131766Y-89530378D01*
X131125817Y-89479101D01*
X131125001Y-89474998D01*
X131125000Y-89472066D01*
X131125000Y-89472058D01*
X131125000Y-88552941D01*
X131125000Y-88552940D01*
X131125000Y-88550001D01*
X131125818Y-88545886D01*
X131131766Y-88494621D01*
X131139499Y-88477105D01*
X131144030Y-88454330D01*
X131160321Y-88429947D01*
X131169478Y-88409211D01*
X131183642Y-88395046D01*
X131198224Y-88373224D01*
X131220046Y-88358642D01*
X131234211Y-88344478D01*
X131254947Y-88335321D01*
X131279330Y-88319030D01*
X131302104Y-88314500D01*
X131319621Y-88306766D01*
X131370898Y-88300817D01*
X131375002Y-88300001D01*
X131377933Y-88300000D01*
X131377942Y-88300000D01*
X132622058Y-88300000D01*
X132624999Y-88300000D01*
X132629115Y-88300818D01*
G37*
G36*
X135629115Y-88300818D02*
G01*
X135680378Y-88306766D01*
X135697892Y-88314499D01*
X135720670Y-88319030D01*
X135745054Y-88335323D01*
X135765788Y-88344478D01*
X135779950Y-88358640D01*
X135801776Y-88373224D01*
X135816359Y-88395049D01*
X135830521Y-88409211D01*
X135839675Y-88429943D01*
X135855970Y-88454330D01*
X135860500Y-88477108D01*
X135868233Y-88494621D01*
X135874182Y-88545898D01*
X135874999Y-88550002D01*
X135874999Y-88552932D01*
X135875000Y-88552941D01*
X135875000Y-89472058D01*
X135875000Y-89474999D01*
X135874180Y-89479116D01*
X135868233Y-89530378D01*
X135860501Y-89547888D01*
X135855970Y-89570670D01*
X135839673Y-89595058D01*
X135830521Y-89615788D01*
X135816361Y-89629947D01*
X135801776Y-89651776D01*
X135779947Y-89666361D01*
X135765788Y-89680521D01*
X135745058Y-89689673D01*
X135720670Y-89705970D01*
X135697889Y-89710501D01*
X135680378Y-89718233D01*
X135629102Y-89724182D01*
X135624998Y-89724999D01*
X135622066Y-89724999D01*
X135622058Y-89725000D01*
X134377942Y-89725000D01*
X134377941Y-89724999D01*
X134375001Y-89725000D01*
X134370883Y-89724181D01*
X134319621Y-89718233D01*
X134302110Y-89710501D01*
X134279330Y-89705970D01*
X134254943Y-89689675D01*
X134234211Y-89680521D01*
X134220049Y-89666359D01*
X134198224Y-89651776D01*
X134183640Y-89629950D01*
X134169478Y-89615788D01*
X134160323Y-89595054D01*
X134144030Y-89570670D01*
X134139499Y-89547893D01*
X134131766Y-89530378D01*
X134125817Y-89479101D01*
X134125001Y-89474998D01*
X134125000Y-89472066D01*
X134125000Y-89472058D01*
X134125000Y-88552941D01*
X134125000Y-88552940D01*
X134125000Y-88550001D01*
X134125818Y-88545886D01*
X134131766Y-88494621D01*
X134139499Y-88477105D01*
X134144030Y-88454330D01*
X134160321Y-88429947D01*
X134169478Y-88409211D01*
X134183642Y-88395046D01*
X134198224Y-88373224D01*
X134220046Y-88358642D01*
X134234211Y-88344478D01*
X134254947Y-88335321D01*
X134279330Y-88319030D01*
X134302104Y-88314500D01*
X134319621Y-88306766D01*
X134370898Y-88300817D01*
X134375002Y-88300001D01*
X134377933Y-88300000D01*
X134377942Y-88300000D01*
X135622058Y-88300000D01*
X135624999Y-88300000D01*
X135629115Y-88300818D01*
G37*
G36*
X138629115Y-88300818D02*
G01*
X138680378Y-88306766D01*
X138697892Y-88314499D01*
X138720670Y-88319030D01*
X138745054Y-88335323D01*
X138765788Y-88344478D01*
X138779950Y-88358640D01*
X138801776Y-88373224D01*
X138816359Y-88395049D01*
X138830521Y-88409211D01*
X138839675Y-88429943D01*
X138855970Y-88454330D01*
X138860500Y-88477108D01*
X138868233Y-88494621D01*
X138874182Y-88545898D01*
X138874999Y-88550002D01*
X138874999Y-88552932D01*
X138875000Y-88552941D01*
X138875000Y-89472058D01*
X138875000Y-89474999D01*
X138874180Y-89479116D01*
X138868233Y-89530378D01*
X138860501Y-89547888D01*
X138855970Y-89570670D01*
X138839673Y-89595058D01*
X138830521Y-89615788D01*
X138816361Y-89629947D01*
X138801776Y-89651776D01*
X138779947Y-89666361D01*
X138765788Y-89680521D01*
X138745058Y-89689673D01*
X138720670Y-89705970D01*
X138697889Y-89710501D01*
X138680378Y-89718233D01*
X138629102Y-89724182D01*
X138624998Y-89724999D01*
X138622066Y-89724999D01*
X138622058Y-89725000D01*
X137377942Y-89725000D01*
X137377941Y-89724999D01*
X137375001Y-89725000D01*
X137370883Y-89724181D01*
X137319621Y-89718233D01*
X137302110Y-89710501D01*
X137279330Y-89705970D01*
X137254943Y-89689675D01*
X137234211Y-89680521D01*
X137220049Y-89666359D01*
X137198224Y-89651776D01*
X137183640Y-89629950D01*
X137169478Y-89615788D01*
X137160323Y-89595054D01*
X137144030Y-89570670D01*
X137139499Y-89547893D01*
X137131766Y-89530378D01*
X137125817Y-89479101D01*
X137125001Y-89474998D01*
X137125000Y-89472066D01*
X137125000Y-89472058D01*
X137125000Y-88552941D01*
X137125000Y-88552940D01*
X137125000Y-88550001D01*
X137125818Y-88545886D01*
X137131766Y-88494621D01*
X137139499Y-88477105D01*
X137144030Y-88454330D01*
X137160321Y-88429947D01*
X137169478Y-88409211D01*
X137183642Y-88395046D01*
X137198224Y-88373224D01*
X137220046Y-88358642D01*
X137234211Y-88344478D01*
X137254947Y-88335321D01*
X137279330Y-88319030D01*
X137302104Y-88314500D01*
X137319621Y-88306766D01*
X137370898Y-88300817D01*
X137375002Y-88300001D01*
X137377933Y-88300000D01*
X137377942Y-88300000D01*
X138622058Y-88300000D01*
X138624999Y-88300000D01*
X138629115Y-88300818D01*
G37*
G36*
X141629115Y-88300818D02*
G01*
X141680378Y-88306766D01*
X141697892Y-88314499D01*
X141720670Y-88319030D01*
X141745054Y-88335323D01*
X141765788Y-88344478D01*
X141779950Y-88358640D01*
X141801776Y-88373224D01*
X141816359Y-88395049D01*
X141830521Y-88409211D01*
X141839675Y-88429943D01*
X141855970Y-88454330D01*
X141860500Y-88477108D01*
X141868233Y-88494621D01*
X141874182Y-88545898D01*
X141874999Y-88550002D01*
X141874999Y-88552932D01*
X141875000Y-88552941D01*
X141875000Y-89472058D01*
X141875000Y-89474999D01*
X141874180Y-89479116D01*
X141868233Y-89530378D01*
X141860501Y-89547888D01*
X141855970Y-89570670D01*
X141839673Y-89595058D01*
X141830521Y-89615788D01*
X141816361Y-89629947D01*
X141801776Y-89651776D01*
X141779947Y-89666361D01*
X141765788Y-89680521D01*
X141745058Y-89689673D01*
X141720670Y-89705970D01*
X141697889Y-89710501D01*
X141680378Y-89718233D01*
X141629102Y-89724182D01*
X141624998Y-89724999D01*
X141622066Y-89724999D01*
X141622058Y-89725000D01*
X140377942Y-89725000D01*
X140377941Y-89724999D01*
X140375001Y-89725000D01*
X140370883Y-89724181D01*
X140319621Y-89718233D01*
X140302110Y-89710501D01*
X140279330Y-89705970D01*
X140254943Y-89689675D01*
X140234211Y-89680521D01*
X140220049Y-89666359D01*
X140198224Y-89651776D01*
X140183640Y-89629950D01*
X140169478Y-89615788D01*
X140160323Y-89595054D01*
X140144030Y-89570670D01*
X140139499Y-89547893D01*
X140131766Y-89530378D01*
X140125817Y-89479101D01*
X140125001Y-89474998D01*
X140125000Y-89472066D01*
X140125000Y-89472058D01*
X140125000Y-88552941D01*
X140125000Y-88552940D01*
X140125000Y-88550001D01*
X140125818Y-88545886D01*
X140131766Y-88494621D01*
X140139499Y-88477105D01*
X140144030Y-88454330D01*
X140160321Y-88429947D01*
X140169478Y-88409211D01*
X140183642Y-88395046D01*
X140198224Y-88373224D01*
X140220046Y-88358642D01*
X140234211Y-88344478D01*
X140254947Y-88335321D01*
X140279330Y-88319030D01*
X140302104Y-88314500D01*
X140319621Y-88306766D01*
X140370898Y-88300817D01*
X140375002Y-88300001D01*
X140377933Y-88300000D01*
X140377942Y-88300000D01*
X141622058Y-88300000D01*
X141624999Y-88300000D01*
X141629115Y-88300818D01*
G37*
G36*
X144629115Y-88300818D02*
G01*
X144680378Y-88306766D01*
X144697892Y-88314499D01*
X144720670Y-88319030D01*
X144745054Y-88335323D01*
X144765788Y-88344478D01*
X144779950Y-88358640D01*
X144801776Y-88373224D01*
X144816359Y-88395049D01*
X144830521Y-88409211D01*
X144839675Y-88429943D01*
X144855970Y-88454330D01*
X144860500Y-88477108D01*
X144868233Y-88494621D01*
X144874182Y-88545898D01*
X144874999Y-88550002D01*
X144874999Y-88552932D01*
X144875000Y-88552941D01*
X144875000Y-89472058D01*
X144875000Y-89474999D01*
X144874180Y-89479116D01*
X144868233Y-89530378D01*
X144860501Y-89547888D01*
X144855970Y-89570670D01*
X144839673Y-89595058D01*
X144830521Y-89615788D01*
X144816361Y-89629947D01*
X144801776Y-89651776D01*
X144779947Y-89666361D01*
X144765788Y-89680521D01*
X144745058Y-89689673D01*
X144720670Y-89705970D01*
X144697889Y-89710501D01*
X144680378Y-89718233D01*
X144629102Y-89724182D01*
X144624998Y-89724999D01*
X144622066Y-89724999D01*
X144622058Y-89725000D01*
X143377942Y-89725000D01*
X143377941Y-89724999D01*
X143375001Y-89725000D01*
X143370883Y-89724181D01*
X143319621Y-89718233D01*
X143302110Y-89710501D01*
X143279330Y-89705970D01*
X143254943Y-89689675D01*
X143234211Y-89680521D01*
X143220049Y-89666359D01*
X143198224Y-89651776D01*
X143183640Y-89629950D01*
X143169478Y-89615788D01*
X143160323Y-89595054D01*
X143144030Y-89570670D01*
X143139499Y-89547893D01*
X143131766Y-89530378D01*
X143125817Y-89479101D01*
X143125001Y-89474998D01*
X143125000Y-89472066D01*
X143125000Y-89472058D01*
X143125000Y-88552941D01*
X143125000Y-88552940D01*
X143125000Y-88550001D01*
X143125818Y-88545886D01*
X143131766Y-88494621D01*
X143139499Y-88477105D01*
X143144030Y-88454330D01*
X143160321Y-88429947D01*
X143169478Y-88409211D01*
X143183642Y-88395046D01*
X143198224Y-88373224D01*
X143220046Y-88358642D01*
X143234211Y-88344478D01*
X143254947Y-88335321D01*
X143279330Y-88319030D01*
X143302104Y-88314500D01*
X143319621Y-88306766D01*
X143370898Y-88300817D01*
X143375002Y-88300001D01*
X143377933Y-88300000D01*
X143377942Y-88300000D01*
X144622058Y-88300000D01*
X144624999Y-88300000D01*
X144629115Y-88300818D01*
G37*
G36*
X147629115Y-88300818D02*
G01*
X147680378Y-88306766D01*
X147697892Y-88314499D01*
X147720670Y-88319030D01*
X147745054Y-88335323D01*
X147765788Y-88344478D01*
X147779950Y-88358640D01*
X147801776Y-88373224D01*
X147816359Y-88395049D01*
X147830521Y-88409211D01*
X147839675Y-88429943D01*
X147855970Y-88454330D01*
X147860500Y-88477108D01*
X147868233Y-88494621D01*
X147874182Y-88545898D01*
X147874999Y-88550002D01*
X147874999Y-88552932D01*
X147875000Y-88552941D01*
X147875000Y-89472058D01*
X147875000Y-89474999D01*
X147874180Y-89479116D01*
X147868233Y-89530378D01*
X147860501Y-89547888D01*
X147855970Y-89570670D01*
X147839673Y-89595058D01*
X147830521Y-89615788D01*
X147816361Y-89629947D01*
X147801776Y-89651776D01*
X147779947Y-89666361D01*
X147765788Y-89680521D01*
X147745058Y-89689673D01*
X147720670Y-89705970D01*
X147697889Y-89710501D01*
X147680378Y-89718233D01*
X147629102Y-89724182D01*
X147624998Y-89724999D01*
X147622066Y-89724999D01*
X147622058Y-89725000D01*
X146377942Y-89725000D01*
X146377941Y-89724999D01*
X146375001Y-89725000D01*
X146370883Y-89724181D01*
X146319621Y-89718233D01*
X146302110Y-89710501D01*
X146279330Y-89705970D01*
X146254943Y-89689675D01*
X146234211Y-89680521D01*
X146220049Y-89666359D01*
X146198224Y-89651776D01*
X146183640Y-89629950D01*
X146169478Y-89615788D01*
X146160323Y-89595054D01*
X146144030Y-89570670D01*
X146139499Y-89547893D01*
X146131766Y-89530378D01*
X146125817Y-89479101D01*
X146125001Y-89474998D01*
X146125000Y-89472066D01*
X146125000Y-89472058D01*
X146125000Y-88552941D01*
X146125000Y-88552940D01*
X146125000Y-88550001D01*
X146125818Y-88545886D01*
X146131766Y-88494621D01*
X146139499Y-88477105D01*
X146144030Y-88454330D01*
X146160321Y-88429947D01*
X146169478Y-88409211D01*
X146183642Y-88395046D01*
X146198224Y-88373224D01*
X146220046Y-88358642D01*
X146234211Y-88344478D01*
X146254947Y-88335321D01*
X146279330Y-88319030D01*
X146302104Y-88314500D01*
X146319621Y-88306766D01*
X146370898Y-88300817D01*
X146375002Y-88300001D01*
X146377933Y-88300000D01*
X146377942Y-88300000D01*
X147622058Y-88300000D01*
X147624999Y-88300000D01*
X147629115Y-88300818D01*
G37*
G36*
X150629115Y-88300818D02*
G01*
X150680378Y-88306766D01*
X150697892Y-88314499D01*
X150720670Y-88319030D01*
X150745054Y-88335323D01*
X150765788Y-88344478D01*
X150779950Y-88358640D01*
X150801776Y-88373224D01*
X150816359Y-88395049D01*
X150830521Y-88409211D01*
X150839675Y-88429943D01*
X150855970Y-88454330D01*
X150860500Y-88477108D01*
X150868233Y-88494621D01*
X150874182Y-88545898D01*
X150874999Y-88550002D01*
X150874999Y-88552932D01*
X150875000Y-88552941D01*
X150875000Y-89472058D01*
X150875000Y-89474999D01*
X150874180Y-89479116D01*
X150868233Y-89530378D01*
X150860501Y-89547888D01*
X150855970Y-89570670D01*
X150839673Y-89595058D01*
X150830521Y-89615788D01*
X150816361Y-89629947D01*
X150801776Y-89651776D01*
X150779947Y-89666361D01*
X150765788Y-89680521D01*
X150745058Y-89689673D01*
X150720670Y-89705970D01*
X150697889Y-89710501D01*
X150680378Y-89718233D01*
X150629102Y-89724182D01*
X150624998Y-89724999D01*
X150622066Y-89724999D01*
X150622058Y-89725000D01*
X149377942Y-89725000D01*
X149377941Y-89724999D01*
X149375001Y-89725000D01*
X149370883Y-89724181D01*
X149319621Y-89718233D01*
X149302110Y-89710501D01*
X149279330Y-89705970D01*
X149254943Y-89689675D01*
X149234211Y-89680521D01*
X149220049Y-89666359D01*
X149198224Y-89651776D01*
X149183640Y-89629950D01*
X149169478Y-89615788D01*
X149160323Y-89595054D01*
X149144030Y-89570670D01*
X149139499Y-89547893D01*
X149131766Y-89530378D01*
X149125817Y-89479101D01*
X149125001Y-89474998D01*
X149125000Y-89472066D01*
X149125000Y-89472058D01*
X149125000Y-88552941D01*
X149125000Y-88552940D01*
X149125000Y-88550001D01*
X149125818Y-88545886D01*
X149131766Y-88494621D01*
X149139499Y-88477105D01*
X149144030Y-88454330D01*
X149160321Y-88429947D01*
X149169478Y-88409211D01*
X149183642Y-88395046D01*
X149198224Y-88373224D01*
X149220046Y-88358642D01*
X149234211Y-88344478D01*
X149254947Y-88335321D01*
X149279330Y-88319030D01*
X149302104Y-88314500D01*
X149319621Y-88306766D01*
X149370898Y-88300817D01*
X149375002Y-88300001D01*
X149377933Y-88300000D01*
X149377942Y-88300000D01*
X150622058Y-88300000D01*
X150624999Y-88300000D01*
X150629115Y-88300818D01*
G37*
G36*
X153629115Y-88300818D02*
G01*
X153680378Y-88306766D01*
X153697892Y-88314499D01*
X153720670Y-88319030D01*
X153745054Y-88335323D01*
X153765788Y-88344478D01*
X153779950Y-88358640D01*
X153801776Y-88373224D01*
X153816359Y-88395049D01*
X153830521Y-88409211D01*
X153839675Y-88429943D01*
X153855970Y-88454330D01*
X153860500Y-88477108D01*
X153868233Y-88494621D01*
X153874182Y-88545898D01*
X153874999Y-88550002D01*
X153874999Y-88552932D01*
X153875000Y-88552941D01*
X153875000Y-89472058D01*
X153875000Y-89474999D01*
X153874180Y-89479116D01*
X153868233Y-89530378D01*
X153860501Y-89547888D01*
X153855970Y-89570670D01*
X153839673Y-89595058D01*
X153830521Y-89615788D01*
X153816361Y-89629947D01*
X153801776Y-89651776D01*
X153779947Y-89666361D01*
X153765788Y-89680521D01*
X153745058Y-89689673D01*
X153720670Y-89705970D01*
X153697889Y-89710501D01*
X153680378Y-89718233D01*
X153629102Y-89724182D01*
X153624998Y-89724999D01*
X153622066Y-89724999D01*
X153622058Y-89725000D01*
X152377942Y-89725000D01*
X152377941Y-89724999D01*
X152375001Y-89725000D01*
X152370883Y-89724181D01*
X152319621Y-89718233D01*
X152302110Y-89710501D01*
X152279330Y-89705970D01*
X152254943Y-89689675D01*
X152234211Y-89680521D01*
X152220049Y-89666359D01*
X152198224Y-89651776D01*
X152183640Y-89629950D01*
X152169478Y-89615788D01*
X152160323Y-89595054D01*
X152144030Y-89570670D01*
X152139499Y-89547893D01*
X152131766Y-89530378D01*
X152125817Y-89479101D01*
X152125001Y-89474998D01*
X152125000Y-89472066D01*
X152125000Y-89472058D01*
X152125000Y-88552941D01*
X152125000Y-88552940D01*
X152125000Y-88550001D01*
X152125818Y-88545886D01*
X152131766Y-88494621D01*
X152139499Y-88477105D01*
X152144030Y-88454330D01*
X152160321Y-88429947D01*
X152169478Y-88409211D01*
X152183642Y-88395046D01*
X152198224Y-88373224D01*
X152220046Y-88358642D01*
X152234211Y-88344478D01*
X152254947Y-88335321D01*
X152279330Y-88319030D01*
X152302104Y-88314500D01*
X152319621Y-88306766D01*
X152370898Y-88300817D01*
X152375002Y-88300001D01*
X152377933Y-88300000D01*
X152377942Y-88300000D01*
X153622058Y-88300000D01*
X153624999Y-88300000D01*
X153629115Y-88300818D01*
G37*
M02*
