G04 #@! TF.GenerationSoftware,KiCad,Pcbnew,10.0.3-10.0.3~ubuntu26.04.1*
G04 #@! TF.CreationDate,2026-07-19T08:38:35+03:00*
G04 #@! TF.ProjectId,central-unit-main,63656e74-7261-46c2-9d75-6e69742d6d61,B*
G04 #@! TF.SameCoordinates,Original*
G04 #@! TF.FileFunction,Copper,L2,Bot*
G04 #@! TF.FilePolarity,Positive*
%FSLAX46Y46*%
G04 Gerber Fmt 4.6, Leading zero omitted, Abs format (unit mm)*
G04 Created by KiCad (PCBNEW 10.0.3-10.0.3~ubuntu26.04.1) date 2026-07-19 08:38:35*
%MOMM*%
%LPD*%
G01*
G04 APERTURE LIST*
G04 Aperture macros list*
%AMRoundRect*
0 Rectangle with rounded corners*
0 $1 Rounding radius*
0 $2 $3 $4 $5 $6 $7 $8 $9 X,Y pos of 4 corners*
0 Add a 4 corners polygon primitive as box body*
4,1,4,$2,$3,$4,$5,$6,$7,$8,$9,$2,$3,0*
0 Add four circle primitives for the rounded corners*
1,1,$1+$1,$2,$3*
1,1,$1+$1,$4,$5*
1,1,$1+$1,$6,$7*
1,1,$1+$1,$8,$9*
0 Add four rect primitives between the rounded corners*
20,1,$1+$1,$2,$3,$4,$5,0*
20,1,$1+$1,$4,$5,$6,$7,0*
20,1,$1+$1,$6,$7,$8,$9,0*
20,1,$1+$1,$8,$9,$2,$3,0*%
G04 Aperture macros list end*
G04 #@! TA.AperFunction,ComponentPad*
%ADD10C,2.000000*%
G04 #@! TD*
G04 #@! TA.AperFunction,ComponentPad*
%ADD11C,7.600000*%
G04 #@! TD*
G04 #@! TA.AperFunction,ComponentPad*
%ADD12O,2.200000X1.000000*%
G04 #@! TD*
G04 #@! TA.AperFunction,ComponentPad*
%ADD13O,1.800000X1.000000*%
G04 #@! TD*
G04 #@! TA.AperFunction,ComponentPad*
%ADD14C,0.500000*%
G04 #@! TD*
G04 #@! TA.AperFunction,ComponentPad*
%ADD15RoundRect,0.250000X0.600000X0.600000X-0.600000X0.600000X-0.600000X-0.600000X0.600000X-0.600000X0*%
G04 #@! TD*
G04 #@! TA.AperFunction,ComponentPad*
%ADD16C,1.700000*%
G04 #@! TD*
G04 #@! TA.AperFunction,ComponentPad*
%ADD17C,1.980000*%
G04 #@! TD*
G04 #@! TA.AperFunction,ComponentPad*
%ADD18RoundRect,0.250000X-0.600000X-0.600000X0.600000X-0.600000X0.600000X0.600000X-0.600000X0.600000X0*%
G04 #@! TD*
G04 #@! TA.AperFunction,ComponentPad*
%ADD19RoundRect,0.250000X0.600000X-0.600000X0.600000X0.600000X-0.600000X0.600000X-0.600000X-0.600000X0*%
G04 #@! TD*
G04 #@! TA.AperFunction,ComponentPad*
%ADD20C,1.540000*%
G04 #@! TD*
G04 #@! TA.AperFunction,ComponentPad*
%ADD21RoundRect,0.249999X-0.850001X0.850001X-0.850001X-0.850001X0.850001X-0.850001X0.850001X0.850001X0*%
G04 #@! TD*
G04 #@! TA.AperFunction,ComponentPad*
%ADD22C,2.200000*%
G04 #@! TD*
G04 #@! TA.AperFunction,ViaPad*
%ADD23C,0.610000*%
G04 #@! TD*
G04 #@! TA.AperFunction,Conductor*
%ADD24C,0.203200*%
G04 #@! TD*
G04 #@! TA.AperFunction,Conductor*
%ADD25C,0.254000*%
G04 #@! TD*
G04 APERTURE END LIST*
D10*
G04 #@! TO.P,TP3,1,1_1*
G04 #@! TO.N,+3V3*
X129000000Y-83000000D03*
G04 #@! TD*
G04 #@! TO.P,TP6,1,1_1*
G04 #@! TO.N,/MCU/USB_D-*
X155500000Y-61000000D03*
G04 #@! TD*
D11*
G04 #@! TO.P,H3,1,1_1*
G04 #@! TO.N,GND*
X159000000Y-135500000D03*
G04 #@! TD*
D10*
G04 #@! TO.P,TP1,1,1_1*
G04 #@! TO.N,/Connector/NRST*
X161250000Y-102500000D03*
G04 #@! TD*
G04 #@! TO.P,TP7,1,1_1*
G04 #@! TO.N,/MCU/USB_D+*
X155500000Y-75000000D03*
G04 #@! TD*
D11*
G04 #@! TO.P,H4,1,1_1*
G04 #@! TO.N,GND*
X125000000Y-135500000D03*
G04 #@! TD*
G04 #@! TO.P,H1,1,1_1*
G04 #@! TO.N,GND*
X125000000Y-54000000D03*
G04 #@! TD*
D12*
G04 #@! TO.P,J2,SH1,SHIELD1_SH1*
G04 #@! TO.N,GND*
X161650000Y-72320000D03*
G04 #@! TO.P,J2,SH2,SHIELD2_SH2*
X161650000Y-63680000D03*
D13*
G04 #@! TO.P,J2,SH3,SHIELD3_SH3*
X157650000Y-72320000D03*
G04 #@! TO.P,J2,SH4,SHIELD4_SH4*
X157650000Y-63680000D03*
G04 #@! TD*
D10*
G04 #@! TO.P,TP4,1,1_1*
G04 #@! TO.N,/MCU/USB_DETECT*
X159000000Y-75000000D03*
G04 #@! TD*
G04 #@! TO.P,TP8,1,1_1*
G04 #@! TO.N,+BATT*
X129000000Y-67000000D03*
G04 #@! TD*
D11*
G04 #@! TO.P,H2,1,1_1*
G04 #@! TO.N,GND*
X159000000Y-54000000D03*
G04 #@! TD*
D14*
G04 #@! TO.P,U2,11,PGND_11*
G04 #@! TO.N,GND*
X138575000Y-75500000D03*
X138000000Y-76450000D03*
X138000000Y-74550000D03*
X137425000Y-75500000D03*
G04 #@! TD*
D10*
G04 #@! TO.P,TP5,1,1_1*
G04 #@! TO.N,VBUS*
X159000000Y-61000000D03*
G04 #@! TD*
G04 #@! TO.P,TP2,1,1_1*
G04 #@! TO.N,/MCU/BOOT0*
X129000000Y-92000000D03*
G04 #@! TD*
D15*
G04 #@! TO.P,J4,1,VTREF_1*
G04 #@! TO.N,+3V3*
X126000000Y-100640000D03*
D16*
G04 #@! TO.P,J4,2,VCC/NC_2*
X123460000Y-100640000D03*
G04 #@! TO.P,J4,3,~{TRST}_3*
G04 #@! TO.N,/Connector/~{JTRST}*
X126000000Y-103180000D03*
G04 #@! TO.P,J4,4,GND_4*
G04 #@! TO.N,GND*
X123460000Y-103180000D03*
G04 #@! TO.P,J4,5,TDI_5*
G04 #@! TO.N,/Connector/JTDI*
X126000000Y-105720000D03*
G04 #@! TO.P,J4,6,GND_6*
G04 #@! TO.N,GND*
X123460000Y-105720000D03*
G04 #@! TO.P,J4,7,TMS/SWDIO_7*
G04 #@! TO.N,/Connector/JTMS{slash}SWDIO*
X126000000Y-108260000D03*
G04 #@! TO.P,J4,8,GND_8*
G04 #@! TO.N,GND*
X123460000Y-108260000D03*
G04 #@! TO.P,J4,9,TCK/SWCLK_9*
G04 #@! TO.N,/Connector/JTCK{slash}SWCLK*
X126000000Y-110800000D03*
G04 #@! TO.P,J4,10,GND_10*
G04 #@! TO.N,GND*
X123460000Y-110800000D03*
G04 #@! TO.P,J4,11,RTCK_11*
G04 #@! TO.N,unconnected-(J4-RTCK-Pad11)*
X126000000Y-113340000D03*
G04 #@! TO.P,J4,12,GND_12*
G04 #@! TO.N,GND*
X123460000Y-113340000D03*
G04 #@! TO.P,J4,13,TDO/SWO_13*
G04 #@! TO.N,/Connector/JTDO{slash}TRACESWO*
X126000000Y-115880000D03*
G04 #@! TO.P,J4,14,GND_14*
G04 #@! TO.N,GND*
X123460000Y-115880000D03*
G04 #@! TO.P,J4,15,~{SRST}_15*
G04 #@! TO.N,/Connector/NRST*
X126000000Y-118420000D03*
G04 #@! TO.P,J4,16,GND_16*
G04 #@! TO.N,GND*
X123460000Y-118420000D03*
G04 #@! TO.P,J4,17,DBGRQ/NC_17*
G04 #@! TO.N,unconnected-(J4-DBGRQ{slash}NC-Pad17)*
X126000000Y-120960000D03*
G04 #@! TO.P,J4,18,GND_18*
G04 #@! TO.N,GND*
X123460000Y-120960000D03*
G04 #@! TO.P,J4,19,DBGACK/NC_19*
G04 #@! TO.N,unconnected-(J4-DBGACK{slash}NC-Pad19)*
X126000000Y-123500000D03*
G04 #@! TO.P,J4,20,GND_20*
G04 #@! TO.N,GND*
X123460000Y-123500000D03*
G04 #@! TD*
D17*
G04 #@! TO.P,BAT1,1,+_1*
G04 #@! TO.N,Net-(BAT1-+)*
X142000000Y-53380000D03*
G04 #@! TO.P,BAT1,2,-_2*
G04 #@! TO.N,GND*
X142000000Y-125600000D03*
G04 #@! TD*
D18*
G04 #@! TO.P,J5,1,Pin_1_1*
G04 #@! TO.N,+3V3*
X158000000Y-123500000D03*
D16*
G04 #@! TO.P,J5,2,Pin_2_2*
G04 #@! TO.N,/Connector/SPI_SS*
X160540000Y-123500000D03*
G04 #@! TO.P,J5,3,Pin_3_3*
G04 #@! TO.N,/Connector/I2C_SDA*
X158000000Y-120960000D03*
G04 #@! TO.P,J5,4,Pin_4_4*
G04 #@! TO.N,/Connector/SPI_SCK*
X160540000Y-120960000D03*
G04 #@! TO.P,J5,5,Pin_5_5*
G04 #@! TO.N,/Connector/I2C_SCL*
X158000000Y-118420000D03*
G04 #@! TO.P,J5,6,Pin_6_6*
G04 #@! TO.N,/Connector/SPI_MISO*
X160540000Y-118420000D03*
G04 #@! TO.P,J5,7,Pin_7_7*
G04 #@! TO.N,/Connector/GPIO1*
X158000000Y-115880000D03*
G04 #@! TO.P,J5,8,Pin_8_8*
G04 #@! TO.N,/Connector/SPI_MOSI*
X160540000Y-115880000D03*
G04 #@! TO.P,J5,9,Pin_9_9*
G04 #@! TO.N,/Connector/GPIO0*
X158000000Y-113340000D03*
G04 #@! TO.P,J5,10,Pin_10_10*
G04 #@! TO.N,GND*
X160540000Y-113340000D03*
G04 #@! TD*
D19*
G04 #@! TO.P,J3,1,Pin_1_1*
G04 #@! TO.N,+3V3*
X147080000Y-135752500D03*
D16*
G04 #@! TO.P,J3,2,Pin_2_2*
G04 #@! TO.N,/Connector/SPI_SS*
X147080000Y-133212500D03*
G04 #@! TO.P,J3,3,Pin_3_3*
G04 #@! TO.N,/Connector/I2C_SDA*
X144540000Y-135752500D03*
G04 #@! TO.P,J3,4,Pin_4_4*
G04 #@! TO.N,/Connector/SPI_SCK*
X144540000Y-133212500D03*
G04 #@! TO.P,J3,5,Pin_5_5*
G04 #@! TO.N,/Connector/I2C_SCL*
X142000000Y-135752500D03*
G04 #@! TO.P,J3,6,Pin_6_6*
G04 #@! TO.N,/Connector/SPI_MISO*
X142000000Y-133212500D03*
G04 #@! TO.P,J3,7,Pin_7_7*
G04 #@! TO.N,/Connector/GPIO1*
X139460000Y-135752500D03*
G04 #@! TO.P,J3,8,Pin_8_8*
G04 #@! TO.N,/Connector/SPI_MOSI*
X139460000Y-133212500D03*
G04 #@! TO.P,J3,9,Pin_9_9*
G04 #@! TO.N,/Connector/GPIO0*
X136920000Y-135752500D03*
G04 #@! TO.P,J3,10,Pin_10_10*
G04 #@! TO.N,GND*
X136920000Y-133212500D03*
G04 #@! TD*
D20*
G04 #@! TO.P,S1,1,COM_1_1*
G04 #@! TO.N,GND*
X162000000Y-86500000D03*
G04 #@! TO.P,S1,2,COM_2_2*
G04 #@! TO.N,Net-(S1-COM_2)*
X155500000Y-86500000D03*
G04 #@! TO.P,S1,3,NO_1_3*
G04 #@! TO.N,GND*
X162000000Y-91000000D03*
G04 #@! TO.P,S1,4,NO_2_4*
G04 #@! TO.N,Net-(S1-COM_2)*
X155500000Y-91000000D03*
G04 #@! TD*
D21*
G04 #@! TO.P,J1,1,Pin_1_1*
G04 #@! TO.N,+BATT*
X157500000Y-79960000D03*
D22*
G04 #@! TO.P,J1,2,Pin_2_2*
G04 #@! TO.N,Net-(IC1-VCC)*
X157500000Y-82500000D03*
G04 #@! TD*
D23*
G04 #@! TO.N,+3V3*
X139000000Y-110500000D03*
X158000000Y-92250000D03*
X150250000Y-89087500D03*
X141000000Y-92000000D03*
X141000000Y-90000000D03*
G04 #@! TO.N,/MCU/USB_D-*
X162250000Y-98250000D03*
G04 #@! TO.N,+BATT*
X135500000Y-57750000D03*
X137750000Y-61387500D03*
G04 #@! TO.N,GND*
X156000000Y-106000000D03*
X143000000Y-67000000D03*
X146500000Y-62000000D03*
X147500000Y-84500000D03*
X156500000Y-89500000D03*
X148500000Y-116500000D03*
X145000000Y-106000000D03*
X138000000Y-59000000D03*
X143500000Y-90000000D03*
X144500000Y-109500000D03*
X125000000Y-64000000D03*
X146500000Y-63000000D03*
X162000000Y-78000000D03*
X140500000Y-84500000D03*
X139500000Y-84500000D03*
X148500000Y-115500000D03*
X125000000Y-67000000D03*
X145500000Y-84500000D03*
X148250000Y-87750000D03*
X150250000Y-87750000D03*
X149500000Y-115500000D03*
X141000000Y-106000000D03*
X142500000Y-84500000D03*
X148500000Y-117500000D03*
X125000000Y-71000000D03*
X155000000Y-106000000D03*
X142000000Y-67000000D03*
X149500000Y-116500000D03*
X149250000Y-87750000D03*
X138237597Y-118750000D03*
X162000000Y-79000000D03*
X125000000Y-63000000D03*
X125000000Y-66000000D03*
X162000000Y-83000000D03*
X145000000Y-109000000D03*
X143500000Y-89000000D03*
X149500000Y-84500000D03*
X156000000Y-105000000D03*
X134500000Y-84500000D03*
X141000000Y-108000000D03*
X143000000Y-69000000D03*
X141000000Y-111500000D03*
X156500000Y-88500000D03*
X162000000Y-82000000D03*
X137500000Y-84500000D03*
X141500000Y-84500000D03*
X162000000Y-84000000D03*
X135500000Y-84500000D03*
X146500000Y-61000000D03*
X162000000Y-81000000D03*
X142000000Y-111500000D03*
X162000000Y-80000000D03*
X132500000Y-84500000D03*
X148500000Y-84500000D03*
X133500000Y-84500000D03*
X144000000Y-105000000D03*
X146250000Y-74500000D03*
X143000000Y-71000000D03*
X146500000Y-84500000D03*
X142000000Y-69000000D03*
X125000000Y-65000000D03*
X136500000Y-84500000D03*
X125000000Y-69000000D03*
X125000000Y-70000000D03*
X143500000Y-91000000D03*
X148500000Y-111000000D03*
X156000000Y-95000000D03*
X144000000Y-106000000D03*
X143750000Y-74500000D03*
X142000000Y-71000000D03*
X125000000Y-68000000D03*
X144500000Y-84500000D03*
X143500000Y-84500000D03*
X138500000Y-84500000D03*
X155000000Y-94000000D03*
X156000000Y-94000000D03*
G04 #@! TO.N,/MCU/I2C1_SDA*
X140500000Y-121750000D03*
X148750000Y-96000000D03*
X140500000Y-116500000D03*
G04 #@! TO.N,/Connector/NRST*
X141000000Y-104000000D03*
X159000000Y-93000000D03*
G04 #@! TO.N,/Connector/JTMS{slash}SWDIO*
X125000000Y-89000000D03*
G04 #@! TO.N,/MCU/I2C1_SCL*
X142000000Y-116500000D03*
X141250000Y-119500000D03*
X149512403Y-96000000D03*
G04 #@! TO.N,/MCU/ACC_INT*
X139762403Y-118750000D03*
X147750713Y-96000000D03*
G04 #@! TO.N,Net-(J2-DP1)*
X155750000Y-68500000D03*
X158750000Y-67250000D03*
G04 #@! TO.N,Net-(J2-DN1)*
X155750000Y-67500000D03*
X158729727Y-68691000D03*
G04 #@! TO.N,Net-(J2-VBUS1)*
X151250000Y-70400000D03*
X151250000Y-65600000D03*
X147250000Y-66250000D03*
G04 #@! TO.N,/MCU/USB_D+*
X162250000Y-97250000D03*
G04 #@! TO.N,/MCU/ALS_INT*
X146988310Y-96000000D03*
X139000000Y-118750000D03*
G04 #@! TO.N,/Connector/~{JTRST}*
X125000000Y-93000000D03*
G04 #@! TO.N,Net-(IC1-~{OUT})*
X136000000Y-73500000D03*
X143000000Y-77750000D03*
G04 #@! TO.N,/Connector/I2C_SCL*
X152250000Y-107250000D03*
X152250000Y-123750000D03*
G04 #@! TO.N,/Connector/JTDI*
X125000000Y-91000000D03*
G04 #@! TO.N,/Connector/I2C_SDA*
X153000000Y-125500000D03*
X153000000Y-107500000D03*
G04 #@! TO.N,/Connector/GPIO0*
X150500000Y-107500000D03*
X150500000Y-120500000D03*
G04 #@! TO.N,/Connector/GPIO1*
X151250000Y-122250000D03*
X151250000Y-107250000D03*
G04 #@! TO.N,/Connector/SPI_SS*
X157250000Y-105000000D03*
G04 #@! TO.N,/Connector/SPI_SCK*
X158000000Y-105750000D03*
G04 #@! TO.N,/Connector/SPI_MISO*
X158750000Y-106512403D03*
G04 #@! TO.N,/Connector/SPI_MOSI*
X159500000Y-107250000D03*
G04 #@! TO.N,/Connector/JTCK{slash}SWCLK*
X125000000Y-87000000D03*
X153250000Y-85250000D03*
G04 #@! TO.N,/Connector/JTDO{slash}TRACESWO*
X152250000Y-86500000D03*
G04 #@! TD*
G04 #@! TO.N,+3V3*
D24*
X144500000Y-88250000D02*
X142750000Y-88250000D01*
X145337500Y-89087500D02*
X144500000Y-88250000D01*
D25*
X139000000Y-94000000D02*
X139000000Y-110500000D01*
X150500000Y-92250000D02*
X158000000Y-92250000D01*
X141000000Y-92000000D02*
X150250000Y-92000000D01*
X141000000Y-92000000D02*
X141000000Y-90000000D01*
X158000000Y-124832500D02*
X158000000Y-123500000D01*
X126000000Y-100640000D02*
X129000000Y-103640000D01*
X145332500Y-137500000D02*
X147080000Y-135752500D01*
X127250000Y-90000000D02*
X126000000Y-91250000D01*
D24*
X142750000Y-88250000D02*
X141000000Y-90000000D01*
D25*
X147080000Y-135752500D02*
X158000000Y-124832500D01*
X129000000Y-132500000D02*
X134000000Y-137500000D01*
X129000000Y-103640000D02*
X129000000Y-132500000D01*
D24*
X150250000Y-89087500D02*
X145337500Y-89087500D01*
D25*
X150250000Y-92000000D02*
X150500000Y-92250000D01*
X141000000Y-90000000D02*
X127250000Y-90000000D01*
X126000000Y-91250000D02*
X126000000Y-100640000D01*
X141000000Y-92000000D02*
X139000000Y-94000000D01*
X134000000Y-137500000D02*
X145332500Y-137500000D01*
G04 #@! TO.N,/MCU/USB_D-*
D24*
X156573552Y-66000000D02*
X156453552Y-66000000D01*
X160251448Y-66000000D02*
X158853552Y-66000000D01*
X155000000Y-65500000D02*
X155000000Y-62875000D01*
X163677800Y-96822200D02*
X163677800Y-69426352D01*
X156813552Y-65567616D02*
X156813552Y-65760000D01*
X162250000Y-98250000D02*
X163677800Y-96822200D01*
X156453552Y-66000000D02*
X156214205Y-66000000D01*
X157413552Y-65760000D02*
X157413552Y-65567616D01*
X155000000Y-62875000D02*
X155500000Y-62375000D01*
X156214205Y-66000000D02*
X155500000Y-66000000D01*
X158613552Y-65760000D02*
X158613552Y-65567591D01*
X157173552Y-65327616D02*
X157053552Y-65327616D01*
X158373552Y-65327591D02*
X158253552Y-65327591D01*
X155500000Y-66000000D02*
X155000000Y-65500000D01*
X157773552Y-66000000D02*
X157653552Y-66000000D01*
X155500000Y-62375000D02*
X155500000Y-61000000D01*
X158013552Y-65567591D02*
X158013552Y-65760000D01*
X163677800Y-69426352D02*
X160251448Y-66000000D01*
X158613552Y-65567591D02*
G75*
G03*
X158373552Y-65327648I-239952J-9D01*
G01*
X157653552Y-66000000D02*
G75*
G02*
X157413600Y-65760000I48J240000D01*
G01*
X158853552Y-66000000D02*
G75*
G02*
X158613600Y-65760000I48J240000D01*
G01*
X157053552Y-65327616D02*
G75*
G03*
X156813616Y-65567616I48J-239984D01*
G01*
X157413552Y-65567616D02*
G75*
G03*
X157173552Y-65327648I-239952J16D01*
G01*
X158253552Y-65327591D02*
G75*
G03*
X158013591Y-65567591I48J-240009D01*
G01*
X158013552Y-65760000D02*
G75*
G02*
X157773552Y-65999952I-239952J0D01*
G01*
X156813552Y-65760000D02*
G75*
G02*
X156573552Y-65999952I-239952J0D01*
G01*
G04 #@! TO.N,+BATT*
X135500000Y-61000000D02*
X135887500Y-61387500D01*
X135500000Y-57750000D02*
X135500000Y-61000000D01*
X135887500Y-61387500D02*
X137750000Y-61387500D01*
G04 #@! TO.N,/MCU/I2C1_SDA*
X148750000Y-108250000D02*
X140500000Y-116500000D01*
X140500000Y-116500000D02*
X140500000Y-121750000D01*
X148750000Y-96000000D02*
X148750000Y-108250000D01*
G04 #@! TO.N,/Connector/NRST*
X146250000Y-93000000D02*
X159000000Y-93000000D01*
X144250000Y-104000000D02*
X145250000Y-103000000D01*
X161250000Y-95250000D02*
X161250000Y-102500000D01*
X145250000Y-94000000D02*
X146250000Y-93000000D01*
X141000000Y-104000000D02*
X144250000Y-104000000D01*
X159000000Y-93000000D02*
X161250000Y-95250000D01*
X145250000Y-103000000D02*
X145250000Y-94000000D01*
G04 #@! TO.N,/Connector/JTMS{slash}SWDIO*
X121750000Y-107000000D02*
X124740000Y-107000000D01*
X125000000Y-89000000D02*
X122250000Y-89000000D01*
X124740000Y-107000000D02*
X126000000Y-108260000D01*
X121250000Y-90000000D02*
X121250000Y-106500000D01*
X122250000Y-89000000D02*
X121250000Y-90000000D01*
X121250000Y-106500000D02*
X121750000Y-107000000D01*
G04 #@! TO.N,/MCU/I2C1_SCL*
X141250000Y-119500000D02*
X142000000Y-118750000D01*
X149511686Y-96000717D02*
X149511686Y-108238314D01*
X149511686Y-108238314D02*
X142000000Y-115750000D01*
X142000000Y-115750000D02*
X142000000Y-116500000D01*
X142000000Y-118750000D02*
X142000000Y-116500000D01*
X149512403Y-96000000D02*
X149511686Y-96000717D01*
G04 #@! TO.N,/MCU/ACC_INT*
X139762403Y-116447051D02*
X139762403Y-118750000D01*
X147750000Y-96000713D02*
X147750000Y-108459454D01*
X147750000Y-108459454D02*
X139762403Y-116447051D01*
X147750713Y-96000000D02*
X147750000Y-96000713D01*
G04 #@! TO.N,Net-(J2-DP1)*
X159500000Y-69000000D02*
X159500000Y-68000000D01*
X155750000Y-68500000D02*
X156750000Y-69500000D01*
X156750000Y-69500000D02*
X159000000Y-69500000D01*
X159000000Y-69500000D02*
X159500000Y-69000000D01*
X159500000Y-68000000D02*
X158750000Y-67250000D01*
G04 #@! TO.N,Net-(J2-DN1)*
X155750000Y-67500000D02*
X157538727Y-67500000D01*
X157538727Y-67500000D02*
X158729727Y-68691000D01*
G04 #@! TO.N,Net-(J2-VBUS1)*
D25*
X151250000Y-70400000D02*
X151250000Y-65600000D01*
X147900000Y-65600000D02*
X147250000Y-66250000D01*
X151250000Y-65600000D02*
X147900000Y-65600000D01*
G04 #@! TO.N,/MCU/USB_D+*
D24*
X155500000Y-73500000D02*
X155500000Y-75000000D01*
X163322200Y-96177800D02*
X163322200Y-69822200D01*
X163322200Y-69822200D02*
X160000000Y-66500000D01*
X155500000Y-66500000D02*
X155000000Y-67000000D01*
X162250000Y-97250000D02*
X163322200Y-96177800D01*
X155000000Y-67000000D02*
X155000000Y-73000000D01*
X160000000Y-66500000D02*
X155500000Y-66500000D01*
X155000000Y-73000000D02*
X155500000Y-73500000D01*
G04 #@! TO.N,/MCU/ALS_INT*
X146988310Y-108511690D02*
X139000000Y-116500000D01*
X146988310Y-96000000D02*
X146988310Y-108511690D01*
X139000000Y-116500000D02*
X139000000Y-118750000D01*
G04 #@! TO.N,/Connector/~{JTRST}*
X122250000Y-101500000D02*
X122750000Y-102000000D01*
X122250000Y-94000000D02*
X122250000Y-101500000D01*
X123250000Y-93000000D02*
X122250000Y-94000000D01*
X122750000Y-102000000D02*
X124820000Y-102000000D01*
X125000000Y-93000000D02*
X123250000Y-93000000D01*
X124820000Y-102000000D02*
X126000000Y-103180000D01*
G04 #@! TO.N,Net-(IC1-~{OUT})*
X143000000Y-77750000D02*
X143000000Y-74000000D01*
X143000000Y-74000000D02*
X142500000Y-73500000D01*
X142500000Y-73500000D02*
X136000000Y-73500000D01*
G04 #@! TO.N,/Connector/I2C_SCL*
X143250000Y-132750000D02*
X143250000Y-134502500D01*
X152250000Y-107250000D02*
X152250000Y-123750000D01*
X143250000Y-134502500D02*
X142000000Y-135752500D01*
X152250000Y-123750000D02*
X143250000Y-132750000D01*
G04 #@! TO.N,/Connector/JTDI*
X121750000Y-92000000D02*
X122750000Y-91000000D01*
X122250000Y-104500000D02*
X121750000Y-104000000D01*
X122750000Y-91000000D02*
X125000000Y-91000000D01*
X121750000Y-104000000D02*
X121750000Y-92000000D01*
X126000000Y-105720000D02*
X124780000Y-104500000D01*
X124780000Y-104500000D02*
X122250000Y-104500000D01*
G04 #@! TO.N,/Connector/I2C_SDA*
X145750000Y-134542500D02*
X145750000Y-132750000D01*
X145750000Y-132750000D02*
X153000000Y-125500000D01*
X144540000Y-135752500D02*
X145750000Y-134542500D01*
X153000000Y-107500000D02*
X153000000Y-125500000D01*
G04 #@! TO.N,/Connector/GPIO0*
X138250000Y-134422500D02*
X136920000Y-135752500D01*
X150500000Y-120500000D02*
X138250000Y-132750000D01*
X150500000Y-107500000D02*
X150500000Y-120500000D01*
X138250000Y-132750000D02*
X138250000Y-134422500D01*
G04 #@! TO.N,/Connector/GPIO1*
X140750000Y-132750000D02*
X140750000Y-134462500D01*
X140750000Y-134462500D02*
X139460000Y-135752500D01*
X151250000Y-122250000D02*
X140750000Y-132750000D01*
X151250000Y-107250000D02*
X151250000Y-122250000D01*
G04 #@! TO.N,/Connector/SPI_SS*
X157250000Y-105000000D02*
X159500000Y-105000000D01*
X163250000Y-108750000D02*
X163250000Y-120790000D01*
X159500000Y-105000000D02*
X163250000Y-108750000D01*
X163250000Y-120790000D02*
X160540000Y-123500000D01*
G04 #@! TO.N,/Connector/SPI_SCK*
X158000000Y-105750000D02*
X159500000Y-105750000D01*
X162750000Y-118750000D02*
X160540000Y-120960000D01*
X162750000Y-109000000D02*
X162750000Y-118750000D01*
X159500000Y-105750000D02*
X162750000Y-109000000D01*
G04 #@! TO.N,/Connector/SPI_MISO*
X158750000Y-106512403D02*
X159552949Y-106512403D01*
X162250000Y-116710000D02*
X160540000Y-118420000D01*
X162250000Y-109209454D02*
X162250000Y-116710000D01*
X159552949Y-106512403D02*
X162250000Y-109209454D01*
G04 #@! TO.N,/Connector/SPI_MOSI*
X161750000Y-114670000D02*
X160540000Y-115880000D01*
X159500000Y-107250000D02*
X161750000Y-109500000D01*
X161750000Y-109500000D02*
X161750000Y-114670000D01*
G04 #@! TO.N,/Connector/JTCK{slash}SWCLK*
X126000000Y-110800000D02*
X124700000Y-109500000D01*
X152691000Y-87059000D02*
X125059000Y-87059000D01*
X153250000Y-86500000D02*
X152691000Y-87059000D01*
X120750000Y-88000000D02*
X121750000Y-87000000D01*
X120750000Y-109000000D02*
X120750000Y-88000000D01*
X153250000Y-85250000D02*
X153250000Y-86500000D01*
X121750000Y-87000000D02*
X125000000Y-87000000D01*
X124700000Y-109500000D02*
X121250000Y-109500000D01*
X125059000Y-87059000D02*
X125000000Y-87000000D01*
X121250000Y-109500000D02*
X120750000Y-109000000D01*
G04 #@! TO.N,/Connector/JTDO{slash}TRACESWO*
X120250000Y-114000000D02*
X120750000Y-114500000D01*
X120750000Y-114500000D02*
X124620000Y-114500000D01*
X120250000Y-87000000D02*
X120250000Y-114000000D01*
X121250000Y-86000000D02*
X120250000Y-87000000D01*
X124620000Y-114500000D02*
X126000000Y-115880000D01*
X151750000Y-86000000D02*
X121250000Y-86000000D01*
X152250000Y-86500000D02*
X151750000Y-86000000D01*
G04 #@! TD*
G04 #@! TA.AperFunction,Conductor*
G04 #@! TO.N,GND*
G36*
X121130824Y-106740742D02*
G01*
X121605837Y-107215755D01*
X121699377Y-107254501D01*
X121699378Y-107254501D01*
X121809235Y-107254501D01*
X121809243Y-107254500D01*
X122920938Y-107254500D01*
X122973264Y-107276174D01*
X122994938Y-107328500D01*
X122973264Y-107380826D01*
X122962050Y-107390029D01*
X122822540Y-107483246D01*
X122805926Y-107499860D01*
X123161218Y-107855152D01*
X123152993Y-107859901D01*
X123059901Y-107952993D01*
X123055152Y-107961218D01*
X122699860Y-107605926D01*
X122683246Y-107622540D01*
X122573809Y-107786324D01*
X122498430Y-107968306D01*
X122498427Y-107968317D01*
X122460000Y-108161509D01*
X122460000Y-108358490D01*
X122498427Y-108551682D01*
X122498430Y-108551693D01*
X122573809Y-108733675D01*
X122683246Y-108897459D01*
X122699860Y-108914073D01*
X123055152Y-108558781D01*
X123059901Y-108567007D01*
X123152993Y-108660099D01*
X123161217Y-108664847D01*
X122805926Y-109020139D01*
X122822540Y-109036753D01*
X122932118Y-109109971D01*
X122963584Y-109157064D01*
X122952535Y-109212612D01*
X122905442Y-109244078D01*
X122891006Y-109245500D01*
X121386070Y-109245500D01*
X121333744Y-109223826D01*
X121026174Y-108916256D01*
X121004500Y-108863930D01*
X121004500Y-106793069D01*
X121026174Y-106740743D01*
X121078500Y-106719069D01*
X121130824Y-106740742D01*
G37*
G04 #@! TD.AperFunction*
G04 #@! TA.AperFunction,Conductor*
G36*
X121630824Y-104240742D02*
G01*
X122105837Y-104715755D01*
X122199377Y-104754501D01*
X122199378Y-104754501D01*
X122309235Y-104754501D01*
X122309243Y-104754500D01*
X122861074Y-104754500D01*
X122913400Y-104776174D01*
X122935074Y-104828500D01*
X122913400Y-104880826D01*
X122902186Y-104890029D01*
X122822540Y-104943246D01*
X122805926Y-104959860D01*
X123161218Y-105315152D01*
X123152993Y-105319901D01*
X123059901Y-105412993D01*
X123055152Y-105421218D01*
X122699860Y-105065926D01*
X122683246Y-105082540D01*
X122573809Y-105246324D01*
X122498430Y-105428306D01*
X122498427Y-105428317D01*
X122460000Y-105621509D01*
X122460000Y-105818490D01*
X122498427Y-106011682D01*
X122498430Y-106011693D01*
X122573809Y-106193675D01*
X122683246Y-106357459D01*
X122699860Y-106374073D01*
X123055152Y-106018781D01*
X123059901Y-106027007D01*
X123152993Y-106120099D01*
X123161217Y-106124847D01*
X122805926Y-106480139D01*
X122822540Y-106496753D01*
X122986321Y-106606188D01*
X122986416Y-106606239D01*
X122986438Y-106606266D01*
X122989344Y-106608208D01*
X122988755Y-106609089D01*
X123022345Y-106650022D01*
X123016791Y-106706386D01*
X122973008Y-106742315D01*
X122951530Y-106745500D01*
X121886070Y-106745500D01*
X121833744Y-106723826D01*
X121526174Y-106416256D01*
X121504500Y-106363930D01*
X121504500Y-104293069D01*
X121526174Y-104240743D01*
X121578500Y-104219069D01*
X121630824Y-104240742D01*
G37*
G04 #@! TD.AperFunction*
G04 #@! TA.AperFunction,Conductor*
G36*
X122130824Y-101740742D02*
G01*
X122605837Y-102215755D01*
X122699377Y-102254501D01*
X122699378Y-102254501D01*
X122801209Y-102254501D01*
X122853535Y-102276175D01*
X122875209Y-102328501D01*
X122853535Y-102380827D01*
X122842321Y-102390030D01*
X122822540Y-102403246D01*
X122805926Y-102419860D01*
X123161218Y-102775152D01*
X123152993Y-102779901D01*
X123059901Y-102872993D01*
X123055152Y-102881218D01*
X122699860Y-102525926D01*
X122683246Y-102542540D01*
X122573809Y-102706324D01*
X122498430Y-102888306D01*
X122498427Y-102888317D01*
X122460000Y-103081509D01*
X122460000Y-103278489D01*
X122498427Y-103471682D01*
X122498430Y-103471693D01*
X122573809Y-103653675D01*
X122683246Y-103817459D01*
X122699860Y-103834073D01*
X123055152Y-103478781D01*
X123059901Y-103487007D01*
X123152993Y-103580099D01*
X123161217Y-103584847D01*
X122805926Y-103940139D01*
X122822540Y-103956753D01*
X122986324Y-104066190D01*
X123075513Y-104103133D01*
X123115562Y-104143181D01*
X123115562Y-104199818D01*
X123075514Y-104239867D01*
X123047195Y-104245500D01*
X122386070Y-104245500D01*
X122333744Y-104223826D01*
X122026174Y-103916256D01*
X122004500Y-103863930D01*
X122004500Y-101793069D01*
X122026174Y-101740743D01*
X122078500Y-101719069D01*
X122130824Y-101740742D01*
G37*
G04 #@! TD.AperFunction*
G04 #@! TA.AperFunction,Conductor*
G36*
X164228326Y-48771674D02*
G01*
X164250000Y-48824000D01*
X164250000Y-140676000D01*
X164228326Y-140728326D01*
X164176000Y-140750000D01*
X119824000Y-140750000D01*
X119771674Y-140728326D01*
X119750000Y-140676000D01*
X119750000Y-123401509D01*
X122460000Y-123401509D01*
X122460000Y-123598490D01*
X122498427Y-123791682D01*
X122498430Y-123791693D01*
X122573809Y-123973675D01*
X122683246Y-124137459D01*
X122699860Y-124154073D01*
X123055152Y-123798781D01*
X123059901Y-123807007D01*
X123152993Y-123900099D01*
X123161217Y-123904847D01*
X122805926Y-124260139D01*
X122822540Y-124276753D01*
X122986324Y-124386190D01*
X123168306Y-124461569D01*
X123168317Y-124461572D01*
X123361510Y-124500000D01*
X123558490Y-124500000D01*
X123751682Y-124461572D01*
X123751693Y-124461569D01*
X123933675Y-124386190D01*
X124097459Y-124276753D01*
X124114073Y-124260139D01*
X123758781Y-123904847D01*
X123767007Y-123900099D01*
X123860099Y-123807007D01*
X123864847Y-123798781D01*
X124220139Y-124154073D01*
X124236753Y-124137459D01*
X124346190Y-123973675D01*
X124421569Y-123791693D01*
X124421572Y-123791682D01*
X124460000Y-123598490D01*
X124460000Y-123401509D01*
X124459943Y-123401224D01*
X124997100Y-123401224D01*
X124997100Y-123598775D01*
X125035639Y-123792529D01*
X125035642Y-123792539D01*
X125111240Y-123975050D01*
X125220995Y-124139311D01*
X125360688Y-124279004D01*
X125524949Y-124388759D01*
X125700736Y-124461572D01*
X125707465Y-124464359D01*
X125901223Y-124502900D01*
X125901225Y-124502900D01*
X126098775Y-124502900D01*
X126098777Y-124502900D01*
X126292535Y-124464359D01*
X126475051Y-124388759D01*
X126639312Y-124279004D01*
X126779004Y-124139312D01*
X126888759Y-123975051D01*
X126964359Y-123792535D01*
X127002900Y-123598777D01*
X127002900Y-123401223D01*
X126964359Y-123207465D01*
X126888759Y-123024949D01*
X126779004Y-122860688D01*
X126639312Y-122720996D01*
X126619713Y-122707900D01*
X126475050Y-122611240D01*
X126292539Y-122535642D01*
X126292529Y-122535639D01*
X126162776Y-122509830D01*
X126098777Y-122497100D01*
X125901223Y-122497100D01*
X125846295Y-122508025D01*
X125707470Y-122535639D01*
X125707460Y-122535642D01*
X125524949Y-122611240D01*
X125360688Y-122720995D01*
X125360687Y-122720997D01*
X125220997Y-122860687D01*
X125220995Y-122860688D01*
X125111240Y-123024949D01*
X125035642Y-123207460D01*
X125035639Y-123207470D01*
X124997100Y-123401224D01*
X124459943Y-123401224D01*
X124421572Y-123208317D01*
X124421569Y-123208306D01*
X124346190Y-123026324D01*
X124236753Y-122862540D01*
X124220139Y-122845926D01*
X123864847Y-123201217D01*
X123860099Y-123192993D01*
X123767007Y-123099901D01*
X123758781Y-123095152D01*
X124114074Y-122739860D01*
X124097461Y-122723248D01*
X124097459Y-122723246D01*
X123933675Y-122613809D01*
X123751693Y-122538430D01*
X123751682Y-122538427D01*
X123558490Y-122500000D01*
X123361510Y-122500000D01*
X123168317Y-122538427D01*
X123168306Y-122538430D01*
X122986324Y-122613809D01*
X122822540Y-122723246D01*
X122805926Y-122739860D01*
X123161218Y-123095152D01*
X123152993Y-123099901D01*
X123059901Y-123192993D01*
X123055152Y-123201218D01*
X122699860Y-122845926D01*
X122683246Y-122862540D01*
X122573809Y-123026324D01*
X122498430Y-123208306D01*
X122498427Y-123208317D01*
X122460000Y-123401509D01*
X119750000Y-123401509D01*
X119750000Y-120861509D01*
X122460000Y-120861509D01*
X122460000Y-121058490D01*
X122498427Y-121251682D01*
X122498430Y-121251693D01*
X122573809Y-121433675D01*
X122683246Y-121597459D01*
X122699860Y-121614073D01*
X123055152Y-121258781D01*
X123059901Y-121267007D01*
X123152993Y-121360099D01*
X123161217Y-121364847D01*
X122805926Y-121720139D01*
X122822540Y-121736753D01*
X122986324Y-121846190D01*
X123168306Y-121921569D01*
X123168317Y-121921572D01*
X123361510Y-121960000D01*
X123558490Y-121960000D01*
X123751682Y-121921572D01*
X123751693Y-121921569D01*
X123933675Y-121846190D01*
X124097459Y-121736753D01*
X124114073Y-121720139D01*
X123758781Y-121364847D01*
X123767007Y-121360099D01*
X123860099Y-121267007D01*
X123864847Y-121258781D01*
X124220139Y-121614073D01*
X124236753Y-121597459D01*
X124346190Y-121433675D01*
X124421569Y-121251693D01*
X124421572Y-121251682D01*
X124460000Y-121058490D01*
X124460000Y-120861509D01*
X124459943Y-120861224D01*
X124997100Y-120861224D01*
X124997100Y-121058775D01*
X125035639Y-121252529D01*
X125035642Y-121252539D01*
X125111240Y-121435050D01*
X125220995Y-121599311D01*
X125360688Y-121739004D01*
X125524949Y-121848759D01*
X125700736Y-121921572D01*
X125707465Y-121924359D01*
X125901223Y-121962900D01*
X125901225Y-121962900D01*
X126098775Y-121962900D01*
X126098777Y-121962900D01*
X126292535Y-121924359D01*
X126475051Y-121848759D01*
X126639312Y-121739004D01*
X126779004Y-121599312D01*
X126888759Y-121435051D01*
X126964359Y-121252535D01*
X127002900Y-121058777D01*
X127002900Y-120861223D01*
X126964359Y-120667465D01*
X126888759Y-120484949D01*
X126779004Y-120320688D01*
X126639312Y-120180996D01*
X126621780Y-120169281D01*
X126475050Y-120071240D01*
X126292539Y-119995642D01*
X126292529Y-119995639D01*
X126162776Y-119969830D01*
X126098777Y-119957100D01*
X125901223Y-119957100D01*
X125846295Y-119968025D01*
X125707470Y-119995639D01*
X125707460Y-119995642D01*
X125524949Y-120071240D01*
X125360688Y-120180995D01*
X125360687Y-120180997D01*
X125220997Y-120320687D01*
X125220995Y-120320688D01*
X125111240Y-120484949D01*
X125035642Y-120667460D01*
X125035639Y-120667470D01*
X124997100Y-120861224D01*
X124459943Y-120861224D01*
X124421572Y-120668317D01*
X124421569Y-120668306D01*
X124346190Y-120486324D01*
X124236753Y-120322540D01*
X124220139Y-120305926D01*
X123864847Y-120661217D01*
X123860099Y-120652993D01*
X123767007Y-120559901D01*
X123758781Y-120555152D01*
X124114074Y-120199860D01*
X124097461Y-120183248D01*
X124097459Y-120183246D01*
X123933675Y-120073809D01*
X123751693Y-119998430D01*
X123751682Y-119998427D01*
X123558490Y-119960000D01*
X123361510Y-119960000D01*
X123168317Y-119998427D01*
X123168306Y-119998430D01*
X122986324Y-120073809D01*
X122822540Y-120183246D01*
X122805926Y-120199860D01*
X123161218Y-120555152D01*
X123152993Y-120559901D01*
X123059901Y-120652993D01*
X123055152Y-120661218D01*
X122699860Y-120305926D01*
X122683246Y-120322540D01*
X122573809Y-120486324D01*
X122498430Y-120668306D01*
X122498427Y-120668317D01*
X122460000Y-120861509D01*
X119750000Y-120861509D01*
X119750000Y-118321509D01*
X122460000Y-118321509D01*
X122460000Y-118518490D01*
X122498427Y-118711682D01*
X122498430Y-118711693D01*
X122573809Y-118893675D01*
X122683246Y-119057459D01*
X122699860Y-119074073D01*
X123055152Y-118718781D01*
X123059901Y-118727007D01*
X123152993Y-118820099D01*
X123161217Y-118824847D01*
X122805926Y-119180139D01*
X122822540Y-119196753D01*
X122986324Y-119306190D01*
X123168306Y-119381569D01*
X123168317Y-119381572D01*
X123361510Y-119420000D01*
X123558490Y-119420000D01*
X123751682Y-119381572D01*
X123751693Y-119381569D01*
X123933675Y-119306190D01*
X124097459Y-119196753D01*
X124114073Y-119180139D01*
X123758781Y-118824847D01*
X123767007Y-118820099D01*
X123860099Y-118727007D01*
X123864847Y-118718781D01*
X124220139Y-119074073D01*
X124236753Y-119057459D01*
X124346190Y-118893675D01*
X124421569Y-118711693D01*
X124421572Y-118711682D01*
X124460000Y-118518490D01*
X124460000Y-118321509D01*
X124459943Y-118321224D01*
X124997100Y-118321224D01*
X124997100Y-118518775D01*
X125035639Y-118712529D01*
X125035642Y-118712539D01*
X125111240Y-118895050D01*
X125220995Y-119059311D01*
X125360688Y-119199004D01*
X125524949Y-119308759D01*
X125700736Y-119381572D01*
X125707465Y-119384359D01*
X125901223Y-119422900D01*
X125901225Y-119422900D01*
X126098775Y-119422900D01*
X126098777Y-119422900D01*
X126292535Y-119384359D01*
X126475051Y-119308759D01*
X126639312Y-119199004D01*
X126779004Y-119059312D01*
X126888759Y-118895051D01*
X126964359Y-118712535D01*
X127002900Y-118518777D01*
X127002900Y-118321223D01*
X126964359Y-118127465D01*
X126888759Y-117944949D01*
X126779004Y-117780688D01*
X126639312Y-117640996D01*
X126478895Y-117533809D01*
X126475050Y-117531240D01*
X126292539Y-117455642D01*
X126292529Y-117455639D01*
X126162776Y-117429830D01*
X126098777Y-117417100D01*
X125901223Y-117417100D01*
X125846295Y-117428025D01*
X125707470Y-117455639D01*
X125707460Y-117455642D01*
X125524949Y-117531240D01*
X125360688Y-117640995D01*
X125360687Y-117640997D01*
X125220997Y-117780687D01*
X125220995Y-117780688D01*
X125111240Y-117944949D01*
X125035642Y-118127460D01*
X125035639Y-118127470D01*
X124997100Y-118321224D01*
X124459943Y-118321224D01*
X124421572Y-118128317D01*
X124421569Y-118128306D01*
X124346190Y-117946324D01*
X124236753Y-117782540D01*
X124220139Y-117765926D01*
X123864847Y-118121217D01*
X123860099Y-118112993D01*
X123767007Y-118019901D01*
X123758781Y-118015152D01*
X124114074Y-117659860D01*
X124097461Y-117643248D01*
X124097459Y-117643246D01*
X123933675Y-117533809D01*
X123751693Y-117458430D01*
X123751682Y-117458427D01*
X123558490Y-117420000D01*
X123361510Y-117420000D01*
X123168317Y-117458427D01*
X123168306Y-117458430D01*
X122986324Y-117533809D01*
X122822540Y-117643246D01*
X122805926Y-117659860D01*
X123161218Y-118015152D01*
X123152993Y-118019901D01*
X123059901Y-118112993D01*
X123055152Y-118121218D01*
X122699860Y-117765926D01*
X122683246Y-117782540D01*
X122573809Y-117946324D01*
X122498430Y-118128306D01*
X122498427Y-118128317D01*
X122460000Y-118321509D01*
X119750000Y-118321509D01*
X119750000Y-86949375D01*
X119995500Y-86949375D01*
X119995500Y-114050624D01*
X120034243Y-114144160D01*
X120034245Y-114144163D01*
X120605837Y-114715755D01*
X120699377Y-114754501D01*
X120699378Y-114754501D01*
X120809235Y-114754501D01*
X120809243Y-114754500D01*
X123241105Y-114754500D01*
X123293431Y-114776174D01*
X123315105Y-114828500D01*
X123293431Y-114880826D01*
X123255541Y-114901078D01*
X123168317Y-114918427D01*
X123168306Y-114918430D01*
X122986324Y-114993809D01*
X122822540Y-115103246D01*
X122805926Y-115119860D01*
X123161218Y-115475152D01*
X123152993Y-115479901D01*
X123059901Y-115572993D01*
X123055152Y-115581218D01*
X122699860Y-115225926D01*
X122683246Y-115242540D01*
X122573809Y-115406324D01*
X122498430Y-115588306D01*
X122498427Y-115588317D01*
X122460000Y-115781509D01*
X122460000Y-115978490D01*
X122498427Y-116171682D01*
X122498430Y-116171693D01*
X122573809Y-116353675D01*
X122683246Y-116517459D01*
X122699860Y-116534073D01*
X123055152Y-116178781D01*
X123059901Y-116187007D01*
X123152993Y-116280099D01*
X123161217Y-116284847D01*
X122805926Y-116640139D01*
X122822540Y-116656753D01*
X122986324Y-116766190D01*
X123168306Y-116841569D01*
X123168317Y-116841572D01*
X123361510Y-116880000D01*
X123558490Y-116880000D01*
X123751682Y-116841572D01*
X123751693Y-116841569D01*
X123933675Y-116766190D01*
X124097459Y-116656753D01*
X124114073Y-116640139D01*
X123758781Y-116284847D01*
X123767007Y-116280099D01*
X123860099Y-116187007D01*
X123864847Y-116178781D01*
X124220139Y-116534073D01*
X124236753Y-116517459D01*
X124346190Y-116353675D01*
X124421569Y-116171693D01*
X124421572Y-116171682D01*
X124460000Y-115978490D01*
X124460000Y-115781509D01*
X124421572Y-115588317D01*
X124421569Y-115588306D01*
X124346190Y-115406324D01*
X124236753Y-115242540D01*
X124220139Y-115225926D01*
X123864847Y-115581217D01*
X123860099Y-115572993D01*
X123767007Y-115479901D01*
X123758781Y-115475152D01*
X124114074Y-115119860D01*
X124097461Y-115103248D01*
X124097459Y-115103246D01*
X123933675Y-114993809D01*
X123751693Y-114918430D01*
X123751682Y-114918427D01*
X123664459Y-114901078D01*
X123617366Y-114869612D01*
X123606317Y-114814064D01*
X123637783Y-114766971D01*
X123678895Y-114754500D01*
X124483930Y-114754500D01*
X124536256Y-114776174D01*
X125092032Y-115331950D01*
X125113706Y-115384276D01*
X125108073Y-115412594D01*
X125035642Y-115587460D01*
X125035639Y-115587470D01*
X124997100Y-115781224D01*
X124997100Y-115978775D01*
X125035639Y-116172529D01*
X125035642Y-116172539D01*
X125111240Y-116355050D01*
X125220995Y-116519311D01*
X125360688Y-116659004D01*
X125524949Y-116768759D01*
X125704478Y-116843122D01*
X125707465Y-116844359D01*
X125901223Y-116882900D01*
X125901225Y-116882900D01*
X126098775Y-116882900D01*
X126098777Y-116882900D01*
X126292535Y-116844359D01*
X126475051Y-116768759D01*
X126639312Y-116659004D01*
X126779004Y-116519312D01*
X126888759Y-116355051D01*
X126964359Y-116172535D01*
X127002900Y-115978777D01*
X127002900Y-115781223D01*
X126964359Y-115587465D01*
X126888759Y-115404949D01*
X126779004Y-115240688D01*
X126639312Y-115100996D01*
X126630676Y-115095225D01*
X126475050Y-114991240D01*
X126292539Y-114915642D01*
X126292529Y-114915639D01*
X126142288Y-114885755D01*
X126098777Y-114877100D01*
X125901223Y-114877100D01*
X125857712Y-114885755D01*
X125707470Y-114915639D01*
X125707460Y-114915642D01*
X125532594Y-114988073D01*
X125475957Y-114988073D01*
X125451950Y-114972032D01*
X124764164Y-114284246D01*
X124764160Y-114284243D01*
X124670623Y-114245500D01*
X124147365Y-114245500D01*
X124095039Y-114223826D01*
X124073365Y-114171500D01*
X124095039Y-114119174D01*
X124095040Y-114119173D01*
X124114073Y-114100139D01*
X123758781Y-113744847D01*
X123767007Y-113740099D01*
X123860099Y-113647007D01*
X123864847Y-113638781D01*
X124220139Y-113994073D01*
X124236753Y-113977459D01*
X124346190Y-113813675D01*
X124421569Y-113631693D01*
X124421572Y-113631682D01*
X124460000Y-113438490D01*
X124460000Y-113241509D01*
X124459943Y-113241224D01*
X124997100Y-113241224D01*
X124997100Y-113438775D01*
X125035639Y-113632529D01*
X125035642Y-113632539D01*
X125111240Y-113815050D01*
X125220995Y-113979311D01*
X125360688Y-114119004D01*
X125524949Y-114228759D01*
X125700736Y-114301572D01*
X125707465Y-114304359D01*
X125901223Y-114342900D01*
X125901225Y-114342900D01*
X126098775Y-114342900D01*
X126098777Y-114342900D01*
X126292535Y-114304359D01*
X126475051Y-114228759D01*
X126639312Y-114119004D01*
X126779004Y-113979312D01*
X126888759Y-113815051D01*
X126964359Y-113632535D01*
X127002900Y-113438777D01*
X127002900Y-113241223D01*
X126964359Y-113047465D01*
X126888759Y-112864949D01*
X126779004Y-112700688D01*
X126639312Y-112560996D01*
X126478895Y-112453809D01*
X126475050Y-112451240D01*
X126292539Y-112375642D01*
X126292529Y-112375639D01*
X126162776Y-112349830D01*
X126098777Y-112337100D01*
X125901223Y-112337100D01*
X125846295Y-112348025D01*
X125707470Y-112375639D01*
X125707460Y-112375642D01*
X125524949Y-112451240D01*
X125360688Y-112560995D01*
X125360687Y-112560997D01*
X125220997Y-112700687D01*
X125220995Y-112700688D01*
X125111240Y-112864949D01*
X125035642Y-113047460D01*
X125035639Y-113047470D01*
X124997100Y-113241224D01*
X124459943Y-113241224D01*
X124421572Y-113048317D01*
X124421569Y-113048306D01*
X124346190Y-112866324D01*
X124236753Y-112702540D01*
X124220139Y-112685926D01*
X123864847Y-113041217D01*
X123860099Y-113032993D01*
X123767007Y-112939901D01*
X123758781Y-112935152D01*
X124114074Y-112579860D01*
X124097461Y-112563248D01*
X124097459Y-112563246D01*
X123933675Y-112453809D01*
X123751693Y-112378430D01*
X123751682Y-112378427D01*
X123558490Y-112340000D01*
X123361510Y-112340000D01*
X123168317Y-112378427D01*
X123168306Y-112378430D01*
X122986324Y-112453809D01*
X122822540Y-112563246D01*
X122805926Y-112579860D01*
X123161218Y-112935152D01*
X123152993Y-112939901D01*
X123059901Y-113032993D01*
X123055152Y-113041218D01*
X122699860Y-112685926D01*
X122683246Y-112702540D01*
X122573809Y-112866324D01*
X122498430Y-113048306D01*
X122498427Y-113048317D01*
X122460000Y-113241509D01*
X122460000Y-113438490D01*
X122498427Y-113631682D01*
X122498430Y-113631693D01*
X122573809Y-113813675D01*
X122683246Y-113977459D01*
X122699860Y-113994073D01*
X123055152Y-113638781D01*
X123059901Y-113647007D01*
X123152993Y-113740099D01*
X123161217Y-113744847D01*
X122805926Y-114100139D01*
X122824960Y-114119173D01*
X122846635Y-114171499D01*
X122824962Y-114223825D01*
X122772636Y-114245500D01*
X120886070Y-114245500D01*
X120833744Y-114223826D01*
X120526174Y-113916256D01*
X120504500Y-113863930D01*
X120504500Y-109293069D01*
X120526174Y-109240743D01*
X120578500Y-109219069D01*
X120630824Y-109240742D01*
X121105837Y-109715755D01*
X121199377Y-109754501D01*
X121199378Y-109754501D01*
X121309235Y-109754501D01*
X121309243Y-109754500D01*
X122998910Y-109754500D01*
X123051236Y-109776174D01*
X123072910Y-109828500D01*
X123051236Y-109880826D01*
X123027228Y-109896867D01*
X122986324Y-109913809D01*
X122822540Y-110023246D01*
X122805926Y-110039860D01*
X123161218Y-110395152D01*
X123152993Y-110399901D01*
X123059901Y-110492993D01*
X123055152Y-110501218D01*
X122699860Y-110145926D01*
X122683246Y-110162540D01*
X122573809Y-110326324D01*
X122498430Y-110508306D01*
X122498427Y-110508317D01*
X122460000Y-110701509D01*
X122460000Y-110898490D01*
X122498427Y-111091682D01*
X122498430Y-111091693D01*
X122573809Y-111273675D01*
X122683246Y-111437459D01*
X122699860Y-111454073D01*
X123055152Y-111098781D01*
X123059901Y-111107007D01*
X123152993Y-111200099D01*
X123161217Y-111204847D01*
X122805926Y-111560139D01*
X122822540Y-111576753D01*
X122986324Y-111686190D01*
X123168306Y-111761569D01*
X123168317Y-111761572D01*
X123361510Y-111800000D01*
X123558490Y-111800000D01*
X123751682Y-111761572D01*
X123751693Y-111761569D01*
X123933675Y-111686190D01*
X124097459Y-111576753D01*
X124114073Y-111560139D01*
X123758781Y-111204847D01*
X123767007Y-111200099D01*
X123860099Y-111107007D01*
X123864847Y-111098781D01*
X124220139Y-111454073D01*
X124236753Y-111437459D01*
X124346190Y-111273675D01*
X124421569Y-111091693D01*
X124421572Y-111091682D01*
X124460000Y-110898490D01*
X124460000Y-110701509D01*
X124421572Y-110508317D01*
X124421569Y-110508306D01*
X124346190Y-110326324D01*
X124236753Y-110162540D01*
X124220139Y-110145926D01*
X123864847Y-110501217D01*
X123860099Y-110492993D01*
X123767007Y-110399901D01*
X123758781Y-110395152D01*
X124114074Y-110039860D01*
X124097461Y-110023248D01*
X124097459Y-110023246D01*
X123933675Y-109913809D01*
X123892772Y-109896867D01*
X123852723Y-109856819D01*
X123852723Y-109800182D01*
X123892771Y-109760133D01*
X123921090Y-109754500D01*
X124563930Y-109754500D01*
X124616256Y-109776174D01*
X125092032Y-110251950D01*
X125113706Y-110304276D01*
X125108073Y-110332594D01*
X125035642Y-110507460D01*
X125035639Y-110507470D01*
X125003465Y-110669223D01*
X124997100Y-110701223D01*
X124997100Y-110898777D01*
X125008860Y-110957899D01*
X125035639Y-111092529D01*
X125035642Y-111092539D01*
X125111240Y-111275050D01*
X125220995Y-111439311D01*
X125360688Y-111579004D01*
X125524949Y-111688759D01*
X125700736Y-111761572D01*
X125707465Y-111764359D01*
X125901223Y-111802900D01*
X125901225Y-111802900D01*
X126098775Y-111802900D01*
X126098777Y-111802900D01*
X126292535Y-111764359D01*
X126475051Y-111688759D01*
X126639312Y-111579004D01*
X126779004Y-111439312D01*
X126888759Y-111275051D01*
X126964359Y-111092535D01*
X127002900Y-110898777D01*
X127002900Y-110701223D01*
X126964359Y-110507465D01*
X126888759Y-110324949D01*
X126779004Y-110160688D01*
X126639312Y-110020996D01*
X126478895Y-109913809D01*
X126475050Y-109911240D01*
X126292539Y-109835642D01*
X126292529Y-109835639D01*
X126162776Y-109809830D01*
X126098777Y-109797100D01*
X125901223Y-109797100D01*
X125846295Y-109808025D01*
X125707470Y-109835639D01*
X125707460Y-109835642D01*
X125532594Y-109908073D01*
X125475957Y-109908073D01*
X125451950Y-109892032D01*
X124844164Y-109284246D01*
X124844160Y-109284243D01*
X124750623Y-109245500D01*
X124028994Y-109245500D01*
X123976668Y-109223826D01*
X123954994Y-109171500D01*
X123976668Y-109119174D01*
X123987882Y-109109971D01*
X124097459Y-109036753D01*
X124114073Y-109020139D01*
X123758781Y-108664847D01*
X123767007Y-108660099D01*
X123860099Y-108567007D01*
X123864847Y-108558781D01*
X124220139Y-108914073D01*
X124236753Y-108897459D01*
X124346190Y-108733675D01*
X124421569Y-108551693D01*
X124421572Y-108551682D01*
X124460000Y-108358490D01*
X124460000Y-108161509D01*
X124421572Y-107968317D01*
X124421569Y-107968306D01*
X124346190Y-107786324D01*
X124236753Y-107622540D01*
X124220139Y-107605926D01*
X123864847Y-107961217D01*
X123860099Y-107952993D01*
X123767007Y-107859901D01*
X123758781Y-107855152D01*
X124114074Y-107499860D01*
X124097461Y-107483248D01*
X124097459Y-107483246D01*
X123957950Y-107390029D01*
X123926484Y-107342937D01*
X123937533Y-107287388D01*
X123984625Y-107255922D01*
X123999062Y-107254500D01*
X124603930Y-107254500D01*
X124656256Y-107276174D01*
X124879942Y-107499860D01*
X125092033Y-107711950D01*
X125113707Y-107764276D01*
X125108074Y-107792594D01*
X125035642Y-107967460D01*
X125035639Y-107967470D01*
X125008832Y-108102243D01*
X124997100Y-108161223D01*
X124997100Y-108358777D01*
X125004139Y-108394163D01*
X125035639Y-108552529D01*
X125035642Y-108552539D01*
X125111240Y-108735050D01*
X125217836Y-108894582D01*
X125220996Y-108899312D01*
X125360688Y-109039004D01*
X125524949Y-109148759D01*
X125707465Y-109224359D01*
X125901223Y-109262900D01*
X125901225Y-109262900D01*
X126098775Y-109262900D01*
X126098777Y-109262900D01*
X126292535Y-109224359D01*
X126475051Y-109148759D01*
X126639312Y-109039004D01*
X126779004Y-108899312D01*
X126888759Y-108735051D01*
X126964359Y-108552535D01*
X127002900Y-108358777D01*
X127002900Y-108161223D01*
X126964359Y-107967465D01*
X126888759Y-107784949D01*
X126779004Y-107620688D01*
X126639312Y-107480996D01*
X126577528Y-107439713D01*
X126475050Y-107371240D01*
X126292539Y-107295642D01*
X126292529Y-107295639D01*
X126162776Y-107269830D01*
X126098777Y-107257100D01*
X125901223Y-107257100D01*
X125846295Y-107268025D01*
X125707470Y-107295639D01*
X125707460Y-107295642D01*
X125532594Y-107368074D01*
X125475957Y-107368074D01*
X125451950Y-107352033D01*
X125179991Y-107080074D01*
X124884163Y-106784245D01*
X124884160Y-106784243D01*
X124790623Y-106745500D01*
X123968470Y-106745500D01*
X123916144Y-106723826D01*
X123894470Y-106671500D01*
X123916144Y-106619174D01*
X123930746Y-106608343D01*
X123930656Y-106608208D01*
X123933413Y-106606365D01*
X123933584Y-106606239D01*
X123933678Y-106606188D01*
X124097459Y-106496753D01*
X124114073Y-106480139D01*
X123758781Y-106124847D01*
X123767007Y-106120099D01*
X123860099Y-106027007D01*
X123864847Y-106018781D01*
X124220139Y-106374073D01*
X124236753Y-106357459D01*
X124346190Y-106193675D01*
X124421569Y-106011693D01*
X124421572Y-106011682D01*
X124460000Y-105818490D01*
X124460000Y-105621509D01*
X124421572Y-105428317D01*
X124421569Y-105428306D01*
X124346190Y-105246324D01*
X124236753Y-105082540D01*
X124220139Y-105065926D01*
X123864847Y-105421217D01*
X123860099Y-105412993D01*
X123767007Y-105319901D01*
X123758781Y-105315152D01*
X124114074Y-104959860D01*
X124097461Y-104943248D01*
X124097459Y-104943246D01*
X124017814Y-104890029D01*
X123986348Y-104842936D01*
X123997397Y-104787388D01*
X124044490Y-104755922D01*
X124058926Y-104754500D01*
X124643930Y-104754500D01*
X124696256Y-104776174D01*
X125092033Y-105171950D01*
X125113707Y-105224276D01*
X125108074Y-105252594D01*
X125035642Y-105427460D01*
X125035639Y-105427470D01*
X124997100Y-105621224D01*
X124997100Y-105818775D01*
X125035639Y-106012529D01*
X125035642Y-106012539D01*
X125111240Y-106195050D01*
X125135428Y-106231249D01*
X125220996Y-106359312D01*
X125360688Y-106499004D01*
X125524949Y-106608759D01*
X125707465Y-106684359D01*
X125901223Y-106722900D01*
X125901225Y-106722900D01*
X126098775Y-106722900D01*
X126098777Y-106722900D01*
X126292535Y-106684359D01*
X126475051Y-106608759D01*
X126639312Y-106499004D01*
X126779004Y-106359312D01*
X126888759Y-106195051D01*
X126964359Y-106012535D01*
X127002900Y-105818777D01*
X127002900Y-105621223D01*
X126964359Y-105427465D01*
X126964040Y-105426696D01*
X126888759Y-105244949D01*
X126779004Y-105080688D01*
X126639311Y-104940995D01*
X126475050Y-104831240D01*
X126292539Y-104755642D01*
X126292529Y-104755639D01*
X126162776Y-104729830D01*
X126098777Y-104717100D01*
X125901223Y-104717100D01*
X125846295Y-104728025D01*
X125707470Y-104755639D01*
X125707460Y-104755642D01*
X125532594Y-104828074D01*
X125475957Y-104828074D01*
X125451950Y-104812033D01*
X124924163Y-104284245D01*
X124924160Y-104284243D01*
X124830623Y-104245500D01*
X123872805Y-104245500D01*
X123820479Y-104223826D01*
X123798805Y-104171500D01*
X123820479Y-104119174D01*
X123844487Y-104103133D01*
X123933675Y-104066190D01*
X124097459Y-103956753D01*
X124114073Y-103940139D01*
X123758781Y-103584847D01*
X123767007Y-103580099D01*
X123860099Y-103487007D01*
X123864847Y-103478781D01*
X124220139Y-103834073D01*
X124236753Y-103817459D01*
X124346190Y-103653675D01*
X124421569Y-103471693D01*
X124421572Y-103471682D01*
X124460000Y-103278489D01*
X124460000Y-103081509D01*
X124421572Y-102888317D01*
X124421569Y-102888306D01*
X124346190Y-102706324D01*
X124236753Y-102542540D01*
X124220139Y-102525926D01*
X123864847Y-102881217D01*
X123860099Y-102872993D01*
X123767007Y-102779901D01*
X123758781Y-102775152D01*
X124114074Y-102419860D01*
X124097462Y-102403249D01*
X124077677Y-102390029D01*
X124046212Y-102342936D01*
X124057261Y-102287387D01*
X124104354Y-102255922D01*
X124118790Y-102254500D01*
X124683930Y-102254500D01*
X124736256Y-102276174D01*
X125092032Y-102631950D01*
X125113706Y-102684276D01*
X125108073Y-102712594D01*
X125035642Y-102887460D01*
X125035639Y-102887470D01*
X124997100Y-103081224D01*
X124997100Y-103278775D01*
X125035639Y-103472529D01*
X125035642Y-103472539D01*
X125111240Y-103655050D01*
X125220995Y-103819311D01*
X125360688Y-103959004D01*
X125524949Y-104068759D01*
X125646662Y-104119174D01*
X125707465Y-104144359D01*
X125901223Y-104182900D01*
X125901225Y-104182900D01*
X126098775Y-104182900D01*
X126098777Y-104182900D01*
X126292535Y-104144359D01*
X126475051Y-104068759D01*
X126639312Y-103959004D01*
X126779004Y-103819312D01*
X126888759Y-103655051D01*
X126964359Y-103472535D01*
X127002900Y-103278777D01*
X127002900Y-103081223D01*
X126964359Y-102887465D01*
X126888759Y-102704949D01*
X126779004Y-102540688D01*
X126639312Y-102400996D01*
X126622901Y-102390030D01*
X126475050Y-102291240D01*
X126292539Y-102215642D01*
X126292529Y-102215639D01*
X126162776Y-102189830D01*
X126098777Y-102177100D01*
X125901223Y-102177100D01*
X125846295Y-102188025D01*
X125707470Y-102215639D01*
X125707460Y-102215642D01*
X125532594Y-102288073D01*
X125475957Y-102288073D01*
X125451950Y-102272032D01*
X124964164Y-101784246D01*
X124964160Y-101784243D01*
X124870623Y-101745500D01*
X123783813Y-101745500D01*
X123731487Y-101723826D01*
X123709813Y-101671500D01*
X123731487Y-101619174D01*
X123755495Y-101603133D01*
X123778994Y-101593399D01*
X123935051Y-101528759D01*
X124099312Y-101419004D01*
X124239004Y-101279312D01*
X124348759Y-101115051D01*
X124424359Y-100932535D01*
X124462900Y-100738777D01*
X124462900Y-100541223D01*
X124424359Y-100347465D01*
X124348759Y-100164949D01*
X124244084Y-100008291D01*
X124997100Y-100008291D01*
X124997100Y-101271708D01*
X125012043Y-101366055D01*
X125012044Y-101366060D01*
X125069982Y-101479769D01*
X125160230Y-101570017D01*
X125273939Y-101627955D01*
X125273942Y-101627955D01*
X125273945Y-101627957D01*
X125353348Y-101640533D01*
X125368291Y-101642900D01*
X125368292Y-101642900D01*
X126576410Y-101642900D01*
X126628736Y-101664574D01*
X128698426Y-103734264D01*
X128720100Y-103786590D01*
X128720100Y-132536852D01*
X128739173Y-132608034D01*
X128739175Y-132608037D01*
X128776024Y-132671862D01*
X133776024Y-137671862D01*
X133828138Y-137723976D01*
X133891963Y-137760825D01*
X133891965Y-137760826D01*
X133942000Y-137774232D01*
X133963147Y-137779899D01*
X133963148Y-137779900D01*
X133963150Y-137779900D01*
X145369352Y-137779900D01*
X145369352Y-137779899D01*
X145419387Y-137766492D01*
X145440534Y-137760826D01*
X145440534Y-137760825D01*
X145440537Y-137760825D01*
X145504362Y-137723976D01*
X146451264Y-136777074D01*
X146503590Y-136755400D01*
X147711709Y-136755400D01*
X147724608Y-136753356D01*
X147806055Y-136740457D01*
X147806058Y-136740455D01*
X147806060Y-136740455D01*
X147919769Y-136682517D01*
X147919768Y-136682517D01*
X147919771Y-136682516D01*
X148010016Y-136592271D01*
X148011964Y-136588446D01*
X148067955Y-136478560D01*
X148067955Y-136478558D01*
X148067957Y-136478555D01*
X148082900Y-136384208D01*
X148082900Y-135176089D01*
X148104573Y-135123764D01*
X158223976Y-125004362D01*
X158260825Y-124940538D01*
X158279899Y-124869352D01*
X158279900Y-124869352D01*
X158279900Y-124576900D01*
X158301574Y-124524574D01*
X158353900Y-124502900D01*
X158631709Y-124502900D01*
X158650018Y-124500000D01*
X158726055Y-124487957D01*
X158726058Y-124487955D01*
X158726060Y-124487955D01*
X158839769Y-124430017D01*
X158839768Y-124430017D01*
X158839771Y-124430016D01*
X158930016Y-124339771D01*
X158931964Y-124335946D01*
X158987955Y-124226060D01*
X158987955Y-124226058D01*
X158987957Y-124226055D01*
X159002900Y-124131708D01*
X159002900Y-122868292D01*
X159001695Y-122860687D01*
X158999358Y-122845926D01*
X158987957Y-122773945D01*
X158987955Y-122773942D01*
X158987955Y-122773939D01*
X158930017Y-122660230D01*
X158839769Y-122569982D01*
X158726060Y-122512044D01*
X158726055Y-122512043D01*
X158631709Y-122497100D01*
X158631708Y-122497100D01*
X157368292Y-122497100D01*
X157368291Y-122497100D01*
X157273944Y-122512043D01*
X157273939Y-122512044D01*
X157160230Y-122569982D01*
X157069982Y-122660230D01*
X157012044Y-122773939D01*
X157012043Y-122773944D01*
X156997100Y-122868291D01*
X156997100Y-124131708D01*
X157012043Y-124226055D01*
X157012044Y-124226060D01*
X157069982Y-124339769D01*
X157160230Y-124430017D01*
X157273939Y-124487955D01*
X157273942Y-124487955D01*
X157273945Y-124487957D01*
X157349982Y-124500000D01*
X157368291Y-124502900D01*
X157368292Y-124502900D01*
X157646100Y-124502900D01*
X157698426Y-124524574D01*
X157720100Y-124576900D01*
X157720100Y-124685910D01*
X157698426Y-124738236D01*
X147708736Y-134727926D01*
X147656410Y-134749600D01*
X146448291Y-134749600D01*
X146353944Y-134764543D01*
X146353939Y-134764544D01*
X146240230Y-134822482D01*
X146149982Y-134912730D01*
X146092044Y-135026439D01*
X146092043Y-135026444D01*
X146077100Y-135120791D01*
X146077100Y-136328910D01*
X146055426Y-136381236D01*
X145238236Y-137198426D01*
X145185910Y-137220100D01*
X134146590Y-137220100D01*
X134094264Y-137198426D01*
X132549562Y-135653724D01*
X135917100Y-135653724D01*
X135917100Y-135851275D01*
X135955639Y-136045029D01*
X135955642Y-136045039D01*
X136031240Y-136227550D01*
X136031241Y-136227551D01*
X136140996Y-136391812D01*
X136280688Y-136531504D01*
X136444949Y-136641259D01*
X136627465Y-136716859D01*
X136821223Y-136755400D01*
X136821225Y-136755400D01*
X137018775Y-136755400D01*
X137018777Y-136755400D01*
X137212535Y-136716859D01*
X137395051Y-136641259D01*
X137559312Y-136531504D01*
X137699004Y-136391812D01*
X137808759Y-136227551D01*
X137884359Y-136045035D01*
X137922900Y-135851277D01*
X137922900Y-135653723D01*
X137884359Y-135459965D01*
X137811925Y-135285092D01*
X137811925Y-135228457D01*
X137827963Y-135204453D01*
X138465755Y-134566663D01*
X138504500Y-134473123D01*
X138504500Y-134371877D01*
X138504500Y-133831612D01*
X138526174Y-133779286D01*
X138578500Y-133757612D01*
X138630826Y-133779286D01*
X138640029Y-133790500D01*
X138680995Y-133851811D01*
X138820688Y-133991504D01*
X138984949Y-134101259D01*
X139160736Y-134174072D01*
X139167465Y-134176859D01*
X139361223Y-134215400D01*
X139361225Y-134215400D01*
X139558775Y-134215400D01*
X139558777Y-134215400D01*
X139752535Y-134176859D01*
X139935051Y-134101259D01*
X140099312Y-133991504D01*
X140239004Y-133851812D01*
X140348759Y-133687551D01*
X140353133Y-133676990D01*
X140393180Y-133636943D01*
X140449817Y-133636941D01*
X140489866Y-133676989D01*
X140495500Y-133705309D01*
X140495500Y-134326430D01*
X140473826Y-134378756D01*
X140008049Y-134844532D01*
X139955723Y-134866206D01*
X139927405Y-134860573D01*
X139752539Y-134788142D01*
X139752529Y-134788139D01*
X139602288Y-134758255D01*
X139558777Y-134749600D01*
X139361223Y-134749600D01*
X139317712Y-134758255D01*
X139167470Y-134788139D01*
X139167460Y-134788142D01*
X138984949Y-134863740D01*
X138820688Y-134973495D01*
X138820687Y-134973497D01*
X138680997Y-135113187D01*
X138680995Y-135113188D01*
X138571240Y-135277449D01*
X138495642Y-135459960D01*
X138495639Y-135459970D01*
X138457100Y-135653724D01*
X138457100Y-135851275D01*
X138495639Y-136045029D01*
X138495642Y-136045039D01*
X138571240Y-136227550D01*
X138571241Y-136227551D01*
X138680996Y-136391812D01*
X138820688Y-136531504D01*
X138984949Y-136641259D01*
X139167465Y-136716859D01*
X139361223Y-136755400D01*
X139361225Y-136755400D01*
X139558775Y-136755400D01*
X139558777Y-136755400D01*
X139752535Y-136716859D01*
X139935051Y-136641259D01*
X140099312Y-136531504D01*
X140239004Y-136391812D01*
X140348759Y-136227551D01*
X140424359Y-136045035D01*
X140462900Y-135851277D01*
X140462900Y-135653723D01*
X140424359Y-135459965D01*
X140351925Y-135285092D01*
X140351925Y-135228456D01*
X140367963Y-135204452D01*
X140883754Y-134688662D01*
X140883757Y-134688660D01*
X140894162Y-134678255D01*
X140894163Y-134678255D01*
X140965755Y-134606663D01*
X141004500Y-134513123D01*
X141004500Y-133771747D01*
X141026174Y-133719421D01*
X141078500Y-133697747D01*
X141130826Y-133719421D01*
X141140029Y-133730635D01*
X141220995Y-133851811D01*
X141360688Y-133991504D01*
X141524949Y-134101259D01*
X141700736Y-134174072D01*
X141707465Y-134176859D01*
X141901223Y-134215400D01*
X141901225Y-134215400D01*
X142098775Y-134215400D01*
X142098777Y-134215400D01*
X142292535Y-134176859D01*
X142475051Y-134101259D01*
X142639312Y-133991504D01*
X142779004Y-133851812D01*
X142859971Y-133730634D01*
X142907063Y-133699169D01*
X142962612Y-133710218D01*
X142994078Y-133757310D01*
X142995500Y-133771747D01*
X142995500Y-134366429D01*
X142973826Y-134418755D01*
X142548048Y-134844532D01*
X142495722Y-134866206D01*
X142467404Y-134860573D01*
X142292539Y-134788142D01*
X142292529Y-134788139D01*
X142142288Y-134758255D01*
X142098777Y-134749600D01*
X141901223Y-134749600D01*
X141857712Y-134758255D01*
X141707470Y-134788139D01*
X141707460Y-134788142D01*
X141524949Y-134863740D01*
X141360688Y-134973495D01*
X141360687Y-134973497D01*
X141220997Y-135113187D01*
X141220995Y-135113188D01*
X141111240Y-135277449D01*
X141035642Y-135459960D01*
X141035639Y-135459970D01*
X140997100Y-135653724D01*
X140997100Y-135851275D01*
X141035639Y-136045029D01*
X141035642Y-136045039D01*
X141111240Y-136227550D01*
X141111241Y-136227551D01*
X141220996Y-136391812D01*
X141360688Y-136531504D01*
X141524949Y-136641259D01*
X141707465Y-136716859D01*
X141901223Y-136755400D01*
X141901225Y-136755400D01*
X142098775Y-136755400D01*
X142098777Y-136755400D01*
X142292535Y-136716859D01*
X142475051Y-136641259D01*
X142639312Y-136531504D01*
X142779004Y-136391812D01*
X142888759Y-136227551D01*
X142964359Y-136045035D01*
X143002900Y-135851277D01*
X143002900Y-135653723D01*
X142964359Y-135459965D01*
X142891925Y-135285092D01*
X142891925Y-135228457D01*
X142907963Y-135204453D01*
X143465755Y-134646663D01*
X143504500Y-134553123D01*
X143504500Y-134451877D01*
X143504500Y-133705309D01*
X143526174Y-133652983D01*
X143578500Y-133631309D01*
X143630826Y-133652983D01*
X143646866Y-133676989D01*
X143651241Y-133687551D01*
X143672536Y-133719421D01*
X143760995Y-133851811D01*
X143900688Y-133991504D01*
X144064949Y-134101259D01*
X144240736Y-134174072D01*
X144247465Y-134176859D01*
X144441223Y-134215400D01*
X144441225Y-134215400D01*
X144638775Y-134215400D01*
X144638777Y-134215400D01*
X144832535Y-134176859D01*
X145015051Y-134101259D01*
X145179312Y-133991504D01*
X145319004Y-133851812D01*
X145359971Y-133790499D01*
X145407063Y-133759034D01*
X145462612Y-133770083D01*
X145494078Y-133817175D01*
X145495500Y-133831612D01*
X145495500Y-134406430D01*
X145473826Y-134458756D01*
X145088049Y-134844532D01*
X145035723Y-134866206D01*
X145007405Y-134860573D01*
X144832539Y-134788142D01*
X144832529Y-134788139D01*
X144682288Y-134758255D01*
X144638777Y-134749600D01*
X144441223Y-134749600D01*
X144397712Y-134758255D01*
X144247470Y-134788139D01*
X144247460Y-134788142D01*
X144064949Y-134863740D01*
X143900688Y-134973495D01*
X143900687Y-134973497D01*
X143760997Y-135113187D01*
X143760995Y-135113188D01*
X143651240Y-135277449D01*
X143575642Y-135459960D01*
X143575639Y-135459970D01*
X143537100Y-135653724D01*
X143537100Y-135851275D01*
X143575639Y-136045029D01*
X143575642Y-136045039D01*
X143651240Y-136227550D01*
X143651241Y-136227551D01*
X143760996Y-136391812D01*
X143900688Y-136531504D01*
X144064949Y-136641259D01*
X144247465Y-136716859D01*
X144441223Y-136755400D01*
X144441225Y-136755400D01*
X144638775Y-136755400D01*
X144638777Y-136755400D01*
X144832535Y-136716859D01*
X145015051Y-136641259D01*
X145179312Y-136531504D01*
X145319004Y-136391812D01*
X145428759Y-136227551D01*
X145504359Y-136045035D01*
X145542900Y-135851277D01*
X145542900Y-135653723D01*
X145504359Y-135459965D01*
X145431925Y-135285092D01*
X145431925Y-135228456D01*
X145447963Y-135204452D01*
X145883754Y-134768662D01*
X145883757Y-134768660D01*
X145894162Y-134758255D01*
X145894163Y-134758255D01*
X145965755Y-134686663D01*
X146004500Y-134593123D01*
X146004500Y-133608740D01*
X146026174Y-133556414D01*
X146078500Y-133534740D01*
X146130826Y-133556414D01*
X146146867Y-133580422D01*
X146191240Y-133687550D01*
X146300995Y-133851811D01*
X146440688Y-133991504D01*
X146604949Y-134101259D01*
X146780736Y-134174072D01*
X146787465Y-134176859D01*
X146981223Y-134215400D01*
X146981225Y-134215400D01*
X147178775Y-134215400D01*
X147178777Y-134215400D01*
X147372535Y-134176859D01*
X147555051Y-134101259D01*
X147719312Y-133991504D01*
X147859004Y-133851812D01*
X147968759Y-133687551D01*
X148044359Y-133505035D01*
X148082900Y-133311277D01*
X148082900Y-133113723D01*
X148044359Y-132919965D01*
X147968759Y-132737449D01*
X147859004Y-132573188D01*
X147719312Y-132433496D01*
X147645329Y-132384062D01*
X147555050Y-132323740D01*
X147372539Y-132248142D01*
X147372529Y-132248139D01*
X147242776Y-132222330D01*
X147178777Y-132209600D01*
X146981223Y-132209600D01*
X146949106Y-132215988D01*
X146807409Y-132244173D01*
X146751861Y-132233124D01*
X146720395Y-132186031D01*
X146731444Y-132130483D01*
X146740642Y-132119273D01*
X152880598Y-125979317D01*
X152932923Y-125957644D01*
X152936826Y-125957900D01*
X152939716Y-125957900D01*
X153060286Y-125957900D01*
X153060286Y-125957899D01*
X153176743Y-125926695D01*
X153281157Y-125866411D01*
X153366411Y-125781157D01*
X153426695Y-125676743D01*
X153457899Y-125560286D01*
X153457900Y-125560286D01*
X153457900Y-125439714D01*
X153457899Y-125439713D01*
X153426696Y-125323260D01*
X153426694Y-125323255D01*
X153366413Y-125218846D01*
X153366412Y-125218845D01*
X153366411Y-125218843D01*
X153281157Y-125133589D01*
X153281154Y-125133587D01*
X153277727Y-125130160D01*
X153279454Y-125128432D01*
X153255132Y-125086291D01*
X153254500Y-125076642D01*
X153254500Y-120861224D01*
X156997100Y-120861224D01*
X156997100Y-121058775D01*
X157035639Y-121252529D01*
X157035642Y-121252539D01*
X157111240Y-121435050D01*
X157220995Y-121599311D01*
X157360688Y-121739004D01*
X157524949Y-121848759D01*
X157700736Y-121921572D01*
X157707465Y-121924359D01*
X157901223Y-121962900D01*
X157901225Y-121962900D01*
X158098775Y-121962900D01*
X158098777Y-121962900D01*
X158292535Y-121924359D01*
X158475051Y-121848759D01*
X158639312Y-121739004D01*
X158779004Y-121599312D01*
X158888759Y-121435051D01*
X158964359Y-121252535D01*
X159002900Y-121058777D01*
X159002900Y-120861223D01*
X158964359Y-120667465D01*
X158888759Y-120484949D01*
X158779004Y-120320688D01*
X158639312Y-120180996D01*
X158621780Y-120169281D01*
X158475050Y-120071240D01*
X158292539Y-119995642D01*
X158292529Y-119995639D01*
X158162776Y-119969830D01*
X158098777Y-119957100D01*
X157901223Y-119957100D01*
X157846295Y-119968025D01*
X157707470Y-119995639D01*
X157707460Y-119995642D01*
X157524949Y-120071240D01*
X157360688Y-120180995D01*
X157360687Y-120180997D01*
X157220997Y-120320687D01*
X157220995Y-120320688D01*
X157111240Y-120484949D01*
X157035642Y-120667460D01*
X157035639Y-120667470D01*
X156997100Y-120861224D01*
X153254500Y-120861224D01*
X153254500Y-118321224D01*
X156997100Y-118321224D01*
X156997100Y-118518775D01*
X157035639Y-118712529D01*
X157035642Y-118712539D01*
X157111240Y-118895050D01*
X157220995Y-119059311D01*
X157360688Y-119199004D01*
X157524949Y-119308759D01*
X157700736Y-119381572D01*
X157707465Y-119384359D01*
X157901223Y-119422900D01*
X157901225Y-119422900D01*
X158098775Y-119422900D01*
X158098777Y-119422900D01*
X158292535Y-119384359D01*
X158475051Y-119308759D01*
X158639312Y-119199004D01*
X158779004Y-119059312D01*
X158888759Y-118895051D01*
X158964359Y-118712535D01*
X159002900Y-118518777D01*
X159002900Y-118321223D01*
X158964359Y-118127465D01*
X158888759Y-117944949D01*
X158779004Y-117780688D01*
X158639312Y-117640996D01*
X158478895Y-117533809D01*
X158475050Y-117531240D01*
X158292539Y-117455642D01*
X158292529Y-117455639D01*
X158162776Y-117429830D01*
X158098777Y-117417100D01*
X157901223Y-117417100D01*
X157846295Y-117428025D01*
X157707470Y-117455639D01*
X157707460Y-117455642D01*
X157524949Y-117531240D01*
X157360688Y-117640995D01*
X157360687Y-117640997D01*
X157220997Y-117780687D01*
X157220995Y-117780688D01*
X157111240Y-117944949D01*
X157035642Y-118127460D01*
X157035639Y-118127470D01*
X156997100Y-118321224D01*
X153254500Y-118321224D01*
X153254500Y-115781224D01*
X156997100Y-115781224D01*
X156997100Y-115978775D01*
X157035639Y-116172529D01*
X157035642Y-116172539D01*
X157111240Y-116355050D01*
X157220995Y-116519311D01*
X157360688Y-116659004D01*
X157524949Y-116768759D01*
X157704478Y-116843122D01*
X157707465Y-116844359D01*
X157901223Y-116882900D01*
X157901225Y-116882900D01*
X158098775Y-116882900D01*
X158098777Y-116882900D01*
X158292535Y-116844359D01*
X158475051Y-116768759D01*
X158639312Y-116659004D01*
X158779004Y-116519312D01*
X158888759Y-116355051D01*
X158964359Y-116172535D01*
X159002900Y-115978777D01*
X159002900Y-115781223D01*
X158964359Y-115587465D01*
X158888759Y-115404949D01*
X158779004Y-115240688D01*
X158639312Y-115100996D01*
X158630676Y-115095225D01*
X158475050Y-114991240D01*
X158292539Y-114915642D01*
X158292529Y-114915639D01*
X158142288Y-114885755D01*
X158098777Y-114877100D01*
X157901223Y-114877100D01*
X157857712Y-114885755D01*
X157707470Y-114915639D01*
X157707460Y-114915642D01*
X157524949Y-114991240D01*
X157360688Y-115100995D01*
X157360687Y-115100997D01*
X157220997Y-115240687D01*
X157220995Y-115240688D01*
X157111240Y-115404949D01*
X157035642Y-115587460D01*
X157035639Y-115587470D01*
X156997100Y-115781224D01*
X153254500Y-115781224D01*
X153254500Y-113241224D01*
X156997100Y-113241224D01*
X156997100Y-113438775D01*
X157035639Y-113632529D01*
X157035642Y-113632539D01*
X157111240Y-113815050D01*
X157220995Y-113979311D01*
X157360688Y-114119004D01*
X157524949Y-114228759D01*
X157700736Y-114301572D01*
X157707465Y-114304359D01*
X157901223Y-114342900D01*
X157901225Y-114342900D01*
X158098775Y-114342900D01*
X158098777Y-114342900D01*
X158292535Y-114304359D01*
X158475051Y-114228759D01*
X158639312Y-114119004D01*
X158779004Y-113979312D01*
X158888759Y-113815051D01*
X158964359Y-113632535D01*
X159002900Y-113438777D01*
X159002900Y-113241223D01*
X158964359Y-113047465D01*
X158888759Y-112864949D01*
X158779004Y-112700688D01*
X158639312Y-112560996D01*
X158478895Y-112453809D01*
X158475050Y-112451240D01*
X158292539Y-112375642D01*
X158292529Y-112375639D01*
X158162776Y-112349830D01*
X158098777Y-112337100D01*
X157901223Y-112337100D01*
X157846295Y-112348025D01*
X157707470Y-112375639D01*
X157707460Y-112375642D01*
X157524949Y-112451240D01*
X157360688Y-112560995D01*
X157360687Y-112560997D01*
X157220997Y-112700687D01*
X157220995Y-112700688D01*
X157111240Y-112864949D01*
X157035642Y-113047460D01*
X157035639Y-113047470D01*
X156997100Y-113241224D01*
X153254500Y-113241224D01*
X153254500Y-107923358D01*
X153276174Y-107871032D01*
X153279110Y-107868457D01*
X153281154Y-107866412D01*
X153281157Y-107866411D01*
X153366411Y-107781157D01*
X153426695Y-107676743D01*
X153457899Y-107560286D01*
X153457900Y-107560286D01*
X153457900Y-107439714D01*
X153457899Y-107439713D01*
X153452597Y-107419927D01*
X153438576Y-107367599D01*
X153426696Y-107323260D01*
X153426694Y-107323255D01*
X153366413Y-107218846D01*
X153366412Y-107218845D01*
X153366411Y-107218843D01*
X153281157Y-107133589D01*
X153281154Y-107133587D01*
X153281153Y-107133586D01*
X153176744Y-107073305D01*
X153176739Y-107073303D01*
X153060286Y-107042100D01*
X153060284Y-107042100D01*
X152939716Y-107042100D01*
X152939714Y-107042100D01*
X152823260Y-107073303D01*
X152823255Y-107073305D01*
X152777442Y-107099756D01*
X152721289Y-107107148D01*
X152676356Y-107072670D01*
X152616413Y-106968846D01*
X152616412Y-106968845D01*
X152616411Y-106968843D01*
X152531157Y-106883589D01*
X152531154Y-106883587D01*
X152531153Y-106883586D01*
X152426744Y-106823305D01*
X152426739Y-106823303D01*
X152310286Y-106792100D01*
X152310284Y-106792100D01*
X152189716Y-106792100D01*
X152189714Y-106792100D01*
X152073260Y-106823303D01*
X152073255Y-106823305D01*
X151968846Y-106883586D01*
X151883586Y-106968846D01*
X151823305Y-107073255D01*
X151823303Y-107073260D01*
X151821478Y-107080074D01*
X151787000Y-107125007D01*
X151730847Y-107132399D01*
X151685914Y-107097921D01*
X151678522Y-107080074D01*
X151676696Y-107073260D01*
X151676694Y-107073255D01*
X151616413Y-106968846D01*
X151616412Y-106968845D01*
X151616411Y-106968843D01*
X151531157Y-106883589D01*
X151531154Y-106883587D01*
X151531153Y-106883586D01*
X151426744Y-106823305D01*
X151426739Y-106823303D01*
X151310286Y-106792100D01*
X151310284Y-106792100D01*
X151189716Y-106792100D01*
X151189714Y-106792100D01*
X151073260Y-106823303D01*
X151073255Y-106823305D01*
X150968846Y-106883586D01*
X150883586Y-106968846D01*
X150823643Y-107072670D01*
X150778709Y-107107149D01*
X150722557Y-107099756D01*
X150676744Y-107073305D01*
X150676739Y-107073303D01*
X150560286Y-107042100D01*
X150560284Y-107042100D01*
X150439716Y-107042100D01*
X150439714Y-107042100D01*
X150323260Y-107073303D01*
X150323255Y-107073305D01*
X150218846Y-107133586D01*
X150133586Y-107218846D01*
X150073305Y-107323255D01*
X150073303Y-107323260D01*
X150042100Y-107439713D01*
X150042100Y-107560286D01*
X150073303Y-107676739D01*
X150073305Y-107676744D01*
X150133586Y-107781153D01*
X150133587Y-107781154D01*
X150133589Y-107781157D01*
X150183151Y-107830719D01*
X150222273Y-107869841D01*
X150220539Y-107871574D01*
X150244864Y-107913679D01*
X150245500Y-107923358D01*
X150245500Y-120076642D01*
X150223826Y-120128968D01*
X150220890Y-120131542D01*
X150133586Y-120218846D01*
X150073305Y-120323255D01*
X150073304Y-120323259D01*
X150042100Y-120439713D01*
X150042100Y-120565134D01*
X150039658Y-120565134D01*
X150027054Y-120612134D01*
X150020681Y-120619400D01*
X138034246Y-132605835D01*
X138034243Y-132605839D01*
X137995500Y-132699375D01*
X137995500Y-132823836D01*
X137973826Y-132876162D01*
X137921500Y-132897836D01*
X137869174Y-132876162D01*
X137853133Y-132852155D01*
X137806189Y-132738822D01*
X137696753Y-132575040D01*
X137680139Y-132558426D01*
X137324847Y-132913717D01*
X137320099Y-132905493D01*
X137227007Y-132812401D01*
X137218781Y-132807652D01*
X137574074Y-132452360D01*
X137557461Y-132435748D01*
X137557459Y-132435746D01*
X137393675Y-132326309D01*
X137211693Y-132250930D01*
X137211682Y-132250927D01*
X137018490Y-132212500D01*
X136821510Y-132212500D01*
X136628317Y-132250927D01*
X136628306Y-132250930D01*
X136446324Y-132326309D01*
X136282540Y-132435746D01*
X136265926Y-132452360D01*
X136621218Y-132807652D01*
X136612993Y-132812401D01*
X136519901Y-132905493D01*
X136515152Y-132913718D01*
X136159860Y-132558426D01*
X136143246Y-132575040D01*
X136033809Y-132738824D01*
X135958430Y-132920806D01*
X135958427Y-132920817D01*
X135920000Y-133114009D01*
X135920000Y-133310990D01*
X135958427Y-133504182D01*
X135958430Y-133504193D01*
X136033809Y-133686175D01*
X136143246Y-133849959D01*
X136159860Y-133866573D01*
X136515152Y-133511281D01*
X136519901Y-133519507D01*
X136612993Y-133612599D01*
X136621217Y-133617347D01*
X136265926Y-133972639D01*
X136282540Y-133989253D01*
X136446324Y-134098690D01*
X136628306Y-134174069D01*
X136628317Y-134174072D01*
X136821510Y-134212500D01*
X137018490Y-134212500D01*
X137211682Y-134174072D01*
X137211693Y-134174069D01*
X137393675Y-134098690D01*
X137557459Y-133989253D01*
X137574073Y-133972639D01*
X137218781Y-133617347D01*
X137227007Y-133612599D01*
X137320099Y-133519507D01*
X137324847Y-133511281D01*
X137680139Y-133866573D01*
X137696753Y-133849959D01*
X137806190Y-133686175D01*
X137853133Y-133572845D01*
X137893181Y-133532796D01*
X137949818Y-133532796D01*
X137989867Y-133572844D01*
X137995500Y-133601163D01*
X137995500Y-134286429D01*
X137973826Y-134338755D01*
X137468048Y-134844532D01*
X137415722Y-134866206D01*
X137387404Y-134860573D01*
X137212539Y-134788142D01*
X137212529Y-134788139D01*
X137062288Y-134758255D01*
X137018777Y-134749600D01*
X136821223Y-134749600D01*
X136777712Y-134758255D01*
X136627470Y-134788139D01*
X136627460Y-134788142D01*
X136444949Y-134863740D01*
X136280688Y-134973495D01*
X136280687Y-134973497D01*
X136140997Y-135113187D01*
X136140995Y-135113188D01*
X136031240Y-135277449D01*
X135955642Y-135459960D01*
X135955639Y-135459970D01*
X135917100Y-135653724D01*
X132549562Y-135653724D01*
X129301574Y-132405736D01*
X129279900Y-132353410D01*
X129279900Y-125510278D01*
X140860000Y-125510278D01*
X140860000Y-125689721D01*
X140888070Y-125866948D01*
X140888073Y-125866961D01*
X140943518Y-126037602D01*
X141024984Y-126197490D01*
X141130453Y-126342655D01*
X141130462Y-126342665D01*
X141140865Y-126353068D01*
X141481682Y-126012250D01*
X141487345Y-126020725D01*
X141579275Y-126112655D01*
X141587748Y-126118316D01*
X141246931Y-126459134D01*
X141257335Y-126469538D01*
X141257344Y-126469546D01*
X141402509Y-126575015D01*
X141562397Y-126656481D01*
X141733038Y-126711926D01*
X141733051Y-126711929D01*
X141910278Y-126740000D01*
X142089722Y-126740000D01*
X142266948Y-126711929D01*
X142266961Y-126711926D01*
X142437602Y-126656481D01*
X142597490Y-126575015D01*
X142742653Y-126469548D01*
X142742660Y-126469542D01*
X142753067Y-126459133D01*
X142412251Y-126118317D01*
X142420725Y-126112655D01*
X142512655Y-126020725D01*
X142518317Y-126012251D01*
X142859133Y-126353067D01*
X142869542Y-126342660D01*
X142869548Y-126342653D01*
X142975015Y-126197490D01*
X143056481Y-126037602D01*
X143111926Y-125866961D01*
X143111929Y-125866948D01*
X143140000Y-125689721D01*
X143140000Y-125510278D01*
X143111929Y-125333051D01*
X143111926Y-125333038D01*
X143056481Y-125162397D01*
X142975015Y-125002509D01*
X142869546Y-124857344D01*
X142869538Y-124857335D01*
X142859134Y-124846931D01*
X142518316Y-125187748D01*
X142512655Y-125179275D01*
X142420725Y-125087345D01*
X142412250Y-125081682D01*
X142753068Y-124740865D01*
X142742665Y-124730462D01*
X142742655Y-124730453D01*
X142597490Y-124624984D01*
X142437602Y-124543518D01*
X142266961Y-124488073D01*
X142266948Y-124488070D01*
X142089722Y-124460000D01*
X141910278Y-124460000D01*
X141733051Y-124488070D01*
X141733038Y-124488073D01*
X141562397Y-124543518D01*
X141402509Y-124624984D01*
X141257342Y-124730454D01*
X141246931Y-124740864D01*
X141246931Y-124740865D01*
X141587748Y-125081682D01*
X141579275Y-125087345D01*
X141487345Y-125179275D01*
X141481682Y-125187748D01*
X141140865Y-124846931D01*
X141140864Y-124846931D01*
X141130454Y-124857342D01*
X141024984Y-125002509D01*
X140943518Y-125162397D01*
X140888073Y-125333038D01*
X140888070Y-125333051D01*
X140860000Y-125510278D01*
X129279900Y-125510278D01*
X129279900Y-116956981D01*
X132100500Y-116956981D01*
X132100500Y-117223018D01*
X132135224Y-117486785D01*
X132204080Y-117743759D01*
X132305889Y-117989547D01*
X132305890Y-117989550D01*
X132438908Y-118219945D01*
X132438912Y-118219951D01*
X132600867Y-118431014D01*
X132788985Y-118619132D01*
X133000048Y-118781087D01*
X133000054Y-118781091D01*
X133067618Y-118820099D01*
X133230449Y-118914109D01*
X133476239Y-119015919D01*
X133733215Y-119084775D01*
X133733213Y-119084775D01*
X133865097Y-119102137D01*
X133996980Y-119119500D01*
X133996982Y-119119500D01*
X134263018Y-119119500D01*
X134263020Y-119119500D01*
X134526785Y-119084775D01*
X134783761Y-119015919D01*
X135029551Y-118914109D01*
X135259949Y-118781089D01*
X135379032Y-118689713D01*
X138542100Y-118689713D01*
X138542100Y-118810286D01*
X138573303Y-118926739D01*
X138573305Y-118926744D01*
X138633586Y-119031153D01*
X138633587Y-119031154D01*
X138633589Y-119031157D01*
X138718843Y-119116411D01*
X138718845Y-119116412D01*
X138718846Y-119116413D01*
X138823255Y-119176694D01*
X138823257Y-119176695D01*
X138823258Y-119176695D01*
X138823260Y-119176696D01*
X138836110Y-119180139D01*
X138939713Y-119207899D01*
X138939714Y-119207900D01*
X138939716Y-119207900D01*
X139060286Y-119207900D01*
X139060286Y-119207899D01*
X139176743Y-119176695D01*
X139281157Y-119116411D01*
X139328876Y-119068691D01*
X139381200Y-119047017D01*
X139433526Y-119068691D01*
X139481246Y-119116411D01*
X139481248Y-119116412D01*
X139481249Y-119116413D01*
X139585658Y-119176694D01*
X139585660Y-119176695D01*
X139585661Y-119176695D01*
X139585663Y-119176696D01*
X139598513Y-119180139D01*
X139702116Y-119207899D01*
X139702117Y-119207900D01*
X139702119Y-119207900D01*
X139822689Y-119207900D01*
X139822689Y-119207899D01*
X139939146Y-119176695D01*
X140043560Y-119116411D01*
X140119175Y-119040795D01*
X140171500Y-119019122D01*
X140223826Y-119040796D01*
X140245500Y-119093122D01*
X140245500Y-121326642D01*
X140223826Y-121378968D01*
X140220890Y-121381542D01*
X140133586Y-121468846D01*
X140073305Y-121573255D01*
X140073303Y-121573260D01*
X140042100Y-121689713D01*
X140042100Y-121810286D01*
X140073303Y-121926739D01*
X140073305Y-121926744D01*
X140133586Y-122031153D01*
X140133587Y-122031154D01*
X140133589Y-122031157D01*
X140218843Y-122116411D01*
X140323257Y-122176695D01*
X140323258Y-122176695D01*
X140323260Y-122176696D01*
X140371841Y-122189713D01*
X140439713Y-122207899D01*
X140439714Y-122207900D01*
X140439716Y-122207900D01*
X140560286Y-122207900D01*
X140560286Y-122207899D01*
X140676743Y-122176695D01*
X140781157Y-122116411D01*
X140866411Y-122031157D01*
X140926695Y-121926743D01*
X140957899Y-121810286D01*
X140957900Y-121810286D01*
X140957900Y-121689714D01*
X140957899Y-121689713D01*
X140926696Y-121573260D01*
X140926694Y-121573255D01*
X140866413Y-121468846D01*
X140866412Y-121468845D01*
X140866411Y-121468843D01*
X140781157Y-121383589D01*
X140781154Y-121383587D01*
X140777727Y-121380160D01*
X140779454Y-121378432D01*
X140755132Y-121336291D01*
X140754500Y-121326642D01*
X140754500Y-119830719D01*
X140776174Y-119778393D01*
X140828500Y-119756719D01*
X140880826Y-119778393D01*
X140883587Y-119781154D01*
X140883589Y-119781157D01*
X140968843Y-119866411D01*
X141073257Y-119926695D01*
X141073258Y-119926695D01*
X141073260Y-119926696D01*
X141131486Y-119942297D01*
X141189713Y-119957899D01*
X141189714Y-119957900D01*
X141189716Y-119957900D01*
X141310286Y-119957900D01*
X141310286Y-119957899D01*
X141426743Y-119926695D01*
X141531157Y-119866411D01*
X141616411Y-119781157D01*
X141676695Y-119676743D01*
X141707899Y-119560286D01*
X141707900Y-119560286D01*
X141707900Y-119434866D01*
X141710348Y-119434866D01*
X141722928Y-119387885D01*
X141729311Y-119380605D01*
X142133754Y-118976161D01*
X142133757Y-118976160D01*
X142144162Y-118965755D01*
X142144163Y-118965755D01*
X142215755Y-118894163D01*
X142254500Y-118800623D01*
X142254500Y-116923358D01*
X142276174Y-116871032D01*
X142279110Y-116868457D01*
X142281154Y-116866412D01*
X142281157Y-116866411D01*
X142366411Y-116781157D01*
X142426695Y-116676743D01*
X142457899Y-116560286D01*
X142457900Y-116560286D01*
X142457900Y-116439714D01*
X142457899Y-116439713D01*
X142456968Y-116436240D01*
X142435214Y-116355050D01*
X142426696Y-116323260D01*
X142426694Y-116323255D01*
X142366413Y-116218846D01*
X142366412Y-116218845D01*
X142366411Y-116218843D01*
X142281157Y-116133589D01*
X142281154Y-116133587D01*
X142277727Y-116130160D01*
X142279454Y-116128432D01*
X142255132Y-116086291D01*
X142254500Y-116076642D01*
X142254500Y-115886068D01*
X142276173Y-115833743D01*
X149645440Y-108464475D01*
X149645443Y-108464474D01*
X149655848Y-108454069D01*
X149655849Y-108454069D01*
X149727441Y-108382477D01*
X149766186Y-108288937D01*
X149766186Y-104939713D01*
X156792100Y-104939713D01*
X156792100Y-105060286D01*
X156823303Y-105176739D01*
X156823305Y-105176744D01*
X156883586Y-105281153D01*
X156883587Y-105281154D01*
X156883589Y-105281157D01*
X156968843Y-105366411D01*
X156968845Y-105366412D01*
X156968846Y-105366413D01*
X157064259Y-105421500D01*
X157073257Y-105426695D01*
X157073258Y-105426695D01*
X157073260Y-105426696D01*
X157076149Y-105427470D01*
X157189713Y-105457899D01*
X157189714Y-105457900D01*
X157189716Y-105457900D01*
X157310286Y-105457900D01*
X157310286Y-105457899D01*
X157426743Y-105426695D01*
X157531157Y-105366411D01*
X157531157Y-105366410D01*
X157534340Y-105364573D01*
X157590492Y-105357180D01*
X157635426Y-105391659D01*
X157642819Y-105447811D01*
X157635426Y-105465659D01*
X157573305Y-105573255D01*
X157573303Y-105573260D01*
X157542100Y-105689713D01*
X157542100Y-105810286D01*
X157573303Y-105926739D01*
X157573305Y-105926744D01*
X157633586Y-106031153D01*
X157633587Y-106031154D01*
X157633589Y-106031157D01*
X157718843Y-106116411D01*
X157718845Y-106116412D01*
X157718846Y-106116413D01*
X157770078Y-106145992D01*
X157823257Y-106176695D01*
X157823258Y-106176695D01*
X157823260Y-106176696D01*
X157857704Y-106185925D01*
X157939713Y-106207899D01*
X157939714Y-106207900D01*
X157939716Y-106207900D01*
X158060286Y-106207900D01*
X158060286Y-106207899D01*
X158176743Y-106176695D01*
X158281157Y-106116411D01*
X158366411Y-106031157D01*
X158366412Y-106031154D01*
X158369840Y-106027727D01*
X158370228Y-106028115D01*
X158371032Y-106026174D01*
X158393061Y-106017049D01*
X158413709Y-106005132D01*
X158423358Y-106004500D01*
X158437742Y-106004500D01*
X158490068Y-106026174D01*
X158511742Y-106078500D01*
X158490068Y-106130826D01*
X158474741Y-106142587D01*
X158468845Y-106145990D01*
X158383586Y-106231249D01*
X158323305Y-106335658D01*
X158323303Y-106335663D01*
X158292100Y-106452116D01*
X158292100Y-106572689D01*
X158323303Y-106689142D01*
X158323305Y-106689147D01*
X158383586Y-106793556D01*
X158383587Y-106793557D01*
X158383589Y-106793560D01*
X158468843Y-106878814D01*
X158468845Y-106878815D01*
X158468846Y-106878816D01*
X158477108Y-106883586D01*
X158573257Y-106939098D01*
X158573258Y-106939098D01*
X158573260Y-106939099D01*
X158631486Y-106954700D01*
X158689713Y-106970302D01*
X158689714Y-106970303D01*
X158689716Y-106970303D01*
X158810286Y-106970303D01*
X158810286Y-106970302D01*
X158926743Y-106939098D01*
X159023600Y-106883176D01*
X159079751Y-106875784D01*
X159124685Y-106910262D01*
X159132078Y-106966415D01*
X159124685Y-106984263D01*
X159073306Y-107073254D01*
X159073303Y-107073260D01*
X159042100Y-107189713D01*
X159042100Y-107310286D01*
X159073303Y-107426739D01*
X159073305Y-107426744D01*
X159133586Y-107531153D01*
X159133587Y-107531154D01*
X159133589Y-107531157D01*
X159218843Y-107616411D01*
X159218845Y-107616412D01*
X159218846Y-107616413D01*
X159245499Y-107631801D01*
X159323257Y-107676695D01*
X159323258Y-107676695D01*
X159323260Y-107676696D01*
X159381486Y-107692297D01*
X159439713Y-107707899D01*
X159439714Y-107707900D01*
X159565135Y-107707900D01*
X159565135Y-107710353D01*
X159612101Y-107722919D01*
X159619400Y-107729318D01*
X161473826Y-109583743D01*
X161495500Y-109636069D01*
X161495500Y-112726108D01*
X161473826Y-112778434D01*
X161421500Y-112800108D01*
X161369174Y-112778434D01*
X161359971Y-112767220D01*
X161316753Y-112702540D01*
X161300139Y-112685926D01*
X160944847Y-113041217D01*
X160940099Y-113032993D01*
X160847007Y-112939901D01*
X160838781Y-112935152D01*
X161194074Y-112579860D01*
X161177461Y-112563248D01*
X161177459Y-112563246D01*
X161013675Y-112453809D01*
X160831693Y-112378430D01*
X160831682Y-112378427D01*
X160638490Y-112340000D01*
X160441510Y-112340000D01*
X160248317Y-112378427D01*
X160248306Y-112378430D01*
X160066324Y-112453809D01*
X159902540Y-112563246D01*
X159885926Y-112579860D01*
X160241218Y-112935152D01*
X160232993Y-112939901D01*
X160139901Y-113032993D01*
X160135152Y-113041218D01*
X159779860Y-112685926D01*
X159763246Y-112702540D01*
X159653809Y-112866324D01*
X159578430Y-113048306D01*
X159578427Y-113048317D01*
X159540000Y-113241509D01*
X159540000Y-113438490D01*
X159578427Y-113631682D01*
X159578430Y-113631693D01*
X159653809Y-113813675D01*
X159763246Y-113977459D01*
X159779860Y-113994073D01*
X160135152Y-113638781D01*
X160139901Y-113647007D01*
X160232993Y-113740099D01*
X160241217Y-113744847D01*
X159885926Y-114100139D01*
X159902540Y-114116753D01*
X160066324Y-114226190D01*
X160248306Y-114301569D01*
X160248317Y-114301572D01*
X160441510Y-114340000D01*
X160638490Y-114340000D01*
X160831682Y-114301572D01*
X160831693Y-114301569D01*
X161013675Y-114226190D01*
X161177459Y-114116753D01*
X161194073Y-114100139D01*
X160838781Y-113744847D01*
X160847007Y-113740099D01*
X160940099Y-113647007D01*
X160944847Y-113638781D01*
X161300139Y-113994073D01*
X161316753Y-113977459D01*
X161359971Y-113912779D01*
X161407063Y-113881313D01*
X161462612Y-113892362D01*
X161494078Y-113939454D01*
X161495500Y-113953891D01*
X161495500Y-114533930D01*
X161473826Y-114586256D01*
X161088049Y-114972032D01*
X161035723Y-114993706D01*
X161007405Y-114988073D01*
X160832539Y-114915642D01*
X160832529Y-114915639D01*
X160682288Y-114885755D01*
X160638777Y-114877100D01*
X160441223Y-114877100D01*
X160397712Y-114885755D01*
X160247470Y-114915639D01*
X160247460Y-114915642D01*
X160064949Y-114991240D01*
X159900688Y-115100995D01*
X159900687Y-115100997D01*
X159760997Y-115240687D01*
X159760995Y-115240688D01*
X159651240Y-115404949D01*
X159575642Y-115587460D01*
X159575639Y-115587470D01*
X159537100Y-115781224D01*
X159537100Y-115978775D01*
X159575639Y-116172529D01*
X159575642Y-116172539D01*
X159651240Y-116355050D01*
X159760995Y-116519311D01*
X159900688Y-116659004D01*
X160064949Y-116768759D01*
X160244478Y-116843122D01*
X160247465Y-116844359D01*
X160441223Y-116882900D01*
X160441225Y-116882900D01*
X160638775Y-116882900D01*
X160638777Y-116882900D01*
X160832535Y-116844359D01*
X161015051Y-116768759D01*
X161179312Y-116659004D01*
X161319004Y-116519312D01*
X161428759Y-116355051D01*
X161504359Y-116172535D01*
X161542900Y-115978777D01*
X161542900Y-115781223D01*
X161504359Y-115587465D01*
X161431925Y-115412592D01*
X161431925Y-115355956D01*
X161447963Y-115331952D01*
X161869174Y-114910742D01*
X161921500Y-114889068D01*
X161973826Y-114910742D01*
X161995500Y-114963068D01*
X161995500Y-116573930D01*
X161973826Y-116626256D01*
X161088049Y-117512032D01*
X161035723Y-117533706D01*
X161007405Y-117528073D01*
X160832539Y-117455642D01*
X160832529Y-117455639D01*
X160702776Y-117429830D01*
X160638777Y-117417100D01*
X160441223Y-117417100D01*
X160386295Y-117428025D01*
X160247470Y-117455639D01*
X160247460Y-117455642D01*
X160064949Y-117531240D01*
X159900688Y-117640995D01*
X159900687Y-117640997D01*
X159760997Y-117780687D01*
X159760995Y-117780688D01*
X159651240Y-117944949D01*
X159575642Y-118127460D01*
X159575639Y-118127470D01*
X159537100Y-118321224D01*
X159537100Y-118518775D01*
X159575639Y-118712529D01*
X159575642Y-118712539D01*
X159651240Y-118895050D01*
X159760995Y-119059311D01*
X159900688Y-119199004D01*
X160064949Y-119308759D01*
X160240736Y-119381572D01*
X160247465Y-119384359D01*
X160441223Y-119422900D01*
X160441225Y-119422900D01*
X160638775Y-119422900D01*
X160638777Y-119422900D01*
X160832535Y-119384359D01*
X161015051Y-119308759D01*
X161179312Y-119199004D01*
X161319004Y-119059312D01*
X161428759Y-118895051D01*
X161504359Y-118712535D01*
X161542900Y-118518777D01*
X161542900Y-118321223D01*
X161504359Y-118127465D01*
X161431925Y-117952592D01*
X161431925Y-117895956D01*
X161447963Y-117871952D01*
X162369174Y-116950742D01*
X162421500Y-116929068D01*
X162473826Y-116950742D01*
X162495500Y-117003068D01*
X162495500Y-118613929D01*
X162473826Y-118666255D01*
X161088048Y-120052032D01*
X161035722Y-120073706D01*
X161007404Y-120068073D01*
X160832539Y-119995642D01*
X160832529Y-119995639D01*
X160702776Y-119969830D01*
X160638777Y-119957100D01*
X160441223Y-119957100D01*
X160386295Y-119968025D01*
X160247470Y-119995639D01*
X160247460Y-119995642D01*
X160064949Y-120071240D01*
X159900688Y-120180995D01*
X159900687Y-120180997D01*
X159760997Y-120320687D01*
X159760995Y-120320688D01*
X159651240Y-120484949D01*
X159575642Y-120667460D01*
X159575639Y-120667470D01*
X159537100Y-120861224D01*
X159537100Y-121058775D01*
X159575639Y-121252529D01*
X159575642Y-121252539D01*
X159651240Y-121435050D01*
X159760995Y-121599311D01*
X159900688Y-121739004D01*
X160064949Y-121848759D01*
X160240736Y-121921572D01*
X160247465Y-121924359D01*
X160441223Y-121962900D01*
X160441225Y-121962900D01*
X160638775Y-121962900D01*
X160638777Y-121962900D01*
X160832535Y-121924359D01*
X161015051Y-121848759D01*
X161179312Y-121739004D01*
X161319004Y-121599312D01*
X161428759Y-121435051D01*
X161504359Y-121252535D01*
X161542900Y-121058777D01*
X161542900Y-120861223D01*
X161504359Y-120667465D01*
X161431925Y-120492592D01*
X161431925Y-120435957D01*
X161447963Y-120411953D01*
X162869175Y-118990742D01*
X162921500Y-118969069D01*
X162973826Y-118990743D01*
X162995500Y-119043069D01*
X162995500Y-120653929D01*
X162973826Y-120706255D01*
X161088048Y-122592032D01*
X161035722Y-122613706D01*
X161007404Y-122608073D01*
X160832539Y-122535642D01*
X160832529Y-122535639D01*
X160702776Y-122509830D01*
X160638777Y-122497100D01*
X160441223Y-122497100D01*
X160386295Y-122508025D01*
X160247470Y-122535639D01*
X160247460Y-122535642D01*
X160064949Y-122611240D01*
X159900688Y-122720995D01*
X159900687Y-122720997D01*
X159760997Y-122860687D01*
X159760995Y-122860688D01*
X159651240Y-123024949D01*
X159575642Y-123207460D01*
X159575639Y-123207470D01*
X159537100Y-123401224D01*
X159537100Y-123598775D01*
X159575639Y-123792529D01*
X159575642Y-123792539D01*
X159651240Y-123975050D01*
X159760995Y-124139311D01*
X159900688Y-124279004D01*
X160064949Y-124388759D01*
X160240736Y-124461572D01*
X160247465Y-124464359D01*
X160441223Y-124502900D01*
X160441225Y-124502900D01*
X160638775Y-124502900D01*
X160638777Y-124502900D01*
X160832535Y-124464359D01*
X161015051Y-124388759D01*
X161179312Y-124279004D01*
X161319004Y-124139312D01*
X161428759Y-123975051D01*
X161504359Y-123792535D01*
X161542900Y-123598777D01*
X161542900Y-123401223D01*
X161504359Y-123207465D01*
X161431925Y-123032592D01*
X161431925Y-122975957D01*
X161447963Y-122951953D01*
X163465755Y-120934163D01*
X163504501Y-120840623D01*
X163504501Y-120739377D01*
X163504501Y-120733419D01*
X163504500Y-120733405D01*
X163504500Y-108809243D01*
X163504501Y-108809234D01*
X163504501Y-108699377D01*
X163465755Y-108605838D01*
X163465755Y-108605837D01*
X159644163Y-104784245D01*
X159644160Y-104784243D01*
X159550623Y-104745500D01*
X157673358Y-104745500D01*
X157621032Y-104723826D01*
X157618457Y-104720890D01*
X157616412Y-104718845D01*
X157616411Y-104718843D01*
X157531157Y-104633589D01*
X157531154Y-104633587D01*
X157531153Y-104633586D01*
X157426744Y-104573305D01*
X157426739Y-104573303D01*
X157310286Y-104542100D01*
X157310284Y-104542100D01*
X157189716Y-104542100D01*
X157189714Y-104542100D01*
X157073260Y-104573303D01*
X157073255Y-104573305D01*
X156968846Y-104633586D01*
X156883586Y-104718846D01*
X156823305Y-104823255D01*
X156823303Y-104823260D01*
X156792100Y-104939713D01*
X149766186Y-104939713D01*
X149766186Y-96423908D01*
X149787860Y-96371582D01*
X149792154Y-96367816D01*
X149793557Y-96366412D01*
X149793560Y-96366411D01*
X149878814Y-96281157D01*
X149939098Y-96176743D01*
X149970302Y-96060286D01*
X149970303Y-96060286D01*
X149970303Y-95939714D01*
X149970302Y-95939713D01*
X149939099Y-95823260D01*
X149939097Y-95823255D01*
X149878816Y-95718846D01*
X149878815Y-95718845D01*
X149878814Y-95718843D01*
X149793560Y-95633589D01*
X149793557Y-95633587D01*
X149793556Y-95633586D01*
X149689147Y-95573305D01*
X149689142Y-95573303D01*
X149572689Y-95542100D01*
X149572687Y-95542100D01*
X149452119Y-95542100D01*
X149452117Y-95542100D01*
X149335663Y-95573303D01*
X149335658Y-95573305D01*
X149231249Y-95633586D01*
X149183526Y-95681308D01*
X149131200Y-95702981D01*
X149078876Y-95681307D01*
X149031157Y-95633589D01*
X149031154Y-95633587D01*
X148926744Y-95573305D01*
X148926739Y-95573303D01*
X148810286Y-95542100D01*
X148810284Y-95542100D01*
X148689716Y-95542100D01*
X148689714Y-95542100D01*
X148573260Y-95573303D01*
X148573255Y-95573305D01*
X148468846Y-95633586D01*
X148383586Y-95718846D01*
X148323305Y-95823255D01*
X148323303Y-95823262D01*
X148321833Y-95828747D01*
X148287352Y-95873678D01*
X148231199Y-95881067D01*
X148186268Y-95846586D01*
X148178877Y-95828741D01*
X148177409Y-95823262D01*
X148177408Y-95823257D01*
X148117124Y-95718843D01*
X148031870Y-95633589D01*
X148031867Y-95633587D01*
X148031866Y-95633586D01*
X147927457Y-95573305D01*
X147927452Y-95573303D01*
X147810999Y-95542100D01*
X147810997Y-95542100D01*
X147690429Y-95542100D01*
X147690427Y-95542100D01*
X147573973Y-95573303D01*
X147573968Y-95573305D01*
X147469559Y-95633586D01*
X147421836Y-95681308D01*
X147369510Y-95702981D01*
X147317186Y-95681307D01*
X147269467Y-95633589D01*
X147269464Y-95633587D01*
X147165054Y-95573305D01*
X147165049Y-95573303D01*
X147048596Y-95542100D01*
X147048594Y-95542100D01*
X146928026Y-95542100D01*
X146928024Y-95542100D01*
X146811570Y-95573303D01*
X146811565Y-95573305D01*
X146707156Y-95633586D01*
X146621896Y-95718846D01*
X146561615Y-95823255D01*
X146561613Y-95823260D01*
X146530410Y-95939713D01*
X146530410Y-96060286D01*
X146561613Y-96176739D01*
X146561615Y-96176744D01*
X146621896Y-96281153D01*
X146621897Y-96281154D01*
X146621899Y-96281157D01*
X146707153Y-96366411D01*
X146710583Y-96369841D01*
X146708849Y-96371574D01*
X146733174Y-96413679D01*
X146733810Y-96423358D01*
X146733810Y-108375619D01*
X146712136Y-108427945D01*
X138784246Y-116355835D01*
X138784243Y-116355839D01*
X138745500Y-116449375D01*
X138745500Y-118326642D01*
X138723826Y-118378968D01*
X138720890Y-118381542D01*
X138633586Y-118468846D01*
X138573305Y-118573255D01*
X138573303Y-118573260D01*
X138542100Y-118689713D01*
X135379032Y-118689713D01*
X135471014Y-118619133D01*
X135659133Y-118431014D01*
X135821089Y-118219949D01*
X135954109Y-117989551D01*
X136055919Y-117743761D01*
X136124775Y-117486785D01*
X136159500Y-117223020D01*
X136159500Y-116956980D01*
X136134768Y-116769122D01*
X136124775Y-116693214D01*
X136089157Y-116560284D01*
X136055919Y-116436239D01*
X135954109Y-116190449D01*
X135836109Y-115986066D01*
X135821091Y-115960054D01*
X135821087Y-115960048D01*
X135724169Y-115833742D01*
X135659133Y-115748986D01*
X135471014Y-115560867D01*
X135365497Y-115479901D01*
X135259951Y-115398912D01*
X135259945Y-115398908D01*
X135029550Y-115265890D01*
X135029547Y-115265889D01*
X134783759Y-115164080D01*
X134526784Y-115095224D01*
X134526786Y-115095224D01*
X134312805Y-115067054D01*
X134263020Y-115060500D01*
X133996980Y-115060500D01*
X133947194Y-115067054D01*
X133733214Y-115095224D01*
X133476240Y-115164080D01*
X133230452Y-115265889D01*
X133230449Y-115265890D01*
X133000054Y-115398908D01*
X133000048Y-115398912D01*
X132788985Y-115560867D01*
X132600867Y-115748985D01*
X132438912Y-115960048D01*
X132438908Y-115960054D01*
X132305890Y-116190449D01*
X132305889Y-116190452D01*
X132204080Y-116436240D01*
X132135224Y-116693214D01*
X132100500Y-116956981D01*
X129279900Y-116956981D01*
X129279900Y-103603148D01*
X129279899Y-103603147D01*
X129260826Y-103531965D01*
X129234870Y-103487007D01*
X129223976Y-103468138D01*
X129171862Y-103416024D01*
X127024574Y-101268736D01*
X127002900Y-101216410D01*
X127002900Y-100008291D01*
X127000533Y-99993348D01*
X126987957Y-99913945D01*
X126987955Y-99913942D01*
X126987955Y-99913939D01*
X126930017Y-99800230D01*
X126839769Y-99709982D01*
X126726060Y-99652044D01*
X126726055Y-99652043D01*
X126631709Y-99637100D01*
X126631708Y-99637100D01*
X126353900Y-99637100D01*
X126301574Y-99615426D01*
X126279900Y-99563100D01*
X126279900Y-91909264D01*
X127847100Y-91909264D01*
X127847100Y-92090735D01*
X127875487Y-92269968D01*
X127875490Y-92269981D01*
X127931564Y-92442557D01*
X127931566Y-92442561D01*
X128013950Y-92604250D01*
X128116574Y-92745500D01*
X128120617Y-92751064D01*
X128248936Y-92879383D01*
X128248939Y-92879385D01*
X128248940Y-92879386D01*
X128395749Y-92986049D01*
X128557438Y-93068433D01*
X128557442Y-93068435D01*
X128730018Y-93124509D01*
X128730024Y-93124510D01*
X128730029Y-93124512D01*
X128849519Y-93143437D01*
X128909264Y-93152900D01*
X128909265Y-93152900D01*
X129090736Y-93152900D01*
X129135544Y-93145803D01*
X129269971Y-93124512D01*
X129269978Y-93124509D01*
X129269981Y-93124509D01*
X129442557Y-93068435D01*
X129442557Y-93068434D01*
X129442560Y-93068434D01*
X129604251Y-92986049D01*
X129751064Y-92879383D01*
X129879383Y-92751064D01*
X129986049Y-92604251D01*
X130068434Y-92442560D01*
X130111413Y-92310286D01*
X130124509Y-92269981D01*
X130124509Y-92269978D01*
X130124512Y-92269971D01*
X130152900Y-92090735D01*
X130152900Y-91909265D01*
X130124512Y-91730029D01*
X130124510Y-91730024D01*
X130124509Y-91730018D01*
X130068435Y-91557442D01*
X130068433Y-91557438D01*
X129986049Y-91395749D01*
X129879386Y-91248940D01*
X129879385Y-91248939D01*
X129879383Y-91248936D01*
X129751064Y-91120617D01*
X129751061Y-91120614D01*
X129751059Y-91120613D01*
X129604250Y-91013950D01*
X129442561Y-90931566D01*
X129442557Y-90931564D01*
X129269981Y-90875490D01*
X129269968Y-90875487D01*
X129090736Y-90847100D01*
X129090735Y-90847100D01*
X128909265Y-90847100D01*
X128909264Y-90847100D01*
X128730031Y-90875487D01*
X128730018Y-90875490D01*
X128557442Y-90931564D01*
X128557438Y-90931566D01*
X128395749Y-91013950D01*
X128248940Y-91120613D01*
X128120613Y-91248940D01*
X128013950Y-91395749D01*
X127931566Y-91557438D01*
X127931564Y-91557442D01*
X127875490Y-91730018D01*
X127875487Y-91730031D01*
X127847100Y-91909264D01*
X126279900Y-91909264D01*
X126279900Y-91396590D01*
X126301574Y-91344264D01*
X127344264Y-90301574D01*
X127396590Y-90279900D01*
X140601681Y-90279900D01*
X140654005Y-90301573D01*
X140698426Y-90345994D01*
X140720100Y-90398319D01*
X140720100Y-91601681D01*
X140698426Y-91654005D01*
X140654006Y-91698426D01*
X140633586Y-91718846D01*
X140573305Y-91823255D01*
X140573303Y-91823260D01*
X140542100Y-91939713D01*
X140542100Y-92031409D01*
X140520426Y-92083735D01*
X138828138Y-93776024D01*
X138776024Y-93828137D01*
X138739173Y-93891965D01*
X138720100Y-93963147D01*
X138720100Y-110101681D01*
X138698426Y-110154005D01*
X138633589Y-110218843D01*
X138633586Y-110218846D01*
X138573305Y-110323255D01*
X138573303Y-110323260D01*
X138542100Y-110439713D01*
X138542100Y-110560286D01*
X138573303Y-110676739D01*
X138573305Y-110676744D01*
X138633586Y-110781153D01*
X138633587Y-110781154D01*
X138633589Y-110781157D01*
X138718843Y-110866411D01*
X138718845Y-110866412D01*
X138718846Y-110866413D01*
X138774902Y-110898777D01*
X138823257Y-110926695D01*
X138823258Y-110926695D01*
X138823260Y-110926696D01*
X138881486Y-110942297D01*
X138939713Y-110957899D01*
X138939714Y-110957900D01*
X138939716Y-110957900D01*
X139060286Y-110957900D01*
X139060286Y-110957899D01*
X139176743Y-110926695D01*
X139281157Y-110866411D01*
X139366411Y-110781157D01*
X139426695Y-110676743D01*
X139457899Y-110560286D01*
X139457900Y-110560286D01*
X139457900Y-110439714D01*
X139457899Y-110439713D01*
X139426696Y-110323260D01*
X139426694Y-110323255D01*
X139366413Y-110218846D01*
X139366412Y-110218845D01*
X139366411Y-110218843D01*
X139301573Y-110154005D01*
X139279900Y-110101681D01*
X139279900Y-94146589D01*
X139301573Y-94094264D01*
X140916263Y-92479573D01*
X140968589Y-92457900D01*
X141060286Y-92457900D01*
X141060286Y-92457899D01*
X141176743Y-92426695D01*
X141281157Y-92366411D01*
X141345994Y-92301573D01*
X141398319Y-92279900D01*
X150103410Y-92279900D01*
X150155735Y-92301573D01*
X150328137Y-92473976D01*
X150391962Y-92510825D01*
X150407006Y-92514855D01*
X150449997Y-92526375D01*
X150463149Y-92529900D01*
X150463150Y-92529900D01*
X157601681Y-92529900D01*
X157654005Y-92551573D01*
X157718843Y-92616411D01*
X157718845Y-92616412D01*
X157721607Y-92619174D01*
X157743281Y-92671500D01*
X157721607Y-92723826D01*
X157669281Y-92745500D01*
X146309243Y-92745500D01*
X146309235Y-92745499D01*
X146300623Y-92745499D01*
X146199377Y-92745499D01*
X146133235Y-92772894D01*
X146133236Y-92772895D01*
X146105838Y-92784244D01*
X146034244Y-92855838D01*
X145095429Y-93794652D01*
X145034246Y-93855835D01*
X145034243Y-93855839D01*
X144995500Y-93949375D01*
X144995500Y-102863930D01*
X144973826Y-102916256D01*
X144166256Y-103723826D01*
X144113930Y-103745500D01*
X141423358Y-103745500D01*
X141371032Y-103723826D01*
X141368457Y-103720890D01*
X141366412Y-103718845D01*
X141366411Y-103718843D01*
X141281157Y-103633589D01*
X141281154Y-103633587D01*
X141281153Y-103633586D01*
X141176744Y-103573305D01*
X141176739Y-103573303D01*
X141060286Y-103542100D01*
X141060284Y-103542100D01*
X140939716Y-103542100D01*
X140939714Y-103542100D01*
X140823260Y-103573303D01*
X140823255Y-103573305D01*
X140718846Y-103633586D01*
X140633586Y-103718846D01*
X140573305Y-103823255D01*
X140573303Y-103823260D01*
X140542100Y-103939713D01*
X140542100Y-104060286D01*
X140573303Y-104176739D01*
X140573305Y-104176744D01*
X140633586Y-104281153D01*
X140633587Y-104281154D01*
X140633589Y-104281157D01*
X140718843Y-104366411D01*
X140823257Y-104426695D01*
X140823258Y-104426695D01*
X140823260Y-104426696D01*
X140881486Y-104442297D01*
X140939713Y-104457899D01*
X140939714Y-104457900D01*
X140939716Y-104457900D01*
X141060286Y-104457900D01*
X141060286Y-104457899D01*
X141176743Y-104426695D01*
X141281157Y-104366411D01*
X141366411Y-104281157D01*
X141366412Y-104281154D01*
X141369840Y-104277727D01*
X141371567Y-104279454D01*
X141413709Y-104255132D01*
X141423358Y-104254500D01*
X144300622Y-104254500D01*
X144300623Y-104254500D01*
X144394163Y-104215755D01*
X145383754Y-103226161D01*
X145383757Y-103226160D01*
X145394162Y-103215755D01*
X145394163Y-103215755D01*
X145465755Y-103144163D01*
X145482287Y-103104251D01*
X145504501Y-103050623D01*
X145504501Y-102949377D01*
X145504501Y-102943419D01*
X145504500Y-102943405D01*
X145504500Y-94136069D01*
X145526174Y-94083743D01*
X146333743Y-93276174D01*
X146386069Y-93254500D01*
X158576642Y-93254500D01*
X158628968Y-93276174D01*
X158631542Y-93279109D01*
X158633587Y-93281154D01*
X158633589Y-93281157D01*
X158718843Y-93366411D01*
X158823257Y-93426695D01*
X158823258Y-93426695D01*
X158823260Y-93426696D01*
X158881486Y-93442297D01*
X158939713Y-93457899D01*
X158939714Y-93457900D01*
X159065135Y-93457900D01*
X159065135Y-93460353D01*
X159112101Y-93472919D01*
X159119400Y-93479318D01*
X160973826Y-95333743D01*
X160995500Y-95386069D01*
X160995500Y-101316697D01*
X160973826Y-101369023D01*
X160944367Y-101387075D01*
X160807442Y-101431564D01*
X160807438Y-101431566D01*
X160645749Y-101513950D01*
X160498940Y-101620613D01*
X160370613Y-101748940D01*
X160263950Y-101895749D01*
X160181566Y-102057438D01*
X160181564Y-102057442D01*
X160125490Y-102230018D01*
X160125487Y-102230031D01*
X160097100Y-102409264D01*
X160097100Y-102590735D01*
X160125487Y-102769968D01*
X160125490Y-102769981D01*
X160181564Y-102942557D01*
X160181566Y-102942561D01*
X160263950Y-103104250D01*
X160292949Y-103144164D01*
X160370617Y-103251064D01*
X160498936Y-103379383D01*
X160498939Y-103379385D01*
X160498940Y-103379386D01*
X160645749Y-103486049D01*
X160807438Y-103568433D01*
X160807442Y-103568435D01*
X160980018Y-103624509D01*
X160980024Y-103624510D01*
X160980029Y-103624512D01*
X161099519Y-103643437D01*
X161159264Y-103652900D01*
X161159265Y-103652900D01*
X161340736Y-103652900D01*
X161385544Y-103645803D01*
X161519971Y-103624512D01*
X161519978Y-103624509D01*
X161519981Y-103624509D01*
X161692557Y-103568435D01*
X161692557Y-103568434D01*
X161692560Y-103568434D01*
X161854251Y-103486049D01*
X162001064Y-103379383D01*
X162129383Y-103251064D01*
X162236049Y-103104251D01*
X162318434Y-102942560D01*
X162374512Y-102769971D01*
X162402900Y-102590735D01*
X162402900Y-102409265D01*
X162399853Y-102390030D01*
X162383705Y-102288073D01*
X162374512Y-102230029D01*
X162374510Y-102230024D01*
X162374509Y-102230018D01*
X162318435Y-102057442D01*
X162318433Y-102057438D01*
X162236049Y-101895749D01*
X162129386Y-101748940D01*
X162129385Y-101748939D01*
X162129383Y-101748936D01*
X162001064Y-101620617D01*
X162001061Y-101620614D01*
X162001059Y-101620613D01*
X161854250Y-101513950D01*
X161692561Y-101431566D01*
X161692557Y-101431564D01*
X161555633Y-101387075D01*
X161512565Y-101350292D01*
X161504500Y-101316697D01*
X161504500Y-95309244D01*
X161504501Y-95309235D01*
X161504501Y-95199378D01*
X161504501Y-95199377D01*
X161465755Y-95105838D01*
X161465755Y-95105837D01*
X161394163Y-95034245D01*
X161394161Y-95034244D01*
X159479318Y-93119400D01*
X159457644Y-93067074D01*
X159457900Y-93063181D01*
X159457900Y-92939714D01*
X159457899Y-92939713D01*
X159426696Y-92823260D01*
X159426694Y-92823255D01*
X159366413Y-92718846D01*
X159366412Y-92718845D01*
X159366411Y-92718843D01*
X159281157Y-92633589D01*
X159281154Y-92633587D01*
X159281153Y-92633586D01*
X159176744Y-92573305D01*
X159176739Y-92573303D01*
X159060286Y-92542100D01*
X159060284Y-92542100D01*
X158939716Y-92542100D01*
X158939714Y-92542100D01*
X158823260Y-92573303D01*
X158823255Y-92573305D01*
X158718846Y-92633586D01*
X158718843Y-92633588D01*
X158718843Y-92633589D01*
X158633589Y-92718843D01*
X158633587Y-92718845D01*
X158630160Y-92722273D01*
X158628432Y-92720545D01*
X158586291Y-92744868D01*
X158576642Y-92745500D01*
X158330719Y-92745500D01*
X158278393Y-92723826D01*
X158256719Y-92671500D01*
X158278393Y-92619174D01*
X158281154Y-92616412D01*
X158281157Y-92616411D01*
X158366411Y-92531157D01*
X158426695Y-92426743D01*
X158457899Y-92310286D01*
X158457900Y-92310286D01*
X158457900Y-92189714D01*
X158457899Y-92189713D01*
X158426696Y-92073260D01*
X158426694Y-92073255D01*
X158366413Y-91968846D01*
X158366412Y-91968845D01*
X158366411Y-91968843D01*
X158281157Y-91883589D01*
X158281154Y-91883587D01*
X158281153Y-91883586D01*
X158176744Y-91823305D01*
X158176739Y-91823303D01*
X158060286Y-91792100D01*
X158060284Y-91792100D01*
X157939716Y-91792100D01*
X157939714Y-91792100D01*
X157823260Y-91823303D01*
X157823255Y-91823305D01*
X157718846Y-91883586D01*
X157718843Y-91883588D01*
X157718843Y-91883589D01*
X157654005Y-91948426D01*
X157601681Y-91970100D01*
X155941650Y-91970100D01*
X155889324Y-91948426D01*
X155867650Y-91896100D01*
X155889324Y-91843774D01*
X155913331Y-91827733D01*
X155937157Y-91817864D01*
X156088315Y-91716864D01*
X156216864Y-91588315D01*
X156317864Y-91437157D01*
X156387434Y-91269200D01*
X156422900Y-91090898D01*
X156422900Y-90909102D01*
X156387434Y-90730800D01*
X156382482Y-90718846D01*
X156317864Y-90562843D01*
X156216864Y-90411685D01*
X156088314Y-90283135D01*
X155937156Y-90182135D01*
X155769204Y-90112567D01*
X155769193Y-90112564D01*
X155605477Y-90080000D01*
X155590898Y-90077100D01*
X155409102Y-90077100D01*
X155394523Y-90080000D01*
X155230806Y-90112564D01*
X155230795Y-90112567D01*
X155062843Y-90182135D01*
X154911685Y-90283135D01*
X154911684Y-90283137D01*
X154783137Y-90411684D01*
X154783135Y-90411685D01*
X154682135Y-90562843D01*
X154612567Y-90730795D01*
X154612564Y-90730806D01*
X154577100Y-90909102D01*
X154577100Y-91090897D01*
X154612564Y-91269193D01*
X154612567Y-91269204D01*
X154682135Y-91437156D01*
X154762505Y-91557438D01*
X154783136Y-91588315D01*
X154911685Y-91716864D01*
X155062843Y-91817864D01*
X155075979Y-91823305D01*
X155086669Y-91827733D01*
X155126717Y-91867781D01*
X155126717Y-91924419D01*
X155086669Y-91964467D01*
X155058350Y-91970100D01*
X150646591Y-91970100D01*
X150594265Y-91948426D01*
X150421862Y-91776024D01*
X150358034Y-91739173D01*
X150286852Y-91720100D01*
X150286850Y-91720100D01*
X141398319Y-91720100D01*
X141345994Y-91698426D01*
X141301573Y-91654005D01*
X141279900Y-91601681D01*
X141279900Y-90398319D01*
X141301573Y-90345994D01*
X141366411Y-90281157D01*
X141426695Y-90176743D01*
X141457899Y-90060286D01*
X141457900Y-90060286D01*
X141457900Y-89934866D01*
X141460348Y-89934866D01*
X141472928Y-89887885D01*
X141479310Y-89880606D01*
X142833744Y-88526174D01*
X142886070Y-88504500D01*
X144363930Y-88504500D01*
X144416256Y-88526174D01*
X145193337Y-89303255D01*
X145286877Y-89342001D01*
X145286878Y-89342001D01*
X145396735Y-89342001D01*
X145396743Y-89342000D01*
X149826642Y-89342000D01*
X149878968Y-89363674D01*
X149881542Y-89366609D01*
X149883587Y-89368654D01*
X149883589Y-89368657D01*
X149968843Y-89453911D01*
X150073257Y-89514195D01*
X150073258Y-89514195D01*
X150073260Y-89514196D01*
X150097463Y-89520681D01*
X150189713Y-89545399D01*
X150189714Y-89545400D01*
X150189716Y-89545400D01*
X150310286Y-89545400D01*
X150310286Y-89545399D01*
X150426743Y-89514195D01*
X150531157Y-89453911D01*
X150616411Y-89368657D01*
X150676695Y-89264243D01*
X150707899Y-89147786D01*
X150707900Y-89147786D01*
X150707900Y-89027214D01*
X150707899Y-89027213D01*
X150676696Y-88910760D01*
X150676694Y-88910755D01*
X150616413Y-88806346D01*
X150616412Y-88806345D01*
X150616411Y-88806343D01*
X150531157Y-88721089D01*
X150531154Y-88721087D01*
X150531153Y-88721086D01*
X150426744Y-88660805D01*
X150426739Y-88660803D01*
X150310286Y-88629600D01*
X150310284Y-88629600D01*
X150189716Y-88629600D01*
X150189714Y-88629600D01*
X150073260Y-88660803D01*
X150073255Y-88660805D01*
X149968846Y-88721086D01*
X149968843Y-88721088D01*
X149968843Y-88721089D01*
X149883589Y-88806343D01*
X149883587Y-88806345D01*
X149880160Y-88809773D01*
X149878432Y-88808045D01*
X149836291Y-88832368D01*
X149826642Y-88833000D01*
X145473570Y-88833000D01*
X145421244Y-88811326D01*
X144644164Y-88034246D01*
X144644160Y-88034243D01*
X144550623Y-87995500D01*
X142809243Y-87995500D01*
X142809235Y-87995499D01*
X142800623Y-87995499D01*
X142699377Y-87995499D01*
X142671980Y-88006847D01*
X142605837Y-88034244D01*
X142605835Y-88034246D01*
X141119399Y-89520681D01*
X141067073Y-89542355D01*
X141063180Y-89542100D01*
X141060284Y-89542100D01*
X140939716Y-89542100D01*
X140939714Y-89542100D01*
X140823260Y-89573303D01*
X140823255Y-89573305D01*
X140718846Y-89633586D01*
X140718843Y-89633588D01*
X140718843Y-89633589D01*
X140654005Y-89698426D01*
X140601681Y-89720100D01*
X127213148Y-89720100D01*
X127141965Y-89739173D01*
X127078137Y-89776024D01*
X125776024Y-91078137D01*
X125739173Y-91141965D01*
X125720100Y-91213147D01*
X125720100Y-99563100D01*
X125698426Y-99615426D01*
X125646100Y-99637100D01*
X125368291Y-99637100D01*
X125273944Y-99652043D01*
X125273939Y-99652044D01*
X125160230Y-99709982D01*
X125069982Y-99800230D01*
X125012044Y-99913939D01*
X125012043Y-99913944D01*
X124997100Y-100008291D01*
X124244084Y-100008291D01*
X124239004Y-100000688D01*
X124099312Y-99860996D01*
X124008368Y-99800229D01*
X123935050Y-99751240D01*
X123752539Y-99675642D01*
X123752529Y-99675639D01*
X123622776Y-99649830D01*
X123558777Y-99637100D01*
X123361223Y-99637100D01*
X123306295Y-99648025D01*
X123167470Y-99675639D01*
X123167460Y-99675642D01*
X122984949Y-99751240D01*
X122820688Y-99860995D01*
X122820687Y-99860997D01*
X122680997Y-100000687D01*
X122680995Y-100000688D01*
X122640029Y-100061999D01*
X122592936Y-100093465D01*
X122537388Y-100082416D01*
X122505922Y-100035323D01*
X122504500Y-100020887D01*
X122504500Y-94136069D01*
X122526174Y-94083743D01*
X123333743Y-93276174D01*
X123386069Y-93254500D01*
X124576642Y-93254500D01*
X124628968Y-93276174D01*
X124631542Y-93279109D01*
X124633587Y-93281154D01*
X124633589Y-93281157D01*
X124718843Y-93366411D01*
X124823257Y-93426695D01*
X124823258Y-93426695D01*
X124823260Y-93426696D01*
X124881486Y-93442297D01*
X124939713Y-93457899D01*
X124939714Y-93457900D01*
X124939716Y-93457900D01*
X125060286Y-93457900D01*
X125060286Y-93457899D01*
X125176743Y-93426695D01*
X125281157Y-93366411D01*
X125366411Y-93281157D01*
X125426695Y-93176743D01*
X125457899Y-93060286D01*
X125457900Y-93060286D01*
X125457900Y-92939714D01*
X125457899Y-92939713D01*
X125426696Y-92823260D01*
X125426694Y-92823255D01*
X125366413Y-92718846D01*
X125366412Y-92718845D01*
X125366411Y-92718843D01*
X125281157Y-92633589D01*
X125281154Y-92633587D01*
X125281153Y-92633586D01*
X125176744Y-92573305D01*
X125176739Y-92573303D01*
X125060286Y-92542100D01*
X125060284Y-92542100D01*
X124939716Y-92542100D01*
X124939714Y-92542100D01*
X124823260Y-92573303D01*
X124823255Y-92573305D01*
X124718846Y-92633586D01*
X124718843Y-92633588D01*
X124718843Y-92633589D01*
X124633589Y-92718843D01*
X124633587Y-92718845D01*
X124630160Y-92722273D01*
X124628432Y-92720545D01*
X124586291Y-92744868D01*
X124576642Y-92745500D01*
X123309243Y-92745500D01*
X123309235Y-92745499D01*
X123300623Y-92745499D01*
X123199377Y-92745499D01*
X123133235Y-92772894D01*
X123133236Y-92772895D01*
X123105838Y-92784244D01*
X123034244Y-92855838D01*
X122130826Y-93759255D01*
X122078500Y-93780929D01*
X122026174Y-93759255D01*
X122004500Y-93706929D01*
X122004500Y-92136069D01*
X122026174Y-92083743D01*
X122833743Y-91276174D01*
X122886069Y-91254500D01*
X124576642Y-91254500D01*
X124628968Y-91276174D01*
X124631542Y-91279109D01*
X124633587Y-91281154D01*
X124633589Y-91281157D01*
X124718843Y-91366411D01*
X124823257Y-91426695D01*
X124823258Y-91426695D01*
X124823260Y-91426696D01*
X124857170Y-91435782D01*
X124939713Y-91457899D01*
X124939714Y-91457900D01*
X124939716Y-91457900D01*
X125060286Y-91457900D01*
X125060286Y-91457899D01*
X125176743Y-91426695D01*
X125281157Y-91366411D01*
X125366411Y-91281157D01*
X125426695Y-91176743D01*
X125457899Y-91060286D01*
X125457900Y-91060286D01*
X125457900Y-90939714D01*
X125457899Y-90939713D01*
X125426696Y-90823260D01*
X125426694Y-90823255D01*
X125366413Y-90718846D01*
X125366412Y-90718845D01*
X125366411Y-90718843D01*
X125281157Y-90633589D01*
X125281154Y-90633587D01*
X125281153Y-90633586D01*
X125176744Y-90573305D01*
X125176739Y-90573303D01*
X125060286Y-90542100D01*
X125060284Y-90542100D01*
X124939716Y-90542100D01*
X124939714Y-90542100D01*
X124823260Y-90573303D01*
X124823255Y-90573305D01*
X124718846Y-90633586D01*
X124718843Y-90633588D01*
X124718843Y-90633589D01*
X124633589Y-90718843D01*
X124633587Y-90718845D01*
X124630160Y-90722273D01*
X124628432Y-90720545D01*
X124586291Y-90744868D01*
X124576642Y-90745500D01*
X122809243Y-90745500D01*
X122809235Y-90745499D01*
X122800623Y-90745499D01*
X122699377Y-90745499D01*
X122633235Y-90772894D01*
X122633236Y-90772895D01*
X122605838Y-90784244D01*
X122534244Y-90855838D01*
X121630826Y-91759255D01*
X121578500Y-91780929D01*
X121526174Y-91759255D01*
X121504500Y-91706929D01*
X121504500Y-90136069D01*
X121526174Y-90083743D01*
X122333743Y-89276174D01*
X122386069Y-89254500D01*
X124576642Y-89254500D01*
X124628968Y-89276174D01*
X124631542Y-89279109D01*
X124633587Y-89281154D01*
X124633589Y-89281157D01*
X124718843Y-89366411D01*
X124718845Y-89366412D01*
X124718846Y-89366413D01*
X124722726Y-89368653D01*
X124823257Y-89426695D01*
X124823258Y-89426695D01*
X124823260Y-89426696D01*
X124881486Y-89442297D01*
X124939713Y-89457899D01*
X124939714Y-89457900D01*
X124939716Y-89457900D01*
X125060286Y-89457900D01*
X125060286Y-89457899D01*
X125176743Y-89426695D01*
X125281157Y-89366411D01*
X125366411Y-89281157D01*
X125426695Y-89176743D01*
X125457899Y-89060286D01*
X125457900Y-89060286D01*
X125457900Y-88939714D01*
X125457899Y-88939713D01*
X125426696Y-88823260D01*
X125426694Y-88823255D01*
X125366413Y-88718846D01*
X125366412Y-88718845D01*
X125366411Y-88718843D01*
X125281157Y-88633589D01*
X125281154Y-88633587D01*
X125281153Y-88633586D01*
X125176744Y-88573305D01*
X125176739Y-88573303D01*
X125060286Y-88542100D01*
X125060284Y-88542100D01*
X124939716Y-88542100D01*
X124939714Y-88542100D01*
X124823260Y-88573303D01*
X124823255Y-88573305D01*
X124718846Y-88633586D01*
X124718843Y-88633588D01*
X124718843Y-88633589D01*
X124633589Y-88718843D01*
X124633587Y-88718845D01*
X124630160Y-88722273D01*
X124628432Y-88720545D01*
X124586291Y-88744868D01*
X124576642Y-88745500D01*
X122309243Y-88745500D01*
X122309235Y-88745499D01*
X122300623Y-88745499D01*
X122199377Y-88745499D01*
X122133235Y-88772894D01*
X122133236Y-88772895D01*
X122105838Y-88784244D01*
X122034244Y-88855838D01*
X121130826Y-89759255D01*
X121078500Y-89780929D01*
X121026174Y-89759255D01*
X121004500Y-89706929D01*
X121004500Y-88136069D01*
X121026174Y-88083743D01*
X121833743Y-87276174D01*
X121886069Y-87254500D01*
X124576642Y-87254500D01*
X124628968Y-87276174D01*
X124631542Y-87279109D01*
X124633587Y-87281154D01*
X124633589Y-87281157D01*
X124718843Y-87366411D01*
X124718845Y-87366412D01*
X124718846Y-87366413D01*
X124755257Y-87387435D01*
X124823257Y-87426695D01*
X124823258Y-87426695D01*
X124823260Y-87426696D01*
X124881486Y-87442297D01*
X124939713Y-87457899D01*
X124939714Y-87457900D01*
X124939716Y-87457900D01*
X125060286Y-87457900D01*
X125060286Y-87457899D01*
X125176743Y-87426695D01*
X125281157Y-87366411D01*
X125312395Y-87335173D01*
X125364720Y-87313500D01*
X152741622Y-87313500D01*
X152741623Y-87313500D01*
X152835163Y-87274755D01*
X153383754Y-86726161D01*
X153383757Y-86726160D01*
X153394162Y-86715755D01*
X153394163Y-86715755D01*
X153465755Y-86644163D01*
X153504500Y-86550623D01*
X153504500Y-86409102D01*
X154577100Y-86409102D01*
X154577100Y-86590897D01*
X154612564Y-86769193D01*
X154612566Y-86769200D01*
X154682135Y-86937156D01*
X154783135Y-87088314D01*
X154911685Y-87216864D01*
X155062843Y-87317864D01*
X155224059Y-87384642D01*
X155230800Y-87387434D01*
X155409102Y-87422900D01*
X155409103Y-87422900D01*
X155590897Y-87422900D01*
X155590898Y-87422900D01*
X155769200Y-87387434D01*
X155937157Y-87317864D01*
X156088315Y-87216864D01*
X156216864Y-87088315D01*
X156317864Y-86937157D01*
X156387434Y-86769200D01*
X156422900Y-86590898D01*
X156422900Y-86409102D01*
X156387434Y-86230800D01*
X156382482Y-86218846D01*
X156317864Y-86062843D01*
X156216864Y-85911685D01*
X156088314Y-85783135D01*
X155937156Y-85682135D01*
X155769204Y-85612567D01*
X155769193Y-85612564D01*
X155605477Y-85580000D01*
X155590898Y-85577100D01*
X155409102Y-85577100D01*
X155394523Y-85580000D01*
X155230806Y-85612564D01*
X155230795Y-85612567D01*
X155062843Y-85682135D01*
X154911685Y-85783135D01*
X154911684Y-85783137D01*
X154783137Y-85911684D01*
X154783135Y-85911685D01*
X154682135Y-86062843D01*
X154612567Y-86230795D01*
X154612564Y-86230806D01*
X154577100Y-86409102D01*
X153504500Y-86409102D01*
X153504500Y-85673358D01*
X153526174Y-85621032D01*
X153529110Y-85618457D01*
X153531154Y-85616412D01*
X153531157Y-85616411D01*
X153616411Y-85531157D01*
X153676695Y-85426743D01*
X153707899Y-85310286D01*
X153707900Y-85310286D01*
X153707900Y-85189714D01*
X153707899Y-85189713D01*
X153676696Y-85073260D01*
X153676694Y-85073255D01*
X153616413Y-84968846D01*
X153616412Y-84968845D01*
X153616411Y-84968843D01*
X153531157Y-84883589D01*
X153531154Y-84883587D01*
X153531153Y-84883586D01*
X153426744Y-84823305D01*
X153426739Y-84823303D01*
X153310286Y-84792100D01*
X153310284Y-84792100D01*
X153189716Y-84792100D01*
X153189714Y-84792100D01*
X153073260Y-84823303D01*
X153073255Y-84823305D01*
X152968846Y-84883586D01*
X152883586Y-84968846D01*
X152823305Y-85073255D01*
X152823303Y-85073260D01*
X152792100Y-85189713D01*
X152792100Y-85310286D01*
X152823303Y-85426739D01*
X152823305Y-85426744D01*
X152883586Y-85531153D01*
X152883587Y-85531154D01*
X152883589Y-85531157D01*
X152929532Y-85577100D01*
X152972273Y-85619841D01*
X152970539Y-85621574D01*
X152994864Y-85663679D01*
X152995500Y-85673358D01*
X152995500Y-86363929D01*
X152973826Y-86416255D01*
X152834226Y-86555855D01*
X152781900Y-86577529D01*
X152729574Y-86555855D01*
X152707900Y-86503529D01*
X152707900Y-86439714D01*
X152707899Y-86439713D01*
X152707125Y-86436826D01*
X152676695Y-86323257D01*
X152668427Y-86308937D01*
X152616413Y-86218846D01*
X152616412Y-86218845D01*
X152616411Y-86218843D01*
X152531157Y-86133589D01*
X152531154Y-86133587D01*
X152531153Y-86133586D01*
X152426744Y-86073305D01*
X152426739Y-86073303D01*
X152310286Y-86042100D01*
X152310284Y-86042100D01*
X152189716Y-86042100D01*
X152184866Y-86042100D01*
X152184866Y-86039660D01*
X152137861Y-86027051D01*
X152130599Y-86020681D01*
X151894164Y-85784246D01*
X151894160Y-85784243D01*
X151800623Y-85745500D01*
X121309243Y-85745500D01*
X121309235Y-85745499D01*
X121300623Y-85745499D01*
X121199377Y-85745499D01*
X121133235Y-85772894D01*
X121133236Y-85772895D01*
X121105838Y-85784244D01*
X121105837Y-85784245D01*
X121034245Y-85855837D01*
X121034244Y-85855838D01*
X120566822Y-86323260D01*
X120095429Y-86794652D01*
X120034246Y-86855835D01*
X120034243Y-86855839D01*
X119995500Y-86949375D01*
X119750000Y-86949375D01*
X119750000Y-82909264D01*
X127847100Y-82909264D01*
X127847100Y-83090735D01*
X127875487Y-83269968D01*
X127875490Y-83269981D01*
X127931564Y-83442557D01*
X127931566Y-83442561D01*
X128013950Y-83604250D01*
X128055260Y-83661109D01*
X128120617Y-83751064D01*
X128248936Y-83879383D01*
X128248939Y-83879385D01*
X128248940Y-83879386D01*
X128395749Y-83986049D01*
X128557438Y-84068433D01*
X128557442Y-84068435D01*
X128730018Y-84124509D01*
X128730024Y-84124510D01*
X128730029Y-84124512D01*
X128849519Y-84143437D01*
X128909264Y-84152900D01*
X128909265Y-84152900D01*
X129090736Y-84152900D01*
X129135544Y-84145803D01*
X129269971Y-84124512D01*
X129269978Y-84124509D01*
X129269981Y-84124509D01*
X129442557Y-84068435D01*
X129442557Y-84068434D01*
X129442560Y-84068434D01*
X129604251Y-83986049D01*
X129751064Y-83879383D01*
X129879383Y-83751064D01*
X129986049Y-83604251D01*
X130068434Y-83442560D01*
X130124512Y-83269971D01*
X130152900Y-83090735D01*
X130152900Y-82909265D01*
X130124512Y-82730029D01*
X130124510Y-82730024D01*
X130124509Y-82730018D01*
X130068435Y-82557442D01*
X130068433Y-82557438D01*
X129986049Y-82395749D01*
X129879386Y-82248940D01*
X129879385Y-82248939D01*
X129879383Y-82248936D01*
X129751064Y-82120617D01*
X129751061Y-82120614D01*
X129751059Y-82120613D01*
X129604250Y-82013950D01*
X129442561Y-81931566D01*
X129442557Y-81931564D01*
X129269981Y-81875490D01*
X129269968Y-81875487D01*
X129090736Y-81847100D01*
X129090735Y-81847100D01*
X128909265Y-81847100D01*
X128909264Y-81847100D01*
X128730031Y-81875487D01*
X128730018Y-81875490D01*
X128557442Y-81931564D01*
X128557438Y-81931566D01*
X128395749Y-82013950D01*
X128248940Y-82120613D01*
X128120613Y-82248940D01*
X128013950Y-82395749D01*
X127931566Y-82557438D01*
X127931564Y-82557442D01*
X127875490Y-82730018D01*
X127875487Y-82730031D01*
X127847100Y-82909264D01*
X119750000Y-82909264D01*
X119750000Y-79078290D01*
X156247100Y-79078290D01*
X156247100Y-80841709D01*
X156262042Y-80936056D01*
X156262043Y-80936058D01*
X156319984Y-81049771D01*
X156410230Y-81140017D01*
X156467086Y-81168986D01*
X156523944Y-81197957D01*
X156618291Y-81212900D01*
X156958096Y-81212899D01*
X157010421Y-81234573D01*
X157032095Y-81286899D01*
X157010421Y-81339225D01*
X156991691Y-81352833D01*
X156843335Y-81428425D01*
X156843334Y-81428425D01*
X156683795Y-81544338D01*
X156544338Y-81683795D01*
X156428425Y-81843334D01*
X156428422Y-81843340D01*
X156338892Y-82019051D01*
X156338890Y-82019055D01*
X156277953Y-82206601D01*
X156277950Y-82206614D01*
X156247100Y-82401393D01*
X156247100Y-82598606D01*
X156277950Y-82793385D01*
X156277953Y-82793398D01*
X156338890Y-82980944D01*
X156338892Y-82980948D01*
X156428422Y-83156659D01*
X156428425Y-83156665D01*
X156544338Y-83316204D01*
X156544342Y-83316209D01*
X156683791Y-83455658D01*
X156843337Y-83571576D01*
X157012937Y-83657992D01*
X157019051Y-83661107D01*
X157019055Y-83661109D01*
X157206601Y-83722046D01*
X157206607Y-83722047D01*
X157206612Y-83722049D01*
X157304003Y-83737474D01*
X157401393Y-83752900D01*
X157401395Y-83752900D01*
X157598607Y-83752900D01*
X157676518Y-83740559D01*
X157793388Y-83722049D01*
X157793395Y-83722046D01*
X157793398Y-83722046D01*
X157980944Y-83661109D01*
X157980944Y-83661108D01*
X157980947Y-83661108D01*
X158156663Y-83571576D01*
X158316209Y-83455658D01*
X158455658Y-83316209D01*
X158571576Y-83156663D01*
X158661108Y-82980947D01*
X158684399Y-82909264D01*
X158722046Y-82793398D01*
X158722046Y-82793395D01*
X158722049Y-82793388D01*
X158752900Y-82598605D01*
X158752900Y-82420764D01*
X159235500Y-82420764D01*
X159235500Y-82579235D01*
X159266414Y-82734657D01*
X159266417Y-82734668D01*
X159327059Y-82881071D01*
X159327060Y-82881073D01*
X159327061Y-82881074D01*
X159415104Y-83012839D01*
X159527161Y-83124896D01*
X159658926Y-83212939D01*
X159658927Y-83212939D01*
X159658928Y-83212940D01*
X159805331Y-83273582D01*
X159805336Y-83273584D01*
X159960764Y-83304500D01*
X159960765Y-83304500D01*
X160119235Y-83304500D01*
X160119236Y-83304500D01*
X160274664Y-83273584D01*
X160421074Y-83212939D01*
X160552839Y-83124896D01*
X160664896Y-83012839D01*
X160752939Y-82881074D01*
X160813584Y-82734664D01*
X160844500Y-82579236D01*
X160844500Y-82420764D01*
X160813584Y-82265336D01*
X160753642Y-82120622D01*
X160752940Y-82118928D01*
X160664898Y-81987164D01*
X160664896Y-81987161D01*
X160552839Y-81875104D01*
X160510928Y-81847100D01*
X160421071Y-81787059D01*
X160274668Y-81726417D01*
X160274657Y-81726414D01*
X160157564Y-81703123D01*
X160119236Y-81695500D01*
X159960764Y-81695500D01*
X159930017Y-81701615D01*
X159805342Y-81726414D01*
X159805331Y-81726417D01*
X159658928Y-81787059D01*
X159527164Y-81875101D01*
X159415101Y-81987164D01*
X159327059Y-82118928D01*
X159266417Y-82265331D01*
X159266414Y-82265342D01*
X159235500Y-82420764D01*
X158752900Y-82420764D01*
X158752900Y-82401395D01*
X158722049Y-82206612D01*
X158722047Y-82206607D01*
X158722046Y-82206601D01*
X158661109Y-82019055D01*
X158661107Y-82019051D01*
X158616530Y-81931564D01*
X158571576Y-81843337D01*
X158455658Y-81683791D01*
X158316209Y-81544342D01*
X158316206Y-81544339D01*
X158316204Y-81544338D01*
X158156665Y-81428425D01*
X158156659Y-81428422D01*
X158008308Y-81352833D01*
X157971525Y-81309766D01*
X157975969Y-81253304D01*
X158019036Y-81216521D01*
X158041901Y-81212899D01*
X158381708Y-81212899D01*
X158381709Y-81212899D01*
X158476056Y-81197957D01*
X158476058Y-81197956D01*
X158478184Y-81196872D01*
X158589771Y-81140016D01*
X158680016Y-81049771D01*
X158737957Y-80936056D01*
X158752900Y-80841709D01*
X158752899Y-79880764D01*
X159235500Y-79880764D01*
X159235500Y-80039235D01*
X159266414Y-80194657D01*
X159266417Y-80194668D01*
X159327059Y-80341071D01*
X159327060Y-80341073D01*
X159327061Y-80341074D01*
X159415104Y-80472839D01*
X159527161Y-80584896D01*
X159658926Y-80672939D01*
X159805336Y-80733584D01*
X159960764Y-80764500D01*
X159960765Y-80764500D01*
X160119235Y-80764500D01*
X160119236Y-80764500D01*
X160274664Y-80733584D01*
X160421074Y-80672939D01*
X160552839Y-80584896D01*
X160664896Y-80472839D01*
X160752939Y-80341074D01*
X160813584Y-80194664D01*
X160844500Y-80039236D01*
X160844500Y-79880764D01*
X160813584Y-79725336D01*
X160752939Y-79578926D01*
X160664896Y-79447161D01*
X160552839Y-79335104D01*
X160421074Y-79247061D01*
X160421073Y-79247060D01*
X160421071Y-79247059D01*
X160274668Y-79186417D01*
X160274657Y-79186414D01*
X160157564Y-79163123D01*
X160119236Y-79155500D01*
X159960764Y-79155500D01*
X159930017Y-79161615D01*
X159805342Y-79186414D01*
X159805331Y-79186417D01*
X159658928Y-79247059D01*
X159527164Y-79335101D01*
X159415101Y-79447164D01*
X159327059Y-79578928D01*
X159266417Y-79725331D01*
X159266414Y-79725342D01*
X159235500Y-79880764D01*
X158752899Y-79880764D01*
X158752899Y-79078292D01*
X158737957Y-78983944D01*
X158737957Y-78983943D01*
X158737956Y-78983941D01*
X158707902Y-78924958D01*
X158680016Y-78870229D01*
X158589771Y-78779984D01*
X158589769Y-78779982D01*
X158476056Y-78722043D01*
X158476055Y-78722042D01*
X158381709Y-78707100D01*
X156618290Y-78707100D01*
X156523943Y-78722042D01*
X156523941Y-78722043D01*
X156410228Y-78779984D01*
X156319982Y-78870230D01*
X156262043Y-78983943D01*
X156262042Y-78983944D01*
X156247100Y-79078290D01*
X119750000Y-79078290D01*
X119750000Y-76781643D01*
X137774421Y-76781643D01*
X137845601Y-76822738D01*
X137845610Y-76822742D01*
X137947336Y-76849999D01*
X137947337Y-76850000D01*
X138052660Y-76850000D01*
X138154396Y-76822739D01*
X138225576Y-76781642D01*
X138000000Y-76556066D01*
X137774421Y-76781643D01*
X119750000Y-76781643D01*
X119750000Y-76397336D01*
X137600000Y-76397336D01*
X137600000Y-76502663D01*
X137627257Y-76604389D01*
X137627260Y-76604395D01*
X137668355Y-76675575D01*
X137893933Y-76449999D01*
X137874043Y-76430109D01*
X137900000Y-76430109D01*
X137900000Y-76469891D01*
X137915224Y-76506645D01*
X137943355Y-76534776D01*
X137980109Y-76550000D01*
X138019891Y-76550000D01*
X138056645Y-76534776D01*
X138084776Y-76506645D01*
X138100000Y-76469891D01*
X138100000Y-76449999D01*
X138106066Y-76449999D01*
X138106066Y-76450000D01*
X138331642Y-76675576D01*
X138372739Y-76604396D01*
X138400000Y-76502659D01*
X138400000Y-76397337D01*
X138399999Y-76397336D01*
X138372742Y-76295610D01*
X138372738Y-76295601D01*
X138331643Y-76224421D01*
X138106066Y-76449999D01*
X138100000Y-76449999D01*
X138100000Y-76430109D01*
X138084776Y-76393355D01*
X138056645Y-76365224D01*
X138019891Y-76350000D01*
X137980109Y-76350000D01*
X137943355Y-76365224D01*
X137915224Y-76393355D01*
X137900000Y-76430109D01*
X137874043Y-76430109D01*
X137668355Y-76224422D01*
X137627261Y-76295601D01*
X137627257Y-76295610D01*
X137600000Y-76397336D01*
X119750000Y-76397336D01*
X119750000Y-76118355D01*
X137774422Y-76118355D01*
X137999999Y-76343933D01*
X138225576Y-76118355D01*
X138154395Y-76077260D01*
X138154389Y-76077257D01*
X138052663Y-76050000D01*
X137947337Y-76050000D01*
X137845610Y-76077257D01*
X137845601Y-76077261D01*
X137774422Y-76118355D01*
X119750000Y-76118355D01*
X119750000Y-75831643D01*
X137199421Y-75831643D01*
X137270601Y-75872738D01*
X137270610Y-75872742D01*
X137372336Y-75899999D01*
X137372337Y-75900000D01*
X137477660Y-75900000D01*
X137579396Y-75872739D01*
X137650574Y-75831643D01*
X138349421Y-75831643D01*
X138420601Y-75872738D01*
X138420610Y-75872742D01*
X138522336Y-75899999D01*
X138522337Y-75900000D01*
X138627660Y-75900000D01*
X138729396Y-75872739D01*
X138800576Y-75831642D01*
X138575000Y-75606066D01*
X138349421Y-75831643D01*
X137650574Y-75831643D01*
X137650576Y-75831642D01*
X137425000Y-75606066D01*
X137199421Y-75831643D01*
X119750000Y-75831643D01*
X119750000Y-75447336D01*
X137025000Y-75447336D01*
X137025000Y-75552663D01*
X137052257Y-75654389D01*
X137052260Y-75654395D01*
X137093355Y-75725575D01*
X137318933Y-75499999D01*
X137299043Y-75480109D01*
X137325000Y-75480109D01*
X137325000Y-75519891D01*
X137340224Y-75556645D01*
X137368355Y-75584776D01*
X137405109Y-75600000D01*
X137444891Y-75600000D01*
X137481645Y-75584776D01*
X137509776Y-75556645D01*
X137525000Y-75519891D01*
X137525000Y-75499999D01*
X137531066Y-75499999D01*
X137531066Y-75500000D01*
X137756642Y-75725576D01*
X137797739Y-75654396D01*
X137825000Y-75552659D01*
X137825000Y-75447337D01*
X137824999Y-75447336D01*
X138175000Y-75447336D01*
X138175000Y-75552663D01*
X138202257Y-75654389D01*
X138202260Y-75654395D01*
X138243355Y-75725575D01*
X138468933Y-75499999D01*
X138449043Y-75480109D01*
X138475000Y-75480109D01*
X138475000Y-75519891D01*
X138490224Y-75556645D01*
X138518355Y-75584776D01*
X138555109Y-75600000D01*
X138594891Y-75600000D01*
X138631645Y-75584776D01*
X138659776Y-75556645D01*
X138675000Y-75519891D01*
X138675000Y-75499999D01*
X138681066Y-75499999D01*
X138681066Y-75500000D01*
X138906642Y-75725576D01*
X138947739Y-75654396D01*
X138975000Y-75552659D01*
X138975000Y-75447337D01*
X138974999Y-75447336D01*
X138947742Y-75345610D01*
X138947738Y-75345601D01*
X138906643Y-75274421D01*
X138681066Y-75499999D01*
X138675000Y-75499999D01*
X138675000Y-75480109D01*
X138659776Y-75443355D01*
X138631645Y-75415224D01*
X138594891Y-75400000D01*
X138555109Y-75400000D01*
X138518355Y-75415224D01*
X138490224Y-75443355D01*
X138475000Y-75480109D01*
X138449043Y-75480109D01*
X138243355Y-75274422D01*
X138202261Y-75345601D01*
X138202257Y-75345610D01*
X138175000Y-75447336D01*
X137824999Y-75447336D01*
X137797742Y-75345610D01*
X137797738Y-75345601D01*
X137756643Y-75274421D01*
X137531066Y-75499999D01*
X137525000Y-75499999D01*
X137525000Y-75480109D01*
X137509776Y-75443355D01*
X137481645Y-75415224D01*
X137444891Y-75400000D01*
X137405109Y-75400000D01*
X137368355Y-75415224D01*
X137340224Y-75443355D01*
X137325000Y-75480109D01*
X137299043Y-75480109D01*
X137093355Y-75274422D01*
X137052261Y-75345601D01*
X137052257Y-75345610D01*
X137025000Y-75447336D01*
X119750000Y-75447336D01*
X119750000Y-75168355D01*
X137199422Y-75168355D01*
X137424999Y-75393933D01*
X137650576Y-75168355D01*
X138349422Y-75168355D01*
X138574999Y-75393933D01*
X138800576Y-75168355D01*
X138729395Y-75127260D01*
X138729389Y-75127257D01*
X138627663Y-75100000D01*
X138522337Y-75100000D01*
X138420610Y-75127257D01*
X138420601Y-75127261D01*
X138349422Y-75168355D01*
X137650576Y-75168355D01*
X137579395Y-75127260D01*
X137579389Y-75127257D01*
X137477663Y-75100000D01*
X137372337Y-75100000D01*
X137270610Y-75127257D01*
X137270601Y-75127261D01*
X137199422Y-75168355D01*
X119750000Y-75168355D01*
X119750000Y-74881643D01*
X137774421Y-74881643D01*
X137845601Y-74922738D01*
X137845610Y-74922742D01*
X137947336Y-74949999D01*
X137947337Y-74950000D01*
X138052660Y-74950000D01*
X138154396Y-74922739D01*
X138225576Y-74881642D01*
X138000000Y-74656066D01*
X137774421Y-74881643D01*
X119750000Y-74881643D01*
X119750000Y-74497336D01*
X137600000Y-74497336D01*
X137600000Y-74602663D01*
X137627257Y-74704389D01*
X137627260Y-74704395D01*
X137668355Y-74775575D01*
X137893933Y-74549999D01*
X137874043Y-74530109D01*
X137900000Y-74530109D01*
X137900000Y-74569891D01*
X137915224Y-74606645D01*
X137943355Y-74634776D01*
X137980109Y-74650000D01*
X138019891Y-74650000D01*
X138056645Y-74634776D01*
X138084776Y-74606645D01*
X138100000Y-74569891D01*
X138100000Y-74549999D01*
X138106066Y-74549999D01*
X138106066Y-74550000D01*
X138331642Y-74775576D01*
X138372739Y-74704396D01*
X138400000Y-74602659D01*
X138400000Y-74497337D01*
X138399999Y-74497336D01*
X138372742Y-74395610D01*
X138372738Y-74395601D01*
X138331643Y-74324421D01*
X138106066Y-74549999D01*
X138100000Y-74549999D01*
X138100000Y-74530109D01*
X138084776Y-74493355D01*
X138056645Y-74465224D01*
X138019891Y-74450000D01*
X137980109Y-74450000D01*
X137943355Y-74465224D01*
X137915224Y-74493355D01*
X137900000Y-74530109D01*
X137874043Y-74530109D01*
X137668355Y-74324422D01*
X137627261Y-74395601D01*
X137627257Y-74395610D01*
X137600000Y-74497336D01*
X119750000Y-74497336D01*
X119750000Y-74218355D01*
X137774422Y-74218355D01*
X137999999Y-74443933D01*
X138225576Y-74218355D01*
X138154395Y-74177260D01*
X138154389Y-74177257D01*
X138052663Y-74150000D01*
X137947337Y-74150000D01*
X137845610Y-74177257D01*
X137845601Y-74177261D01*
X137774422Y-74218355D01*
X119750000Y-74218355D01*
X119750000Y-73439713D01*
X135542100Y-73439713D01*
X135542100Y-73560286D01*
X135573303Y-73676739D01*
X135573305Y-73676744D01*
X135633586Y-73781153D01*
X135633587Y-73781154D01*
X135633589Y-73781157D01*
X135718843Y-73866411D01*
X135718845Y-73866412D01*
X135718846Y-73866413D01*
X135823255Y-73926694D01*
X135823257Y-73926695D01*
X135823258Y-73926695D01*
X135823260Y-73926696D01*
X135881486Y-73942297D01*
X135939713Y-73957899D01*
X135939714Y-73957900D01*
X135939716Y-73957900D01*
X136060286Y-73957900D01*
X136060286Y-73957899D01*
X136176743Y-73926695D01*
X136281157Y-73866411D01*
X136366411Y-73781157D01*
X136366412Y-73781154D01*
X136369840Y-73777727D01*
X136371567Y-73779454D01*
X136413709Y-73755132D01*
X136423358Y-73754500D01*
X142363930Y-73754500D01*
X142416256Y-73776174D01*
X142723826Y-74083744D01*
X142745500Y-74136070D01*
X142745500Y-77326642D01*
X142723826Y-77378968D01*
X142720890Y-77381542D01*
X142633586Y-77468846D01*
X142573305Y-77573255D01*
X142573303Y-77573260D01*
X142542100Y-77689713D01*
X142542100Y-77810286D01*
X142573303Y-77926739D01*
X142573305Y-77926744D01*
X142633586Y-78031153D01*
X142633587Y-78031154D01*
X142633589Y-78031157D01*
X142718843Y-78116411D01*
X142823257Y-78176695D01*
X142823258Y-78176695D01*
X142823260Y-78176696D01*
X142881486Y-78192297D01*
X142939713Y-78207899D01*
X142939714Y-78207900D01*
X142939716Y-78207900D01*
X143060286Y-78207900D01*
X143060286Y-78207899D01*
X143176743Y-78176695D01*
X143281157Y-78116411D01*
X143366411Y-78031157D01*
X143426695Y-77926743D01*
X143457899Y-77810286D01*
X143457900Y-77810286D01*
X143457900Y-77689714D01*
X143457899Y-77689713D01*
X143426696Y-77573260D01*
X143426694Y-77573255D01*
X143366413Y-77468846D01*
X143366412Y-77468845D01*
X143366411Y-77468843D01*
X143281157Y-77383589D01*
X143281154Y-77383587D01*
X143277727Y-77380160D01*
X143279454Y-77378432D01*
X143255132Y-77336291D01*
X143254500Y-77326642D01*
X143254500Y-74059243D01*
X143254501Y-74059234D01*
X143254501Y-73949377D01*
X143247123Y-73931566D01*
X143215755Y-73855837D01*
X142644163Y-73284245D01*
X142644160Y-73284243D01*
X142550623Y-73245500D01*
X136423358Y-73245500D01*
X136371032Y-73223826D01*
X136368457Y-73220890D01*
X136366412Y-73218845D01*
X136366411Y-73218843D01*
X136281157Y-73133589D01*
X136281154Y-73133587D01*
X136281153Y-73133586D01*
X136176744Y-73073305D01*
X136176739Y-73073303D01*
X136060286Y-73042100D01*
X136060284Y-73042100D01*
X135939716Y-73042100D01*
X135939714Y-73042100D01*
X135823260Y-73073303D01*
X135823255Y-73073305D01*
X135718846Y-73133586D01*
X135633586Y-73218846D01*
X135573305Y-73323255D01*
X135573303Y-73323260D01*
X135542100Y-73439713D01*
X119750000Y-73439713D01*
X119750000Y-66909264D01*
X127847100Y-66909264D01*
X127847100Y-67090735D01*
X127875487Y-67269968D01*
X127875490Y-67269981D01*
X127931564Y-67442557D01*
X127931566Y-67442561D01*
X128013950Y-67604250D01*
X128104817Y-67729318D01*
X128120617Y-67751064D01*
X128248936Y-67879383D01*
X128248939Y-67879385D01*
X128248940Y-67879386D01*
X128395749Y-67986049D01*
X128557438Y-68068433D01*
X128557442Y-68068435D01*
X128730018Y-68124509D01*
X128730024Y-68124510D01*
X128730029Y-68124512D01*
X128802998Y-68136069D01*
X128909264Y-68152900D01*
X128909265Y-68152900D01*
X129090736Y-68152900D01*
X129135544Y-68145803D01*
X129269971Y-68124512D01*
X129269978Y-68124509D01*
X129269981Y-68124509D01*
X129442557Y-68068435D01*
X129442557Y-68068434D01*
X129442560Y-68068434D01*
X129604251Y-67986049D01*
X129751064Y-67879383D01*
X129879383Y-67751064D01*
X129986049Y-67604251D01*
X130068434Y-67442560D01*
X130111413Y-67310286D01*
X130124509Y-67269981D01*
X130124509Y-67269978D01*
X130124512Y-67269971D01*
X130152900Y-67090735D01*
X130152900Y-66909265D01*
X130124512Y-66730029D01*
X130124510Y-66730024D01*
X130124509Y-66730018D01*
X130068435Y-66557442D01*
X130068433Y-66557438D01*
X129986049Y-66395749D01*
X129879386Y-66248940D01*
X129879385Y-66248939D01*
X129879383Y-66248936D01*
X129820160Y-66189713D01*
X146792100Y-66189713D01*
X146792100Y-66310286D01*
X146823303Y-66426739D01*
X146823305Y-66426744D01*
X146883586Y-66531153D01*
X146883587Y-66531154D01*
X146883589Y-66531157D01*
X146968843Y-66616411D01*
X147073257Y-66676695D01*
X147073258Y-66676695D01*
X147073260Y-66676696D01*
X147131486Y-66692297D01*
X147189713Y-66707899D01*
X147189714Y-66707900D01*
X147189716Y-66707900D01*
X147310286Y-66707900D01*
X147310286Y-66707899D01*
X147426743Y-66676695D01*
X147531157Y-66616411D01*
X147616411Y-66531157D01*
X147676695Y-66426743D01*
X147707899Y-66310286D01*
X147707900Y-66310286D01*
X147707900Y-66218589D01*
X147729574Y-66166263D01*
X147994264Y-65901574D01*
X148046590Y-65879900D01*
X150851681Y-65879900D01*
X150904005Y-65901573D01*
X150948426Y-65945994D01*
X150970100Y-65998319D01*
X150970100Y-70001681D01*
X150948426Y-70054005D01*
X150883589Y-70118843D01*
X150883586Y-70118846D01*
X150823305Y-70223255D01*
X150823303Y-70223260D01*
X150792100Y-70339713D01*
X150792100Y-70460286D01*
X150823303Y-70576739D01*
X150823305Y-70576744D01*
X150883586Y-70681153D01*
X150883587Y-70681154D01*
X150883589Y-70681157D01*
X150968843Y-70766411D01*
X151073257Y-70826695D01*
X151073258Y-70826695D01*
X151073260Y-70826696D01*
X151131486Y-70842297D01*
X151189713Y-70857899D01*
X151189714Y-70857900D01*
X151189716Y-70857900D01*
X151310286Y-70857900D01*
X151310286Y-70857899D01*
X151426743Y-70826695D01*
X151531157Y-70766411D01*
X151616411Y-70681157D01*
X151676695Y-70576743D01*
X151707899Y-70460286D01*
X151707900Y-70460286D01*
X151707900Y-70339714D01*
X151707899Y-70339713D01*
X151676696Y-70223260D01*
X151676694Y-70223255D01*
X151616413Y-70118846D01*
X151616412Y-70118845D01*
X151616411Y-70118843D01*
X151551573Y-70054005D01*
X151529900Y-70001681D01*
X151529900Y-65998319D01*
X151551573Y-65945994D01*
X151616411Y-65881157D01*
X151676695Y-65776743D01*
X151707899Y-65660286D01*
X151707900Y-65660286D01*
X151707900Y-65539714D01*
X151707899Y-65539713D01*
X151700440Y-65511877D01*
X151676695Y-65423257D01*
X151665888Y-65404539D01*
X151616413Y-65318846D01*
X151616412Y-65318845D01*
X151616411Y-65318843D01*
X151531157Y-65233589D01*
X151531154Y-65233587D01*
X151531153Y-65233586D01*
X151426744Y-65173305D01*
X151426739Y-65173303D01*
X151310286Y-65142100D01*
X151310284Y-65142100D01*
X151189716Y-65142100D01*
X151189714Y-65142100D01*
X151073260Y-65173303D01*
X151073255Y-65173305D01*
X150968846Y-65233586D01*
X150968843Y-65233588D01*
X150968843Y-65233589D01*
X150904005Y-65298426D01*
X150851681Y-65320100D01*
X147863148Y-65320100D01*
X147791965Y-65339173D01*
X147728137Y-65376024D01*
X147333735Y-65770426D01*
X147281409Y-65792100D01*
X147189714Y-65792100D01*
X147073260Y-65823303D01*
X147073255Y-65823305D01*
X146968846Y-65883586D01*
X146883586Y-65968846D01*
X146823305Y-66073255D01*
X146823303Y-66073260D01*
X146792100Y-66189713D01*
X129820160Y-66189713D01*
X129751064Y-66120617D01*
X129751061Y-66120614D01*
X129751059Y-66120613D01*
X129604250Y-66013950D01*
X129442561Y-65931566D01*
X129442557Y-65931564D01*
X129269981Y-65875490D01*
X129269968Y-65875487D01*
X129090736Y-65847100D01*
X129090735Y-65847100D01*
X128909265Y-65847100D01*
X128909264Y-65847100D01*
X128730031Y-65875487D01*
X128730018Y-65875490D01*
X128557442Y-65931564D01*
X128557438Y-65931566D01*
X128395749Y-66013950D01*
X128248940Y-66120613D01*
X128120613Y-66248940D01*
X128013950Y-66395749D01*
X127931566Y-66557438D01*
X127931564Y-66557442D01*
X127875490Y-66730018D01*
X127875487Y-66730031D01*
X127847100Y-66909264D01*
X119750000Y-66909264D01*
X119750000Y-57689713D01*
X135042100Y-57689713D01*
X135042100Y-57810286D01*
X135073303Y-57926739D01*
X135073305Y-57926744D01*
X135133586Y-58031153D01*
X135133587Y-58031154D01*
X135133589Y-58031157D01*
X135218843Y-58116411D01*
X135222273Y-58119841D01*
X135220539Y-58121574D01*
X135244864Y-58163679D01*
X135245500Y-58173358D01*
X135245500Y-61050624D01*
X135284243Y-61144160D01*
X135284245Y-61144163D01*
X135743337Y-61603255D01*
X135836877Y-61642001D01*
X135836878Y-61642001D01*
X135946735Y-61642001D01*
X135946743Y-61642000D01*
X137326642Y-61642000D01*
X137378968Y-61663674D01*
X137381542Y-61666609D01*
X137383587Y-61668654D01*
X137383589Y-61668657D01*
X137468843Y-61753911D01*
X137468845Y-61753912D01*
X137468846Y-61753913D01*
X137474160Y-61756981D01*
X137573257Y-61814195D01*
X137573258Y-61814195D01*
X137573260Y-61814196D01*
X137631486Y-61829797D01*
X137689713Y-61845399D01*
X137689714Y-61845400D01*
X137689716Y-61845400D01*
X137810286Y-61845400D01*
X137810286Y-61845399D01*
X137926743Y-61814195D01*
X138025840Y-61756981D01*
X147840500Y-61756981D01*
X147840500Y-62023018D01*
X147875224Y-62286785D01*
X147944080Y-62543759D01*
X148045889Y-62789547D01*
X148045890Y-62789550D01*
X148178908Y-63019945D01*
X148178912Y-63019951D01*
X148340867Y-63231014D01*
X148528986Y-63419133D01*
X148740051Y-63581089D01*
X148970449Y-63714109D01*
X149216239Y-63815919D01*
X149473215Y-63884775D01*
X149473213Y-63884775D01*
X149605097Y-63902137D01*
X149736980Y-63919500D01*
X149736982Y-63919500D01*
X150003018Y-63919500D01*
X150003020Y-63919500D01*
X150266785Y-63884775D01*
X150523761Y-63815919D01*
X150769551Y-63714109D01*
X150999949Y-63581089D01*
X151211014Y-63419133D01*
X151399133Y-63231014D01*
X151561089Y-63019949D01*
X151694109Y-62789551D01*
X151795919Y-62543761D01*
X151864775Y-62286785D01*
X151899500Y-62023020D01*
X151899500Y-61756980D01*
X151864775Y-61493215D01*
X151852602Y-61447786D01*
X151804957Y-61269971D01*
X151795919Y-61236239D01*
X151694109Y-60990449D01*
X151647237Y-60909264D01*
X154347100Y-60909264D01*
X154347100Y-61090735D01*
X154375487Y-61269968D01*
X154375490Y-61269981D01*
X154431564Y-61442557D01*
X154431566Y-61442561D01*
X154513950Y-61604250D01*
X154560744Y-61668657D01*
X154620617Y-61751064D01*
X154748936Y-61879383D01*
X154748939Y-61879385D01*
X154748940Y-61879386D01*
X154895749Y-61986049D01*
X155057438Y-62068433D01*
X155057442Y-62068435D01*
X155194367Y-62112925D01*
X155207666Y-62124283D01*
X155223826Y-62130977D01*
X155228381Y-62141976D01*
X155237435Y-62149708D01*
X155245500Y-62183303D01*
X155245500Y-62238930D01*
X155223826Y-62291256D01*
X154784243Y-62730839D01*
X154745500Y-62824375D01*
X154745500Y-65550624D01*
X154784243Y-65644160D01*
X154784245Y-65644163D01*
X155337756Y-66197674D01*
X155359430Y-66249999D01*
X155337756Y-66302325D01*
X154855837Y-66784245D01*
X154784243Y-66855839D01*
X154745500Y-66949375D01*
X154745500Y-73050624D01*
X154784243Y-73144160D01*
X154784246Y-73144164D01*
X155223826Y-73583744D01*
X155245500Y-73636070D01*
X155245500Y-73816697D01*
X155223826Y-73869023D01*
X155194367Y-73887075D01*
X155057442Y-73931564D01*
X155057438Y-73931566D01*
X154895749Y-74013950D01*
X154748940Y-74120613D01*
X154620613Y-74248940D01*
X154513950Y-74395749D01*
X154431566Y-74557438D01*
X154431564Y-74557442D01*
X154375490Y-74730018D01*
X154375487Y-74730031D01*
X154347100Y-74909264D01*
X154347100Y-75090735D01*
X154375487Y-75269968D01*
X154375490Y-75269981D01*
X154431564Y-75442557D01*
X154431566Y-75442561D01*
X154513950Y-75604250D01*
X154550383Y-75654396D01*
X154620617Y-75751064D01*
X154748936Y-75879383D01*
X154748939Y-75879385D01*
X154748940Y-75879386D01*
X154895749Y-75986049D01*
X155057438Y-76068433D01*
X155057442Y-76068435D01*
X155230018Y-76124509D01*
X155230024Y-76124510D01*
X155230029Y-76124512D01*
X155349519Y-76143437D01*
X155409264Y-76152900D01*
X155409265Y-76152900D01*
X155590736Y-76152900D01*
X155635544Y-76145803D01*
X155769971Y-76124512D01*
X155769978Y-76124509D01*
X155769981Y-76124509D01*
X155942557Y-76068435D01*
X155942557Y-76068434D01*
X155942560Y-76068434D01*
X156104251Y-75986049D01*
X156251064Y-75879383D01*
X156379383Y-75751064D01*
X156486049Y-75604251D01*
X156568434Y-75442560D01*
X156624512Y-75269971D01*
X156652900Y-75090735D01*
X156652900Y-74909265D01*
X156652900Y-74909264D01*
X157847100Y-74909264D01*
X157847100Y-75090735D01*
X157875487Y-75269968D01*
X157875490Y-75269981D01*
X157931564Y-75442557D01*
X157931566Y-75442561D01*
X158013950Y-75604250D01*
X158050383Y-75654396D01*
X158120617Y-75751064D01*
X158248936Y-75879383D01*
X158248939Y-75879385D01*
X158248940Y-75879386D01*
X158395749Y-75986049D01*
X158557438Y-76068433D01*
X158557442Y-76068435D01*
X158730018Y-76124509D01*
X158730024Y-76124510D01*
X158730029Y-76124512D01*
X158849519Y-76143437D01*
X158909264Y-76152900D01*
X158909265Y-76152900D01*
X159090736Y-76152900D01*
X159135544Y-76145803D01*
X159269971Y-76124512D01*
X159269978Y-76124509D01*
X159269981Y-76124509D01*
X159442557Y-76068435D01*
X159442557Y-76068434D01*
X159442560Y-76068434D01*
X159604251Y-75986049D01*
X159751064Y-75879383D01*
X159879383Y-75751064D01*
X159986049Y-75604251D01*
X160068434Y-75442560D01*
X160124512Y-75269971D01*
X160152900Y-75090735D01*
X160152900Y-74909265D01*
X160124512Y-74730029D01*
X160124510Y-74730024D01*
X160124509Y-74730018D01*
X160068435Y-74557442D01*
X160068433Y-74557438D01*
X159986049Y-74395749D01*
X159879386Y-74248940D01*
X159879385Y-74248939D01*
X159879383Y-74248936D01*
X159751064Y-74120617D01*
X159751061Y-74120614D01*
X159751059Y-74120613D01*
X159604250Y-74013950D01*
X159442561Y-73931566D01*
X159442557Y-73931564D01*
X159269981Y-73875490D01*
X159269968Y-73875487D01*
X159090736Y-73847100D01*
X159090735Y-73847100D01*
X158909265Y-73847100D01*
X158909264Y-73847100D01*
X158730031Y-73875487D01*
X158730018Y-73875490D01*
X158557442Y-73931564D01*
X158557438Y-73931566D01*
X158395749Y-74013950D01*
X158248940Y-74120613D01*
X158120613Y-74248940D01*
X158013950Y-74395749D01*
X157931566Y-74557438D01*
X157931564Y-74557442D01*
X157875490Y-74730018D01*
X157875487Y-74730031D01*
X157847100Y-74909264D01*
X156652900Y-74909264D01*
X156624512Y-74730029D01*
X156624510Y-74730024D01*
X156624509Y-74730018D01*
X156568435Y-74557442D01*
X156568433Y-74557438D01*
X156486049Y-74395749D01*
X156379386Y-74248940D01*
X156379385Y-74248939D01*
X156379383Y-74248936D01*
X156251064Y-74120617D01*
X156251061Y-74120614D01*
X156251059Y-74120613D01*
X156104250Y-74013950D01*
X155942561Y-73931566D01*
X155942557Y-73931564D01*
X155805633Y-73887075D01*
X155762565Y-73850292D01*
X155754500Y-73816697D01*
X155754500Y-73559243D01*
X155754501Y-73559234D01*
X155754501Y-73449377D01*
X155715755Y-73355838D01*
X155715755Y-73355837D01*
X155276174Y-72916256D01*
X155254500Y-72863930D01*
X155254500Y-72244999D01*
X156602184Y-72244999D01*
X156602184Y-72245000D01*
X156959513Y-72245000D01*
X156950000Y-72280504D01*
X156950000Y-72359496D01*
X156959513Y-72395000D01*
X156602184Y-72395000D01*
X156624977Y-72509592D01*
X156624979Y-72509598D01*
X156673978Y-72627890D01*
X156745111Y-72734350D01*
X156835649Y-72824888D01*
X156942109Y-72896021D01*
X157060401Y-72945020D01*
X157060408Y-72945022D01*
X157185982Y-72970000D01*
X157575000Y-72970000D01*
X157575000Y-72620000D01*
X157725000Y-72620000D01*
X157725000Y-72970000D01*
X158114018Y-72970000D01*
X158239591Y-72945022D01*
X158239598Y-72945020D01*
X158357890Y-72896021D01*
X158464350Y-72824888D01*
X158464352Y-72824887D01*
X158554887Y-72734352D01*
X158554888Y-72734350D01*
X158626021Y-72627890D01*
X158675020Y-72509598D01*
X158675022Y-72509592D01*
X158697815Y-72395000D01*
X158340487Y-72395000D01*
X158350000Y-72359496D01*
X158350000Y-72280504D01*
X158340487Y-72245000D01*
X158697816Y-72245000D01*
X158697815Y-72244999D01*
X160402184Y-72244999D01*
X160402184Y-72245000D01*
X160759513Y-72245000D01*
X160750000Y-72280504D01*
X160750000Y-72359496D01*
X160759513Y-72395000D01*
X160402184Y-72395000D01*
X160424977Y-72509592D01*
X160424979Y-72509598D01*
X160473978Y-72627890D01*
X160545111Y-72734350D01*
X160635649Y-72824888D01*
X160742109Y-72896021D01*
X160860401Y-72945020D01*
X160860408Y-72945022D01*
X160985982Y-72970000D01*
X161575000Y-72970000D01*
X161575000Y-72620000D01*
X161725000Y-72620000D01*
X161725000Y-72970000D01*
X162314018Y-72970000D01*
X162439591Y-72945022D01*
X162439598Y-72945020D01*
X162557890Y-72896021D01*
X162664350Y-72824888D01*
X162664352Y-72824887D01*
X162754887Y-72734352D01*
X162754888Y-72734350D01*
X162826021Y-72627890D01*
X162875020Y-72509598D01*
X162875022Y-72509592D01*
X162897815Y-72395000D01*
X162540487Y-72395000D01*
X162550000Y-72359496D01*
X162550000Y-72280504D01*
X162540487Y-72245000D01*
X162897816Y-72245000D01*
X162897815Y-72244999D01*
X162875022Y-72130407D01*
X162875020Y-72130401D01*
X162826021Y-72012109D01*
X162754888Y-71905649D01*
X162664350Y-71815111D01*
X162557890Y-71743978D01*
X162439598Y-71694979D01*
X162439591Y-71694977D01*
X162314018Y-71670000D01*
X161725000Y-71670000D01*
X161725000Y-72020000D01*
X161575000Y-72020000D01*
X161575000Y-71670000D01*
X160985982Y-71670000D01*
X160860408Y-71694977D01*
X160860401Y-71694979D01*
X160742109Y-71743978D01*
X160635649Y-71815111D01*
X160635648Y-71815113D01*
X160545113Y-71905648D01*
X160545111Y-71905649D01*
X160473978Y-72012109D01*
X160424979Y-72130401D01*
X160424977Y-72130407D01*
X160402184Y-72244999D01*
X158697815Y-72244999D01*
X158675022Y-72130407D01*
X158675020Y-72130401D01*
X158626021Y-72012109D01*
X158554888Y-71905649D01*
X158464350Y-71815111D01*
X158357890Y-71743978D01*
X158239598Y-71694979D01*
X158239591Y-71694977D01*
X158114018Y-71670000D01*
X157725000Y-71670000D01*
X157725000Y-72020000D01*
X157575000Y-72020000D01*
X157575000Y-71670000D01*
X157185982Y-71670000D01*
X157060408Y-71694977D01*
X157060401Y-71694979D01*
X156942109Y-71743978D01*
X156835649Y-71815111D01*
X156835648Y-71815113D01*
X156745113Y-71905648D01*
X156745111Y-71905649D01*
X156673978Y-72012109D01*
X156624979Y-72130401D01*
X156624977Y-72130407D01*
X156602184Y-72244999D01*
X155254500Y-72244999D01*
X155254500Y-68830719D01*
X155276174Y-68778393D01*
X155328500Y-68756719D01*
X155380826Y-68778393D01*
X155383587Y-68781154D01*
X155383589Y-68781157D01*
X155468843Y-68866411D01*
X155468845Y-68866412D01*
X155468846Y-68866413D01*
X155517636Y-68894582D01*
X155573257Y-68926695D01*
X155573258Y-68926695D01*
X155573260Y-68926696D01*
X155631486Y-68942297D01*
X155689713Y-68957899D01*
X155689714Y-68957900D01*
X155815135Y-68957900D01*
X155815135Y-68960353D01*
X155862101Y-68972919D01*
X155869400Y-68979318D01*
X156530024Y-69639941D01*
X156530027Y-69639945D01*
X156534245Y-69644163D01*
X156605837Y-69715755D01*
X156633234Y-69727103D01*
X156699377Y-69754501D01*
X156699378Y-69754501D01*
X156809235Y-69754501D01*
X156809243Y-69754500D01*
X159050622Y-69754500D01*
X159050623Y-69754500D01*
X159144163Y-69715755D01*
X159715755Y-69144163D01*
X159754501Y-69050623D01*
X159754501Y-68949377D01*
X159754501Y-68943419D01*
X159754500Y-68943405D01*
X159754500Y-67949377D01*
X159754499Y-67949375D01*
X159745104Y-67926694D01*
X159715755Y-67855837D01*
X159644163Y-67784245D01*
X159639948Y-67780030D01*
X159639941Y-67780024D01*
X159229318Y-67369400D01*
X159207644Y-67317074D01*
X159207900Y-67313181D01*
X159207900Y-67189714D01*
X159207899Y-67189713D01*
X159176696Y-67073260D01*
X159176694Y-67073255D01*
X159116413Y-66968846D01*
X159116412Y-66968845D01*
X159116411Y-66968843D01*
X159031157Y-66883589D01*
X159031154Y-66883587D01*
X159028393Y-66880826D01*
X159006719Y-66828500D01*
X159028393Y-66776174D01*
X159080719Y-66754500D01*
X159863930Y-66754500D01*
X159916256Y-66776174D01*
X163046026Y-69905943D01*
X163067700Y-69958269D01*
X163067700Y-86402708D01*
X163046026Y-86455034D01*
X162993700Y-86476708D01*
X162941374Y-86455034D01*
X162921405Y-86412815D01*
X162920709Y-86412954D01*
X162920156Y-86410174D01*
X162920057Y-86409965D01*
X162920000Y-86409392D01*
X162884645Y-86231651D01*
X162884642Y-86231641D01*
X162815293Y-86064217D01*
X162714610Y-85913534D01*
X162703571Y-85902495D01*
X162401187Y-86204878D01*
X162396098Y-86196063D01*
X162303937Y-86103902D01*
X162295121Y-86098812D01*
X162597505Y-85796429D01*
X162586465Y-85785389D01*
X162435782Y-85684706D01*
X162268358Y-85615357D01*
X162268348Y-85615354D01*
X162090610Y-85580000D01*
X161909390Y-85580000D01*
X161731651Y-85615354D01*
X161731641Y-85615357D01*
X161564217Y-85684706D01*
X161413534Y-85785389D01*
X161413533Y-85785391D01*
X161402495Y-85796429D01*
X161704878Y-86098812D01*
X161696063Y-86103902D01*
X161603902Y-86196063D01*
X161598812Y-86204878D01*
X161296429Y-85902495D01*
X161285391Y-85913533D01*
X161285389Y-85913534D01*
X161184706Y-86064217D01*
X161115357Y-86231641D01*
X161115354Y-86231651D01*
X161080000Y-86409389D01*
X161080000Y-86590610D01*
X161115354Y-86768348D01*
X161115357Y-86768358D01*
X161184706Y-86935782D01*
X161285389Y-87086465D01*
X161296429Y-87097505D01*
X161598812Y-86795121D01*
X161603902Y-86803937D01*
X161696063Y-86896098D01*
X161704878Y-86901187D01*
X161402495Y-87203571D01*
X161413534Y-87214610D01*
X161564217Y-87315293D01*
X161731641Y-87384642D01*
X161731651Y-87384645D01*
X161909390Y-87420000D01*
X162090610Y-87420000D01*
X162268348Y-87384645D01*
X162268358Y-87384642D01*
X162435782Y-87315293D01*
X162586465Y-87214610D01*
X162586467Y-87214609D01*
X162597505Y-87203571D01*
X162295121Y-86901187D01*
X162303937Y-86896098D01*
X162396098Y-86803937D01*
X162401187Y-86795121D01*
X162703571Y-87097505D01*
X162714609Y-87086467D01*
X162714610Y-87086465D01*
X162815293Y-86935782D01*
X162884642Y-86768358D01*
X162884645Y-86768348D01*
X162920000Y-86590606D01*
X162920057Y-86590036D01*
X162920148Y-86589865D01*
X162920709Y-86587046D01*
X162921564Y-86587216D01*
X162946757Y-86540087D01*
X163000955Y-86523648D01*
X163050904Y-86550348D01*
X163067700Y-86597291D01*
X163067700Y-90902708D01*
X163046026Y-90955034D01*
X162993700Y-90976708D01*
X162941374Y-90955034D01*
X162921405Y-90912815D01*
X162920709Y-90912954D01*
X162920156Y-90910174D01*
X162920057Y-90909965D01*
X162920000Y-90909392D01*
X162884645Y-90731651D01*
X162884642Y-90731641D01*
X162815293Y-90564217D01*
X162714610Y-90413534D01*
X162703571Y-90402495D01*
X162401187Y-90704878D01*
X162396098Y-90696063D01*
X162303937Y-90603902D01*
X162295121Y-90598812D01*
X162597505Y-90296429D01*
X162586465Y-90285389D01*
X162435782Y-90184706D01*
X162268358Y-90115357D01*
X162268348Y-90115354D01*
X162090610Y-90080000D01*
X161909390Y-90080000D01*
X161731651Y-90115354D01*
X161731641Y-90115357D01*
X161564217Y-90184706D01*
X161413534Y-90285389D01*
X161413533Y-90285391D01*
X161402495Y-90296429D01*
X161704878Y-90598812D01*
X161696063Y-90603902D01*
X161603902Y-90696063D01*
X161598812Y-90704878D01*
X161296429Y-90402495D01*
X161285391Y-90413533D01*
X161285389Y-90413534D01*
X161184706Y-90564217D01*
X161115357Y-90731641D01*
X161115354Y-90731651D01*
X161080000Y-90909389D01*
X161080000Y-91090610D01*
X161115354Y-91268348D01*
X161115357Y-91268358D01*
X161184706Y-91435782D01*
X161285389Y-91586465D01*
X161296429Y-91597505D01*
X161598812Y-91295121D01*
X161603902Y-91303937D01*
X161696063Y-91396098D01*
X161704878Y-91401187D01*
X161402495Y-91703571D01*
X161413534Y-91714610D01*
X161564217Y-91815293D01*
X161731641Y-91884642D01*
X161731651Y-91884645D01*
X161909390Y-91920000D01*
X162090610Y-91920000D01*
X162268348Y-91884645D01*
X162268358Y-91884642D01*
X162435782Y-91815293D01*
X162586465Y-91714610D01*
X162586467Y-91714609D01*
X162597505Y-91703571D01*
X162295121Y-91401187D01*
X162303937Y-91396098D01*
X162396098Y-91303937D01*
X162401187Y-91295121D01*
X162703571Y-91597505D01*
X162714609Y-91586467D01*
X162714610Y-91586465D01*
X162815293Y-91435782D01*
X162884642Y-91268358D01*
X162884645Y-91268348D01*
X162920000Y-91090606D01*
X162920057Y-91090036D01*
X162920148Y-91089865D01*
X162920709Y-91087046D01*
X162921564Y-91087216D01*
X162946757Y-91040087D01*
X163000955Y-91023648D01*
X163050904Y-91050348D01*
X163067700Y-91097291D01*
X163067700Y-96041729D01*
X163046026Y-96094055D01*
X162369399Y-96770681D01*
X162317073Y-96792355D01*
X162313180Y-96792100D01*
X162310284Y-96792100D01*
X162189716Y-96792100D01*
X162189714Y-96792100D01*
X162073260Y-96823303D01*
X162073255Y-96823305D01*
X161968846Y-96883586D01*
X161883586Y-96968846D01*
X161823305Y-97073255D01*
X161823303Y-97073260D01*
X161792100Y-97189713D01*
X161792100Y-97310286D01*
X161823303Y-97426739D01*
X161823305Y-97426744D01*
X161883586Y-97531153D01*
X161883587Y-97531154D01*
X161883589Y-97531157D01*
X161968843Y-97616411D01*
X162073257Y-97676695D01*
X162073258Y-97676695D01*
X162073260Y-97676696D01*
X162080074Y-97678522D01*
X162125007Y-97713000D01*
X162132399Y-97769153D01*
X162097921Y-97814086D01*
X162080074Y-97821478D01*
X162073260Y-97823303D01*
X162073255Y-97823305D01*
X161968846Y-97883586D01*
X161883586Y-97968846D01*
X161823305Y-98073255D01*
X161823303Y-98073260D01*
X161792100Y-98189713D01*
X161792100Y-98310286D01*
X161823303Y-98426739D01*
X161823305Y-98426744D01*
X161883586Y-98531153D01*
X161883587Y-98531154D01*
X161883589Y-98531157D01*
X161968843Y-98616411D01*
X162073257Y-98676695D01*
X162073258Y-98676695D01*
X162073260Y-98676696D01*
X162131486Y-98692297D01*
X162189713Y-98707899D01*
X162189714Y-98707900D01*
X162189716Y-98707900D01*
X162310286Y-98707900D01*
X162310286Y-98707899D01*
X162426743Y-98676695D01*
X162531157Y-98616411D01*
X162616411Y-98531157D01*
X162676695Y-98426743D01*
X162707899Y-98310286D01*
X162707900Y-98310286D01*
X162707900Y-98184866D01*
X162710348Y-98184866D01*
X162722928Y-98137885D01*
X162729311Y-98130605D01*
X163811554Y-97048361D01*
X163811557Y-97048360D01*
X163821962Y-97037955D01*
X163821963Y-97037955D01*
X163893555Y-96966363D01*
X163932300Y-96872823D01*
X163932300Y-69375729D01*
X163893555Y-69282189D01*
X163821963Y-69210597D01*
X163817748Y-69206382D01*
X163817741Y-69206376D01*
X160395611Y-65784245D01*
X160395608Y-65784243D01*
X160302071Y-65745500D01*
X158942052Y-65745500D01*
X158889726Y-65723826D01*
X158868052Y-65671500D01*
X158868052Y-65511877D01*
X158847826Y-65423260D01*
X158843256Y-65403235D01*
X158794907Y-65302836D01*
X158725429Y-65215714D01*
X158638341Y-65146263D01*
X158638310Y-65146238D01*
X158638304Y-65146234D01*
X158537910Y-65097888D01*
X158537906Y-65097886D01*
X158489830Y-65086913D01*
X158429268Y-65073091D01*
X158424175Y-65073091D01*
X158298429Y-65073091D01*
X158253553Y-65073091D01*
X158197836Y-65073091D01*
X158146764Y-65084747D01*
X158089197Y-65097886D01*
X158089193Y-65097888D01*
X157988799Y-65146234D01*
X157988793Y-65146238D01*
X157901676Y-65215713D01*
X157901674Y-65215715D01*
X157832199Y-65302832D01*
X157832195Y-65302838D01*
X157783846Y-65403238D01*
X157783391Y-65404539D01*
X157783020Y-65404953D01*
X157782045Y-65406979D01*
X157781461Y-65406697D01*
X157745645Y-65446764D01*
X157689096Y-65449932D01*
X157646871Y-65412186D01*
X157643698Y-65404524D01*
X157643255Y-65403258D01*
X157643242Y-65403232D01*
X157594907Y-65302861D01*
X157525429Y-65215739D01*
X157438307Y-65146261D01*
X157438304Y-65146259D01*
X157337910Y-65097913D01*
X157337906Y-65097911D01*
X157289830Y-65086938D01*
X157229268Y-65073116D01*
X157224175Y-65073116D01*
X157098429Y-65073116D01*
X157053553Y-65073116D01*
X156997836Y-65073116D01*
X156946764Y-65084772D01*
X156889197Y-65097911D01*
X156889193Y-65097913D01*
X156788799Y-65146259D01*
X156788793Y-65146263D01*
X156701676Y-65215738D01*
X156701674Y-65215740D01*
X156632199Y-65302857D01*
X156632195Y-65302863D01*
X156583849Y-65403257D01*
X156583847Y-65403261D01*
X156568267Y-65471525D01*
X156559058Y-65511877D01*
X156559052Y-65511902D01*
X156559052Y-65671500D01*
X156537378Y-65723826D01*
X156485052Y-65745500D01*
X155636070Y-65745500D01*
X155583744Y-65723826D01*
X155276174Y-65416256D01*
X155254500Y-65363930D01*
X155254500Y-63604999D01*
X156602184Y-63604999D01*
X156602184Y-63605000D01*
X156959513Y-63605000D01*
X156950000Y-63640504D01*
X156950000Y-63719496D01*
X156959513Y-63755000D01*
X156602184Y-63755000D01*
X156624977Y-63869592D01*
X156624979Y-63869598D01*
X156673978Y-63987890D01*
X156745111Y-64094350D01*
X156835649Y-64184888D01*
X156942109Y-64256021D01*
X157060401Y-64305020D01*
X157060408Y-64305022D01*
X157185982Y-64330000D01*
X157575000Y-64330000D01*
X157575000Y-63980000D01*
X157725000Y-63980000D01*
X157725000Y-64330000D01*
X158114018Y-64330000D01*
X158239591Y-64305022D01*
X158239598Y-64305020D01*
X158357890Y-64256021D01*
X158464350Y-64184888D01*
X158464352Y-64184887D01*
X158554887Y-64094352D01*
X158554888Y-64094350D01*
X158626021Y-63987890D01*
X158675020Y-63869598D01*
X158675022Y-63869592D01*
X158697815Y-63755000D01*
X158340487Y-63755000D01*
X158350000Y-63719496D01*
X158350000Y-63640504D01*
X158340487Y-63605000D01*
X158697816Y-63605000D01*
X158697815Y-63604999D01*
X160402184Y-63604999D01*
X160402184Y-63605000D01*
X160759513Y-63605000D01*
X160750000Y-63640504D01*
X160750000Y-63719496D01*
X160759513Y-63755000D01*
X160402184Y-63755000D01*
X160424977Y-63869592D01*
X160424979Y-63869598D01*
X160473978Y-63987890D01*
X160545111Y-64094350D01*
X160635649Y-64184888D01*
X160742109Y-64256021D01*
X160860401Y-64305020D01*
X160860408Y-64305022D01*
X160985982Y-64330000D01*
X161575000Y-64330000D01*
X161575000Y-63980000D01*
X161725000Y-63980000D01*
X161725000Y-64330000D01*
X162314018Y-64330000D01*
X162439591Y-64305022D01*
X162439598Y-64305020D01*
X162557890Y-64256021D01*
X162664350Y-64184888D01*
X162664352Y-64184887D01*
X162754887Y-64094352D01*
X162754888Y-64094350D01*
X162826021Y-63987890D01*
X162875020Y-63869598D01*
X162875022Y-63869592D01*
X162897815Y-63755000D01*
X162540487Y-63755000D01*
X162550000Y-63719496D01*
X162550000Y-63640504D01*
X162540487Y-63605000D01*
X162897816Y-63605000D01*
X162897815Y-63604999D01*
X162875022Y-63490407D01*
X162875020Y-63490401D01*
X162826021Y-63372109D01*
X162754888Y-63265649D01*
X162664350Y-63175111D01*
X162557890Y-63103978D01*
X162439598Y-63054979D01*
X162439591Y-63054977D01*
X162314018Y-63030000D01*
X161725000Y-63030000D01*
X161725000Y-63380000D01*
X161575000Y-63380000D01*
X161575000Y-63030000D01*
X160985982Y-63030000D01*
X160860408Y-63054977D01*
X160860401Y-63054979D01*
X160742109Y-63103978D01*
X160635649Y-63175111D01*
X160635648Y-63175113D01*
X160545113Y-63265648D01*
X160545111Y-63265649D01*
X160473978Y-63372109D01*
X160424979Y-63490401D01*
X160424977Y-63490407D01*
X160402184Y-63604999D01*
X158697815Y-63604999D01*
X158675022Y-63490407D01*
X158675020Y-63490401D01*
X158626021Y-63372109D01*
X158554888Y-63265649D01*
X158464350Y-63175111D01*
X158357890Y-63103978D01*
X158239598Y-63054979D01*
X158239591Y-63054977D01*
X158114018Y-63030000D01*
X157725000Y-63030000D01*
X157725000Y-63380000D01*
X157575000Y-63380000D01*
X157575000Y-63030000D01*
X157185982Y-63030000D01*
X157060408Y-63054977D01*
X157060401Y-63054979D01*
X156942109Y-63103978D01*
X156835649Y-63175111D01*
X156835648Y-63175113D01*
X156745113Y-63265648D01*
X156745111Y-63265649D01*
X156673978Y-63372109D01*
X156624979Y-63490401D01*
X156624977Y-63490407D01*
X156602184Y-63604999D01*
X155254500Y-63604999D01*
X155254500Y-63011069D01*
X155276173Y-62958744D01*
X155715755Y-62519163D01*
X155754501Y-62425623D01*
X155754501Y-62324377D01*
X155754501Y-62318419D01*
X155754500Y-62318405D01*
X155754500Y-62183303D01*
X155776174Y-62130977D01*
X155805633Y-62112925D01*
X155942557Y-62068435D01*
X155942557Y-62068434D01*
X155942560Y-62068434D01*
X156104251Y-61986049D01*
X156251064Y-61879383D01*
X156379383Y-61751064D01*
X156486049Y-61604251D01*
X156568434Y-61442560D01*
X156605912Y-61327216D01*
X156624509Y-61269981D01*
X156624509Y-61269978D01*
X156624512Y-61269971D01*
X156652900Y-61090735D01*
X156652900Y-60909265D01*
X156652900Y-60909264D01*
X157847100Y-60909264D01*
X157847100Y-61090735D01*
X157875487Y-61269968D01*
X157875490Y-61269981D01*
X157931564Y-61442557D01*
X157931566Y-61442561D01*
X158013950Y-61604250D01*
X158060744Y-61668657D01*
X158120617Y-61751064D01*
X158248936Y-61879383D01*
X158248939Y-61879385D01*
X158248940Y-61879386D01*
X158395749Y-61986049D01*
X158557438Y-62068433D01*
X158557442Y-62068435D01*
X158730018Y-62124509D01*
X158730024Y-62124510D01*
X158730029Y-62124512D01*
X158840293Y-62141976D01*
X158909264Y-62152900D01*
X158909265Y-62152900D01*
X159090736Y-62152900D01*
X159135544Y-62145803D01*
X159269971Y-62124512D01*
X159269978Y-62124509D01*
X159269981Y-62124509D01*
X159442557Y-62068435D01*
X159442557Y-62068434D01*
X159442560Y-62068434D01*
X159604251Y-61986049D01*
X159751064Y-61879383D01*
X159879383Y-61751064D01*
X159986049Y-61604251D01*
X160068434Y-61442560D01*
X160105912Y-61327216D01*
X160124509Y-61269981D01*
X160124509Y-61269978D01*
X160124512Y-61269971D01*
X160152900Y-61090735D01*
X160152900Y-60909265D01*
X160150574Y-60894582D01*
X160129267Y-60760051D01*
X160124512Y-60730029D01*
X160124510Y-60730024D01*
X160124509Y-60730018D01*
X160068435Y-60557442D01*
X160068433Y-60557438D01*
X159986049Y-60395749D01*
X159879386Y-60248940D01*
X159879385Y-60248939D01*
X159879383Y-60248936D01*
X159751064Y-60120617D01*
X159751061Y-60120614D01*
X159751059Y-60120613D01*
X159604250Y-60013950D01*
X159442561Y-59931566D01*
X159442557Y-59931564D01*
X159269981Y-59875490D01*
X159269968Y-59875487D01*
X159090736Y-59847100D01*
X159090735Y-59847100D01*
X158909265Y-59847100D01*
X158909264Y-59847100D01*
X158730031Y-59875487D01*
X158730018Y-59875490D01*
X158557442Y-59931564D01*
X158557438Y-59931566D01*
X158395749Y-60013950D01*
X158248940Y-60120613D01*
X158120613Y-60248940D01*
X158013950Y-60395749D01*
X157931566Y-60557438D01*
X157931564Y-60557442D01*
X157875490Y-60730018D01*
X157875487Y-60730031D01*
X157847100Y-60909264D01*
X156652900Y-60909264D01*
X156650574Y-60894582D01*
X156629267Y-60760051D01*
X156624512Y-60730029D01*
X156624510Y-60730024D01*
X156624509Y-60730018D01*
X156568435Y-60557442D01*
X156568433Y-60557438D01*
X156486049Y-60395749D01*
X156379386Y-60248940D01*
X156379385Y-60248939D01*
X156379383Y-60248936D01*
X156251064Y-60120617D01*
X156251061Y-60120614D01*
X156251059Y-60120613D01*
X156104250Y-60013950D01*
X155942561Y-59931566D01*
X155942557Y-59931564D01*
X155769981Y-59875490D01*
X155769968Y-59875487D01*
X155590736Y-59847100D01*
X155590735Y-59847100D01*
X155409265Y-59847100D01*
X155409264Y-59847100D01*
X155230031Y-59875487D01*
X155230018Y-59875490D01*
X155057442Y-59931564D01*
X155057438Y-59931566D01*
X154895749Y-60013950D01*
X154748940Y-60120613D01*
X154620613Y-60248940D01*
X154513950Y-60395749D01*
X154431566Y-60557438D01*
X154431564Y-60557442D01*
X154375490Y-60730018D01*
X154375487Y-60730031D01*
X154347100Y-60909264D01*
X151647237Y-60909264D01*
X151561089Y-60760051D01*
X151538052Y-60730029D01*
X151469611Y-60640835D01*
X151399133Y-60548986D01*
X151211014Y-60360867D01*
X151065143Y-60248936D01*
X150999951Y-60198912D01*
X150999945Y-60198908D01*
X150769550Y-60065890D01*
X150769547Y-60065889D01*
X150523759Y-59964080D01*
X150266784Y-59895224D01*
X150266786Y-59895224D01*
X150052805Y-59867054D01*
X150003020Y-59860500D01*
X149736980Y-59860500D01*
X149687194Y-59867054D01*
X149473214Y-59895224D01*
X149216240Y-59964080D01*
X148970452Y-60065889D01*
X148970449Y-60065890D01*
X148740054Y-60198908D01*
X148740048Y-60198912D01*
X148528985Y-60360867D01*
X148340867Y-60548985D01*
X148178912Y-60760048D01*
X148178908Y-60760054D01*
X148045890Y-60990449D01*
X148045889Y-60990452D01*
X147944080Y-61236240D01*
X147875224Y-61493214D01*
X147840500Y-61756981D01*
X138025840Y-61756981D01*
X138031157Y-61753911D01*
X138116411Y-61668657D01*
X138176695Y-61564243D01*
X138207899Y-61447786D01*
X138207900Y-61447786D01*
X138207900Y-61327214D01*
X138207899Y-61327213D01*
X138176696Y-61210760D01*
X138176694Y-61210755D01*
X138116413Y-61106346D01*
X138116412Y-61106345D01*
X138116411Y-61106343D01*
X138031157Y-61021089D01*
X138031154Y-61021087D01*
X138031153Y-61021086D01*
X137926744Y-60960805D01*
X137926739Y-60960803D01*
X137810286Y-60929600D01*
X137810284Y-60929600D01*
X137689716Y-60929600D01*
X137689714Y-60929600D01*
X137573260Y-60960803D01*
X137573255Y-60960805D01*
X137468846Y-61021086D01*
X137468843Y-61021088D01*
X137468843Y-61021089D01*
X137383589Y-61106343D01*
X137383587Y-61106345D01*
X137380160Y-61109773D01*
X137378432Y-61108045D01*
X137336291Y-61132368D01*
X137326642Y-61133000D01*
X136023570Y-61133000D01*
X135971244Y-61111326D01*
X135776174Y-60916256D01*
X135754500Y-60863930D01*
X135754500Y-58173358D01*
X135776174Y-58121032D01*
X135779110Y-58118457D01*
X135781154Y-58116412D01*
X135781157Y-58116411D01*
X135866411Y-58031157D01*
X135926695Y-57926743D01*
X135957899Y-57810286D01*
X135957900Y-57810286D01*
X135957900Y-57689714D01*
X135957899Y-57689713D01*
X135926696Y-57573260D01*
X135926694Y-57573255D01*
X135866413Y-57468846D01*
X135866412Y-57468845D01*
X135866411Y-57468843D01*
X135781157Y-57383589D01*
X135781154Y-57383587D01*
X135781153Y-57383586D01*
X135676744Y-57323305D01*
X135676739Y-57323303D01*
X135560286Y-57292100D01*
X135560284Y-57292100D01*
X135439716Y-57292100D01*
X135439714Y-57292100D01*
X135323260Y-57323303D01*
X135323255Y-57323305D01*
X135218846Y-57383586D01*
X135133586Y-57468846D01*
X135073305Y-57573255D01*
X135073303Y-57573260D01*
X135042100Y-57689713D01*
X119750000Y-57689713D01*
X119750000Y-53265920D01*
X132680500Y-53265920D01*
X132680500Y-53494079D01*
X132716191Y-53719422D01*
X132716194Y-53719435D01*
X132786693Y-53936409D01*
X132890276Y-54139704D01*
X132971683Y-54251750D01*
X133024383Y-54324286D01*
X133185714Y-54485617D01*
X133288159Y-54560047D01*
X133370295Y-54619723D01*
X133468278Y-54669647D01*
X133573585Y-54723304D01*
X133573587Y-54723304D01*
X133573590Y-54723306D01*
X133790564Y-54793805D01*
X133790570Y-54793806D01*
X133790575Y-54793808D01*
X133903248Y-54811654D01*
X134015920Y-54829500D01*
X134015922Y-54829500D01*
X134244080Y-54829500D01*
X134334216Y-54815223D01*
X134469425Y-54793808D01*
X134469432Y-54793805D01*
X134469435Y-54793805D01*
X134686409Y-54723306D01*
X134686409Y-54723305D01*
X134686415Y-54723304D01*
X134889704Y-54619723D01*
X135074286Y-54485617D01*
X135235617Y-54324286D01*
X135369723Y-54139704D01*
X135473304Y-53936415D01*
X135543808Y-53719425D01*
X135579500Y-53494078D01*
X135579500Y-53290051D01*
X140857100Y-53290051D01*
X140857100Y-53469948D01*
X140885241Y-53647627D01*
X140885244Y-53647640D01*
X140940830Y-53818715D01*
X141000797Y-53936409D01*
X141022504Y-53979010D01*
X141128245Y-54124549D01*
X141255451Y-54251755D01*
X141400990Y-54357496D01*
X141561279Y-54439167D01*
X141561281Y-54439167D01*
X141561284Y-54439169D01*
X141732359Y-54494755D01*
X141732365Y-54494756D01*
X141732370Y-54494758D01*
X141850824Y-54513519D01*
X141910051Y-54522900D01*
X141910052Y-54522900D01*
X142089949Y-54522900D01*
X142134368Y-54515864D01*
X142267630Y-54494758D01*
X142267637Y-54494755D01*
X142267640Y-54494755D01*
X142438715Y-54439169D01*
X142438715Y-54439168D01*
X142438721Y-54439167D01*
X142599010Y-54357496D01*
X142744549Y-54251755D01*
X142871755Y-54124549D01*
X142977496Y-53979010D01*
X143059167Y-53818721D01*
X143114758Y-53647630D01*
X143142900Y-53469948D01*
X143142900Y-53290052D01*
X143114758Y-53112370D01*
X143114756Y-53112365D01*
X143114755Y-53112359D01*
X143059169Y-52941284D01*
X143059167Y-52941281D01*
X143059167Y-52941279D01*
X142977496Y-52780990D01*
X142871755Y-52635451D01*
X142744549Y-52508245D01*
X142744546Y-52508242D01*
X142744544Y-52508241D01*
X142599009Y-52402503D01*
X142438715Y-52320830D01*
X142267640Y-52265244D01*
X142267627Y-52265241D01*
X142089949Y-52237100D01*
X142089948Y-52237100D01*
X141910052Y-52237100D01*
X141910051Y-52237100D01*
X141732372Y-52265241D01*
X141732359Y-52265244D01*
X141561284Y-52320830D01*
X141400990Y-52402503D01*
X141255455Y-52508241D01*
X141128241Y-52635455D01*
X141022503Y-52780990D01*
X140940830Y-52941284D01*
X140885244Y-53112359D01*
X140885241Y-53112372D01*
X140857100Y-53290051D01*
X135579500Y-53290051D01*
X135579500Y-53265922D01*
X135543808Y-53040575D01*
X135543806Y-53040570D01*
X135543805Y-53040564D01*
X135473306Y-52823590D01*
X135473304Y-52823587D01*
X135473304Y-52823585D01*
X135377445Y-52635451D01*
X135369723Y-52620295D01*
X135288317Y-52508250D01*
X135235617Y-52435714D01*
X135074286Y-52274383D01*
X135002754Y-52222412D01*
X134889704Y-52140276D01*
X134686409Y-52036693D01*
X134469435Y-51966194D01*
X134469422Y-51966191D01*
X134244080Y-51930500D01*
X134244078Y-51930500D01*
X134015922Y-51930500D01*
X134015920Y-51930500D01*
X133790577Y-51966191D01*
X133790564Y-51966194D01*
X133573590Y-52036693D01*
X133370295Y-52140276D01*
X133198293Y-52265244D01*
X133185714Y-52274383D01*
X133024383Y-52435714D01*
X133024380Y-52435717D01*
X133024380Y-52435718D01*
X132890276Y-52620295D01*
X132786693Y-52823590D01*
X132716194Y-53040564D01*
X132716191Y-53040577D01*
X132680500Y-53265920D01*
X119750000Y-53265920D01*
X119750000Y-48824000D01*
X119771674Y-48771674D01*
X119824000Y-48750000D01*
X164176000Y-48750000D01*
X164228326Y-48771674D01*
G37*
G04 #@! TD.AperFunction*
G04 #@! TD*
M02*
