G04 #@! TF.GenerationSoftware,KiCad,Pcbnew,10.0.3-10.0.3~ubuntu26.04.1*
G04 #@! TF.CreationDate,2026-08-21T06:38:11+03:00*
G04 #@! TF.ProjectId,central-unit-main,63656e74-7261-46c2-9d75-6e69742d6d61,B*
G04 #@! TF.SameCoordinates,Original*
G04 #@! TF.FileFunction,Paste,Bot*
G04 #@! TF.FilePolarity,Positive*
%FSLAX46Y46*%
G04 Gerber Fmt 4.6, Leading zero omitted, Abs format (unit mm)*
G04 Created by KiCad (PCBNEW 10.0.3-10.0.3~ubuntu26.04.1) date 2026-08-21 06:38:11*
%MOMM*%
%LPD*%
G01*
G04 APERTURE LIST*
%ADD10C,0.010000*%
G04 APERTURE END LIST*
D10*
G04 #@! TO.C,D4*
X137000000Y-133200000D02*
X137000000Y-134850000D01*
X138000000Y-134850000D01*
X138000000Y-133200000D01*
X137900000Y-133200000D01*
X137900000Y-132500000D01*
X137100000Y-132500000D01*
X137100000Y-133200000D01*
X137000000Y-133200000D01*
G36*
X137900000Y-133200000D02*
G01*
X138000000Y-133200000D01*
X138000000Y-134850000D01*
X137000000Y-134850000D01*
X137000000Y-133200000D01*
X137100000Y-133200000D01*
X137100000Y-132500000D01*
X137900000Y-132500000D01*
X137900000Y-133200000D01*
G37*
X138500000Y-136500000D02*
X136500000Y-136500000D01*
X136500000Y-135800000D01*
X137000000Y-135800000D01*
X137000000Y-135400000D01*
X138000000Y-135400000D01*
X138000000Y-135800000D01*
X138500000Y-135800000D01*
X138500000Y-136500000D01*
G36*
X138000000Y-135800000D02*
G01*
X138500000Y-135800000D01*
X138500000Y-136500000D01*
X136500000Y-136500000D01*
X136500000Y-135800000D01*
X137000000Y-135800000D01*
X137000000Y-135400000D01*
X138000000Y-135400000D01*
X138000000Y-135800000D01*
G37*
G04 #@! TO.C,D7*
X147500000Y-136500000D02*
X145500000Y-136500000D01*
X145500000Y-135800000D01*
X146000000Y-135800000D01*
X146000000Y-135400000D01*
X147000000Y-135400000D01*
X147000000Y-135800000D01*
X147500000Y-135800000D01*
X147500000Y-136500000D01*
G36*
X147000000Y-135800000D02*
G01*
X147500000Y-135800000D01*
X147500000Y-136500000D01*
X145500000Y-136500000D01*
X145500000Y-135800000D01*
X146000000Y-135800000D01*
X146000000Y-135400000D01*
X147000000Y-135400000D01*
X147000000Y-135800000D01*
G37*
X146000000Y-133200000D02*
X146000000Y-134850000D01*
X147000000Y-134850000D01*
X147000000Y-133200000D01*
X146900000Y-133200000D01*
X146900000Y-132500000D01*
X146100000Y-132500000D01*
X146100000Y-133200000D01*
X146000000Y-133200000D01*
G36*
X146900000Y-133200000D02*
G01*
X147000000Y-133200000D01*
X147000000Y-134850000D01*
X146000000Y-134850000D01*
X146000000Y-133200000D01*
X146100000Y-133200000D01*
X146100000Y-132500000D01*
X146900000Y-132500000D01*
X146900000Y-133200000D01*
G37*
G04 #@! TO.C,D6*
X144500000Y-136500000D02*
X142500000Y-136500000D01*
X142500000Y-135800000D01*
X143000000Y-135800000D01*
X143000000Y-135400000D01*
X144000000Y-135400000D01*
X144000000Y-135800000D01*
X144500000Y-135800000D01*
X144500000Y-136500000D01*
G36*
X144000000Y-135800000D02*
G01*
X144500000Y-135800000D01*
X144500000Y-136500000D01*
X142500000Y-136500000D01*
X142500000Y-135800000D01*
X143000000Y-135800000D01*
X143000000Y-135400000D01*
X144000000Y-135400000D01*
X144000000Y-135800000D01*
G37*
X143000000Y-133200000D02*
X143000000Y-134850000D01*
X144000000Y-134850000D01*
X144000000Y-133200000D01*
X143900000Y-133200000D01*
X143900000Y-132500000D01*
X143100000Y-132500000D01*
X143100000Y-133200000D01*
X143000000Y-133200000D01*
G36*
X143900000Y-133200000D02*
G01*
X144000000Y-133200000D01*
X144000000Y-134850000D01*
X143000000Y-134850000D01*
X143000000Y-133200000D01*
X143100000Y-133200000D01*
X143100000Y-132500000D01*
X143900000Y-132500000D01*
X143900000Y-133200000D01*
G37*
G04 #@! TO.C,D5*
X141500000Y-136500000D02*
X139500000Y-136500000D01*
X139500000Y-135800000D01*
X140000000Y-135800000D01*
X140000000Y-135400000D01*
X141000000Y-135400000D01*
X141000000Y-135800000D01*
X141500000Y-135800000D01*
X141500000Y-136500000D01*
G36*
X141000000Y-135800000D02*
G01*
X141500000Y-135800000D01*
X141500000Y-136500000D01*
X139500000Y-136500000D01*
X139500000Y-135800000D01*
X140000000Y-135800000D01*
X140000000Y-135400000D01*
X141000000Y-135400000D01*
X141000000Y-135800000D01*
G37*
X140000000Y-133200000D02*
X140000000Y-134850000D01*
X141000000Y-134850000D01*
X141000000Y-133200000D01*
X140900000Y-133200000D01*
X140900000Y-132500000D01*
X140100000Y-132500000D01*
X140100000Y-133200000D01*
X140000000Y-133200000D01*
G36*
X140900000Y-133200000D02*
G01*
X141000000Y-133200000D01*
X141000000Y-134850000D01*
X140000000Y-134850000D01*
X140000000Y-133200000D01*
X140100000Y-133200000D01*
X140100000Y-132500000D01*
X140900000Y-132500000D01*
X140900000Y-133200000D01*
G37*
G04 #@! TD*
M02*
