G04 #@! TF.GenerationSoftware,KiCad,Pcbnew,10.0.3-10.0.3~ubuntu26.04.1*
G04 #@! TF.CreationDate,2026-07-19T08:38:35+03:00*
G04 #@! TF.ProjectId,central-unit-main,63656e74-7261-46c2-9d75-6e69742d6d61,B*
G04 #@! TF.SameCoordinates,Original*
G04 #@! TF.FileFunction,Paste,Top*
G04 #@! TF.FilePolarity,Positive*
%FSLAX46Y46*%
G04 Gerber Fmt 4.6, Leading zero omitted, Abs format (unit mm)*
G04 Created by KiCad (PCBNEW 10.0.3-10.0.3~ubuntu26.04.1) date 2026-07-19 08:38:35*
%MOMM*%
%LPD*%
G01*
G04 APERTURE LIST*
G04 Aperture macros list*
%AMRoundRect*
0 Rectangle with rounded corners*
0 $1 Rounding radius*
0 $2 $3 $4 $5 $6 $7 $8 $9 X,Y pos of 4 corners*
0 Add a 4 corners polygon primitive as box body*
4,1,4,$2,$3,$4,$5,$6,$7,$8,$9,$2,$3,0*
0 Add four circle primitives for the rounded corners*
1,1,$1+$1,$2,$3*
1,1,$1+$1,$4,$5*
1,1,$1+$1,$6,$7*
1,1,$1+$1,$8,$9*
0 Add four rect primitives between the rounded corners*
20,1,$1+$1,$2,$3,$4,$5,0*
20,1,$1+$1,$4,$5,$6,$7,0*
20,1,$1+$1,$6,$7,$8,$9,0*
20,1,$1+$1,$8,$9,$2,$3,0*%
G04 Aperture macros list end*
%ADD10RoundRect,0.237500X0.237500X-0.300000X0.237500X0.300000X-0.237500X0.300000X-0.237500X-0.300000X0*%
%ADD11RoundRect,0.237500X-0.237500X0.300000X-0.237500X-0.300000X0.237500X-0.300000X0.237500X0.300000X0*%
%ADD12RoundRect,0.237500X0.250000X0.237500X-0.250000X0.237500X-0.250000X-0.237500X0.250000X-0.237500X0*%
%ADD13RoundRect,0.237500X0.237500X-0.250000X0.237500X0.250000X-0.237500X0.250000X-0.237500X-0.250000X0*%
%ADD14RoundRect,0.237500X-0.250000X-0.237500X0.250000X-0.237500X0.250000X0.237500X-0.250000X0.237500X0*%
%ADD15RoundRect,0.237500X0.300000X0.237500X-0.300000X0.237500X-0.300000X-0.237500X0.300000X-0.237500X0*%
%ADD16RoundRect,0.237500X-0.300000X-0.237500X0.300000X-0.237500X0.300000X0.237500X-0.300000X0.237500X0*%
%ADD17R,0.375000X0.350000*%
%ADD18R,0.350000X0.375000*%
%ADD19RoundRect,0.150000X0.512500X0.150000X-0.512500X0.150000X-0.512500X-0.150000X0.512500X-0.150000X0*%
%ADD20RoundRect,0.160000X-0.160000X0.160000X-0.160000X-0.160000X0.160000X-0.160000X0.160000X0.160000X0*%
%ADD21RoundRect,0.062500X-0.062500X0.375000X-0.062500X-0.375000X0.062500X-0.375000X0.062500X0.375000X0*%
%ADD22RoundRect,0.062500X-0.375000X0.062500X-0.375000X-0.062500X0.375000X-0.062500X0.375000X0.062500X0*%
%ADD23R,0.550000X0.300000*%
%ADD24RoundRect,0.250001X0.849999X-0.462499X0.849999X0.462499X-0.849999X0.462499X-0.849999X-0.462499X0*%
%ADD25R,0.550000X0.800000*%
%ADD26RoundRect,0.250000X-0.450000X0.325000X-0.450000X-0.325000X0.450000X-0.325000X0.450000X0.325000X0*%
%ADD27RoundRect,0.250000X-0.250000X-0.550000X0.250000X-0.550000X0.250000X0.550000X-0.250000X0.550000X0*%
%ADD28RoundRect,0.237500X-0.237500X0.250000X-0.237500X-0.250000X0.237500X-0.250000X0.237500X0.250000X0*%
%ADD29R,1.800000X1.000000*%
%ADD30R,1.700000X2.400000*%
%ADD31R,1.150000X0.590000*%
%ADD32R,1.150000X0.298000*%
%ADD33RoundRect,0.237500X-0.287500X-0.237500X0.287500X-0.237500X0.287500X0.237500X-0.287500X0.237500X0*%
%ADD34R,0.600000X1.300000*%
%ADD35RoundRect,0.025000X0.100000X0.145000X-0.100000X0.145000X-0.100000X-0.145000X0.100000X-0.145000X0*%
%ADD36RoundRect,0.106000X0.644000X0.424000X-0.644000X0.424000X-0.644000X-0.424000X0.644000X-0.424000X0*%
%ADD37RoundRect,0.060000X0.240000X0.060000X-0.240000X0.060000X-0.240000X-0.060000X0.240000X-0.060000X0*%
%ADD38RoundRect,0.075000X-0.700000X-0.075000X0.700000X-0.075000X0.700000X0.075000X-0.700000X0.075000X0*%
%ADD39RoundRect,0.075000X-0.075000X-0.700000X0.075000X-0.700000X0.075000X0.700000X-0.075000X0.700000X0*%
G04 APERTURE END LIST*
D10*
G04 #@! TO.C,C17*
X136000000Y-80362500D03*
X136000000Y-78637500D03*
G04 #@! TD*
D11*
G04 #@! TO.C,C26*
X137000000Y-62137500D03*
X137000000Y-63862500D03*
G04 #@! TD*
D12*
G04 #@! TO.C,R19*
X142912500Y-56000000D03*
X141087500Y-56000000D03*
G04 #@! TD*
D11*
G04 #@! TO.C,C18*
X142000000Y-78637500D03*
X142000000Y-80362500D03*
G04 #@! TD*
D13*
G04 #@! TO.C,R24*
X149250000Y-90912500D03*
X149250000Y-89087500D03*
G04 #@! TD*
D12*
G04 #@! TO.C,R13*
X154412500Y-66500000D03*
X152587500Y-66500000D03*
G04 #@! TD*
D14*
G04 #@! TO.C,R4*
X158087500Y-89500000D03*
X159912500Y-89500000D03*
G04 #@! TD*
D15*
G04 #@! TO.C,C2*
X141862500Y-107000000D03*
X140137500Y-107000000D03*
G04 #@! TD*
D12*
G04 #@! TO.C,R28*
X125825000Y-88000000D03*
X124000000Y-88000000D03*
G04 #@! TD*
D16*
G04 #@! TO.C,C9*
X158137500Y-93990000D03*
X159862500Y-93990000D03*
G04 #@! TD*
D11*
G04 #@! TO.C,C5*
X147500000Y-108127500D03*
X147500000Y-109852500D03*
G04 #@! TD*
D10*
G04 #@! TO.C,C12*
X147250000Y-90852500D03*
X147250000Y-89127500D03*
G04 #@! TD*
D15*
G04 #@! TO.C,C22*
X134862500Y-76500000D03*
X133137500Y-76500000D03*
G04 #@! TD*
D13*
G04 #@! TO.C,R18*
X139000000Y-63912500D03*
X139000000Y-62087500D03*
G04 #@! TD*
D17*
G04 #@! TO.C,U5*
X141237500Y-120250000D03*
X141237500Y-120750000D03*
X141237500Y-121250000D03*
X141237500Y-121750000D03*
D18*
X141750000Y-121762500D03*
X142250000Y-121762500D03*
D17*
X142762500Y-121750000D03*
X142762500Y-121250000D03*
X142762500Y-120750000D03*
X142762500Y-120250000D03*
D18*
X142250000Y-120237500D03*
X141750000Y-120237500D03*
G04 #@! TD*
D19*
G04 #@! TO.C,U3*
X150637500Y-68900000D03*
X150637500Y-67950000D03*
X150637500Y-67000000D03*
X148362500Y-67000000D03*
X148362500Y-67950000D03*
X148362500Y-68900000D03*
G04 #@! TD*
D12*
G04 #@! TO.C,R1*
X138412500Y-98990000D03*
X136587500Y-98990000D03*
G04 #@! TD*
D20*
G04 #@! TO.C,U4*
X138400000Y-58600000D03*
X137600000Y-58600000D03*
X138400000Y-59400000D03*
X137600000Y-59400000D03*
D21*
X138750000Y-57562500D03*
X138250000Y-57562500D03*
X137750000Y-57562500D03*
X137250000Y-57562500D03*
D22*
X136562500Y-58250000D03*
X136562500Y-58750000D03*
X136562500Y-59250000D03*
X136562500Y-59750000D03*
D21*
X137250000Y-60437500D03*
X137750000Y-60437500D03*
X138250000Y-60437500D03*
X138750000Y-60437500D03*
D22*
X139437500Y-59750000D03*
X139437500Y-59250000D03*
X139437500Y-58750000D03*
X139437500Y-58250000D03*
G04 #@! TD*
D10*
G04 #@! TO.C,C16*
X133500000Y-102852500D03*
X133500000Y-101127500D03*
G04 #@! TD*
D16*
G04 #@! TO.C,C32*
X124137500Y-94000000D03*
X125862500Y-94000000D03*
G04 #@! TD*
G04 #@! TO.C,C10*
X158137500Y-87500000D03*
X159862500Y-87500000D03*
G04 #@! TD*
G04 #@! TO.C,C13*
X133137500Y-94990000D03*
X134862500Y-94990000D03*
G04 #@! TD*
D23*
G04 #@! TO.C,IC2*
X141125000Y-115850000D03*
X141125000Y-116500000D03*
X141125000Y-117150000D03*
X142875000Y-117150000D03*
X142875000Y-116500000D03*
X142875000Y-115850000D03*
G04 #@! TD*
D12*
G04 #@! TO.C,R7*
X138412500Y-96990000D03*
X136587500Y-96990000D03*
G04 #@! TD*
G04 #@! TO.C,R14*
X154412500Y-69500000D03*
X152587500Y-69500000D03*
G04 #@! TD*
D24*
G04 #@! TO.C,L1*
X141500000Y-76662500D03*
X141500000Y-74337500D03*
G04 #@! TD*
D12*
G04 #@! TO.C,R26*
X125912500Y-92000000D03*
X124087500Y-92000000D03*
G04 #@! TD*
D25*
G04 #@! TO.C,D1*
X144875000Y-65000000D03*
X146125000Y-65000000D03*
G04 #@! TD*
D15*
G04 #@! TO.C,C21*
X138862500Y-72500000D03*
X137137500Y-72500000D03*
G04 #@! TD*
D16*
G04 #@! TO.C,C30*
X145137500Y-121500000D03*
X146862500Y-121500000D03*
G04 #@! TD*
D11*
G04 #@! TO.C,C19*
X140000000Y-78637500D03*
X140000000Y-80362500D03*
G04 #@! TD*
D14*
G04 #@! TO.C,R3*
X158087500Y-100000000D03*
X159912500Y-100000000D03*
G04 #@! TD*
D16*
G04 #@! TO.C,C31*
X145137500Y-123500000D03*
X146862500Y-123500000D03*
G04 #@! TD*
D12*
G04 #@! TO.C,R2*
X138412500Y-100990000D03*
X136587500Y-100990000D03*
G04 #@! TD*
G04 #@! TO.C,TH1*
X149912500Y-56000000D03*
X148087500Y-56000000D03*
G04 #@! TD*
D26*
G04 #@! TO.C,D3*
X132500000Y-61975000D03*
X132500000Y-64025000D03*
G04 #@! TD*
D27*
G04 #@! TO.C,SW1*
X132250000Y-91150000D03*
X134000000Y-88850000D03*
X135750000Y-91150000D03*
G04 #@! TD*
D10*
G04 #@! TO.C,C15*
X131500000Y-102852500D03*
X131500000Y-101127500D03*
G04 #@! TD*
D28*
G04 #@! TO.C,R11*
X132000000Y-78587500D03*
X132000000Y-80412500D03*
G04 #@! TD*
D16*
G04 #@! TO.C,C29*
X145137500Y-119500000D03*
X146862500Y-119500000D03*
G04 #@! TD*
D14*
G04 #@! TO.C,R12*
X144587500Y-69000000D03*
X146412500Y-69000000D03*
G04 #@! TD*
D28*
G04 #@! TO.C,R20*
X135000000Y-66087500D03*
X135000000Y-67912500D03*
G04 #@! TD*
G04 #@! TO.C,R21*
X132500000Y-66087500D03*
X132500000Y-67912500D03*
G04 #@! TD*
D14*
G04 #@! TO.C,R27*
X131587500Y-112000000D03*
X133412500Y-112000000D03*
G04 #@! TD*
D15*
G04 #@! TO.C,C3*
X141862500Y-92990000D03*
X140137500Y-92990000D03*
G04 #@! TD*
D12*
G04 #@! TO.C,R6*
X138412500Y-94990000D03*
X136587500Y-94990000D03*
G04 #@! TD*
D28*
G04 #@! TO.C,R5*
X145250000Y-89087500D03*
X145250000Y-90912500D03*
G04 #@! TD*
D15*
G04 #@! TO.C,C1*
X141862500Y-104990000D03*
X140137500Y-104990000D03*
G04 #@! TD*
D13*
G04 #@! TO.C,R10*
X134000000Y-80412500D03*
X134000000Y-78587500D03*
G04 #@! TD*
D29*
G04 #@! TO.C,Y1*
X131000000Y-94740000D03*
X131000000Y-97240000D03*
G04 #@! TD*
D13*
G04 #@! TO.C,R23*
X139000000Y-121912500D03*
X139000000Y-120087500D03*
G04 #@! TD*
D11*
G04 #@! TO.C,C6*
X154000000Y-108127500D03*
X154000000Y-109852500D03*
G04 #@! TD*
D30*
G04 #@! TO.C,Y2*
X130650000Y-105990000D03*
X134350000Y-105990000D03*
G04 #@! TD*
D11*
G04 #@! TO.C,C27*
X145000000Y-115637500D03*
X145000000Y-117362500D03*
G04 #@! TD*
D31*
G04 #@! TO.C,J2*
X157075000Y-71200000D03*
X157075000Y-70400000D03*
D32*
X157075000Y-69250000D03*
X157075000Y-68250000D03*
X157075000Y-67750000D03*
X157075000Y-66750000D03*
D31*
X157075000Y-64800000D03*
X157075000Y-65600000D03*
D32*
X157075000Y-66250000D03*
X157075000Y-67250000D03*
X157075000Y-68750000D03*
X157075000Y-69750000D03*
G04 #@! TD*
D12*
G04 #@! TO.C,R17*
X142912500Y-60000000D03*
X141087500Y-60000000D03*
G04 #@! TD*
D11*
G04 #@! TO.C,C28*
X147000000Y-115637500D03*
X147000000Y-117362500D03*
G04 #@! TD*
D28*
G04 #@! TO.C,R22*
X139000000Y-115587500D03*
X139000000Y-117412500D03*
G04 #@! TD*
D33*
G04 #@! TO.C,FB1*
X140125000Y-109000000D03*
X141875000Y-109000000D03*
G04 #@! TD*
D15*
G04 #@! TO.C,C25*
X138862500Y-53500000D03*
X137137500Y-53500000D03*
G04 #@! TD*
D34*
G04 #@! TO.C,IC1*
X143970000Y-76550000D03*
X146030000Y-76550000D03*
X145000000Y-74450000D03*
G04 #@! TD*
D35*
G04 #@! TO.C,U2*
X138250000Y-77030000D03*
X138250000Y-73970000D03*
D36*
X138000000Y-76130000D03*
X138000000Y-74870000D03*
D35*
X137750000Y-77030000D03*
X137750000Y-73970000D03*
D37*
X139400000Y-76500000D03*
X139400000Y-76000000D03*
X139400000Y-75500000D03*
X139400000Y-75000000D03*
X139400000Y-74500000D03*
X136600000Y-74500000D03*
X136600000Y-75000000D03*
X136600000Y-75500000D03*
X136600000Y-76000000D03*
X136600000Y-76500000D03*
G04 #@! TD*
D16*
G04 #@! TO.C,C14*
X133137500Y-96990000D03*
X134862500Y-96990000D03*
G04 #@! TD*
D15*
G04 #@! TO.C,C4*
X141862500Y-88990000D03*
X140137500Y-88990000D03*
G04 #@! TD*
D16*
G04 #@! TO.C,C23*
X144637500Y-67000000D03*
X146362500Y-67000000D03*
G04 #@! TD*
D12*
G04 #@! TO.C,R8*
X145912500Y-78500000D03*
X144087500Y-78500000D03*
G04 #@! TD*
D16*
G04 #@! TO.C,C20*
X144137500Y-80500000D03*
X145862500Y-80500000D03*
G04 #@! TD*
D12*
G04 #@! TO.C,R16*
X142912500Y-58000000D03*
X141087500Y-58000000D03*
G04 #@! TD*
D16*
G04 #@! TO.C,C8*
X158137500Y-95990000D03*
X159862500Y-95990000D03*
G04 #@! TD*
D12*
G04 #@! TO.C,R15*
X146412500Y-71000000D03*
X144587500Y-71000000D03*
G04 #@! TD*
D14*
G04 #@! TO.C,R9*
X133087500Y-74480000D03*
X134912500Y-74480000D03*
G04 #@! TD*
D33*
G04 #@! TO.C,FB2*
X145125000Y-125500000D03*
X146875000Y-125500000D03*
G04 #@! TD*
D26*
G04 #@! TO.C,D2*
X135000000Y-61975000D03*
X135000000Y-64025000D03*
G04 #@! TD*
D16*
G04 #@! TO.C,C24*
X141137500Y-62000000D03*
X142862500Y-62000000D03*
G04 #@! TD*
D12*
G04 #@! TO.C,R32*
X151412500Y-110000000D03*
X149587500Y-110000000D03*
G04 #@! TD*
D15*
G04 #@! TO.C,C7*
X141862500Y-90990000D03*
X140137500Y-90990000D03*
G04 #@! TD*
G04 #@! TO.C,C11*
X141862500Y-102990000D03*
X140137500Y-102990000D03*
G04 #@! TD*
D12*
G04 #@! TO.C,R29*
X125912500Y-90000000D03*
X124087500Y-90000000D03*
G04 #@! TD*
G04 #@! TO.C,R31*
X151412500Y-112000000D03*
X149587500Y-112000000D03*
G04 #@! TD*
D13*
G04 #@! TO.C,R25*
X151250000Y-90912500D03*
X151250000Y-89087500D03*
G04 #@! TD*
D38*
G04 #@! TO.C,U1*
X144325000Y-96250000D03*
X144325000Y-96750000D03*
X144325000Y-97250000D03*
X144325000Y-97750000D03*
X144325000Y-98250000D03*
X144325000Y-98750000D03*
X144325000Y-99250000D03*
X144325000Y-99750000D03*
X144325000Y-100250000D03*
X144325000Y-100750000D03*
X144325000Y-101250000D03*
X144325000Y-101750000D03*
X144325000Y-102250000D03*
X144325000Y-102750000D03*
X144325000Y-103250000D03*
X144325000Y-103750000D03*
D39*
X146250000Y-105675000D03*
X146750000Y-105675000D03*
X147250000Y-105675000D03*
X147750000Y-105675000D03*
X148250000Y-105675000D03*
X148750000Y-105675000D03*
X149250000Y-105675000D03*
X149750000Y-105675000D03*
X150250000Y-105675000D03*
X150750000Y-105675000D03*
X151250000Y-105675000D03*
X151750000Y-105675000D03*
X152250000Y-105675000D03*
X152750000Y-105675000D03*
X153250000Y-105675000D03*
X153750000Y-105675000D03*
D38*
X155675000Y-103750000D03*
X155675000Y-103250000D03*
X155675000Y-102750000D03*
X155675000Y-102250000D03*
X155675000Y-101750000D03*
X155675000Y-101250000D03*
X155675000Y-100750000D03*
X155675000Y-100250000D03*
X155675000Y-99750000D03*
X155675000Y-99250000D03*
X155675000Y-98750000D03*
X155675000Y-98250000D03*
X155675000Y-97750000D03*
X155675000Y-97250000D03*
X155675000Y-96750000D03*
X155675000Y-96250000D03*
D39*
X153750000Y-94325000D03*
X153250000Y-94325000D03*
X152750000Y-94325000D03*
X152250000Y-94325000D03*
X151750000Y-94325000D03*
X151250000Y-94325000D03*
X150750000Y-94325000D03*
X150250000Y-94325000D03*
X149750000Y-94325000D03*
X149250000Y-94325000D03*
X148750000Y-94325000D03*
X148250000Y-94325000D03*
X147750000Y-94325000D03*
X147250000Y-94325000D03*
X146750000Y-94325000D03*
X146250000Y-94325000D03*
G04 #@! TD*
D14*
G04 #@! TO.C,R30*
X124087500Y-86000000D03*
X125912500Y-86000000D03*
G04 #@! TD*
M02*
