M48
; DRILL file KiCad 10.0.3-10.0.3~ubuntu26.04.1 date 2026-08-21T06:38:34
; FORMAT={-:-/ absolute / metric / decimal}
; #@! TF.CreationDate,2026-08-21T06:38:34+03:00
; #@! TF.GenerationSoftware,Kicad,Pcbnew,10.0.3-10.0.3~ubuntu26.04.1
; #@! TF.FileFunction,MixedPlating,1,2
FMAT,2
METRIC
; #@! TA.AperFunction,Plated,PTH,ComponentDrill
T1C0.200
; #@! TA.AperFunction,Plated,PTH,ViaDrill
T2C0.300
; #@! TA.AperFunction,Plated,PTH,ComponentDrill
T3C0.600
; #@! TA.AperFunction,Plated,PTH,ComponentDrill
T4C0.990
; #@! TA.AperFunction,Plated,PTH,ComponentDrill
T5C1.000
; #@! TA.AperFunction,Plated,PTH,ComponentDrill
T6C1.100
; #@! TA.AperFunction,Plated,PTH,ComponentDrill
T7C1.320
; #@! TA.AperFunction,Plated,PTH,ComponentDrill
T8C2.200
; #@! TA.AperFunction,NonPlated,NPTH,ComponentDrill
T9C1.100
; #@! TA.AperFunction,NonPlated,NPTH,ComponentDrill
T10C2.390
; #@! TA.AperFunction,NonPlated,NPTH,ComponentDrill
T11C3.550
%
G90
G05
T1
X133.925Y-76.0
X134.5Y-75.05
X134.5Y-76.95
X135.075Y-76.0
X137.45Y-58.45
X137.45Y-59.55
X138.55Y-58.45
X138.55Y-59.55
T2
X124.0Y-61.25
X125.0Y-61.25
X125.0Y-87.0
X125.0Y-89.0
X125.0Y-91.0
X125.0Y-93.0
X126.0Y-61.25
X132.5Y-74.0
X134.5Y-78.25
X135.0Y-58.25
X137.0Y-70.25
X138.0Y-63.0
X138.0Y-70.25
X138.238Y-118.75
X139.0Y-70.25
X139.0Y-118.5
X139.762Y-118.75
X140.125Y-109.0
X140.5Y-67.0
X140.5Y-116.5
X140.5Y-121.75
X141.0Y-84.75
X141.0Y-104.0
X141.0Y-106.0
X141.0Y-108.0
X141.238Y-119.5
X141.5Y-67.0
X141.862Y-88.99
X141.988Y-116.5
X142.0Y-84.75
X142.5Y-67.0
X143.0Y-84.75
X144.5Y-64.0
X144.588Y-78.0
X145.5Y-64.0
X146.5Y-64.0
X146.988Y-96.25
X147.751Y-96.0
X148.25Y-88.0
X148.25Y-90.0
X148.5Y-111.0
X148.75Y-96.0
X149.25Y-89.087
X149.5Y-76.0
X149.512Y-96.25
X150.25Y-88.0
X151.0Y-75.0
X151.0Y-76.0
X151.0Y-77.0
X151.25Y-107.25
X151.5Y-98.0
X151.5Y-99.0
X151.5Y-100.0
X151.5Y-101.0
X151.5Y-102.0
X152.25Y-86.5
X152.25Y-107.25
X152.362Y-67.05
X152.362Y-68.95
X152.75Y-78.0
X153.0Y-107.75
X153.25Y-85.25
X154.0Y-111.0
X154.5Y-122.0
X154.5Y-123.95
X154.637Y-67.05
X154.637Y-68.95
X155.0Y-106.0
X156.0Y-105.0
X156.0Y-106.0
X156.75Y-92.25
X157.5Y-118.25
X157.5Y-119.4
X157.5Y-120.5
X157.5Y-122.0
X157.5Y-124.0
X158.75Y-67.5
X158.75Y-68.5
X159.0Y-93.0
X159.75Y-66.25
X159.75Y-69.25
X161.088Y-59.5
X161.088Y-61.5
X162.25Y-98.25
X163.25Y-98.25
T4
X155.5Y-86.5
X155.5Y-91.0
X162.0Y-86.5
X162.0Y-91.0
T5
X123.46Y-100.64
X123.46Y-103.18
X123.46Y-105.72
X123.46Y-108.26
X123.46Y-110.8
X123.46Y-113.34
X123.46Y-115.88
X123.46Y-118.42
X123.46Y-120.96
X123.46Y-123.5
X125.0Y-67.0
X125.0Y-83.5
X126.0Y-100.64
X126.0Y-103.18
X126.0Y-105.72
X126.0Y-108.26
X126.0Y-110.8
X126.0Y-113.34
X126.0Y-115.88
X126.0Y-118.42
X126.0Y-120.96
X126.0Y-123.5
X129.0Y-92.0
X155.5Y-61.0
X155.5Y-75.0
X159.0Y-75.0
X161.25Y-102.5
X162.5Y-75.0
T6
X157.5Y-79.96
X157.5Y-82.5
T7
X142.0Y-53.38
X142.0Y-125.6
T8
X125.0Y-54.0
X125.0Y-135.5
X159.0Y-54.0
X159.0Y-135.5
T9
X160.04Y-79.96
X160.04Y-82.5
T10
X134.13Y-53.38
T11
X134.13Y-117.09
X149.87Y-61.89
T3
G00X157.25Y-63.68
M15
G01X158.05Y-63.68
M16
G05
G00X157.25Y-72.32
M15
G01X158.05Y-72.32
M16
G05
G00X161.05Y-63.68
M15
G01X162.25Y-63.68
M16
G05
G00X161.05Y-72.32
M15
G01X162.25Y-72.32
M16
G05
M30
