G04 #@! TF.GenerationSoftware,KiCad,Pcbnew,10.0.3-10.0.3~ubuntu26.04.1*
G04 #@! TF.CreationDate,2026-07-24T11:29:18+03:00*
G04 #@! TF.ProjectId,central-unit-main,63656e74-7261-46c2-9d75-6e69742d6d61,B*
G04 #@! TF.SameCoordinates,Original*
G04 #@! TF.FileFunction,Legend,Top*
G04 #@! TF.FilePolarity,Positive*
%FSLAX46Y46*%
G04 Gerber Fmt 4.6, Leading zero omitted, Abs format (unit mm)*
G04 Created by KiCad (PCBNEW 10.0.3-10.0.3~ubuntu26.04.1) date 2026-07-24 11:29:18*
%MOMM*%
%LPD*%
G01*
G04 APERTURE LIST*
%ADD10C,0.150000*%
%ADD11C,0.152400*%
%ADD12C,0.120000*%
%ADD13C,0.200000*%
%ADD14C,0.127000*%
%ADD15C,0.100000*%
G04 APERTURE END LIST*
D10*
X148738095Y-76954819D02*
X148738095Y-77764342D01*
X148738095Y-77764342D02*
X148785714Y-77859580D01*
X148785714Y-77859580D02*
X148833333Y-77907200D01*
X148833333Y-77907200D02*
X148928571Y-77954819D01*
X148928571Y-77954819D02*
X149119047Y-77954819D01*
X149119047Y-77954819D02*
X149214285Y-77907200D01*
X149214285Y-77907200D02*
X149261904Y-77859580D01*
X149261904Y-77859580D02*
X149309523Y-77764342D01*
X149309523Y-77764342D02*
X149309523Y-76954819D01*
X149690476Y-76954819D02*
X150309523Y-76954819D01*
X150309523Y-76954819D02*
X149976190Y-77335771D01*
X149976190Y-77335771D02*
X150119047Y-77335771D01*
X150119047Y-77335771D02*
X150214285Y-77383390D01*
X150214285Y-77383390D02*
X150261904Y-77431009D01*
X150261904Y-77431009D02*
X150309523Y-77526247D01*
X150309523Y-77526247D02*
X150309523Y-77764342D01*
X150309523Y-77764342D02*
X150261904Y-77859580D01*
X150261904Y-77859580D02*
X150214285Y-77907200D01*
X150214285Y-77907200D02*
X150119047Y-77954819D01*
X150119047Y-77954819D02*
X149833333Y-77954819D01*
X149833333Y-77954819D02*
X149738095Y-77907200D01*
X149738095Y-77907200D02*
X149690476Y-77859580D01*
X147880750Y-76853819D02*
X147880750Y-77091914D01*
X147642655Y-76996676D02*
X147880750Y-77091914D01*
X147880750Y-77091914D02*
X148118845Y-76996676D01*
X147737893Y-77282390D02*
X147880750Y-77091914D01*
X147880750Y-77091914D02*
X148023607Y-77282390D01*
X141357142Y-82454819D02*
X141023809Y-81978628D01*
X140785714Y-82454819D02*
X140785714Y-81454819D01*
X140785714Y-81454819D02*
X141166666Y-81454819D01*
X141166666Y-81454819D02*
X141261904Y-81502438D01*
X141261904Y-81502438D02*
X141309523Y-81550057D01*
X141309523Y-81550057D02*
X141357142Y-81645295D01*
X141357142Y-81645295D02*
X141357142Y-81788152D01*
X141357142Y-81788152D02*
X141309523Y-81883390D01*
X141309523Y-81883390D02*
X141261904Y-81931009D01*
X141261904Y-81931009D02*
X141166666Y-81978628D01*
X141166666Y-81978628D02*
X140785714Y-81978628D01*
X142309523Y-82454819D02*
X141738095Y-82454819D01*
X142023809Y-82454819D02*
X142023809Y-81454819D01*
X142023809Y-81454819D02*
X141928571Y-81597676D01*
X141928571Y-81597676D02*
X141833333Y-81692914D01*
X141833333Y-81692914D02*
X141738095Y-81740533D01*
X143166666Y-81788152D02*
X143166666Y-82454819D01*
X142928571Y-81407200D02*
X142690476Y-82121485D01*
X142690476Y-82121485D02*
X143309523Y-82121485D01*
X141357142Y-80454819D02*
X141023809Y-79978628D01*
X140785714Y-80454819D02*
X140785714Y-79454819D01*
X140785714Y-79454819D02*
X141166666Y-79454819D01*
X141166666Y-79454819D02*
X141261904Y-79502438D01*
X141261904Y-79502438D02*
X141309523Y-79550057D01*
X141309523Y-79550057D02*
X141357142Y-79645295D01*
X141357142Y-79645295D02*
X141357142Y-79788152D01*
X141357142Y-79788152D02*
X141309523Y-79883390D01*
X141309523Y-79883390D02*
X141261904Y-79931009D01*
X141261904Y-79931009D02*
X141166666Y-79978628D01*
X141166666Y-79978628D02*
X140785714Y-79978628D01*
X142309523Y-80454819D02*
X141738095Y-80454819D01*
X142023809Y-80454819D02*
X142023809Y-79454819D01*
X142023809Y-79454819D02*
X141928571Y-79597676D01*
X141928571Y-79597676D02*
X141833333Y-79692914D01*
X141833333Y-79692914D02*
X141738095Y-79740533D01*
X142690476Y-79550057D02*
X142738095Y-79502438D01*
X142738095Y-79502438D02*
X142833333Y-79454819D01*
X142833333Y-79454819D02*
X143071428Y-79454819D01*
X143071428Y-79454819D02*
X143166666Y-79502438D01*
X143166666Y-79502438D02*
X143214285Y-79550057D01*
X143214285Y-79550057D02*
X143261904Y-79645295D01*
X143261904Y-79645295D02*
X143261904Y-79740533D01*
X143261904Y-79740533D02*
X143214285Y-79883390D01*
X143214285Y-79883390D02*
X142642857Y-80454819D01*
X142642857Y-80454819D02*
X143261904Y-80454819D01*
X141357142Y-76454819D02*
X141023809Y-75978628D01*
X140785714Y-76454819D02*
X140785714Y-75454819D01*
X140785714Y-75454819D02*
X141166666Y-75454819D01*
X141166666Y-75454819D02*
X141261904Y-75502438D01*
X141261904Y-75502438D02*
X141309523Y-75550057D01*
X141309523Y-75550057D02*
X141357142Y-75645295D01*
X141357142Y-75645295D02*
X141357142Y-75788152D01*
X141357142Y-75788152D02*
X141309523Y-75883390D01*
X141309523Y-75883390D02*
X141261904Y-75931009D01*
X141261904Y-75931009D02*
X141166666Y-75978628D01*
X141166666Y-75978628D02*
X140785714Y-75978628D01*
X142309523Y-76454819D02*
X141738095Y-76454819D01*
X142023809Y-76454819D02*
X142023809Y-75454819D01*
X142023809Y-75454819D02*
X141928571Y-75597676D01*
X141928571Y-75597676D02*
X141833333Y-75692914D01*
X141833333Y-75692914D02*
X141738095Y-75740533D01*
X142928571Y-75454819D02*
X143023809Y-75454819D01*
X143023809Y-75454819D02*
X143119047Y-75502438D01*
X143119047Y-75502438D02*
X143166666Y-75550057D01*
X143166666Y-75550057D02*
X143214285Y-75645295D01*
X143214285Y-75645295D02*
X143261904Y-75835771D01*
X143261904Y-75835771D02*
X143261904Y-76073866D01*
X143261904Y-76073866D02*
X143214285Y-76264342D01*
X143214285Y-76264342D02*
X143166666Y-76359580D01*
X143166666Y-76359580D02*
X143119047Y-76407200D01*
X143119047Y-76407200D02*
X143023809Y-76454819D01*
X143023809Y-76454819D02*
X142928571Y-76454819D01*
X142928571Y-76454819D02*
X142833333Y-76407200D01*
X142833333Y-76407200D02*
X142785714Y-76359580D01*
X142785714Y-76359580D02*
X142738095Y-76264342D01*
X142738095Y-76264342D02*
X142690476Y-76073866D01*
X142690476Y-76073866D02*
X142690476Y-75835771D01*
X142690476Y-75835771D02*
X142738095Y-75645295D01*
X142738095Y-75645295D02*
X142785714Y-75550057D01*
X142785714Y-75550057D02*
X142833333Y-75502438D01*
X142833333Y-75502438D02*
X142928571Y-75454819D01*
X141833333Y-78454819D02*
X141500000Y-77978628D01*
X141261905Y-78454819D02*
X141261905Y-77454819D01*
X141261905Y-77454819D02*
X141642857Y-77454819D01*
X141642857Y-77454819D02*
X141738095Y-77502438D01*
X141738095Y-77502438D02*
X141785714Y-77550057D01*
X141785714Y-77550057D02*
X141833333Y-77645295D01*
X141833333Y-77645295D02*
X141833333Y-77788152D01*
X141833333Y-77788152D02*
X141785714Y-77883390D01*
X141785714Y-77883390D02*
X141738095Y-77931009D01*
X141738095Y-77931009D02*
X141642857Y-77978628D01*
X141642857Y-77978628D02*
X141261905Y-77978628D01*
X142309524Y-78454819D02*
X142500000Y-78454819D01*
X142500000Y-78454819D02*
X142595238Y-78407200D01*
X142595238Y-78407200D02*
X142642857Y-78359580D01*
X142642857Y-78359580D02*
X142738095Y-78216723D01*
X142738095Y-78216723D02*
X142785714Y-78026247D01*
X142785714Y-78026247D02*
X142785714Y-77645295D01*
X142785714Y-77645295D02*
X142738095Y-77550057D01*
X142738095Y-77550057D02*
X142690476Y-77502438D01*
X142690476Y-77502438D02*
X142595238Y-77454819D01*
X142595238Y-77454819D02*
X142404762Y-77454819D01*
X142404762Y-77454819D02*
X142309524Y-77502438D01*
X142309524Y-77502438D02*
X142261905Y-77550057D01*
X142261905Y-77550057D02*
X142214286Y-77645295D01*
X142214286Y-77645295D02*
X142214286Y-77883390D01*
X142214286Y-77883390D02*
X142261905Y-77978628D01*
X142261905Y-77978628D02*
X142309524Y-78026247D01*
X142309524Y-78026247D02*
X142404762Y-78073866D01*
X142404762Y-78073866D02*
X142595238Y-78073866D01*
X142595238Y-78073866D02*
X142690476Y-78026247D01*
X142690476Y-78026247D02*
X142738095Y-77978628D01*
X142738095Y-77978628D02*
X142785714Y-77883390D01*
X141261905Y-65454819D02*
X141261905Y-64454819D01*
X141261905Y-64454819D02*
X141500000Y-64454819D01*
X141500000Y-64454819D02*
X141642857Y-64502438D01*
X141642857Y-64502438D02*
X141738095Y-64597676D01*
X141738095Y-64597676D02*
X141785714Y-64692914D01*
X141785714Y-64692914D02*
X141833333Y-64883390D01*
X141833333Y-64883390D02*
X141833333Y-65026247D01*
X141833333Y-65026247D02*
X141785714Y-65216723D01*
X141785714Y-65216723D02*
X141738095Y-65311961D01*
X141738095Y-65311961D02*
X141642857Y-65407200D01*
X141642857Y-65407200D02*
X141500000Y-65454819D01*
X141500000Y-65454819D02*
X141261905Y-65454819D01*
X142785714Y-65454819D02*
X142214286Y-65454819D01*
X142500000Y-65454819D02*
X142500000Y-64454819D01*
X142500000Y-64454819D02*
X142404762Y-64597676D01*
X142404762Y-64597676D02*
X142309524Y-64692914D01*
X142309524Y-64692914D02*
X142214286Y-64740533D01*
X124454819Y-81761904D02*
X124454819Y-81190476D01*
X125454819Y-81476190D02*
X124454819Y-81476190D01*
X125454819Y-80857142D02*
X124454819Y-80857142D01*
X124454819Y-80857142D02*
X124454819Y-80476190D01*
X124454819Y-80476190D02*
X124502438Y-80380952D01*
X124502438Y-80380952D02*
X124550057Y-80333333D01*
X124550057Y-80333333D02*
X124645295Y-80285714D01*
X124645295Y-80285714D02*
X124788152Y-80285714D01*
X124788152Y-80285714D02*
X124883390Y-80333333D01*
X124883390Y-80333333D02*
X124931009Y-80380952D01*
X124931009Y-80380952D02*
X124978628Y-80476190D01*
X124978628Y-80476190D02*
X124978628Y-80857142D01*
X124454819Y-79952380D02*
X124454819Y-79333333D01*
X124454819Y-79333333D02*
X124835771Y-79666666D01*
X124835771Y-79666666D02*
X124835771Y-79523809D01*
X124835771Y-79523809D02*
X124883390Y-79428571D01*
X124883390Y-79428571D02*
X124931009Y-79380952D01*
X124931009Y-79380952D02*
X125026247Y-79333333D01*
X125026247Y-79333333D02*
X125264342Y-79333333D01*
X125264342Y-79333333D02*
X125359580Y-79380952D01*
X125359580Y-79380952D02*
X125407200Y-79428571D01*
X125407200Y-79428571D02*
X125454819Y-79523809D01*
X125454819Y-79523809D02*
X125454819Y-79809523D01*
X125454819Y-79809523D02*
X125407200Y-79904761D01*
X125407200Y-79904761D02*
X125359580Y-79952380D01*
X154238095Y-58456819D02*
X154809523Y-58456819D01*
X154523809Y-59456819D02*
X154523809Y-58456819D01*
X155142857Y-59456819D02*
X155142857Y-58456819D01*
X155142857Y-58456819D02*
X155523809Y-58456819D01*
X155523809Y-58456819D02*
X155619047Y-58504438D01*
X155619047Y-58504438D02*
X155666666Y-58552057D01*
X155666666Y-58552057D02*
X155714285Y-58647295D01*
X155714285Y-58647295D02*
X155714285Y-58790152D01*
X155714285Y-58790152D02*
X155666666Y-58885390D01*
X155666666Y-58885390D02*
X155619047Y-58933009D01*
X155619047Y-58933009D02*
X155523809Y-58980628D01*
X155523809Y-58980628D02*
X155142857Y-58980628D01*
X156571428Y-58456819D02*
X156380952Y-58456819D01*
X156380952Y-58456819D02*
X156285714Y-58504438D01*
X156285714Y-58504438D02*
X156238095Y-58552057D01*
X156238095Y-58552057D02*
X156142857Y-58694914D01*
X156142857Y-58694914D02*
X156095238Y-58885390D01*
X156095238Y-58885390D02*
X156095238Y-59266342D01*
X156095238Y-59266342D02*
X156142857Y-59361580D01*
X156142857Y-59361580D02*
X156190476Y-59409200D01*
X156190476Y-59409200D02*
X156285714Y-59456819D01*
X156285714Y-59456819D02*
X156476190Y-59456819D01*
X156476190Y-59456819D02*
X156571428Y-59409200D01*
X156571428Y-59409200D02*
X156619047Y-59361580D01*
X156619047Y-59361580D02*
X156666666Y-59266342D01*
X156666666Y-59266342D02*
X156666666Y-59028247D01*
X156666666Y-59028247D02*
X156619047Y-58933009D01*
X156619047Y-58933009D02*
X156571428Y-58885390D01*
X156571428Y-58885390D02*
X156476190Y-58837771D01*
X156476190Y-58837771D02*
X156285714Y-58837771D01*
X156285714Y-58837771D02*
X156190476Y-58885390D01*
X156190476Y-58885390D02*
X156142857Y-58933009D01*
X156142857Y-58933009D02*
X156095238Y-59028247D01*
X132859580Y-84142857D02*
X132907200Y-84190476D01*
X132907200Y-84190476D02*
X132954819Y-84333333D01*
X132954819Y-84333333D02*
X132954819Y-84428571D01*
X132954819Y-84428571D02*
X132907200Y-84571428D01*
X132907200Y-84571428D02*
X132811961Y-84666666D01*
X132811961Y-84666666D02*
X132716723Y-84714285D01*
X132716723Y-84714285D02*
X132526247Y-84761904D01*
X132526247Y-84761904D02*
X132383390Y-84761904D01*
X132383390Y-84761904D02*
X132192914Y-84714285D01*
X132192914Y-84714285D02*
X132097676Y-84666666D01*
X132097676Y-84666666D02*
X132002438Y-84571428D01*
X132002438Y-84571428D02*
X131954819Y-84428571D01*
X131954819Y-84428571D02*
X131954819Y-84333333D01*
X131954819Y-84333333D02*
X132002438Y-84190476D01*
X132002438Y-84190476D02*
X132050057Y-84142857D01*
X132954819Y-83190476D02*
X132954819Y-83761904D01*
X132954819Y-83476190D02*
X131954819Y-83476190D01*
X131954819Y-83476190D02*
X132097676Y-83571428D01*
X132097676Y-83571428D02*
X132192914Y-83666666D01*
X132192914Y-83666666D02*
X132240533Y-83761904D01*
X131954819Y-82857142D02*
X131954819Y-82190476D01*
X131954819Y-82190476D02*
X132954819Y-82619047D01*
X137359580Y-67642857D02*
X137407200Y-67690476D01*
X137407200Y-67690476D02*
X137454819Y-67833333D01*
X137454819Y-67833333D02*
X137454819Y-67928571D01*
X137454819Y-67928571D02*
X137407200Y-68071428D01*
X137407200Y-68071428D02*
X137311961Y-68166666D01*
X137311961Y-68166666D02*
X137216723Y-68214285D01*
X137216723Y-68214285D02*
X137026247Y-68261904D01*
X137026247Y-68261904D02*
X136883390Y-68261904D01*
X136883390Y-68261904D02*
X136692914Y-68214285D01*
X136692914Y-68214285D02*
X136597676Y-68166666D01*
X136597676Y-68166666D02*
X136502438Y-68071428D01*
X136502438Y-68071428D02*
X136454819Y-67928571D01*
X136454819Y-67928571D02*
X136454819Y-67833333D01*
X136454819Y-67833333D02*
X136502438Y-67690476D01*
X136502438Y-67690476D02*
X136550057Y-67642857D01*
X136550057Y-67261904D02*
X136502438Y-67214285D01*
X136502438Y-67214285D02*
X136454819Y-67119047D01*
X136454819Y-67119047D02*
X136454819Y-66880952D01*
X136454819Y-66880952D02*
X136502438Y-66785714D01*
X136502438Y-66785714D02*
X136550057Y-66738095D01*
X136550057Y-66738095D02*
X136645295Y-66690476D01*
X136645295Y-66690476D02*
X136740533Y-66690476D01*
X136740533Y-66690476D02*
X136883390Y-66738095D01*
X136883390Y-66738095D02*
X137454819Y-67309523D01*
X137454819Y-67309523D02*
X137454819Y-66690476D01*
X136454819Y-65833333D02*
X136454819Y-66023809D01*
X136454819Y-66023809D02*
X136502438Y-66119047D01*
X136502438Y-66119047D02*
X136550057Y-66166666D01*
X136550057Y-66166666D02*
X136692914Y-66261904D01*
X136692914Y-66261904D02*
X136883390Y-66309523D01*
X136883390Y-66309523D02*
X137264342Y-66309523D01*
X137264342Y-66309523D02*
X137359580Y-66261904D01*
X137359580Y-66261904D02*
X137407200Y-66214285D01*
X137407200Y-66214285D02*
X137454819Y-66119047D01*
X137454819Y-66119047D02*
X137454819Y-65928571D01*
X137454819Y-65928571D02*
X137407200Y-65833333D01*
X137407200Y-65833333D02*
X137359580Y-65785714D01*
X137359580Y-65785714D02*
X137264342Y-65738095D01*
X137264342Y-65738095D02*
X137026247Y-65738095D01*
X137026247Y-65738095D02*
X136931009Y-65785714D01*
X136931009Y-65785714D02*
X136883390Y-65833333D01*
X136883390Y-65833333D02*
X136835771Y-65928571D01*
X136835771Y-65928571D02*
X136835771Y-66119047D01*
X136835771Y-66119047D02*
X136883390Y-66214285D01*
X136883390Y-66214285D02*
X136931009Y-66261904D01*
X136931009Y-66261904D02*
X137026247Y-66309523D01*
X144857142Y-56454819D02*
X144523809Y-55978628D01*
X144285714Y-56454819D02*
X144285714Y-55454819D01*
X144285714Y-55454819D02*
X144666666Y-55454819D01*
X144666666Y-55454819D02*
X144761904Y-55502438D01*
X144761904Y-55502438D02*
X144809523Y-55550057D01*
X144809523Y-55550057D02*
X144857142Y-55645295D01*
X144857142Y-55645295D02*
X144857142Y-55788152D01*
X144857142Y-55788152D02*
X144809523Y-55883390D01*
X144809523Y-55883390D02*
X144761904Y-55931009D01*
X144761904Y-55931009D02*
X144666666Y-55978628D01*
X144666666Y-55978628D02*
X144285714Y-55978628D01*
X145238095Y-55550057D02*
X145285714Y-55502438D01*
X145285714Y-55502438D02*
X145380952Y-55454819D01*
X145380952Y-55454819D02*
X145619047Y-55454819D01*
X145619047Y-55454819D02*
X145714285Y-55502438D01*
X145714285Y-55502438D02*
X145761904Y-55550057D01*
X145761904Y-55550057D02*
X145809523Y-55645295D01*
X145809523Y-55645295D02*
X145809523Y-55740533D01*
X145809523Y-55740533D02*
X145761904Y-55883390D01*
X145761904Y-55883390D02*
X145190476Y-56454819D01*
X145190476Y-56454819D02*
X145809523Y-56454819D01*
X146190476Y-55550057D02*
X146238095Y-55502438D01*
X146238095Y-55502438D02*
X146333333Y-55454819D01*
X146333333Y-55454819D02*
X146571428Y-55454819D01*
X146571428Y-55454819D02*
X146666666Y-55502438D01*
X146666666Y-55502438D02*
X146714285Y-55550057D01*
X146714285Y-55550057D02*
X146761904Y-55645295D01*
X146761904Y-55645295D02*
X146761904Y-55740533D01*
X146761904Y-55740533D02*
X146714285Y-55883390D01*
X146714285Y-55883390D02*
X146142857Y-56454819D01*
X146142857Y-56454819D02*
X146761904Y-56454819D01*
X138859580Y-84142857D02*
X138907200Y-84190476D01*
X138907200Y-84190476D02*
X138954819Y-84333333D01*
X138954819Y-84333333D02*
X138954819Y-84428571D01*
X138954819Y-84428571D02*
X138907200Y-84571428D01*
X138907200Y-84571428D02*
X138811961Y-84666666D01*
X138811961Y-84666666D02*
X138716723Y-84714285D01*
X138716723Y-84714285D02*
X138526247Y-84761904D01*
X138526247Y-84761904D02*
X138383390Y-84761904D01*
X138383390Y-84761904D02*
X138192914Y-84714285D01*
X138192914Y-84714285D02*
X138097676Y-84666666D01*
X138097676Y-84666666D02*
X138002438Y-84571428D01*
X138002438Y-84571428D02*
X137954819Y-84428571D01*
X137954819Y-84428571D02*
X137954819Y-84333333D01*
X137954819Y-84333333D02*
X138002438Y-84190476D01*
X138002438Y-84190476D02*
X138050057Y-84142857D01*
X138954819Y-83190476D02*
X138954819Y-83761904D01*
X138954819Y-83476190D02*
X137954819Y-83476190D01*
X137954819Y-83476190D02*
X138097676Y-83571428D01*
X138097676Y-83571428D02*
X138192914Y-83666666D01*
X138192914Y-83666666D02*
X138240533Y-83761904D01*
X138383390Y-82619047D02*
X138335771Y-82714285D01*
X138335771Y-82714285D02*
X138288152Y-82761904D01*
X138288152Y-82761904D02*
X138192914Y-82809523D01*
X138192914Y-82809523D02*
X138145295Y-82809523D01*
X138145295Y-82809523D02*
X138050057Y-82761904D01*
X138050057Y-82761904D02*
X138002438Y-82714285D01*
X138002438Y-82714285D02*
X137954819Y-82619047D01*
X137954819Y-82619047D02*
X137954819Y-82428571D01*
X137954819Y-82428571D02*
X138002438Y-82333333D01*
X138002438Y-82333333D02*
X138050057Y-82285714D01*
X138050057Y-82285714D02*
X138145295Y-82238095D01*
X138145295Y-82238095D02*
X138192914Y-82238095D01*
X138192914Y-82238095D02*
X138288152Y-82285714D01*
X138288152Y-82285714D02*
X138335771Y-82333333D01*
X138335771Y-82333333D02*
X138383390Y-82428571D01*
X138383390Y-82428571D02*
X138383390Y-82619047D01*
X138383390Y-82619047D02*
X138431009Y-82714285D01*
X138431009Y-82714285D02*
X138478628Y-82761904D01*
X138478628Y-82761904D02*
X138573866Y-82809523D01*
X138573866Y-82809523D02*
X138764342Y-82809523D01*
X138764342Y-82809523D02*
X138859580Y-82761904D01*
X138859580Y-82761904D02*
X138907200Y-82714285D01*
X138907200Y-82714285D02*
X138954819Y-82619047D01*
X138954819Y-82619047D02*
X138954819Y-82428571D01*
X138954819Y-82428571D02*
X138907200Y-82333333D01*
X138907200Y-82333333D02*
X138859580Y-82285714D01*
X138859580Y-82285714D02*
X138764342Y-82238095D01*
X138764342Y-82238095D02*
X138573866Y-82238095D01*
X138573866Y-82238095D02*
X138478628Y-82285714D01*
X138478628Y-82285714D02*
X138431009Y-82333333D01*
X138431009Y-82333333D02*
X138383390Y-82428571D01*
X149704819Y-87142857D02*
X149228628Y-87476190D01*
X149704819Y-87714285D02*
X148704819Y-87714285D01*
X148704819Y-87714285D02*
X148704819Y-87333333D01*
X148704819Y-87333333D02*
X148752438Y-87238095D01*
X148752438Y-87238095D02*
X148800057Y-87190476D01*
X148800057Y-87190476D02*
X148895295Y-87142857D01*
X148895295Y-87142857D02*
X149038152Y-87142857D01*
X149038152Y-87142857D02*
X149133390Y-87190476D01*
X149133390Y-87190476D02*
X149181009Y-87238095D01*
X149181009Y-87238095D02*
X149228628Y-87333333D01*
X149228628Y-87333333D02*
X149228628Y-87714285D01*
X148800057Y-86761904D02*
X148752438Y-86714285D01*
X148752438Y-86714285D02*
X148704819Y-86619047D01*
X148704819Y-86619047D02*
X148704819Y-86380952D01*
X148704819Y-86380952D02*
X148752438Y-86285714D01*
X148752438Y-86285714D02*
X148800057Y-86238095D01*
X148800057Y-86238095D02*
X148895295Y-86190476D01*
X148895295Y-86190476D02*
X148990533Y-86190476D01*
X148990533Y-86190476D02*
X149133390Y-86238095D01*
X149133390Y-86238095D02*
X149704819Y-86809523D01*
X149704819Y-86809523D02*
X149704819Y-86190476D01*
X148704819Y-85857142D02*
X148704819Y-85190476D01*
X148704819Y-85190476D02*
X149704819Y-85619047D01*
X152857142Y-65454819D02*
X152523809Y-64978628D01*
X152285714Y-65454819D02*
X152285714Y-64454819D01*
X152285714Y-64454819D02*
X152666666Y-64454819D01*
X152666666Y-64454819D02*
X152761904Y-64502438D01*
X152761904Y-64502438D02*
X152809523Y-64550057D01*
X152809523Y-64550057D02*
X152857142Y-64645295D01*
X152857142Y-64645295D02*
X152857142Y-64788152D01*
X152857142Y-64788152D02*
X152809523Y-64883390D01*
X152809523Y-64883390D02*
X152761904Y-64931009D01*
X152761904Y-64931009D02*
X152666666Y-64978628D01*
X152666666Y-64978628D02*
X152285714Y-64978628D01*
X153809523Y-65454819D02*
X153238095Y-65454819D01*
X153523809Y-65454819D02*
X153523809Y-64454819D01*
X153523809Y-64454819D02*
X153428571Y-64597676D01*
X153428571Y-64597676D02*
X153333333Y-64692914D01*
X153333333Y-64692914D02*
X153238095Y-64740533D01*
X154142857Y-64454819D02*
X154809523Y-64454819D01*
X154809523Y-64454819D02*
X154380952Y-65454819D01*
X158833333Y-91454819D02*
X158500000Y-90978628D01*
X158261905Y-91454819D02*
X158261905Y-90454819D01*
X158261905Y-90454819D02*
X158642857Y-90454819D01*
X158642857Y-90454819D02*
X158738095Y-90502438D01*
X158738095Y-90502438D02*
X158785714Y-90550057D01*
X158785714Y-90550057D02*
X158833333Y-90645295D01*
X158833333Y-90645295D02*
X158833333Y-90788152D01*
X158833333Y-90788152D02*
X158785714Y-90883390D01*
X158785714Y-90883390D02*
X158738095Y-90931009D01*
X158738095Y-90931009D02*
X158642857Y-90978628D01*
X158642857Y-90978628D02*
X158261905Y-90978628D01*
X159690476Y-90788152D02*
X159690476Y-91454819D01*
X159452381Y-90407200D02*
X159214286Y-91121485D01*
X159214286Y-91121485D02*
X159833333Y-91121485D01*
X137333333Y-107349580D02*
X137285714Y-107397200D01*
X137285714Y-107397200D02*
X137142857Y-107444819D01*
X137142857Y-107444819D02*
X137047619Y-107444819D01*
X137047619Y-107444819D02*
X136904762Y-107397200D01*
X136904762Y-107397200D02*
X136809524Y-107301961D01*
X136809524Y-107301961D02*
X136761905Y-107206723D01*
X136761905Y-107206723D02*
X136714286Y-107016247D01*
X136714286Y-107016247D02*
X136714286Y-106873390D01*
X136714286Y-106873390D02*
X136761905Y-106682914D01*
X136761905Y-106682914D02*
X136809524Y-106587676D01*
X136809524Y-106587676D02*
X136904762Y-106492438D01*
X136904762Y-106492438D02*
X137047619Y-106444819D01*
X137047619Y-106444819D02*
X137142857Y-106444819D01*
X137142857Y-106444819D02*
X137285714Y-106492438D01*
X137285714Y-106492438D02*
X137333333Y-106540057D01*
X137714286Y-106540057D02*
X137761905Y-106492438D01*
X137761905Y-106492438D02*
X137857143Y-106444819D01*
X137857143Y-106444819D02*
X138095238Y-106444819D01*
X138095238Y-106444819D02*
X138190476Y-106492438D01*
X138190476Y-106492438D02*
X138238095Y-106540057D01*
X138238095Y-106540057D02*
X138285714Y-106635295D01*
X138285714Y-106635295D02*
X138285714Y-106730533D01*
X138285714Y-106730533D02*
X138238095Y-106873390D01*
X138238095Y-106873390D02*
X137666667Y-107444819D01*
X137666667Y-107444819D02*
X138285714Y-107444819D01*
X120769642Y-88454819D02*
X120436309Y-87978628D01*
X120198214Y-88454819D02*
X120198214Y-87454819D01*
X120198214Y-87454819D02*
X120579166Y-87454819D01*
X120579166Y-87454819D02*
X120674404Y-87502438D01*
X120674404Y-87502438D02*
X120722023Y-87550057D01*
X120722023Y-87550057D02*
X120769642Y-87645295D01*
X120769642Y-87645295D02*
X120769642Y-87788152D01*
X120769642Y-87788152D02*
X120722023Y-87883390D01*
X120722023Y-87883390D02*
X120674404Y-87931009D01*
X120674404Y-87931009D02*
X120579166Y-87978628D01*
X120579166Y-87978628D02*
X120198214Y-87978628D01*
X121102976Y-87454819D02*
X121722023Y-87454819D01*
X121722023Y-87454819D02*
X121388690Y-87835771D01*
X121388690Y-87835771D02*
X121531547Y-87835771D01*
X121531547Y-87835771D02*
X121626785Y-87883390D01*
X121626785Y-87883390D02*
X121674404Y-87931009D01*
X121674404Y-87931009D02*
X121722023Y-88026247D01*
X121722023Y-88026247D02*
X121722023Y-88264342D01*
X121722023Y-88264342D02*
X121674404Y-88359580D01*
X121674404Y-88359580D02*
X121626785Y-88407200D01*
X121626785Y-88407200D02*
X121531547Y-88454819D01*
X121531547Y-88454819D02*
X121245833Y-88454819D01*
X121245833Y-88454819D02*
X121150595Y-88407200D01*
X121150595Y-88407200D02*
X121102976Y-88359580D01*
X122674404Y-88454819D02*
X122102976Y-88454819D01*
X122388690Y-88454819D02*
X122388690Y-87454819D01*
X122388690Y-87454819D02*
X122293452Y-87597676D01*
X122293452Y-87597676D02*
X122198214Y-87692914D01*
X122198214Y-87692914D02*
X122102976Y-87740533D01*
X158238095Y-131204819D02*
X158238095Y-130204819D01*
X158238095Y-130681009D02*
X158809523Y-130681009D01*
X158809523Y-131204819D02*
X158809523Y-130204819D01*
X159190476Y-130204819D02*
X159809523Y-130204819D01*
X159809523Y-130204819D02*
X159476190Y-130585771D01*
X159476190Y-130585771D02*
X159619047Y-130585771D01*
X159619047Y-130585771D02*
X159714285Y-130633390D01*
X159714285Y-130633390D02*
X159761904Y-130681009D01*
X159761904Y-130681009D02*
X159809523Y-130776247D01*
X159809523Y-130776247D02*
X159809523Y-131014342D01*
X159809523Y-131014342D02*
X159761904Y-131109580D01*
X159761904Y-131109580D02*
X159714285Y-131157200D01*
X159714285Y-131157200D02*
X159619047Y-131204819D01*
X159619047Y-131204819D02*
X159333333Y-131204819D01*
X159333333Y-131204819D02*
X159238095Y-131157200D01*
X159238095Y-131157200D02*
X159190476Y-131109580D01*
X162333333Y-94359580D02*
X162285714Y-94407200D01*
X162285714Y-94407200D02*
X162142857Y-94454819D01*
X162142857Y-94454819D02*
X162047619Y-94454819D01*
X162047619Y-94454819D02*
X161904762Y-94407200D01*
X161904762Y-94407200D02*
X161809524Y-94311961D01*
X161809524Y-94311961D02*
X161761905Y-94216723D01*
X161761905Y-94216723D02*
X161714286Y-94026247D01*
X161714286Y-94026247D02*
X161714286Y-93883390D01*
X161714286Y-93883390D02*
X161761905Y-93692914D01*
X161761905Y-93692914D02*
X161809524Y-93597676D01*
X161809524Y-93597676D02*
X161904762Y-93502438D01*
X161904762Y-93502438D02*
X162047619Y-93454819D01*
X162047619Y-93454819D02*
X162142857Y-93454819D01*
X162142857Y-93454819D02*
X162285714Y-93502438D01*
X162285714Y-93502438D02*
X162333333Y-93550057D01*
X162809524Y-94454819D02*
X163000000Y-94454819D01*
X163000000Y-94454819D02*
X163095238Y-94407200D01*
X163095238Y-94407200D02*
X163142857Y-94359580D01*
X163142857Y-94359580D02*
X163238095Y-94216723D01*
X163238095Y-94216723D02*
X163285714Y-94026247D01*
X163285714Y-94026247D02*
X163285714Y-93645295D01*
X163285714Y-93645295D02*
X163238095Y-93550057D01*
X163238095Y-93550057D02*
X163190476Y-93502438D01*
X163190476Y-93502438D02*
X163095238Y-93454819D01*
X163095238Y-93454819D02*
X162904762Y-93454819D01*
X162904762Y-93454819D02*
X162809524Y-93502438D01*
X162809524Y-93502438D02*
X162761905Y-93550057D01*
X162761905Y-93550057D02*
X162714286Y-93645295D01*
X162714286Y-93645295D02*
X162714286Y-93883390D01*
X162714286Y-93883390D02*
X162761905Y-93978628D01*
X162761905Y-93978628D02*
X162809524Y-94026247D01*
X162809524Y-94026247D02*
X162904762Y-94073866D01*
X162904762Y-94073866D02*
X163095238Y-94073866D01*
X163095238Y-94073866D02*
X163190476Y-94026247D01*
X163190476Y-94026247D02*
X163238095Y-93978628D01*
X163238095Y-93978628D02*
X163285714Y-93883390D01*
X146359580Y-109166666D02*
X146407200Y-109214285D01*
X146407200Y-109214285D02*
X146454819Y-109357142D01*
X146454819Y-109357142D02*
X146454819Y-109452380D01*
X146454819Y-109452380D02*
X146407200Y-109595237D01*
X146407200Y-109595237D02*
X146311961Y-109690475D01*
X146311961Y-109690475D02*
X146216723Y-109738094D01*
X146216723Y-109738094D02*
X146026247Y-109785713D01*
X146026247Y-109785713D02*
X145883390Y-109785713D01*
X145883390Y-109785713D02*
X145692914Y-109738094D01*
X145692914Y-109738094D02*
X145597676Y-109690475D01*
X145597676Y-109690475D02*
X145502438Y-109595237D01*
X145502438Y-109595237D02*
X145454819Y-109452380D01*
X145454819Y-109452380D02*
X145454819Y-109357142D01*
X145454819Y-109357142D02*
X145502438Y-109214285D01*
X145502438Y-109214285D02*
X145550057Y-109166666D01*
X145454819Y-108261904D02*
X145454819Y-108738094D01*
X145454819Y-108738094D02*
X145931009Y-108785713D01*
X145931009Y-108785713D02*
X145883390Y-108738094D01*
X145883390Y-108738094D02*
X145835771Y-108642856D01*
X145835771Y-108642856D02*
X145835771Y-108404761D01*
X145835771Y-108404761D02*
X145883390Y-108309523D01*
X145883390Y-108309523D02*
X145931009Y-108261904D01*
X145931009Y-108261904D02*
X146026247Y-108214285D01*
X146026247Y-108214285D02*
X146264342Y-108214285D01*
X146264342Y-108214285D02*
X146359580Y-108261904D01*
X146359580Y-108261904D02*
X146407200Y-108309523D01*
X146407200Y-108309523D02*
X146454819Y-108404761D01*
X146454819Y-108404761D02*
X146454819Y-108642856D01*
X146454819Y-108642856D02*
X146407200Y-108738094D01*
X146407200Y-108738094D02*
X146359580Y-108785713D01*
X160704819Y-106511904D02*
X160704819Y-105940476D01*
X161704819Y-106226190D02*
X160704819Y-106226190D01*
X161704819Y-105607142D02*
X160704819Y-105607142D01*
X160704819Y-105607142D02*
X160704819Y-105226190D01*
X160704819Y-105226190D02*
X160752438Y-105130952D01*
X160752438Y-105130952D02*
X160800057Y-105083333D01*
X160800057Y-105083333D02*
X160895295Y-105035714D01*
X160895295Y-105035714D02*
X161038152Y-105035714D01*
X161038152Y-105035714D02*
X161133390Y-105083333D01*
X161133390Y-105083333D02*
X161181009Y-105130952D01*
X161181009Y-105130952D02*
X161228628Y-105226190D01*
X161228628Y-105226190D02*
X161228628Y-105607142D01*
X161704819Y-104083333D02*
X161704819Y-104654761D01*
X161704819Y-104369047D02*
X160704819Y-104369047D01*
X160704819Y-104369047D02*
X160847676Y-104464285D01*
X160847676Y-104464285D02*
X160942914Y-104559523D01*
X160942914Y-104559523D02*
X160990533Y-104654761D01*
X147609580Y-87142857D02*
X147657200Y-87190476D01*
X147657200Y-87190476D02*
X147704819Y-87333333D01*
X147704819Y-87333333D02*
X147704819Y-87428571D01*
X147704819Y-87428571D02*
X147657200Y-87571428D01*
X147657200Y-87571428D02*
X147561961Y-87666666D01*
X147561961Y-87666666D02*
X147466723Y-87714285D01*
X147466723Y-87714285D02*
X147276247Y-87761904D01*
X147276247Y-87761904D02*
X147133390Y-87761904D01*
X147133390Y-87761904D02*
X146942914Y-87714285D01*
X146942914Y-87714285D02*
X146847676Y-87666666D01*
X146847676Y-87666666D02*
X146752438Y-87571428D01*
X146752438Y-87571428D02*
X146704819Y-87428571D01*
X146704819Y-87428571D02*
X146704819Y-87333333D01*
X146704819Y-87333333D02*
X146752438Y-87190476D01*
X146752438Y-87190476D02*
X146800057Y-87142857D01*
X147704819Y-86190476D02*
X147704819Y-86761904D01*
X147704819Y-86476190D02*
X146704819Y-86476190D01*
X146704819Y-86476190D02*
X146847676Y-86571428D01*
X146847676Y-86571428D02*
X146942914Y-86666666D01*
X146942914Y-86666666D02*
X146990533Y-86761904D01*
X146800057Y-85809523D02*
X146752438Y-85761904D01*
X146752438Y-85761904D02*
X146704819Y-85666666D01*
X146704819Y-85666666D02*
X146704819Y-85428571D01*
X146704819Y-85428571D02*
X146752438Y-85333333D01*
X146752438Y-85333333D02*
X146800057Y-85285714D01*
X146800057Y-85285714D02*
X146895295Y-85238095D01*
X146895295Y-85238095D02*
X146990533Y-85238095D01*
X146990533Y-85238095D02*
X147133390Y-85285714D01*
X147133390Y-85285714D02*
X147704819Y-85857142D01*
X147704819Y-85857142D02*
X147704819Y-85238095D01*
X126357142Y-77359580D02*
X126309523Y-77407200D01*
X126309523Y-77407200D02*
X126166666Y-77454819D01*
X126166666Y-77454819D02*
X126071428Y-77454819D01*
X126071428Y-77454819D02*
X125928571Y-77407200D01*
X125928571Y-77407200D02*
X125833333Y-77311961D01*
X125833333Y-77311961D02*
X125785714Y-77216723D01*
X125785714Y-77216723D02*
X125738095Y-77026247D01*
X125738095Y-77026247D02*
X125738095Y-76883390D01*
X125738095Y-76883390D02*
X125785714Y-76692914D01*
X125785714Y-76692914D02*
X125833333Y-76597676D01*
X125833333Y-76597676D02*
X125928571Y-76502438D01*
X125928571Y-76502438D02*
X126071428Y-76454819D01*
X126071428Y-76454819D02*
X126166666Y-76454819D01*
X126166666Y-76454819D02*
X126309523Y-76502438D01*
X126309523Y-76502438D02*
X126357142Y-76550057D01*
X126738095Y-76550057D02*
X126785714Y-76502438D01*
X126785714Y-76502438D02*
X126880952Y-76454819D01*
X126880952Y-76454819D02*
X127119047Y-76454819D01*
X127119047Y-76454819D02*
X127214285Y-76502438D01*
X127214285Y-76502438D02*
X127261904Y-76550057D01*
X127261904Y-76550057D02*
X127309523Y-76645295D01*
X127309523Y-76645295D02*
X127309523Y-76740533D01*
X127309523Y-76740533D02*
X127261904Y-76883390D01*
X127261904Y-76883390D02*
X126690476Y-77454819D01*
X126690476Y-77454819D02*
X127309523Y-77454819D01*
X127690476Y-76550057D02*
X127738095Y-76502438D01*
X127738095Y-76502438D02*
X127833333Y-76454819D01*
X127833333Y-76454819D02*
X128071428Y-76454819D01*
X128071428Y-76454819D02*
X128166666Y-76502438D01*
X128166666Y-76502438D02*
X128214285Y-76550057D01*
X128214285Y-76550057D02*
X128261904Y-76645295D01*
X128261904Y-76645295D02*
X128261904Y-76740533D01*
X128261904Y-76740533D02*
X128214285Y-76883390D01*
X128214285Y-76883390D02*
X127642857Y-77454819D01*
X127642857Y-77454819D02*
X128261904Y-77454819D01*
X139454819Y-67642857D02*
X138978628Y-67976190D01*
X139454819Y-68214285D02*
X138454819Y-68214285D01*
X138454819Y-68214285D02*
X138454819Y-67833333D01*
X138454819Y-67833333D02*
X138502438Y-67738095D01*
X138502438Y-67738095D02*
X138550057Y-67690476D01*
X138550057Y-67690476D02*
X138645295Y-67642857D01*
X138645295Y-67642857D02*
X138788152Y-67642857D01*
X138788152Y-67642857D02*
X138883390Y-67690476D01*
X138883390Y-67690476D02*
X138931009Y-67738095D01*
X138931009Y-67738095D02*
X138978628Y-67833333D01*
X138978628Y-67833333D02*
X138978628Y-68214285D01*
X138550057Y-67261904D02*
X138502438Y-67214285D01*
X138502438Y-67214285D02*
X138454819Y-67119047D01*
X138454819Y-67119047D02*
X138454819Y-66880952D01*
X138454819Y-66880952D02*
X138502438Y-66785714D01*
X138502438Y-66785714D02*
X138550057Y-66738095D01*
X138550057Y-66738095D02*
X138645295Y-66690476D01*
X138645295Y-66690476D02*
X138740533Y-66690476D01*
X138740533Y-66690476D02*
X138883390Y-66738095D01*
X138883390Y-66738095D02*
X139454819Y-67309523D01*
X139454819Y-67309523D02*
X139454819Y-66690476D01*
X139454819Y-65738095D02*
X139454819Y-66309523D01*
X139454819Y-66023809D02*
X138454819Y-66023809D01*
X138454819Y-66023809D02*
X138597676Y-66119047D01*
X138597676Y-66119047D02*
X138692914Y-66214285D01*
X138692914Y-66214285D02*
X138740533Y-66309523D01*
X141238095Y-122954819D02*
X141238095Y-123764342D01*
X141238095Y-123764342D02*
X141285714Y-123859580D01*
X141285714Y-123859580D02*
X141333333Y-123907200D01*
X141333333Y-123907200D02*
X141428571Y-123954819D01*
X141428571Y-123954819D02*
X141619047Y-123954819D01*
X141619047Y-123954819D02*
X141714285Y-123907200D01*
X141714285Y-123907200D02*
X141761904Y-123859580D01*
X141761904Y-123859580D02*
X141809523Y-123764342D01*
X141809523Y-123764342D02*
X141809523Y-122954819D01*
X142714285Y-122954819D02*
X142523809Y-122954819D01*
X142523809Y-122954819D02*
X142428571Y-123002438D01*
X142428571Y-123002438D02*
X142380952Y-123050057D01*
X142380952Y-123050057D02*
X142285714Y-123192914D01*
X142285714Y-123192914D02*
X142238095Y-123383390D01*
X142238095Y-123383390D02*
X142238095Y-123764342D01*
X142238095Y-123764342D02*
X142285714Y-123859580D01*
X142285714Y-123859580D02*
X142333333Y-123907200D01*
X142333333Y-123907200D02*
X142428571Y-123954819D01*
X142428571Y-123954819D02*
X142619047Y-123954819D01*
X142619047Y-123954819D02*
X142714285Y-123907200D01*
X142714285Y-123907200D02*
X142761904Y-123859580D01*
X142761904Y-123859580D02*
X142809523Y-123764342D01*
X142809523Y-123764342D02*
X142809523Y-123526247D01*
X142809523Y-123526247D02*
X142761904Y-123431009D01*
X142761904Y-123431009D02*
X142714285Y-123383390D01*
X142714285Y-123383390D02*
X142619047Y-123335771D01*
X142619047Y-123335771D02*
X142428571Y-123335771D01*
X142428571Y-123335771D02*
X142333333Y-123383390D01*
X142333333Y-123383390D02*
X142285714Y-123431009D01*
X142285714Y-123431009D02*
X142238095Y-123526247D01*
X148738095Y-69954819D02*
X148738095Y-70764342D01*
X148738095Y-70764342D02*
X148785714Y-70859580D01*
X148785714Y-70859580D02*
X148833333Y-70907200D01*
X148833333Y-70907200D02*
X148928571Y-70954819D01*
X148928571Y-70954819D02*
X149119047Y-70954819D01*
X149119047Y-70954819D02*
X149214285Y-70907200D01*
X149214285Y-70907200D02*
X149261904Y-70859580D01*
X149261904Y-70859580D02*
X149309523Y-70764342D01*
X149309523Y-70764342D02*
X149309523Y-69954819D01*
X150214285Y-70288152D02*
X150214285Y-70954819D01*
X149976190Y-69907200D02*
X149738095Y-70621485D01*
X149738095Y-70621485D02*
X150357142Y-70621485D01*
X154238095Y-76452819D02*
X154809523Y-76452819D01*
X154523809Y-77452819D02*
X154523809Y-76452819D01*
X155142857Y-77452819D02*
X155142857Y-76452819D01*
X155142857Y-76452819D02*
X155523809Y-76452819D01*
X155523809Y-76452819D02*
X155619047Y-76500438D01*
X155619047Y-76500438D02*
X155666666Y-76548057D01*
X155666666Y-76548057D02*
X155714285Y-76643295D01*
X155714285Y-76643295D02*
X155714285Y-76786152D01*
X155714285Y-76786152D02*
X155666666Y-76881390D01*
X155666666Y-76881390D02*
X155619047Y-76929009D01*
X155619047Y-76929009D02*
X155523809Y-76976628D01*
X155523809Y-76976628D02*
X155142857Y-76976628D01*
X156047619Y-76452819D02*
X156714285Y-76452819D01*
X156714285Y-76452819D02*
X156285714Y-77452819D01*
X140833333Y-99444819D02*
X140500000Y-98968628D01*
X140261905Y-99444819D02*
X140261905Y-98444819D01*
X140261905Y-98444819D02*
X140642857Y-98444819D01*
X140642857Y-98444819D02*
X140738095Y-98492438D01*
X140738095Y-98492438D02*
X140785714Y-98540057D01*
X140785714Y-98540057D02*
X140833333Y-98635295D01*
X140833333Y-98635295D02*
X140833333Y-98778152D01*
X140833333Y-98778152D02*
X140785714Y-98873390D01*
X140785714Y-98873390D02*
X140738095Y-98921009D01*
X140738095Y-98921009D02*
X140642857Y-98968628D01*
X140642857Y-98968628D02*
X140261905Y-98968628D01*
X141785714Y-99444819D02*
X141214286Y-99444819D01*
X141500000Y-99444819D02*
X141500000Y-98444819D01*
X141500000Y-98444819D02*
X141404762Y-98587676D01*
X141404762Y-98587676D02*
X141309524Y-98682914D01*
X141309524Y-98682914D02*
X141214286Y-98730533D01*
X134238095Y-56954819D02*
X134238095Y-57764342D01*
X134238095Y-57764342D02*
X134285714Y-57859580D01*
X134285714Y-57859580D02*
X134333333Y-57907200D01*
X134333333Y-57907200D02*
X134428571Y-57954819D01*
X134428571Y-57954819D02*
X134619047Y-57954819D01*
X134619047Y-57954819D02*
X134714285Y-57907200D01*
X134714285Y-57907200D02*
X134761904Y-57859580D01*
X134761904Y-57859580D02*
X134809523Y-57764342D01*
X134809523Y-57764342D02*
X134809523Y-56954819D01*
X135761904Y-56954819D02*
X135285714Y-56954819D01*
X135285714Y-56954819D02*
X135238095Y-57431009D01*
X135238095Y-57431009D02*
X135285714Y-57383390D01*
X135285714Y-57383390D02*
X135380952Y-57335771D01*
X135380952Y-57335771D02*
X135619047Y-57335771D01*
X135619047Y-57335771D02*
X135714285Y-57383390D01*
X135714285Y-57383390D02*
X135761904Y-57431009D01*
X135761904Y-57431009D02*
X135809523Y-57526247D01*
X135809523Y-57526247D02*
X135809523Y-57764342D01*
X135809523Y-57764342D02*
X135761904Y-57859580D01*
X135761904Y-57859580D02*
X135714285Y-57907200D01*
X135714285Y-57907200D02*
X135619047Y-57954819D01*
X135619047Y-57954819D02*
X135380952Y-57954819D01*
X135380952Y-57954819D02*
X135285714Y-57907200D01*
X135285714Y-57907200D02*
X135238095Y-57859580D01*
X135359580Y-102632857D02*
X135407200Y-102680476D01*
X135407200Y-102680476D02*
X135454819Y-102823333D01*
X135454819Y-102823333D02*
X135454819Y-102918571D01*
X135454819Y-102918571D02*
X135407200Y-103061428D01*
X135407200Y-103061428D02*
X135311961Y-103156666D01*
X135311961Y-103156666D02*
X135216723Y-103204285D01*
X135216723Y-103204285D02*
X135026247Y-103251904D01*
X135026247Y-103251904D02*
X134883390Y-103251904D01*
X134883390Y-103251904D02*
X134692914Y-103204285D01*
X134692914Y-103204285D02*
X134597676Y-103156666D01*
X134597676Y-103156666D02*
X134502438Y-103061428D01*
X134502438Y-103061428D02*
X134454819Y-102918571D01*
X134454819Y-102918571D02*
X134454819Y-102823333D01*
X134454819Y-102823333D02*
X134502438Y-102680476D01*
X134502438Y-102680476D02*
X134550057Y-102632857D01*
X135454819Y-101680476D02*
X135454819Y-102251904D01*
X135454819Y-101966190D02*
X134454819Y-101966190D01*
X134454819Y-101966190D02*
X134597676Y-102061428D01*
X134597676Y-102061428D02*
X134692914Y-102156666D01*
X134692914Y-102156666D02*
X134740533Y-102251904D01*
X134454819Y-100823333D02*
X134454819Y-101013809D01*
X134454819Y-101013809D02*
X134502438Y-101109047D01*
X134502438Y-101109047D02*
X134550057Y-101156666D01*
X134550057Y-101156666D02*
X134692914Y-101251904D01*
X134692914Y-101251904D02*
X134883390Y-101299523D01*
X134883390Y-101299523D02*
X135264342Y-101299523D01*
X135264342Y-101299523D02*
X135359580Y-101251904D01*
X135359580Y-101251904D02*
X135407200Y-101204285D01*
X135407200Y-101204285D02*
X135454819Y-101109047D01*
X135454819Y-101109047D02*
X135454819Y-100918571D01*
X135454819Y-100918571D02*
X135407200Y-100823333D01*
X135407200Y-100823333D02*
X135359580Y-100775714D01*
X135359580Y-100775714D02*
X135264342Y-100728095D01*
X135264342Y-100728095D02*
X135026247Y-100728095D01*
X135026247Y-100728095D02*
X134931009Y-100775714D01*
X134931009Y-100775714D02*
X134883390Y-100823333D01*
X134883390Y-100823333D02*
X134835771Y-100918571D01*
X134835771Y-100918571D02*
X134835771Y-101109047D01*
X134835771Y-101109047D02*
X134883390Y-101204285D01*
X134883390Y-101204285D02*
X134931009Y-101251904D01*
X134931009Y-101251904D02*
X135026247Y-101299523D01*
X120857142Y-94359580D02*
X120809523Y-94407200D01*
X120809523Y-94407200D02*
X120666666Y-94454819D01*
X120666666Y-94454819D02*
X120571428Y-94454819D01*
X120571428Y-94454819D02*
X120428571Y-94407200D01*
X120428571Y-94407200D02*
X120333333Y-94311961D01*
X120333333Y-94311961D02*
X120285714Y-94216723D01*
X120285714Y-94216723D02*
X120238095Y-94026247D01*
X120238095Y-94026247D02*
X120238095Y-93883390D01*
X120238095Y-93883390D02*
X120285714Y-93692914D01*
X120285714Y-93692914D02*
X120333333Y-93597676D01*
X120333333Y-93597676D02*
X120428571Y-93502438D01*
X120428571Y-93502438D02*
X120571428Y-93454819D01*
X120571428Y-93454819D02*
X120666666Y-93454819D01*
X120666666Y-93454819D02*
X120809523Y-93502438D01*
X120809523Y-93502438D02*
X120857142Y-93550057D01*
X121190476Y-93454819D02*
X121809523Y-93454819D01*
X121809523Y-93454819D02*
X121476190Y-93835771D01*
X121476190Y-93835771D02*
X121619047Y-93835771D01*
X121619047Y-93835771D02*
X121714285Y-93883390D01*
X121714285Y-93883390D02*
X121761904Y-93931009D01*
X121761904Y-93931009D02*
X121809523Y-94026247D01*
X121809523Y-94026247D02*
X121809523Y-94264342D01*
X121809523Y-94264342D02*
X121761904Y-94359580D01*
X121761904Y-94359580D02*
X121714285Y-94407200D01*
X121714285Y-94407200D02*
X121619047Y-94454819D01*
X121619047Y-94454819D02*
X121333333Y-94454819D01*
X121333333Y-94454819D02*
X121238095Y-94407200D01*
X121238095Y-94407200D02*
X121190476Y-94359580D01*
X122190476Y-93550057D02*
X122238095Y-93502438D01*
X122238095Y-93502438D02*
X122333333Y-93454819D01*
X122333333Y-93454819D02*
X122571428Y-93454819D01*
X122571428Y-93454819D02*
X122666666Y-93502438D01*
X122666666Y-93502438D02*
X122714285Y-93550057D01*
X122714285Y-93550057D02*
X122761904Y-93645295D01*
X122761904Y-93645295D02*
X122761904Y-93740533D01*
X122761904Y-93740533D02*
X122714285Y-93883390D01*
X122714285Y-93883390D02*
X122142857Y-94454819D01*
X122142857Y-94454819D02*
X122761904Y-94454819D01*
X158357142Y-86359580D02*
X158309523Y-86407200D01*
X158309523Y-86407200D02*
X158166666Y-86454819D01*
X158166666Y-86454819D02*
X158071428Y-86454819D01*
X158071428Y-86454819D02*
X157928571Y-86407200D01*
X157928571Y-86407200D02*
X157833333Y-86311961D01*
X157833333Y-86311961D02*
X157785714Y-86216723D01*
X157785714Y-86216723D02*
X157738095Y-86026247D01*
X157738095Y-86026247D02*
X157738095Y-85883390D01*
X157738095Y-85883390D02*
X157785714Y-85692914D01*
X157785714Y-85692914D02*
X157833333Y-85597676D01*
X157833333Y-85597676D02*
X157928571Y-85502438D01*
X157928571Y-85502438D02*
X158071428Y-85454819D01*
X158071428Y-85454819D02*
X158166666Y-85454819D01*
X158166666Y-85454819D02*
X158309523Y-85502438D01*
X158309523Y-85502438D02*
X158357142Y-85550057D01*
X159309523Y-86454819D02*
X158738095Y-86454819D01*
X159023809Y-86454819D02*
X159023809Y-85454819D01*
X159023809Y-85454819D02*
X158928571Y-85597676D01*
X158928571Y-85597676D02*
X158833333Y-85692914D01*
X158833333Y-85692914D02*
X158738095Y-85740533D01*
X159928571Y-85454819D02*
X160023809Y-85454819D01*
X160023809Y-85454819D02*
X160119047Y-85502438D01*
X160119047Y-85502438D02*
X160166666Y-85550057D01*
X160166666Y-85550057D02*
X160214285Y-85645295D01*
X160214285Y-85645295D02*
X160261904Y-85835771D01*
X160261904Y-85835771D02*
X160261904Y-86073866D01*
X160261904Y-86073866D02*
X160214285Y-86264342D01*
X160214285Y-86264342D02*
X160166666Y-86359580D01*
X160166666Y-86359580D02*
X160119047Y-86407200D01*
X160119047Y-86407200D02*
X160023809Y-86454819D01*
X160023809Y-86454819D02*
X159928571Y-86454819D01*
X159928571Y-86454819D02*
X159833333Y-86407200D01*
X159833333Y-86407200D02*
X159785714Y-86359580D01*
X159785714Y-86359580D02*
X159738095Y-86264342D01*
X159738095Y-86264342D02*
X159690476Y-86073866D01*
X159690476Y-86073866D02*
X159690476Y-85835771D01*
X159690476Y-85835771D02*
X159738095Y-85645295D01*
X159738095Y-85645295D02*
X159785714Y-85550057D01*
X159785714Y-85550057D02*
X159833333Y-85502438D01*
X159833333Y-85502438D02*
X159928571Y-85454819D01*
X133357142Y-93349580D02*
X133309523Y-93397200D01*
X133309523Y-93397200D02*
X133166666Y-93444819D01*
X133166666Y-93444819D02*
X133071428Y-93444819D01*
X133071428Y-93444819D02*
X132928571Y-93397200D01*
X132928571Y-93397200D02*
X132833333Y-93301961D01*
X132833333Y-93301961D02*
X132785714Y-93206723D01*
X132785714Y-93206723D02*
X132738095Y-93016247D01*
X132738095Y-93016247D02*
X132738095Y-92873390D01*
X132738095Y-92873390D02*
X132785714Y-92682914D01*
X132785714Y-92682914D02*
X132833333Y-92587676D01*
X132833333Y-92587676D02*
X132928571Y-92492438D01*
X132928571Y-92492438D02*
X133071428Y-92444819D01*
X133071428Y-92444819D02*
X133166666Y-92444819D01*
X133166666Y-92444819D02*
X133309523Y-92492438D01*
X133309523Y-92492438D02*
X133357142Y-92540057D01*
X134309523Y-93444819D02*
X133738095Y-93444819D01*
X134023809Y-93444819D02*
X134023809Y-92444819D01*
X134023809Y-92444819D02*
X133928571Y-92587676D01*
X133928571Y-92587676D02*
X133833333Y-92682914D01*
X133833333Y-92682914D02*
X133738095Y-92730533D01*
X134642857Y-92444819D02*
X135261904Y-92444819D01*
X135261904Y-92444819D02*
X134928571Y-92825771D01*
X134928571Y-92825771D02*
X135071428Y-92825771D01*
X135071428Y-92825771D02*
X135166666Y-92873390D01*
X135166666Y-92873390D02*
X135214285Y-92921009D01*
X135214285Y-92921009D02*
X135261904Y-93016247D01*
X135261904Y-93016247D02*
X135261904Y-93254342D01*
X135261904Y-93254342D02*
X135214285Y-93349580D01*
X135214285Y-93349580D02*
X135166666Y-93397200D01*
X135166666Y-93397200D02*
X135071428Y-93444819D01*
X135071428Y-93444819D02*
X134785714Y-93444819D01*
X134785714Y-93444819D02*
X134690476Y-93397200D01*
X134690476Y-93397200D02*
X134642857Y-93349580D01*
X141023810Y-113954819D02*
X141023810Y-112954819D01*
X142071428Y-113859580D02*
X142023809Y-113907200D01*
X142023809Y-113907200D02*
X141880952Y-113954819D01*
X141880952Y-113954819D02*
X141785714Y-113954819D01*
X141785714Y-113954819D02*
X141642857Y-113907200D01*
X141642857Y-113907200D02*
X141547619Y-113811961D01*
X141547619Y-113811961D02*
X141500000Y-113716723D01*
X141500000Y-113716723D02*
X141452381Y-113526247D01*
X141452381Y-113526247D02*
X141452381Y-113383390D01*
X141452381Y-113383390D02*
X141500000Y-113192914D01*
X141500000Y-113192914D02*
X141547619Y-113097676D01*
X141547619Y-113097676D02*
X141642857Y-113002438D01*
X141642857Y-113002438D02*
X141785714Y-112954819D01*
X141785714Y-112954819D02*
X141880952Y-112954819D01*
X141880952Y-112954819D02*
X142023809Y-113002438D01*
X142023809Y-113002438D02*
X142071428Y-113050057D01*
X143023809Y-113954819D02*
X142452381Y-113954819D01*
X142738095Y-113954819D02*
X142738095Y-112954819D01*
X142738095Y-112954819D02*
X142642857Y-113097676D01*
X142642857Y-113097676D02*
X142547619Y-113192914D01*
X142547619Y-113192914D02*
X142452381Y-113240533D01*
X140833333Y-97444819D02*
X140500000Y-96968628D01*
X140261905Y-97444819D02*
X140261905Y-96444819D01*
X140261905Y-96444819D02*
X140642857Y-96444819D01*
X140642857Y-96444819D02*
X140738095Y-96492438D01*
X140738095Y-96492438D02*
X140785714Y-96540057D01*
X140785714Y-96540057D02*
X140833333Y-96635295D01*
X140833333Y-96635295D02*
X140833333Y-96778152D01*
X140833333Y-96778152D02*
X140785714Y-96873390D01*
X140785714Y-96873390D02*
X140738095Y-96921009D01*
X140738095Y-96921009D02*
X140642857Y-96968628D01*
X140642857Y-96968628D02*
X140261905Y-96968628D01*
X141166667Y-96444819D02*
X141833333Y-96444819D01*
X141833333Y-96444819D02*
X141404762Y-97444819D01*
X152857142Y-71384819D02*
X152523809Y-70908628D01*
X152285714Y-71384819D02*
X152285714Y-70384819D01*
X152285714Y-70384819D02*
X152666666Y-70384819D01*
X152666666Y-70384819D02*
X152761904Y-70432438D01*
X152761904Y-70432438D02*
X152809523Y-70480057D01*
X152809523Y-70480057D02*
X152857142Y-70575295D01*
X152857142Y-70575295D02*
X152857142Y-70718152D01*
X152857142Y-70718152D02*
X152809523Y-70813390D01*
X152809523Y-70813390D02*
X152761904Y-70861009D01*
X152761904Y-70861009D02*
X152666666Y-70908628D01*
X152666666Y-70908628D02*
X152285714Y-70908628D01*
X153809523Y-71384819D02*
X153238095Y-71384819D01*
X153523809Y-71384819D02*
X153523809Y-70384819D01*
X153523809Y-70384819D02*
X153428571Y-70527676D01*
X153428571Y-70527676D02*
X153333333Y-70622914D01*
X153333333Y-70622914D02*
X153238095Y-70670533D01*
X154666666Y-70384819D02*
X154476190Y-70384819D01*
X154476190Y-70384819D02*
X154380952Y-70432438D01*
X154380952Y-70432438D02*
X154333333Y-70480057D01*
X154333333Y-70480057D02*
X154238095Y-70622914D01*
X154238095Y-70622914D02*
X154190476Y-70813390D01*
X154190476Y-70813390D02*
X154190476Y-71194342D01*
X154190476Y-71194342D02*
X154238095Y-71289580D01*
X154238095Y-71289580D02*
X154285714Y-71337200D01*
X154285714Y-71337200D02*
X154380952Y-71384819D01*
X154380952Y-71384819D02*
X154571428Y-71384819D01*
X154571428Y-71384819D02*
X154666666Y-71337200D01*
X154666666Y-71337200D02*
X154714285Y-71289580D01*
X154714285Y-71289580D02*
X154761904Y-71194342D01*
X154761904Y-71194342D02*
X154761904Y-70956247D01*
X154761904Y-70956247D02*
X154714285Y-70861009D01*
X154714285Y-70861009D02*
X154666666Y-70813390D01*
X154666666Y-70813390D02*
X154571428Y-70765771D01*
X154571428Y-70765771D02*
X154380952Y-70765771D01*
X154380952Y-70765771D02*
X154285714Y-70813390D01*
X154285714Y-70813390D02*
X154238095Y-70861009D01*
X154238095Y-70861009D02*
X154190476Y-70956247D01*
X124238095Y-131204819D02*
X124238095Y-130204819D01*
X124238095Y-130681009D02*
X124809523Y-130681009D01*
X124809523Y-131204819D02*
X124809523Y-130204819D01*
X125714285Y-130538152D02*
X125714285Y-131204819D01*
X125476190Y-130157200D02*
X125238095Y-130871485D01*
X125238095Y-130871485D02*
X125857142Y-130871485D01*
X137833333Y-73454819D02*
X137357143Y-73454819D01*
X137357143Y-73454819D02*
X137357143Y-72454819D01*
X138690476Y-73454819D02*
X138119048Y-73454819D01*
X138404762Y-73454819D02*
X138404762Y-72454819D01*
X138404762Y-72454819D02*
X138309524Y-72597676D01*
X138309524Y-72597676D02*
X138214286Y-72692914D01*
X138214286Y-72692914D02*
X138119048Y-72740533D01*
X120857142Y-92454819D02*
X120523809Y-91978628D01*
X120285714Y-92454819D02*
X120285714Y-91454819D01*
X120285714Y-91454819D02*
X120666666Y-91454819D01*
X120666666Y-91454819D02*
X120761904Y-91502438D01*
X120761904Y-91502438D02*
X120809523Y-91550057D01*
X120809523Y-91550057D02*
X120857142Y-91645295D01*
X120857142Y-91645295D02*
X120857142Y-91788152D01*
X120857142Y-91788152D02*
X120809523Y-91883390D01*
X120809523Y-91883390D02*
X120761904Y-91931009D01*
X120761904Y-91931009D02*
X120666666Y-91978628D01*
X120666666Y-91978628D02*
X120285714Y-91978628D01*
X121238095Y-91550057D02*
X121285714Y-91502438D01*
X121285714Y-91502438D02*
X121380952Y-91454819D01*
X121380952Y-91454819D02*
X121619047Y-91454819D01*
X121619047Y-91454819D02*
X121714285Y-91502438D01*
X121714285Y-91502438D02*
X121761904Y-91550057D01*
X121761904Y-91550057D02*
X121809523Y-91645295D01*
X121809523Y-91645295D02*
X121809523Y-91740533D01*
X121809523Y-91740533D02*
X121761904Y-91883390D01*
X121761904Y-91883390D02*
X121190476Y-92454819D01*
X121190476Y-92454819D02*
X121809523Y-92454819D01*
X122285714Y-92454819D02*
X122476190Y-92454819D01*
X122476190Y-92454819D02*
X122571428Y-92407200D01*
X122571428Y-92407200D02*
X122619047Y-92359580D01*
X122619047Y-92359580D02*
X122714285Y-92216723D01*
X122714285Y-92216723D02*
X122761904Y-92026247D01*
X122761904Y-92026247D02*
X122761904Y-91645295D01*
X122761904Y-91645295D02*
X122714285Y-91550057D01*
X122714285Y-91550057D02*
X122666666Y-91502438D01*
X122666666Y-91502438D02*
X122571428Y-91454819D01*
X122571428Y-91454819D02*
X122380952Y-91454819D01*
X122380952Y-91454819D02*
X122285714Y-91502438D01*
X122285714Y-91502438D02*
X122238095Y-91550057D01*
X122238095Y-91550057D02*
X122190476Y-91645295D01*
X122190476Y-91645295D02*
X122190476Y-91883390D01*
X122190476Y-91883390D02*
X122238095Y-91978628D01*
X122238095Y-91978628D02*
X122285714Y-92026247D01*
X122285714Y-92026247D02*
X122380952Y-92073866D01*
X122380952Y-92073866D02*
X122571428Y-92073866D01*
X122571428Y-92073866D02*
X122666666Y-92026247D01*
X122666666Y-92026247D02*
X122714285Y-91978628D01*
X122714285Y-91978628D02*
X122761904Y-91883390D01*
X137359580Y-71142857D02*
X137407200Y-71190476D01*
X137407200Y-71190476D02*
X137454819Y-71333333D01*
X137454819Y-71333333D02*
X137454819Y-71428571D01*
X137454819Y-71428571D02*
X137407200Y-71571428D01*
X137407200Y-71571428D02*
X137311961Y-71666666D01*
X137311961Y-71666666D02*
X137216723Y-71714285D01*
X137216723Y-71714285D02*
X137026247Y-71761904D01*
X137026247Y-71761904D02*
X136883390Y-71761904D01*
X136883390Y-71761904D02*
X136692914Y-71714285D01*
X136692914Y-71714285D02*
X136597676Y-71666666D01*
X136597676Y-71666666D02*
X136502438Y-71571428D01*
X136502438Y-71571428D02*
X136454819Y-71428571D01*
X136454819Y-71428571D02*
X136454819Y-71333333D01*
X136454819Y-71333333D02*
X136502438Y-71190476D01*
X136502438Y-71190476D02*
X136550057Y-71142857D01*
X136550057Y-70761904D02*
X136502438Y-70714285D01*
X136502438Y-70714285D02*
X136454819Y-70619047D01*
X136454819Y-70619047D02*
X136454819Y-70380952D01*
X136454819Y-70380952D02*
X136502438Y-70285714D01*
X136502438Y-70285714D02*
X136550057Y-70238095D01*
X136550057Y-70238095D02*
X136645295Y-70190476D01*
X136645295Y-70190476D02*
X136740533Y-70190476D01*
X136740533Y-70190476D02*
X136883390Y-70238095D01*
X136883390Y-70238095D02*
X137454819Y-70809523D01*
X137454819Y-70809523D02*
X137454819Y-70190476D01*
X136454819Y-69571428D02*
X136454819Y-69476190D01*
X136454819Y-69476190D02*
X136502438Y-69380952D01*
X136502438Y-69380952D02*
X136550057Y-69333333D01*
X136550057Y-69333333D02*
X136645295Y-69285714D01*
X136645295Y-69285714D02*
X136835771Y-69238095D01*
X136835771Y-69238095D02*
X137073866Y-69238095D01*
X137073866Y-69238095D02*
X137264342Y-69285714D01*
X137264342Y-69285714D02*
X137359580Y-69333333D01*
X137359580Y-69333333D02*
X137407200Y-69380952D01*
X137407200Y-69380952D02*
X137454819Y-69476190D01*
X137454819Y-69476190D02*
X137454819Y-69571428D01*
X137454819Y-69571428D02*
X137407200Y-69666666D01*
X137407200Y-69666666D02*
X137359580Y-69714285D01*
X137359580Y-69714285D02*
X137264342Y-69761904D01*
X137264342Y-69761904D02*
X137073866Y-69809523D01*
X137073866Y-69809523D02*
X136835771Y-69809523D01*
X136835771Y-69809523D02*
X136645295Y-69761904D01*
X136645295Y-69761904D02*
X136550057Y-69714285D01*
X136550057Y-69714285D02*
X136502438Y-69666666D01*
X136502438Y-69666666D02*
X136454819Y-69571428D01*
X148707142Y-121859580D02*
X148659523Y-121907200D01*
X148659523Y-121907200D02*
X148516666Y-121954819D01*
X148516666Y-121954819D02*
X148421428Y-121954819D01*
X148421428Y-121954819D02*
X148278571Y-121907200D01*
X148278571Y-121907200D02*
X148183333Y-121811961D01*
X148183333Y-121811961D02*
X148135714Y-121716723D01*
X148135714Y-121716723D02*
X148088095Y-121526247D01*
X148088095Y-121526247D02*
X148088095Y-121383390D01*
X148088095Y-121383390D02*
X148135714Y-121192914D01*
X148135714Y-121192914D02*
X148183333Y-121097676D01*
X148183333Y-121097676D02*
X148278571Y-121002438D01*
X148278571Y-121002438D02*
X148421428Y-120954819D01*
X148421428Y-120954819D02*
X148516666Y-120954819D01*
X148516666Y-120954819D02*
X148659523Y-121002438D01*
X148659523Y-121002438D02*
X148707142Y-121050057D01*
X149040476Y-120954819D02*
X149659523Y-120954819D01*
X149659523Y-120954819D02*
X149326190Y-121335771D01*
X149326190Y-121335771D02*
X149469047Y-121335771D01*
X149469047Y-121335771D02*
X149564285Y-121383390D01*
X149564285Y-121383390D02*
X149611904Y-121431009D01*
X149611904Y-121431009D02*
X149659523Y-121526247D01*
X149659523Y-121526247D02*
X149659523Y-121764342D01*
X149659523Y-121764342D02*
X149611904Y-121859580D01*
X149611904Y-121859580D02*
X149564285Y-121907200D01*
X149564285Y-121907200D02*
X149469047Y-121954819D01*
X149469047Y-121954819D02*
X149183333Y-121954819D01*
X149183333Y-121954819D02*
X149088095Y-121907200D01*
X149088095Y-121907200D02*
X149040476Y-121859580D01*
X150278571Y-120954819D02*
X150373809Y-120954819D01*
X150373809Y-120954819D02*
X150469047Y-121002438D01*
X150469047Y-121002438D02*
X150516666Y-121050057D01*
X150516666Y-121050057D02*
X150564285Y-121145295D01*
X150564285Y-121145295D02*
X150611904Y-121335771D01*
X150611904Y-121335771D02*
X150611904Y-121573866D01*
X150611904Y-121573866D02*
X150564285Y-121764342D01*
X150564285Y-121764342D02*
X150516666Y-121859580D01*
X150516666Y-121859580D02*
X150469047Y-121907200D01*
X150469047Y-121907200D02*
X150373809Y-121954819D01*
X150373809Y-121954819D02*
X150278571Y-121954819D01*
X150278571Y-121954819D02*
X150183333Y-121907200D01*
X150183333Y-121907200D02*
X150135714Y-121859580D01*
X150135714Y-121859580D02*
X150088095Y-121764342D01*
X150088095Y-121764342D02*
X150040476Y-121573866D01*
X150040476Y-121573866D02*
X150040476Y-121335771D01*
X150040476Y-121335771D02*
X150088095Y-121145295D01*
X150088095Y-121145295D02*
X150135714Y-121050057D01*
X150135714Y-121050057D02*
X150183333Y-121002438D01*
X150183333Y-121002438D02*
X150278571Y-120954819D01*
X136859580Y-84142857D02*
X136907200Y-84190476D01*
X136907200Y-84190476D02*
X136954819Y-84333333D01*
X136954819Y-84333333D02*
X136954819Y-84428571D01*
X136954819Y-84428571D02*
X136907200Y-84571428D01*
X136907200Y-84571428D02*
X136811961Y-84666666D01*
X136811961Y-84666666D02*
X136716723Y-84714285D01*
X136716723Y-84714285D02*
X136526247Y-84761904D01*
X136526247Y-84761904D02*
X136383390Y-84761904D01*
X136383390Y-84761904D02*
X136192914Y-84714285D01*
X136192914Y-84714285D02*
X136097676Y-84666666D01*
X136097676Y-84666666D02*
X136002438Y-84571428D01*
X136002438Y-84571428D02*
X135954819Y-84428571D01*
X135954819Y-84428571D02*
X135954819Y-84333333D01*
X135954819Y-84333333D02*
X136002438Y-84190476D01*
X136002438Y-84190476D02*
X136050057Y-84142857D01*
X136954819Y-83190476D02*
X136954819Y-83761904D01*
X136954819Y-83476190D02*
X135954819Y-83476190D01*
X135954819Y-83476190D02*
X136097676Y-83571428D01*
X136097676Y-83571428D02*
X136192914Y-83666666D01*
X136192914Y-83666666D02*
X136240533Y-83761904D01*
X136954819Y-82714285D02*
X136954819Y-82523809D01*
X136954819Y-82523809D02*
X136907200Y-82428571D01*
X136907200Y-82428571D02*
X136859580Y-82380952D01*
X136859580Y-82380952D02*
X136716723Y-82285714D01*
X136716723Y-82285714D02*
X136526247Y-82238095D01*
X136526247Y-82238095D02*
X136145295Y-82238095D01*
X136145295Y-82238095D02*
X136050057Y-82285714D01*
X136050057Y-82285714D02*
X136002438Y-82333333D01*
X136002438Y-82333333D02*
X135954819Y-82428571D01*
X135954819Y-82428571D02*
X135954819Y-82619047D01*
X135954819Y-82619047D02*
X136002438Y-82714285D01*
X136002438Y-82714285D02*
X136050057Y-82761904D01*
X136050057Y-82761904D02*
X136145295Y-82809523D01*
X136145295Y-82809523D02*
X136383390Y-82809523D01*
X136383390Y-82809523D02*
X136478628Y-82761904D01*
X136478628Y-82761904D02*
X136526247Y-82714285D01*
X136526247Y-82714285D02*
X136573866Y-82619047D01*
X136573866Y-82619047D02*
X136573866Y-82428571D01*
X136573866Y-82428571D02*
X136526247Y-82333333D01*
X136526247Y-82333333D02*
X136478628Y-82285714D01*
X136478628Y-82285714D02*
X136383390Y-82238095D01*
X162333333Y-100454819D02*
X162000000Y-99978628D01*
X161761905Y-100454819D02*
X161761905Y-99454819D01*
X161761905Y-99454819D02*
X162142857Y-99454819D01*
X162142857Y-99454819D02*
X162238095Y-99502438D01*
X162238095Y-99502438D02*
X162285714Y-99550057D01*
X162285714Y-99550057D02*
X162333333Y-99645295D01*
X162333333Y-99645295D02*
X162333333Y-99788152D01*
X162333333Y-99788152D02*
X162285714Y-99883390D01*
X162285714Y-99883390D02*
X162238095Y-99931009D01*
X162238095Y-99931009D02*
X162142857Y-99978628D01*
X162142857Y-99978628D02*
X161761905Y-99978628D01*
X162666667Y-99454819D02*
X163285714Y-99454819D01*
X163285714Y-99454819D02*
X162952381Y-99835771D01*
X162952381Y-99835771D02*
X163095238Y-99835771D01*
X163095238Y-99835771D02*
X163190476Y-99883390D01*
X163190476Y-99883390D02*
X163238095Y-99931009D01*
X163238095Y-99931009D02*
X163285714Y-100026247D01*
X163285714Y-100026247D02*
X163285714Y-100264342D01*
X163285714Y-100264342D02*
X163238095Y-100359580D01*
X163238095Y-100359580D02*
X163190476Y-100407200D01*
X163190476Y-100407200D02*
X163095238Y-100454819D01*
X163095238Y-100454819D02*
X162809524Y-100454819D01*
X162809524Y-100454819D02*
X162714286Y-100407200D01*
X162714286Y-100407200D02*
X162666667Y-100359580D01*
X124238095Y-59454819D02*
X124238095Y-58454819D01*
X124238095Y-58931009D02*
X124809523Y-58931009D01*
X124809523Y-59454819D02*
X124809523Y-58454819D01*
X125809523Y-59454819D02*
X125238095Y-59454819D01*
X125523809Y-59454819D02*
X125523809Y-58454819D01*
X125523809Y-58454819D02*
X125428571Y-58597676D01*
X125428571Y-58597676D02*
X125333333Y-58692914D01*
X125333333Y-58692914D02*
X125238095Y-58740533D01*
X148707142Y-123859580D02*
X148659523Y-123907200D01*
X148659523Y-123907200D02*
X148516666Y-123954819D01*
X148516666Y-123954819D02*
X148421428Y-123954819D01*
X148421428Y-123954819D02*
X148278571Y-123907200D01*
X148278571Y-123907200D02*
X148183333Y-123811961D01*
X148183333Y-123811961D02*
X148135714Y-123716723D01*
X148135714Y-123716723D02*
X148088095Y-123526247D01*
X148088095Y-123526247D02*
X148088095Y-123383390D01*
X148088095Y-123383390D02*
X148135714Y-123192914D01*
X148135714Y-123192914D02*
X148183333Y-123097676D01*
X148183333Y-123097676D02*
X148278571Y-123002438D01*
X148278571Y-123002438D02*
X148421428Y-122954819D01*
X148421428Y-122954819D02*
X148516666Y-122954819D01*
X148516666Y-122954819D02*
X148659523Y-123002438D01*
X148659523Y-123002438D02*
X148707142Y-123050057D01*
X149040476Y-122954819D02*
X149659523Y-122954819D01*
X149659523Y-122954819D02*
X149326190Y-123335771D01*
X149326190Y-123335771D02*
X149469047Y-123335771D01*
X149469047Y-123335771D02*
X149564285Y-123383390D01*
X149564285Y-123383390D02*
X149611904Y-123431009D01*
X149611904Y-123431009D02*
X149659523Y-123526247D01*
X149659523Y-123526247D02*
X149659523Y-123764342D01*
X149659523Y-123764342D02*
X149611904Y-123859580D01*
X149611904Y-123859580D02*
X149564285Y-123907200D01*
X149564285Y-123907200D02*
X149469047Y-123954819D01*
X149469047Y-123954819D02*
X149183333Y-123954819D01*
X149183333Y-123954819D02*
X149088095Y-123907200D01*
X149088095Y-123907200D02*
X149040476Y-123859580D01*
X150611904Y-123954819D02*
X150040476Y-123954819D01*
X150326190Y-123954819D02*
X150326190Y-122954819D01*
X150326190Y-122954819D02*
X150230952Y-123097676D01*
X150230952Y-123097676D02*
X150135714Y-123192914D01*
X150135714Y-123192914D02*
X150040476Y-123240533D01*
X140833333Y-101444819D02*
X140500000Y-100968628D01*
X140261905Y-101444819D02*
X140261905Y-100444819D01*
X140261905Y-100444819D02*
X140642857Y-100444819D01*
X140642857Y-100444819D02*
X140738095Y-100492438D01*
X140738095Y-100492438D02*
X140785714Y-100540057D01*
X140785714Y-100540057D02*
X140833333Y-100635295D01*
X140833333Y-100635295D02*
X140833333Y-100778152D01*
X140833333Y-100778152D02*
X140785714Y-100873390D01*
X140785714Y-100873390D02*
X140738095Y-100921009D01*
X140738095Y-100921009D02*
X140642857Y-100968628D01*
X140642857Y-100968628D02*
X140261905Y-100968628D01*
X141214286Y-100540057D02*
X141261905Y-100492438D01*
X141261905Y-100492438D02*
X141357143Y-100444819D01*
X141357143Y-100444819D02*
X141595238Y-100444819D01*
X141595238Y-100444819D02*
X141690476Y-100492438D01*
X141690476Y-100492438D02*
X141738095Y-100540057D01*
X141738095Y-100540057D02*
X141785714Y-100635295D01*
X141785714Y-100635295D02*
X141785714Y-100730533D01*
X141785714Y-100730533D02*
X141738095Y-100873390D01*
X141738095Y-100873390D02*
X141166667Y-101444819D01*
X141166667Y-101444819D02*
X141785714Y-101444819D01*
X151214286Y-55454819D02*
X151785714Y-55454819D01*
X151500000Y-56454819D02*
X151500000Y-55454819D01*
X152119048Y-56454819D02*
X152119048Y-55454819D01*
X152119048Y-55931009D02*
X152690476Y-55931009D01*
X152690476Y-56454819D02*
X152690476Y-55454819D01*
X153690476Y-56454819D02*
X153119048Y-56454819D01*
X153404762Y-56454819D02*
X153404762Y-55454819D01*
X153404762Y-55454819D02*
X153309524Y-55597676D01*
X153309524Y-55597676D02*
X153214286Y-55692914D01*
X153214286Y-55692914D02*
X153119048Y-55740533D01*
X132954819Y-60738094D02*
X131954819Y-60738094D01*
X131954819Y-60738094D02*
X131954819Y-60499999D01*
X131954819Y-60499999D02*
X132002438Y-60357142D01*
X132002438Y-60357142D02*
X132097676Y-60261904D01*
X132097676Y-60261904D02*
X132192914Y-60214285D01*
X132192914Y-60214285D02*
X132383390Y-60166666D01*
X132383390Y-60166666D02*
X132526247Y-60166666D01*
X132526247Y-60166666D02*
X132716723Y-60214285D01*
X132716723Y-60214285D02*
X132811961Y-60261904D01*
X132811961Y-60261904D02*
X132907200Y-60357142D01*
X132907200Y-60357142D02*
X132954819Y-60499999D01*
X132954819Y-60499999D02*
X132954819Y-60738094D01*
X131954819Y-59833332D02*
X131954819Y-59214285D01*
X131954819Y-59214285D02*
X132335771Y-59547618D01*
X132335771Y-59547618D02*
X132335771Y-59404761D01*
X132335771Y-59404761D02*
X132383390Y-59309523D01*
X132383390Y-59309523D02*
X132431009Y-59261904D01*
X132431009Y-59261904D02*
X132526247Y-59214285D01*
X132526247Y-59214285D02*
X132764342Y-59214285D01*
X132764342Y-59214285D02*
X132859580Y-59261904D01*
X132859580Y-59261904D02*
X132907200Y-59309523D01*
X132907200Y-59309523D02*
X132954819Y-59404761D01*
X132954819Y-59404761D02*
X132954819Y-59690475D01*
X132954819Y-59690475D02*
X132907200Y-59785713D01*
X132907200Y-59785713D02*
X132859580Y-59833332D01*
X132666667Y-87407200D02*
X132809524Y-87454819D01*
X132809524Y-87454819D02*
X133047619Y-87454819D01*
X133047619Y-87454819D02*
X133142857Y-87407200D01*
X133142857Y-87407200D02*
X133190476Y-87359580D01*
X133190476Y-87359580D02*
X133238095Y-87264342D01*
X133238095Y-87264342D02*
X133238095Y-87169104D01*
X133238095Y-87169104D02*
X133190476Y-87073866D01*
X133190476Y-87073866D02*
X133142857Y-87026247D01*
X133142857Y-87026247D02*
X133047619Y-86978628D01*
X133047619Y-86978628D02*
X132857143Y-86931009D01*
X132857143Y-86931009D02*
X132761905Y-86883390D01*
X132761905Y-86883390D02*
X132714286Y-86835771D01*
X132714286Y-86835771D02*
X132666667Y-86740533D01*
X132666667Y-86740533D02*
X132666667Y-86645295D01*
X132666667Y-86645295D02*
X132714286Y-86550057D01*
X132714286Y-86550057D02*
X132761905Y-86502438D01*
X132761905Y-86502438D02*
X132857143Y-86454819D01*
X132857143Y-86454819D02*
X133095238Y-86454819D01*
X133095238Y-86454819D02*
X133238095Y-86502438D01*
X133571429Y-86454819D02*
X133809524Y-87454819D01*
X133809524Y-87454819D02*
X134000000Y-86740533D01*
X134000000Y-86740533D02*
X134190476Y-87454819D01*
X134190476Y-87454819D02*
X134428572Y-86454819D01*
X135333333Y-87454819D02*
X134761905Y-87454819D01*
X135047619Y-87454819D02*
X135047619Y-86454819D01*
X135047619Y-86454819D02*
X134952381Y-86597676D01*
X134952381Y-86597676D02*
X134857143Y-86692914D01*
X134857143Y-86692914D02*
X134761905Y-86740533D01*
X130359580Y-102632857D02*
X130407200Y-102680476D01*
X130407200Y-102680476D02*
X130454819Y-102823333D01*
X130454819Y-102823333D02*
X130454819Y-102918571D01*
X130454819Y-102918571D02*
X130407200Y-103061428D01*
X130407200Y-103061428D02*
X130311961Y-103156666D01*
X130311961Y-103156666D02*
X130216723Y-103204285D01*
X130216723Y-103204285D02*
X130026247Y-103251904D01*
X130026247Y-103251904D02*
X129883390Y-103251904D01*
X129883390Y-103251904D02*
X129692914Y-103204285D01*
X129692914Y-103204285D02*
X129597676Y-103156666D01*
X129597676Y-103156666D02*
X129502438Y-103061428D01*
X129502438Y-103061428D02*
X129454819Y-102918571D01*
X129454819Y-102918571D02*
X129454819Y-102823333D01*
X129454819Y-102823333D02*
X129502438Y-102680476D01*
X129502438Y-102680476D02*
X129550057Y-102632857D01*
X130454819Y-101680476D02*
X130454819Y-102251904D01*
X130454819Y-101966190D02*
X129454819Y-101966190D01*
X129454819Y-101966190D02*
X129597676Y-102061428D01*
X129597676Y-102061428D02*
X129692914Y-102156666D01*
X129692914Y-102156666D02*
X129740533Y-102251904D01*
X129454819Y-100775714D02*
X129454819Y-101251904D01*
X129454819Y-101251904D02*
X129931009Y-101299523D01*
X129931009Y-101299523D02*
X129883390Y-101251904D01*
X129883390Y-101251904D02*
X129835771Y-101156666D01*
X129835771Y-101156666D02*
X129835771Y-100918571D01*
X129835771Y-100918571D02*
X129883390Y-100823333D01*
X129883390Y-100823333D02*
X129931009Y-100775714D01*
X129931009Y-100775714D02*
X130026247Y-100728095D01*
X130026247Y-100728095D02*
X130264342Y-100728095D01*
X130264342Y-100728095D02*
X130359580Y-100775714D01*
X130359580Y-100775714D02*
X130407200Y-100823333D01*
X130407200Y-100823333D02*
X130454819Y-100918571D01*
X130454819Y-100918571D02*
X130454819Y-101156666D01*
X130454819Y-101156666D02*
X130407200Y-101251904D01*
X130407200Y-101251904D02*
X130359580Y-101299523D01*
X128954819Y-84142857D02*
X128478628Y-84476190D01*
X128954819Y-84714285D02*
X127954819Y-84714285D01*
X127954819Y-84714285D02*
X127954819Y-84333333D01*
X127954819Y-84333333D02*
X128002438Y-84238095D01*
X128002438Y-84238095D02*
X128050057Y-84190476D01*
X128050057Y-84190476D02*
X128145295Y-84142857D01*
X128145295Y-84142857D02*
X128288152Y-84142857D01*
X128288152Y-84142857D02*
X128383390Y-84190476D01*
X128383390Y-84190476D02*
X128431009Y-84238095D01*
X128431009Y-84238095D02*
X128478628Y-84333333D01*
X128478628Y-84333333D02*
X128478628Y-84714285D01*
X128954819Y-83190476D02*
X128954819Y-83761904D01*
X128954819Y-83476190D02*
X127954819Y-83476190D01*
X127954819Y-83476190D02*
X128097676Y-83571428D01*
X128097676Y-83571428D02*
X128192914Y-83666666D01*
X128192914Y-83666666D02*
X128240533Y-83761904D01*
X127954819Y-82857142D02*
X127954819Y-82238095D01*
X127954819Y-82238095D02*
X128335771Y-82571428D01*
X128335771Y-82571428D02*
X128335771Y-82428571D01*
X128335771Y-82428571D02*
X128383390Y-82333333D01*
X128383390Y-82333333D02*
X128431009Y-82285714D01*
X128431009Y-82285714D02*
X128526247Y-82238095D01*
X128526247Y-82238095D02*
X128764342Y-82238095D01*
X128764342Y-82238095D02*
X128859580Y-82285714D01*
X128859580Y-82285714D02*
X128907200Y-82333333D01*
X128907200Y-82333333D02*
X128954819Y-82428571D01*
X128954819Y-82428571D02*
X128954819Y-82714285D01*
X128954819Y-82714285D02*
X128907200Y-82809523D01*
X128907200Y-82809523D02*
X128859580Y-82857142D01*
X148707142Y-119859580D02*
X148659523Y-119907200D01*
X148659523Y-119907200D02*
X148516666Y-119954819D01*
X148516666Y-119954819D02*
X148421428Y-119954819D01*
X148421428Y-119954819D02*
X148278571Y-119907200D01*
X148278571Y-119907200D02*
X148183333Y-119811961D01*
X148183333Y-119811961D02*
X148135714Y-119716723D01*
X148135714Y-119716723D02*
X148088095Y-119526247D01*
X148088095Y-119526247D02*
X148088095Y-119383390D01*
X148088095Y-119383390D02*
X148135714Y-119192914D01*
X148135714Y-119192914D02*
X148183333Y-119097676D01*
X148183333Y-119097676D02*
X148278571Y-119002438D01*
X148278571Y-119002438D02*
X148421428Y-118954819D01*
X148421428Y-118954819D02*
X148516666Y-118954819D01*
X148516666Y-118954819D02*
X148659523Y-119002438D01*
X148659523Y-119002438D02*
X148707142Y-119050057D01*
X149088095Y-119050057D02*
X149135714Y-119002438D01*
X149135714Y-119002438D02*
X149230952Y-118954819D01*
X149230952Y-118954819D02*
X149469047Y-118954819D01*
X149469047Y-118954819D02*
X149564285Y-119002438D01*
X149564285Y-119002438D02*
X149611904Y-119050057D01*
X149611904Y-119050057D02*
X149659523Y-119145295D01*
X149659523Y-119145295D02*
X149659523Y-119240533D01*
X149659523Y-119240533D02*
X149611904Y-119383390D01*
X149611904Y-119383390D02*
X149040476Y-119954819D01*
X149040476Y-119954819D02*
X149659523Y-119954819D01*
X150135714Y-119954819D02*
X150326190Y-119954819D01*
X150326190Y-119954819D02*
X150421428Y-119907200D01*
X150421428Y-119907200D02*
X150469047Y-119859580D01*
X150469047Y-119859580D02*
X150564285Y-119716723D01*
X150564285Y-119716723D02*
X150611904Y-119526247D01*
X150611904Y-119526247D02*
X150611904Y-119145295D01*
X150611904Y-119145295D02*
X150564285Y-119050057D01*
X150564285Y-119050057D02*
X150516666Y-119002438D01*
X150516666Y-119002438D02*
X150421428Y-118954819D01*
X150421428Y-118954819D02*
X150230952Y-118954819D01*
X150230952Y-118954819D02*
X150135714Y-119002438D01*
X150135714Y-119002438D02*
X150088095Y-119050057D01*
X150088095Y-119050057D02*
X150040476Y-119145295D01*
X150040476Y-119145295D02*
X150040476Y-119383390D01*
X150040476Y-119383390D02*
X150088095Y-119478628D01*
X150088095Y-119478628D02*
X150135714Y-119526247D01*
X150135714Y-119526247D02*
X150230952Y-119573866D01*
X150230952Y-119573866D02*
X150421428Y-119573866D01*
X150421428Y-119573866D02*
X150516666Y-119526247D01*
X150516666Y-119526247D02*
X150564285Y-119478628D01*
X150564285Y-119478628D02*
X150611904Y-119383390D01*
X141357142Y-69454819D02*
X141023809Y-68978628D01*
X140785714Y-69454819D02*
X140785714Y-68454819D01*
X140785714Y-68454819D02*
X141166666Y-68454819D01*
X141166666Y-68454819D02*
X141261904Y-68502438D01*
X141261904Y-68502438D02*
X141309523Y-68550057D01*
X141309523Y-68550057D02*
X141357142Y-68645295D01*
X141357142Y-68645295D02*
X141357142Y-68788152D01*
X141357142Y-68788152D02*
X141309523Y-68883390D01*
X141309523Y-68883390D02*
X141261904Y-68931009D01*
X141261904Y-68931009D02*
X141166666Y-68978628D01*
X141166666Y-68978628D02*
X140785714Y-68978628D01*
X142309523Y-69454819D02*
X141738095Y-69454819D01*
X142023809Y-69454819D02*
X142023809Y-68454819D01*
X142023809Y-68454819D02*
X141928571Y-68597676D01*
X141928571Y-68597676D02*
X141833333Y-68692914D01*
X141833333Y-68692914D02*
X141738095Y-68740533D01*
X143214285Y-68454819D02*
X142738095Y-68454819D01*
X142738095Y-68454819D02*
X142690476Y-68931009D01*
X142690476Y-68931009D02*
X142738095Y-68883390D01*
X142738095Y-68883390D02*
X142833333Y-68835771D01*
X142833333Y-68835771D02*
X143071428Y-68835771D01*
X143071428Y-68835771D02*
X143166666Y-68883390D01*
X143166666Y-68883390D02*
X143214285Y-68931009D01*
X143214285Y-68931009D02*
X143261904Y-69026247D01*
X143261904Y-69026247D02*
X143261904Y-69264342D01*
X143261904Y-69264342D02*
X143214285Y-69359580D01*
X143214285Y-69359580D02*
X143166666Y-69407200D01*
X143166666Y-69407200D02*
X143071428Y-69454819D01*
X143071428Y-69454819D02*
X142833333Y-69454819D01*
X142833333Y-69454819D02*
X142738095Y-69407200D01*
X142738095Y-69407200D02*
X142690476Y-69359580D01*
X135454819Y-71142857D02*
X134978628Y-71476190D01*
X135454819Y-71714285D02*
X134454819Y-71714285D01*
X134454819Y-71714285D02*
X134454819Y-71333333D01*
X134454819Y-71333333D02*
X134502438Y-71238095D01*
X134502438Y-71238095D02*
X134550057Y-71190476D01*
X134550057Y-71190476D02*
X134645295Y-71142857D01*
X134645295Y-71142857D02*
X134788152Y-71142857D01*
X134788152Y-71142857D02*
X134883390Y-71190476D01*
X134883390Y-71190476D02*
X134931009Y-71238095D01*
X134931009Y-71238095D02*
X134978628Y-71333333D01*
X134978628Y-71333333D02*
X134978628Y-71714285D01*
X134550057Y-70761904D02*
X134502438Y-70714285D01*
X134502438Y-70714285D02*
X134454819Y-70619047D01*
X134454819Y-70619047D02*
X134454819Y-70380952D01*
X134454819Y-70380952D02*
X134502438Y-70285714D01*
X134502438Y-70285714D02*
X134550057Y-70238095D01*
X134550057Y-70238095D02*
X134645295Y-70190476D01*
X134645295Y-70190476D02*
X134740533Y-70190476D01*
X134740533Y-70190476D02*
X134883390Y-70238095D01*
X134883390Y-70238095D02*
X135454819Y-70809523D01*
X135454819Y-70809523D02*
X135454819Y-70190476D01*
X134454819Y-69857142D02*
X134454819Y-69238095D01*
X134454819Y-69238095D02*
X134835771Y-69571428D01*
X134835771Y-69571428D02*
X134835771Y-69428571D01*
X134835771Y-69428571D02*
X134883390Y-69333333D01*
X134883390Y-69333333D02*
X134931009Y-69285714D01*
X134931009Y-69285714D02*
X135026247Y-69238095D01*
X135026247Y-69238095D02*
X135264342Y-69238095D01*
X135264342Y-69238095D02*
X135359580Y-69285714D01*
X135359580Y-69285714D02*
X135407200Y-69333333D01*
X135407200Y-69333333D02*
X135454819Y-69428571D01*
X135454819Y-69428571D02*
X135454819Y-69714285D01*
X135454819Y-69714285D02*
X135407200Y-69809523D01*
X135407200Y-69809523D02*
X135359580Y-69857142D01*
X132954819Y-71142857D02*
X132478628Y-71476190D01*
X132954819Y-71714285D02*
X131954819Y-71714285D01*
X131954819Y-71714285D02*
X131954819Y-71333333D01*
X131954819Y-71333333D02*
X132002438Y-71238095D01*
X132002438Y-71238095D02*
X132050057Y-71190476D01*
X132050057Y-71190476D02*
X132145295Y-71142857D01*
X132145295Y-71142857D02*
X132288152Y-71142857D01*
X132288152Y-71142857D02*
X132383390Y-71190476D01*
X132383390Y-71190476D02*
X132431009Y-71238095D01*
X132431009Y-71238095D02*
X132478628Y-71333333D01*
X132478628Y-71333333D02*
X132478628Y-71714285D01*
X132050057Y-70761904D02*
X132002438Y-70714285D01*
X132002438Y-70714285D02*
X131954819Y-70619047D01*
X131954819Y-70619047D02*
X131954819Y-70380952D01*
X131954819Y-70380952D02*
X132002438Y-70285714D01*
X132002438Y-70285714D02*
X132050057Y-70238095D01*
X132050057Y-70238095D02*
X132145295Y-70190476D01*
X132145295Y-70190476D02*
X132240533Y-70190476D01*
X132240533Y-70190476D02*
X132383390Y-70238095D01*
X132383390Y-70238095D02*
X132954819Y-70809523D01*
X132954819Y-70809523D02*
X132954819Y-70190476D01*
X132288152Y-69333333D02*
X132954819Y-69333333D01*
X131907200Y-69571428D02*
X132621485Y-69809523D01*
X132621485Y-69809523D02*
X132621485Y-69190476D01*
X131857142Y-113954819D02*
X131523809Y-113478628D01*
X131285714Y-113954819D02*
X131285714Y-112954819D01*
X131285714Y-112954819D02*
X131666666Y-112954819D01*
X131666666Y-112954819D02*
X131761904Y-113002438D01*
X131761904Y-113002438D02*
X131809523Y-113050057D01*
X131809523Y-113050057D02*
X131857142Y-113145295D01*
X131857142Y-113145295D02*
X131857142Y-113288152D01*
X131857142Y-113288152D02*
X131809523Y-113383390D01*
X131809523Y-113383390D02*
X131761904Y-113431009D01*
X131761904Y-113431009D02*
X131666666Y-113478628D01*
X131666666Y-113478628D02*
X131285714Y-113478628D01*
X132190476Y-112954819D02*
X132809523Y-112954819D01*
X132809523Y-112954819D02*
X132476190Y-113335771D01*
X132476190Y-113335771D02*
X132619047Y-113335771D01*
X132619047Y-113335771D02*
X132714285Y-113383390D01*
X132714285Y-113383390D02*
X132761904Y-113431009D01*
X132761904Y-113431009D02*
X132809523Y-113526247D01*
X132809523Y-113526247D02*
X132809523Y-113764342D01*
X132809523Y-113764342D02*
X132761904Y-113859580D01*
X132761904Y-113859580D02*
X132714285Y-113907200D01*
X132714285Y-113907200D02*
X132619047Y-113954819D01*
X132619047Y-113954819D02*
X132333333Y-113954819D01*
X132333333Y-113954819D02*
X132238095Y-113907200D01*
X132238095Y-113907200D02*
X132190476Y-113859580D01*
X133428571Y-112954819D02*
X133523809Y-112954819D01*
X133523809Y-112954819D02*
X133619047Y-113002438D01*
X133619047Y-113002438D02*
X133666666Y-113050057D01*
X133666666Y-113050057D02*
X133714285Y-113145295D01*
X133714285Y-113145295D02*
X133761904Y-113335771D01*
X133761904Y-113335771D02*
X133761904Y-113573866D01*
X133761904Y-113573866D02*
X133714285Y-113764342D01*
X133714285Y-113764342D02*
X133666666Y-113859580D01*
X133666666Y-113859580D02*
X133619047Y-113907200D01*
X133619047Y-113907200D02*
X133523809Y-113954819D01*
X133523809Y-113954819D02*
X133428571Y-113954819D01*
X133428571Y-113954819D02*
X133333333Y-113907200D01*
X133333333Y-113907200D02*
X133285714Y-113859580D01*
X133285714Y-113859580D02*
X133238095Y-113764342D01*
X133238095Y-113764342D02*
X133190476Y-113573866D01*
X133190476Y-113573866D02*
X133190476Y-113335771D01*
X133190476Y-113335771D02*
X133238095Y-113145295D01*
X133238095Y-113145295D02*
X133285714Y-113050057D01*
X133285714Y-113050057D02*
X133333333Y-113002438D01*
X133333333Y-113002438D02*
X133428571Y-112954819D01*
X137833333Y-93349580D02*
X137785714Y-93397200D01*
X137785714Y-93397200D02*
X137642857Y-93444819D01*
X137642857Y-93444819D02*
X137547619Y-93444819D01*
X137547619Y-93444819D02*
X137404762Y-93397200D01*
X137404762Y-93397200D02*
X137309524Y-93301961D01*
X137309524Y-93301961D02*
X137261905Y-93206723D01*
X137261905Y-93206723D02*
X137214286Y-93016247D01*
X137214286Y-93016247D02*
X137214286Y-92873390D01*
X137214286Y-92873390D02*
X137261905Y-92682914D01*
X137261905Y-92682914D02*
X137309524Y-92587676D01*
X137309524Y-92587676D02*
X137404762Y-92492438D01*
X137404762Y-92492438D02*
X137547619Y-92444819D01*
X137547619Y-92444819D02*
X137642857Y-92444819D01*
X137642857Y-92444819D02*
X137785714Y-92492438D01*
X137785714Y-92492438D02*
X137833333Y-92540057D01*
X138166667Y-92444819D02*
X138785714Y-92444819D01*
X138785714Y-92444819D02*
X138452381Y-92825771D01*
X138452381Y-92825771D02*
X138595238Y-92825771D01*
X138595238Y-92825771D02*
X138690476Y-92873390D01*
X138690476Y-92873390D02*
X138738095Y-92921009D01*
X138738095Y-92921009D02*
X138785714Y-93016247D01*
X138785714Y-93016247D02*
X138785714Y-93254342D01*
X138785714Y-93254342D02*
X138738095Y-93349580D01*
X138738095Y-93349580D02*
X138690476Y-93397200D01*
X138690476Y-93397200D02*
X138595238Y-93444819D01*
X138595238Y-93444819D02*
X138309524Y-93444819D01*
X138309524Y-93444819D02*
X138214286Y-93397200D01*
X138214286Y-93397200D02*
X138166667Y-93349580D01*
X140833333Y-95444819D02*
X140500000Y-94968628D01*
X140261905Y-95444819D02*
X140261905Y-94444819D01*
X140261905Y-94444819D02*
X140642857Y-94444819D01*
X140642857Y-94444819D02*
X140738095Y-94492438D01*
X140738095Y-94492438D02*
X140785714Y-94540057D01*
X140785714Y-94540057D02*
X140833333Y-94635295D01*
X140833333Y-94635295D02*
X140833333Y-94778152D01*
X140833333Y-94778152D02*
X140785714Y-94873390D01*
X140785714Y-94873390D02*
X140738095Y-94921009D01*
X140738095Y-94921009D02*
X140642857Y-94968628D01*
X140642857Y-94968628D02*
X140261905Y-94968628D01*
X141690476Y-94444819D02*
X141500000Y-94444819D01*
X141500000Y-94444819D02*
X141404762Y-94492438D01*
X141404762Y-94492438D02*
X141357143Y-94540057D01*
X141357143Y-94540057D02*
X141261905Y-94682914D01*
X141261905Y-94682914D02*
X141214286Y-94873390D01*
X141214286Y-94873390D02*
X141214286Y-95254342D01*
X141214286Y-95254342D02*
X141261905Y-95349580D01*
X141261905Y-95349580D02*
X141309524Y-95397200D01*
X141309524Y-95397200D02*
X141404762Y-95444819D01*
X141404762Y-95444819D02*
X141595238Y-95444819D01*
X141595238Y-95444819D02*
X141690476Y-95397200D01*
X141690476Y-95397200D02*
X141738095Y-95349580D01*
X141738095Y-95349580D02*
X141785714Y-95254342D01*
X141785714Y-95254342D02*
X141785714Y-95016247D01*
X141785714Y-95016247D02*
X141738095Y-94921009D01*
X141738095Y-94921009D02*
X141690476Y-94873390D01*
X141690476Y-94873390D02*
X141595238Y-94825771D01*
X141595238Y-94825771D02*
X141404762Y-94825771D01*
X141404762Y-94825771D02*
X141309524Y-94873390D01*
X141309524Y-94873390D02*
X141261905Y-94921009D01*
X141261905Y-94921009D02*
X141214286Y-95016247D01*
X145704819Y-86676666D02*
X145228628Y-87009999D01*
X145704819Y-87248094D02*
X144704819Y-87248094D01*
X144704819Y-87248094D02*
X144704819Y-86867142D01*
X144704819Y-86867142D02*
X144752438Y-86771904D01*
X144752438Y-86771904D02*
X144800057Y-86724285D01*
X144800057Y-86724285D02*
X144895295Y-86676666D01*
X144895295Y-86676666D02*
X145038152Y-86676666D01*
X145038152Y-86676666D02*
X145133390Y-86724285D01*
X145133390Y-86724285D02*
X145181009Y-86771904D01*
X145181009Y-86771904D02*
X145228628Y-86867142D01*
X145228628Y-86867142D02*
X145228628Y-87248094D01*
X144704819Y-85771904D02*
X144704819Y-86248094D01*
X144704819Y-86248094D02*
X145181009Y-86295713D01*
X145181009Y-86295713D02*
X145133390Y-86248094D01*
X145133390Y-86248094D02*
X145085771Y-86152856D01*
X145085771Y-86152856D02*
X145085771Y-85914761D01*
X145085771Y-85914761D02*
X145133390Y-85819523D01*
X145133390Y-85819523D02*
X145181009Y-85771904D01*
X145181009Y-85771904D02*
X145276247Y-85724285D01*
X145276247Y-85724285D02*
X145514342Y-85724285D01*
X145514342Y-85724285D02*
X145609580Y-85771904D01*
X145609580Y-85771904D02*
X145657200Y-85819523D01*
X145657200Y-85819523D02*
X145704819Y-85914761D01*
X145704819Y-85914761D02*
X145704819Y-86152856D01*
X145704819Y-86152856D02*
X145657200Y-86248094D01*
X145657200Y-86248094D02*
X145609580Y-86295713D01*
X137333333Y-105359580D02*
X137285714Y-105407200D01*
X137285714Y-105407200D02*
X137142857Y-105454819D01*
X137142857Y-105454819D02*
X137047619Y-105454819D01*
X137047619Y-105454819D02*
X136904762Y-105407200D01*
X136904762Y-105407200D02*
X136809524Y-105311961D01*
X136809524Y-105311961D02*
X136761905Y-105216723D01*
X136761905Y-105216723D02*
X136714286Y-105026247D01*
X136714286Y-105026247D02*
X136714286Y-104883390D01*
X136714286Y-104883390D02*
X136761905Y-104692914D01*
X136761905Y-104692914D02*
X136809524Y-104597676D01*
X136809524Y-104597676D02*
X136904762Y-104502438D01*
X136904762Y-104502438D02*
X137047619Y-104454819D01*
X137047619Y-104454819D02*
X137142857Y-104454819D01*
X137142857Y-104454819D02*
X137285714Y-104502438D01*
X137285714Y-104502438D02*
X137333333Y-104550057D01*
X138285714Y-105454819D02*
X137714286Y-105454819D01*
X138000000Y-105454819D02*
X138000000Y-104454819D01*
X138000000Y-104454819D02*
X137904762Y-104597676D01*
X137904762Y-104597676D02*
X137809524Y-104692914D01*
X137809524Y-104692914D02*
X137714286Y-104740533D01*
X130954819Y-84142857D02*
X130478628Y-84476190D01*
X130954819Y-84714285D02*
X129954819Y-84714285D01*
X129954819Y-84714285D02*
X129954819Y-84333333D01*
X129954819Y-84333333D02*
X130002438Y-84238095D01*
X130002438Y-84238095D02*
X130050057Y-84190476D01*
X130050057Y-84190476D02*
X130145295Y-84142857D01*
X130145295Y-84142857D02*
X130288152Y-84142857D01*
X130288152Y-84142857D02*
X130383390Y-84190476D01*
X130383390Y-84190476D02*
X130431009Y-84238095D01*
X130431009Y-84238095D02*
X130478628Y-84333333D01*
X130478628Y-84333333D02*
X130478628Y-84714285D01*
X130954819Y-83190476D02*
X130954819Y-83761904D01*
X130954819Y-83476190D02*
X129954819Y-83476190D01*
X129954819Y-83476190D02*
X130097676Y-83571428D01*
X130097676Y-83571428D02*
X130192914Y-83666666D01*
X130192914Y-83666666D02*
X130240533Y-83761904D01*
X130954819Y-82238095D02*
X130954819Y-82809523D01*
X130954819Y-82523809D02*
X129954819Y-82523809D01*
X129954819Y-82523809D02*
X130097676Y-82619047D01*
X130097676Y-82619047D02*
X130192914Y-82714285D01*
X130192914Y-82714285D02*
X130240533Y-82809523D01*
X130523809Y-98968628D02*
X130523809Y-99444819D01*
X130190476Y-98444819D02*
X130523809Y-98968628D01*
X130523809Y-98968628D02*
X130857142Y-98444819D01*
X131714285Y-99444819D02*
X131142857Y-99444819D01*
X131428571Y-99444819D02*
X131428571Y-98444819D01*
X131428571Y-98444819D02*
X131333333Y-98587676D01*
X131333333Y-98587676D02*
X131238095Y-98682914D01*
X131238095Y-98682914D02*
X131142857Y-98730533D01*
X139454819Y-125142857D02*
X138978628Y-125476190D01*
X139454819Y-125714285D02*
X138454819Y-125714285D01*
X138454819Y-125714285D02*
X138454819Y-125333333D01*
X138454819Y-125333333D02*
X138502438Y-125238095D01*
X138502438Y-125238095D02*
X138550057Y-125190476D01*
X138550057Y-125190476D02*
X138645295Y-125142857D01*
X138645295Y-125142857D02*
X138788152Y-125142857D01*
X138788152Y-125142857D02*
X138883390Y-125190476D01*
X138883390Y-125190476D02*
X138931009Y-125238095D01*
X138931009Y-125238095D02*
X138978628Y-125333333D01*
X138978628Y-125333333D02*
X138978628Y-125714285D01*
X138550057Y-124761904D02*
X138502438Y-124714285D01*
X138502438Y-124714285D02*
X138454819Y-124619047D01*
X138454819Y-124619047D02*
X138454819Y-124380952D01*
X138454819Y-124380952D02*
X138502438Y-124285714D01*
X138502438Y-124285714D02*
X138550057Y-124238095D01*
X138550057Y-124238095D02*
X138645295Y-124190476D01*
X138645295Y-124190476D02*
X138740533Y-124190476D01*
X138740533Y-124190476D02*
X138883390Y-124238095D01*
X138883390Y-124238095D02*
X139454819Y-124809523D01*
X139454819Y-124809523D02*
X139454819Y-124190476D01*
X138454819Y-123333333D02*
X138454819Y-123523809D01*
X138454819Y-123523809D02*
X138502438Y-123619047D01*
X138502438Y-123619047D02*
X138550057Y-123666666D01*
X138550057Y-123666666D02*
X138692914Y-123761904D01*
X138692914Y-123761904D02*
X138883390Y-123809523D01*
X138883390Y-123809523D02*
X139264342Y-123809523D01*
X139264342Y-123809523D02*
X139359580Y-123761904D01*
X139359580Y-123761904D02*
X139407200Y-123714285D01*
X139407200Y-123714285D02*
X139454819Y-123619047D01*
X139454819Y-123619047D02*
X139454819Y-123428571D01*
X139454819Y-123428571D02*
X139407200Y-123333333D01*
X139407200Y-123333333D02*
X139359580Y-123285714D01*
X139359580Y-123285714D02*
X139264342Y-123238095D01*
X139264342Y-123238095D02*
X139026247Y-123238095D01*
X139026247Y-123238095D02*
X138931009Y-123285714D01*
X138931009Y-123285714D02*
X138883390Y-123333333D01*
X138883390Y-123333333D02*
X138835771Y-123428571D01*
X138835771Y-123428571D02*
X138835771Y-123619047D01*
X138835771Y-123619047D02*
X138883390Y-123714285D01*
X138883390Y-123714285D02*
X138931009Y-123761904D01*
X138931009Y-123761904D02*
X139026247Y-123809523D01*
X155859580Y-109166666D02*
X155907200Y-109214285D01*
X155907200Y-109214285D02*
X155954819Y-109357142D01*
X155954819Y-109357142D02*
X155954819Y-109452380D01*
X155954819Y-109452380D02*
X155907200Y-109595237D01*
X155907200Y-109595237D02*
X155811961Y-109690475D01*
X155811961Y-109690475D02*
X155716723Y-109738094D01*
X155716723Y-109738094D02*
X155526247Y-109785713D01*
X155526247Y-109785713D02*
X155383390Y-109785713D01*
X155383390Y-109785713D02*
X155192914Y-109738094D01*
X155192914Y-109738094D02*
X155097676Y-109690475D01*
X155097676Y-109690475D02*
X155002438Y-109595237D01*
X155002438Y-109595237D02*
X154954819Y-109452380D01*
X154954819Y-109452380D02*
X154954819Y-109357142D01*
X154954819Y-109357142D02*
X155002438Y-109214285D01*
X155002438Y-109214285D02*
X155050057Y-109166666D01*
X154954819Y-108309523D02*
X154954819Y-108499999D01*
X154954819Y-108499999D02*
X155002438Y-108595237D01*
X155002438Y-108595237D02*
X155050057Y-108642856D01*
X155050057Y-108642856D02*
X155192914Y-108738094D01*
X155192914Y-108738094D02*
X155383390Y-108785713D01*
X155383390Y-108785713D02*
X155764342Y-108785713D01*
X155764342Y-108785713D02*
X155859580Y-108738094D01*
X155859580Y-108738094D02*
X155907200Y-108690475D01*
X155907200Y-108690475D02*
X155954819Y-108595237D01*
X155954819Y-108595237D02*
X155954819Y-108404761D01*
X155954819Y-108404761D02*
X155907200Y-108309523D01*
X155907200Y-108309523D02*
X155859580Y-108261904D01*
X155859580Y-108261904D02*
X155764342Y-108214285D01*
X155764342Y-108214285D02*
X155526247Y-108214285D01*
X155526247Y-108214285D02*
X155431009Y-108261904D01*
X155431009Y-108261904D02*
X155383390Y-108309523D01*
X155383390Y-108309523D02*
X155335771Y-108404761D01*
X155335771Y-108404761D02*
X155335771Y-108595237D01*
X155335771Y-108595237D02*
X155383390Y-108690475D01*
X155383390Y-108690475D02*
X155431009Y-108738094D01*
X155431009Y-108738094D02*
X155526247Y-108785713D01*
X132023809Y-108978628D02*
X132023809Y-109454819D01*
X131690476Y-108454819D02*
X132023809Y-108978628D01*
X132023809Y-108978628D02*
X132357142Y-108454819D01*
X132642857Y-108550057D02*
X132690476Y-108502438D01*
X132690476Y-108502438D02*
X132785714Y-108454819D01*
X132785714Y-108454819D02*
X133023809Y-108454819D01*
X133023809Y-108454819D02*
X133119047Y-108502438D01*
X133119047Y-108502438D02*
X133166666Y-108550057D01*
X133166666Y-108550057D02*
X133214285Y-108645295D01*
X133214285Y-108645295D02*
X133214285Y-108740533D01*
X133214285Y-108740533D02*
X133166666Y-108883390D01*
X133166666Y-108883390D02*
X132595238Y-109454819D01*
X132595238Y-109454819D02*
X133214285Y-109454819D01*
X145359580Y-113642857D02*
X145407200Y-113690476D01*
X145407200Y-113690476D02*
X145454819Y-113833333D01*
X145454819Y-113833333D02*
X145454819Y-113928571D01*
X145454819Y-113928571D02*
X145407200Y-114071428D01*
X145407200Y-114071428D02*
X145311961Y-114166666D01*
X145311961Y-114166666D02*
X145216723Y-114214285D01*
X145216723Y-114214285D02*
X145026247Y-114261904D01*
X145026247Y-114261904D02*
X144883390Y-114261904D01*
X144883390Y-114261904D02*
X144692914Y-114214285D01*
X144692914Y-114214285D02*
X144597676Y-114166666D01*
X144597676Y-114166666D02*
X144502438Y-114071428D01*
X144502438Y-114071428D02*
X144454819Y-113928571D01*
X144454819Y-113928571D02*
X144454819Y-113833333D01*
X144454819Y-113833333D02*
X144502438Y-113690476D01*
X144502438Y-113690476D02*
X144550057Y-113642857D01*
X144550057Y-113261904D02*
X144502438Y-113214285D01*
X144502438Y-113214285D02*
X144454819Y-113119047D01*
X144454819Y-113119047D02*
X144454819Y-112880952D01*
X144454819Y-112880952D02*
X144502438Y-112785714D01*
X144502438Y-112785714D02*
X144550057Y-112738095D01*
X144550057Y-112738095D02*
X144645295Y-112690476D01*
X144645295Y-112690476D02*
X144740533Y-112690476D01*
X144740533Y-112690476D02*
X144883390Y-112738095D01*
X144883390Y-112738095D02*
X145454819Y-113309523D01*
X145454819Y-113309523D02*
X145454819Y-112690476D01*
X144454819Y-112357142D02*
X144454819Y-111690476D01*
X144454819Y-111690476D02*
X145454819Y-112119047D01*
X162666666Y-73454819D02*
X162666666Y-74169104D01*
X162666666Y-74169104D02*
X162619047Y-74311961D01*
X162619047Y-74311961D02*
X162523809Y-74407200D01*
X162523809Y-74407200D02*
X162380952Y-74454819D01*
X162380952Y-74454819D02*
X162285714Y-74454819D01*
X163095238Y-73550057D02*
X163142857Y-73502438D01*
X163142857Y-73502438D02*
X163238095Y-73454819D01*
X163238095Y-73454819D02*
X163476190Y-73454819D01*
X163476190Y-73454819D02*
X163571428Y-73502438D01*
X163571428Y-73502438D02*
X163619047Y-73550057D01*
X163619047Y-73550057D02*
X163666666Y-73645295D01*
X163666666Y-73645295D02*
X163666666Y-73740533D01*
X163666666Y-73740533D02*
X163619047Y-73883390D01*
X163619047Y-73883390D02*
X163047619Y-74454819D01*
X163047619Y-74454819D02*
X163666666Y-74454819D01*
X144857142Y-60454819D02*
X144523809Y-59978628D01*
X144285714Y-60454819D02*
X144285714Y-59454819D01*
X144285714Y-59454819D02*
X144666666Y-59454819D01*
X144666666Y-59454819D02*
X144761904Y-59502438D01*
X144761904Y-59502438D02*
X144809523Y-59550057D01*
X144809523Y-59550057D02*
X144857142Y-59645295D01*
X144857142Y-59645295D02*
X144857142Y-59788152D01*
X144857142Y-59788152D02*
X144809523Y-59883390D01*
X144809523Y-59883390D02*
X144761904Y-59931009D01*
X144761904Y-59931009D02*
X144666666Y-59978628D01*
X144666666Y-59978628D02*
X144285714Y-59978628D01*
X145238095Y-59550057D02*
X145285714Y-59502438D01*
X145285714Y-59502438D02*
X145380952Y-59454819D01*
X145380952Y-59454819D02*
X145619047Y-59454819D01*
X145619047Y-59454819D02*
X145714285Y-59502438D01*
X145714285Y-59502438D02*
X145761904Y-59550057D01*
X145761904Y-59550057D02*
X145809523Y-59645295D01*
X145809523Y-59645295D02*
X145809523Y-59740533D01*
X145809523Y-59740533D02*
X145761904Y-59883390D01*
X145761904Y-59883390D02*
X145190476Y-60454819D01*
X145190476Y-60454819D02*
X145809523Y-60454819D01*
X146428571Y-59454819D02*
X146523809Y-59454819D01*
X146523809Y-59454819D02*
X146619047Y-59502438D01*
X146619047Y-59502438D02*
X146666666Y-59550057D01*
X146666666Y-59550057D02*
X146714285Y-59645295D01*
X146714285Y-59645295D02*
X146761904Y-59835771D01*
X146761904Y-59835771D02*
X146761904Y-60073866D01*
X146761904Y-60073866D02*
X146714285Y-60264342D01*
X146714285Y-60264342D02*
X146666666Y-60359580D01*
X146666666Y-60359580D02*
X146619047Y-60407200D01*
X146619047Y-60407200D02*
X146523809Y-60454819D01*
X146523809Y-60454819D02*
X146428571Y-60454819D01*
X146428571Y-60454819D02*
X146333333Y-60407200D01*
X146333333Y-60407200D02*
X146285714Y-60359580D01*
X146285714Y-60359580D02*
X146238095Y-60264342D01*
X146238095Y-60264342D02*
X146190476Y-60073866D01*
X146190476Y-60073866D02*
X146190476Y-59835771D01*
X146190476Y-59835771D02*
X146238095Y-59645295D01*
X146238095Y-59645295D02*
X146285714Y-59550057D01*
X146285714Y-59550057D02*
X146333333Y-59502438D01*
X146333333Y-59502438D02*
X146428571Y-59454819D01*
X147359580Y-113642857D02*
X147407200Y-113690476D01*
X147407200Y-113690476D02*
X147454819Y-113833333D01*
X147454819Y-113833333D02*
X147454819Y-113928571D01*
X147454819Y-113928571D02*
X147407200Y-114071428D01*
X147407200Y-114071428D02*
X147311961Y-114166666D01*
X147311961Y-114166666D02*
X147216723Y-114214285D01*
X147216723Y-114214285D02*
X147026247Y-114261904D01*
X147026247Y-114261904D02*
X146883390Y-114261904D01*
X146883390Y-114261904D02*
X146692914Y-114214285D01*
X146692914Y-114214285D02*
X146597676Y-114166666D01*
X146597676Y-114166666D02*
X146502438Y-114071428D01*
X146502438Y-114071428D02*
X146454819Y-113928571D01*
X146454819Y-113928571D02*
X146454819Y-113833333D01*
X146454819Y-113833333D02*
X146502438Y-113690476D01*
X146502438Y-113690476D02*
X146550057Y-113642857D01*
X146550057Y-113261904D02*
X146502438Y-113214285D01*
X146502438Y-113214285D02*
X146454819Y-113119047D01*
X146454819Y-113119047D02*
X146454819Y-112880952D01*
X146454819Y-112880952D02*
X146502438Y-112785714D01*
X146502438Y-112785714D02*
X146550057Y-112738095D01*
X146550057Y-112738095D02*
X146645295Y-112690476D01*
X146645295Y-112690476D02*
X146740533Y-112690476D01*
X146740533Y-112690476D02*
X146883390Y-112738095D01*
X146883390Y-112738095D02*
X147454819Y-113309523D01*
X147454819Y-113309523D02*
X147454819Y-112690476D01*
X146883390Y-112119047D02*
X146835771Y-112214285D01*
X146835771Y-112214285D02*
X146788152Y-112261904D01*
X146788152Y-112261904D02*
X146692914Y-112309523D01*
X146692914Y-112309523D02*
X146645295Y-112309523D01*
X146645295Y-112309523D02*
X146550057Y-112261904D01*
X146550057Y-112261904D02*
X146502438Y-112214285D01*
X146502438Y-112214285D02*
X146454819Y-112119047D01*
X146454819Y-112119047D02*
X146454819Y-111928571D01*
X146454819Y-111928571D02*
X146502438Y-111833333D01*
X146502438Y-111833333D02*
X146550057Y-111785714D01*
X146550057Y-111785714D02*
X146645295Y-111738095D01*
X146645295Y-111738095D02*
X146692914Y-111738095D01*
X146692914Y-111738095D02*
X146788152Y-111785714D01*
X146788152Y-111785714D02*
X146835771Y-111833333D01*
X146835771Y-111833333D02*
X146883390Y-111928571D01*
X146883390Y-111928571D02*
X146883390Y-112119047D01*
X146883390Y-112119047D02*
X146931009Y-112214285D01*
X146931009Y-112214285D02*
X146978628Y-112261904D01*
X146978628Y-112261904D02*
X147073866Y-112309523D01*
X147073866Y-112309523D02*
X147264342Y-112309523D01*
X147264342Y-112309523D02*
X147359580Y-112261904D01*
X147359580Y-112261904D02*
X147407200Y-112214285D01*
X147407200Y-112214285D02*
X147454819Y-112119047D01*
X147454819Y-112119047D02*
X147454819Y-111928571D01*
X147454819Y-111928571D02*
X147407200Y-111833333D01*
X147407200Y-111833333D02*
X147359580Y-111785714D01*
X147359580Y-111785714D02*
X147264342Y-111738095D01*
X147264342Y-111738095D02*
X147073866Y-111738095D01*
X147073866Y-111738095D02*
X146978628Y-111785714D01*
X146978628Y-111785714D02*
X146931009Y-111833333D01*
X146931009Y-111833333D02*
X146883390Y-111928571D01*
X139454819Y-113642857D02*
X138978628Y-113976190D01*
X139454819Y-114214285D02*
X138454819Y-114214285D01*
X138454819Y-114214285D02*
X138454819Y-113833333D01*
X138454819Y-113833333D02*
X138502438Y-113738095D01*
X138502438Y-113738095D02*
X138550057Y-113690476D01*
X138550057Y-113690476D02*
X138645295Y-113642857D01*
X138645295Y-113642857D02*
X138788152Y-113642857D01*
X138788152Y-113642857D02*
X138883390Y-113690476D01*
X138883390Y-113690476D02*
X138931009Y-113738095D01*
X138931009Y-113738095D02*
X138978628Y-113833333D01*
X138978628Y-113833333D02*
X138978628Y-114214285D01*
X138550057Y-113261904D02*
X138502438Y-113214285D01*
X138502438Y-113214285D02*
X138454819Y-113119047D01*
X138454819Y-113119047D02*
X138454819Y-112880952D01*
X138454819Y-112880952D02*
X138502438Y-112785714D01*
X138502438Y-112785714D02*
X138550057Y-112738095D01*
X138550057Y-112738095D02*
X138645295Y-112690476D01*
X138645295Y-112690476D02*
X138740533Y-112690476D01*
X138740533Y-112690476D02*
X138883390Y-112738095D01*
X138883390Y-112738095D02*
X139454819Y-113309523D01*
X139454819Y-113309523D02*
X139454819Y-112690476D01*
X138454819Y-111785714D02*
X138454819Y-112261904D01*
X138454819Y-112261904D02*
X138931009Y-112309523D01*
X138931009Y-112309523D02*
X138883390Y-112261904D01*
X138883390Y-112261904D02*
X138835771Y-112166666D01*
X138835771Y-112166666D02*
X138835771Y-111928571D01*
X138835771Y-111928571D02*
X138883390Y-111833333D01*
X138883390Y-111833333D02*
X138931009Y-111785714D01*
X138931009Y-111785714D02*
X139026247Y-111738095D01*
X139026247Y-111738095D02*
X139264342Y-111738095D01*
X139264342Y-111738095D02*
X139359580Y-111785714D01*
X139359580Y-111785714D02*
X139407200Y-111833333D01*
X139407200Y-111833333D02*
X139454819Y-111928571D01*
X139454819Y-111928571D02*
X139454819Y-112166666D01*
X139454819Y-112166666D02*
X139407200Y-112261904D01*
X139407200Y-112261904D02*
X139359580Y-112309523D01*
X157738095Y-76452819D02*
X158309523Y-76452819D01*
X158023809Y-77452819D02*
X158023809Y-76452819D01*
X158642857Y-77452819D02*
X158642857Y-76452819D01*
X158642857Y-76452819D02*
X159023809Y-76452819D01*
X159023809Y-76452819D02*
X159119047Y-76500438D01*
X159119047Y-76500438D02*
X159166666Y-76548057D01*
X159166666Y-76548057D02*
X159214285Y-76643295D01*
X159214285Y-76643295D02*
X159214285Y-76786152D01*
X159214285Y-76786152D02*
X159166666Y-76881390D01*
X159166666Y-76881390D02*
X159119047Y-76929009D01*
X159119047Y-76929009D02*
X159023809Y-76976628D01*
X159023809Y-76976628D02*
X158642857Y-76976628D01*
X160071428Y-76786152D02*
X160071428Y-77452819D01*
X159833333Y-76405200D02*
X159595238Y-77119485D01*
X159595238Y-77119485D02*
X160214285Y-77119485D01*
X124454819Y-65261904D02*
X124454819Y-64690476D01*
X125454819Y-64976190D02*
X124454819Y-64976190D01*
X125454819Y-64357142D02*
X124454819Y-64357142D01*
X124454819Y-64357142D02*
X124454819Y-63976190D01*
X124454819Y-63976190D02*
X124502438Y-63880952D01*
X124502438Y-63880952D02*
X124550057Y-63833333D01*
X124550057Y-63833333D02*
X124645295Y-63785714D01*
X124645295Y-63785714D02*
X124788152Y-63785714D01*
X124788152Y-63785714D02*
X124883390Y-63833333D01*
X124883390Y-63833333D02*
X124931009Y-63880952D01*
X124931009Y-63880952D02*
X124978628Y-63976190D01*
X124978628Y-63976190D02*
X124978628Y-64357142D01*
X124883390Y-63214285D02*
X124835771Y-63309523D01*
X124835771Y-63309523D02*
X124788152Y-63357142D01*
X124788152Y-63357142D02*
X124692914Y-63404761D01*
X124692914Y-63404761D02*
X124645295Y-63404761D01*
X124645295Y-63404761D02*
X124550057Y-63357142D01*
X124550057Y-63357142D02*
X124502438Y-63309523D01*
X124502438Y-63309523D02*
X124454819Y-63214285D01*
X124454819Y-63214285D02*
X124454819Y-63023809D01*
X124454819Y-63023809D02*
X124502438Y-62928571D01*
X124502438Y-62928571D02*
X124550057Y-62880952D01*
X124550057Y-62880952D02*
X124645295Y-62833333D01*
X124645295Y-62833333D02*
X124692914Y-62833333D01*
X124692914Y-62833333D02*
X124788152Y-62880952D01*
X124788152Y-62880952D02*
X124835771Y-62928571D01*
X124835771Y-62928571D02*
X124883390Y-63023809D01*
X124883390Y-63023809D02*
X124883390Y-63214285D01*
X124883390Y-63214285D02*
X124931009Y-63309523D01*
X124931009Y-63309523D02*
X124978628Y-63357142D01*
X124978628Y-63357142D02*
X125073866Y-63404761D01*
X125073866Y-63404761D02*
X125264342Y-63404761D01*
X125264342Y-63404761D02*
X125359580Y-63357142D01*
X125359580Y-63357142D02*
X125407200Y-63309523D01*
X125407200Y-63309523D02*
X125454819Y-63214285D01*
X125454819Y-63214285D02*
X125454819Y-63023809D01*
X125454819Y-63023809D02*
X125407200Y-62928571D01*
X125407200Y-62928571D02*
X125359580Y-62880952D01*
X125359580Y-62880952D02*
X125264342Y-62833333D01*
X125264342Y-62833333D02*
X125073866Y-62833333D01*
X125073866Y-62833333D02*
X124978628Y-62880952D01*
X124978628Y-62880952D02*
X124931009Y-62928571D01*
X124931009Y-62928571D02*
X124883390Y-63023809D01*
X158238095Y-59454819D02*
X158238095Y-58454819D01*
X158238095Y-58931009D02*
X158809523Y-58931009D01*
X158809523Y-59454819D02*
X158809523Y-58454819D01*
X159238095Y-58550057D02*
X159285714Y-58502438D01*
X159285714Y-58502438D02*
X159380952Y-58454819D01*
X159380952Y-58454819D02*
X159619047Y-58454819D01*
X159619047Y-58454819D02*
X159714285Y-58502438D01*
X159714285Y-58502438D02*
X159761904Y-58550057D01*
X159761904Y-58550057D02*
X159809523Y-58645295D01*
X159809523Y-58645295D02*
X159809523Y-58740533D01*
X159809523Y-58740533D02*
X159761904Y-58883390D01*
X159761904Y-58883390D02*
X159190476Y-59454819D01*
X159190476Y-59454819D02*
X159809523Y-59454819D01*
X136666666Y-108921009D02*
X136333333Y-108921009D01*
X136333333Y-109444819D02*
X136333333Y-108444819D01*
X136333333Y-108444819D02*
X136809523Y-108444819D01*
X137523809Y-108921009D02*
X137666666Y-108968628D01*
X137666666Y-108968628D02*
X137714285Y-109016247D01*
X137714285Y-109016247D02*
X137761904Y-109111485D01*
X137761904Y-109111485D02*
X137761904Y-109254342D01*
X137761904Y-109254342D02*
X137714285Y-109349580D01*
X137714285Y-109349580D02*
X137666666Y-109397200D01*
X137666666Y-109397200D02*
X137571428Y-109444819D01*
X137571428Y-109444819D02*
X137190476Y-109444819D01*
X137190476Y-109444819D02*
X137190476Y-108444819D01*
X137190476Y-108444819D02*
X137523809Y-108444819D01*
X137523809Y-108444819D02*
X137619047Y-108492438D01*
X137619047Y-108492438D02*
X137666666Y-108540057D01*
X137666666Y-108540057D02*
X137714285Y-108635295D01*
X137714285Y-108635295D02*
X137714285Y-108730533D01*
X137714285Y-108730533D02*
X137666666Y-108825771D01*
X137666666Y-108825771D02*
X137619047Y-108873390D01*
X137619047Y-108873390D02*
X137523809Y-108921009D01*
X137523809Y-108921009D02*
X137190476Y-108921009D01*
X138714285Y-109444819D02*
X138142857Y-109444819D01*
X138428571Y-109444819D02*
X138428571Y-108444819D01*
X138428571Y-108444819D02*
X138333333Y-108587676D01*
X138333333Y-108587676D02*
X138238095Y-108682914D01*
X138238095Y-108682914D02*
X138142857Y-108730533D01*
X137357142Y-52359580D02*
X137309523Y-52407200D01*
X137309523Y-52407200D02*
X137166666Y-52454819D01*
X137166666Y-52454819D02*
X137071428Y-52454819D01*
X137071428Y-52454819D02*
X136928571Y-52407200D01*
X136928571Y-52407200D02*
X136833333Y-52311961D01*
X136833333Y-52311961D02*
X136785714Y-52216723D01*
X136785714Y-52216723D02*
X136738095Y-52026247D01*
X136738095Y-52026247D02*
X136738095Y-51883390D01*
X136738095Y-51883390D02*
X136785714Y-51692914D01*
X136785714Y-51692914D02*
X136833333Y-51597676D01*
X136833333Y-51597676D02*
X136928571Y-51502438D01*
X136928571Y-51502438D02*
X137071428Y-51454819D01*
X137071428Y-51454819D02*
X137166666Y-51454819D01*
X137166666Y-51454819D02*
X137309523Y-51502438D01*
X137309523Y-51502438D02*
X137357142Y-51550057D01*
X137738095Y-51550057D02*
X137785714Y-51502438D01*
X137785714Y-51502438D02*
X137880952Y-51454819D01*
X137880952Y-51454819D02*
X138119047Y-51454819D01*
X138119047Y-51454819D02*
X138214285Y-51502438D01*
X138214285Y-51502438D02*
X138261904Y-51550057D01*
X138261904Y-51550057D02*
X138309523Y-51645295D01*
X138309523Y-51645295D02*
X138309523Y-51740533D01*
X138309523Y-51740533D02*
X138261904Y-51883390D01*
X138261904Y-51883390D02*
X137690476Y-52454819D01*
X137690476Y-52454819D02*
X138309523Y-52454819D01*
X139214285Y-51454819D02*
X138738095Y-51454819D01*
X138738095Y-51454819D02*
X138690476Y-51931009D01*
X138690476Y-51931009D02*
X138738095Y-51883390D01*
X138738095Y-51883390D02*
X138833333Y-51835771D01*
X138833333Y-51835771D02*
X139071428Y-51835771D01*
X139071428Y-51835771D02*
X139166666Y-51883390D01*
X139166666Y-51883390D02*
X139214285Y-51931009D01*
X139214285Y-51931009D02*
X139261904Y-52026247D01*
X139261904Y-52026247D02*
X139261904Y-52264342D01*
X139261904Y-52264342D02*
X139214285Y-52359580D01*
X139214285Y-52359580D02*
X139166666Y-52407200D01*
X139166666Y-52407200D02*
X139071428Y-52454819D01*
X139071428Y-52454819D02*
X138833333Y-52454819D01*
X138833333Y-52454819D02*
X138738095Y-52407200D01*
X138738095Y-52407200D02*
X138690476Y-52359580D01*
X133738095Y-78454819D02*
X133738095Y-79264342D01*
X133738095Y-79264342D02*
X133785714Y-79359580D01*
X133785714Y-79359580D02*
X133833333Y-79407200D01*
X133833333Y-79407200D02*
X133928571Y-79454819D01*
X133928571Y-79454819D02*
X134119047Y-79454819D01*
X134119047Y-79454819D02*
X134214285Y-79407200D01*
X134214285Y-79407200D02*
X134261904Y-79359580D01*
X134261904Y-79359580D02*
X134309523Y-79264342D01*
X134309523Y-79264342D02*
X134309523Y-78454819D01*
X134738095Y-78550057D02*
X134785714Y-78502438D01*
X134785714Y-78502438D02*
X134880952Y-78454819D01*
X134880952Y-78454819D02*
X135119047Y-78454819D01*
X135119047Y-78454819D02*
X135214285Y-78502438D01*
X135214285Y-78502438D02*
X135261904Y-78550057D01*
X135261904Y-78550057D02*
X135309523Y-78645295D01*
X135309523Y-78645295D02*
X135309523Y-78740533D01*
X135309523Y-78740533D02*
X135261904Y-78883390D01*
X135261904Y-78883390D02*
X134690476Y-79454819D01*
X134690476Y-79454819D02*
X135309523Y-79454819D01*
X133357142Y-99349580D02*
X133309523Y-99397200D01*
X133309523Y-99397200D02*
X133166666Y-99444819D01*
X133166666Y-99444819D02*
X133071428Y-99444819D01*
X133071428Y-99444819D02*
X132928571Y-99397200D01*
X132928571Y-99397200D02*
X132833333Y-99301961D01*
X132833333Y-99301961D02*
X132785714Y-99206723D01*
X132785714Y-99206723D02*
X132738095Y-99016247D01*
X132738095Y-99016247D02*
X132738095Y-98873390D01*
X132738095Y-98873390D02*
X132785714Y-98682914D01*
X132785714Y-98682914D02*
X132833333Y-98587676D01*
X132833333Y-98587676D02*
X132928571Y-98492438D01*
X132928571Y-98492438D02*
X133071428Y-98444819D01*
X133071428Y-98444819D02*
X133166666Y-98444819D01*
X133166666Y-98444819D02*
X133309523Y-98492438D01*
X133309523Y-98492438D02*
X133357142Y-98540057D01*
X134309523Y-99444819D02*
X133738095Y-99444819D01*
X134023809Y-99444819D02*
X134023809Y-98444819D01*
X134023809Y-98444819D02*
X133928571Y-98587676D01*
X133928571Y-98587676D02*
X133833333Y-98682914D01*
X133833333Y-98682914D02*
X133738095Y-98730533D01*
X135166666Y-98778152D02*
X135166666Y-99444819D01*
X134928571Y-98397200D02*
X134690476Y-99111485D01*
X134690476Y-99111485D02*
X135309523Y-99111485D01*
X137833333Y-89349580D02*
X137785714Y-89397200D01*
X137785714Y-89397200D02*
X137642857Y-89444819D01*
X137642857Y-89444819D02*
X137547619Y-89444819D01*
X137547619Y-89444819D02*
X137404762Y-89397200D01*
X137404762Y-89397200D02*
X137309524Y-89301961D01*
X137309524Y-89301961D02*
X137261905Y-89206723D01*
X137261905Y-89206723D02*
X137214286Y-89016247D01*
X137214286Y-89016247D02*
X137214286Y-88873390D01*
X137214286Y-88873390D02*
X137261905Y-88682914D01*
X137261905Y-88682914D02*
X137309524Y-88587676D01*
X137309524Y-88587676D02*
X137404762Y-88492438D01*
X137404762Y-88492438D02*
X137547619Y-88444819D01*
X137547619Y-88444819D02*
X137642857Y-88444819D01*
X137642857Y-88444819D02*
X137785714Y-88492438D01*
X137785714Y-88492438D02*
X137833333Y-88540057D01*
X138690476Y-88778152D02*
X138690476Y-89444819D01*
X138452381Y-88397200D02*
X138214286Y-89111485D01*
X138214286Y-89111485D02*
X138833333Y-89111485D01*
X141357142Y-67359580D02*
X141309523Y-67407200D01*
X141309523Y-67407200D02*
X141166666Y-67454819D01*
X141166666Y-67454819D02*
X141071428Y-67454819D01*
X141071428Y-67454819D02*
X140928571Y-67407200D01*
X140928571Y-67407200D02*
X140833333Y-67311961D01*
X140833333Y-67311961D02*
X140785714Y-67216723D01*
X140785714Y-67216723D02*
X140738095Y-67026247D01*
X140738095Y-67026247D02*
X140738095Y-66883390D01*
X140738095Y-66883390D02*
X140785714Y-66692914D01*
X140785714Y-66692914D02*
X140833333Y-66597676D01*
X140833333Y-66597676D02*
X140928571Y-66502438D01*
X140928571Y-66502438D02*
X141071428Y-66454819D01*
X141071428Y-66454819D02*
X141166666Y-66454819D01*
X141166666Y-66454819D02*
X141309523Y-66502438D01*
X141309523Y-66502438D02*
X141357142Y-66550057D01*
X141738095Y-66550057D02*
X141785714Y-66502438D01*
X141785714Y-66502438D02*
X141880952Y-66454819D01*
X141880952Y-66454819D02*
X142119047Y-66454819D01*
X142119047Y-66454819D02*
X142214285Y-66502438D01*
X142214285Y-66502438D02*
X142261904Y-66550057D01*
X142261904Y-66550057D02*
X142309523Y-66645295D01*
X142309523Y-66645295D02*
X142309523Y-66740533D01*
X142309523Y-66740533D02*
X142261904Y-66883390D01*
X142261904Y-66883390D02*
X141690476Y-67454819D01*
X141690476Y-67454819D02*
X142309523Y-67454819D01*
X142642857Y-66454819D02*
X143261904Y-66454819D01*
X143261904Y-66454819D02*
X142928571Y-66835771D01*
X142928571Y-66835771D02*
X143071428Y-66835771D01*
X143071428Y-66835771D02*
X143166666Y-66883390D01*
X143166666Y-66883390D02*
X143214285Y-66931009D01*
X143214285Y-66931009D02*
X143261904Y-67026247D01*
X143261904Y-67026247D02*
X143261904Y-67264342D01*
X143261904Y-67264342D02*
X143214285Y-67359580D01*
X143214285Y-67359580D02*
X143166666Y-67407200D01*
X143166666Y-67407200D02*
X143071428Y-67454819D01*
X143071428Y-67454819D02*
X142785714Y-67454819D01*
X142785714Y-67454819D02*
X142690476Y-67407200D01*
X142690476Y-67407200D02*
X142642857Y-67359580D01*
X126357142Y-73359580D02*
X126309523Y-73407200D01*
X126309523Y-73407200D02*
X126166666Y-73454819D01*
X126166666Y-73454819D02*
X126071428Y-73454819D01*
X126071428Y-73454819D02*
X125928571Y-73407200D01*
X125928571Y-73407200D02*
X125833333Y-73311961D01*
X125833333Y-73311961D02*
X125785714Y-73216723D01*
X125785714Y-73216723D02*
X125738095Y-73026247D01*
X125738095Y-73026247D02*
X125738095Y-72883390D01*
X125738095Y-72883390D02*
X125785714Y-72692914D01*
X125785714Y-72692914D02*
X125833333Y-72597676D01*
X125833333Y-72597676D02*
X125928571Y-72502438D01*
X125928571Y-72502438D02*
X126071428Y-72454819D01*
X126071428Y-72454819D02*
X126166666Y-72454819D01*
X126166666Y-72454819D02*
X126309523Y-72502438D01*
X126309523Y-72502438D02*
X126357142Y-72550057D01*
X126738095Y-72550057D02*
X126785714Y-72502438D01*
X126785714Y-72502438D02*
X126880952Y-72454819D01*
X126880952Y-72454819D02*
X127119047Y-72454819D01*
X127119047Y-72454819D02*
X127214285Y-72502438D01*
X127214285Y-72502438D02*
X127261904Y-72550057D01*
X127261904Y-72550057D02*
X127309523Y-72645295D01*
X127309523Y-72645295D02*
X127309523Y-72740533D01*
X127309523Y-72740533D02*
X127261904Y-72883390D01*
X127261904Y-72883390D02*
X126690476Y-73454819D01*
X126690476Y-73454819D02*
X127309523Y-73454819D01*
X128261904Y-73454819D02*
X127690476Y-73454819D01*
X127976190Y-73454819D02*
X127976190Y-72454819D01*
X127976190Y-72454819D02*
X127880952Y-72597676D01*
X127880952Y-72597676D02*
X127785714Y-72692914D01*
X127785714Y-72692914D02*
X127690476Y-72740533D01*
X160738095Y-60454819D02*
X161309523Y-60454819D01*
X161023809Y-61454819D02*
X161023809Y-60454819D01*
X161642857Y-61454819D02*
X161642857Y-60454819D01*
X161642857Y-60454819D02*
X162023809Y-60454819D01*
X162023809Y-60454819D02*
X162119047Y-60502438D01*
X162119047Y-60502438D02*
X162166666Y-60550057D01*
X162166666Y-60550057D02*
X162214285Y-60645295D01*
X162214285Y-60645295D02*
X162214285Y-60788152D01*
X162214285Y-60788152D02*
X162166666Y-60883390D01*
X162166666Y-60883390D02*
X162119047Y-60931009D01*
X162119047Y-60931009D02*
X162023809Y-60978628D01*
X162023809Y-60978628D02*
X161642857Y-60978628D01*
X163119047Y-60454819D02*
X162642857Y-60454819D01*
X162642857Y-60454819D02*
X162595238Y-60931009D01*
X162595238Y-60931009D02*
X162642857Y-60883390D01*
X162642857Y-60883390D02*
X162738095Y-60835771D01*
X162738095Y-60835771D02*
X162976190Y-60835771D01*
X162976190Y-60835771D02*
X163071428Y-60883390D01*
X163071428Y-60883390D02*
X163119047Y-60931009D01*
X163119047Y-60931009D02*
X163166666Y-61026247D01*
X163166666Y-61026247D02*
X163166666Y-61264342D01*
X163166666Y-61264342D02*
X163119047Y-61359580D01*
X163119047Y-61359580D02*
X163071428Y-61407200D01*
X163071428Y-61407200D02*
X162976190Y-61454819D01*
X162976190Y-61454819D02*
X162738095Y-61454819D01*
X162738095Y-61454819D02*
X162642857Y-61407200D01*
X162642857Y-61407200D02*
X162595238Y-61359580D01*
X128454819Y-90261904D02*
X128454819Y-89690476D01*
X129454819Y-89976190D02*
X128454819Y-89976190D01*
X129454819Y-89357142D02*
X128454819Y-89357142D01*
X128454819Y-89357142D02*
X128454819Y-88976190D01*
X128454819Y-88976190D02*
X128502438Y-88880952D01*
X128502438Y-88880952D02*
X128550057Y-88833333D01*
X128550057Y-88833333D02*
X128645295Y-88785714D01*
X128645295Y-88785714D02*
X128788152Y-88785714D01*
X128788152Y-88785714D02*
X128883390Y-88833333D01*
X128883390Y-88833333D02*
X128931009Y-88880952D01*
X128931009Y-88880952D02*
X128978628Y-88976190D01*
X128978628Y-88976190D02*
X128978628Y-89357142D01*
X128550057Y-88404761D02*
X128502438Y-88357142D01*
X128502438Y-88357142D02*
X128454819Y-88261904D01*
X128454819Y-88261904D02*
X128454819Y-88023809D01*
X128454819Y-88023809D02*
X128502438Y-87928571D01*
X128502438Y-87928571D02*
X128550057Y-87880952D01*
X128550057Y-87880952D02*
X128645295Y-87833333D01*
X128645295Y-87833333D02*
X128740533Y-87833333D01*
X128740533Y-87833333D02*
X128883390Y-87880952D01*
X128883390Y-87880952D02*
X129454819Y-88452380D01*
X129454819Y-88452380D02*
X129454819Y-87833333D01*
X144857142Y-58454819D02*
X144523809Y-57978628D01*
X144285714Y-58454819D02*
X144285714Y-57454819D01*
X144285714Y-57454819D02*
X144666666Y-57454819D01*
X144666666Y-57454819D02*
X144761904Y-57502438D01*
X144761904Y-57502438D02*
X144809523Y-57550057D01*
X144809523Y-57550057D02*
X144857142Y-57645295D01*
X144857142Y-57645295D02*
X144857142Y-57788152D01*
X144857142Y-57788152D02*
X144809523Y-57883390D01*
X144809523Y-57883390D02*
X144761904Y-57931009D01*
X144761904Y-57931009D02*
X144666666Y-57978628D01*
X144666666Y-57978628D02*
X144285714Y-57978628D01*
X145809523Y-58454819D02*
X145238095Y-58454819D01*
X145523809Y-58454819D02*
X145523809Y-57454819D01*
X145523809Y-57454819D02*
X145428571Y-57597676D01*
X145428571Y-57597676D02*
X145333333Y-57692914D01*
X145333333Y-57692914D02*
X145238095Y-57740533D01*
X146285714Y-58454819D02*
X146476190Y-58454819D01*
X146476190Y-58454819D02*
X146571428Y-58407200D01*
X146571428Y-58407200D02*
X146619047Y-58359580D01*
X146619047Y-58359580D02*
X146714285Y-58216723D01*
X146714285Y-58216723D02*
X146761904Y-58026247D01*
X146761904Y-58026247D02*
X146761904Y-57645295D01*
X146761904Y-57645295D02*
X146714285Y-57550057D01*
X146714285Y-57550057D02*
X146666666Y-57502438D01*
X146666666Y-57502438D02*
X146571428Y-57454819D01*
X146571428Y-57454819D02*
X146380952Y-57454819D01*
X146380952Y-57454819D02*
X146285714Y-57502438D01*
X146285714Y-57502438D02*
X146238095Y-57550057D01*
X146238095Y-57550057D02*
X146190476Y-57645295D01*
X146190476Y-57645295D02*
X146190476Y-57883390D01*
X146190476Y-57883390D02*
X146238095Y-57978628D01*
X146238095Y-57978628D02*
X146285714Y-58026247D01*
X146285714Y-58026247D02*
X146380952Y-58073866D01*
X146380952Y-58073866D02*
X146571428Y-58073866D01*
X146571428Y-58073866D02*
X146666666Y-58026247D01*
X146666666Y-58026247D02*
X146714285Y-57978628D01*
X146714285Y-57978628D02*
X146761904Y-57883390D01*
X162333333Y-96359580D02*
X162285714Y-96407200D01*
X162285714Y-96407200D02*
X162142857Y-96454819D01*
X162142857Y-96454819D02*
X162047619Y-96454819D01*
X162047619Y-96454819D02*
X161904762Y-96407200D01*
X161904762Y-96407200D02*
X161809524Y-96311961D01*
X161809524Y-96311961D02*
X161761905Y-96216723D01*
X161761905Y-96216723D02*
X161714286Y-96026247D01*
X161714286Y-96026247D02*
X161714286Y-95883390D01*
X161714286Y-95883390D02*
X161761905Y-95692914D01*
X161761905Y-95692914D02*
X161809524Y-95597676D01*
X161809524Y-95597676D02*
X161904762Y-95502438D01*
X161904762Y-95502438D02*
X162047619Y-95454819D01*
X162047619Y-95454819D02*
X162142857Y-95454819D01*
X162142857Y-95454819D02*
X162285714Y-95502438D01*
X162285714Y-95502438D02*
X162333333Y-95550057D01*
X162904762Y-95883390D02*
X162809524Y-95835771D01*
X162809524Y-95835771D02*
X162761905Y-95788152D01*
X162761905Y-95788152D02*
X162714286Y-95692914D01*
X162714286Y-95692914D02*
X162714286Y-95645295D01*
X162714286Y-95645295D02*
X162761905Y-95550057D01*
X162761905Y-95550057D02*
X162809524Y-95502438D01*
X162809524Y-95502438D02*
X162904762Y-95454819D01*
X162904762Y-95454819D02*
X163095238Y-95454819D01*
X163095238Y-95454819D02*
X163190476Y-95502438D01*
X163190476Y-95502438D02*
X163238095Y-95550057D01*
X163238095Y-95550057D02*
X163285714Y-95645295D01*
X163285714Y-95645295D02*
X163285714Y-95692914D01*
X163285714Y-95692914D02*
X163238095Y-95788152D01*
X163238095Y-95788152D02*
X163190476Y-95835771D01*
X163190476Y-95835771D02*
X163095238Y-95883390D01*
X163095238Y-95883390D02*
X162904762Y-95883390D01*
X162904762Y-95883390D02*
X162809524Y-95931009D01*
X162809524Y-95931009D02*
X162761905Y-95978628D01*
X162761905Y-95978628D02*
X162714286Y-96073866D01*
X162714286Y-96073866D02*
X162714286Y-96264342D01*
X162714286Y-96264342D02*
X162761905Y-96359580D01*
X162761905Y-96359580D02*
X162809524Y-96407200D01*
X162809524Y-96407200D02*
X162904762Y-96454819D01*
X162904762Y-96454819D02*
X163095238Y-96454819D01*
X163095238Y-96454819D02*
X163190476Y-96407200D01*
X163190476Y-96407200D02*
X163238095Y-96359580D01*
X163238095Y-96359580D02*
X163285714Y-96264342D01*
X163285714Y-96264342D02*
X163285714Y-96073866D01*
X163285714Y-96073866D02*
X163238095Y-95978628D01*
X163238095Y-95978628D02*
X163190476Y-95931009D01*
X163190476Y-95931009D02*
X163095238Y-95883390D01*
X141357142Y-71454819D02*
X141023809Y-70978628D01*
X140785714Y-71454819D02*
X140785714Y-70454819D01*
X140785714Y-70454819D02*
X141166666Y-70454819D01*
X141166666Y-70454819D02*
X141261904Y-70502438D01*
X141261904Y-70502438D02*
X141309523Y-70550057D01*
X141309523Y-70550057D02*
X141357142Y-70645295D01*
X141357142Y-70645295D02*
X141357142Y-70788152D01*
X141357142Y-70788152D02*
X141309523Y-70883390D01*
X141309523Y-70883390D02*
X141261904Y-70931009D01*
X141261904Y-70931009D02*
X141166666Y-70978628D01*
X141166666Y-70978628D02*
X140785714Y-70978628D01*
X142309523Y-71454819D02*
X141738095Y-71454819D01*
X142023809Y-71454819D02*
X142023809Y-70454819D01*
X142023809Y-70454819D02*
X141928571Y-70597676D01*
X141928571Y-70597676D02*
X141833333Y-70692914D01*
X141833333Y-70692914D02*
X141738095Y-70740533D01*
X142880952Y-70883390D02*
X142785714Y-70835771D01*
X142785714Y-70835771D02*
X142738095Y-70788152D01*
X142738095Y-70788152D02*
X142690476Y-70692914D01*
X142690476Y-70692914D02*
X142690476Y-70645295D01*
X142690476Y-70645295D02*
X142738095Y-70550057D01*
X142738095Y-70550057D02*
X142785714Y-70502438D01*
X142785714Y-70502438D02*
X142880952Y-70454819D01*
X142880952Y-70454819D02*
X143071428Y-70454819D01*
X143071428Y-70454819D02*
X143166666Y-70502438D01*
X143166666Y-70502438D02*
X143214285Y-70550057D01*
X143214285Y-70550057D02*
X143261904Y-70645295D01*
X143261904Y-70645295D02*
X143261904Y-70692914D01*
X143261904Y-70692914D02*
X143214285Y-70788152D01*
X143214285Y-70788152D02*
X143166666Y-70835771D01*
X143166666Y-70835771D02*
X143071428Y-70883390D01*
X143071428Y-70883390D02*
X142880952Y-70883390D01*
X142880952Y-70883390D02*
X142785714Y-70931009D01*
X142785714Y-70931009D02*
X142738095Y-70978628D01*
X142738095Y-70978628D02*
X142690476Y-71073866D01*
X142690476Y-71073866D02*
X142690476Y-71264342D01*
X142690476Y-71264342D02*
X142738095Y-71359580D01*
X142738095Y-71359580D02*
X142785714Y-71407200D01*
X142785714Y-71407200D02*
X142880952Y-71454819D01*
X142880952Y-71454819D02*
X143071428Y-71454819D01*
X143071428Y-71454819D02*
X143166666Y-71407200D01*
X143166666Y-71407200D02*
X143214285Y-71359580D01*
X143214285Y-71359580D02*
X143261904Y-71264342D01*
X143261904Y-71264342D02*
X143261904Y-71073866D01*
X143261904Y-71073866D02*
X143214285Y-70978628D01*
X143214285Y-70978628D02*
X143166666Y-70931009D01*
X143166666Y-70931009D02*
X143071428Y-70883390D01*
X126833333Y-75454819D02*
X126500000Y-74978628D01*
X126261905Y-75454819D02*
X126261905Y-74454819D01*
X126261905Y-74454819D02*
X126642857Y-74454819D01*
X126642857Y-74454819D02*
X126738095Y-74502438D01*
X126738095Y-74502438D02*
X126785714Y-74550057D01*
X126785714Y-74550057D02*
X126833333Y-74645295D01*
X126833333Y-74645295D02*
X126833333Y-74788152D01*
X126833333Y-74788152D02*
X126785714Y-74883390D01*
X126785714Y-74883390D02*
X126738095Y-74931009D01*
X126738095Y-74931009D02*
X126642857Y-74978628D01*
X126642857Y-74978628D02*
X126261905Y-74978628D01*
X127404762Y-74883390D02*
X127309524Y-74835771D01*
X127309524Y-74835771D02*
X127261905Y-74788152D01*
X127261905Y-74788152D02*
X127214286Y-74692914D01*
X127214286Y-74692914D02*
X127214286Y-74645295D01*
X127214286Y-74645295D02*
X127261905Y-74550057D01*
X127261905Y-74550057D02*
X127309524Y-74502438D01*
X127309524Y-74502438D02*
X127404762Y-74454819D01*
X127404762Y-74454819D02*
X127595238Y-74454819D01*
X127595238Y-74454819D02*
X127690476Y-74502438D01*
X127690476Y-74502438D02*
X127738095Y-74550057D01*
X127738095Y-74550057D02*
X127785714Y-74645295D01*
X127785714Y-74645295D02*
X127785714Y-74692914D01*
X127785714Y-74692914D02*
X127738095Y-74788152D01*
X127738095Y-74788152D02*
X127690476Y-74835771D01*
X127690476Y-74835771D02*
X127595238Y-74883390D01*
X127595238Y-74883390D02*
X127404762Y-74883390D01*
X127404762Y-74883390D02*
X127309524Y-74931009D01*
X127309524Y-74931009D02*
X127261905Y-74978628D01*
X127261905Y-74978628D02*
X127214286Y-75073866D01*
X127214286Y-75073866D02*
X127214286Y-75264342D01*
X127214286Y-75264342D02*
X127261905Y-75359580D01*
X127261905Y-75359580D02*
X127309524Y-75407200D01*
X127309524Y-75407200D02*
X127404762Y-75454819D01*
X127404762Y-75454819D02*
X127595238Y-75454819D01*
X127595238Y-75454819D02*
X127690476Y-75407200D01*
X127690476Y-75407200D02*
X127738095Y-75359580D01*
X127738095Y-75359580D02*
X127785714Y-75264342D01*
X127785714Y-75264342D02*
X127785714Y-75073866D01*
X127785714Y-75073866D02*
X127738095Y-74978628D01*
X127738095Y-74978628D02*
X127690476Y-74931009D01*
X127690476Y-74931009D02*
X127595238Y-74883390D01*
X148516666Y-125431009D02*
X148183333Y-125431009D01*
X148183333Y-125954819D02*
X148183333Y-124954819D01*
X148183333Y-124954819D02*
X148659523Y-124954819D01*
X149373809Y-125431009D02*
X149516666Y-125478628D01*
X149516666Y-125478628D02*
X149564285Y-125526247D01*
X149564285Y-125526247D02*
X149611904Y-125621485D01*
X149611904Y-125621485D02*
X149611904Y-125764342D01*
X149611904Y-125764342D02*
X149564285Y-125859580D01*
X149564285Y-125859580D02*
X149516666Y-125907200D01*
X149516666Y-125907200D02*
X149421428Y-125954819D01*
X149421428Y-125954819D02*
X149040476Y-125954819D01*
X149040476Y-125954819D02*
X149040476Y-124954819D01*
X149040476Y-124954819D02*
X149373809Y-124954819D01*
X149373809Y-124954819D02*
X149469047Y-125002438D01*
X149469047Y-125002438D02*
X149516666Y-125050057D01*
X149516666Y-125050057D02*
X149564285Y-125145295D01*
X149564285Y-125145295D02*
X149564285Y-125240533D01*
X149564285Y-125240533D02*
X149516666Y-125335771D01*
X149516666Y-125335771D02*
X149469047Y-125383390D01*
X149469047Y-125383390D02*
X149373809Y-125431009D01*
X149373809Y-125431009D02*
X149040476Y-125431009D01*
X149992857Y-125050057D02*
X150040476Y-125002438D01*
X150040476Y-125002438D02*
X150135714Y-124954819D01*
X150135714Y-124954819D02*
X150373809Y-124954819D01*
X150373809Y-124954819D02*
X150469047Y-125002438D01*
X150469047Y-125002438D02*
X150516666Y-125050057D01*
X150516666Y-125050057D02*
X150564285Y-125145295D01*
X150564285Y-125145295D02*
X150564285Y-125240533D01*
X150564285Y-125240533D02*
X150516666Y-125383390D01*
X150516666Y-125383390D02*
X149945238Y-125954819D01*
X149945238Y-125954819D02*
X150564285Y-125954819D01*
X135454819Y-60738094D02*
X134454819Y-60738094D01*
X134454819Y-60738094D02*
X134454819Y-60499999D01*
X134454819Y-60499999D02*
X134502438Y-60357142D01*
X134502438Y-60357142D02*
X134597676Y-60261904D01*
X134597676Y-60261904D02*
X134692914Y-60214285D01*
X134692914Y-60214285D02*
X134883390Y-60166666D01*
X134883390Y-60166666D02*
X135026247Y-60166666D01*
X135026247Y-60166666D02*
X135216723Y-60214285D01*
X135216723Y-60214285D02*
X135311961Y-60261904D01*
X135311961Y-60261904D02*
X135407200Y-60357142D01*
X135407200Y-60357142D02*
X135454819Y-60499999D01*
X135454819Y-60499999D02*
X135454819Y-60738094D01*
X134550057Y-59785713D02*
X134502438Y-59738094D01*
X134502438Y-59738094D02*
X134454819Y-59642856D01*
X134454819Y-59642856D02*
X134454819Y-59404761D01*
X134454819Y-59404761D02*
X134502438Y-59309523D01*
X134502438Y-59309523D02*
X134550057Y-59261904D01*
X134550057Y-59261904D02*
X134645295Y-59214285D01*
X134645295Y-59214285D02*
X134740533Y-59214285D01*
X134740533Y-59214285D02*
X134883390Y-59261904D01*
X134883390Y-59261904D02*
X135454819Y-59833332D01*
X135454819Y-59833332D02*
X135454819Y-59214285D01*
X144857142Y-62359580D02*
X144809523Y-62407200D01*
X144809523Y-62407200D02*
X144666666Y-62454819D01*
X144666666Y-62454819D02*
X144571428Y-62454819D01*
X144571428Y-62454819D02*
X144428571Y-62407200D01*
X144428571Y-62407200D02*
X144333333Y-62311961D01*
X144333333Y-62311961D02*
X144285714Y-62216723D01*
X144285714Y-62216723D02*
X144238095Y-62026247D01*
X144238095Y-62026247D02*
X144238095Y-61883390D01*
X144238095Y-61883390D02*
X144285714Y-61692914D01*
X144285714Y-61692914D02*
X144333333Y-61597676D01*
X144333333Y-61597676D02*
X144428571Y-61502438D01*
X144428571Y-61502438D02*
X144571428Y-61454819D01*
X144571428Y-61454819D02*
X144666666Y-61454819D01*
X144666666Y-61454819D02*
X144809523Y-61502438D01*
X144809523Y-61502438D02*
X144857142Y-61550057D01*
X145238095Y-61550057D02*
X145285714Y-61502438D01*
X145285714Y-61502438D02*
X145380952Y-61454819D01*
X145380952Y-61454819D02*
X145619047Y-61454819D01*
X145619047Y-61454819D02*
X145714285Y-61502438D01*
X145714285Y-61502438D02*
X145761904Y-61550057D01*
X145761904Y-61550057D02*
X145809523Y-61645295D01*
X145809523Y-61645295D02*
X145809523Y-61740533D01*
X145809523Y-61740533D02*
X145761904Y-61883390D01*
X145761904Y-61883390D02*
X145190476Y-62454819D01*
X145190476Y-62454819D02*
X145809523Y-62454819D01*
X146666666Y-61788152D02*
X146666666Y-62454819D01*
X146428571Y-61407200D02*
X146190476Y-62121485D01*
X146190476Y-62121485D02*
X146809523Y-62121485D01*
X149857142Y-108954819D02*
X149523809Y-108478628D01*
X149285714Y-108954819D02*
X149285714Y-107954819D01*
X149285714Y-107954819D02*
X149666666Y-107954819D01*
X149666666Y-107954819D02*
X149761904Y-108002438D01*
X149761904Y-108002438D02*
X149809523Y-108050057D01*
X149809523Y-108050057D02*
X149857142Y-108145295D01*
X149857142Y-108145295D02*
X149857142Y-108288152D01*
X149857142Y-108288152D02*
X149809523Y-108383390D01*
X149809523Y-108383390D02*
X149761904Y-108431009D01*
X149761904Y-108431009D02*
X149666666Y-108478628D01*
X149666666Y-108478628D02*
X149285714Y-108478628D01*
X150190476Y-107954819D02*
X150809523Y-107954819D01*
X150809523Y-107954819D02*
X150476190Y-108335771D01*
X150476190Y-108335771D02*
X150619047Y-108335771D01*
X150619047Y-108335771D02*
X150714285Y-108383390D01*
X150714285Y-108383390D02*
X150761904Y-108431009D01*
X150761904Y-108431009D02*
X150809523Y-108526247D01*
X150809523Y-108526247D02*
X150809523Y-108764342D01*
X150809523Y-108764342D02*
X150761904Y-108859580D01*
X150761904Y-108859580D02*
X150714285Y-108907200D01*
X150714285Y-108907200D02*
X150619047Y-108954819D01*
X150619047Y-108954819D02*
X150333333Y-108954819D01*
X150333333Y-108954819D02*
X150238095Y-108907200D01*
X150238095Y-108907200D02*
X150190476Y-108859580D01*
X151714285Y-107954819D02*
X151238095Y-107954819D01*
X151238095Y-107954819D02*
X151190476Y-108431009D01*
X151190476Y-108431009D02*
X151238095Y-108383390D01*
X151238095Y-108383390D02*
X151333333Y-108335771D01*
X151333333Y-108335771D02*
X151571428Y-108335771D01*
X151571428Y-108335771D02*
X151666666Y-108383390D01*
X151666666Y-108383390D02*
X151714285Y-108431009D01*
X151714285Y-108431009D02*
X151761904Y-108526247D01*
X151761904Y-108526247D02*
X151761904Y-108764342D01*
X151761904Y-108764342D02*
X151714285Y-108859580D01*
X151714285Y-108859580D02*
X151666666Y-108907200D01*
X151666666Y-108907200D02*
X151571428Y-108954819D01*
X151571428Y-108954819D02*
X151333333Y-108954819D01*
X151333333Y-108954819D02*
X151238095Y-108907200D01*
X151238095Y-108907200D02*
X151190476Y-108859580D01*
X137833333Y-91349580D02*
X137785714Y-91397200D01*
X137785714Y-91397200D02*
X137642857Y-91444819D01*
X137642857Y-91444819D02*
X137547619Y-91444819D01*
X137547619Y-91444819D02*
X137404762Y-91397200D01*
X137404762Y-91397200D02*
X137309524Y-91301961D01*
X137309524Y-91301961D02*
X137261905Y-91206723D01*
X137261905Y-91206723D02*
X137214286Y-91016247D01*
X137214286Y-91016247D02*
X137214286Y-90873390D01*
X137214286Y-90873390D02*
X137261905Y-90682914D01*
X137261905Y-90682914D02*
X137309524Y-90587676D01*
X137309524Y-90587676D02*
X137404762Y-90492438D01*
X137404762Y-90492438D02*
X137547619Y-90444819D01*
X137547619Y-90444819D02*
X137642857Y-90444819D01*
X137642857Y-90444819D02*
X137785714Y-90492438D01*
X137785714Y-90492438D02*
X137833333Y-90540057D01*
X138166667Y-90444819D02*
X138833333Y-90444819D01*
X138833333Y-90444819D02*
X138404762Y-91444819D01*
X136857142Y-103349580D02*
X136809523Y-103397200D01*
X136809523Y-103397200D02*
X136666666Y-103444819D01*
X136666666Y-103444819D02*
X136571428Y-103444819D01*
X136571428Y-103444819D02*
X136428571Y-103397200D01*
X136428571Y-103397200D02*
X136333333Y-103301961D01*
X136333333Y-103301961D02*
X136285714Y-103206723D01*
X136285714Y-103206723D02*
X136238095Y-103016247D01*
X136238095Y-103016247D02*
X136238095Y-102873390D01*
X136238095Y-102873390D02*
X136285714Y-102682914D01*
X136285714Y-102682914D02*
X136333333Y-102587676D01*
X136333333Y-102587676D02*
X136428571Y-102492438D01*
X136428571Y-102492438D02*
X136571428Y-102444819D01*
X136571428Y-102444819D02*
X136666666Y-102444819D01*
X136666666Y-102444819D02*
X136809523Y-102492438D01*
X136809523Y-102492438D02*
X136857142Y-102540057D01*
X137809523Y-103444819D02*
X137238095Y-103444819D01*
X137523809Y-103444819D02*
X137523809Y-102444819D01*
X137523809Y-102444819D02*
X137428571Y-102587676D01*
X137428571Y-102587676D02*
X137333333Y-102682914D01*
X137333333Y-102682914D02*
X137238095Y-102730533D01*
X138761904Y-103444819D02*
X138190476Y-103444819D01*
X138476190Y-103444819D02*
X138476190Y-102444819D01*
X138476190Y-102444819D02*
X138380952Y-102587676D01*
X138380952Y-102587676D02*
X138285714Y-102682914D01*
X138285714Y-102682914D02*
X138190476Y-102730533D01*
X120857142Y-90454819D02*
X120523809Y-89978628D01*
X120285714Y-90454819D02*
X120285714Y-89454819D01*
X120285714Y-89454819D02*
X120666666Y-89454819D01*
X120666666Y-89454819D02*
X120761904Y-89502438D01*
X120761904Y-89502438D02*
X120809523Y-89550057D01*
X120809523Y-89550057D02*
X120857142Y-89645295D01*
X120857142Y-89645295D02*
X120857142Y-89788152D01*
X120857142Y-89788152D02*
X120809523Y-89883390D01*
X120809523Y-89883390D02*
X120761904Y-89931009D01*
X120761904Y-89931009D02*
X120666666Y-89978628D01*
X120666666Y-89978628D02*
X120285714Y-89978628D01*
X121190476Y-89454819D02*
X121809523Y-89454819D01*
X121809523Y-89454819D02*
X121476190Y-89835771D01*
X121476190Y-89835771D02*
X121619047Y-89835771D01*
X121619047Y-89835771D02*
X121714285Y-89883390D01*
X121714285Y-89883390D02*
X121761904Y-89931009D01*
X121761904Y-89931009D02*
X121809523Y-90026247D01*
X121809523Y-90026247D02*
X121809523Y-90264342D01*
X121809523Y-90264342D02*
X121761904Y-90359580D01*
X121761904Y-90359580D02*
X121714285Y-90407200D01*
X121714285Y-90407200D02*
X121619047Y-90454819D01*
X121619047Y-90454819D02*
X121333333Y-90454819D01*
X121333333Y-90454819D02*
X121238095Y-90407200D01*
X121238095Y-90407200D02*
X121190476Y-90359580D01*
X122190476Y-89550057D02*
X122238095Y-89502438D01*
X122238095Y-89502438D02*
X122333333Y-89454819D01*
X122333333Y-89454819D02*
X122571428Y-89454819D01*
X122571428Y-89454819D02*
X122666666Y-89502438D01*
X122666666Y-89502438D02*
X122714285Y-89550057D01*
X122714285Y-89550057D02*
X122761904Y-89645295D01*
X122761904Y-89645295D02*
X122761904Y-89740533D01*
X122761904Y-89740533D02*
X122714285Y-89883390D01*
X122714285Y-89883390D02*
X122142857Y-90454819D01*
X122142857Y-90454819D02*
X122761904Y-90454819D01*
X149857142Y-113954819D02*
X149523809Y-113478628D01*
X149285714Y-113954819D02*
X149285714Y-112954819D01*
X149285714Y-112954819D02*
X149666666Y-112954819D01*
X149666666Y-112954819D02*
X149761904Y-113002438D01*
X149761904Y-113002438D02*
X149809523Y-113050057D01*
X149809523Y-113050057D02*
X149857142Y-113145295D01*
X149857142Y-113145295D02*
X149857142Y-113288152D01*
X149857142Y-113288152D02*
X149809523Y-113383390D01*
X149809523Y-113383390D02*
X149761904Y-113431009D01*
X149761904Y-113431009D02*
X149666666Y-113478628D01*
X149666666Y-113478628D02*
X149285714Y-113478628D01*
X150190476Y-112954819D02*
X150809523Y-112954819D01*
X150809523Y-112954819D02*
X150476190Y-113335771D01*
X150476190Y-113335771D02*
X150619047Y-113335771D01*
X150619047Y-113335771D02*
X150714285Y-113383390D01*
X150714285Y-113383390D02*
X150761904Y-113431009D01*
X150761904Y-113431009D02*
X150809523Y-113526247D01*
X150809523Y-113526247D02*
X150809523Y-113764342D01*
X150809523Y-113764342D02*
X150761904Y-113859580D01*
X150761904Y-113859580D02*
X150714285Y-113907200D01*
X150714285Y-113907200D02*
X150619047Y-113954819D01*
X150619047Y-113954819D02*
X150333333Y-113954819D01*
X150333333Y-113954819D02*
X150238095Y-113907200D01*
X150238095Y-113907200D02*
X150190476Y-113859580D01*
X151666666Y-113288152D02*
X151666666Y-113954819D01*
X151428571Y-112907200D02*
X151190476Y-113621485D01*
X151190476Y-113621485D02*
X151809523Y-113621485D01*
X151704819Y-87142857D02*
X151228628Y-87476190D01*
X151704819Y-87714285D02*
X150704819Y-87714285D01*
X150704819Y-87714285D02*
X150704819Y-87333333D01*
X150704819Y-87333333D02*
X150752438Y-87238095D01*
X150752438Y-87238095D02*
X150800057Y-87190476D01*
X150800057Y-87190476D02*
X150895295Y-87142857D01*
X150895295Y-87142857D02*
X151038152Y-87142857D01*
X151038152Y-87142857D02*
X151133390Y-87190476D01*
X151133390Y-87190476D02*
X151181009Y-87238095D01*
X151181009Y-87238095D02*
X151228628Y-87333333D01*
X151228628Y-87333333D02*
X151228628Y-87714285D01*
X150800057Y-86761904D02*
X150752438Y-86714285D01*
X150752438Y-86714285D02*
X150704819Y-86619047D01*
X150704819Y-86619047D02*
X150704819Y-86380952D01*
X150704819Y-86380952D02*
X150752438Y-86285714D01*
X150752438Y-86285714D02*
X150800057Y-86238095D01*
X150800057Y-86238095D02*
X150895295Y-86190476D01*
X150895295Y-86190476D02*
X150990533Y-86190476D01*
X150990533Y-86190476D02*
X151133390Y-86238095D01*
X151133390Y-86238095D02*
X151704819Y-86809523D01*
X151704819Y-86809523D02*
X151704819Y-86190476D01*
X151133390Y-85619047D02*
X151085771Y-85714285D01*
X151085771Y-85714285D02*
X151038152Y-85761904D01*
X151038152Y-85761904D02*
X150942914Y-85809523D01*
X150942914Y-85809523D02*
X150895295Y-85809523D01*
X150895295Y-85809523D02*
X150800057Y-85761904D01*
X150800057Y-85761904D02*
X150752438Y-85714285D01*
X150752438Y-85714285D02*
X150704819Y-85619047D01*
X150704819Y-85619047D02*
X150704819Y-85428571D01*
X150704819Y-85428571D02*
X150752438Y-85333333D01*
X150752438Y-85333333D02*
X150800057Y-85285714D01*
X150800057Y-85285714D02*
X150895295Y-85238095D01*
X150895295Y-85238095D02*
X150942914Y-85238095D01*
X150942914Y-85238095D02*
X151038152Y-85285714D01*
X151038152Y-85285714D02*
X151085771Y-85333333D01*
X151085771Y-85333333D02*
X151133390Y-85428571D01*
X151133390Y-85428571D02*
X151133390Y-85619047D01*
X151133390Y-85619047D02*
X151181009Y-85714285D01*
X151181009Y-85714285D02*
X151228628Y-85761904D01*
X151228628Y-85761904D02*
X151323866Y-85809523D01*
X151323866Y-85809523D02*
X151514342Y-85809523D01*
X151514342Y-85809523D02*
X151609580Y-85761904D01*
X151609580Y-85761904D02*
X151657200Y-85714285D01*
X151657200Y-85714285D02*
X151704819Y-85619047D01*
X151704819Y-85619047D02*
X151704819Y-85428571D01*
X151704819Y-85428571D02*
X151657200Y-85333333D01*
X151657200Y-85333333D02*
X151609580Y-85285714D01*
X151609580Y-85285714D02*
X151514342Y-85238095D01*
X151514342Y-85238095D02*
X151323866Y-85238095D01*
X151323866Y-85238095D02*
X151228628Y-85285714D01*
X151228628Y-85285714D02*
X151181009Y-85333333D01*
X151181009Y-85333333D02*
X151133390Y-85428571D01*
X154738095Y-93454819D02*
X154738095Y-94264342D01*
X154738095Y-94264342D02*
X154785714Y-94359580D01*
X154785714Y-94359580D02*
X154833333Y-94407200D01*
X154833333Y-94407200D02*
X154928571Y-94454819D01*
X154928571Y-94454819D02*
X155119047Y-94454819D01*
X155119047Y-94454819D02*
X155214285Y-94407200D01*
X155214285Y-94407200D02*
X155261904Y-94359580D01*
X155261904Y-94359580D02*
X155309523Y-94264342D01*
X155309523Y-94264342D02*
X155309523Y-93454819D01*
X156309523Y-94454819D02*
X155738095Y-94454819D01*
X156023809Y-94454819D02*
X156023809Y-93454819D01*
X156023809Y-93454819D02*
X155928571Y-93597676D01*
X155928571Y-93597676D02*
X155833333Y-93692914D01*
X155833333Y-93692914D02*
X155738095Y-93740533D01*
X120857142Y-86454819D02*
X120523809Y-85978628D01*
X120285714Y-86454819D02*
X120285714Y-85454819D01*
X120285714Y-85454819D02*
X120666666Y-85454819D01*
X120666666Y-85454819D02*
X120761904Y-85502438D01*
X120761904Y-85502438D02*
X120809523Y-85550057D01*
X120809523Y-85550057D02*
X120857142Y-85645295D01*
X120857142Y-85645295D02*
X120857142Y-85788152D01*
X120857142Y-85788152D02*
X120809523Y-85883390D01*
X120809523Y-85883390D02*
X120761904Y-85931009D01*
X120761904Y-85931009D02*
X120666666Y-85978628D01*
X120666666Y-85978628D02*
X120285714Y-85978628D01*
X121190476Y-85454819D02*
X121809523Y-85454819D01*
X121809523Y-85454819D02*
X121476190Y-85835771D01*
X121476190Y-85835771D02*
X121619047Y-85835771D01*
X121619047Y-85835771D02*
X121714285Y-85883390D01*
X121714285Y-85883390D02*
X121761904Y-85931009D01*
X121761904Y-85931009D02*
X121809523Y-86026247D01*
X121809523Y-86026247D02*
X121809523Y-86264342D01*
X121809523Y-86264342D02*
X121761904Y-86359580D01*
X121761904Y-86359580D02*
X121714285Y-86407200D01*
X121714285Y-86407200D02*
X121619047Y-86454819D01*
X121619047Y-86454819D02*
X121333333Y-86454819D01*
X121333333Y-86454819D02*
X121238095Y-86407200D01*
X121238095Y-86407200D02*
X121190476Y-86359580D01*
X122142857Y-85454819D02*
X122761904Y-85454819D01*
X122761904Y-85454819D02*
X122428571Y-85835771D01*
X122428571Y-85835771D02*
X122571428Y-85835771D01*
X122571428Y-85835771D02*
X122666666Y-85883390D01*
X122666666Y-85883390D02*
X122714285Y-85931009D01*
X122714285Y-85931009D02*
X122761904Y-86026247D01*
X122761904Y-86026247D02*
X122761904Y-86264342D01*
X122761904Y-86264342D02*
X122714285Y-86359580D01*
X122714285Y-86359580D02*
X122666666Y-86407200D01*
X122666666Y-86407200D02*
X122571428Y-86454819D01*
X122571428Y-86454819D02*
X122285714Y-86454819D01*
X122285714Y-86454819D02*
X122190476Y-86407200D01*
X122190476Y-86407200D02*
X122142857Y-86359580D01*
G04 #@! TO.C,U3*
D11*
X148496700Y-81638300D02*
X150503300Y-81638300D01*
X150503300Y-80363261D02*
X150503300Y-79636739D01*
X150503300Y-78361700D02*
X148496700Y-78361700D01*
G04 #@! TO.C,R14*
D12*
X145245276Y-82522500D02*
X145754724Y-82522500D01*
X145245276Y-81477500D02*
X145754724Y-81477500D01*
G04 #@! TO.C,R12*
X145245276Y-79477500D02*
X145754724Y-79477500D01*
X145245276Y-80522500D02*
X145754724Y-80522500D01*
G04 #@! TO.C,R10*
X145245276Y-76522500D02*
X145754724Y-76522500D01*
X145245276Y-75477500D02*
X145754724Y-75477500D01*
G04 #@! TO.C,R9*
X145245276Y-77477500D02*
X145754724Y-77477500D01*
X145245276Y-78522500D02*
X145754724Y-78522500D01*
G04 #@! TO.C,D1*
D13*
X144100000Y-65000000D02*
G75*
G02*
X143900000Y-65000000I-100000J0D01*
G01*
X143900000Y-65000000D02*
G75*
G02*
X144100000Y-65000000I100000J0D01*
G01*
D14*
X145470000Y-64500000D02*
X145530000Y-64500000D01*
X145530000Y-65500000D02*
X145470000Y-65500000D01*
G04 #@! TO.C,TP3*
D12*
X126200000Y-83500000D02*
G75*
G02*
X123800000Y-83500000I-1200000J0D01*
G01*
X123800000Y-83500000D02*
G75*
G02*
X126200000Y-83500000I1200000J0D01*
G01*
G04 #@! TO.C,TP6*
X156700000Y-61000000D02*
G75*
G02*
X154300000Y-61000000I-1200000J0D01*
G01*
X154300000Y-61000000D02*
G75*
G02*
X156700000Y-61000000I1200000J0D01*
G01*
G04 #@! TO.C,C17*
X131990000Y-80146267D02*
X131990000Y-79853733D01*
X133010000Y-80146267D02*
X133010000Y-79853733D01*
G04 #@! TO.C,C26*
X136490000Y-62853733D02*
X136490000Y-63146267D01*
X137510000Y-62853733D02*
X137510000Y-63146267D01*
G04 #@! TO.C,R22*
X142254724Y-55477500D02*
X141745276Y-55477500D01*
X142254724Y-56522500D02*
X141745276Y-56522500D01*
G04 #@! TO.C,C18*
X137990000Y-79853733D02*
X137990000Y-80146267D01*
X139010000Y-79853733D02*
X139010000Y-80146267D01*
G04 #@! TO.C,R27*
X148727500Y-90254724D02*
X148727500Y-89745276D01*
X149772500Y-90254724D02*
X149772500Y-89745276D01*
G04 #@! TO.C,R17*
X153754724Y-65977500D02*
X153245276Y-65977500D01*
X153754724Y-67022500D02*
X153245276Y-67022500D01*
G04 #@! TO.C,R4*
X158745276Y-88977500D02*
X159254724Y-88977500D01*
X158745276Y-90022500D02*
X159254724Y-90022500D01*
G04 #@! TO.C,C2*
X141146267Y-106490000D02*
X140853733Y-106490000D01*
X141146267Y-107510000D02*
X140853733Y-107510000D01*
G04 #@! TO.C,R31*
X125167224Y-87477500D02*
X124657776Y-87477500D01*
X125167224Y-88522500D02*
X124657776Y-88522500D01*
G04 #@! TO.C,C9*
X158853733Y-93480000D02*
X159146267Y-93480000D01*
X158853733Y-94500000D02*
X159146267Y-94500000D01*
G04 #@! TO.C,C5*
X146990000Y-108843733D02*
X146990000Y-109136267D01*
X148010000Y-108843733D02*
X148010000Y-109136267D01*
G04 #@! TO.C,TP1*
X162450000Y-102500000D02*
G75*
G02*
X160050000Y-102500000I-1200000J0D01*
G01*
X160050000Y-102500000D02*
G75*
G02*
X162450000Y-102500000I1200000J0D01*
G01*
G04 #@! TO.C,C12*
X146740000Y-90136267D02*
X146740000Y-89843733D01*
X147760000Y-90136267D02*
X147760000Y-89843733D01*
G04 #@! TO.C,C22*
X130646267Y-76490000D02*
X130353733Y-76490000D01*
X130646267Y-77510000D02*
X130353733Y-77510000D01*
G04 #@! TO.C,R21*
X138477500Y-63254724D02*
X138477500Y-62745276D01*
X139522500Y-63254724D02*
X139522500Y-62745276D01*
G04 #@! TO.C,U6*
X140900000Y-119900000D02*
X140900000Y-119900000D01*
X140900000Y-120400000D02*
X140900000Y-120100000D01*
X140900000Y-121600000D02*
X140900000Y-121600000D01*
X140900000Y-122100000D02*
X140900000Y-121600000D01*
X141400000Y-119900000D02*
X141100000Y-119900000D01*
X141400000Y-122100000D02*
X140900000Y-122100000D01*
X142600000Y-119900000D02*
X143100000Y-119900000D01*
X142600000Y-122100000D02*
X142600000Y-122100000D01*
X143100000Y-119900000D02*
X143100000Y-120400000D01*
X143100000Y-120400000D02*
X143100000Y-120400000D01*
X143100000Y-121600000D02*
X143100000Y-122100000D01*
X143100000Y-122100000D02*
X142600000Y-122100000D01*
X140900000Y-119900000D02*
X140540000Y-119900000D01*
X140900000Y-119540000D01*
X140900000Y-119900000D01*
G36*
X140900000Y-119900000D02*
G01*
X140540000Y-119900000D01*
X140900000Y-119540000D01*
X140900000Y-119900000D01*
G37*
G04 #@! TO.C,U4*
X148590000Y-66390000D02*
X150410000Y-66390000D01*
X148590000Y-66440000D02*
X148590000Y-66390000D01*
X148590000Y-69510000D02*
X148590000Y-69460000D01*
X150410000Y-66390000D02*
X150410000Y-66440000D01*
X150410000Y-69460000D02*
X150410000Y-69510000D01*
X150410000Y-69510000D02*
X148590000Y-69510000D01*
X150950000Y-69460000D02*
X151190000Y-69790000D01*
X150710000Y-69790000D01*
X150950000Y-69460000D01*
G36*
X151190000Y-69790000D02*
G01*
X150710000Y-69790000D01*
X150950000Y-69460000D01*
X151190000Y-69790000D01*
G37*
G04 #@! TO.C,TP7*
X156700000Y-75000000D02*
G75*
G02*
X154300000Y-75000000I-1200000J0D01*
G01*
X154300000Y-75000000D02*
G75*
G02*
X156700000Y-75000000I1200000J0D01*
G01*
G04 #@! TO.C,R1*
X137754724Y-98467500D02*
X137245276Y-98467500D01*
X137754724Y-99512500D02*
X137245276Y-99512500D01*
G04 #@! TO.C,U5*
X136390000Y-57390000D02*
X136865000Y-57390000D01*
X136390000Y-57865000D02*
X136390000Y-57390000D01*
X136390000Y-60610000D02*
X136390000Y-60135000D01*
X136865000Y-60610000D02*
X136390000Y-60610000D01*
X139135000Y-57390000D02*
X139610000Y-57390000D01*
X139610000Y-57390000D02*
X139610000Y-57865000D01*
X139610000Y-60135000D02*
X139610000Y-60610000D01*
X139610000Y-60610000D02*
X139135000Y-60610000D01*
X138750000Y-56860000D02*
X138510000Y-56530000D01*
X138990000Y-56530000D01*
X138750000Y-56860000D01*
G36*
X138750000Y-56860000D02*
G01*
X138510000Y-56530000D01*
X138990000Y-56530000D01*
X138750000Y-56860000D01*
G37*
G04 #@! TO.C,C16*
X132990000Y-102136267D02*
X132990000Y-101843733D01*
X134010000Y-102136267D02*
X134010000Y-101843733D01*
G04 #@! TO.C,C32*
X124853733Y-93490000D02*
X125146267Y-93490000D01*
X124853733Y-94510000D02*
X125146267Y-94510000D01*
G04 #@! TO.C,C10*
X158853733Y-86990000D02*
X159146267Y-86990000D01*
X158853733Y-88010000D02*
X159146267Y-88010000D01*
G04 #@! TO.C,C13*
X133853733Y-94480000D02*
X134146267Y-94480000D01*
X133853733Y-95500000D02*
X134146267Y-95500000D01*
G04 #@! TO.C,IC1*
D13*
X140300000Y-115850000D02*
X140300000Y-115850000D01*
X140500000Y-115850000D02*
X140500000Y-115850000D01*
D15*
X141000000Y-115500000D02*
X143000000Y-115500000D01*
X141000000Y-117500000D02*
X143000000Y-117500000D01*
D13*
X140300000Y-115850000D02*
G75*
G02*
X140500000Y-115850000I100000J0D01*
G01*
X140500000Y-115850000D02*
G75*
G02*
X140300000Y-115850000I-100000J0D01*
G01*
G04 #@! TO.C,R7*
D12*
X137754724Y-96467500D02*
X137245276Y-96467500D01*
X137754724Y-97512500D02*
X137245276Y-97512500D01*
G04 #@! TO.C,R16*
X153754724Y-68977500D02*
X153245276Y-68977500D01*
X153754724Y-70022500D02*
X153245276Y-70022500D01*
G04 #@! TO.C,L1*
X136890000Y-76261252D02*
X136890000Y-75738748D01*
X139110000Y-76261252D02*
X139110000Y-75738748D01*
G04 #@! TO.C,R29*
X125254724Y-91477500D02*
X124745276Y-91477500D01*
X125254724Y-92522500D02*
X124745276Y-92522500D01*
G04 #@! TO.C,C20*
X134646267Y-72490000D02*
X134353733Y-72490000D01*
X134646267Y-73510000D02*
X134353733Y-73510000D01*
G04 #@! TO.C,C30*
X145853733Y-120990000D02*
X146146267Y-120990000D01*
X145853733Y-122010000D02*
X146146267Y-122010000D01*
G04 #@! TO.C,C19*
X135990000Y-79853733D02*
X135990000Y-80146267D01*
X137010000Y-79853733D02*
X137010000Y-80146267D01*
G04 #@! TO.C,R3*
X158745276Y-99477500D02*
X159254724Y-99477500D01*
X158745276Y-100522500D02*
X159254724Y-100522500D01*
G04 #@! TO.C,C31*
X145853733Y-122990000D02*
X146146267Y-122990000D01*
X145853733Y-124010000D02*
X146146267Y-124010000D01*
G04 #@! TO.C,R2*
X137754724Y-100467500D02*
X137245276Y-100467500D01*
X137754724Y-101512500D02*
X137245276Y-101512500D01*
G04 #@! TO.C,TH1*
X149254724Y-55477500D02*
X148745276Y-55477500D01*
X149254724Y-56522500D02*
X148745276Y-56522500D01*
G04 #@! TO.C,D3*
X131540000Y-61140000D02*
X131540000Y-64000000D01*
X133460000Y-61140000D02*
X131540000Y-61140000D01*
X133460000Y-64000000D02*
X133460000Y-61140000D01*
G04 #@! TO.C,SW1*
X131190000Y-88640000D02*
X133200000Y-88640000D01*
X131190000Y-91360000D02*
X131190000Y-88640000D01*
X131450000Y-91360000D02*
X131200000Y-91360000D01*
X131450000Y-91360000D02*
X131450000Y-91900000D01*
X133020000Y-91360000D02*
X134980000Y-91360000D01*
X134800000Y-88640000D02*
X136810000Y-88640000D01*
X136810000Y-88650000D02*
X136810000Y-91350000D01*
X136810000Y-91360000D02*
X136550000Y-91360000D01*
G04 #@! TO.C,C15*
X130990000Y-102136267D02*
X130990000Y-101843733D01*
X132010000Y-102136267D02*
X132010000Y-101843733D01*
G04 #@! TO.C,R13*
X127977500Y-79745276D02*
X127977500Y-80254724D01*
X129022500Y-79745276D02*
X129022500Y-80254724D01*
G04 #@! TO.C,C29*
X145853733Y-118990000D02*
X146146267Y-118990000D01*
X145853733Y-120010000D02*
X146146267Y-120010000D01*
G04 #@! TO.C,R15*
X145245276Y-68477500D02*
X145754724Y-68477500D01*
X145245276Y-69522500D02*
X145754724Y-69522500D01*
G04 #@! TO.C,R23*
X134477500Y-66745276D02*
X134477500Y-67254724D01*
X135522500Y-66745276D02*
X135522500Y-67254724D01*
G04 #@! TO.C,R24*
X131977500Y-66745276D02*
X131977500Y-67254724D01*
X133022500Y-66745276D02*
X133022500Y-67254724D01*
G04 #@! TO.C,R30*
X132245276Y-111477500D02*
X132754724Y-111477500D01*
X132245276Y-112522500D02*
X132754724Y-112522500D01*
G04 #@! TO.C,C3*
X141146267Y-92480000D02*
X140853733Y-92480000D01*
X141146267Y-93500000D02*
X140853733Y-93500000D01*
G04 #@! TO.C,R6*
X137754724Y-94467500D02*
X137245276Y-94467500D01*
X137754724Y-95512500D02*
X137245276Y-95512500D01*
G04 #@! TO.C,R5*
X144727500Y-89745276D02*
X144727500Y-90254724D01*
X145772500Y-89745276D02*
X145772500Y-90254724D01*
G04 #@! TO.C,C1*
X141146267Y-104480000D02*
X140853733Y-104480000D01*
X141146267Y-105500000D02*
X140853733Y-105500000D01*
G04 #@! TO.C,R11*
X129977500Y-80254724D02*
X129977500Y-79745276D01*
X131022500Y-80254724D02*
X131022500Y-79745276D01*
G04 #@! TO.C,Y1*
X130125000Y-96665000D02*
X130125000Y-95315000D01*
X131875000Y-96665000D02*
X131875000Y-95315000D01*
G04 #@! TO.C,R26*
X138477500Y-121254724D02*
X138477500Y-120745276D01*
X139522500Y-121254724D02*
X139522500Y-120745276D01*
G04 #@! TO.C,C6*
X153490000Y-108843733D02*
X153490000Y-109136267D01*
X154510000Y-108843733D02*
X154510000Y-109136267D01*
G04 #@! TO.C,Y2*
X130000000Y-104280000D02*
X135000000Y-104280000D01*
X130000000Y-107700000D02*
X135000000Y-107700000D01*
G04 #@! TO.C,C27*
X144490000Y-116353733D02*
X144490000Y-116646267D01*
X145510000Y-116353733D02*
X145510000Y-116646267D01*
G04 #@! TO.C,J2*
D10*
X158870000Y-63380000D02*
X160230000Y-63380000D01*
X160230000Y-72620000D02*
X158870000Y-72620000D01*
X163070000Y-63380000D02*
X163900000Y-63380000D01*
X163900000Y-63380000D02*
X163900000Y-72620000D01*
X163900000Y-72620000D02*
X163070000Y-72620000D01*
G04 #@! TO.C,R20*
D12*
X142254724Y-59477500D02*
X141745276Y-59477500D01*
X142254724Y-60522500D02*
X141745276Y-60522500D01*
G04 #@! TO.C,C28*
X146490000Y-116353733D02*
X146490000Y-116646267D01*
X147510000Y-116353733D02*
X147510000Y-116646267D01*
G04 #@! TO.C,R25*
X138477500Y-116245276D02*
X138477500Y-116754724D01*
X139522500Y-116245276D02*
X139522500Y-116754724D01*
G04 #@! TO.C,TP4*
X160200000Y-75000000D02*
G75*
G02*
X157800000Y-75000000I-1200000J0D01*
G01*
X157800000Y-75000000D02*
G75*
G02*
X160200000Y-75000000I1200000J0D01*
G01*
G04 #@! TO.C,TP8*
X126200000Y-67000000D02*
G75*
G02*
X123800000Y-67000000I-1200000J0D01*
G01*
X123800000Y-67000000D02*
G75*
G02*
X126200000Y-67000000I1200000J0D01*
G01*
G04 #@! TO.C,FB1*
X140828733Y-108490000D02*
X141171267Y-108490000D01*
X140828733Y-109510000D02*
X141171267Y-109510000D01*
G04 #@! TO.C,C25*
X138146267Y-52990000D02*
X137853733Y-52990000D01*
X138146267Y-54010000D02*
X137853733Y-54010000D01*
G04 #@! TO.C,U2*
X132890000Y-74620000D02*
X132890000Y-74390000D01*
X132890000Y-77610000D02*
X132890000Y-77380000D01*
X133865000Y-74390000D02*
X132890000Y-74390000D01*
X133865000Y-77610000D02*
X132890000Y-77610000D01*
X135820000Y-77610000D02*
X135135000Y-77610000D01*
X136110000Y-74390000D02*
X135135000Y-74390000D01*
X136110000Y-74620000D02*
X136110000Y-74390000D01*
X136140000Y-77610000D02*
X136420000Y-77610000D01*
X136140000Y-77890000D01*
X136140000Y-77610000D01*
G36*
X136140000Y-77890000D02*
G01*
X136140000Y-77610000D01*
X136420000Y-77610000D01*
X136140000Y-77890000D01*
G37*
G04 #@! TO.C,C14*
X133853733Y-96480000D02*
X134146267Y-96480000D01*
X133853733Y-97500000D02*
X134146267Y-97500000D01*
G04 #@! TO.C,C4*
X141146267Y-88480000D02*
X140853733Y-88480000D01*
X141146267Y-89500000D02*
X140853733Y-89500000D01*
G04 #@! TO.C,C23*
X145353733Y-66490000D02*
X145646267Y-66490000D01*
X145353733Y-67510000D02*
X145646267Y-67510000D01*
G04 #@! TO.C,C21*
X130646267Y-72490000D02*
X130353733Y-72490000D01*
X130646267Y-73510000D02*
X130353733Y-73510000D01*
G04 #@! TO.C,TP5*
X160200000Y-61000000D02*
G75*
G02*
X157800000Y-61000000I-1200000J0D01*
G01*
X157800000Y-61000000D02*
G75*
G02*
X160200000Y-61000000I1200000J0D01*
G01*
G04 #@! TO.C,TP2*
X130200000Y-92000000D02*
G75*
G02*
X127800000Y-92000000I-1200000J0D01*
G01*
X127800000Y-92000000D02*
G75*
G02*
X130200000Y-92000000I1200000J0D01*
G01*
G04 #@! TO.C,R19*
X142254724Y-57477500D02*
X141745276Y-57477500D01*
X142254724Y-58522500D02*
X141745276Y-58522500D01*
G04 #@! TO.C,C8*
X158853733Y-95480000D02*
X159146267Y-95480000D01*
X158853733Y-96500000D02*
X159146267Y-96500000D01*
G04 #@! TO.C,R18*
X145754724Y-70477500D02*
X145245276Y-70477500D01*
X145754724Y-71522500D02*
X145245276Y-71522500D01*
G04 #@! TO.C,R8*
X130245276Y-74457500D02*
X130754724Y-74457500D01*
X130245276Y-75502500D02*
X130754724Y-75502500D01*
G04 #@! TO.C,FB2*
X145828733Y-124990000D02*
X146171267Y-124990000D01*
X145828733Y-126010000D02*
X146171267Y-126010000D01*
G04 #@! TO.C,D2*
X134040000Y-61140000D02*
X134040000Y-64000000D01*
X135960000Y-61140000D02*
X134040000Y-61140000D01*
X135960000Y-64000000D02*
X135960000Y-61140000D01*
G04 #@! TO.C,C24*
X141853733Y-61490000D02*
X142146267Y-61490000D01*
X141853733Y-62510000D02*
X142146267Y-62510000D01*
G04 #@! TO.C,R35*
X150754724Y-109477500D02*
X150245276Y-109477500D01*
X150754724Y-110522500D02*
X150245276Y-110522500D01*
G04 #@! TO.C,C7*
X141146267Y-90480000D02*
X140853733Y-90480000D01*
X141146267Y-91500000D02*
X140853733Y-91500000D01*
G04 #@! TO.C,C11*
X141146267Y-102480000D02*
X140853733Y-102480000D01*
X141146267Y-103500000D02*
X140853733Y-103500000D01*
G04 #@! TO.C,R32*
X125254724Y-89477500D02*
X124745276Y-89477500D01*
X125254724Y-90522500D02*
X124745276Y-90522500D01*
G04 #@! TO.C,R34*
X150754724Y-111477500D02*
X150245276Y-111477500D01*
X150754724Y-112522500D02*
X150245276Y-112522500D01*
G04 #@! TO.C,R28*
X150727500Y-90254724D02*
X150727500Y-89745276D01*
X151772500Y-90254724D02*
X151772500Y-89745276D01*
G04 #@! TO.C,U1*
X144890000Y-94890000D02*
X145840000Y-94890000D01*
X144890000Y-95840000D02*
X144890000Y-94890000D01*
X144890000Y-105110000D02*
X144890000Y-104160000D01*
X145840000Y-105110000D02*
X144890000Y-105110000D01*
X154160000Y-94890000D02*
X155110000Y-94890000D01*
X155110000Y-94890000D02*
X155110000Y-95840000D01*
X155110000Y-104160000D02*
X155110000Y-105110000D01*
X155110000Y-105110000D02*
X154160000Y-105110000D01*
X144250000Y-95840000D02*
X143910000Y-95370000D01*
X144590000Y-95370000D01*
X144250000Y-95840000D01*
G36*
X144250000Y-95840000D02*
G01*
X143910000Y-95370000D01*
X144590000Y-95370000D01*
X144250000Y-95840000D01*
G37*
G04 #@! TO.C,R33*
X124745276Y-85477500D02*
X125254724Y-85477500D01*
X124745276Y-86522500D02*
X125254724Y-86522500D01*
G04 #@! TD*
M02*
