G04 #@! TF.GenerationSoftware,KiCad,Pcbnew,10.0.3-10.0.3~ubuntu26.04.1*
G04 #@! TF.CreationDate,2026-08-21T06:38:12+03:00*
G04 #@! TF.ProjectId,central-unit-main,63656e74-7261-46c2-9d75-6e69742d6d61,B*
G04 #@! TF.SameCoordinates,Original*
G04 #@! TF.FileFunction,Legend,Bot*
G04 #@! TF.FilePolarity,Positive*
%FSLAX46Y46*%
G04 Gerber Fmt 4.6, Leading zero omitted, Abs format (unit mm)*
G04 Created by KiCad (PCBNEW 10.0.3-10.0.3~ubuntu26.04.1) date 2026-08-21 06:38:12*
%MOMM*%
%LPD*%
G01*
G04 APERTURE LIST*
%ADD10C,0.150000*%
%ADD11C,0.254000*%
%ADD12C,0.127000*%
%ADD13C,0.200000*%
%ADD14C,0.120000*%
%ADD15C,0.100000*%
G04 APERTURE END LIST*
D10*
X138238094Y-137954819D02*
X138238094Y-136954819D01*
X138238094Y-136954819D02*
X137999999Y-136954819D01*
X137999999Y-136954819D02*
X137857142Y-137002438D01*
X137857142Y-137002438D02*
X137761904Y-137097676D01*
X137761904Y-137097676D02*
X137714285Y-137192914D01*
X137714285Y-137192914D02*
X137666666Y-137383390D01*
X137666666Y-137383390D02*
X137666666Y-137526247D01*
X137666666Y-137526247D02*
X137714285Y-137716723D01*
X137714285Y-137716723D02*
X137761904Y-137811961D01*
X137761904Y-137811961D02*
X137857142Y-137907200D01*
X137857142Y-137907200D02*
X137999999Y-137954819D01*
X137999999Y-137954819D02*
X138238094Y-137954819D01*
X136809523Y-137288152D02*
X136809523Y-137954819D01*
X137047618Y-136907200D02*
X137285713Y-137621485D01*
X137285713Y-137621485D02*
X136666666Y-137621485D01*
X147138094Y-137954819D02*
X147138094Y-136954819D01*
X147138094Y-136954819D02*
X146899999Y-136954819D01*
X146899999Y-136954819D02*
X146757142Y-137002438D01*
X146757142Y-137002438D02*
X146661904Y-137097676D01*
X146661904Y-137097676D02*
X146614285Y-137192914D01*
X146614285Y-137192914D02*
X146566666Y-137383390D01*
X146566666Y-137383390D02*
X146566666Y-137526247D01*
X146566666Y-137526247D02*
X146614285Y-137716723D01*
X146614285Y-137716723D02*
X146661904Y-137811961D01*
X146661904Y-137811961D02*
X146757142Y-137907200D01*
X146757142Y-137907200D02*
X146899999Y-137954819D01*
X146899999Y-137954819D02*
X147138094Y-137954819D01*
X146233332Y-136954819D02*
X145566666Y-136954819D01*
X145566666Y-136954819D02*
X145995237Y-137954819D01*
X144238094Y-137954819D02*
X144238094Y-136954819D01*
X144238094Y-136954819D02*
X143999999Y-136954819D01*
X143999999Y-136954819D02*
X143857142Y-137002438D01*
X143857142Y-137002438D02*
X143761904Y-137097676D01*
X143761904Y-137097676D02*
X143714285Y-137192914D01*
X143714285Y-137192914D02*
X143666666Y-137383390D01*
X143666666Y-137383390D02*
X143666666Y-137526247D01*
X143666666Y-137526247D02*
X143714285Y-137716723D01*
X143714285Y-137716723D02*
X143761904Y-137811961D01*
X143761904Y-137811961D02*
X143857142Y-137907200D01*
X143857142Y-137907200D02*
X143999999Y-137954819D01*
X143999999Y-137954819D02*
X144238094Y-137954819D01*
X142809523Y-136954819D02*
X142999999Y-136954819D01*
X142999999Y-136954819D02*
X143095237Y-137002438D01*
X143095237Y-137002438D02*
X143142856Y-137050057D01*
X143142856Y-137050057D02*
X143238094Y-137192914D01*
X143238094Y-137192914D02*
X143285713Y-137383390D01*
X143285713Y-137383390D02*
X143285713Y-137764342D01*
X143285713Y-137764342D02*
X143238094Y-137859580D01*
X143238094Y-137859580D02*
X143190475Y-137907200D01*
X143190475Y-137907200D02*
X143095237Y-137954819D01*
X143095237Y-137954819D02*
X142904761Y-137954819D01*
X142904761Y-137954819D02*
X142809523Y-137907200D01*
X142809523Y-137907200D02*
X142761904Y-137859580D01*
X142761904Y-137859580D02*
X142714285Y-137764342D01*
X142714285Y-137764342D02*
X142714285Y-137526247D01*
X142714285Y-137526247D02*
X142761904Y-137431009D01*
X142761904Y-137431009D02*
X142809523Y-137383390D01*
X142809523Y-137383390D02*
X142904761Y-137335771D01*
X142904761Y-137335771D02*
X143095237Y-137335771D01*
X143095237Y-137335771D02*
X143190475Y-137383390D01*
X143190475Y-137383390D02*
X143238094Y-137431009D01*
X143238094Y-137431009D02*
X143285713Y-137526247D01*
X141238094Y-137954819D02*
X141238094Y-136954819D01*
X141238094Y-136954819D02*
X140999999Y-136954819D01*
X140999999Y-136954819D02*
X140857142Y-137002438D01*
X140857142Y-137002438D02*
X140761904Y-137097676D01*
X140761904Y-137097676D02*
X140714285Y-137192914D01*
X140714285Y-137192914D02*
X140666666Y-137383390D01*
X140666666Y-137383390D02*
X140666666Y-137526247D01*
X140666666Y-137526247D02*
X140714285Y-137716723D01*
X140714285Y-137716723D02*
X140761904Y-137811961D01*
X140761904Y-137811961D02*
X140857142Y-137907200D01*
X140857142Y-137907200D02*
X140999999Y-137954819D01*
X140999999Y-137954819D02*
X141238094Y-137954819D01*
X139761904Y-136954819D02*
X140238094Y-136954819D01*
X140238094Y-136954819D02*
X140285713Y-137431009D01*
X140285713Y-137431009D02*
X140238094Y-137383390D01*
X140238094Y-137383390D02*
X140142856Y-137335771D01*
X140142856Y-137335771D02*
X139904761Y-137335771D01*
X139904761Y-137335771D02*
X139809523Y-137383390D01*
X139809523Y-137383390D02*
X139761904Y-137431009D01*
X139761904Y-137431009D02*
X139714285Y-137526247D01*
X139714285Y-137526247D02*
X139714285Y-137764342D01*
X139714285Y-137764342D02*
X139761904Y-137859580D01*
X139761904Y-137859580D02*
X139809523Y-137907200D01*
X139809523Y-137907200D02*
X139904761Y-137954819D01*
X139904761Y-137954819D02*
X140142856Y-137954819D01*
X140142856Y-137954819D02*
X140238094Y-137907200D01*
X140238094Y-137907200D02*
X140285713Y-137859580D01*
X125063333Y-93994819D02*
X125063333Y-94709104D01*
X125063333Y-94709104D02*
X125110952Y-94851961D01*
X125110952Y-94851961D02*
X125206190Y-94947200D01*
X125206190Y-94947200D02*
X125349047Y-94994819D01*
X125349047Y-94994819D02*
X125444285Y-94994819D01*
X124682380Y-93994819D02*
X124063333Y-93994819D01*
X124063333Y-93994819D02*
X124396666Y-94375771D01*
X124396666Y-94375771D02*
X124253809Y-94375771D01*
X124253809Y-94375771D02*
X124158571Y-94423390D01*
X124158571Y-94423390D02*
X124110952Y-94471009D01*
X124110952Y-94471009D02*
X124063333Y-94566247D01*
X124063333Y-94566247D02*
X124063333Y-94804342D01*
X124063333Y-94804342D02*
X124110952Y-94899580D01*
X124110952Y-94899580D02*
X124158571Y-94947200D01*
X124158571Y-94947200D02*
X124253809Y-94994819D01*
X124253809Y-94994819D02*
X124539523Y-94994819D01*
X124539523Y-94994819D02*
X124634761Y-94947200D01*
X124634761Y-94947200D02*
X124682380Y-94899580D01*
D11*
X141909080Y-87957857D02*
X141969556Y-88139285D01*
X141969556Y-88139285D02*
X142030032Y-88199762D01*
X142030032Y-88199762D02*
X142150984Y-88260238D01*
X142150984Y-88260238D02*
X142332413Y-88260238D01*
X142332413Y-88260238D02*
X142453365Y-88199762D01*
X142453365Y-88199762D02*
X142513842Y-88139285D01*
X142513842Y-88139285D02*
X142574318Y-88018333D01*
X142574318Y-88018333D02*
X142574318Y-87534523D01*
X142574318Y-87534523D02*
X141304318Y-87534523D01*
X141304318Y-87534523D02*
X141304318Y-87957857D01*
X141304318Y-87957857D02*
X141364794Y-88078809D01*
X141364794Y-88078809D02*
X141425270Y-88139285D01*
X141425270Y-88139285D02*
X141546222Y-88199762D01*
X141546222Y-88199762D02*
X141667175Y-88199762D01*
X141667175Y-88199762D02*
X141788127Y-88139285D01*
X141788127Y-88139285D02*
X141848603Y-88078809D01*
X141848603Y-88078809D02*
X141909080Y-87957857D01*
X141909080Y-87957857D02*
X141909080Y-87534523D01*
X142211461Y-88744047D02*
X142211461Y-89348809D01*
X142574318Y-88623095D02*
X141304318Y-89046428D01*
X141304318Y-89046428D02*
X142574318Y-89469762D01*
X141304318Y-89711666D02*
X141304318Y-90437380D01*
X142574318Y-90074523D02*
X141304318Y-90074523D01*
X142574318Y-91525952D02*
X142574318Y-90800237D01*
X142574318Y-91163094D02*
X141304318Y-91163094D01*
X141304318Y-91163094D02*
X141485746Y-91042142D01*
X141485746Y-91042142D02*
X141606699Y-90921190D01*
X141606699Y-90921190D02*
X141667175Y-90800237D01*
X159717619Y-89263842D02*
X159536190Y-89324318D01*
X159536190Y-89324318D02*
X159233809Y-89324318D01*
X159233809Y-89324318D02*
X159112857Y-89263842D01*
X159112857Y-89263842D02*
X159052381Y-89203365D01*
X159052381Y-89203365D02*
X158991904Y-89082413D01*
X158991904Y-89082413D02*
X158991904Y-88961461D01*
X158991904Y-88961461D02*
X159052381Y-88840508D01*
X159052381Y-88840508D02*
X159112857Y-88780032D01*
X159112857Y-88780032D02*
X159233809Y-88719556D01*
X159233809Y-88719556D02*
X159475714Y-88659080D01*
X159475714Y-88659080D02*
X159596666Y-88598603D01*
X159596666Y-88598603D02*
X159657143Y-88538127D01*
X159657143Y-88538127D02*
X159717619Y-88417175D01*
X159717619Y-88417175D02*
X159717619Y-88296222D01*
X159717619Y-88296222D02*
X159657143Y-88175270D01*
X159657143Y-88175270D02*
X159596666Y-88114794D01*
X159596666Y-88114794D02*
X159475714Y-88054318D01*
X159475714Y-88054318D02*
X159173333Y-88054318D01*
X159173333Y-88054318D02*
X158991904Y-88114794D01*
X157782380Y-89324318D02*
X158508095Y-89324318D01*
X158145238Y-89324318D02*
X158145238Y-88054318D01*
X158145238Y-88054318D02*
X158266190Y-88235746D01*
X158266190Y-88235746D02*
X158387142Y-88356699D01*
X158387142Y-88356699D02*
X158508095Y-88417175D01*
D10*
X161454819Y-81166666D02*
X162169104Y-81166666D01*
X162169104Y-81166666D02*
X162311961Y-81119047D01*
X162311961Y-81119047D02*
X162407200Y-81023809D01*
X162407200Y-81023809D02*
X162454819Y-80880952D01*
X162454819Y-80880952D02*
X162454819Y-80785714D01*
X162454819Y-82166666D02*
X162454819Y-81595238D01*
X162454819Y-81880952D02*
X161454819Y-81880952D01*
X161454819Y-81880952D02*
X161597676Y-81785714D01*
X161597676Y-81785714D02*
X161692914Y-81690476D01*
X161692914Y-81690476D02*
X161740533Y-81595238D01*
G04 #@! TO.C,D4*
D12*
X136680000Y-132880000D02*
X136780000Y-132880000D01*
X136680000Y-135480000D02*
X136680000Y-132880000D01*
X138320000Y-132880000D02*
X138220000Y-132880000D01*
D13*
X137600000Y-131965000D02*
G75*
G02*
X137400000Y-131965000I-100000J0D01*
G01*
X137400000Y-131965000D02*
G75*
G02*
X137600000Y-131965000I100000J0D01*
G01*
D12*
X138320000Y-135480000D02*
X138320000Y-132880000D01*
G04 #@! TO.C,D7*
X147320000Y-135480000D02*
X147320000Y-132880000D01*
D13*
X146600000Y-131965000D02*
G75*
G02*
X146400000Y-131965000I-100000J0D01*
G01*
X146400000Y-131965000D02*
G75*
G02*
X146600000Y-131965000I100000J0D01*
G01*
D12*
X147320000Y-132880000D02*
X147220000Y-132880000D01*
X145680000Y-135480000D02*
X145680000Y-132880000D01*
X145680000Y-132880000D02*
X145780000Y-132880000D01*
G04 #@! TO.C,D6*
X144320000Y-135480000D02*
X144320000Y-132880000D01*
D13*
X143600000Y-131965000D02*
G75*
G02*
X143400000Y-131965000I-100000J0D01*
G01*
X143400000Y-131965000D02*
G75*
G02*
X143600000Y-131965000I100000J0D01*
G01*
D12*
X144320000Y-132880000D02*
X144220000Y-132880000D01*
X142680000Y-135480000D02*
X142680000Y-132880000D01*
X142680000Y-132880000D02*
X142780000Y-132880000D01*
G04 #@! TO.C,D5*
X141320000Y-135480000D02*
X141320000Y-132880000D01*
D13*
X140600000Y-131965000D02*
G75*
G02*
X140400000Y-131965000I-100000J0D01*
G01*
X140400000Y-131965000D02*
G75*
G02*
X140600000Y-131965000I100000J0D01*
G01*
D12*
X141320000Y-132880000D02*
X141220000Y-132880000D01*
X139680000Y-135480000D02*
X139680000Y-132880000D01*
X139680000Y-132880000D02*
X139780000Y-132880000D01*
G04 #@! TO.C,J3*
D14*
X120170000Y-95430000D02*
X120170000Y-128710000D01*
X120170000Y-128710000D02*
X129290000Y-128710000D01*
X121480000Y-96730000D02*
X121480000Y-127410000D01*
X121480000Y-127410000D02*
X127980000Y-127410000D01*
X127980000Y-96730000D02*
X121480000Y-96730000D01*
X127980000Y-110020000D02*
X127980000Y-96730000D01*
X127980000Y-114120000D02*
X129290000Y-114120000D01*
X127980000Y-127410000D02*
X127980000Y-114120000D01*
X129290000Y-95430000D02*
X120170000Y-95430000D01*
X129290000Y-110020000D02*
X127980000Y-110020000D01*
X129290000Y-128710000D02*
X129290000Y-95430000D01*
X129680000Y-100640000D02*
X130680000Y-100140000D01*
X130680000Y-100140000D02*
X130680000Y-101140000D01*
X130680000Y-101140000D02*
X129680000Y-100640000D01*
G04 #@! TO.C,BAT1*
D15*
X131675000Y-50975000D02*
X131675000Y-50975000D01*
X131675000Y-50975000D02*
X152325000Y-50975000D01*
X131675000Y-128025000D02*
X131675000Y-128025000D01*
X131675000Y-128025000D02*
X152325000Y-128025000D01*
D13*
X141900000Y-50480000D02*
X141900000Y-50480000D01*
X142100000Y-50480000D02*
X142100000Y-50480000D01*
D15*
X152325000Y-50975000D02*
X131675000Y-50975000D01*
X152325000Y-50975000D02*
X152325000Y-50975000D01*
X152325000Y-128025000D02*
X131675000Y-128025000D01*
X152325000Y-128025000D02*
X152325000Y-128025000D01*
D13*
X141900000Y-50480000D02*
G75*
G02*
X142100000Y-50480000I100000J0D01*
G01*
X142100000Y-50480000D02*
G75*
G02*
X141900000Y-50480000I-100000J0D01*
G01*
G04 #@! TO.C,S1*
D15*
X155755000Y-87750000D02*
X155750000Y-89750000D01*
X155755000Y-87750000D02*
X155755000Y-87750000D01*
X160750000Y-85750000D02*
X156750000Y-85750000D01*
X160750000Y-91750000D02*
X156750000Y-91750000D01*
X161745000Y-89750000D02*
X161745000Y-89750000D01*
X161750000Y-87750000D02*
X161745000Y-89750000D01*
X161750000Y-87750000D02*
X161750000Y-87750000D01*
G04 #@! TO.C,J1*
D14*
X154280000Y-78340000D02*
X154280000Y-84120000D01*
X154280000Y-84120000D02*
X160720000Y-84120000D01*
X154800000Y-78340000D02*
X154800000Y-84120000D01*
X160100000Y-78340000D02*
X160100000Y-78930000D01*
X160100000Y-80990000D02*
X160100000Y-81470000D01*
X160100000Y-83530000D02*
X160100000Y-84120000D01*
X160720000Y-78340000D02*
X154280000Y-78340000D01*
X160720000Y-78930000D02*
X160720000Y-78340000D01*
X160720000Y-81470000D02*
X160720000Y-80990000D01*
X160720000Y-84120000D02*
X160720000Y-83530000D01*
X161070000Y-79960000D02*
X161680000Y-80400000D01*
X161680000Y-79520000D01*
X161070000Y-79960000D01*
G36*
X161680000Y-80400000D02*
G01*
X161070000Y-79960000D01*
X161680000Y-79520000D01*
X161680000Y-80400000D01*
G37*
G04 #@! TD*
M02*
